999
Inkscape export via "Better DXF Output" (bob@bobcookdev.com)
  0
SECTION
  2
HEADER
  9
$ACADVER
  1
AC1014
  9
$HANDSEED
  5
FFFF
  0
ENDSEC
  0
SECTION
  2
TABLES
  0
TABLE
  2
VPORT
  5
8
330
0
100
AcDbSymbolTable
 70
     4
  0
VPORT
  5
2E
330
8
100
AcDbSymbolTableRecord
100
AcDbViewportTableRecord
  2
*ACTIVE
 70
     0
 10
0.0
 20
0.0
 11
1.0
 21
1.0
 12
4.25
 22
5.5
 13
0.0
 23
0.0
 14
10.0
 24
10.0
 15
10.0
 25
10.0
 16
0.0
 26
0.0
 36
1.0
 17
0.0
 27
0.0
 37
0.0
 40
11
 41
1.24
 42
50.0
 43
0.0
 44
0.0
 50
0.0
 51
0.0
 71
     0
 72
   100
 73
     1
 74
     3
 75
     0
 76
     0
 77
     0
 78
     0
  0
ENDTAB
  0
TABLE
  2
LTYPE
  5
5
330
0
100
AcDbSymbolTable
 70
     1
  0
LTYPE
  5
14
330
5
100
AcDbSymbolTableRecord
100
AcDbLinetypeTableRecord
  2
BYBLOCK
 70
     0
  3

 72
    65
 73
     0
 40
0.0
  0
LTYPE
  5
15
330
5
100
AcDbSymbolTableRecord
100
AcDbLinetypeTableRecord
  2
BYLAYER
 70
     0
  3

 72
    65
 73
     0
 40
0.0
  0
LTYPE
  5
16
330
5
100
AcDbSymbolTableRecord
100
AcDbLinetypeTableRecord
  2
CONTINUOUS
 70
     0
  3
Solid line
 72
    65
 73
     0
 40
0.0
  0
ENDTAB
  0
TABLE
  2
LAYER
  5
2
330
0
100
AcDbSymbolTable
 70
1
  0
LAYER
  5
10
330
2
100
AcDbSymbolTableRecord
100
AcDbLayerTableRecord
  2
0
 70
     0
 62
     7
  6
CONTINUOUS
  0
ENDTAB
  0
TABLE
  2
STYLE
  5
3
330
0
100
AcDbSymbolTable
 70
     1
  0
STYLE
  5
11
330
3
100
AcDbSymbolTableRecord
100
AcDbTextStyleTableRecord
  2
STANDARD
 70
     0
 40
0.0
 41
1.0
 50
0.0
 71
     0
 42
2.5
  3
txt
  4

  0
ENDTAB
  0
TABLE
  2
VIEW
  5
6
330
0
100
AcDbSymbolTable
 70
     0
  0
ENDTAB
  0
TABLE
  2
UCS
  5
7
330
0
100
AcDbSymbolTable
 70
     0
  0
ENDTAB
  0
TABLE
  2
APPID
  5
9
330
0
100
AcDbSymbolTable
 70
     2
  0
APPID
  5
12
330
9
100
AcDbSymbolTableRecord
100
AcDbRegAppTableRecord
  2
ACAD
 70
     0
  0
ENDTAB
  0
TABLE
  2
DIMSTYLE
  5
A
330
0
100
AcDbSymbolTable
 70
     1
  0
DIMSTYLE
105
27
330
A
100
AcDbSymbolTableRecord
100
AcDbDimStyleTableRecord
  2
ISO-25
 70
     0
  3

  4

  5

  6

  7

 40
1.0
 41
2.5
 42
0.625
 43
3.75
 44
1.25
 45
0.0
 46
0.0
 47
0.0
 48
0.0
140
2.5
141
2.5
142
0.0
143
0.03937007874016
144
1.0
145
0.0
146
1.0
147
0.625
 71
     0
 72
     0
 73
     0
 74
     0
 75
     0
 76
     0
 77
     1
 78
     8
170
     0
171
     3
172
     1
173
     0
174
     0
175
     0
176
     0
177
     0
178
     0
270
     2
271
     2
272
     2
273
     2
274
     3
340
11
275
     0
280
     0
281
     0
282
     0
283
     0
284
     8
285
     0
286
     0
287
     3
288
     0
  0
ENDTAB
  0
TABLE
  2
BLOCK_RECORD
  5
1
330
0
100
AcDbSymbolTable
 70
     1
  0
BLOCK_RECORD
  5
1F
330
1
100
AcDbSymbolTableRecord
100
AcDbBlockTableRecord
  2
*MODEL_SPACE
  0
BLOCK_RECORD
  5
1B
330
1
100
AcDbSymbolTableRecord
100
AcDbBlockTableRecord
  2
*PAPER_SPACE
  0
ENDTAB
  0
ENDSEC
  0
SECTION
  2
BLOCKS
  0
BLOCK
  5
20
330
1F
100
AcDbEntity
  8
0
100
AcDbBlockBegin
  2
*MODEL_SPACE
 70
     0
 10
0.0
 20
0.0
 30
0.0
  3
*MODEL_SPACE
  1

  0
ENDBLK
  5
21
330
1F
100
AcDbEntity
  8
0
100
AcDbBlockEnd
  0
BLOCK
  5
1C
330
1B
100
AcDbEntity
 67
     1
  8
0
100
AcDbBlockBegin
  2
*PAPER_SPACE
  1

  0
ENDBLK
  5
1D
330
1B
100
AcDbEntity
 67
     1
  8
0
100
AcDbBlockEnd
  0
ENDSEC
  0
SECTION
  2
ENTITIES
0
LINE
8
Calque 1
62
4
5
100
100
AcDbEntity
100
AcDbLine
10
-348.732687
20
530.542702
30
0.0
11
-348.732687
21
510.542702
31
0.0
0
LINE
8
Calque 1
62
4
5
101
100
AcDbEntity
100
AcDbLine
10
-348.732687
20
510.542702
30
0.0
11
-351.732681
21
510.542702
31
0.0
0
LINE
8
Calque 1
62
4
5
102
100
AcDbEntity
100
AcDbLine
10
-351.732681
20
510.542702
30
0.0
11
-351.732681
21
493.542702
31
0.0
0
LINE
8
Calque 1
62
4
5
103
100
AcDbEntity
100
AcDbLine
10
-351.732681
20
493.542702
30
0.0
11
-365.982673
21
493.542702
31
0.0
0
LINE
8
Calque 1
62
4
5
104
100
AcDbEntity
100
AcDbLine
10
-365.982673
20
493.542702
30
0.0
11
-365.982673
21
490.542703
31
0.0
0
LINE
8
Calque 1
62
4
5
105
100
AcDbEntity
100
AcDbLine
10
-365.982673
20
490.542703
30
0.0
11
-380.232694
21
490.542703
31
0.0
0
LINE
8
Calque 1
62
4
5
106
100
AcDbEntity
100
AcDbLine
10
-380.232694
20
490.542703
30
0.0
11
-380.232694
21
493.542702
31
0.0
0
LINE
8
Calque 1
62
4
5
107
100
AcDbEntity
100
AcDbLine
10
-380.232694
20
493.542702
30
0.0
11
-394.482687
21
493.542702
31
0.0
0
LINE
8
Calque 1
62
4
5
108
100
AcDbEntity
100
AcDbLine
10
-394.482687
20
493.542702
30
0.0
11
-394.482687
21
490.542703
31
0.0
0
LINE
8
Calque 1
62
4
5
109
100
AcDbEntity
100
AcDbLine
10
-394.482687
20
490.542703
30
0.0
11
-402.732692
21
490.542703
31
0.0
0
LINE
8
Calque 1
62
4
5
10a
100
AcDbEntity
100
AcDbLine
10
-402.732692
20
490.542703
30
0.0
11
-402.732692
21
487.542703
31
0.0
0
LINE
8
Calque 1
62
4
5
10b
100
AcDbEntity
100
AcDbLine
10
-402.732692
20
487.542703
30
0.0
11
-411.732674
21
487.542703
31
0.0
0
LINE
8
Calque 1
62
4
5
10c
100
AcDbEntity
100
AcDbLine
10
-411.732674
20
487.542703
30
0.0
11
-411.732674
21
496.542702
31
0.0
0
LINE
8
Calque 1
62
4
5
10d
100
AcDbEntity
100
AcDbLine
10
-411.732674
20
496.542702
30
0.0
11
-408.732680
21
496.542702
31
0.0
0
LINE
8
Calque 1
62
4
5
10e
100
AcDbEntity
100
AcDbLine
10
-408.732680
20
496.542702
30
0.0
11
-408.732680
21
567.542701
31
0.0
0
LINE
8
Calque 1
62
4
5
10f
100
AcDbEntity
100
AcDbLine
10
-408.732680
20
567.542701
30
0.0
11
-394.482687
21
567.542701
31
0.0
0
LINE
8
Calque 1
62
4
5
110
100
AcDbEntity
100
AcDbLine
10
-394.482687
20
567.542701
30
0.0
11
-394.482687
21
570.542701
31
0.0
0
LINE
8
Calque 1
62
4
5
111
100
AcDbEntity
100
AcDbLine
10
-394.482687
20
570.542701
30
0.0
11
-380.232694
21
570.542701
31
0.0
0
LINE
8
Calque 1
62
4
5
112
100
AcDbEntity
100
AcDbLine
10
-380.232694
20
570.542701
30
0.0
11
-380.232694
21
567.542701
31
0.0
0
LINE
8
Calque 1
62
4
5
113
100
AcDbEntity
100
AcDbLine
10
-380.232694
20
567.542701
30
0.0
11
-365.982673
21
567.542701
31
0.0
0
LINE
8
Calque 1
62
4
5
114
100
AcDbEntity
100
AcDbLine
10
-365.982673
20
567.542701
30
0.0
11
-365.982673
21
570.542701
31
0.0
0
LINE
8
Calque 1
62
4
5
115
100
AcDbEntity
100
AcDbLine
10
-365.982673
20
570.542701
30
0.0
11
-348.732687
21
570.542701
31
0.0
0
LINE
8
Calque 1
62
4
5
116
100
AcDbEntity
100
AcDbLine
10
-348.732687
20
570.542701
30
0.0
11
-348.732687
21
550.542701
31
0.0
0
LINE
8
Calque 1
62
4
5
117
100
AcDbEntity
100
AcDbLine
10
-348.732687
20
550.542701
30
0.0
11
-351.732681
21
550.542701
31
0.0
0
LINE
8
Calque 1
62
4
5
118
100
AcDbEntity
100
AcDbLine
10
-351.732681
20
550.542701
30
0.0
11
-351.732681
21
530.542702
31
0.0
0
LINE
8
Calque 1
62
4
5
119
100
AcDbEntity
100
AcDbLine
10
-351.732681
20
530.542702
30
0.0
11
-348.732687
21
530.542702
31
0.0
0
LINE
8
Calque 1
62
4
5
11a
100
AcDbEntity
100
AcDbLine
10
-285.387147
20
568.229102
30
0.0
11
-285.387147
21
549.729103
31
0.0
0
LINE
8
Calque 1
62
4
5
11b
100
AcDbEntity
100
AcDbLine
10
-285.387147
20
549.729103
30
0.0
11
-285.387147
21
512.729103
31
0.0
0
LINE
8
Calque 1
62
4
5
11c
100
AcDbEntity
100
AcDbLine
10
-285.387147
20
512.729103
30
0.0
11
-285.387147
21
494.229101
31
0.0
0
LINE
8
Calque 1
62
4
5
11d
100
AcDbEntity
100
AcDbLine
10
-285.387147
20
494.229101
30
0.0
11
-297.637144
21
494.229101
31
0.0
0
LINE
8
Calque 1
62
4
5
11e
100
AcDbEntity
100
AcDbLine
10
-297.637144
20
494.229101
30
0.0
11
-297.637144
21
491.229101
31
0.0
0
LINE
8
Calque 1
62
4
5
11f
100
AcDbEntity
100
AcDbLine
10
-297.637144
20
491.229101
30
0.0
11
-322.137137
21
491.229101
31
0.0
0
LINE
8
Calque 1
62
4
5
120
100
AcDbEntity
100
AcDbLine
10
-322.137137
20
491.229101
30
0.0
11
-322.137137
21
494.229101
31
0.0
0
LINE
8
Calque 1
62
4
5
121
100
AcDbEntity
100
AcDbLine
10
-322.137137
20
494.229101
30
0.0
11
-334.387162
21
494.229101
31
0.0
0
LINE
8
Calque 1
62
4
5
122
100
AcDbEntity
100
AcDbLine
10
-334.387162
20
494.229101
30
0.0
11
-334.387162
21
568.229102
31
0.0
0
LINE
8
Calque 1
62
4
5
123
100
AcDbEntity
100
AcDbLine
10
-334.387162
20
568.229102
30
0.0
11
-322.137137
21
568.229102
31
0.0
0
LINE
8
Calque 1
62
4
5
124
100
AcDbEntity
100
AcDbLine
10
-322.137137
20
568.229102
30
0.0
11
-322.137137
21
571.229102
31
0.0
0
LINE
8
Calque 1
62
4
5
125
100
AcDbEntity
100
AcDbLine
10
-322.137137
20
571.229102
30
0.0
11
-297.637144
21
571.229102
31
0.0
0
LINE
8
Calque 1
62
4
5
126
100
AcDbEntity
100
AcDbLine
10
-297.637144
20
571.229102
30
0.0
11
-297.637144
21
568.229102
31
0.0
0
LINE
8
Calque 1
62
4
5
127
100
AcDbEntity
100
AcDbLine
10
-297.637144
20
568.229102
30
0.0
11
-285.387147
21
568.229102
31
0.0
0
LINE
8
Calque 1
62
4
5
128
100
AcDbEntity
100
AcDbLine
10
-197.378749
20
487.309802
30
0.0
11
-198.545109
21
487.156251
31
0.0
0
LINE
8
Calque 1
62
4
5
129
100
AcDbEntity
100
AcDbLine
10
-198.545109
20
487.156251
30
0.0
11
-203.045108
21
487.156251
31
0.0
0
LINE
8
Calque 1
62
4
5
12a
100
AcDbEntity
100
AcDbLine
10
-203.045108
20
487.156251
30
0.0
11
-203.045108
21
490.162690
31
0.0
0
LINE
8
Calque 1
62
4
5
12b
100
AcDbEntity
100
AcDbLine
10
-203.045108
20
490.162690
30
0.0
11
-197.045109
21
490.162690
31
0.0
0
LINE
8
Calque 1
62
4
5
12c
100
AcDbEntity
100
AcDbLine
10
-197.045109
20
490.162690
30
0.0
11
-197.045109
21
493.162693
31
0.0
0
LINE
8
Calque 1
62
4
5
12d
100
AcDbEntity
100
AcDbLine
10
-197.045109
20
493.162693
30
0.0
11
-200.045108
21
493.162693
31
0.0
0
LINE
8
Calque 1
62
4
5
12e
100
AcDbEntity
100
AcDbLine
10
-200.045108
20
493.162693
30
0.0
11
-200.045108
21
497.650122
31
0.0
0
LINE
8
Calque 1
62
4
5
12f
100
AcDbEntity
100
AcDbLine
10
-200.045108
20
497.650122
30
0.0
11
-203.045108
21
497.650122
31
0.0
0
LINE
8
Calque 1
62
4
5
130
100
AcDbEntity
100
AcDbLine
10
-203.045108
20
497.650122
30
0.0
11
-203.045108
21
518.637860
31
0.0
0
LINE
8
Calque 1
62
4
5
131
100
AcDbEntity
100
AcDbLine
10
-203.045108
20
518.637860
30
0.0
11
-200.045108
21
518.637860
31
0.0
0
LINE
8
Calque 1
62
4
5
132
100
AcDbEntity
100
AcDbLine
10
-200.045108
20
518.637860
30
0.0
11
-200.045108
21
539.625601
31
0.0
0
LINE
8
Calque 1
62
4
5
133
100
AcDbEntity
100
AcDbLine
10
-200.045108
20
539.625601
30
0.0
11
-203.045108
21
539.625601
31
0.0
0
LINE
8
Calque 1
62
4
5
134
100
AcDbEntity
100
AcDbLine
10
-203.045108
20
539.625601
30
0.0
11
-203.045108
21
560.613341
31
0.0
0
LINE
8
Calque 1
62
4
5
135
100
AcDbEntity
100
AcDbLine
10
-203.045108
20
560.613341
30
0.0
11
-197.045109
21
560.613341
31
0.0
0
LINE
8
Calque 1
62
4
5
136
100
AcDbEntity
100
AcDbLine
10
-197.045109
20
560.613341
30
0.0
11
-197.045109
21
500.650122
31
0.0
0
LINE
8
Calque 1
62
4
5
137
100
AcDbEntity
100
AcDbLine
10
-197.045109
20
500.650122
30
0.0
11
-194.045109
21
500.650122
31
0.0
0
LINE
8
Calque 1
62
4
5
138
100
AcDbEntity
100
AcDbLine
10
-194.045109
20
500.650122
30
0.0
11
-194.045109
21
491.613742
31
0.0
0
LINE
8
Calque 1
62
4
5
139
100
AcDbEntity
100
AcDbLine
10
-194.045109
20
491.613742
30
0.0
11
-194.192209
21
490.496342
31
0.0
0
LINE
8
Calque 1
62
4
5
13a
100
AcDbEntity
100
AcDbLine
10
-194.192209
20
490.496342
30
0.0
11
-194.642407
21
489.409470
31
0.0
0
LINE
8
Calque 1
62
4
5
13b
100
AcDbEntity
100
AcDbLine
10
-194.642407
20
489.409470
30
0.0
11
-195.358568
21
488.476153
31
0.0
0
LINE
8
Calque 1
62
4
5
13c
100
AcDbEntity
100
AcDbLine
10
-195.358568
20
488.476153
30
0.0
11
-196.291877
21
487.760003
31
0.0
0
LINE
8
Calque 1
62
4
5
13d
100
AcDbEntity
100
AcDbLine
10
-196.291877
20
487.760003
30
0.0
11
-197.378749
21
487.309802
31
0.0
0
LINE
8
Calque 1
62
4
5
13e
100
AcDbEntity
100
AcDbLine
10
-183.037599
20
486.346552
30
0.0
11
-184.203947
21
486.193001
31
0.0
0
LINE
8
Calque 1
62
4
5
13f
100
AcDbEntity
100
AcDbLine
10
-184.203947
20
486.193001
30
0.0
11
-188.703949
21
486.193001
31
0.0
0
LINE
8
Calque 1
62
4
5
140
100
AcDbEntity
100
AcDbLine
10
-188.703949
20
486.193001
30
0.0
11
-188.703949
21
489.199441
31
0.0
0
LINE
8
Calque 1
62
4
5
141
100
AcDbEntity
100
AcDbLine
10
-188.703949
20
489.199441
30
0.0
11
-182.703947
21
489.199441
31
0.0
0
LINE
8
Calque 1
62
4
5
142
100
AcDbEntity
100
AcDbLine
10
-182.703947
20
489.199441
30
0.0
11
-182.703947
21
492.199443
31
0.0
0
LINE
8
Calque 1
62
4
5
143
100
AcDbEntity
100
AcDbLine
10
-182.703947
20
492.199443
30
0.0
11
-185.703947
21
492.199443
31
0.0
0
LINE
8
Calque 1
62
4
5
144
100
AcDbEntity
100
AcDbLine
10
-185.703947
20
492.199443
30
0.0
11
-185.703947
21
496.686872
31
0.0
0
LINE
8
Calque 1
62
4
5
145
100
AcDbEntity
100
AcDbLine
10
-185.703947
20
496.686872
30
0.0
11
-188.703949
21
496.686872
31
0.0
0
LINE
8
Calque 1
62
4
5
146
100
AcDbEntity
100
AcDbLine
10
-188.703949
20
496.686872
30
0.0
11
-188.703949
21
517.674610
31
0.0
0
LINE
8
Calque 1
62
4
5
147
100
AcDbEntity
100
AcDbLine
10
-188.703949
20
517.674610
30
0.0
11
-185.703947
21
517.674610
31
0.0
0
LINE
8
Calque 1
62
4
5
148
100
AcDbEntity
100
AcDbLine
10
-185.703947
20
517.674610
30
0.0
11
-185.703947
21
538.662351
31
0.0
0
LINE
8
Calque 1
62
4
5
149
100
AcDbEntity
100
AcDbLine
10
-185.703947
20
538.662351
30
0.0
11
-188.703949
21
538.662351
31
0.0
0
LINE
8
Calque 1
62
4
5
14a
100
AcDbEntity
100
AcDbLine
10
-188.703949
20
538.662351
30
0.0
11
-188.703949
21
559.650091
31
0.0
0
LINE
8
Calque 1
62
4
5
14b
100
AcDbEntity
100
AcDbLine
10
-188.703949
20
559.650091
30
0.0
11
-182.703947
21
559.650091
31
0.0
0
LINE
8
Calque 1
62
4
5
14c
100
AcDbEntity
100
AcDbLine
10
-182.703947
20
559.650091
30
0.0
11
-182.703947
21
499.686872
31
0.0
0
LINE
8
Calque 1
62
4
5
14d
100
AcDbEntity
100
AcDbLine
10
-182.703947
20
499.686872
30
0.0
11
-179.703947
21
499.686872
31
0.0
0
LINE
8
Calque 1
62
4
5
14e
100
AcDbEntity
100
AcDbLine
10
-179.703947
20
499.686872
30
0.0
11
-179.703947
21
490.650492
31
0.0
0
LINE
8
Calque 1
62
4
5
14f
100
AcDbEntity
100
AcDbLine
10
-179.703947
20
490.650492
30
0.0
11
-179.851058
21
489.533092
31
0.0
0
LINE
8
Calque 1
62
4
5
150
100
AcDbEntity
100
AcDbLine
10
-179.851058
20
489.533092
30
0.0
11
-180.301248
21
488.446221
31
0.0
0
LINE
8
Calque 1
62
4
5
151
100
AcDbEntity
100
AcDbLine
10
-180.301248
20
488.446221
30
0.0
11
-181.017407
21
487.512900
31
0.0
0
LINE
8
Calque 1
62
4
5
152
100
AcDbEntity
100
AcDbLine
10
-181.017407
20
487.512900
30
0.0
11
-181.950727
21
486.796753
31
0.0
0
LINE
8
Calque 1
62
4
5
153
100
AcDbEntity
100
AcDbLine
10
-181.950727
20
486.796753
30
0.0
11
-183.037599
21
486.346552
31
0.0
0
LINE
8
Calque 1
62
4
5
154
100
AcDbEntity
100
AcDbLine
10
-406.341947
20
582.415962
30
0.0
11
-406.341947
21
585.415984
31
0.0
0
LINE
8
Calque 1
62
4
5
155
100
AcDbEntity
100
AcDbLine
10
-406.341947
20
585.415984
30
0.0
11
-206.341929
21
585.415984
31
0.0
0
LINE
8
Calque 1
62
4
5
156
100
AcDbEntity
100
AcDbLine
10
-206.341929
20
585.415984
30
0.0
11
-206.341929
21
582.415962
31
0.0
0
LINE
8
Calque 1
62
4
5
157
100
AcDbEntity
100
AcDbLine
10
-206.341929
20
582.415962
30
0.0
11
-406.341947
21
582.415962
31
0.0
0
LINE
8
Calque 1
62
4
5
158
100
AcDbEntity
100
AcDbLine
10
-212.367980
20
491.229101
30
0.0
11
-212.367980
21
508.229101
31
0.0
0
LINE
8
Calque 1
62
4
5
159
100
AcDbEntity
100
AcDbLine
10
-212.367980
20
508.229101
30
0.0
11
-215.367980
21
508.229101
31
0.0
0
LINE
8
Calque 1
62
4
5
15a
100
AcDbEntity
100
AcDbLine
10
-215.367980
20
508.229101
30
0.0
11
-215.367980
21
528.229103
31
0.0
0
LINE
8
Calque 1
62
4
5
15b
100
AcDbEntity
100
AcDbLine
10
-215.367980
20
528.229103
30
0.0
11
-212.367980
21
528.229103
31
0.0
0
LINE
8
Calque 1
62
4
5
15c
100
AcDbEntity
100
AcDbLine
10
-212.367980
20
528.229103
30
0.0
11
-212.367980
21
548.229103
31
0.0
0
LINE
8
Calque 1
62
4
5
15d
100
AcDbEntity
100
AcDbLine
10
-212.367980
20
548.229103
30
0.0
11
-215.367980
21
548.229103
31
0.0
0
LINE
8
Calque 1
62
4
5
15e
100
AcDbEntity
100
AcDbLine
10
-215.367980
20
548.229103
30
0.0
11
-215.367980
21
565.229103
31
0.0
0
LINE
8
Calque 1
62
4
5
15f
100
AcDbEntity
100
AcDbLine
10
-215.367980
20
565.229103
30
0.0
11
-227.367981
21
565.229103
31
0.0
0
LINE
8
Calque 1
62
4
5
160
100
AcDbEntity
100
AcDbLine
10
-227.367981
20
565.229103
30
0.0
11
-227.367981
21
568.229102
31
0.0
0
LINE
8
Calque 1
62
4
5
161
100
AcDbEntity
100
AcDbLine
10
-227.367981
20
568.229102
30
0.0
11
-242.367983
21
568.229102
31
0.0
0
LINE
8
Calque 1
62
4
5
162
100
AcDbEntity
100
AcDbLine
10
-242.367983
20
568.229102
30
0.0
11
-242.367983
21
565.229103
31
0.0
0
LINE
8
Calque 1
62
4
5
163
100
AcDbEntity
100
AcDbLine
10
-242.367983
20
565.229103
30
0.0
11
-257.367984
21
565.229103
31
0.0
0
LINE
8
Calque 1
62
4
5
164
100
AcDbEntity
100
AcDbLine
10
-257.367984
20
565.229103
30
0.0
11
-257.367984
21
568.229102
31
0.0
0
LINE
8
Calque 1
62
4
5
165
100
AcDbEntity
100
AcDbLine
10
-257.367984
20
568.229102
30
0.0
11
-272.367982
21
568.229102
31
0.0
0
LINE
8
Calque 1
62
4
5
166
100
AcDbEntity
100
AcDbLine
10
-272.367982
20
568.229102
30
0.0
11
-272.367982
21
494.229101
31
0.0
0
LINE
8
Calque 1
62
4
5
167
100
AcDbEntity
100
AcDbLine
10
-272.367982
20
494.229101
30
0.0
11
-275.367984
21
494.229101
31
0.0
0
LINE
8
Calque 1
62
4
5
168
100
AcDbEntity
100
AcDbLine
10
-275.367984
20
494.229101
30
0.0
11
-275.367984
21
485.229102
31
0.0
0
LINE
8
Calque 1
62
4
5
169
100
AcDbEntity
100
AcDbLine
10
-275.367984
20
485.229102
30
0.0
11
-266.367982
21
485.229102
31
0.0
0
LINE
8
Calque 1
62
4
5
16a
100
AcDbEntity
100
AcDbLine
10
-266.367982
20
485.229102
30
0.0
11
-266.367982
21
488.229101
31
0.0
0
LINE
8
Calque 1
62
4
5
16b
100
AcDbEntity
100
AcDbLine
10
-266.367982
20
488.229101
30
0.0
11
-257.367984
21
488.229101
31
0.0
0
LINE
8
Calque 1
62
4
5
16c
100
AcDbEntity
100
AcDbLine
10
-257.367984
20
488.229101
30
0.0
11
-257.367984
21
491.229101
31
0.0
0
LINE
8
Calque 1
62
4
5
16d
100
AcDbEntity
100
AcDbLine
10
-257.367984
20
491.229101
30
0.0
11
-242.367983
21
491.229101
31
0.0
0
LINE
8
Calque 1
62
4
5
16e
100
AcDbEntity
100
AcDbLine
10
-242.367983
20
491.229101
30
0.0
11
-242.367983
21
488.229101
31
0.0
0
LINE
8
Calque 1
62
4
5
16f
100
AcDbEntity
100
AcDbLine
10
-242.367983
20
488.229101
30
0.0
11
-227.367981
21
488.229101
31
0.0
0
LINE
8
Calque 1
62
4
5
170
100
AcDbEntity
100
AcDbLine
10
-227.367981
20
488.229101
30
0.0
11
-227.367981
21
491.229101
31
0.0
0
LINE
8
Calque 1
62
4
5
171
100
AcDbEntity
100
AcDbLine
10
-227.367981
20
491.229101
30
0.0
11
-212.367980
21
491.229101
31
0.0
0
LINE
8
Calque 1
62
4
5
172
100
AcDbEntity
100
AcDbLine
10
-382.703973
20
418.726350
30
0.0
11
-185.703947
21
418.726350
31
0.0
0
LINE
8
Calque 1
62
4
5
173
100
AcDbEntity
100
AcDbLine
10
-185.703947
20
418.726350
30
0.0
11
-185.703947
21
432.976352
31
0.0
0
LINE
8
Calque 1
62
4
5
174
100
AcDbEntity
100
AcDbLine
10
-185.703947
20
432.976352
30
0.0
11
-188.703949
21
432.976352
31
0.0
0
LINE
8
Calque 1
62
4
5
175
100
AcDbEntity
100
AcDbLine
10
-188.703949
20
432.976352
30
0.0
11
-188.703949
21
447.226353
31
0.0
0
LINE
8
Calque 1
62
4
5
176
100
AcDbEntity
100
AcDbLine
10
-188.703949
20
447.226353
30
0.0
11
-185.703947
21
447.226353
31
0.0
0
LINE
8
Calque 1
62
4
5
177
100
AcDbEntity
100
AcDbLine
10
-185.703947
20
447.226353
30
0.0
11
-185.703947
21
461.476351
31
0.0
0
LINE
8
Calque 1
62
4
5
178
100
AcDbEntity
100
AcDbLine
10
-185.703947
20
461.476351
30
0.0
11
-188.703949
21
461.476351
31
0.0
0
LINE
8
Calque 1
62
4
5
179
100
AcDbEntity
100
AcDbLine
10
-188.703949
20
461.476351
30
0.0
11
-188.703949
21
475.726352
31
0.0
0
LINE
8
Calque 1
62
4
5
17a
100
AcDbEntity
100
AcDbLine
10
-188.703949
20
475.726352
30
0.0
11
-235.703951
21
475.726352
31
0.0
0
LINE
8
Calque 1
62
4
5
17b
100
AcDbEntity
100
AcDbLine
10
-235.703951
20
475.726352
30
0.0
11
-235.703951
21
478.726352
31
0.0
0
LINE
8
Calque 1
62
4
5
17c
100
AcDbEntity
100
AcDbLine
10
-235.703951
20
478.726352
30
0.0
11
-285.703941
21
478.726352
31
0.0
0
LINE
8
Calque 1
62
4
5
17d
100
AcDbEntity
100
AcDbLine
10
-285.703941
20
478.726352
30
0.0
11
-285.703941
21
475.726352
31
0.0
0
LINE
8
Calque 1
62
4
5
17e
100
AcDbEntity
100
AcDbLine
10
-285.703941
20
475.726352
30
0.0
11
-335.703954
21
475.726352
31
0.0
0
LINE
8
Calque 1
62
4
5
17f
100
AcDbEntity
100
AcDbLine
10
-335.703954
20
475.726352
30
0.0
11
-335.703954
21
478.726352
31
0.0
0
LINE
8
Calque 1
62
4
5
180
100
AcDbEntity
100
AcDbLine
10
-335.703954
20
478.726352
30
0.0
11
-385.703967
21
478.726352
31
0.0
0
LINE
8
Calque 1
62
4
5
181
100
AcDbEntity
100
AcDbLine
10
-385.703967
20
478.726352
30
0.0
11
-385.703967
21
463.726351
31
0.0
0
LINE
8
Calque 1
62
4
5
182
100
AcDbEntity
100
AcDbLine
10
-385.703967
20
463.726351
30
0.0
11
-382.703973
21
463.726351
31
0.0
0
LINE
8
Calque 1
62
4
5
183
100
AcDbEntity
100
AcDbLine
10
-382.703973
20
463.726351
30
0.0
11
-382.703973
21
448.726352
31
0.0
0
LINE
8
Calque 1
62
4
5
184
100
AcDbEntity
100
AcDbLine
10
-382.703973
20
448.726352
30
0.0
11
-385.703967
21
448.726352
31
0.0
0
LINE
8
Calque 1
62
4
5
185
100
AcDbEntity
100
AcDbLine
10
-385.703967
20
448.726352
30
0.0
11
-385.703967
21
433.726351
31
0.0
0
LINE
8
Calque 1
62
4
5
186
100
AcDbEntity
100
AcDbLine
10
-385.703967
20
433.726351
30
0.0
11
-382.703973
21
433.726351
31
0.0
0
LINE
8
Calque 1
62
4
5
187
100
AcDbEntity
100
AcDbLine
10
-382.703973
20
433.726351
30
0.0
11
-382.703973
21
418.726350
31
0.0
0
LINE
8
Calque 1
62
4
5
188
100
AcDbEntity
100
AcDbLine
10
-388.703961
20
279.469639
30
0.0
11
-388.703961
21
264.469641
31
0.0
0
LINE
8
Calque 1
62
4
5
189
100
AcDbEntity
100
AcDbLine
10
-388.703961
20
264.469641
30
0.0
11
-338.703948
21
264.469641
31
0.0
0
LINE
8
Calque 1
62
4
5
18a
100
AcDbEntity
100
AcDbLine
10
-338.703948
20
264.469641
30
0.0
11
-338.703948
21
267.469635
31
0.0
0
LINE
8
Calque 1
62
4
5
18b
100
AcDbEntity
100
AcDbLine
10
-338.703948
20
267.469635
30
0.0
11
-288.703964
21
267.469635
31
0.0
0
LINE
8
Calque 1
62
4
5
18c
100
AcDbEntity
100
AcDbLine
10
-288.703964
20
267.469635
30
0.0
11
-288.703964
21
264.469641
31
0.0
0
LINE
8
Calque 1
62
4
5
18d
100
AcDbEntity
100
AcDbLine
10
-288.703964
20
264.469641
30
0.0
11
-238.703951
21
264.469641
31
0.0
0
LINE
8
Calque 1
62
4
5
18e
100
AcDbEntity
100
AcDbLine
10
-238.703951
20
264.469641
30
0.0
11
-238.703951
21
267.469635
31
0.0
0
LINE
8
Calque 1
62
4
5
18f
100
AcDbEntity
100
AcDbLine
10
-238.703951
20
267.469635
30
0.0
11
-188.703949
21
267.469635
31
0.0
0
LINE
8
Calque 1
62
4
5
190
100
AcDbEntity
100
AcDbLine
10
-188.703949
20
267.469635
30
0.0
11
-188.703949
21
281.719628
31
0.0
0
LINE
8
Calque 1
62
4
5
191
100
AcDbEntity
100
AcDbLine
10
-188.703949
20
281.719628
30
0.0
11
-191.703949
21
281.719628
31
0.0
0
LINE
8
Calque 1
62
4
5
192
100
AcDbEntity
100
AcDbLine
10
-191.703949
20
281.719628
30
0.0
11
-191.703949
21
295.969620
31
0.0
0
LINE
8
Calque 1
62
4
5
193
100
AcDbEntity
100
AcDbLine
10
-191.703949
20
295.969620
30
0.0
11
-188.703949
21
295.969620
31
0.0
0
LINE
8
Calque 1
62
4
5
194
100
AcDbEntity
100
AcDbLine
10
-188.703949
20
295.969620
30
0.0
11
-188.703949
21
310.219641
31
0.0
0
LINE
8
Calque 1
62
4
5
195
100
AcDbEntity
100
AcDbLine
10
-188.703949
20
310.219641
30
0.0
11
-191.703949
21
310.219641
31
0.0
0
LINE
8
Calque 1
62
4
5
196
100
AcDbEntity
100
AcDbLine
10
-191.703949
20
310.219641
30
0.0
11
-191.703949
21
320.469630
31
0.0
0
LINE
8
Calque 1
62
4
5
197
100
AcDbEntity
100
AcDbLine
10
-191.703949
20
320.469630
30
0.0
11
-236.203950
21
320.469630
31
0.0
0
LINE
8
Calque 1
62
4
5
198
100
AcDbEntity
100
AcDbLine
10
-236.203950
20
320.469630
30
0.0
11
-236.203950
21
316.469622
31
0.0
0
LINE
8
Calque 1
62
4
5
199
100
AcDbEntity
100
AcDbLine
10
-236.203950
20
316.469622
30
0.0
11
-240.203950
21
316.469622
31
0.0
0
LINE
8
Calque 1
62
4
5
19a
100
AcDbEntity
100
AcDbLine
10
-240.203950
20
316.469622
30
0.0
11
-240.203950
21
320.469630
31
0.0
0
LINE
8
Calque 1
62
4
5
19b
100
AcDbEntity
100
AcDbLine
10
-240.203950
20
320.469630
30
0.0
11
-333.203945
21
320.469630
31
0.0
0
LINE
8
Calque 1
62
4
5
19c
100
AcDbEntity
100
AcDbLine
10
-333.203945
20
320.469630
30
0.0
11
-333.203945
21
316.469622
31
0.0
0
LINE
8
Calque 1
62
4
5
19d
100
AcDbEntity
100
AcDbLine
10
-333.203945
20
316.469622
30
0.0
11
-337.203965
21
316.469622
31
0.0
0
LINE
8
Calque 1
62
4
5
19e
100
AcDbEntity
100
AcDbLine
10
-337.203965
20
316.469622
30
0.0
11
-337.203965
21
320.469630
31
0.0
0
LINE
8
Calque 1
62
4
5
19f
100
AcDbEntity
100
AcDbLine
10
-337.203965
20
320.469630
30
0.0
11
-385.703967
21
320.469630
31
0.0
0
LINE
8
Calque 1
62
4
5
1a0
100
AcDbEntity
100
AcDbLine
10
-385.703967
20
320.469630
30
0.0
11
-385.703967
21
309.469636
31
0.0
0
LINE
8
Calque 1
62
4
5
1a1
100
AcDbEntity
100
AcDbLine
10
-385.703967
20
309.469636
30
0.0
11
-388.703961
21
309.469636
31
0.0
0
LINE
8
Calque 1
62
4
5
1a2
100
AcDbEntity
100
AcDbLine
10
-388.703961
20
309.469636
30
0.0
11
-388.703961
21
294.469637
31
0.0
0
LINE
8
Calque 1
62
4
5
1a3
100
AcDbEntity
100
AcDbLine
10
-388.703961
20
294.469637
30
0.0
11
-385.703967
21
294.469637
31
0.0
0
LINE
8
Calque 1
62
4
5
1a4
100
AcDbEntity
100
AcDbLine
10
-385.703967
20
294.469637
30
0.0
11
-385.703967
21
279.469639
31
0.0
0
LINE
8
Calque 1
62
4
5
1a5
100
AcDbEntity
100
AcDbLine
10
-385.703967
20
279.469639
30
0.0
11
-388.703961
21
279.469639
31
0.0
0
LINE
8
Calque 1
62
4
5
1a6
100
AcDbEntity
100
AcDbLine
10
-240.203950
20
170.457976
30
0.0
11
-194.703948
21
170.457976
31
0.0
0
LINE
8
Calque 1
62
4
5
1a7
100
AcDbEntity
100
AcDbLine
10
-194.703948
20
170.457976
30
0.0
11
-194.703948
21
254.408955
31
0.0
0
LINE
8
Calque 1
62
4
5
1a8
100
AcDbEntity
100
AcDbLine
10
-194.703948
20
254.408955
30
0.0
11
-388.703961
21
254.408955
31
0.0
0
LINE
8
Calque 1
62
4
5
1a9
100
AcDbEntity
100
AcDbLine
10
-388.703961
20
254.408955
30
0.0
11
-388.703961
21
170.457976
31
0.0
0
LINE
8
Calque 1
62
4
5
1aa
100
AcDbEntity
100
AcDbLine
10
-388.703961
20
170.457976
30
0.0
11
-340.203959
21
170.457976
31
0.0
0
LINE
8
Calque 1
62
4
5
1ab
100
AcDbEntity
100
AcDbLine
10
-340.203959
20
170.457976
30
0.0
11
-340.203959
21
173.464433
31
0.0
0
LINE
8
Calque 1
62
4
5
1ac
100
AcDbEntity
100
AcDbLine
10
-340.203959
20
173.464433
30
0.0
11
-337.203965
21
173.464433
31
0.0
0
LINE
8
Calque 1
62
4
5
1ad
100
AcDbEntity
100
AcDbLine
10
-337.203965
20
173.464433
30
0.0
11
-337.203965
21
170.457976
31
0.0
0
LINE
8
Calque 1
62
4
5
1ae
100
AcDbEntity
100
AcDbLine
10
-337.203965
20
170.457976
30
0.0
11
-243.203950
21
170.457976
31
0.0
0
LINE
8
Calque 1
62
4
5
1af
100
AcDbEntity
100
AcDbLine
10
-243.203950
20
170.457976
30
0.0
11
-243.203950
21
173.464433
31
0.0
0
LINE
8
Calque 1
62
4
5
1b0
100
AcDbEntity
100
AcDbLine
10
-243.203950
20
173.464433
30
0.0
11
-240.203950
21
173.464433
31
0.0
0
LINE
8
Calque 1
62
4
5
1b1
100
AcDbEntity
100
AcDbLine
10
-240.203950
20
173.464433
30
0.0
11
-240.203950
21
170.457976
31
0.0
0
LINE
8
Calque 1
62
4
5
1b2
100
AcDbEntity
100
AcDbLine
10
-382.703973
20
405.322782
30
0.0
11
-382.703973
21
388.322782
31
0.0
0
LINE
8
Calque 1
62
4
5
1b3
100
AcDbEntity
100
AcDbLine
10
-382.703973
20
388.322782
30
0.0
11
-385.703967
21
388.322782
31
0.0
0
LINE
8
Calque 1
62
4
5
1b4
100
AcDbEntity
100
AcDbLine
10
-385.703967
20
388.322782
30
0.0
11
-385.703967
21
368.322782
31
0.0
0
LINE
8
Calque 1
62
4
5
1b5
100
AcDbEntity
100
AcDbLine
10
-385.703967
20
368.322782
30
0.0
11
-382.703973
21
368.322782
31
0.0
0
LINE
8
Calque 1
62
4
5
1b6
100
AcDbEntity
100
AcDbLine
10
-382.703973
20
368.322782
30
0.0
11
-382.703973
21
348.322780
31
0.0
0
LINE
8
Calque 1
62
4
5
1b7
100
AcDbEntity
100
AcDbLine
10
-382.703973
20
348.322780
30
0.0
11
-385.703967
21
348.322780
31
0.0
0
LINE
8
Calque 1
62
4
5
1b8
100
AcDbEntity
100
AcDbLine
10
-385.703967
20
348.322780
30
0.0
11
-385.703967
21
331.322780
31
0.0
0
LINE
8
Calque 1
62
4
5
1b9
100
AcDbEntity
100
AcDbLine
10
-385.703967
20
331.322780
30
0.0
11
-335.703954
21
331.322780
31
0.0
0
LINE
8
Calque 1
62
4
5
1ba
100
AcDbEntity
100
AcDbLine
10
-335.703954
20
331.322780
30
0.0
11
-335.703954
21
328.322780
31
0.0
0
LINE
8
Calque 1
62
4
5
1bb
100
AcDbEntity
100
AcDbLine
10
-335.703954
20
328.322780
30
0.0
11
-285.703941
21
328.322780
31
0.0
0
LINE
8
Calque 1
62
4
5
1bc
100
AcDbEntity
100
AcDbLine
10
-285.703941
20
328.322780
30
0.0
11
-285.703941
21
331.322780
31
0.0
0
LINE
8
Calque 1
62
4
5
1bd
100
AcDbEntity
100
AcDbLine
10
-285.703941
20
331.322780
30
0.0
11
-235.703951
21
331.322780
31
0.0
0
LINE
8
Calque 1
62
4
5
1be
100
AcDbEntity
100
AcDbLine
10
-235.703951
20
331.322780
30
0.0
11
-235.703951
21
328.322780
31
0.0
0
LINE
8
Calque 1
62
4
5
1bf
100
AcDbEntity
100
AcDbLine
10
-235.703951
20
328.322780
30
0.0
11
-188.703949
21
328.322780
31
0.0
0
LINE
8
Calque 1
62
4
5
1c0
100
AcDbEntity
100
AcDbLine
10
-188.703949
20
328.322780
30
0.0
11
-188.703949
21
348.322780
31
0.0
0
LINE
8
Calque 1
62
4
5
1c1
100
AcDbEntity
100
AcDbLine
10
-188.703949
20
348.322780
30
0.0
11
-185.703947
21
348.322780
31
0.0
0
LINE
8
Calque 1
62
4
5
1c2
100
AcDbEntity
100
AcDbLine
10
-185.703947
20
348.322780
30
0.0
11
-185.703947
21
368.322782
31
0.0
0
LINE
8
Calque 1
62
4
5
1c3
100
AcDbEntity
100
AcDbLine
10
-185.703947
20
368.322782
30
0.0
11
-188.703949
21
368.322782
31
0.0
0
LINE
8
Calque 1
62
4
5
1c4
100
AcDbEntity
100
AcDbLine
10
-188.703949
20
368.322782
30
0.0
11
-188.703949
21
388.322782
31
0.0
0
LINE
8
Calque 1
62
4
5
1c5
100
AcDbEntity
100
AcDbLine
10
-188.703949
20
388.322782
30
0.0
11
-185.703947
21
388.322782
31
0.0
0
LINE
8
Calque 1
62
4
5
1c6
100
AcDbEntity
100
AcDbLine
10
-185.703947
20
388.322782
30
0.0
11
-185.703947
21
408.322781
31
0.0
0
LINE
8
Calque 1
62
4
5
1c7
100
AcDbEntity
100
AcDbLine
10
-185.703947
20
408.322781
30
0.0
11
-235.647010
21
408.322781
31
0.0
0
LINE
8
Calque 1
62
4
5
1c8
100
AcDbEntity
100
AcDbLine
10
-235.647010
20
408.322781
30
0.0
11
-235.647010
21
405.322782
31
0.0
0
LINE
8
Calque 1
62
4
5
1c9
100
AcDbEntity
100
AcDbLine
10
-235.647010
20
405.322782
30
0.0
11
-285.675493
21
405.322782
31
0.0
0
LINE
8
Calque 1
62
4
5
1ca
100
AcDbEntity
100
AcDbLine
10
-285.675493
20
405.322782
30
0.0
11
-285.675493
21
408.322781
31
0.0
0
LINE
8
Calque 1
62
4
5
1cb
100
AcDbEntity
100
AcDbLine
10
-285.675493
20
408.322781
30
0.0
11
-335.703954
21
408.322781
31
0.0
0
LINE
8
Calque 1
62
4
5
1cc
100
AcDbEntity
100
AcDbLine
10
-335.703954
20
408.322781
30
0.0
11
-335.703954
21
405.322782
31
0.0
0
LINE
8
Calque 1
62
4
5
1cd
100
AcDbEntity
100
AcDbLine
10
-335.703954
20
405.322782
30
0.0
11
-382.703973
21
405.322782
31
0.0
0
LINE
8
Calque 1
62
4
5
1ce
100
AcDbEntity
100
AcDbLine
10
-407.781732
20
489.993662
30
0.0
11
-408.293344
21
490.205583
31
0.0
0
LINE
8
Calque 1
62
4
5
1cf
100
AcDbEntity
100
AcDbLine
10
-408.293344
20
490.205583
30
0.0
11
-408.732680
21
490.542703
31
0.0
0
LINE
8
Calque 1
62
4
5
1d0
100
AcDbEntity
100
AcDbLine
10
-408.732680
20
490.542703
30
0.0
11
-409.069794
21
490.982041
31
0.0
0
LINE
8
Calque 1
62
4
5
1d1
100
AcDbEntity
100
AcDbLine
10
-409.069794
20
490.982041
30
0.0
11
-409.281715
21
491.493662
31
0.0
0
LINE
8
Calque 1
62
4
5
1d2
100
AcDbEntity
100
AcDbLine
10
-409.281715
20
491.493662
30
0.0
11
-409.353992
21
492.042703
31
0.0
0
LINE
8
Calque 1
62
4
5
1d3
100
AcDbEntity
100
AcDbLine
10
-409.353992
20
492.042703
30
0.0
11
-409.281715
21
492.591740
31
0.0
0
LINE
8
Calque 1
62
4
5
1d4
100
AcDbEntity
100
AcDbLine
10
-409.281715
20
492.591740
30
0.0
11
-409.069794
21
493.103361
31
0.0
0
LINE
8
Calque 1
62
4
5
1d5
100
AcDbEntity
100
AcDbLine
10
-409.069794
20
493.103361
30
0.0
11
-408.732680
21
493.542702
31
0.0
0
LINE
8
Calque 1
62
4
5
1d6
100
AcDbEntity
100
AcDbLine
10
-408.732680
20
493.542702
30
0.0
11
-408.293344
21
493.879822
31
0.0
0
LINE
8
Calque 1
62
4
5
1d7
100
AcDbEntity
100
AcDbLine
10
-408.293344
20
493.879822
30
0.0
11
-407.781732
21
494.091743
31
0.0
0
LINE
8
Calque 1
62
4
5
1d8
100
AcDbEntity
100
AcDbLine
10
-407.781732
20
494.091743
30
0.0
11
-407.232697
21
494.164043
31
0.0
0
LINE
8
Calque 1
62
4
5
1d9
100
AcDbEntity
100
AcDbLine
10
-407.232697
20
494.164043
30
0.0
11
-406.683633
21
494.091743
31
0.0
0
LINE
8
Calque 1
62
4
5
1da
100
AcDbEntity
100
AcDbLine
10
-406.683633
20
494.091743
30
0.0
11
-406.172021
21
493.879822
31
0.0
0
LINE
8
Calque 1
62
4
5
1db
100
AcDbEntity
100
AcDbLine
10
-406.172021
20
493.879822
30
0.0
11
-405.732686
21
493.542702
31
0.0
0
LINE
8
Calque 1
62
4
5
1dc
100
AcDbEntity
100
AcDbLine
10
-405.732686
20
493.542702
30
0.0
11
-405.395571
21
493.103361
31
0.0
0
LINE
8
Calque 1
62
4
5
1dd
100
AcDbEntity
100
AcDbLine
10
-405.395571
20
493.103361
30
0.0
11
-405.183650
21
492.591740
31
0.0
0
LINE
8
Calque 1
62
4
5
1de
100
AcDbEntity
100
AcDbLine
10
-405.183650
20
492.591740
30
0.0
11
-405.111373
21
492.042703
31
0.0
0
LINE
8
Calque 1
62
4
5
1df
100
AcDbEntity
100
AcDbLine
10
-405.111373
20
492.042703
30
0.0
11
-405.183650
21
491.493662
31
0.0
0
LINE
8
Calque 1
62
4
5
1e0
100
AcDbEntity
100
AcDbLine
10
-405.183650
20
491.493662
30
0.0
11
-405.395571
21
490.982041
31
0.0
0
LINE
8
Calque 1
62
4
5
1e1
100
AcDbEntity
100
AcDbLine
10
-405.395571
20
490.982041
30
0.0
11
-405.732686
21
490.542703
31
0.0
0
LINE
8
Calque 1
62
4
5
1e2
100
AcDbEntity
100
AcDbLine
10
-405.732686
20
490.542703
30
0.0
11
-406.172021
21
490.205583
31
0.0
0
LINE
8
Calque 1
62
4
5
1e3
100
AcDbEntity
100
AcDbLine
10
-406.172021
20
490.205583
30
0.0
11
-406.683633
21
489.993662
31
0.0
0
LINE
8
Calque 1
62
4
5
1e4
100
AcDbEntity
100
AcDbLine
10
-406.683633
20
489.993662
30
0.0
11
-407.232697
21
489.921362
31
0.0
0
LINE
8
Calque 1
62
4
5
1e5
100
AcDbEntity
100
AcDbLine
10
-407.232697
20
489.921362
30
0.0
11
-407.781732
21
489.993662
31
0.0
0
LINE
8
Calque 1
62
4
5
1e6
100
AcDbEntity
100
AcDbLine
10
-148.587663
20
600.332952
30
0.0
11
-436.587702
21
600.332952
31
0.0
0
LINE
8
Calque 1
62
4
5
1e7
100
AcDbEntity
100
AcDbLine
10
-436.587702
20
600.332952
30
0.0
11
-436.587702
21
152.332931
31
0.0
0
LINE
8
Calque 1
62
4
5
1e8
100
AcDbEntity
100
AcDbLine
10
-436.587702
20
152.332931
30
0.0
11
-148.587663
21
152.332931
31
0.0
0
LINE
8
Calque 1
62
4
5
1e9
100
AcDbEntity
100
AcDbLine
10
-148.587663
20
152.332931
30
0.0
11
-148.587663
21
600.332952
31
0.0
0
LINE
8
Calque 1
62
4
5
1ea
100
AcDbEntity
100
AcDbLine
10
-272.367982
20
488.229101
30
0.0
11
-272.705102
21
488.668442
31
0.0
0
LINE
8
Calque 1
62
4
5
1eb
100
AcDbEntity
100
AcDbLine
10
-272.705102
20
488.668442
30
0.0
11
-272.917023
21
489.180060
31
0.0
0
LINE
8
Calque 1
62
4
5
1ec
100
AcDbEntity
100
AcDbLine
10
-272.917023
20
489.180060
30
0.0
11
-272.989322
21
489.729101
31
0.0
0
LINE
8
Calque 1
62
4
5
1ed
100
AcDbEntity
100
AcDbLine
10
-272.989322
20
489.729101
30
0.0
11
-272.917023
21
490.278142
31
0.0
0
LINE
8
Calque 1
62
4
5
1ee
100
AcDbEntity
100
AcDbLine
10
-272.917023
20
490.278142
30
0.0
11
-272.705102
21
490.789763
31
0.0
0
LINE
8
Calque 1
62
4
5
1ef
100
AcDbEntity
100
AcDbLine
10
-272.705102
20
490.789763
30
0.0
11
-272.367982
21
491.229101
31
0.0
0
LINE
8
Calque 1
62
4
5
1f0
100
AcDbEntity
100
AcDbLine
10
-272.367982
20
491.229101
30
0.0
11
-271.928644
21
491.566221
31
0.0
0
LINE
8
Calque 1
62
4
5
1f1
100
AcDbEntity
100
AcDbLine
10
-271.928644
20
491.566221
30
0.0
11
-271.417023
21
491.778142
31
0.0
0
LINE
8
Calque 1
62
4
5
1f2
100
AcDbEntity
100
AcDbLine
10
-271.417023
20
491.778142
30
0.0
11
-270.867982
21
491.850441
31
0.0
0
LINE
8
Calque 1
62
4
5
1f3
100
AcDbEntity
100
AcDbLine
10
-270.867982
20
491.850441
30
0.0
11
-270.318952
21
491.778142
31
0.0
0
LINE
8
Calque 1
62
4
5
1f4
100
AcDbEntity
100
AcDbLine
10
-270.318952
20
491.778142
30
0.0
11
-269.807323
21
491.566221
31
0.0
0
LINE
8
Calque 1
62
4
5
1f5
100
AcDbEntity
100
AcDbLine
10
-269.807323
20
491.566221
30
0.0
11
-269.367982
21
491.229101
31
0.0
0
LINE
8
Calque 1
62
4
5
1f6
100
AcDbEntity
100
AcDbLine
10
-269.367982
20
491.229101
30
0.0
11
-269.030873
21
490.789763
31
0.0
0
LINE
8
Calque 1
62
4
5
1f7
100
AcDbEntity
100
AcDbLine
10
-269.030873
20
490.789763
30
0.0
11
-268.818953
21
490.278142
31
0.0
0
LINE
8
Calque 1
62
4
5
1f8
100
AcDbEntity
100
AcDbLine
10
-268.818953
20
490.278142
30
0.0
11
-268.746653
21
489.729101
31
0.0
0
LINE
8
Calque 1
62
4
5
1f9
100
AcDbEntity
100
AcDbLine
10
-268.746653
20
489.729101
30
0.0
11
-268.818953
21
489.180060
31
0.0
0
LINE
8
Calque 1
62
4
5
1fa
100
AcDbEntity
100
AcDbLine
10
-268.818953
20
489.180060
30
0.0
11
-269.030873
21
488.668442
31
0.0
0
LINE
8
Calque 1
62
4
5
1fb
100
AcDbEntity
100
AcDbLine
10
-269.030873
20
488.668442
30
0.0
11
-269.367982
21
488.229101
31
0.0
0
LINE
8
Calque 1
62
4
5
1fc
100
AcDbEntity
100
AcDbLine
10
-269.367982
20
488.229101
30
0.0
11
-269.807323
21
487.891981
31
0.0
0
LINE
8
Calque 1
62
4
5
1fd
100
AcDbEntity
100
AcDbLine
10
-269.807323
20
487.891981
30
0.0
11
-270.318952
21
487.680061
31
0.0
0
LINE
8
Calque 1
62
4
5
1fe
100
AcDbEntity
100
AcDbLine
10
-270.318952
20
487.680061
30
0.0
11
-270.867982
21
487.607761
31
0.0
0
LINE
8
Calque 1
62
4
5
1ff
100
AcDbEntity
100
AcDbLine
10
-270.867982
20
487.607761
30
0.0
11
-271.417023
21
487.680061
31
0.0
0
LINE
8
Calque 1
62
4
5
200
100
AcDbEntity
100
AcDbLine
10
-271.417023
20
487.680061
30
0.0
11
-271.928644
21
487.891981
31
0.0
0
LINE
8
Calque 1
62
4
5
201
100
AcDbEntity
100
AcDbLine
10
-271.928644
20
487.891981
30
0.0
11
-272.367982
21
488.229101
31
0.0
0
LINE
8
Calque 1
62
4
5
202
100
AcDbEntity
100
AcDbLine
10
-307.703954
20
463.476353
30
0.0
11
-307.703954
21
438.976351
31
0.0
0
LINE
8
Calque 1
62
4
5
203
100
AcDbEntity
100
AcDbLine
10
-307.703954
20
438.976351
30
0.0
11
-310.703948
21
438.976351
31
0.0
0
LINE
8
Calque 1
62
4
5
204
100
AcDbEntity
100
AcDbLine
10
-310.703948
20
438.976351
30
0.0
11
-310.703948
21
463.476353
31
0.0
0
LINE
8
Calque 1
62
4
5
205
100
AcDbEntity
100
AcDbLine
10
-310.703948
20
463.476353
30
0.0
11
-307.703954
21
463.476353
31
0.0
0
LINE
8
Calque 1
62
4
5
206
100
AcDbEntity
100
AcDbLine
10
-313.703970
20
304.219625
30
0.0
11
-310.703948
21
304.219625
31
0.0
0
LINE
8
Calque 1
62
4
5
207
100
AcDbEntity
100
AcDbLine
10
-310.703948
20
304.219625
30
0.0
11
-310.703948
21
279.719632
31
0.0
0
LINE
8
Calque 1
62
4
5
208
100
AcDbEntity
100
AcDbLine
10
-310.703948
20
279.719632
30
0.0
11
-313.703970
21
279.719632
31
0.0
0
LINE
8
Calque 1
62
4
5
209
100
AcDbEntity
100
AcDbLine
10
-313.703970
20
279.719632
30
0.0
11
-313.703970
21
304.219625
31
0.0
0
LINE
8
Calque 1
62
4
5
20a
100
AcDbEntity
100
AcDbLine
10
-243.203950
20
222.927321
30
0.0
11
-243.203950
21
243.915087
31
0.0
0
LINE
8
Calque 1
62
4
5
20b
100
AcDbEntity
100
AcDbLine
10
-243.203950
20
243.915087
30
0.0
11
-240.203950
21
243.915087
31
0.0
0
LINE
8
Calque 1
62
4
5
20c
100
AcDbEntity
100
AcDbLine
10
-240.203950
20
243.915087
30
0.0
11
-240.203950
21
222.927321
31
0.0
0
LINE
8
Calque 1
62
4
5
20d
100
AcDbEntity
100
AcDbLine
10
-240.203950
20
222.927321
30
0.0
11
-243.203950
21
222.927321
31
0.0
0
LINE
8
Calque 1
62
4
5
20e
100
AcDbEntity
100
AcDbLine
10
-240.203950
20
180.951845
30
0.0
11
-243.203950
21
180.951845
31
0.0
0
LINE
8
Calque 1
62
4
5
20f
100
AcDbEntity
100
AcDbLine
10
-243.203950
20
180.951845
30
0.0
11
-243.203950
21
201.939583
31
0.0
0
LINE
8
Calque 1
62
4
5
210
100
AcDbEntity
100
AcDbLine
10
-243.203950
20
201.939583
30
0.0
11
-240.203950
21
201.939583
31
0.0
0
LINE
8
Calque 1
62
4
5
211
100
AcDbEntity
100
AcDbLine
10
-240.203950
20
201.939583
30
0.0
11
-240.203950
21
180.951845
31
0.0
0
LINE
8
Calque 1
62
4
5
212
100
AcDbEntity
100
AcDbLine
10
-337.203965
20
243.915087
30
0.0
11
-337.203965
21
222.927321
31
0.0
0
LINE
8
Calque 1
62
4
5
213
100
AcDbEntity
100
AcDbLine
10
-337.203965
20
222.927321
30
0.0
11
-340.203959
21
222.927321
31
0.0
0
LINE
8
Calque 1
62
4
5
214
100
AcDbEntity
100
AcDbLine
10
-340.203959
20
222.927321
30
0.0
11
-340.203959
21
243.915087
31
0.0
0
LINE
8
Calque 1
62
4
5
215
100
AcDbEntity
100
AcDbLine
10
-340.203959
20
243.915087
30
0.0
11
-337.203965
21
243.915087
31
0.0
0
LINE
8
Calque 1
62
4
5
216
100
AcDbEntity
100
AcDbLine
10
-337.203965
20
201.939583
30
0.0
11
-337.203965
21
180.951845
31
0.0
0
LINE
8
Calque 1
62
4
5
217
100
AcDbEntity
100
AcDbLine
10
-337.203965
20
180.951845
30
0.0
11
-340.203959
21
180.951845
31
0.0
0
LINE
8
Calque 1
62
4
5
218
100
AcDbEntity
100
AcDbLine
10
-340.203959
20
180.951845
30
0.0
11
-340.203959
21
201.939583
31
0.0
0
LINE
8
Calque 1
62
4
5
219
100
AcDbEntity
100
AcDbLine
10
-340.203959
20
201.939583
30
0.0
11
-337.203965
21
201.939583
31
0.0
0
LINE
8
Calque 1
62
4
5
21a
100
AcDbEntity
100
AcDbLine
10
-310.703948
20
386.822782
30
0.0
11
-307.703954
21
386.822782
31
0.0
0
LINE
8
Calque 1
62
4
5
21b
100
AcDbEntity
100
AcDbLine
10
-307.703954
20
386.822782
30
0.0
11
-307.703954
21
349.822783
31
0.0
0
LINE
8
Calque 1
62
4
5
21c
100
AcDbEntity
100
AcDbLine
10
-307.703954
20
349.822783
30
0.0
11
-310.703948
21
349.822783
31
0.0
0
LINE
8
Calque 1
62
4
5
21d
100
AcDbEntity
100
AcDbLine
10
-310.703948
20
349.822783
30
0.0
11
-310.703948
21
386.822782
31
0.0
  0
ENDSEC
  0
SECTION
  2
OBJECTS
  0
DICTIONARY
  5
C
330
0
100
AcDbDictionary
  3
ACAD_GROUP
350
D
  3
ACAD_MLINESTYLE
350
17
  0
DICTIONARY
  5
D
330
C
100
AcDbDictionary
  0
DICTIONARY
  5
1A
330
C
100
AcDbDictionary
  0
DICTIONARY
  5
17
330
C
100
AcDbDictionary
  3
STANDARD
350
18
  0
DICTIONARY
  5
19
330
C
100
AcDbDictionary
  0
ENDSEC
  0
EOF
