999
Inkscape export via "Better DXF Output" (bob@bobcookdev.com)
  0
SECTION
  2
HEADER
  9
$ACADVER
  1
AC1014
  9
$HANDSEED
  5
FFFF
  0
ENDSEC
  0
SECTION
  2
TABLES
  0
TABLE
  2
VPORT
  5
8
330
0
100
AcDbSymbolTable
 70
     4
  0
VPORT
  5
2E
330
8
100
AcDbSymbolTableRecord
100
AcDbViewportTableRecord
  2
*ACTIVE
 70
     0
 10
0.0
 20
0.0
 11
1.0
 21
1.0
 12
4.25
 22
5.5
 13
0.0
 23
0.0
 14
10.0
 24
10.0
 15
10.0
 25
10.0
 16
0.0
 26
0.0
 36
1.0
 17
0.0
 27
0.0
 37
0.0
 40
11
 41
1.24
 42
50.0
 43
0.0
 44
0.0
 50
0.0
 51
0.0
 71
     0
 72
   100
 73
     1
 74
     3
 75
     0
 76
     0
 77
     0
 78
     0
  0
ENDTAB
  0
TABLE
  2
LTYPE
  5
5
330
0
100
AcDbSymbolTable
 70
     1
  0
LTYPE
  5
14
330
5
100
AcDbSymbolTableRecord
100
AcDbLinetypeTableRecord
  2
BYBLOCK
 70
     0
  3

 72
    65
 73
     0
 40
0.0
  0
LTYPE
  5
15
330
5
100
AcDbSymbolTableRecord
100
AcDbLinetypeTableRecord
  2
BYLAYER
 70
     0
  3

 72
    65
 73
     0
 40
0.0
  0
LTYPE
  5
16
330
5
100
AcDbSymbolTableRecord
100
AcDbLinetypeTableRecord
  2
CONTINUOUS
 70
     0
  3
Solid line
 72
    65
 73
     0
 40
0.0
  0
ENDTAB
  0
TABLE
  2
LAYER
  5
2
330
0
100
AcDbSymbolTable
 70
1
  0
LAYER
  5
10
330
2
100
AcDbSymbolTableRecord
100
AcDbLayerTableRecord
  2
0
 70
     0
 62
     7
  6
CONTINUOUS
  0
ENDTAB
  0
TABLE
  2
STYLE
  5
3
330
0
100
AcDbSymbolTable
 70
     1
  0
STYLE
  5
11
330
3
100
AcDbSymbolTableRecord
100
AcDbTextStyleTableRecord
  2
STANDARD
 70
     0
 40
0.0
 41
1.0
 50
0.0
 71
     0
 42
2.5
  3
txt
  4

  0
ENDTAB
  0
TABLE
  2
VIEW
  5
6
330
0
100
AcDbSymbolTable
 70
     0
  0
ENDTAB
  0
TABLE
  2
UCS
  5
7
330
0
100
AcDbSymbolTable
 70
     0
  0
ENDTAB
  0
TABLE
  2
APPID
  5
9
330
0
100
AcDbSymbolTable
 70
     2
  0
APPID
  5
12
330
9
100
AcDbSymbolTableRecord
100
AcDbRegAppTableRecord
  2
ACAD
 70
     0
  0
ENDTAB
  0
TABLE
  2
DIMSTYLE
  5
A
330
0
100
AcDbSymbolTable
 70
     1
  0
DIMSTYLE
105
27
330
A
100
AcDbSymbolTableRecord
100
AcDbDimStyleTableRecord
  2
ISO-25
 70
     0
  3

  4

  5

  6

  7

 40
1.0
 41
2.5
 42
0.625
 43
3.75
 44
1.25
 45
0.0
 46
0.0
 47
0.0
 48
0.0
140
2.5
141
2.5
142
0.0
143
0.03937007874016
144
1.0
145
0.0
146
1.0
147
0.625
 71
     0
 72
     0
 73
     0
 74
     0
 75
     0
 76
     0
 77
     1
 78
     8
170
     0
171
     3
172
     1
173
     0
174
     0
175
     0
176
     0
177
     0
178
     0
270
     2
271
     2
272
     2
273
     2
274
     3
340
11
275
     0
280
     0
281
     0
282
     0
283
     0
284
     8
285
     0
286
     0
287
     3
288
     0
  0
ENDTAB
  0
TABLE
  2
BLOCK_RECORD
  5
1
330
0
100
AcDbSymbolTable
 70
     1
  0
BLOCK_RECORD
  5
1F
330
1
100
AcDbSymbolTableRecord
100
AcDbBlockTableRecord
  2
*MODEL_SPACE
  0
BLOCK_RECORD
  5
1B
330
1
100
AcDbSymbolTableRecord
100
AcDbBlockTableRecord
  2
*PAPER_SPACE
  0
ENDTAB
  0
ENDSEC
  0
SECTION
  2
BLOCKS
  0
BLOCK
  5
20
330
1F
100
AcDbEntity
  8
0
100
AcDbBlockBegin
  2
*MODEL_SPACE
 70
     0
 10
0.0
 20
0.0
 30
0.0
  3
*MODEL_SPACE
  1

  0
ENDBLK
  5
21
330
1F
100
AcDbEntity
  8
0
100
AcDbBlockEnd
  0
BLOCK
  5
1C
330
1B
100
AcDbEntity
 67
     1
  8
0
100
AcDbBlockBegin
  2
*PAPER_SPACE
  1

  0
ENDBLK
  5
1D
330
1B
100
AcDbEntity
 67
     1
  8
0
100
AcDbBlockEnd
  0
ENDSEC
  0
SECTION
  2
ENTITIES
0
LINE
8
Calque 1
62
4
5
100
100
AcDbEntity
100
AcDbLine
10
-112.226290
20
51.354904
30
0.0
11
-116.326367
21
49.656603
31
0.0
0
LINE
8
Calque 1
62
4
5
101
100
AcDbEntity
100
AcDbLine
10
-116.326367
20
49.656603
30
0.0
11
-120.726290
21
49.077345
31
0.0
0
LINE
8
Calque 1
62
4
5
102
100
AcDbEntity
100
AcDbLine
10
-120.726290
20
49.077345
30
0.0
11
-120.726290
21
46.077345
31
0.0
0
LINE
8
Calque 1
62
4
5
103
100
AcDbEntity
100
AcDbLine
10
-120.726290
20
46.077345
30
0.0
11
-20.726304
21
46.077345
31
0.0
0
LINE
8
Calque 1
62
4
5
104
100
AcDbEntity
100
AcDbLine
10
-20.726304
20
46.077345
30
0.0
11
-20.726304
21
49.063655
31
0.0
0
LINE
8
Calque 1
62
4
5
105
100
AcDbEntity
100
AcDbLine
10
-20.726304
20
49.063655
30
0.0
11
-25.127992
21
49.643156
31
0.0
0
LINE
8
Calque 1
62
4
5
106
100
AcDbEntity
100
AcDbLine
10
-25.127992
20
49.643156
30
0.0
11
-29.229722
21
51.342145
31
0.0
0
LINE
8
Calque 1
62
4
5
107
100
AcDbEntity
100
AcDbLine
10
-29.229722
20
51.342145
30
0.0
11
-32.751951
21
54.044843
31
0.0
0
LINE
8
Calque 1
62
4
5
108
100
AcDbEntity
100
AcDbLine
10
-32.751951
20
54.044843
30
0.0
11
-35.454652
21
57.567075
31
0.0
0
LINE
8
Calque 1
62
4
5
109
100
AcDbEntity
100
AcDbLine
10
-35.454652
20
57.567075
30
0.0
11
-37.153641
21
61.668805
31
0.0
0
LINE
8
Calque 1
62
4
5
10a
100
AcDbEntity
100
AcDbLine
10
-37.153641
20
61.668805
30
0.0
11
-37.733142
21
66.070495
31
0.0
0
LINE
8
Calque 1
62
4
5
10b
100
AcDbEntity
100
AcDbLine
10
-37.733142
20
66.070495
30
0.0
11
-37.153641
21
70.472194
31
0.0
0
LINE
8
Calque 1
62
4
5
10c
100
AcDbEntity
100
AcDbLine
10
-37.153641
20
70.472194
30
0.0
11
-35.454652
21
74.573913
31
0.0
0
LINE
8
Calque 1
62
4
5
10d
100
AcDbEntity
100
AcDbLine
10
-35.454652
20
74.573913
30
0.0
11
-32.751951
21
78.096154
31
0.0
0
LINE
8
Calque 1
62
4
5
10e
100
AcDbEntity
100
AcDbLine
10
-32.751951
20
78.096154
30
0.0
11
-29.229722
21
80.798855
31
0.0
0
LINE
8
Calque 1
62
4
5
10f
100
AcDbEntity
100
AcDbLine
10
-29.229722
20
80.798855
30
0.0
11
-25.127992
21
82.497844
31
0.0
0
LINE
8
Calque 1
62
4
5
110
100
AcDbEntity
100
AcDbLine
10
-25.127992
20
82.497844
30
0.0
11
-20.726304
21
83.077345
31
0.0
0
LINE
8
Calque 1
62
4
5
111
100
AcDbEntity
100
AcDbLine
10
-20.726304
20
83.077345
30
0.0
11
-20.726304
21
86.077344
31
0.0
0
LINE
8
Calque 1
62
4
5
112
100
AcDbEntity
100
AcDbLine
10
-20.726304
20
86.077344
30
0.0
11
-33.226302
21
86.077344
31
0.0
0
LINE
8
Calque 1
62
4
5
113
100
AcDbEntity
100
AcDbLine
10
-33.226302
20
86.077344
30
0.0
11
-33.226302
21
89.077344
31
0.0
0
LINE
8
Calque 1
62
4
5
114
100
AcDbEntity
100
AcDbLine
10
-33.226302
20
89.077344
30
0.0
11
-58.243137
21
89.077344
31
0.0
0
LINE
8
Calque 1
62
4
5
115
100
AcDbEntity
100
AcDbLine
10
-58.243137
20
89.077344
30
0.0
11
-58.243137
21
86.077344
31
0.0
0
LINE
8
Calque 1
62
4
5
116
100
AcDbEntity
100
AcDbLine
10
-58.243137
20
86.077344
30
0.0
11
-69.226295
21
86.077344
31
0.0
0
LINE
8
Calque 1
62
4
5
117
100
AcDbEntity
100
AcDbLine
10
-69.226295
20
86.077344
30
0.0
11
-69.226295
21
66.077345
31
0.0
0
LINE
8
Calque 1
62
4
5
118
100
AcDbEntity
100
AcDbLine
10
-69.226295
20
66.077345
30
0.0
11
-72.226294
21
66.077345
31
0.0
0
LINE
8
Calque 1
62
4
5
119
100
AcDbEntity
100
AcDbLine
10
-72.226294
20
66.077345
30
0.0
11
-72.226294
21
86.077344
31
0.0
0
LINE
8
Calque 1
62
4
5
11a
100
AcDbEntity
100
AcDbLine
10
-72.226294
20
86.077344
30
0.0
11
-83.226295
21
86.077344
31
0.0
0
LINE
8
Calque 1
62
4
5
11b
100
AcDbEntity
100
AcDbLine
10
-83.226295
20
86.077344
30
0.0
11
-83.226295
21
89.077344
31
0.0
0
LINE
8
Calque 1
62
4
5
11c
100
AcDbEntity
100
AcDbLine
10
-83.226295
20
89.077344
30
0.0
11
-108.226293
21
89.077344
31
0.0
0
LINE
8
Calque 1
62
4
5
11d
100
AcDbEntity
100
AcDbLine
10
-108.226293
20
89.077344
30
0.0
11
-108.226293
21
86.077344
31
0.0
0
LINE
8
Calque 1
62
4
5
11e
100
AcDbEntity
100
AcDbLine
10
-108.226293
20
86.077344
30
0.0
11
-120.726290
21
86.077344
31
0.0
0
LINE
8
Calque 1
62
4
5
11f
100
AcDbEntity
100
AcDbLine
10
-120.726290
20
86.077344
30
0.0
11
-120.726290
21
83.077345
31
0.0
0
LINE
8
Calque 1
62
4
5
120
100
AcDbEntity
100
AcDbLine
10
-120.726290
20
83.077345
30
0.0
11
-116.326367
21
82.498075
31
0.0
0
LINE
8
Calque 1
62
4
5
121
100
AcDbEntity
100
AcDbLine
10
-116.326367
20
82.498075
30
0.0
11
-112.226290
21
80.799775
31
0.0
0
LINE
8
Calque 1
62
4
5
122
100
AcDbEntity
100
AcDbLine
10
-112.226290
20
80.799775
30
0.0
11
-108.705478
21
78.098155
31
0.0
0
LINE
8
Calque 1
62
4
5
123
100
AcDbEntity
100
AcDbLine
10
-108.705478
20
78.098155
30
0.0
11
-106.003860
21
74.577345
31
0.0
0
LINE
8
Calque 1
62
4
5
124
100
AcDbEntity
100
AcDbLine
10
-106.003860
20
74.577345
30
0.0
11
-104.305554
21
70.477266
31
0.0
0
LINE
8
Calque 1
62
4
5
125
100
AcDbEntity
100
AcDbLine
10
-104.305554
20
70.477266
30
0.0
11
-103.726293
21
66.077345
31
0.0
0
LINE
8
Calque 1
62
4
5
126
100
AcDbEntity
100
AcDbLine
10
-103.726293
20
66.077345
30
0.0
11
-104.305554
21
61.677413
31
0.0
0
LINE
8
Calque 1
62
4
5
127
100
AcDbEntity
100
AcDbLine
10
-104.305554
20
61.677413
30
0.0
11
-106.003860
21
57.577345
31
0.0
0
LINE
8
Calque 1
62
4
5
128
100
AcDbEntity
100
AcDbLine
10
-106.003860
20
57.577345
30
0.0
11
-108.705478
21
54.056524
31
0.0
0
LINE
8
Calque 1
62
4
5
129
100
AcDbEntity
100
AcDbLine
10
-108.705478
20
54.056524
30
0.0
11
-112.226290
21
51.354904
31
0.0
0
LINE
8
Calque 1
62
4
5
12a
100
AcDbEntity
100
AcDbLine
10
-106.226164
20
140.057385
30
0.0
11
-118.726162
21
140.057385
31
0.0
0
LINE
8
Calque 1
62
4
5
12b
100
AcDbEntity
100
AcDbLine
10
-118.726162
20
140.057385
30
0.0
11
-118.726162
21
137.057385
31
0.0
0
LINE
8
Calque 1
62
4
5
12c
100
AcDbEntity
100
AcDbLine
10
-118.726162
20
137.057385
30
0.0
11
-114.326549
21
136.475754
31
0.0
0
LINE
8
Calque 1
62
4
5
12d
100
AcDbEntity
100
AcDbLine
10
-114.326549
20
136.475754
30
0.0
11
-110.227387
21
134.775243
31
0.0
0
LINE
8
Calque 1
62
4
5
12e
100
AcDbEntity
100
AcDbLine
10
-110.227387
20
134.775243
30
0.0
11
-106.708022
21
132.071744
31
0.0
0
LINE
8
Calque 1
62
4
5
12f
100
AcDbEntity
100
AcDbLine
10
-106.708022
20
132.071744
30
0.0
11
-104.008295
21
128.549475
31
0.0
0
LINE
8
Calque 1
62
4
5
130
100
AcDbEntity
100
AcDbLine
10
-104.008295
20
128.549475
30
0.0
11
-102.312191
21
124.448484
31
0.0
0
LINE
8
Calque 1
62
4
5
131
100
AcDbEntity
100
AcDbLine
10
-102.312191
20
124.448484
30
0.0
11
-101.735295
21
120.048256
31
0.0
0
LINE
8
Calque 1
62
4
5
132
100
AcDbEntity
100
AcDbLine
10
-101.735295
20
120.048256
30
0.0
11
-102.316918
21
115.648634
31
0.0
0
LINE
8
Calque 1
62
4
5
133
100
AcDbEntity
100
AcDbLine
10
-102.316918
20
115.648634
30
0.0
11
-104.017425
21
111.549475
31
0.0
0
LINE
8
Calque 1
62
4
5
134
100
AcDbEntity
100
AcDbLine
10
-104.017425
20
111.549475
30
0.0
11
-106.720934
21
108.030116
31
0.0
0
LINE
8
Calque 1
62
4
5
135
100
AcDbEntity
100
AcDbLine
10
-106.720934
20
108.030116
30
0.0
11
-110.243199
21
105.330384
31
0.0
0
LINE
8
Calque 1
62
4
5
136
100
AcDbEntity
100
AcDbLine
10
-110.243199
20
105.330384
30
0.0
11
-114.344188
21
103.634285
31
0.0
0
LINE
8
Calque 1
62
4
5
137
100
AcDbEntity
100
AcDbLine
10
-114.344188
20
103.634285
30
0.0
11
-118.744421
21
103.057386
31
0.0
0
LINE
8
Calque 1
62
4
5
138
100
AcDbEntity
100
AcDbLine
10
-118.744421
20
103.057386
30
0.0
11
-118.726162
21
100.057383
31
0.0
0
LINE
8
Calque 1
62
4
5
139
100
AcDbEntity
100
AcDbLine
10
-118.726162
20
100.057383
30
0.0
11
-70.226166
21
100.057383
31
0.0
0
LINE
8
Calque 1
62
4
5
13a
100
AcDbEntity
100
AcDbLine
10
-70.226166
20
100.057383
30
0.0
11
-70.226166
21
120.057385
31
0.0
0
LINE
8
Calque 1
62
4
5
13b
100
AcDbEntity
100
AcDbLine
10
-70.226166
20
120.057385
30
0.0
11
-67.226166
21
120.057385
31
0.0
0
LINE
8
Calque 1
62
4
5
13c
100
AcDbEntity
100
AcDbLine
10
-67.226166
20
120.057385
30
0.0
11
-67.226166
21
100.057383
31
0.0
0
LINE
8
Calque 1
62
4
5
13d
100
AcDbEntity
100
AcDbLine
10
-67.226166
20
100.057383
30
0.0
11
-18.726173
21
100.057383
31
0.0
0
LINE
8
Calque 1
62
4
5
13e
100
AcDbEntity
100
AcDbLine
10
-18.726173
20
100.057383
30
0.0
11
-18.744461
21
103.057386
31
0.0
0
LINE
8
Calque 1
62
4
5
13f
100
AcDbEntity
100
AcDbLine
10
-18.744461
20
103.057386
30
0.0
11
-23.144071
21
103.639003
31
0.0
0
LINE
8
Calque 1
62
4
5
140
100
AcDbEntity
100
AcDbLine
10
-23.144071
20
103.639003
30
0.0
11
-27.243230
21
105.339514
31
0.0
0
LINE
8
Calque 1
62
4
5
141
100
AcDbEntity
100
AcDbLine
10
-27.243230
20
105.339514
30
0.0
11
-30.762600
21
108.043025
31
0.0
0
LINE
8
Calque 1
62
4
5
142
100
AcDbEntity
100
AcDbLine
10
-30.762600
20
108.043025
30
0.0
11
-33.462321
21
111.565285
31
0.0
0
LINE
8
Calque 1
62
4
5
143
100
AcDbEntity
100
AcDbLine
10
-33.462321
20
111.565285
30
0.0
11
-35.158432
21
115.666276
31
0.0
0
LINE
8
Calque 1
62
4
5
144
100
AcDbEntity
100
AcDbLine
10
-35.158432
20
115.666276
30
0.0
11
-35.735331
21
120.066515
31
0.0
0
LINE
8
Calque 1
62
4
5
145
100
AcDbEntity
100
AcDbLine
10
-35.735331
20
120.066515
30
0.0
11
-35.153702
21
124.466126
31
0.0
0
LINE
8
Calque 1
62
4
5
146
100
AcDbEntity
100
AcDbLine
10
-35.153702
20
124.466126
30
0.0
11
-33.453191
21
128.565285
31
0.0
0
LINE
8
Calque 1
62
4
5
147
100
AcDbEntity
100
AcDbLine
10
-33.453191
20
128.565285
30
0.0
11
-30.749692
21
132.084655
31
0.0
0
LINE
8
Calque 1
62
4
5
148
100
AcDbEntity
100
AcDbLine
10
-30.749692
20
132.084655
30
0.0
11
-27.227420
21
134.784373
31
0.0
0
LINE
8
Calque 1
62
4
5
149
100
AcDbEntity
100
AcDbLine
10
-27.227420
20
134.784373
30
0.0
11
-23.126432
21
136.480484
31
0.0
0
LINE
8
Calque 1
62
4
5
14a
100
AcDbEntity
100
AcDbLine
10
-23.126432
20
136.480484
30
0.0
11
-18.726201
21
137.057385
31
0.0
0
LINE
8
Calque 1
62
4
5
14b
100
AcDbEntity
100
AcDbLine
10
-18.726201
20
137.057385
30
0.0
11
-18.726201
21
140.057385
31
0.0
0
LINE
8
Calque 1
62
4
5
14c
100
AcDbEntity
100
AcDbLine
10
-18.726201
20
140.057385
30
0.0
11
-31.226201
21
140.057385
31
0.0
0
LINE
8
Calque 1
62
4
5
14d
100
AcDbEntity
100
AcDbLine
10
-31.226201
20
140.057385
30
0.0
11
-31.226201
21
143.057385
31
0.0
0
LINE
8
Calque 1
62
4
5
14e
100
AcDbEntity
100
AcDbLine
10
-31.226201
20
143.057385
30
0.0
11
-56.226196
21
143.057385
31
0.0
0
LINE
8
Calque 1
62
4
5
14f
100
AcDbEntity
100
AcDbLine
10
-56.226196
20
143.057385
30
0.0
11
-56.226196
21
140.057385
31
0.0
0
LINE
8
Calque 1
62
4
5
150
100
AcDbEntity
100
AcDbLine
10
-56.226196
20
140.057385
30
0.0
11
-81.226194
21
140.057385
31
0.0
0
LINE
8
Calque 1
62
4
5
151
100
AcDbEntity
100
AcDbLine
10
-81.226194
20
140.057385
30
0.0
11
-81.226194
21
143.057385
31
0.0
0
LINE
8
Calque 1
62
4
5
152
100
AcDbEntity
100
AcDbLine
10
-81.226194
20
143.057385
30
0.0
11
-106.226192
21
143.057385
31
0.0
0
LINE
8
Calque 1
62
4
5
153
100
AcDbEntity
100
AcDbLine
10
-106.226192
20
143.057385
30
0.0
11
-106.226192
21
140.057385
31
0.0
0
LINE
8
Calque 1
62
4
5
154
100
AcDbEntity
100
AcDbLine
10
-22.230001
20
229.039097
30
0.0
11
-22.433712
21
229.887640
31
0.0
0
LINE
8
Calque 1
62
4
5
155
100
AcDbEntity
100
AcDbLine
10
-22.433712
20
229.887640
30
0.0
11
-22.652211
21
230.732498
31
0.0
0
LINE
8
Calque 1
62
4
5
156
100
AcDbEntity
100
AcDbLine
10
-22.652211
20
230.732498
30
0.0
11
-22.885423
21
231.573413
31
0.0
0
LINE
8
Calque 1
62
4
5
157
100
AcDbEntity
100
AcDbLine
10
-22.885423
20
231.573413
30
0.0
11
-23.133262
21
232.410131
31
0.0
0
LINE
8
Calque 1
62
4
5
158
100
AcDbEntity
100
AcDbLine
10
-23.133262
20
232.410131
30
0.0
11
-23.395681
21
233.242396
31
0.0
0
LINE
8
Calque 1
62
4
5
159
100
AcDbEntity
100
AcDbLine
10
-23.395681
20
233.242396
30
0.0
11
-23.672572
21
234.069953
31
0.0
0
LINE
8
Calque 1
62
4
5
15a
100
AcDbEntity
100
AcDbLine
10
-23.672572
20
234.069953
30
0.0
11
-23.963870
21
234.892552
31
0.0
0
LINE
8
Calque 1
62
4
5
15b
100
AcDbEntity
100
AcDbLine
10
-23.963870
20
234.892552
30
0.0
11
-24.269480
21
235.709944
31
0.0
0
LINE
8
Calque 1
62
4
5
15c
100
AcDbEntity
100
AcDbLine
10
-24.269480
20
235.709944
30
0.0
11
-24.589311
21
236.521875
31
0.0
0
LINE
8
Calque 1
62
4
5
15d
100
AcDbEntity
100
AcDbLine
10
-24.589311
20
236.521875
30
0.0
11
-24.923262
21
237.328102
31
0.0
0
LINE
8
Calque 1
62
4
5
15e
100
AcDbEntity
100
AcDbLine
10
-24.923262
20
237.328102
30
0.0
11
-25.271231
21
238.128377
31
0.0
0
LINE
8
Calque 1
62
4
5
15f
100
AcDbEntity
100
AcDbLine
10
-25.271231
20
238.128377
30
0.0
11
-25.633110
21
238.922457
31
0.0
0
LINE
8
Calque 1
62
4
5
160
100
AcDbEntity
100
AcDbLine
10
-25.633110
20
238.922457
30
0.0
11
-26.008802
21
239.710102
31
0.0
0
LINE
8
Calque 1
62
4
5
161
100
AcDbEntity
100
AcDbLine
10
-26.008802
20
239.710102
30
0.0
11
-26.398172
21
240.491071
31
0.0
0
LINE
8
Calque 1
62
4
5
162
100
AcDbEntity
100
AcDbLine
10
-26.398172
20
240.491071
30
0.0
11
-26.801121
21
241.265124
31
0.0
0
LINE
8
Calque 1
62
4
5
163
100
AcDbEntity
100
AcDbLine
10
-26.801121
20
241.265124
30
0.0
11
-27.217520
21
242.032027
31
0.0
0
LINE
8
Calque 1
62
4
5
164
100
AcDbEntity
100
AcDbLine
10
-27.217520
20
242.032027
30
0.0
11
-27.647231
21
242.791546
31
0.0
0
LINE
8
Calque 1
62
4
5
165
100
AcDbEntity
100
AcDbLine
10
-27.647231
20
242.791546
30
0.0
11
-28.090143
21
243.543448
31
0.0
0
LINE
8
Calque 1
62
4
5
166
100
AcDbEntity
100
AcDbLine
10
-28.090143
20
243.543448
30
0.0
11
-28.546100
21
244.287507
31
0.0
0
LINE
8
Calque 1
62
4
5
167
100
AcDbEntity
100
AcDbLine
10
-28.546100
20
244.287507
30
0.0
11
-29.014970
21
245.023497
31
0.0
0
LINE
8
Calque 1
62
4
5
168
100
AcDbEntity
100
AcDbLine
10
-29.014970
20
245.023497
30
0.0
11
-29.496622
21
245.751190
31
0.0
0
LINE
8
Calque 1
62
4
5
169
100
AcDbEntity
100
AcDbLine
10
-29.496622
20
245.751190
30
0.0
11
-29.990900
21
246.470366
31
0.0
0
LINE
8
Calque 1
62
4
5
16a
100
AcDbEntity
100
AcDbLine
10
-29.990900
20
246.470366
30
0.0
11
-30.497650
21
247.180807
31
0.0
0
LINE
8
Calque 1
62
4
5
16b
100
AcDbEntity
100
AcDbLine
10
-30.497650
20
247.180807
30
0.0
11
-31.016730
21
247.882296
31
0.0
0
LINE
8
Calque 1
62
4
5
16c
100
AcDbEntity
100
AcDbLine
10
-31.016730
20
247.882296
30
0.0
11
-31.547960
21
248.574618
31
0.0
0
LINE
8
Calque 1
62
4
5
16d
100
AcDbEntity
100
AcDbLine
10
-31.547960
20
248.574618
30
0.0
11
-32.091201
21
249.257565
31
0.0
0
LINE
8
Calque 1
62
4
5
16e
100
AcDbEntity
100
AcDbLine
10
-32.091201
20
249.257565
30
0.0
11
-32.646281
21
249.930927
31
0.0
0
LINE
8
Calque 1
62
4
5
16f
100
AcDbEntity
100
AcDbLine
10
-32.646281
20
249.930927
30
0.0
11
-33.213020
21
250.594496
31
0.0
0
LINE
8
Calque 1
62
4
5
170
100
AcDbEntity
100
AcDbLine
10
-33.213020
20
250.594496
30
0.0
11
-33.791260
21
251.248075
31
0.0
0
LINE
8
Calque 1
62
4
5
171
100
AcDbEntity
100
AcDbLine
10
-33.791260
20
251.248075
30
0.0
11
-34.380819
21
251.891463
31
0.0
0
LINE
8
Calque 1
62
4
5
172
100
AcDbEntity
100
AcDbLine
10
-34.380819
20
251.891463
30
0.0
11
-34.981509
21
252.524462
31
0.0
0
LINE
8
Calque 1
62
4
5
173
100
AcDbEntity
100
AcDbLine
10
-34.981509
20
252.524462
30
0.0
11
-35.593161
21
253.146883
31
0.0
0
LINE
8
Calque 1
62
4
5
174
100
AcDbEntity
100
AcDbLine
10
-35.593161
20
253.146883
30
0.0
11
-36.215580
21
253.758535
31
0.0
0
LINE
8
Calque 1
62
4
5
175
100
AcDbEntity
100
AcDbLine
10
-36.215580
20
253.758535
30
0.0
11
-36.848582
21
254.359228
31
0.0
0
LINE
8
Calque 1
62
4
5
176
100
AcDbEntity
100
AcDbLine
10
-36.848582
20
254.359228
30
0.0
11
-37.491969
21
254.948784
31
0.0
0
LINE
8
Calque 1
62
4
5
177
100
AcDbEntity
100
AcDbLine
10
-37.491969
20
254.948784
30
0.0
11
-38.145551
21
255.527024
31
0.0
0
LINE
8
Calque 1
62
4
5
178
100
AcDbEntity
100
AcDbLine
10
-38.145551
20
255.527024
30
0.0
11
-38.809120
21
256.093766
31
0.0
0
LINE
8
Calque 1
62
4
5
179
100
AcDbEntity
100
AcDbLine
10
-38.809120
20
256.093766
30
0.0
11
-39.482480
21
256.648843
31
0.0
0
LINE
8
Calque 1
62
4
5
17a
100
AcDbEntity
100
AcDbLine
10
-39.482480
20
256.648843
30
0.0
11
-40.165429
21
257.192081
31
0.0
0
LINE
8
Calque 1
62
4
5
17b
100
AcDbEntity
100
AcDbLine
10
-40.165429
20
257.192081
30
0.0
11
-40.857749
21
257.723320
31
0.0
0
LINE
8
Calque 1
62
4
5
17c
100
AcDbEntity
100
AcDbLine
10
-40.857749
20
257.723320
30
0.0
11
-41.559240
21
258.242394
31
0.0
0
LINE
8
Calque 1
62
4
5
17d
100
AcDbEntity
100
AcDbLine
10
-41.559240
20
258.242394
30
0.0
11
-42.269681
21
258.749147
31
0.0
0
LINE
8
Calque 1
62
4
5
17e
100
AcDbEntity
100
AcDbLine
10
-42.269681
20
258.749147
30
0.0
11
-42.988859
21
259.243422
31
0.0
0
LINE
8
Calque 1
62
4
5
17f
100
AcDbEntity
100
AcDbLine
10
-42.988859
20
259.243422
30
0.0
11
-43.716550
21
259.725074
31
0.0
0
LINE
8
Calque 1
62
4
5
180
100
AcDbEntity
100
AcDbLine
10
-43.716550
20
259.725074
30
0.0
11
-44.452540
21
260.193949
31
0.0
0
LINE
8
Calque 1
62
4
5
181
100
AcDbEntity
100
AcDbLine
10
-44.452540
20
260.193949
30
0.0
11
-45.196599
21
260.649910
31
0.0
0
LINE
8
Calque 1
62
4
5
182
100
AcDbEntity
100
AcDbLine
10
-45.196599
20
260.649910
30
0.0
11
-45.948498
21
261.092813
31
0.0
0
LINE
8
Calque 1
62
4
5
183
100
AcDbEntity
100
AcDbLine
10
-45.948498
20
261.092813
30
0.0
11
-46.708020
21
261.522530
31
0.0
0
LINE
8
Calque 1
62
4
5
184
100
AcDbEntity
100
AcDbLine
10
-46.708020
20
261.522530
30
0.0
11
-47.474920
21
261.938924
31
0.0
0
LINE
8
Calque 1
62
4
5
185
100
AcDbEntity
100
AcDbLine
10
-47.474920
20
261.938924
30
0.0
11
-48.248979
21
262.341869
31
0.0
0
LINE
8
Calque 1
62
4
5
186
100
AcDbEntity
100
AcDbLine
10
-48.248979
20
262.341869
30
0.0
11
-49.029939
21
262.731246
31
0.0
0
LINE
8
Calque 1
62
4
5
187
100
AcDbEntity
100
AcDbLine
10
-49.029939
20
262.731246
30
0.0
11
-49.817590
21
263.106934
31
0.0
0
LINE
8
Calque 1
62
4
5
188
100
AcDbEntity
100
AcDbLine
10
-49.817590
20
263.106934
30
0.0
11
-50.611670
21
263.468817
31
0.0
0
LINE
8
Calque 1
62
4
5
189
100
AcDbEntity
100
AcDbLine
10
-50.611670
20
263.468817
30
0.0
11
-51.411940
21
263.816788
31
0.0
0
LINE
8
Calque 1
62
4
5
18a
100
AcDbEntity
100
AcDbLine
10
-51.411940
20
263.816788
30
0.0
11
-52.218169
21
264.150736
31
0.0
0
LINE
8
Calque 1
62
4
5
18b
100
AcDbEntity
100
AcDbLine
10
-52.218169
20
264.150736
30
0.0
11
-53.030100
21
264.470567
31
0.0
0
LINE
8
Calque 1
62
4
5
18c
100
AcDbEntity
100
AcDbLine
10
-53.030100
20
264.470567
30
0.0
11
-53.847489
21
264.776174
31
0.0
0
LINE
8
Calque 1
62
4
5
18d
100
AcDbEntity
100
AcDbLine
10
-53.847489
20
264.776174
30
0.0
11
-54.670088
21
265.067473
31
0.0
0
LINE
8
Calque 1
62
4
5
18e
100
AcDbEntity
100
AcDbLine
10
-54.670088
20
265.067473
30
0.0
11
-55.497648
21
265.344369
31
0.0
0
LINE
8
Calque 1
62
4
5
18f
100
AcDbEntity
100
AcDbLine
10
-55.497648
20
265.344369
30
0.0
11
-56.329916
21
265.606783
31
0.0
0
LINE
8
Calque 1
62
4
5
190
100
AcDbEntity
100
AcDbLine
10
-56.329916
20
265.606783
30
0.0
11
-57.166631
21
265.854630
31
0.0
0
LINE
8
Calque 1
62
4
5
191
100
AcDbEntity
100
AcDbLine
10
-57.166631
20
265.854630
30
0.0
11
-58.007546
21
266.087836
31
0.0
0
LINE
8
Calque 1
62
4
5
192
100
AcDbEntity
100
AcDbLine
10
-58.007546
20
266.087836
30
0.0
11
-58.852404
21
266.306332
31
0.0
0
LINE
8
Calque 1
62
4
5
193
100
AcDbEntity
100
AcDbLine
10
-58.852404
20
266.306332
30
0.0
11
-59.700947
21
266.510046
31
0.0
0
LINE
8
Calque 1
62
4
5
194
100
AcDbEntity
100
AcDbLine
10
-59.700947
20
266.510046
30
0.0
11
-60.552914
21
266.698923
31
0.0
0
LINE
8
Calque 1
62
4
5
195
100
AcDbEntity
100
AcDbLine
10
-60.552914
20
266.698923
30
0.0
11
-61.408050
21
266.872902
31
0.0
0
LINE
8
Calque 1
62
4
5
196
100
AcDbEntity
100
AcDbLine
10
-61.408050
20
266.872902
30
0.0
11
-62.266091
21
267.031931
31
0.0
0
LINE
8
Calque 1
62
4
5
197
100
AcDbEntity
100
AcDbLine
10
-62.266091
20
267.031931
30
0.0
11
-63.126775
21
267.175961
31
0.0
0
LINE
8
Calque 1
62
4
5
198
100
AcDbEntity
100
AcDbLine
10
-63.126775
20
267.175961
30
0.0
11
-63.989845
21
267.304947
31
0.0
0
LINE
8
Calque 1
62
4
5
199
100
AcDbEntity
100
AcDbLine
10
-63.989845
20
267.304947
30
0.0
11
-64.855031
21
267.418852
31
0.0
0
LINE
8
Calque 1
62
4
5
19a
100
AcDbEntity
100
AcDbLine
10
-64.855031
20
267.418852
30
0.0
11
-65.722077
21
267.517641
31
0.0
0
LINE
8
Calque 1
62
4
5
19b
100
AcDbEntity
100
AcDbLine
10
-65.722077
20
267.517641
30
0.0
11
-66.590712
21
267.601281
31
0.0
0
LINE
8
Calque 1
62
4
5
19c
100
AcDbEntity
100
AcDbLine
10
-66.590712
20
267.601281
30
0.0
11
-67.460676
21
267.669751
31
0.0
0
LINE
8
Calque 1
62
4
5
19d
100
AcDbEntity
100
AcDbLine
10
-67.460676
20
267.669751
30
0.0
11
-68.331701
21
267.723023
31
0.0
0
LINE
8
Calque 1
62
4
5
19e
100
AcDbEntity
100
AcDbLine
10
-68.331701
20
267.723023
30
0.0
11
-69.203525
21
267.761081
31
0.0
0
LINE
8
Calque 1
62
4
5
19f
100
AcDbEntity
100
AcDbLine
10
-69.203525
20
267.761081
30
0.0
11
-70.075879
21
267.783912
31
0.0
0
LINE
8
Calque 1
62
4
5
1a0
100
AcDbEntity
100
AcDbLine
10
-70.075879
20
267.783912
30
0.0
11
-70.948499
21
267.791504
31
0.0
0
LINE
8
Calque 1
62
4
5
1a1
100
AcDbEntity
100
AcDbLine
10
-70.948499
20
267.791504
30
0.0
11
-71.821119
21
267.783912
31
0.0
0
LINE
8
Calque 1
62
4
5
1a2
100
AcDbEntity
100
AcDbLine
10
-71.821119
20
267.783912
30
0.0
11
-72.693474
21
267.761081
31
0.0
0
LINE
8
Calque 1
62
4
5
1a3
100
AcDbEntity
100
AcDbLine
10
-72.693474
20
267.761081
30
0.0
11
-73.565298
21
267.723023
31
0.0
0
LINE
8
Calque 1
62
4
5
1a4
100
AcDbEntity
100
AcDbLine
10
-73.565298
20
267.723023
30
0.0
11
-74.436323
21
267.669751
31
0.0
0
LINE
8
Calque 1
62
4
5
1a5
100
AcDbEntity
100
AcDbLine
10
-74.436323
20
267.669751
30
0.0
11
-75.306284
21
267.601281
31
0.0
0
LINE
8
Calque 1
62
4
5
1a6
100
AcDbEntity
100
AcDbLine
10
-75.306284
20
267.601281
30
0.0
11
-76.174922
21
267.517641
31
0.0
0
LINE
8
Calque 1
62
4
5
1a7
100
AcDbEntity
100
AcDbLine
10
-76.174922
20
267.517641
30
0.0
11
-77.041965
21
267.418852
31
0.0
0
LINE
8
Calque 1
62
4
5
1a8
100
AcDbEntity
100
AcDbLine
10
-77.041965
20
267.418852
30
0.0
11
-77.907154
21
267.304947
31
0.0
0
LINE
8
Calque 1
62
4
5
1a9
100
AcDbEntity
100
AcDbLine
10
-77.907154
20
267.304947
30
0.0
11
-78.770220
21
267.175961
31
0.0
0
LINE
8
Calque 1
62
4
5
1aa
100
AcDbEntity
100
AcDbLine
10
-78.770220
20
267.175961
30
0.0
11
-79.630908
21
267.031931
31
0.0
0
LINE
8
Calque 1
62
4
5
1ab
100
AcDbEntity
100
AcDbLine
10
-79.630908
20
267.031931
30
0.0
11
-80.488948
21
266.872902
31
0.0
0
LINE
8
Calque 1
62
4
5
1ac
100
AcDbEntity
100
AcDbLine
10
-80.488948
20
266.872902
30
0.0
11
-81.344081
21
266.698923
31
0.0
0
LINE
8
Calque 1
62
4
5
1ad
100
AcDbEntity
100
AcDbLine
10
-81.344081
20
266.698923
30
0.0
11
-82.196051
21
266.510046
31
0.0
0
LINE
8
Calque 1
62
4
5
1ae
100
AcDbEntity
100
AcDbLine
10
-82.196051
20
266.510046
30
0.0
11
-83.044592
21
266.306332
31
0.0
0
LINE
8
Calque 1
62
4
5
1af
100
AcDbEntity
100
AcDbLine
10
-83.044592
20
266.306332
30
0.0
11
-83.889449
21
266.087836
31
0.0
0
LINE
8
Calque 1
62
4
5
1b0
100
AcDbEntity
100
AcDbLine
10
-83.889449
20
266.087836
30
0.0
11
-84.730364
21
265.854630
31
0.0
0
LINE
8
Calque 1
62
4
5
1b1
100
AcDbEntity
100
AcDbLine
10
-84.730364
20
265.854630
30
0.0
11
-85.567083
21
265.606783
31
0.0
0
LINE
8
Calque 1
62
4
5
1b2
100
AcDbEntity
100
AcDbLine
10
-85.567083
20
265.606783
30
0.0
11
-86.399347
21
265.344369
31
0.0
0
LINE
8
Calque 1
62
4
5
1b3
100
AcDbEntity
100
AcDbLine
10
-86.399347
20
265.344369
30
0.0
11
-87.226905
21
265.067473
31
0.0
0
LINE
8
Calque 1
62
4
5
1b4
100
AcDbEntity
100
AcDbLine
10
-87.226905
20
265.067473
30
0.0
11
-88.049504
21
264.776174
31
0.0
0
LINE
8
Calque 1
62
4
5
1b5
100
AcDbEntity
100
AcDbLine
10
-88.049504
20
264.776174
30
0.0
11
-88.866895
21
264.470567
31
0.0
0
LINE
8
Calque 1
62
4
5
1b6
100
AcDbEntity
100
AcDbLine
10
-88.866895
20
264.470567
30
0.0
11
-89.678826
21
264.150736
31
0.0
0
LINE
8
Calque 1
62
4
5
1b7
100
AcDbEntity
100
AcDbLine
10
-89.678826
20
264.150736
30
0.0
11
-90.485053
21
263.816788
31
0.0
0
LINE
8
Calque 1
62
4
5
1b8
100
AcDbEntity
100
AcDbLine
10
-90.485053
20
263.816788
30
0.0
11
-91.285328
21
263.468817
31
0.0
0
LINE
8
Calque 1
62
4
5
1b9
100
AcDbEntity
100
AcDbLine
10
-91.285328
20
263.468817
30
0.0
11
-92.079408
21
263.106934
31
0.0
0
LINE
8
Calque 1
62
4
5
1ba
100
AcDbEntity
100
AcDbLine
10
-92.079408
20
263.106934
30
0.0
11
-92.867054
21
262.731246
31
0.0
0
LINE
8
Calque 1
62
4
5
1bb
100
AcDbEntity
100
AcDbLine
10
-92.867054
20
262.731246
30
0.0
11
-93.648022
21
262.341869
31
0.0
0
LINE
8
Calque 1
62
4
5
1bc
100
AcDbEntity
100
AcDbLine
10
-93.648022
20
262.341869
30
0.0
11
-94.422076
21
261.938924
31
0.0
0
LINE
8
Calque 1
62
4
5
1bd
100
AcDbEntity
100
AcDbLine
10
-94.422076
20
261.938924
30
0.0
11
-95.188978
21
261.522530
31
0.0
0
LINE
8
Calque 1
62
4
5
1be
100
AcDbEntity
100
AcDbLine
10
-95.188978
20
261.522530
30
0.0
11
-95.948497
21
261.092813
31
0.0
0
LINE
8
Calque 1
62
4
5
1bf
100
AcDbEntity
100
AcDbLine
10
-95.948497
20
261.092813
30
0.0
11
-96.700399
21
260.649910
31
0.0
0
LINE
8
Calque 1
62
4
5
1c0
100
AcDbEntity
100
AcDbLine
10
-96.700399
20
260.649910
30
0.0
11
-97.444458
21
260.193949
31
0.0
0
LINE
8
Calque 1
62
4
5
1c1
100
AcDbEntity
100
AcDbLine
10
-97.444458
20
260.193949
30
0.0
11
-98.180449
21
259.725074
31
0.0
0
LINE
8
Calque 1
62
4
5
1c2
100
AcDbEntity
100
AcDbLine
10
-98.180449
20
259.725074
30
0.0
11
-98.908142
21
259.243422
31
0.0
0
LINE
8
Calque 1
62
4
5
1c3
100
AcDbEntity
100
AcDbLine
10
-98.908142
20
259.243422
30
0.0
11
-99.627317
21
258.749147
31
0.0
0
LINE
8
Calque 1
62
4
5
1c4
100
AcDbEntity
100
AcDbLine
10
-99.627317
20
258.749147
30
0.0
11
-100.337758
21
258.242394
31
0.0
0
LINE
8
Calque 1
62
4
5
1c5
100
AcDbEntity
100
AcDbLine
10
-100.337758
20
258.242394
30
0.0
11
-101.039247
21
257.723320
31
0.0
0
LINE
8
Calque 1
62
4
5
1c6
100
AcDbEntity
100
AcDbLine
10
-101.039247
20
257.723320
30
0.0
11
-101.731569
21
257.192081
31
0.0
0
LINE
8
Calque 1
62
4
5
1c7
100
AcDbEntity
100
AcDbLine
10
-101.731569
20
257.192081
30
0.0
11
-102.414516
21
256.648843
31
0.0
0
LINE
8
Calque 1
62
4
5
1c8
100
AcDbEntity
100
AcDbLine
10
-102.414516
20
256.648843
30
0.0
11
-103.087876
21
256.093766
31
0.0
0
LINE
8
Calque 1
62
4
5
1c9
100
AcDbEntity
100
AcDbLine
10
-103.087876
20
256.093766
30
0.0
11
-103.751448
21
255.527024
31
0.0
0
LINE
8
Calque 1
62
4
5
1ca
100
AcDbEntity
100
AcDbLine
10
-103.751448
20
255.527024
30
0.0
11
-104.405026
21
254.948784
31
0.0
0
LINE
8
Calque 1
62
4
5
1cb
100
AcDbEntity
100
AcDbLine
10
-104.405026
20
254.948784
30
0.0
11
-105.048414
21
254.359228
31
0.0
0
LINE
8
Calque 1
62
4
5
1cc
100
AcDbEntity
100
AcDbLine
10
-105.048414
20
254.359228
30
0.0
11
-105.681413
21
253.758535
31
0.0
0
LINE
8
Calque 1
62
4
5
1cd
100
AcDbEntity
100
AcDbLine
10
-105.681413
20
253.758535
30
0.0
11
-106.303834
21
253.146883
31
0.0
0
LINE
8
Calque 1
62
4
5
1ce
100
AcDbEntity
100
AcDbLine
10
-106.303834
20
253.146883
30
0.0
11
-106.915486
21
252.524462
31
0.0
0
LINE
8
Calque 1
62
4
5
1cf
100
AcDbEntity
100
AcDbLine
10
-106.915486
20
252.524462
30
0.0
11
-107.516179
21
251.891463
31
0.0
0
LINE
8
Calque 1
62
4
5
1d0
100
AcDbEntity
100
AcDbLine
10
-107.516179
20
251.891463
30
0.0
11
-108.105736
21
251.248075
31
0.0
0
LINE
8
Calque 1
62
4
5
1d1
100
AcDbEntity
100
AcDbLine
10
-108.105736
20
251.248075
30
0.0
11
-108.683975
21
250.594496
31
0.0
0
LINE
8
Calque 1
62
4
5
1d2
100
AcDbEntity
100
AcDbLine
10
-108.683975
20
250.594496
30
0.0
11
-109.250717
21
249.930927
31
0.0
0
LINE
8
Calque 1
62
4
5
1d3
100
AcDbEntity
100
AcDbLine
10
-109.250717
20
249.930927
30
0.0
11
-109.805795
21
249.257565
31
0.0
0
LINE
8
Calque 1
62
4
5
1d4
100
AcDbEntity
100
AcDbLine
10
-109.805795
20
249.257565
30
0.0
11
-110.349033
21
248.574618
31
0.0
0
LINE
8
Calque 1
62
4
5
1d5
100
AcDbEntity
100
AcDbLine
10
-110.349033
20
248.574618
30
0.0
11
-110.880271
21
247.882296
31
0.0
0
LINE
8
Calque 1
62
4
5
1d6
100
AcDbEntity
100
AcDbLine
10
-110.880271
20
247.882296
30
0.0
11
-111.399345
21
247.180807
31
0.0
0
LINE
8
Calque 1
62
4
5
1d7
100
AcDbEntity
100
AcDbLine
10
-111.399345
20
247.180807
30
0.0
11
-111.906098
21
246.470366
31
0.0
0
LINE
8
Calque 1
62
4
5
1d8
100
AcDbEntity
100
AcDbLine
10
-111.906098
20
246.470366
30
0.0
11
-112.400374
21
245.751190
31
0.0
0
LINE
8
Calque 1
62
4
5
1d9
100
AcDbEntity
100
AcDbLine
10
-112.400374
20
245.751190
30
0.0
11
-112.882022
21
245.023497
31
0.0
0
LINE
8
Calque 1
62
4
5
1da
100
AcDbEntity
100
AcDbLine
10
-112.882022
20
245.023497
30
0.0
11
-113.350901
21
244.287507
31
0.0
0
LINE
8
Calque 1
62
4
5
1db
100
AcDbEntity
100
AcDbLine
10
-113.350901
20
244.287507
30
0.0
11
-113.806859
21
243.543448
31
0.0
0
LINE
8
Calque 1
62
4
5
1dc
100
AcDbEntity
100
AcDbLine
10
-113.806859
20
243.543448
30
0.0
11
-114.249764
21
242.791546
31
0.0
0
LINE
8
Calque 1
62
4
5
1dd
100
AcDbEntity
100
AcDbLine
10
-114.249764
20
242.791546
30
0.0
11
-114.679479
21
242.032027
31
0.0
0
LINE
8
Calque 1
62
4
5
1de
100
AcDbEntity
100
AcDbLine
10
-114.679479
20
242.032027
30
0.0
11
-115.095875
21
241.265124
31
0.0
0
LINE
8
Calque 1
62
4
5
1df
100
AcDbEntity
100
AcDbLine
10
-115.095875
20
241.265124
30
0.0
11
-115.498821
21
240.491071
31
0.0
0
LINE
8
Calque 1
62
4
5
1e0
100
AcDbEntity
100
AcDbLine
10
-115.498821
20
240.491071
30
0.0
11
-115.888197
21
239.710102
31
0.0
0
LINE
8
Calque 1
62
4
5
1e1
100
AcDbEntity
100
AcDbLine
10
-115.888197
20
239.710102
30
0.0
11
-116.263883
21
238.922457
31
0.0
0
LINE
8
Calque 1
62
4
5
1e2
100
AcDbEntity
100
AcDbLine
10
-116.263883
20
238.922457
30
0.0
11
-116.625768
21
238.128377
31
0.0
0
LINE
8
Calque 1
62
4
5
1e3
100
AcDbEntity
100
AcDbLine
10
-116.625768
20
238.128377
30
0.0
11
-116.973737
21
237.328102
31
0.0
0
LINE
8
Calque 1
62
4
5
1e4
100
AcDbEntity
100
AcDbLine
10
-116.973737
20
237.328102
30
0.0
11
-117.307687
21
236.521875
31
0.0
0
LINE
8
Calque 1
62
4
5
1e5
100
AcDbEntity
100
AcDbLine
10
-117.307687
20
236.521875
30
0.0
11
-117.627516
21
235.709944
31
0.0
0
LINE
8
Calque 1
62
4
5
1e6
100
AcDbEntity
100
AcDbLine
10
-117.627516
20
235.709944
30
0.0
11
-117.933126
21
234.892552
31
0.0
0
LINE
8
Calque 1
62
4
5
1e7
100
AcDbEntity
100
AcDbLine
10
-117.933126
20
234.892552
30
0.0
11
-118.224424
21
234.069953
31
0.0
0
LINE
8
Calque 1
62
4
5
1e8
100
AcDbEntity
100
AcDbLine
10
-118.224424
20
234.069953
30
0.0
11
-118.501321
21
233.242396
31
0.0
0
LINE
8
Calque 1
62
4
5
1e9
100
AcDbEntity
100
AcDbLine
10
-118.501321
20
233.242396
30
0.0
11
-118.763734
21
232.410131
31
0.0
0
LINE
8
Calque 1
62
4
5
1ea
100
AcDbEntity
100
AcDbLine
10
-118.763734
20
232.410131
30
0.0
11
-119.011579
21
231.573413
31
0.0
0
LINE
8
Calque 1
62
4
5
1eb
100
AcDbEntity
100
AcDbLine
10
-119.011579
20
231.573413
30
0.0
11
-119.244785
21
230.732498
31
0.0
0
LINE
8
Calque 1
62
4
5
1ec
100
AcDbEntity
100
AcDbLine
10
-119.244785
20
230.732498
30
0.0
11
-119.463281
21
229.887640
31
0.0
0
LINE
8
Calque 1
62
4
5
1ed
100
AcDbEntity
100
AcDbLine
10
-119.463281
20
229.887640
30
0.0
11
-119.666997
21
229.039097
31
0.0
0
LINE
8
Calque 1
62
4
5
1ee
100
AcDbEntity
100
AcDbLine
10
-119.666997
20
229.039097
30
0.0
11
-119.855875
21
228.187130
31
0.0
0
LINE
8
Calque 1
62
4
5
1ef
100
AcDbEntity
100
AcDbLine
10
-119.855875
20
228.187130
30
0.0
11
-120.029853
21
227.331994
31
0.0
0
LINE
8
Calque 1
62
4
5
1f0
100
AcDbEntity
100
AcDbLine
10
-120.029853
20
227.331994
30
0.0
11
-120.188883
21
226.473954
31
0.0
0
LINE
8
Calque 1
62
4
5
1f1
100
AcDbEntity
100
AcDbLine
10
-120.188883
20
226.473954
30
0.0
11
-120.332912
21
225.613269
31
0.0
0
LINE
8
Calque 1
62
4
5
1f2
100
AcDbEntity
100
AcDbLine
10
-120.332912
20
225.613269
30
0.0
11
-120.461899
21
224.750200
31
0.0
0
LINE
8
Calque 1
62
4
5
1f3
100
AcDbEntity
100
AcDbLine
10
-120.461899
20
224.750200
30
0.0
11
-120.575801
21
223.885011
31
0.0
0
LINE
8
Calque 1
62
4
5
1f4
100
AcDbEntity
100
AcDbLine
10
-120.575801
20
223.885011
30
0.0
11
-120.674593
21
223.017968
31
0.0
0
LINE
8
Calque 1
62
4
5
1f5
100
AcDbEntity
100
AcDbLine
10
-120.674593
20
223.017968
30
0.0
11
-120.758232
21
222.149333
31
0.0
0
LINE
8
Calque 1
62
4
5
1f6
100
AcDbEntity
100
AcDbLine
10
-120.758232
20
222.149333
30
0.0
11
-120.826702
21
221.279369
31
0.0
0
LINE
8
Calque 1
62
4
5
1f7
100
AcDbEntity
100
AcDbLine
10
-120.826702
20
221.279369
30
0.0
11
-120.879972
21
220.408343
31
0.0
0
LINE
8
Calque 1
62
4
5
1f8
100
AcDbEntity
100
AcDbLine
10
-120.879972
20
220.408343
30
0.0
11
-120.918032
21
219.536519
31
0.0
0
LINE
8
Calque 1
62
4
5
1f9
100
AcDbEntity
100
AcDbLine
10
-120.918032
20
219.536519
30
0.0
11
-120.940864
21
218.664165
31
0.0
0
LINE
8
Calque 1
62
4
5
1fa
100
AcDbEntity
100
AcDbLine
10
-120.940864
20
218.664165
30
0.0
11
-120.948456
21
217.791545
31
0.0
0
LINE
8
Calque 1
62
4
5
1fb
100
AcDbEntity
100
AcDbLine
10
-120.948456
20
217.791545
30
0.0
11
-120.940864
21
216.918925
31
0.0
0
LINE
8
Calque 1
62
4
5
1fc
100
AcDbEntity
100
AcDbLine
10
-120.940864
20
216.918925
30
0.0
11
-120.918032
21
216.046571
31
0.0
0
LINE
8
Calque 1
62
4
5
1fd
100
AcDbEntity
100
AcDbLine
10
-120.918032
20
216.046571
30
0.0
11
-120.879972
21
215.174747
31
0.0
0
LINE
8
Calque 1
62
4
5
1fe
100
AcDbEntity
100
AcDbLine
10
-120.879972
20
215.174747
30
0.0
11
-120.826702
21
214.303721
31
0.0
0
LINE
8
Calque 1
62
4
5
1ff
100
AcDbEntity
100
AcDbLine
10
-120.826702
20
214.303721
30
0.0
11
-120.758232
21
213.433757
31
0.0
0
LINE
8
Calque 1
62
4
5
200
100
AcDbEntity
100
AcDbLine
10
-120.758232
20
213.433757
30
0.0
11
-120.674593
21
212.565122
31
0.0
0
LINE
8
Calque 1
62
4
5
201
100
AcDbEntity
100
AcDbLine
10
-120.674593
20
212.565122
30
0.0
11
-120.575801
21
211.698077
31
0.0
0
LINE
8
Calque 1
62
4
5
202
100
AcDbEntity
100
AcDbLine
10
-120.575801
20
211.698077
30
0.0
11
-120.461899
21
210.832890
31
0.0
0
LINE
8
Calque 1
62
4
5
203
100
AcDbEntity
100
AcDbLine
10
-120.461899
20
210.832890
30
0.0
11
-120.332912
21
209.969821
31
0.0
0
LINE
8
Calque 1
62
4
5
204
100
AcDbEntity
100
AcDbLine
10
-120.332912
20
209.969821
30
0.0
11
-120.188883
21
209.109136
31
0.0
0
LINE
8
Calque 1
62
4
5
205
100
AcDbEntity
100
AcDbLine
10
-120.188883
20
209.109136
30
0.0
11
-120.029853
21
208.251096
31
0.0
0
LINE
8
Calque 1
62
4
5
206
100
AcDbEntity
100
AcDbLine
10
-120.029853
20
208.251096
30
0.0
11
-119.855875
21
207.395960
31
0.0
0
LINE
8
Calque 1
62
4
5
207
100
AcDbEntity
100
AcDbLine
10
-119.855875
20
207.395960
30
0.0
11
-119.666997
21
206.543993
31
0.0
0
LINE
8
Calque 1
62
4
5
208
100
AcDbEntity
100
AcDbLine
10
-119.666997
20
206.543993
30
0.0
11
-119.463281
21
205.695450
31
0.0
0
LINE
8
Calque 1
62
4
5
209
100
AcDbEntity
100
AcDbLine
10
-119.463281
20
205.695450
30
0.0
11
-119.244785
21
204.850592
31
0.0
0
LINE
8
Calque 1
62
4
5
20a
100
AcDbEntity
100
AcDbLine
10
-119.244785
20
204.850592
30
0.0
11
-119.011579
21
204.009677
31
0.0
0
LINE
8
Calque 1
62
4
5
20b
100
AcDbEntity
100
AcDbLine
10
-119.011579
20
204.009677
30
0.0
11
-118.763734
21
203.172959
31
0.0
0
LINE
8
Calque 1
62
4
5
20c
100
AcDbEntity
100
AcDbLine
10
-118.763734
20
203.172959
30
0.0
11
-118.501321
21
202.340694
31
0.0
0
LINE
8
Calque 1
62
4
5
20d
100
AcDbEntity
100
AcDbLine
10
-118.501321
20
202.340694
30
0.0
11
-118.224424
21
201.513137
31
0.0
0
LINE
8
Calque 1
62
4
5
20e
100
AcDbEntity
100
AcDbLine
10
-118.224424
20
201.513137
30
0.0
11
-117.933126
21
200.690538
31
0.0
0
LINE
8
Calque 1
62
4
5
20f
100
AcDbEntity
100
AcDbLine
10
-117.933126
20
200.690538
30
0.0
11
-117.627516
21
199.873149
31
0.0
0
LINE
8
Calque 1
62
4
5
210
100
AcDbEntity
100
AcDbLine
10
-117.627516
20
199.873149
30
0.0
11
-117.307687
21
199.061215
31
0.0
0
LINE
8
Calque 1
62
4
5
211
100
AcDbEntity
100
AcDbLine
10
-117.307687
20
199.061215
30
0.0
11
-116.973737
21
198.254988
31
0.0
0
LINE
8
Calque 1
62
4
5
212
100
AcDbEntity
100
AcDbLine
10
-116.973737
20
198.254988
30
0.0
11
-116.625768
21
197.454713
31
0.0
0
LINE
8
Calque 1
62
4
5
213
100
AcDbEntity
100
AcDbLine
10
-116.625768
20
197.454713
30
0.0
11
-116.263883
21
196.660633
31
0.0
0
LINE
8
Calque 1
62
4
5
214
100
AcDbEntity
100
AcDbLine
10
-116.263883
20
196.660633
30
0.0
11
-115.888197
21
195.872988
31
0.0
0
LINE
8
Calque 1
62
4
5
215
100
AcDbEntity
100
AcDbLine
10
-115.888197
20
195.872988
30
0.0
11
-115.498821
21
195.092019
31
0.0
0
LINE
8
Calque 1
62
4
5
216
100
AcDbEntity
100
AcDbLine
10
-115.498821
20
195.092019
30
0.0
11
-115.095875
21
194.317966
31
0.0
0
LINE
8
Calque 1
62
4
5
217
100
AcDbEntity
100
AcDbLine
10
-115.095875
20
194.317966
30
0.0
11
-114.679479
21
193.551063
31
0.0
0
LINE
8
Calque 1
62
4
5
218
100
AcDbEntity
100
AcDbLine
10
-114.679479
20
193.551063
30
0.0
11
-114.249764
21
192.791544
31
0.0
0
LINE
8
Calque 1
62
4
5
219
100
AcDbEntity
100
AcDbLine
10
-114.249764
20
192.791544
30
0.0
11
-113.806859
21
192.039642
31
0.0
0
LINE
8
Calque 1
62
4
5
21a
100
AcDbEntity
100
AcDbLine
10
-113.806859
20
192.039642
30
0.0
11
-113.350901
21
191.295583
31
0.0
0
LINE
8
Calque 1
62
4
5
21b
100
AcDbEntity
100
AcDbLine
10
-113.350901
20
191.295583
30
0.0
11
-112.882022
21
190.559593
31
0.0
0
LINE
8
Calque 1
62
4
5
21c
100
AcDbEntity
100
AcDbLine
10
-112.882022
20
190.559593
30
0.0
11
-112.400374
21
189.831899
31
0.0
0
LINE
8
Calque 1
62
4
5
21d
100
AcDbEntity
100
AcDbLine
10
-112.400374
20
189.831899
30
0.0
11
-111.906098
21
189.112724
31
0.0
0
LINE
8
Calque 1
62
4
5
21e
100
AcDbEntity
100
AcDbLine
10
-111.906098
20
189.112724
30
0.0
11
-111.399345
21
188.402283
31
0.0
0
LINE
8
Calque 1
62
4
5
21f
100
AcDbEntity
100
AcDbLine
10
-111.399345
20
188.402283
30
0.0
11
-110.880271
21
187.700794
31
0.0
0
LINE
8
Calque 1
62
4
5
220
100
AcDbEntity
100
AcDbLine
10
-110.880271
20
187.700794
30
0.0
11
-110.349033
21
187.008475
31
0.0
0
LINE
8
Calque 1
62
4
5
221
100
AcDbEntity
100
AcDbLine
10
-110.349033
20
187.008475
30
0.0
11
-109.805795
21
186.325525
31
0.0
0
LINE
8
Calque 1
62
4
5
222
100
AcDbEntity
100
AcDbLine
10
-109.805795
20
186.325525
30
0.0
11
-109.250717
21
185.652166
31
0.0
0
LINE
8
Calque 1
62
4
5
223
100
AcDbEntity
100
AcDbLine
10
-109.250717
20
185.652166
30
0.0
11
-108.683975
21
184.988594
31
0.0
0
LINE
8
Calque 1
62
4
5
224
100
AcDbEntity
100
AcDbLine
10
-108.683975
20
184.988594
30
0.0
11
-108.105736
21
184.335015
31
0.0
0
LINE
8
Calque 1
62
4
5
225
100
AcDbEntity
100
AcDbLine
10
-108.105736
20
184.335015
30
0.0
11
-107.516179
21
183.691624
31
0.0
0
LINE
8
Calque 1
62
4
5
226
100
AcDbEntity
100
AcDbLine
10
-107.516179
20
183.691624
30
0.0
11
-106.915486
21
183.058625
31
0.0
0
LINE
8
Calque 1
62
4
5
227
100
AcDbEntity
100
AcDbLine
10
-106.915486
20
183.058625
30
0.0
11
-106.303834
21
182.436204
31
0.0
0
LINE
8
Calque 1
62
4
5
228
100
AcDbEntity
100
AcDbLine
10
-106.303834
20
182.436204
30
0.0
11
-105.681413
21
181.824555
31
0.0
0
LINE
8
Calque 1
62
4
5
229
100
AcDbEntity
100
AcDbLine
10
-105.681413
20
181.824555
30
0.0
11
-105.048414
21
181.223865
31
0.0
0
LINE
8
Calque 1
62
4
5
22a
100
AcDbEntity
100
AcDbLine
10
-105.048414
20
181.223865
30
0.0
11
-104.405026
21
180.634305
31
0.0
0
LINE
8
Calque 1
62
4
5
22b
100
AcDbEntity
100
AcDbLine
10
-104.405026
20
180.634305
30
0.0
11
-103.751448
21
180.056066
31
0.0
0
LINE
8
Calque 1
62
4
5
22c
100
AcDbEntity
100
AcDbLine
10
-103.751448
20
180.056066
30
0.0
11
-103.087876
21
179.489324
31
0.0
0
LINE
8
Calque 1
62
4
5
22d
100
AcDbEntity
100
AcDbLine
10
-103.087876
20
179.489324
30
0.0
11
-102.414516
21
178.934244
31
0.0
0
LINE
8
Calque 1
62
4
5
22e
100
AcDbEntity
100
AcDbLine
10
-102.414516
20
178.934244
30
0.0
11
-101.731569
21
178.391006
31
0.0
0
LINE
8
Calque 1
62
4
5
22f
100
AcDbEntity
100
AcDbLine
10
-101.731569
20
178.391006
30
0.0
11
-101.039247
21
177.859765
31
0.0
0
LINE
8
Calque 1
62
4
5
230
100
AcDbEntity
100
AcDbLine
10
-101.039247
20
177.859765
30
0.0
11
-100.337758
21
177.340696
31
0.0
0
LINE
8
Calque 1
62
4
5
231
100
AcDbEntity
100
AcDbLine
10
-100.337758
20
177.340696
30
0.0
11
-99.627317
21
176.833943
31
0.0
0
LINE
8
Calque 1
62
4
5
232
100
AcDbEntity
100
AcDbLine
10
-99.627317
20
176.833943
30
0.0
11
-98.908142
21
176.339665
31
0.0
0
LINE
8
Calque 1
62
4
5
233
100
AcDbEntity
100
AcDbLine
10
-98.908142
20
176.339665
30
0.0
11
-98.180449
21
175.858013
31
0.0
0
LINE
8
Calque 1
62
4
5
234
100
AcDbEntity
100
AcDbLine
10
-98.180449
20
175.858013
30
0.0
11
-97.444458
21
175.389143
31
0.0
0
LINE
8
Calque 1
62
4
5
235
100
AcDbEntity
100
AcDbLine
10
-97.444458
20
175.389143
30
0.0
11
-96.700399
21
174.933185
31
0.0
0
LINE
8
Calque 1
62
4
5
236
100
AcDbEntity
100
AcDbLine
10
-96.700399
20
174.933185
30
0.0
11
-95.948497
21
174.490274
31
0.0
0
LINE
8
Calque 1
62
4
5
237
100
AcDbEntity
100
AcDbLine
10
-95.948497
20
174.490274
30
0.0
11
-95.188978
21
174.060554
31
0.0
0
LINE
8
Calque 1
62
4
5
238
100
AcDbEntity
100
AcDbLine
10
-95.188978
20
174.060554
30
0.0
11
-94.422076
21
173.644163
31
0.0
0
LINE
8
Calque 1
62
4
5
239
100
AcDbEntity
100
AcDbLine
10
-94.422076
20
173.644163
30
0.0
11
-93.648022
21
173.241215
31
0.0
0
LINE
8
Calque 1
62
4
5
23a
100
AcDbEntity
100
AcDbLine
10
-93.648022
20
173.241215
30
0.0
11
-92.867054
21
172.851844
31
0.0
0
LINE
8
Calque 1
62
4
5
23b
100
AcDbEntity
100
AcDbLine
10
-92.867054
20
172.851844
30
0.0
11
-92.079408
21
172.476156
31
0.0
0
LINE
8
Calque 1
62
4
5
23c
100
AcDbEntity
100
AcDbLine
10
-92.079408
20
172.476156
30
0.0
11
-91.285328
21
172.114273
31
0.0
0
LINE
8
Calque 1
62
4
5
23d
100
AcDbEntity
100
AcDbLine
10
-91.285328
20
172.114273
30
0.0
11
-90.485053
21
171.766305
31
0.0
0
LINE
8
Calque 1
62
4
5
23e
100
AcDbEntity
100
AcDbLine
10
-90.485053
20
171.766305
30
0.0
11
-89.678826
21
171.432354
31
0.0
0
LINE
8
Calque 1
62
4
5
23f
100
AcDbEntity
100
AcDbLine
10
-89.678826
20
171.432354
30
0.0
11
-88.866895
21
171.112526
31
0.0
0
LINE
8
Calque 1
62
4
5
240
100
AcDbEntity
100
AcDbLine
10
-88.866895
20
171.112526
30
0.0
11
-88.049504
21
170.806916
31
0.0
0
LINE
8
Calque 1
62
4
5
241
100
AcDbEntity
100
AcDbLine
10
-88.049504
20
170.806916
30
0.0
11
-87.226905
21
170.515614
31
0.0
0
LINE
8
Calque 1
62
4
5
242
100
AcDbEntity
100
AcDbLine
10
-87.226905
20
170.515614
30
0.0
11
-86.399347
21
170.238715
31
0.0
0
LINE
8
Calque 1
62
4
5
243
100
AcDbEntity
100
AcDbLine
10
-86.399347
20
170.238715
30
0.0
11
-85.567083
21
169.976305
31
0.0
0
LINE
8
Calque 1
62
4
5
244
100
AcDbEntity
100
AcDbLine
10
-85.567083
20
169.976305
30
0.0
11
-84.730364
21
169.728466
31
0.0
0
LINE
8
Calque 1
62
4
5
245
100
AcDbEntity
100
AcDbLine
10
-84.730364
20
169.728466
30
0.0
11
-83.889449
21
169.495254
31
0.0
0
LINE
8
Calque 1
62
4
5
246
100
AcDbEntity
100
AcDbLine
10
-83.889449
20
169.495254
30
0.0
11
-83.044592
21
169.276755
31
0.0
0
LINE
8
Calque 1
62
4
5
247
100
AcDbEntity
100
AcDbLine
10
-83.044592
20
169.276755
30
0.0
11
-82.196051
21
169.073044
31
0.0
0
LINE
8
Calque 1
62
4
5
248
100
AcDbEntity
100
AcDbLine
10
-82.196051
20
169.073044
30
0.0
11
-81.344081
21
168.884164
31
0.0
0
LINE
8
Calque 1
62
4
5
249
100
AcDbEntity
100
AcDbLine
10
-81.344081
20
168.884164
30
0.0
11
-80.488948
21
168.710185
31
0.0
0
LINE
8
Calque 1
62
4
5
24a
100
AcDbEntity
100
AcDbLine
10
-80.488948
20
168.710185
30
0.0
11
-79.630908
21
168.551156
31
0.0
0
LINE
8
Calque 1
62
4
5
24b
100
AcDbEntity
100
AcDbLine
10
-79.630908
20
168.551156
30
0.0
11
-78.770220
21
168.407124
31
0.0
0
LINE
8
Calque 1
62
4
5
24c
100
AcDbEntity
100
AcDbLine
10
-78.770220
20
168.407124
30
0.0
11
-77.907154
21
168.278145
31
0.0
0
LINE
8
Calque 1
62
4
5
24d
100
AcDbEntity
100
AcDbLine
10
-77.907154
20
168.278145
30
0.0
11
-77.041965
21
168.164235
31
0.0
0
LINE
8
Calque 1
62
4
5
24e
100
AcDbEntity
100
AcDbLine
10
-77.041965
20
168.164235
30
0.0
11
-76.174922
21
168.065434
31
0.0
0
LINE
8
Calque 1
62
4
5
24f
100
AcDbEntity
100
AcDbLine
10
-76.174922
20
168.065434
30
0.0
11
-75.306284
21
167.981835
31
0.0
0
LINE
8
Calque 1
62
4
5
250
100
AcDbEntity
100
AcDbLine
10
-75.306284
20
167.981835
30
0.0
11
-74.436323
21
167.913334
31
0.0
0
LINE
8
Calque 1
62
4
5
251
100
AcDbEntity
100
AcDbLine
10
-74.436323
20
167.913334
30
0.0
11
-73.565298
21
167.860036
31
0.0
0
LINE
8
Calque 1
62
4
5
252
100
AcDbEntity
100
AcDbLine
10
-73.565298
20
167.860036
30
0.0
11
-72.693474
21
167.821936
31
0.0
0
LINE
8
Calque 1
62
4
5
253
100
AcDbEntity
100
AcDbLine
10
-72.693474
20
167.821936
30
0.0
11
-71.821119
21
167.799132
31
0.0
0
LINE
8
Calque 1
62
4
5
254
100
AcDbEntity
100
AcDbLine
10
-71.821119
20
167.799132
30
0.0
11
-70.948499
21
167.791145
31
0.0
0
LINE
8
Calque 1
62
4
5
255
100
AcDbEntity
100
AcDbLine
10
-70.948499
20
167.791145
30
0.0
11
-70.075879
21
167.799132
31
0.0
0
LINE
8
Calque 1
62
4
5
256
100
AcDbEntity
100
AcDbLine
10
-70.075879
20
167.799132
30
0.0
11
-69.203525
21
167.821936
31
0.0
0
LINE
8
Calque 1
62
4
5
257
100
AcDbEntity
100
AcDbLine
10
-69.203525
20
167.821936
30
0.0
11
-68.331701
21
167.860036
31
0.0
0
LINE
8
Calque 1
62
4
5
258
100
AcDbEntity
100
AcDbLine
10
-68.331701
20
167.860036
30
0.0
11
-67.460676
21
167.913334
31
0.0
0
LINE
8
Calque 1
62
4
5
259
100
AcDbEntity
100
AcDbLine
10
-67.460676
20
167.913334
30
0.0
11
-66.590712
21
167.981835
31
0.0
0
LINE
8
Calque 1
62
4
5
25a
100
AcDbEntity
100
AcDbLine
10
-66.590712
20
167.981835
30
0.0
11
-65.722077
21
168.065434
31
0.0
0
LINE
8
Calque 1
62
4
5
25b
100
AcDbEntity
100
AcDbLine
10
-65.722077
20
168.065434
30
0.0
11
-64.855031
21
168.164235
31
0.0
0
LINE
8
Calque 1
62
4
5
25c
100
AcDbEntity
100
AcDbLine
10
-64.855031
20
168.164235
30
0.0
11
-63.989845
21
168.278145
31
0.0
0
LINE
8
Calque 1
62
4
5
25d
100
AcDbEntity
100
AcDbLine
10
-63.989845
20
168.278145
30
0.0
11
-63.126775
21
168.407124
31
0.0
0
LINE
8
Calque 1
62
4
5
25e
100
AcDbEntity
100
AcDbLine
10
-63.126775
20
168.407124
30
0.0
11
-62.266091
21
168.551156
31
0.0
0
LINE
8
Calque 1
62
4
5
25f
100
AcDbEntity
100
AcDbLine
10
-62.266091
20
168.551156
30
0.0
11
-61.408050
21
168.710185
31
0.0
0
LINE
8
Calque 1
62
4
5
260
100
AcDbEntity
100
AcDbLine
10
-61.408050
20
168.710185
30
0.0
11
-60.552914
21
168.884164
31
0.0
0
LINE
8
Calque 1
62
4
5
261
100
AcDbEntity
100
AcDbLine
10
-60.552914
20
168.884164
30
0.0
11
-59.700947
21
169.073044
31
0.0
0
LINE
8
Calque 1
62
4
5
262
100
AcDbEntity
100
AcDbLine
10
-59.700947
20
169.073044
30
0.0
11
-58.852404
21
169.276755
31
0.0
0
LINE
8
Calque 1
62
4
5
263
100
AcDbEntity
100
AcDbLine
10
-58.852404
20
169.276755
30
0.0
11
-58.007546
21
169.495254
31
0.0
0
LINE
8
Calque 1
62
4
5
264
100
AcDbEntity
100
AcDbLine
10
-58.007546
20
169.495254
30
0.0
11
-57.166631
21
169.728466
31
0.0
0
LINE
8
Calque 1
62
4
5
265
100
AcDbEntity
100
AcDbLine
10
-57.166631
20
169.728466
30
0.0
11
-56.329916
21
169.976305
31
0.0
0
LINE
8
Calque 1
62
4
5
266
100
AcDbEntity
100
AcDbLine
10
-56.329916
20
169.976305
30
0.0
11
-55.497648
21
170.238715
31
0.0
0
LINE
8
Calque 1
62
4
5
267
100
AcDbEntity
100
AcDbLine
10
-55.497648
20
170.238715
30
0.0
11
-54.670088
21
170.515614
31
0.0
0
LINE
8
Calque 1
62
4
5
268
100
AcDbEntity
100
AcDbLine
10
-54.670088
20
170.515614
30
0.0
11
-53.847489
21
170.806916
31
0.0
0
LINE
8
Calque 1
62
4
5
269
100
AcDbEntity
100
AcDbLine
10
-53.847489
20
170.806916
30
0.0
11
-53.030100
21
171.112526
31
0.0
0
LINE
8
Calque 1
62
4
5
26a
100
AcDbEntity
100
AcDbLine
10
-53.030100
20
171.112526
30
0.0
11
-52.218169
21
171.432354
31
0.0
0
LINE
8
Calque 1
62
4
5
26b
100
AcDbEntity
100
AcDbLine
10
-52.218169
20
171.432354
30
0.0
11
-51.411940
21
171.766305
31
0.0
0
LINE
8
Calque 1
62
4
5
26c
100
AcDbEntity
100
AcDbLine
10
-51.411940
20
171.766305
30
0.0
11
-50.611670
21
172.114273
31
0.0
0
LINE
8
Calque 1
62
4
5
26d
100
AcDbEntity
100
AcDbLine
10
-50.611670
20
172.114273
30
0.0
11
-49.817590
21
172.476156
31
0.0
0
LINE
8
Calque 1
62
4
5
26e
100
AcDbEntity
100
AcDbLine
10
-49.817590
20
172.476156
30
0.0
11
-49.029939
21
172.851844
31
0.0
0
LINE
8
Calque 1
62
4
5
26f
100
AcDbEntity
100
AcDbLine
10
-49.029939
20
172.851844
30
0.0
11
-48.248979
21
173.241215
31
0.0
0
LINE
8
Calque 1
62
4
5
270
100
AcDbEntity
100
AcDbLine
10
-48.248979
20
173.241215
30
0.0
11
-47.474920
21
173.644163
31
0.0
0
LINE
8
Calque 1
62
4
5
271
100
AcDbEntity
100
AcDbLine
10
-47.474920
20
173.644163
30
0.0
11
-46.708020
21
174.060554
31
0.0
0
LINE
8
Calque 1
62
4
5
272
100
AcDbEntity
100
AcDbLine
10
-46.708020
20
174.060554
30
0.0
11
-45.948498
21
174.490274
31
0.0
0
LINE
8
Calque 1
62
4
5
273
100
AcDbEntity
100
AcDbLine
10
-45.948498
20
174.490274
30
0.0
11
-45.196599
21
174.933185
31
0.0
0
LINE
8
Calque 1
62
4
5
274
100
AcDbEntity
100
AcDbLine
10
-45.196599
20
174.933185
30
0.0
11
-44.452540
21
175.389143
31
0.0
0
LINE
8
Calque 1
62
4
5
275
100
AcDbEntity
100
AcDbLine
10
-44.452540
20
175.389143
30
0.0
11
-43.716550
21
175.858013
31
0.0
0
LINE
8
Calque 1
62
4
5
276
100
AcDbEntity
100
AcDbLine
10
-43.716550
20
175.858013
30
0.0
11
-42.988859
21
176.339665
31
0.0
0
LINE
8
Calque 1
62
4
5
277
100
AcDbEntity
100
AcDbLine
10
-42.988859
20
176.339665
30
0.0
11
-42.269681
21
176.833943
31
0.0
0
LINE
8
Calque 1
62
4
5
278
100
AcDbEntity
100
AcDbLine
10
-42.269681
20
176.833943
30
0.0
11
-41.559240
21
177.340696
31
0.0
0
LINE
8
Calque 1
62
4
5
279
100
AcDbEntity
100
AcDbLine
10
-41.559240
20
177.340696
30
0.0
11
-40.857749
21
177.859765
31
0.0
0
LINE
8
Calque 1
62
4
5
27a
100
AcDbEntity
100
AcDbLine
10
-40.857749
20
177.859765
30
0.0
11
-40.165429
21
178.391006
31
0.0
0
LINE
8
Calque 1
62
4
5
27b
100
AcDbEntity
100
AcDbLine
10
-40.165429
20
178.391006
30
0.0
11
-39.482480
21
178.934244
31
0.0
0
LINE
8
Calque 1
62
4
5
27c
100
AcDbEntity
100
AcDbLine
10
-39.482480
20
178.934244
30
0.0
11
-38.809120
21
179.489324
31
0.0
0
LINE
8
Calque 1
62
4
5
27d
100
AcDbEntity
100
AcDbLine
10
-38.809120
20
179.489324
30
0.0
11
-38.145551
21
180.056066
31
0.0
0
LINE
8
Calque 1
62
4
5
27e
100
AcDbEntity
100
AcDbLine
10
-38.145551
20
180.056066
30
0.0
11
-37.491969
21
180.634305
31
0.0
0
LINE
8
Calque 1
62
4
5
27f
100
AcDbEntity
100
AcDbLine
10
-37.491969
20
180.634305
30
0.0
11
-36.848582
21
181.223865
31
0.0
0
LINE
8
Calque 1
62
4
5
280
100
AcDbEntity
100
AcDbLine
10
-36.848582
20
181.223865
30
0.0
11
-36.215580
21
181.824555
31
0.0
0
LINE
8
Calque 1
62
4
5
281
100
AcDbEntity
100
AcDbLine
10
-36.215580
20
181.824555
30
0.0
11
-35.593161
21
182.436204
31
0.0
0
LINE
8
Calque 1
62
4
5
282
100
AcDbEntity
100
AcDbLine
10
-35.593161
20
182.436204
30
0.0
11
-34.981509
21
183.058625
31
0.0
0
LINE
8
Calque 1
62
4
5
283
100
AcDbEntity
100
AcDbLine
10
-34.981509
20
183.058625
30
0.0
11
-34.380819
21
183.691624
31
0.0
0
LINE
8
Calque 1
62
4
5
284
100
AcDbEntity
100
AcDbLine
10
-34.380819
20
183.691624
30
0.0
11
-33.791260
21
184.335015
31
0.0
0
LINE
8
Calque 1
62
4
5
285
100
AcDbEntity
100
AcDbLine
10
-33.791260
20
184.335015
30
0.0
11
-33.213020
21
184.988594
31
0.0
0
LINE
8
Calque 1
62
4
5
286
100
AcDbEntity
100
AcDbLine
10
-33.213020
20
184.988594
30
0.0
11
-32.646281
21
185.652166
31
0.0
0
LINE
8
Calque 1
62
4
5
287
100
AcDbEntity
100
AcDbLine
10
-32.646281
20
185.652166
30
0.0
11
-32.091201
21
186.325525
31
0.0
0
LINE
8
Calque 1
62
4
5
288
100
AcDbEntity
100
AcDbLine
10
-32.091201
20
186.325525
30
0.0
11
-31.547960
21
187.008475
31
0.0
0
LINE
8
Calque 1
62
4
5
289
100
AcDbEntity
100
AcDbLine
10
-31.547960
20
187.008475
30
0.0
11
-31.016730
21
187.700794
31
0.0
0
LINE
8
Calque 1
62
4
5
28a
100
AcDbEntity
100
AcDbLine
10
-31.016730
20
187.700794
30
0.0
11
-30.497650
21
188.402283
31
0.0
0
LINE
8
Calque 1
62
4
5
28b
100
AcDbEntity
100
AcDbLine
10
-30.497650
20
188.402283
30
0.0
11
-29.990900
21
189.112724
31
0.0
0
LINE
8
Calque 1
62
4
5
28c
100
AcDbEntity
100
AcDbLine
10
-29.990900
20
189.112724
30
0.0
11
-29.496622
21
189.831899
31
0.0
0
LINE
8
Calque 1
62
4
5
28d
100
AcDbEntity
100
AcDbLine
10
-29.496622
20
189.831899
30
0.0
11
-29.014970
21
190.559593
31
0.0
0
LINE
8
Calque 1
62
4
5
28e
100
AcDbEntity
100
AcDbLine
10
-29.014970
20
190.559593
30
0.0
11
-28.546100
21
191.295583
31
0.0
0
LINE
8
Calque 1
62
4
5
28f
100
AcDbEntity
100
AcDbLine
10
-28.546100
20
191.295583
30
0.0
11
-28.090143
21
192.039642
31
0.0
0
LINE
8
Calque 1
62
4
5
290
100
AcDbEntity
100
AcDbLine
10
-28.090143
20
192.039642
30
0.0
11
-27.647231
21
192.791544
31
0.0
0
LINE
8
Calque 1
62
4
5
291
100
AcDbEntity
100
AcDbLine
10
-27.647231
20
192.791544
30
0.0
11
-27.217520
21
193.551063
31
0.0
0
LINE
8
Calque 1
62
4
5
292
100
AcDbEntity
100
AcDbLine
10
-27.217520
20
193.551063
30
0.0
11
-26.801121
21
194.317966
31
0.0
0
LINE
8
Calque 1
62
4
5
293
100
AcDbEntity
100
AcDbLine
10
-26.801121
20
194.317966
30
0.0
11
-26.398172
21
195.092019
31
0.0
0
LINE
8
Calque 1
62
4
5
294
100
AcDbEntity
100
AcDbLine
10
-26.398172
20
195.092019
30
0.0
11
-26.008802
21
195.872988
31
0.0
0
LINE
8
Calque 1
62
4
5
295
100
AcDbEntity
100
AcDbLine
10
-26.008802
20
195.872988
30
0.0
11
-25.633110
21
196.660633
31
0.0
0
LINE
8
Calque 1
62
4
5
296
100
AcDbEntity
100
AcDbLine
10
-25.633110
20
196.660633
30
0.0
11
-25.271231
21
197.454713
31
0.0
0
LINE
8
Calque 1
62
4
5
297
100
AcDbEntity
100
AcDbLine
10
-25.271231
20
197.454713
30
0.0
11
-24.923262
21
198.254988
31
0.0
0
LINE
8
Calque 1
62
4
5
298
100
AcDbEntity
100
AcDbLine
10
-24.923262
20
198.254988
30
0.0
11
-24.589311
21
199.061215
31
0.0
0
LINE
8
Calque 1
62
4
5
299
100
AcDbEntity
100
AcDbLine
10
-24.589311
20
199.061215
30
0.0
11
-24.269480
21
199.873149
31
0.0
0
LINE
8
Calque 1
62
4
5
29a
100
AcDbEntity
100
AcDbLine
10
-24.269480
20
199.873149
30
0.0
11
-23.963870
21
200.690538
31
0.0
0
LINE
8
Calque 1
62
4
5
29b
100
AcDbEntity
100
AcDbLine
10
-23.963870
20
200.690538
30
0.0
11
-23.672572
21
201.513137
31
0.0
0
LINE
8
Calque 1
62
4
5
29c
100
AcDbEntity
100
AcDbLine
10
-23.672572
20
201.513137
30
0.0
11
-23.395681
21
202.340694
31
0.0
0
LINE
8
Calque 1
62
4
5
29d
100
AcDbEntity
100
AcDbLine
10
-23.395681
20
202.340694
30
0.0
11
-23.133262
21
203.172959
31
0.0
0
LINE
8
Calque 1
62
4
5
29e
100
AcDbEntity
100
AcDbLine
10
-23.133262
20
203.172959
30
0.0
11
-22.885423
21
204.009677
31
0.0
0
LINE
8
Calque 1
62
4
5
29f
100
AcDbEntity
100
AcDbLine
10
-22.885423
20
204.009677
30
0.0
11
-22.652211
21
204.850592
31
0.0
0
LINE
8
Calque 1
62
4
5
2a0
100
AcDbEntity
100
AcDbLine
10
-22.652211
20
204.850592
30
0.0
11
-22.433712
21
205.695450
31
0.0
0
LINE
8
Calque 1
62
4
5
2a1
100
AcDbEntity
100
AcDbLine
10
-22.433712
20
205.695450
30
0.0
11
-22.230001
21
206.543993
31
0.0
0
LINE
8
Calque 1
62
4
5
2a2
100
AcDbEntity
100
AcDbLine
10
-22.230001
20
206.543993
30
0.0
11
-22.041121
21
207.395960
31
0.0
0
LINE
8
Calque 1
62
4
5
2a3
100
AcDbEntity
100
AcDbLine
10
-22.041121
20
207.395960
30
0.0
11
-21.867143
21
208.251096
31
0.0
0
LINE
8
Calque 1
62
4
5
2a4
100
AcDbEntity
100
AcDbLine
10
-21.867143
20
208.251096
30
0.0
11
-21.708110
21
209.109136
31
0.0
0
LINE
8
Calque 1
62
4
5
2a5
100
AcDbEntity
100
AcDbLine
10
-21.708110
20
209.109136
30
0.0
11
-21.564081
21
209.969821
31
0.0
0
LINE
8
Calque 1
62
4
5
2a6
100
AcDbEntity
100
AcDbLine
10
-21.564081
20
209.969821
30
0.0
11
-21.435103
21
210.832890
31
0.0
0
LINE
8
Calque 1
62
4
5
2a7
100
AcDbEntity
100
AcDbLine
10
-21.435103
20
210.832890
30
0.0
11
-21.321192
21
211.698077
31
0.0
0
LINE
8
Calque 1
62
4
5
2a8
100
AcDbEntity
100
AcDbLine
10
-21.321192
20
211.698077
30
0.0
11
-21.222392
21
212.565122
31
0.0
0
LINE
8
Calque 1
62
4
5
2a9
100
AcDbEntity
100
AcDbLine
10
-21.222392
20
212.565122
30
0.0
11
-21.138792
21
213.433757
31
0.0
0
LINE
8
Calque 1
62
4
5
2aa
100
AcDbEntity
100
AcDbLine
10
-21.138792
20
213.433757
30
0.0
11
-21.070291
21
214.303721
31
0.0
0
LINE
8
Calque 1
62
4
5
2ab
100
AcDbEntity
100
AcDbLine
10
-21.070291
20
214.303721
30
0.0
11
-21.016990
21
215.174747
31
0.0
0
LINE
8
Calque 1
62
4
5
2ac
100
AcDbEntity
100
AcDbLine
10
-21.016990
20
215.174747
30
0.0
11
-20.978890
21
216.046571
31
0.0
0
LINE
8
Calque 1
62
4
5
2ad
100
AcDbEntity
100
AcDbLine
10
-20.978890
20
216.046571
30
0.0
11
-20.956087
21
216.918925
31
0.0
0
LINE
8
Calque 1
62
4
5
2ae
100
AcDbEntity
100
AcDbLine
10
-20.956087
20
216.918925
30
0.0
11
-20.948100
21
217.791545
31
0.0
0
LINE
8
Calque 1
62
4
5
2af
100
AcDbEntity
100
AcDbLine
10
-20.948100
20
217.791545
30
0.0
11
-20.956087
21
218.664165
31
0.0
0
LINE
8
Calque 1
62
4
5
2b0
100
AcDbEntity
100
AcDbLine
10
-20.956087
20
218.664165
30
0.0
11
-20.978890
21
219.536519
31
0.0
0
LINE
8
Calque 1
62
4
5
2b1
100
AcDbEntity
100
AcDbLine
10
-20.978890
20
219.536519
30
0.0
11
-21.016990
21
220.408343
31
0.0
0
LINE
8
Calque 1
62
4
5
2b2
100
AcDbEntity
100
AcDbLine
10
-21.016990
20
220.408343
30
0.0
11
-21.070291
21
221.279369
31
0.0
0
LINE
8
Calque 1
62
4
5
2b3
100
AcDbEntity
100
AcDbLine
10
-21.070291
20
221.279369
30
0.0
11
-21.138792
21
222.149333
31
0.0
0
LINE
8
Calque 1
62
4
5
2b4
100
AcDbEntity
100
AcDbLine
10
-21.138792
20
222.149333
30
0.0
11
-21.222392
21
223.017968
31
0.0
0
LINE
8
Calque 1
62
4
5
2b5
100
AcDbEntity
100
AcDbLine
10
-21.222392
20
223.017968
30
0.0
11
-21.321192
21
223.885011
31
0.0
0
LINE
8
Calque 1
62
4
5
2b6
100
AcDbEntity
100
AcDbLine
10
-21.321192
20
223.885011
30
0.0
11
-21.435103
21
224.750200
31
0.0
0
LINE
8
Calque 1
62
4
5
2b7
100
AcDbEntity
100
AcDbLine
10
-21.435103
20
224.750200
30
0.0
11
-21.564081
21
225.613269
31
0.0
0
LINE
8
Calque 1
62
4
5
2b8
100
AcDbEntity
100
AcDbLine
10
-21.564081
20
225.613269
30
0.0
11
-21.708110
21
226.473954
31
0.0
0
LINE
8
Calque 1
62
4
5
2b9
100
AcDbEntity
100
AcDbLine
10
-21.708110
20
226.473954
30
0.0
11
-21.867143
21
227.331994
31
0.0
0
LINE
8
Calque 1
62
4
5
2ba
100
AcDbEntity
100
AcDbLine
10
-21.867143
20
227.331994
30
0.0
11
-22.041121
21
228.187130
31
0.0
0
LINE
8
Calque 1
62
4
5
2bb
100
AcDbEntity
100
AcDbLine
10
-22.041121
20
228.187130
30
0.0
11
-22.230001
21
229.039097
31
0.0
0
LINE
8
Calque 1
62
4
5
2bc
100
AcDbEntity
100
AcDbLine
10
45.432483
20
277.653534
30
0.0
11
-145.985634
21
277.653534
31
0.0
0
LINE
8
Calque 1
62
4
5
2bd
100
AcDbEntity
100
AcDbLine
10
-145.985634
20
277.653534
30
0.0
11
-145.985634
21
37.120304
31
0.0
0
LINE
8
Calque 1
62
4
5
2be
100
AcDbEntity
100
AcDbLine
10
-145.985634
20
37.120304
30
0.0
11
45.432483
21
37.120304
31
0.0
0
LINE
8
Calque 1
62
4
5
2bf
100
AcDbEntity
100
AcDbLine
10
45.432483
20
37.120304
30
0.0
11
45.432483
21
277.653534
31
0.0
0
LINE
8
Calque 1
62
4
5
2c0
100
AcDbEntity
100
AcDbLine
10
-83.448497
20
216.291545
30
0.0
11
-108.448495
21
216.291545
31
0.0
0
LINE
8
Calque 1
62
4
5
2c1
100
AcDbEntity
100
AcDbLine
10
-108.448495
20
216.291545
30
0.0
11
-108.448495
21
219.291545
31
0.0
0
LINE
8
Calque 1
62
4
5
2c2
100
AcDbEntity
100
AcDbLine
10
-108.448495
20
219.291545
30
0.0
11
-83.448497
21
219.291545
31
0.0
0
LINE
8
Calque 1
62
4
5
2c3
100
AcDbEntity
100
AcDbLine
10
-83.448497
20
219.291545
30
0.0
11
-83.448497
21
216.291545
31
0.0
0
LINE
8
Calque 1
62
4
5
2c4
100
AcDbEntity
100
AcDbLine
10
-72.448499
20
255.309803
30
0.0
11
-69.448499
21
255.309803
31
0.0
0
LINE
8
Calque 1
62
4
5
2c5
100
AcDbEntity
100
AcDbLine
10
-69.448499
20
255.309803
30
0.0
11
-69.448499
21
230.309805
31
0.0
0
LINE
8
Calque 1
62
4
5
2c6
100
AcDbEntity
100
AcDbLine
10
-69.448499
20
230.309805
30
0.0
11
-72.448499
21
230.309805
31
0.0
0
LINE
8
Calque 1
62
4
5
2c7
100
AcDbEntity
100
AcDbLine
10
-72.448499
20
230.309805
30
0.0
11
-72.448499
21
255.309803
31
0.0
0
LINE
8
Calque 1
62
4
5
2c8
100
AcDbEntity
100
AcDbLine
10
-58.465339
20
219.291545
30
0.0
11
-33.448501
21
219.291545
31
0.0
0
LINE
8
Calque 1
62
4
5
2c9
100
AcDbEntity
100
AcDbLine
10
-33.448501
20
219.291545
30
0.0
11
-33.448501
21
216.291545
31
0.0
0
LINE
8
Calque 1
62
4
5
2ca
100
AcDbEntity
100
AcDbLine
10
-33.448501
20
216.291545
30
0.0
11
-58.465339
21
216.291545
31
0.0
0
LINE
8
Calque 1
62
4
5
2cb
100
AcDbEntity
100
AcDbLine
10
-58.465339
20
216.291545
30
0.0
11
-58.465339
21
219.291545
31
0.0
0
LINE
8
Calque 1
62
4
5
2cc
100
AcDbEntity
100
AcDbLine
10
-69.448499
20
180.309804
30
0.0
11
-72.448499
21
180.309804
31
0.0
0
LINE
8
Calque 1
62
4
5
2cd
100
AcDbEntity
100
AcDbLine
10
-72.448499
20
180.309804
30
0.0
11
-72.448499
21
205.309804
31
0.0
0
LINE
8
Calque 1
62
4
5
2ce
100
AcDbEntity
100
AcDbLine
10
-72.448499
20
205.309804
30
0.0
11
-69.448499
21
205.309804
31
0.0
0
LINE
8
Calque 1
62
4
5
2cf
100
AcDbEntity
100
AcDbLine
10
-69.448499
20
205.309804
30
0.0
11
-69.448499
21
180.309804
31
0.0
  0
ENDSEC
  0
SECTION
  2
OBJECTS
  0
DICTIONARY
  5
C
330
0
100
AcDbDictionary
  3
ACAD_GROUP
350
D
  3
ACAD_MLINESTYLE
350
17
  0
DICTIONARY
  5
D
330
C
100
AcDbDictionary
  0
DICTIONARY
  5
1A
330
C
100
AcDbDictionary
  0
DICTIONARY
  5
17
330
C
100
AcDbDictionary
  3
STANDARD
350
18
  0
DICTIONARY
  5
19
330
C
100
AcDbDictionary
  0
ENDSEC
  0
EOF
