<?xml version="1.0" standalone="no"?>
<!DOCTYPE svg PUBLIC "-//W3C//DTD SVG 1.1//EN" "http://www.w3.org/Graphics/SVG/1.1/DTD/svg11.dtd">
<svg width="307.9999999999999mm" height="467.9999999999999mm"
 viewBox="0 0 307.9999999999999 467.9999999999999"
 xmlns="http://www.w3.org/2000/svg" version="1.1"
 xmlns:xlink="http://www.w3.org/1999/xlink">
<desc>Output from Flights of Ideas SVG Sketchup Plugin</desc>

  <path id="face0-cut"
 style="fill:none;stroke:#0000FF;stroke-width:1;stroke-miterlimit:4;stroke-dasharray:none;stroke-linejoin:round;stroke-linecap:round"
        d="M 63.88373075900029,205.010164377842 M 63.88373075900029,222.010164377842 M 60.88373075900029,222.010164377842 M 60.88373075900029,242.010164377842 M 63.88373075900029,242.010164377842 M 63.88373075900029,262.010164377842 M 60.88373075900006,262.010164377842 M 60.88373075900029,279.0101643778422 M 110.88373075900006,279.0101643778422 M 110.88373075900006,282.0101643778413 M 160.8837307590003,282.0101643778413 M 160.8837307590003,279.0101643778422 M 210.8837307590005,279.0101643778422 M 210.8837307590005,282.01016437784153 M 257.88373075900006,282.01016437784153 M 257.88373075900006,262.01016437784176 M 260.88373075900006,262.01016437784176 M 260.88373075900006,242.010164377842 M 257.88373075900006,242.010164377842 M 257.88373075900006,222.010164377842 M 260.88373075900006,222.010164377842 M 260.88373075900006,202.0101643778413 M 210.94067366681918,202.01016437784313 M 210.94067366681895,205.010164377842 M 160.91220221290985,205.010164377842 M 160.91220221290962,202.01016437784244 M 110.88373075900029,202.01016437784244 M 110.88373075900029,205.010164377842 M 135.8837307590005,223.510164377842 L 138.88373075900006,223.510164377842 L 138.8837307590003,260.510164377842 L 135.88373075900006,260.510164377842 L 135.8837307590005,223.510164377842 "
  />
  <path id="face1-cut"
 style="fill:none;stroke:#0000FF;stroke-width:1;stroke-miterlimit:4;stroke-dasharray:none;stroke-linejoin:round;stroke-linecap:round"
        d="M 206.38373075900074,439.87495646536024 M 251.8837307590005,439.87495646536024 M 251.8837307590005,355.9239945710375 M 57.883730759000514,355.9239945710375 M 57.883730759000514,439.87495646536024 M 106.38373075900074,439.87495646536024 M 106.38373075900074,436.86851169457793 M 109.38373075900051,436.86851169457793 M 109.38373075900051,439.87495646536024 M 203.3837307590003,439.87495646536024 M 203.3837307590003,436.86851169457793 M 206.38373075900074,436.86851169457793 M 203.3837307590003,387.4056052814086 L 203.3837307590003,366.41786480782787 L 206.38373075900074,366.41786480782787 L 206.38373075900074,387.4056052814086 L 203.3837307590003,387.4056052814086 M 206.38373075900074,429.38108622856987 L 203.3837307590003,429.38108622856987 L 203.3837307590003,408.39334575498935 L 206.38373075900074,408.39334575498935 L 206.38373075900074,429.38108622856987 M 109.38373075900051,366.41786480782787 L 109.38373075900051,387.4056052814086 L 106.38373075900029,387.4056052814086 L 106.38373075900029,366.41786480782787 L 109.38373075900051,366.41786480782787 M 109.38373075900051,408.39334575498935 L 109.38373075900051,429.38108622856987 L 106.38373075900029,429.38108622856987 L 106.38373075900029,408.39334575498935 L 109.38373075900051,408.39334575498935 "
  />
  <path id="face2-cut"
 style="fill:none;stroke:#0000FF;stroke-width:1;stroke-miterlimit:4;stroke-dasharray:none;stroke-linejoin:round;stroke-linecap:round"
        d="M 57.88373075900029,330.8633120309804 M 57.883730759000514,345.8633120309804 M 107.88373075900074,345.8633120309804 M 107.88373075900074,342.8633120309802 M 157.88373075900097,342.8633120309802 M 157.88373075900097,345.8633120309804 M 207.88373075900074,345.8633120309804 M 207.88373075900074,342.8633120309795 M 257.88373075900074,342.8633120309795 M 257.8837307590005,328.6133120309795 M 254.88373075900074,328.6133120309795 M 254.8837307590005,314.3633120309795 M 257.88373075900074,314.3633120309795 M 257.88373075900074,300.1133120309797 M 254.88373075900074,300.1133120309797 M 254.8837307590005,289.8633120309802 M 210.3837307590005,289.8633120309802 M 210.38373075900074,293.86331203097996 M 206.38373075900074,293.86331203097996 M 206.38373075900074,289.8633120309802 M 113.38373075900097,289.8633120309802 M 113.38373075900097,293.86331203097996 M 109.38373075900074,293.86331203097996 M 109.38373075900074,289.8633120309802 M 60.88373075900029,289.8633120309802 M 60.88373075900074,300.8633120309804 M 57.883730759000514,300.8633120309804 M 57.88373075900029,315.86331203097996 M 60.88373075900029,315.86331203097996 M 60.88373075900029,330.8633120309804 M 132.88373075900074,306.11331203098155 L 135.8837307590005,306.11331203098155 L 135.88373075900074,330.61331203098086 L 132.88373075900074,330.61331203098086 L 132.88373075900074,306.11331203098155 "
  />
  <path id="face3-cut"
 style="fill:none;stroke:#0000FF;stroke-width:1;stroke-miterlimit:4;stroke-dasharray:none;stroke-linejoin:round;stroke-linecap:round"
        d="M 63.88373075900029,191.6065903027735 M 260.8837307590003,191.6065903027735 M 260.8837307590003,177.35659030277372 M 257.88373075900074,177.35659030277395 M 257.88373075900074,163.1065903027735 M 260.8837307590003,163.1065903027735 M 260.88373075900006,148.85659030277372 M 257.8837307590003,148.85659030277372 M 257.88373075900074,134.60659030277418 M 210.88373075900006,134.60659030277418 M 210.8837307590005,131.6065903027735 M 160.88373075900074,131.6065903027735 M 160.88373075900074,134.6065903027735 M 110.88373075900051,134.6065903027735 M 110.88373075900051,131.6065903027735 M 60.88373075900029,131.6065903027735 M 60.883730759000514,146.60659030277395 M 63.88373075900029,146.60659030277395 M 63.883730759000514,161.60659030277372 M 60.883730759000514,161.60659030277372 M 60.88373075900029,176.6065903027735 M 63.88373075900029,176.6065903027735 M 138.88373075900074,146.8565903027735 L 138.88373075900074,171.35659030277304 L 135.8837307590003,171.35659030277304 L 135.8837307590005,146.8565903027735 L 138.88373075900074,146.8565903027735 "
  />
  <path id="face4-cut"
 style="fill:none;stroke:#0000FF;stroke-width:1;stroke-miterlimit:4;stroke-dasharray:none;stroke-linejoin:round;stroke-linecap:round"
        d="M 234.21969579750396,119.10384015320653 M 234.21969579750396,102.1038401532063 M 231.21969579750396,102.1038401532063 M 231.21969579750396,82.1038401532063 M 234.21969579750396,82.1038401532063 M 234.21969579750396,62.10384015320619 M 231.2196957975042,62.10384015320619 M 231.2196957975042,45.103840153206306 M 219.21969579750396,45.103840153206306 M 219.21969579750396,42.103840153206306 M 204.21969579750396,42.103840153206306 M 204.21969579750396,45.10384015320619 M 189.21969579750396,45.10384015320619 M 189.21969579750396,42.103840153206306 M 174.21969579750396,42.103840153206306 M 174.21969579750396,116.1038401532063 M 171.2196957975042,116.1038401532063 M 171.2196957975042,125.1038401532063 M 180.21969579750396,125.1038401532063 M 180.21969579750396,122.1038401532063 M 189.21969579750396,122.1038401532063 M 189.21969579750396,119.10384015320653 M 204.21969579750396,119.10384015320653 M 204.21969579750396,122.1038401532063 M 219.21969579750396,122.1038401532063 M 219.21969579750396,119.10384015320653 M 174.21969579750396,122.1038401532063 L 173.88257849041668,121.66450032498608 L 173.67065769182716,121.1528782588831 L 173.5983754539444,120.6038401532063 L 173.67065769182716,120.0548020475295 L 173.88257849041668,119.54317998142653 L 174.21969579750396,119.1038401532063 L 174.6590356257242,118.7667228461188 L 175.17065769182716,118.5548020475295 L 175.71969579750396,118.48251980964676 L 176.26873390318076,118.5548020475295 L 176.78035596928373,118.7667228461188 L 177.21969579750396,119.1038401532063 L 177.55681310459147,119.54317998142653 L 177.76873390318076,120.0548020475295 L 177.8410161410635,120.6038401532063 L 177.76873390318076,121.1528782588831 L 177.55681310459147,121.66450032498608 L 177.21969579750396,122.1038401532063 L 176.78035596928373,122.44095746029359 L 176.26873390318076,122.6528782588831 L 175.71969579750396,122.72516049676585 L 175.17065769182716,122.6528782588831 L 174.6590356257242,122.44095746029359 L 174.21969579750396,122.1038401532063 "
  />
  <path id="face5-cut"
 style="fill:none;stroke:#0000FF;stroke-width:1;stroke-miterlimit:4;stroke-dasharray:none;stroke-linejoin:round;stroke-linecap:round"
        d="M 297.9999999999999,10.0 L 10.0,10.0 L 10.0,457.9999999999999 L 297.9999999999999,457.9999999999999 L 297.9999999999999,10.0 M 251.8837307590005,439.87495646536024 M 206.38373075900074,439.87495646536024 M 206.38373075900074,436.86851169457793 M 203.3837307590003,436.86851169457793 M 203.3837307590003,439.87495646536024 M 109.38373075900051,439.87495646536024 M 109.38373075900051,436.86851169457793 M 106.38373075900074,436.86851169457793 M 106.38373075900074,439.87495646536024 M 57.883730759000514,439.87495646536024 M 57.883730759000514,355.9239945710375 M 251.8837307590005,355.9239945710375 M 57.883730759000514,345.8633120309804 M 57.88373075900029,330.8633120309804 M 60.88373075900029,330.8633120309804 M 60.88373075900029,315.86331203097996 M 57.88373075900029,315.86331203097996 M 57.883730759000514,300.8633120309804 M 60.88373075900074,300.8633120309804 M 60.88373075900029,289.8633120309802 M 109.38373075900074,289.8633120309802 M 109.38373075900074,293.86331203097996 M 113.38373075900097,293.86331203097996 M 113.38373075900097,289.8633120309802 M 206.38373075900074,289.8633120309802 M 206.38373075900074,293.86331203097996 M 210.38373075900074,293.86331203097996 M 210.3837307590005,289.8633120309802 M 254.8837307590005,289.8633120309802 M 254.88373075900074,300.1133120309797 M 257.88373075900074,300.1133120309797 M 257.88373075900074,314.3633120309795 M 254.8837307590005,314.3633120309795 M 254.88373075900074,328.6133120309795 M 257.8837307590005,328.6133120309795 M 257.88373075900074,342.8633120309795 M 207.88373075900074,342.8633120309795 M 207.88373075900074,345.8633120309804 M 157.88373075900097,345.8633120309804 M 157.88373075900097,342.8633120309802 M 107.88373075900074,342.8633120309802 M 107.88373075900074,345.8633120309804 M 260.8837307590003,191.6065903027735 M 63.88373075900029,191.6065903027735 M 63.88373075900029,176.6065903027735 M 60.88373075900029,176.6065903027735 M 60.883730759000514,161.60659030277372 M 63.883730759000514,161.60659030277372 M 63.88373075900029,146.60659030277395 M 60.883730759000514,146.60659030277395 M 60.88373075900029,131.6065903027735 M 110.88373075900051,131.6065903027735 M 110.88373075900051,134.6065903027735 M 160.88373075900074,134.6065903027735 M 160.88373075900074,131.6065903027735 M 210.8837307590005,131.6065903027735 M 210.88373075900006,134.60659030277418 M 257.88373075900074,134.60659030277418 M 257.8837307590003,148.85659030277372 M 260.88373075900006,148.85659030277372 M 260.8837307590003,163.1065903027735 M 257.88373075900074,163.1065903027735 M 257.88373075900074,177.35659030277395 M 260.8837307590003,177.35659030277372 M 63.88373075900029,222.010164377842 M 63.88373075900029,205.010164377842 M 110.88373075900029,205.010164377842 M 110.88373075900029,202.01016437784244 M 160.91220221290962,202.01016437784244 M 160.91220221290985,205.010164377842 M 210.94067366681895,205.010164377842 M 210.94067366681918,202.01016437784313 M 260.88373075900006,202.0101643778413 M 260.88373075900006,222.010164377842 M 257.88373075900006,222.010164377842 M 257.88373075900006,242.010164377842 M 260.88373075900006,242.010164377842 M 260.88373075900006,262.01016437784176 M 257.88373075900006,262.01016437784176 M 257.88373075900006,282.01016437784153 M 210.8837307590005,282.01016437784153 M 210.8837307590005,279.0101643778422 M 160.8837307590003,279.0101643778422 M 160.8837307590003,282.0101643778413 M 110.88373075900006,282.0101643778413 M 110.88373075900006,279.0101643778422 M 60.88373075900029,279.0101643778422 M 60.88373075900006,262.010164377842 M 63.88373075900029,262.010164377842 M 63.88373075900029,242.010164377842 M 60.88373075900029,242.010164377842 M 60.88373075900029,222.010164377842 M 97.85501034926995,79.79024006444763 M 97.85501034926995,99.79024006444763 M 94.85501034927017,99.79024006444763 M 94.85501034927017,116.79024006444763 M 80.60501034926904,116.79024006444763 M 80.60501034926904,119.7902400644474 M 66.35501034926972,119.7902400644474 M 66.35501034926972,116.7902400644474 M 52.105010349269264,116.79024006444763 M 52.105010349269264,119.7902400644474 M 43.855010349270174,119.7902400644474 M 43.855010349270174,122.79024006444718 M 34.855010349270174,122.79024006444695 M 34.855010349270174,113.79024006444695 M 37.855010349269946,113.79024006444695 M 37.855010349269946,42.79024006444729 M 52.105010349269264,42.79024006444729 M 52.105010349269264,39.7902400644474 M 66.35501034926904,39.7902400644474 M 66.35501034926904,42.79024006444729 M 80.60501034926904,42.79024006444729 M 80.60501034926904,39.7902400644474 M 97.85501034926926,39.7902400644474 M 97.85501034926995,59.7902400644474 M 94.85501034927017,59.7902400644474 M 94.85501034927017,79.79024006444763 M 161.2005367344899,42.103840153206306 M 161.2005367344899,60.60384015320619 M 161.2005367344899,97.6038401532063 M 161.2005367344899,116.1038401532063 M 148.95053673449013,116.1038401532063 M 148.95053673449013,119.10384015320676 M 124.45053673449058,119.10384015320676 M 124.45053673449058,116.1038401532063 M 112.20053673449081,116.1038401532063 M 112.20053673449081,42.103840153206306 M 124.45053673449058,42.103840153206306 M 124.45053673449058,39.10384015320665 M 148.95053673449013,39.10384015320665 M 148.95053673449013,42.103840153206306 M 234.21969579750396,102.1038401532063 M 234.21969579750396,119.10384015320653 M 219.21969579750396,119.10384015320653 M 219.21969579750396,122.1038401532063 M 204.21969579750396,122.1038401532063 M 204.21969579750396,119.10384015320653 M 189.21969579750396,119.10384015320653 M 189.21969579750396,122.1038401532063 M 180.21969579750396,122.1038401532063 M 180.21969579750396,125.1038401532063 M 171.2196957975042,125.1038401532063 M 171.2196957975042,116.1038401532063 M 174.21969579750396,116.1038401532063 M 174.21969579750396,42.103840153206306 M 189.21969579750396,42.103840153206306 M 189.21969579750396,45.10384015320619 M 204.21969579750396,45.10384015320619 M 204.21969579750396,42.103840153206306 M 219.21969579750396,42.103840153206306 M 219.21969579750396,45.103840153206306 M 231.2196957975042,45.103840153206306 M 231.2196957975042,62.10384015320619 M 234.21969579750396,62.10384015320619 M 234.21969579750396,82.1038401532063 M 231.21969579750396,82.1038401532063 M 231.21969579750396,102.1038401532063 M 249.20892796403325,123.02313954428234 M 248.0425742316521,123.17669292622065 M 243.54257423165234,123.17669292622065 M 243.54257423165234,120.17024815543857 M 249.5425742316521,120.17024815543857 M 249.5425742316521,117.17024815543857 M 246.5425742316521,117.17024815543857 M 246.5425742316521,112.68282268943028 M 243.5425742316521,112.68282268943028 M 243.5425742316521,91.69508221584977 M 246.5425742316521,91.69508221584977 M 246.5425742316521,70.70734174226902 M 243.5425742316521,70.70734174226902 M 243.5425742316521,49.71960126868851 M 249.54257423165188,49.71960126868851 M 249.54257423165188,109.68282268943028 M 252.54257423165188,109.68282268943028 M 252.54257423165188,118.71920104961544 M 252.39546562049588,119.83660188781971 M 251.945269883901,120.92347054082973 M 251.22911188811497,121.8567858119012 M 250.29579661704327,122.57294380768747 M 263.55008449138165,123.9863898336497 M 262.3837307590005,124.13994321558823 M 257.88373075900074,124.13994321558823 M 257.88373075900074,121.1334984448057 M 263.8837307590005,121.13349844480592 M 263.8837307590005,118.13349844480592 M 260.8837307590005,118.13349844480592 M 260.8837307590005,113.64607297879786 M 257.8837307590005,113.64607297879786 M 257.8837307590005,92.65833250521712 M 260.8837307590005,92.65833250521712 M 260.8837307590005,71.67059203163649 M 257.8837307590005,71.67059203163649 M 257.8837307590005,50.68285155805586 M 263.8837307590003,50.68285155805586 M 263.8837307590003,110.64607297879763 M 266.8837307590003,110.64607297879763 M 266.8837307590003,119.68245133898279 M 266.7366221478443,120.79985217718706 M 266.2864264112494,121.88672083019708 M 265.5702684154634,122.82003610126878 M 264.63695314439167,123.53619409705482 M 40.245754391060586,27.916965566607587 M 40.245754391060586,24.916965566607587 M 240.2457543910608,24.916965566607587 M 240.2457543910608,27.916965566607587 "
  />
  <path id="face6-cut"
 style="fill:none;stroke:#0000FF;stroke-width:1;stroke-miterlimit:4;stroke-dasharray:none;stroke-linejoin:round;stroke-linecap:round"
        d="M 161.2005367344899,60.60384015320619 M 161.2005367344899,42.103840153206306 M 148.95053673449013,42.103840153206306 M 148.95053673449013,39.10384015320665 M 124.45053673449058,39.10384015320665 M 124.45053673449058,42.103840153206306 M 112.20053673449081,42.103840153206306 M 112.20053673449081,116.1038401532063 M 124.45053673449058,116.1038401532063 M 124.45053673449058,119.10384015320676 M 148.95053673449013,119.10384015320676 M 148.95053673449013,116.1038401532063 M 161.2005367344899,116.1038401532063 M 161.2005367344899,97.6038401532063 "
  />
  <path id="face7-cut"
 style="fill:none;stroke:#0000FF;stroke-width:1;stroke-miterlimit:4;stroke-dasharray:none;stroke-linejoin:round;stroke-linecap:round"
        d="M 97.85501034926995,99.79024006444763 M 97.85501034926995,79.79024006444763 M 94.85501034927017,79.79024006444763 M 94.85501034927017,59.7902400644474 M 97.85501034926995,59.7902400644474 M 97.85501034926926,39.7902400644474 M 80.60501034926904,39.7902400644474 M 80.60501034926904,42.79024006444729 M 66.35501034926904,42.79024006444729 M 66.35501034926904,39.7902400644474 M 52.105010349269264,39.7902400644474 M 52.105010349269264,42.79024006444729 M 37.855010349269946,42.79024006444729 M 37.855010349269946,113.79024006444695 M 34.855010349270174,113.79024006444695 M 34.855010349270174,122.79024006444695 M 43.855010349270174,122.79024006444718 M 43.855010349270174,119.7902400644474 M 52.105010349269264,119.7902400644474 M 52.105010349269264,116.79024006444763 M 66.35501034926972,116.7902400644474 M 66.35501034926972,119.7902400644474 M 80.60501034926904,119.7902400644474 M 80.60501034926904,116.79024006444763 M 94.85501034927017,116.79024006444763 M 94.85501034927017,99.79024006444763 M 38.8059722435936,120.33927817012398 L 38.29435017749017,120.12735737153469 L 37.855010349269946,119.7902400644474 L 37.51789304218266,119.35090023622718 L 37.305972243593374,118.83927817012375 L 37.2336900057104,118.29024006444718 L 37.305972243593374,117.7412019587706 L 37.51789304218266,117.2295798926674 L 37.855010349269946,116.79024006444718 L 38.29435017749017,116.45312275735989 L 38.8059722435936,116.2412019587706 L 39.355010349270174,116.16891972088763 L 39.90404845494675,116.2412019587706 L 40.41567052104995,116.45312275735989 L 40.855010349270174,116.79024006444718 L 41.19212765635746,117.2295798926674 L 41.40404845494675,117.7412019587706 L 41.47633069282972,118.29024006444718 L 41.40404845494675,118.83927817012375 L 41.19212765635746,119.35090023622718 L 40.855010349270174,119.7902400644474 L 40.41567052104995,120.12735737153469 L 39.90404845494675,120.33927817012398 L 39.355010349270174,120.41156040800695 L 38.8059722435936,120.33927817012398 "
  />
  <path id="face8-cut"
 style="fill:none;stroke:#0000FF;stroke-width:1;stroke-miterlimit:4;stroke-dasharray:none;stroke-linejoin:round;stroke-linecap:round"
        d="M 248.0425742316521,123.17669292622065 M 249.20892796403325,123.02313954428234 M 250.29579661704327,122.57294380768747 M 251.22911188811497,121.8567858119012 M 251.945269883901,120.92347054082973 M 252.39546562049588,119.83660188781971 M 252.54257423165188,118.71920104961544 M 252.54257423165188,109.68282268943028 M 249.54257423165188,109.68282268943028 M 249.54257423165188,49.71960126868851 M 243.5425742316521,49.71960126868851 M 243.5425742316521,70.70734174226902 M 246.5425742316521,70.70734174226902 M 246.5425742316521,91.69508221584977 M 243.5425742316521,91.69508221584977 M 243.5425742316521,112.68282268943028 M 246.5425742316521,112.68282268943028 M 246.5425742316521,117.17024815543857 M 249.5425742316521,117.17024815543857 M 249.5425742316521,120.17024815543857 M 243.54257423165234,120.17024815543857 M 243.54257423165234,123.17669292622065 "
  />
  <path id="face9-cut"
 style="fill:none;stroke:#0000FF;stroke-width:1;stroke-miterlimit:4;stroke-dasharray:none;stroke-linejoin:round;stroke-linecap:round"
        d="M 262.3837307590005,124.13994321558823 M 263.55008449138165,123.9863898336497 M 264.63695314439167,123.53619409705482 M 265.5702684154634,122.82003610126878 M 266.2864264112494,121.88672083019708 M 266.7366221478443,120.79985217718706 M 266.8837307590003,119.68245133898279 M 266.8837307590003,110.64607297879763 M 263.8837307590003,110.64607297879763 M 263.8837307590003,50.68285155805586 M 257.8837307590005,50.68285155805586 M 257.8837307590005,71.67059203163649 M 260.8837307590005,71.67059203163649 M 260.8837307590005,92.65833250521712 M 257.8837307590005,92.65833250521712 M 257.8837307590005,113.64607297879786 M 260.8837307590005,113.64607297879786 M 260.8837307590005,118.13349844480592 M 263.8837307590005,118.13349844480592 M 263.8837307590005,121.13349844480592 M 257.88373075900074,121.1334984448057 M 257.88373075900074,124.13994321558823 "
  />
  <path id="face10-cut"
 style="fill:none;stroke:#0000FF;stroke-width:1;stroke-miterlimit:4;stroke-dasharray:none;stroke-linejoin:round;stroke-linecap:round"
        d="M 40.245754391060586,24.916965566607587 M 40.245754391060586,27.916965566607587 M 240.2457543910608,27.916965566607587 M 240.2457543910608,24.916965566607587 "
  />
  <path id="face0-interior"
 style="fill:none;stroke:#FF0000;stroke-width:1;stroke-miterlimit:4;stroke-dasharray:none;stroke-linejoin:round;stroke-linecap:round"
        d="M 63.88373075900029,205.010164377842 L 63.88373075900029,222.010164377842 L 60.88373075900029,222.010164377842 L 60.88373075900029,242.010164377842 L 63.88373075900029,242.010164377842 L 63.88373075900029,262.010164377842 L 60.88373075900006,262.010164377842 L 60.88373075900029,279.0101643778422 L 110.88373075900006,279.0101643778422 L 110.88373075900006,282.0101643778413 L 160.8837307590003,282.0101643778413 L 160.8837307590003,279.0101643778422 L 210.8837307590005,279.0101643778422 L 210.8837307590005,282.01016437784153 L 257.88373075900006,282.01016437784153 L 257.88373075900006,262.01016437784176 L 260.88373075900006,262.01016437784176 L 260.88373075900006,242.010164377842 L 257.88373075900006,242.010164377842 L 257.88373075900006,222.010164377842 L 260.88373075900006,222.010164377842 L 260.88373075900006,202.0101643778413 L 210.94067366681918,202.01016437784313 L 210.94067366681895,205.010164377842 L 160.91220221290985,205.010164377842 L 160.91220221290962,202.01016437784244 L 110.88373075900029,202.01016437784244 L 110.88373075900029,205.010164377842 L 63.88373075900029,205.010164377842 M 135.8837307590005,223.510164377842 M 138.88373075900006,223.510164377842 M 138.8837307590003,260.510164377842 M 135.88373075900006,260.510164377842 "
  />
  <path id="face1-interior"
 style="fill:none;stroke:#FF0000;stroke-width:1;stroke-miterlimit:4;stroke-dasharray:none;stroke-linejoin:round;stroke-linecap:round"
        d="M 206.38373075900074,439.87495646536024 L 251.8837307590005,439.87495646536024 L 251.8837307590005,355.9239945710375 L 57.883730759000514,355.9239945710375 L 57.883730759000514,439.87495646536024 L 106.38373075900074,439.87495646536024 L 106.38373075900074,436.86851169457793 L 109.38373075900051,436.86851169457793 L 109.38373075900051,439.87495646536024 L 203.3837307590003,439.87495646536024 L 203.3837307590003,436.86851169457793 L 206.38373075900074,436.86851169457793 L 206.38373075900074,439.87495646536024 M 203.3837307590003,387.4056052814086 M 203.3837307590003,366.41786480782787 M 206.38373075900074,366.41786480782787 M 206.38373075900074,387.4056052814086 M 206.38373075900074,429.38108622856987 M 203.3837307590003,429.38108622856987 M 203.3837307590003,408.39334575498935 M 206.38373075900074,408.39334575498935 M 109.38373075900051,366.41786480782787 M 109.38373075900051,387.4056052814086 M 106.38373075900029,387.4056052814086 M 106.38373075900029,366.41786480782787 M 109.38373075900051,408.39334575498935 M 109.38373075900051,429.38108622856987 M 106.38373075900029,429.38108622856987 M 106.38373075900029,408.39334575498935 "
  />
  <path id="face2-interior"
 style="fill:none;stroke:#FF0000;stroke-width:1;stroke-miterlimit:4;stroke-dasharray:none;stroke-linejoin:round;stroke-linecap:round"
        d="M 57.88373075900029,330.8633120309804 L 57.883730759000514,345.8633120309804 L 107.88373075900074,345.8633120309804 L 107.88373075900074,342.8633120309802 L 157.88373075900097,342.8633120309802 L 157.88373075900097,345.8633120309804 L 207.88373075900074,345.8633120309804 L 207.88373075900074,342.8633120309795 L 257.88373075900074,342.8633120309795 L 257.8837307590005,328.6133120309795 L 254.88373075900074,328.6133120309795 L 254.8837307590005,314.3633120309795 L 257.88373075900074,314.3633120309795 L 257.88373075900074,300.1133120309797 L 254.88373075900074,300.1133120309797 L 254.8837307590005,289.8633120309802 L 210.3837307590005,289.8633120309802 L 210.38373075900074,293.86331203097996 L 206.38373075900074,293.86331203097996 L 206.38373075900074,289.8633120309802 L 113.38373075900097,289.8633120309802 L 113.38373075900097,293.86331203097996 L 109.38373075900074,293.86331203097996 L 109.38373075900074,289.8633120309802 L 60.88373075900029,289.8633120309802 L 60.88373075900074,300.8633120309804 L 57.883730759000514,300.8633120309804 L 57.88373075900029,315.86331203097996 L 60.88373075900029,315.86331203097996 L 60.88373075900029,330.8633120309804 L 57.88373075900029,330.8633120309804 M 132.88373075900074,306.11331203098155 M 135.8837307590005,306.11331203098155 M 135.88373075900074,330.61331203098086 M 132.88373075900074,330.61331203098086 "
  />
  <path id="face3-interior"
 style="fill:none;stroke:#FF0000;stroke-width:1;stroke-miterlimit:4;stroke-dasharray:none;stroke-linejoin:round;stroke-linecap:round"
        d="M 63.88373075900029,191.6065903027735 L 260.8837307590003,191.6065903027735 L 260.8837307590003,177.35659030277372 L 257.88373075900074,177.35659030277395 L 257.88373075900074,163.1065903027735 L 260.8837307590003,163.1065903027735 L 260.88373075900006,148.85659030277372 L 257.8837307590003,148.85659030277372 L 257.88373075900074,134.60659030277418 L 210.88373075900006,134.60659030277418 L 210.8837307590005,131.6065903027735 L 160.88373075900074,131.6065903027735 L 160.88373075900074,134.6065903027735 L 110.88373075900051,134.6065903027735 L 110.88373075900051,131.6065903027735 L 60.88373075900029,131.6065903027735 L 60.883730759000514,146.60659030277395 L 63.88373075900029,146.60659030277395 L 63.883730759000514,161.60659030277372 L 60.883730759000514,161.60659030277372 L 60.88373075900029,176.6065903027735 L 63.88373075900029,176.6065903027735 L 63.88373075900029,191.6065903027735 M 138.88373075900074,146.8565903027735 M 138.88373075900074,171.35659030277304 M 135.8837307590003,171.35659030277304 M 135.8837307590005,146.8565903027735 "
  />
  <path id="face4-interior"
 style="fill:none;stroke:#FF0000;stroke-width:1;stroke-miterlimit:4;stroke-dasharray:none;stroke-linejoin:round;stroke-linecap:round"
        d="M 234.21969579750396,119.10384015320653 L 234.21969579750396,102.1038401532063 L 231.21969579750396,102.1038401532063 L 231.21969579750396,82.1038401532063 L 234.21969579750396,82.1038401532063 L 234.21969579750396,62.10384015320619 L 231.2196957975042,62.10384015320619 L 231.2196957975042,45.103840153206306 L 219.21969579750396,45.103840153206306 L 219.21969579750396,42.103840153206306 L 204.21969579750396,42.103840153206306 L 204.21969579750396,45.10384015320619 L 189.21969579750396,45.10384015320619 L 189.21969579750396,42.103840153206306 L 174.21969579750396,42.103840153206306 L 174.21969579750396,116.1038401532063 L 171.2196957975042,116.1038401532063 L 171.2196957975042,125.1038401532063 L 180.21969579750396,125.1038401532063 L 180.21969579750396,122.1038401532063 L 189.21969579750396,122.1038401532063 L 189.21969579750396,119.10384015320653 L 204.21969579750396,119.10384015320653 L 204.21969579750396,122.1038401532063 L 219.21969579750396,122.1038401532063 L 219.21969579750396,119.10384015320653 L 234.21969579750396,119.10384015320653 M 174.21969579750396,122.1038401532063 M 173.88257849041668,121.66450032498608 M 173.67065769182716,121.1528782588831 M 173.5983754539444,120.6038401532063 M 173.67065769182716,120.0548020475295 M 173.88257849041668,119.54317998142653 M 174.21969579750396,119.1038401532063 M 174.6590356257242,118.7667228461188 M 175.17065769182716,118.5548020475295 M 175.71969579750396,118.48251980964676 M 176.26873390318076,118.5548020475295 M 176.78035596928373,118.7667228461188 M 177.21969579750396,119.1038401532063 M 177.55681310459147,119.54317998142653 M 177.76873390318076,120.0548020475295 M 177.8410161410635,120.6038401532063 M 177.76873390318076,121.1528782588831 M 177.55681310459147,121.66450032498608 M 177.21969579750396,122.1038401532063 M 176.78035596928373,122.44095746029359 M 176.26873390318076,122.6528782588831 M 175.71969579750396,122.72516049676585 M 175.17065769182716,122.6528782588831 M 174.6590356257242,122.44095746029359 "
  />
  <path id="face5-interior"
 style="fill:none;stroke:#FF0000;stroke-width:1;stroke-miterlimit:4;stroke-dasharray:none;stroke-linejoin:round;stroke-linecap:round"
        d="M 297.9999999999999,10.0 M 10.0,10.0 M 10.0,457.9999999999999 M 297.9999999999999,457.9999999999999 M 251.8837307590005,439.87495646536024 M 206.38373075900074,439.87495646536024 M 206.38373075900074,436.86851169457793 M 203.3837307590003,436.86851169457793 M 203.3837307590003,439.87495646536024 M 109.38373075900051,439.87495646536024 M 109.38373075900051,436.86851169457793 M 106.38373075900074,436.86851169457793 M 106.38373075900074,439.87495646536024 M 57.883730759000514,439.87495646536024 M 57.883730759000514,355.9239945710375 M 251.8837307590005,355.9239945710375 M 57.883730759000514,345.8633120309804 M 57.88373075900029,330.8633120309804 M 60.88373075900029,330.8633120309804 M 60.88373075900029,315.86331203097996 M 57.88373075900029,315.86331203097996 M 57.883730759000514,300.8633120309804 M 60.88373075900074,300.8633120309804 M 60.88373075900029,289.8633120309802 M 109.38373075900074,289.8633120309802 M 109.38373075900074,293.86331203097996 M 113.38373075900097,293.86331203097996 M 113.38373075900097,289.8633120309802 M 206.38373075900074,289.8633120309802 M 206.38373075900074,293.86331203097996 M 210.38373075900074,293.86331203097996 M 210.3837307590005,289.8633120309802 M 254.8837307590005,289.8633120309802 M 254.88373075900074,300.1133120309797 M 257.88373075900074,300.1133120309797 M 257.88373075900074,314.3633120309795 M 254.8837307590005,314.3633120309795 M 254.88373075900074,328.6133120309795 M 257.8837307590005,328.6133120309795 M 257.88373075900074,342.8633120309795 M 207.88373075900074,342.8633120309795 M 207.88373075900074,345.8633120309804 M 157.88373075900097,345.8633120309804 M 157.88373075900097,342.8633120309802 M 107.88373075900074,342.8633120309802 M 107.88373075900074,345.8633120309804 M 260.8837307590003,191.6065903027735 M 63.88373075900029,191.6065903027735 M 63.88373075900029,176.6065903027735 M 60.88373075900029,176.6065903027735 M 60.883730759000514,161.60659030277372 M 63.883730759000514,161.60659030277372 M 63.88373075900029,146.60659030277395 M 60.883730759000514,146.60659030277395 M 60.88373075900029,131.6065903027735 M 110.88373075900051,131.6065903027735 M 110.88373075900051,134.6065903027735 M 160.88373075900074,134.6065903027735 M 160.88373075900074,131.6065903027735 M 210.8837307590005,131.6065903027735 M 210.88373075900006,134.60659030277418 M 257.88373075900074,134.60659030277418 M 257.8837307590003,148.85659030277372 M 260.88373075900006,148.85659030277372 M 260.8837307590003,163.1065903027735 M 257.88373075900074,163.1065903027735 M 257.88373075900074,177.35659030277395 M 260.8837307590003,177.35659030277372 M 63.88373075900029,222.010164377842 M 63.88373075900029,205.010164377842 M 110.88373075900029,205.010164377842 M 110.88373075900029,202.01016437784244 M 160.91220221290962,202.01016437784244 M 160.91220221290985,205.010164377842 M 210.94067366681895,205.010164377842 M 210.94067366681918,202.01016437784313 M 260.88373075900006,202.0101643778413 M 260.88373075900006,222.010164377842 M 257.88373075900006,222.010164377842 M 257.88373075900006,242.010164377842 M 260.88373075900006,242.010164377842 M 260.88373075900006,262.01016437784176 M 257.88373075900006,262.01016437784176 M 257.88373075900006,282.01016437784153 M 210.8837307590005,282.01016437784153 M 210.8837307590005,279.0101643778422 M 160.8837307590003,279.0101643778422 M 160.8837307590003,282.0101643778413 M 110.88373075900006,282.0101643778413 M 110.88373075900006,279.0101643778422 M 60.88373075900029,279.0101643778422 M 60.88373075900006,262.010164377842 M 63.88373075900029,262.010164377842 M 63.88373075900029,242.010164377842 M 60.88373075900029,242.010164377842 M 60.88373075900029,222.010164377842 M 97.85501034926995,79.79024006444763 L 97.85501034926995,99.79024006444763 L 94.85501034927017,99.79024006444763 L 94.85501034927017,116.79024006444763 L 80.60501034926904,116.79024006444763 L 80.60501034926904,119.7902400644474 L 66.35501034926972,119.7902400644474 L 66.35501034926972,116.7902400644474 L 52.105010349269264,116.79024006444763 L 52.105010349269264,119.7902400644474 L 43.855010349270174,119.7902400644474 L 43.855010349270174,122.79024006444718 L 34.855010349270174,122.79024006444695 L 34.855010349270174,113.79024006444695 L 37.855010349269946,113.79024006444695 L 37.855010349269946,42.79024006444729 L 52.105010349269264,42.79024006444729 L 52.105010349269264,39.7902400644474 L 66.35501034926904,39.7902400644474 L 66.35501034926904,42.79024006444729 L 80.60501034926904,42.79024006444729 L 80.60501034926904,39.7902400644474 L 97.85501034926926,39.7902400644474 L 97.85501034926995,59.7902400644474 L 94.85501034927017,59.7902400644474 L 94.85501034927017,79.79024006444763 L 97.85501034926995,79.79024006444763 M 161.2005367344899,42.103840153206306 L 161.2005367344899,60.60384015320619 L 161.2005367344899,97.6038401532063 L 161.2005367344899,116.1038401532063 L 148.95053673449013,116.1038401532063 L 148.95053673449013,119.10384015320676 L 124.45053673449058,119.10384015320676 L 124.45053673449058,116.1038401532063 L 112.20053673449081,116.1038401532063 L 112.20053673449081,42.103840153206306 L 124.45053673449058,42.103840153206306 L 124.45053673449058,39.10384015320665 L 148.95053673449013,39.10384015320665 L 148.95053673449013,42.103840153206306 L 161.2005367344899,42.103840153206306 M 234.21969579750396,102.1038401532063 M 234.21969579750396,119.10384015320653 M 219.21969579750396,119.10384015320653 M 219.21969579750396,122.1038401532063 M 204.21969579750396,122.1038401532063 M 204.21969579750396,119.10384015320653 M 189.21969579750396,119.10384015320653 M 189.21969579750396,122.1038401532063 M 180.21969579750396,122.1038401532063 M 180.21969579750396,125.1038401532063 M 171.2196957975042,125.1038401532063 M 171.2196957975042,116.1038401532063 M 174.21969579750396,116.1038401532063 M 174.21969579750396,42.103840153206306 M 189.21969579750396,42.103840153206306 M 189.21969579750396,45.10384015320619 M 204.21969579750396,45.10384015320619 M 204.21969579750396,42.103840153206306 M 219.21969579750396,42.103840153206306 M 219.21969579750396,45.103840153206306 M 231.2196957975042,45.103840153206306 M 231.2196957975042,62.10384015320619 M 234.21969579750396,62.10384015320619 M 234.21969579750396,82.1038401532063 M 231.21969579750396,82.1038401532063 M 231.21969579750396,102.1038401532063 M 249.20892796403325,123.02313954428234 L 248.0425742316521,123.17669292622065 L 243.54257423165234,123.17669292622065 L 243.54257423165234,120.17024815543857 L 249.5425742316521,120.17024815543857 L 249.5425742316521,117.17024815543857 L 246.5425742316521,117.17024815543857 L 246.5425742316521,112.68282268943028 L 243.5425742316521,112.68282268943028 L 243.5425742316521,91.69508221584977 L 246.5425742316521,91.69508221584977 L 246.5425742316521,70.70734174226902 L 243.5425742316521,70.70734174226902 L 243.5425742316521,49.71960126868851 L 249.54257423165188,49.71960126868851 L 249.54257423165188,109.68282268943028 L 252.54257423165188,109.68282268943028 L 252.54257423165188,118.71920104961544 L 252.39546562049588,119.83660188781971 L 251.945269883901,120.92347054082973 L 251.22911188811497,121.8567858119012 L 250.29579661704327,122.57294380768747 L 249.20892796403325,123.02313954428234 M 263.55008449138165,123.9863898336497 L 262.3837307590005,124.13994321558823 L 257.88373075900074,124.13994321558823 L 257.88373075900074,121.1334984448057 L 263.8837307590005,121.13349844480592 L 263.8837307590005,118.13349844480592 L 260.8837307590005,118.13349844480592 L 260.8837307590005,113.64607297879786 L 257.8837307590005,113.64607297879786 L 257.8837307590005,92.65833250521712 L 260.8837307590005,92.65833250521712 L 260.8837307590005,71.67059203163649 L 257.8837307590005,71.67059203163649 L 257.8837307590005,50.68285155805586 L 263.8837307590003,50.68285155805586 L 263.8837307590003,110.64607297879763 L 266.8837307590003,110.64607297879763 L 266.8837307590003,119.68245133898279 L 266.7366221478443,120.79985217718706 L 266.2864264112494,121.88672083019708 L 265.5702684154634,122.82003610126878 L 264.63695314439167,123.53619409705482 L 263.55008449138165,123.9863898336497 M 40.245754391060586,27.916965566607587 L 40.245754391060586,24.916965566607587 L 240.2457543910608,24.916965566607587 L 240.2457543910608,27.916965566607587 L 40.245754391060586,27.916965566607587 "
  />
  <path id="face6-interior"
 style="fill:none;stroke:#FF0000;stroke-width:1;stroke-miterlimit:4;stroke-dasharray:none;stroke-linejoin:round;stroke-linecap:round"
        d="M 161.2005367344899,60.60384015320619 M 161.2005367344899,42.103840153206306 M 148.95053673449013,42.103840153206306 M 148.95053673449013,39.10384015320665 M 124.45053673449058,39.10384015320665 M 124.45053673449058,42.103840153206306 M 112.20053673449081,42.103840153206306 M 112.20053673449081,116.1038401532063 M 124.45053673449058,116.1038401532063 M 124.45053673449058,119.10384015320676 M 148.95053673449013,119.10384015320676 M 148.95053673449013,116.1038401532063 M 161.2005367344899,116.1038401532063 M 161.2005367344899,97.6038401532063 "
  />
  <path id="face7-interior"
 style="fill:none;stroke:#FF0000;stroke-width:1;stroke-miterlimit:4;stroke-dasharray:none;stroke-linejoin:round;stroke-linecap:round"
        d="M 97.85501034926995,99.79024006444763 M 97.85501034926995,79.79024006444763 M 94.85501034927017,79.79024006444763 M 94.85501034927017,59.7902400644474 M 97.85501034926995,59.7902400644474 M 97.85501034926926,39.7902400644474 M 80.60501034926904,39.7902400644474 M 80.60501034926904,42.79024006444729 M 66.35501034926904,42.79024006444729 M 66.35501034926904,39.7902400644474 M 52.105010349269264,39.7902400644474 M 52.105010349269264,42.79024006444729 M 37.855010349269946,42.79024006444729 M 37.855010349269946,113.79024006444695 M 34.855010349270174,113.79024006444695 M 34.855010349270174,122.79024006444695 M 43.855010349270174,122.79024006444718 M 43.855010349270174,119.7902400644474 M 52.105010349269264,119.7902400644474 M 52.105010349269264,116.79024006444763 M 66.35501034926972,116.7902400644474 M 66.35501034926972,119.7902400644474 M 80.60501034926904,119.7902400644474 M 80.60501034926904,116.79024006444763 M 94.85501034927017,116.79024006444763 M 94.85501034927017,99.79024006444763 M 38.8059722435936,120.33927817012398 M 38.29435017749017,120.12735737153469 M 37.855010349269946,119.7902400644474 M 37.51789304218266,119.35090023622718 M 37.305972243593374,118.83927817012375 M 37.2336900057104,118.29024006444718 M 37.305972243593374,117.7412019587706 M 37.51789304218266,117.2295798926674 M 37.855010349269946,116.79024006444718 M 38.29435017749017,116.45312275735989 M 38.8059722435936,116.2412019587706 M 39.355010349270174,116.16891972088763 M 39.90404845494675,116.2412019587706 M 40.41567052104995,116.45312275735989 M 40.855010349270174,116.79024006444718 M 41.19212765635746,117.2295798926674 M 41.40404845494675,117.7412019587706 M 41.47633069282972,118.29024006444718 M 41.40404845494675,118.83927817012375 M 41.19212765635746,119.35090023622718 M 40.855010349270174,119.7902400644474 M 40.41567052104995,120.12735737153469 M 39.90404845494675,120.33927817012398 M 39.355010349270174,120.41156040800695 "
  />
  <path id="face8-interior"
 style="fill:none;stroke:#FF0000;stroke-width:1;stroke-miterlimit:4;stroke-dasharray:none;stroke-linejoin:round;stroke-linecap:round"
        d="M 248.0425742316521,123.17669292622065 M 249.20892796403325,123.02313954428234 M 250.29579661704327,122.57294380768747 M 251.22911188811497,121.8567858119012 M 251.945269883901,120.92347054082973 M 252.39546562049588,119.83660188781971 M 252.54257423165188,118.71920104961544 M 252.54257423165188,109.68282268943028 M 249.54257423165188,109.68282268943028 M 249.54257423165188,49.71960126868851 M 243.5425742316521,49.71960126868851 M 243.5425742316521,70.70734174226902 M 246.5425742316521,70.70734174226902 M 246.5425742316521,91.69508221584977 M 243.5425742316521,91.69508221584977 M 243.5425742316521,112.68282268943028 M 246.5425742316521,112.68282268943028 M 246.5425742316521,117.17024815543857 M 249.5425742316521,117.17024815543857 M 249.5425742316521,120.17024815543857 M 243.54257423165234,120.17024815543857 M 243.54257423165234,123.17669292622065 "
  />
  <path id="face9-interior"
 style="fill:none;stroke:#FF0000;stroke-width:1;stroke-miterlimit:4;stroke-dasharray:none;stroke-linejoin:round;stroke-linecap:round"
        d="M 262.3837307590005,124.13994321558823 M 263.55008449138165,123.9863898336497 M 264.63695314439167,123.53619409705482 M 265.5702684154634,122.82003610126878 M 266.2864264112494,121.88672083019708 M 266.7366221478443,120.79985217718706 M 266.8837307590003,119.68245133898279 M 266.8837307590003,110.64607297879763 M 263.8837307590003,110.64607297879763 M 263.8837307590003,50.68285155805586 M 257.8837307590005,50.68285155805586 M 257.8837307590005,71.67059203163649 M 260.8837307590005,71.67059203163649 M 260.8837307590005,92.65833250521712 M 257.8837307590005,92.65833250521712 M 257.8837307590005,113.64607297879786 M 260.8837307590005,113.64607297879786 M 260.8837307590005,118.13349844480592 M 263.8837307590005,118.13349844480592 M 263.8837307590005,121.13349844480592 M 257.88373075900074,121.1334984448057 M 257.88373075900074,124.13994321558823 "
  />
  <path id="face10-interior"
 style="fill:none;stroke:#FF0000;stroke-width:1;stroke-miterlimit:4;stroke-dasharray:none;stroke-linejoin:round;stroke-linecap:round"
        d="M 40.245754391060586,24.916965566607587 M 40.245754391060586,27.916965566607587 M 240.2457543910608,27.916965566607587 M 240.2457543910608,24.916965566607587 "
  />
  <path id="face0-interior"
 style="fill:none;stroke:#00FF00;stroke-width:1;stroke-miterlimit:4;stroke-dasharray:none;stroke-linejoin:round;stroke-linecap:round"
        d="M 63.88373075900029,205.010164377842 M 63.88373075900029,222.010164377842 M 60.88373075900029,222.010164377842 M 60.88373075900029,242.010164377842 M 63.88373075900029,242.010164377842 M 63.88373075900029,262.010164377842 M 60.88373075900006,262.010164377842 M 60.88373075900029,279.0101643778422 M 110.88373075900006,279.0101643778422 M 110.88373075900006,282.0101643778413 M 160.8837307590003,282.0101643778413 M 160.8837307590003,279.0101643778422 M 210.8837307590005,279.0101643778422 M 210.8837307590005,282.01016437784153 M 257.88373075900006,282.01016437784153 M 257.88373075900006,262.01016437784176 M 260.88373075900006,262.01016437784176 M 260.88373075900006,242.010164377842 M 257.88373075900006,242.010164377842 M 257.88373075900006,222.010164377842 M 260.88373075900006,222.010164377842 M 260.88373075900006,202.0101643778413 M 210.94067366681918,202.01016437784313 M 210.94067366681895,205.010164377842 M 160.91220221290985,205.010164377842 M 160.91220221290962,202.01016437784244 M 110.88373075900029,202.01016437784244 M 110.88373075900029,205.010164377842 M 135.8837307590005,223.510164377842 M 138.88373075900006,223.510164377842 M 138.8837307590003,260.510164377842 M 135.88373075900006,260.510164377842 "
  />
  <path id="face1-interior"
 style="fill:none;stroke:#00FF00;stroke-width:1;stroke-miterlimit:4;stroke-dasharray:none;stroke-linejoin:round;stroke-linecap:round"
        d="M 206.38373075900074,439.87495646536024 M 251.8837307590005,439.87495646536024 M 251.8837307590005,355.9239945710375 M 57.883730759000514,355.9239945710375 M 57.883730759000514,439.87495646536024 M 106.38373075900074,439.87495646536024 M 106.38373075900074,436.86851169457793 M 109.38373075900051,436.86851169457793 M 109.38373075900051,439.87495646536024 M 203.3837307590003,439.87495646536024 M 203.3837307590003,436.86851169457793 M 206.38373075900074,436.86851169457793 M 203.3837307590003,387.4056052814086 M 203.3837307590003,366.41786480782787 M 206.38373075900074,366.41786480782787 M 206.38373075900074,387.4056052814086 M 206.38373075900074,429.38108622856987 M 203.3837307590003,429.38108622856987 M 203.3837307590003,408.39334575498935 M 206.38373075900074,408.39334575498935 M 109.38373075900051,366.41786480782787 M 109.38373075900051,387.4056052814086 M 106.38373075900029,387.4056052814086 M 106.38373075900029,366.41786480782787 M 109.38373075900051,408.39334575498935 M 109.38373075900051,429.38108622856987 M 106.38373075900029,429.38108622856987 M 106.38373075900029,408.39334575498935 "
  />
  <path id="face2-interior"
 style="fill:none;stroke:#00FF00;stroke-width:1;stroke-miterlimit:4;stroke-dasharray:none;stroke-linejoin:round;stroke-linecap:round"
        d="M 57.88373075900029,330.8633120309804 M 57.883730759000514,345.8633120309804 M 107.88373075900074,345.8633120309804 M 107.88373075900074,342.8633120309802 M 157.88373075900097,342.8633120309802 M 157.88373075900097,345.8633120309804 M 207.88373075900074,345.8633120309804 M 207.88373075900074,342.8633120309795 M 257.88373075900074,342.8633120309795 M 257.8837307590005,328.6133120309795 M 254.88373075900074,328.6133120309795 M 254.8837307590005,314.3633120309795 M 257.88373075900074,314.3633120309795 M 257.88373075900074,300.1133120309797 M 254.88373075900074,300.1133120309797 M 254.8837307590005,289.8633120309802 M 210.3837307590005,289.8633120309802 M 210.38373075900074,293.86331203097996 M 206.38373075900074,293.86331203097996 M 206.38373075900074,289.8633120309802 M 113.38373075900097,289.8633120309802 M 113.38373075900097,293.86331203097996 M 109.38373075900074,293.86331203097996 M 109.38373075900074,289.8633120309802 M 60.88373075900029,289.8633120309802 M 60.88373075900074,300.8633120309804 M 57.883730759000514,300.8633120309804 M 57.88373075900029,315.86331203097996 M 60.88373075900029,315.86331203097996 M 60.88373075900029,330.8633120309804 M 132.88373075900074,306.11331203098155 M 135.8837307590005,306.11331203098155 M 135.88373075900074,330.61331203098086 M 132.88373075900074,330.61331203098086 "
  />
  <path id="face3-interior"
 style="fill:none;stroke:#00FF00;stroke-width:1;stroke-miterlimit:4;stroke-dasharray:none;stroke-linejoin:round;stroke-linecap:round"
        d="M 63.88373075900029,191.6065903027735 M 260.8837307590003,191.6065903027735 M 260.8837307590003,177.35659030277372 M 257.88373075900074,177.35659030277395 M 257.88373075900074,163.1065903027735 M 260.8837307590003,163.1065903027735 M 260.88373075900006,148.85659030277372 M 257.8837307590003,148.85659030277372 M 257.88373075900074,134.60659030277418 M 210.88373075900006,134.60659030277418 M 210.8837307590005,131.6065903027735 M 160.88373075900074,131.6065903027735 M 160.88373075900074,134.6065903027735 M 110.88373075900051,134.6065903027735 M 110.88373075900051,131.6065903027735 M 60.88373075900029,131.6065903027735 M 60.883730759000514,146.60659030277395 M 63.88373075900029,146.60659030277395 M 63.883730759000514,161.60659030277372 M 60.883730759000514,161.60659030277372 M 60.88373075900029,176.6065903027735 M 63.88373075900029,176.6065903027735 M 138.88373075900074,146.8565903027735 M 138.88373075900074,171.35659030277304 M 135.8837307590003,171.35659030277304 M 135.8837307590005,146.8565903027735 "
  />
  <path id="face4-interior"
 style="fill:none;stroke:#00FF00;stroke-width:1;stroke-miterlimit:4;stroke-dasharray:none;stroke-linejoin:round;stroke-linecap:round"
        d="M 234.21969579750396,119.10384015320653 M 234.21969579750396,102.1038401532063 M 231.21969579750396,102.1038401532063 M 231.21969579750396,82.1038401532063 M 234.21969579750396,82.1038401532063 M 234.21969579750396,62.10384015320619 M 231.2196957975042,62.10384015320619 M 231.2196957975042,45.103840153206306 M 219.21969579750396,45.103840153206306 M 219.21969579750396,42.103840153206306 M 204.21969579750396,42.103840153206306 M 204.21969579750396,45.10384015320619 M 189.21969579750396,45.10384015320619 M 189.21969579750396,42.103840153206306 M 174.21969579750396,42.103840153206306 M 174.21969579750396,116.1038401532063 M 171.2196957975042,116.1038401532063 M 171.2196957975042,125.1038401532063 M 180.21969579750396,125.1038401532063 M 180.21969579750396,122.1038401532063 M 189.21969579750396,122.1038401532063 M 189.21969579750396,119.10384015320653 M 204.21969579750396,119.10384015320653 M 204.21969579750396,122.1038401532063 M 219.21969579750396,122.1038401532063 M 219.21969579750396,119.10384015320653 M 174.21969579750396,122.1038401532063 M 173.88257849041668,121.66450032498608 M 173.67065769182716,121.1528782588831 M 173.5983754539444,120.6038401532063 M 173.67065769182716,120.0548020475295 M 173.88257849041668,119.54317998142653 M 174.21969579750396,119.1038401532063 M 174.6590356257242,118.7667228461188 M 175.17065769182716,118.5548020475295 M 175.71969579750396,118.48251980964676 M 176.26873390318076,118.5548020475295 M 176.78035596928373,118.7667228461188 M 177.21969579750396,119.1038401532063 M 177.55681310459147,119.54317998142653 M 177.76873390318076,120.0548020475295 M 177.8410161410635,120.6038401532063 M 177.76873390318076,121.1528782588831 M 177.55681310459147,121.66450032498608 M 177.21969579750396,122.1038401532063 M 176.78035596928373,122.44095746029359 M 176.26873390318076,122.6528782588831 M 175.71969579750396,122.72516049676585 M 175.17065769182716,122.6528782588831 M 174.6590356257242,122.44095746029359 "
  />
  <path id="face5-interior"
 style="fill:none;stroke:#00FF00;stroke-width:1;stroke-miterlimit:4;stroke-dasharray:none;stroke-linejoin:round;stroke-linecap:round"
        d="M 297.9999999999999,10.0 M 10.0,10.0 M 10.0,457.9999999999999 M 297.9999999999999,457.9999999999999 M 251.8837307590005,439.87495646536024 M 206.38373075900074,439.87495646536024 M 206.38373075900074,436.86851169457793 M 203.3837307590003,436.86851169457793 M 203.3837307590003,439.87495646536024 M 109.38373075900051,439.87495646536024 M 109.38373075900051,436.86851169457793 M 106.38373075900074,436.86851169457793 M 106.38373075900074,439.87495646536024 M 57.883730759000514,439.87495646536024 M 57.883730759000514,355.9239945710375 M 251.8837307590005,355.9239945710375 M 57.883730759000514,345.8633120309804 M 57.88373075900029,330.8633120309804 M 60.88373075900029,330.8633120309804 M 60.88373075900029,315.86331203097996 M 57.88373075900029,315.86331203097996 M 57.883730759000514,300.8633120309804 M 60.88373075900074,300.8633120309804 M 60.88373075900029,289.8633120309802 M 109.38373075900074,289.8633120309802 M 109.38373075900074,293.86331203097996 M 113.38373075900097,293.86331203097996 M 113.38373075900097,289.8633120309802 M 206.38373075900074,289.8633120309802 M 206.38373075900074,293.86331203097996 M 210.38373075900074,293.86331203097996 M 210.3837307590005,289.8633120309802 M 254.8837307590005,289.8633120309802 M 254.88373075900074,300.1133120309797 M 257.88373075900074,300.1133120309797 M 257.88373075900074,314.3633120309795 M 254.8837307590005,314.3633120309795 M 254.88373075900074,328.6133120309795 M 257.8837307590005,328.6133120309795 M 257.88373075900074,342.8633120309795 M 207.88373075900074,342.8633120309795 M 207.88373075900074,345.8633120309804 M 157.88373075900097,345.8633120309804 M 157.88373075900097,342.8633120309802 M 107.88373075900074,342.8633120309802 M 107.88373075900074,345.8633120309804 M 260.8837307590003,191.6065903027735 M 63.88373075900029,191.6065903027735 M 63.88373075900029,176.6065903027735 M 60.88373075900029,176.6065903027735 M 60.883730759000514,161.60659030277372 M 63.883730759000514,161.60659030277372 M 63.88373075900029,146.60659030277395 M 60.883730759000514,146.60659030277395 M 60.88373075900029,131.6065903027735 M 110.88373075900051,131.6065903027735 M 110.88373075900051,134.6065903027735 M 160.88373075900074,134.6065903027735 M 160.88373075900074,131.6065903027735 M 210.8837307590005,131.6065903027735 M 210.88373075900006,134.60659030277418 M 257.88373075900074,134.60659030277418 M 257.8837307590003,148.85659030277372 M 260.88373075900006,148.85659030277372 M 260.8837307590003,163.1065903027735 M 257.88373075900074,163.1065903027735 M 257.88373075900074,177.35659030277395 M 260.8837307590003,177.35659030277372 M 63.88373075900029,222.010164377842 M 63.88373075900029,205.010164377842 M 110.88373075900029,205.010164377842 M 110.88373075900029,202.01016437784244 M 160.91220221290962,202.01016437784244 M 160.91220221290985,205.010164377842 M 210.94067366681895,205.010164377842 M 210.94067366681918,202.01016437784313 M 260.88373075900006,202.0101643778413 M 260.88373075900006,222.010164377842 M 257.88373075900006,222.010164377842 M 257.88373075900006,242.010164377842 M 260.88373075900006,242.010164377842 M 260.88373075900006,262.01016437784176 M 257.88373075900006,262.01016437784176 M 257.88373075900006,282.01016437784153 M 210.8837307590005,282.01016437784153 M 210.8837307590005,279.0101643778422 M 160.8837307590003,279.0101643778422 M 160.8837307590003,282.0101643778413 M 110.88373075900006,282.0101643778413 M 110.88373075900006,279.0101643778422 M 60.88373075900029,279.0101643778422 M 60.88373075900006,262.010164377842 M 63.88373075900029,262.010164377842 M 63.88373075900029,242.010164377842 M 60.88373075900029,242.010164377842 M 60.88373075900029,222.010164377842 M 97.85501034926995,79.79024006444763 M 97.85501034926995,99.79024006444763 M 94.85501034927017,99.79024006444763 M 94.85501034927017,116.79024006444763 M 80.60501034926904,116.79024006444763 M 80.60501034926904,119.7902400644474 M 66.35501034926972,119.7902400644474 M 66.35501034926972,116.7902400644474 M 52.105010349269264,116.79024006444763 M 52.105010349269264,119.7902400644474 M 43.855010349270174,119.7902400644474 M 43.855010349270174,122.79024006444718 M 34.855010349270174,122.79024006444695 M 34.855010349270174,113.79024006444695 M 37.855010349269946,113.79024006444695 M 37.855010349269946,42.79024006444729 M 52.105010349269264,42.79024006444729 M 52.105010349269264,39.7902400644474 M 66.35501034926904,39.7902400644474 M 66.35501034926904,42.79024006444729 M 80.60501034926904,42.79024006444729 M 80.60501034926904,39.7902400644474 M 97.85501034926926,39.7902400644474 M 97.85501034926995,59.7902400644474 M 94.85501034927017,59.7902400644474 M 94.85501034927017,79.79024006444763 M 161.2005367344899,42.103840153206306 M 161.2005367344899,60.60384015320619 M 161.2005367344899,97.6038401532063 M 161.2005367344899,116.1038401532063 M 148.95053673449013,116.1038401532063 M 148.95053673449013,119.10384015320676 M 124.45053673449058,119.10384015320676 M 124.45053673449058,116.1038401532063 M 112.20053673449081,116.1038401532063 M 112.20053673449081,42.103840153206306 M 124.45053673449058,42.103840153206306 M 124.45053673449058,39.10384015320665 M 148.95053673449013,39.10384015320665 M 148.95053673449013,42.103840153206306 M 234.21969579750396,102.1038401532063 M 234.21969579750396,119.10384015320653 M 219.21969579750396,119.10384015320653 M 219.21969579750396,122.1038401532063 M 204.21969579750396,122.1038401532063 M 204.21969579750396,119.10384015320653 M 189.21969579750396,119.10384015320653 M 189.21969579750396,122.1038401532063 M 180.21969579750396,122.1038401532063 M 180.21969579750396,125.1038401532063 M 171.2196957975042,125.1038401532063 M 171.2196957975042,116.1038401532063 M 174.21969579750396,116.1038401532063 M 174.21969579750396,42.103840153206306 M 189.21969579750396,42.103840153206306 M 189.21969579750396,45.10384015320619 M 204.21969579750396,45.10384015320619 M 204.21969579750396,42.103840153206306 M 219.21969579750396,42.103840153206306 M 219.21969579750396,45.103840153206306 M 231.2196957975042,45.103840153206306 M 231.2196957975042,62.10384015320619 M 234.21969579750396,62.10384015320619 M 234.21969579750396,82.1038401532063 M 231.21969579750396,82.1038401532063 M 231.21969579750396,102.1038401532063 M 249.20892796403325,123.02313954428234 M 248.0425742316521,123.17669292622065 M 243.54257423165234,123.17669292622065 M 243.54257423165234,120.17024815543857 M 249.5425742316521,120.17024815543857 M 249.5425742316521,117.17024815543857 M 246.5425742316521,117.17024815543857 M 246.5425742316521,112.68282268943028 M 243.5425742316521,112.68282268943028 M 243.5425742316521,91.69508221584977 M 246.5425742316521,91.69508221584977 M 246.5425742316521,70.70734174226902 M 243.5425742316521,70.70734174226902 M 243.5425742316521,49.71960126868851 M 249.54257423165188,49.71960126868851 M 249.54257423165188,109.68282268943028 M 252.54257423165188,109.68282268943028 M 252.54257423165188,118.71920104961544 M 252.39546562049588,119.83660188781971 M 251.945269883901,120.92347054082973 M 251.22911188811497,121.8567858119012 M 250.29579661704327,122.57294380768747 M 263.55008449138165,123.9863898336497 M 262.3837307590005,124.13994321558823 M 257.88373075900074,124.13994321558823 M 257.88373075900074,121.1334984448057 M 263.8837307590005,121.13349844480592 M 263.8837307590005,118.13349844480592 M 260.8837307590005,118.13349844480592 M 260.8837307590005,113.64607297879786 M 257.8837307590005,113.64607297879786 M 257.8837307590005,92.65833250521712 M 260.8837307590005,92.65833250521712 M 260.8837307590005,71.67059203163649 M 257.8837307590005,71.67059203163649 M 257.8837307590005,50.68285155805586 M 263.8837307590003,50.68285155805586 M 263.8837307590003,110.64607297879763 M 266.8837307590003,110.64607297879763 M 266.8837307590003,119.68245133898279 M 266.7366221478443,120.79985217718706 M 266.2864264112494,121.88672083019708 M 265.5702684154634,122.82003610126878 M 264.63695314439167,123.53619409705482 M 40.245754391060586,27.916965566607587 M 40.245754391060586,24.916965566607587 M 240.2457543910608,24.916965566607587 M 240.2457543910608,27.916965566607587 "
  />
  <path id="face6-interior"
 style="fill:none;stroke:#00FF00;stroke-width:1;stroke-miterlimit:4;stroke-dasharray:none;stroke-linejoin:round;stroke-linecap:round"
        d="M 161.2005367344899,60.60384015320619 M 161.2005367344899,42.103840153206306 M 148.95053673449013,42.103840153206306 M 148.95053673449013,39.10384015320665 M 124.45053673449058,39.10384015320665 M 124.45053673449058,42.103840153206306 M 112.20053673449081,42.103840153206306 M 112.20053673449081,116.1038401532063 M 124.45053673449058,116.1038401532063 M 124.45053673449058,119.10384015320676 M 148.95053673449013,119.10384015320676 M 148.95053673449013,116.1038401532063 M 161.2005367344899,116.1038401532063 M 161.2005367344899,97.6038401532063 "
  />
  <path id="face7-interior"
 style="fill:none;stroke:#00FF00;stroke-width:1;stroke-miterlimit:4;stroke-dasharray:none;stroke-linejoin:round;stroke-linecap:round"
        d="M 97.85501034926995,99.79024006444763 M 97.85501034926995,79.79024006444763 M 94.85501034927017,79.79024006444763 M 94.85501034927017,59.7902400644474 M 97.85501034926995,59.7902400644474 M 97.85501034926926,39.7902400644474 M 80.60501034926904,39.7902400644474 M 80.60501034926904,42.79024006444729 M 66.35501034926904,42.79024006444729 M 66.35501034926904,39.7902400644474 M 52.105010349269264,39.7902400644474 M 52.105010349269264,42.79024006444729 M 37.855010349269946,42.79024006444729 M 37.855010349269946,113.79024006444695 M 34.855010349270174,113.79024006444695 M 34.855010349270174,122.79024006444695 M 43.855010349270174,122.79024006444718 M 43.855010349270174,119.7902400644474 M 52.105010349269264,119.7902400644474 M 52.105010349269264,116.79024006444763 M 66.35501034926972,116.7902400644474 M 66.35501034926972,119.7902400644474 M 80.60501034926904,119.7902400644474 M 80.60501034926904,116.79024006444763 M 94.85501034927017,116.79024006444763 M 94.85501034927017,99.79024006444763 M 38.8059722435936,120.33927817012398 M 38.29435017749017,120.12735737153469 M 37.855010349269946,119.7902400644474 M 37.51789304218266,119.35090023622718 M 37.305972243593374,118.83927817012375 M 37.2336900057104,118.29024006444718 M 37.305972243593374,117.7412019587706 M 37.51789304218266,117.2295798926674 M 37.855010349269946,116.79024006444718 M 38.29435017749017,116.45312275735989 M 38.8059722435936,116.2412019587706 M 39.355010349270174,116.16891972088763 M 39.90404845494675,116.2412019587706 M 40.41567052104995,116.45312275735989 M 40.855010349270174,116.79024006444718 M 41.19212765635746,117.2295798926674 M 41.40404845494675,117.7412019587706 M 41.47633069282972,118.29024006444718 M 41.40404845494675,118.83927817012375 M 41.19212765635746,119.35090023622718 M 40.855010349270174,119.7902400644474 M 40.41567052104995,120.12735737153469 M 39.90404845494675,120.33927817012398 M 39.355010349270174,120.41156040800695 "
  />
  <path id="face8-interior"
 style="fill:none;stroke:#00FF00;stroke-width:1;stroke-miterlimit:4;stroke-dasharray:none;stroke-linejoin:round;stroke-linecap:round"
        d="M 248.0425742316521,123.17669292622065 M 249.20892796403325,123.02313954428234 M 250.29579661704327,122.57294380768747 M 251.22911188811497,121.8567858119012 M 251.945269883901,120.92347054082973 M 252.39546562049588,119.83660188781971 M 252.54257423165188,118.71920104961544 M 252.54257423165188,109.68282268943028 M 249.54257423165188,109.68282268943028 M 249.54257423165188,49.71960126868851 M 243.5425742316521,49.71960126868851 M 243.5425742316521,70.70734174226902 M 246.5425742316521,70.70734174226902 M 246.5425742316521,91.69508221584977 M 243.5425742316521,91.69508221584977 M 243.5425742316521,112.68282268943028 M 246.5425742316521,112.68282268943028 M 246.5425742316521,117.17024815543857 M 249.5425742316521,117.17024815543857 M 249.5425742316521,120.17024815543857 M 243.54257423165234,120.17024815543857 M 243.54257423165234,123.17669292622065 "
  />
  <path id="face9-interior"
 style="fill:none;stroke:#00FF00;stroke-width:1;stroke-miterlimit:4;stroke-dasharray:none;stroke-linejoin:round;stroke-linecap:round"
        d="M 262.3837307590005,124.13994321558823 M 263.55008449138165,123.9863898336497 M 264.63695314439167,123.53619409705482 M 265.5702684154634,122.82003610126878 M 266.2864264112494,121.88672083019708 M 266.7366221478443,120.79985217718706 M 266.8837307590003,119.68245133898279 M 266.8837307590003,110.64607297879763 M 263.8837307590003,110.64607297879763 M 263.8837307590003,50.68285155805586 M 257.8837307590005,50.68285155805586 M 257.8837307590005,71.67059203163649 M 260.8837307590005,71.67059203163649 M 260.8837307590005,92.65833250521712 M 257.8837307590005,92.65833250521712 M 257.8837307590005,113.64607297879786 M 260.8837307590005,113.64607297879786 M 260.8837307590005,118.13349844480592 M 263.8837307590005,118.13349844480592 M 263.8837307590005,121.13349844480592 M 257.88373075900074,121.1334984448057 M 257.88373075900074,124.13994321558823 "
  />
  <path id="face10-interior"
 style="fill:none;stroke:#00FF00;stroke-width:1;stroke-miterlimit:4;stroke-dasharray:none;stroke-linejoin:round;stroke-linecap:round"
        d="M 40.245754391060586,24.916965566607587 M 40.245754391060586,27.916965566607587 M 240.2457543910608,27.916965566607587 M 240.2457543910608,24.916965566607587 "
  />
</svg>
