<?xml version="1.0" standalone="no"?>
<!DOCTYPE svg PUBLIC "-//W3C//DTD SVG 1.1//EN" "http://www.w3.org/Graphics/SVG/1.1/DTD/svg11.dtd">
<svg width="500.99999999999994mm" height="322.0000000000002mm"
 viewBox="0 0 500.99999999999994 322.0000000000002"
 xmlns="http://www.w3.org/2000/svg" version="1.1"
 xmlns:xlink="http://www.w3.org/1999/xlink">
<desc>Output from Flights of Ideas SVG Sketchup Plugin</desc>

  <path id="face0-cut"
 style="fill:none;stroke:#0000FF;stroke-width:1;stroke-miterlimit:4;stroke-dasharray:none;stroke-linejoin:round;stroke-linecap:round"
        d="M 407.6111065885472,267.37362420770387 M 410.61110658854585,267.37362420770387 M 410.61110658854585,248.12362420770478 M 407.6111065885472,248.12362420770455 M 407.6111065885472,228.8736242077032 M 410.61110658854585,228.8736242077032 M 410.61110658854585,209.62362420770546 M 383.36797792209717,209.62362420770523 M 383.36797792209717,206.62362420770387 M 334.8679779220993,206.62362420770387 M 334.8679779220993,209.62362420770523 M 310.6111065885456,209.62362420770546 M 310.6111065885456,228.8736242077032 M 307.6111065885463,228.8736242077032 M 307.6111065885463,248.12362420770478 M 310.6111065885456,248.12362420770478 M 310.6111065885456,267.37362420770387 M 307.61110658854597,267.37362420770387 M 307.61110658854597,286.62362420770387 M 407.6111065885472,286.62362420770387 "
  />
  <path id="face1-cut"
 style="fill:none;stroke:#0000FF;stroke-width:1;stroke-miterlimit:4;stroke-dasharray:none;stroke-linejoin:round;stroke-linecap:round"
        d="M 226.3219401817302,95.51816724044943 M 226.3219401817302,57.51816724044966 M 226.11749513946455,55.96525296983441 M 225.51809260443684,54.51816724044966 M 224.56458086884953,53.27552655333034 M 223.3219401817302,52.32201481774291 M 221.87485445234535,51.72261228271532 M 220.3219401817301,51.51816724044943 M 26.321940181730213,51.51816724044943 M 26.321940181730213,201.51816724044966 M 76.32194018173021,201.51816724044943 M 76.32194018173021,101.51816724044943 M 220.3219401817301,101.51816724044943 M 221.87485445234535,101.313722198184 M 223.3219401817301,100.71431966315618 M 224.56458086884953,99.76080792756898 M 225.51809260443684,98.51816724044943 M 226.11749513946455,97.07108151106468 M 73.3219401817301,122.76816724044943 L 73.3219401817301,171.26816724044943 L 70.32194018173033,171.26816724044943 L 70.32194018173033,122.76816724044943 L 73.3219401817301,122.76816724044943 M 110.07194018173033,95.51816724044943 L 183.5719401817302,95.51816724044943 L 183.5719401817302,98.51816724044943 L 110.07194018173033,98.51816724044943 L 110.07194018173033,95.51816724044943 M 220.3219401817301,67.01816724044943 L 223.3219401817302,67.0181672404492 L 223.3219401817301,86.01816724044943 L 220.3219401817301,86.01816724044943 L 220.3219401817301,67.01816724044943 M 79.32194018173021,54.51816724044966 L 173.3219401817301,54.51816724044966 L 173.3219401817301,57.51816724044966 L 79.32194018173021,57.51816724044966 L 79.32194018173021,54.51816724044966 M 32.32194018173038,161.01816724044943 L 29.321940181730213,161.01816724044943 L 29.321940181730213,92.01816724044943 L 32.32194018173027,92.01816724044943 L 32.32194018173038,161.01816724044943 M 60.82194018173027,198.51816724044966 L 41.82194018173027,198.5181672404492 L 41.82194018173027,195.5181672404492 L 60.82194018173027,195.5181672404492 L 60.82194018173027,198.51816724044966 "
  />
  <path id="face2-cut"
 style="fill:none;stroke:#0000FF;stroke-width:1;stroke-miterlimit:4;stroke-dasharray:none;stroke-linejoin:round;stroke-linecap:round"
        d="M 87.14566467431638,191.7433046842325 M 237.14566467431695,191.7433046842325 M 237.14566467431695,172.49330468423432 M 240.1456646743166,172.49330468423432 M 240.1456646743166,153.2433046842325 M 237.14566467431672,153.2433046842325 M 237.14566467431672,133.99330468423318 M 240.1456646743166,133.99330468423318 M 240.1456646743166,114.74330468423318 M 200.39566467431638,114.74330452956201 M 200.39566467431638,111.74330453254402 M 126.89566467431649,111.74330453254379 M 126.89566467431649,114.74330452956201 M 90.1456646743166,114.74330468423318 M 90.1456646743166,133.99330468423318 M 87.14566467431649,133.99330468423318 M 87.14566467431649,153.2433046842325 M 90.1456646743166,153.2433046842325 M 90.1456646743166,172.49330468423432 M 87.14566467431638,172.4933046842341 "
  />
  <path id="face3-cut"
 style="fill:none;stroke:#0000FF;stroke-width:1;stroke-miterlimit:4;stroke-dasharray:none;stroke-linejoin:round;stroke-linecap:round"
        d="M 490.99999999999994,10.0 L 10.0,10.0 L 10.0,312.0000000000002 L 490.99999999999994,312.0000000000002 L 490.99999999999994,10.0 M 226.3219401817302,57.51816724044966 M 226.3219401817302,95.51816724044943 M 226.11749513946455,97.07108151106468 M 225.51809260443684,98.51816724044943 M 224.56458086884953,99.76080792756898 M 223.3219401817301,100.71431966315618 M 221.87485445234535,101.313722198184 M 220.3219401817301,101.51816724044943 M 76.32194018173021,101.51816724044943 M 76.32194018173021,201.51816724044943 M 26.321940181730213,201.51816724044966 M 26.321940181730213,51.51816724044943 M 220.3219401817301,51.51816724044943 M 221.87485445234535,51.72261228271532 M 223.3219401817302,52.32201481774291 M 224.56458086884953,53.27552655333034 M 225.51809260443684,54.51816724044966 M 226.11749513946455,55.96525296983441 M 237.14566467431695,191.7433046842325 M 87.14566467431638,191.7433046842325 M 87.14566467431638,172.4933046842341 M 90.1456646743166,172.49330468423432 M 90.1456646743166,153.2433046842325 M 87.14566467431649,153.2433046842325 M 87.14566467431649,133.99330468423318 M 90.1456646743166,133.99330468423318 M 90.1456646743166,114.74330468423318 M 126.89566467431649,114.74330452956201 M 126.89566467431649,111.74330453254379 M 200.39566467431638,111.74330453254402 M 200.39566467431638,114.74330452956201 M 240.1456646743166,114.74330468423318 M 240.1456646743166,133.99330468423318 M 237.14566467431672,133.99330468423318 M 237.14566467431672,153.2433046842325 M 240.1456646743166,153.2433046842325 M 240.1456646743166,172.49330468423432 M 237.14566467431695,172.49330468423432 M 455.6522104038541,191.7433046842325 M 264.65221040385455,191.7433046842325 M 264.65221040385455,172.49330468423432 M 261.65221040385455,172.49330468423432 M 261.65221040385455,153.2433046842325 M 264.65221040385455,153.2433046842325 M 264.65221040385455,133.99330468423318 M 261.65221040385455,133.99330468423318 M 261.65221040385455,114.74330468423318 M 311.65221040385455,114.74330452956224 M 311.65221040385455,111.74330453254402 M 405.65221040385444,111.74330453254402 M 405.65221040385444,114.74330452956224 M 452.65221040385444,114.74330468423318 M 452.65221040385444,133.99330468423318 M 455.65221040385444,133.99330468423318 M 455.65221040385444,153.2433046842325 M 452.65221040385444,153.2433046842325 M 452.65221040385444,172.49330468423432 M 455.6522104038541,172.49330468423432 M 455.6522104038541,286.6236242077034 M 414.652210403854,286.6236242077034 M 414.652210403854,267.37362420770387 M 417.65221040385364,267.37362420770387 M 417.65221040385364,248.12362420770478 M 414.6522104038533,248.12362420770455 M 414.6522104038533,228.8736242077032 M 417.65221040385364,228.8736242077032 M 417.65221040385364,209.62362420770546 M 427.15908173740644,209.62362420770523 M 427.15908173740644,206.62362420770387 M 446.15908173740564,206.6236242077041 M 446.15908173740564,209.62362420770523 M 458.65221040385444,209.62362420770523 M 458.65221040385444,228.8736242077032 M 455.6522104038541,228.8736242077032 M 455.6522104038541,248.12362420770478 M 458.65221040385444,248.12362420770478 M 458.65221040385444,267.37362420770387 M 455.6522104038541,267.37362420770387 M 410.61110658854585,267.37362420770387 M 407.6111065885472,267.37362420770387 M 407.6111065885472,286.62362420770387 M 307.61110658854597,286.62362420770387 M 307.61110658854597,267.37362420770387 M 310.6111065885456,267.37362420770387 M 310.6111065885456,248.12362420770478 M 307.6111065885463,248.12362420770478 M 307.6111065885463,228.8736242077032 M 310.6111065885456,228.8736242077032 M 310.6111065885456,209.62362420770546 M 334.8679779220993,209.62362420770523 M 334.8679779220993,206.62362420770387 M 383.36797792209717,206.62362420770387 M 383.36797792209717,209.62362420770523 M 410.61110658854585,209.62362420770546 M 410.61110658854585,228.8736242077032 M 407.6111065885472,228.8736242077032 M 407.6111065885472,248.12362420770455 M 410.61110658854585,248.12362420770478 M 295.088942972556,286.6236242077034 M 154.08894297255648,286.6236242077041 M 154.08894297255648,267.37362420770387 M 151.08894297255557,267.37362420770387 M 151.08894297255557,248.12362420770478 M 154.08894297255648,248.12362420770478 M 154.08894297255648,228.8736242077032 M 151.08894297255557,228.87362420770296 M 151.08894297255557,209.62362420770523 M 188.5958143061079,209.62362420770523 M 188.5958143061079,206.6236242077041 M 257.5958143061077,206.6236242077041 M 257.5958143061077,209.62362420770523 M 292.088942972556,209.62362420770523 M 292.088942972556,228.87362420770387 M 295.08894297255546,228.8736242077032 M 295.08894297255546,248.12362420770455 M 292.088942972556,248.1236242077041 M 292.088942972556,267.37362420770387 M 295.088942972556,267.37362420770387 "
  />
  <path id="face4-cut"
 style="fill:none;stroke:#0000FF;stroke-width:1;stroke-miterlimit:4;stroke-dasharray:none;stroke-linejoin:round;stroke-linecap:round"
        d="M 154.08894297255648,286.6236242077041 M 295.088942972556,286.6236242077034 M 295.088942972556,267.37362420770387 M 292.088942972556,267.37362420770387 M 292.088942972556,248.1236242077041 M 295.08894297255546,248.12362420770455 M 295.08894297255546,228.8736242077032 M 292.088942972556,228.87362420770387 M 292.088942972556,209.62362420770523 M 257.5958143061077,209.62362420770523 M 257.5958143061077,206.6236242077041 M 188.5958143061079,206.6236242077041 M 188.5958143061079,209.62362420770523 M 151.08894297255557,209.62362420770523 M 151.08894297255557,228.87362420770296 M 154.08894297255648,228.8736242077032 M 154.08894297255648,248.12362420770478 M 151.08894297255557,248.12362420770478 M 151.08894297255557,267.37362420770387 M 154.08894297255648,267.37362420770387 "
  />
  <path id="face5-cut"
 style="fill:none;stroke:#0000FF;stroke-width:1;stroke-miterlimit:4;stroke-dasharray:none;stroke-linejoin:round;stroke-linecap:round"
        d="M 264.65221040385455,191.7433046842325 M 455.6522104038541,191.7433046842325 M 455.6522104038541,172.49330468423432 M 452.65221040385444,172.49330468423432 M 452.65221040385444,153.2433046842325 M 455.65221040385444,153.2433046842325 M 455.65221040385444,133.99330468423318 M 452.65221040385444,133.99330468423318 M 452.65221040385444,114.74330468423318 M 405.65221040385444,114.74330452956224 M 405.65221040385444,111.74330453254402 M 311.65221040385455,111.74330453254402 M 311.65221040385455,114.74330452956224 M 261.65221040385455,114.74330468423318 M 261.65221040385455,133.99330468423318 M 264.65221040385455,133.99330468423318 M 264.65221040385455,153.2433046842325 M 261.65221040385455,153.2433046842325 M 261.65221040385455,172.49330468423432 M 264.65221040385455,172.49330468423432 "
  />
  <path id="face6-cut"
 style="fill:none;stroke:#0000FF;stroke-width:1;stroke-miterlimit:4;stroke-dasharray:none;stroke-linejoin:round;stroke-linecap:round"
        d="M 414.652210403854,286.6236242077034 M 455.6522104038541,286.6236242077034 M 455.6522104038541,267.37362420770387 M 458.65221040385444,267.37362420770387 M 458.65221040385444,248.12362420770478 M 455.6522104038541,248.12362420770478 M 455.6522104038541,228.8736242077032 M 458.65221040385444,228.8736242077032 M 458.65221040385444,209.62362420770523 M 446.15908173740564,209.62362420770523 M 446.15908173740564,206.6236242077041 M 427.15908173740644,206.62362420770387 M 427.15908173740644,209.62362420770523 M 417.65221040385364,209.62362420770546 M 417.65221040385364,228.8736242077032 M 414.6522104038533,228.8736242077032 M 414.6522104038533,248.12362420770455 M 417.65221040385364,248.12362420770478 M 417.65221040385364,267.37362420770387 M 414.652210403854,267.37362420770387 "
  />
  <path id="face0-interior"
 style="fill:none;stroke:#FF0000;stroke-width:1;stroke-miterlimit:4;stroke-dasharray:none;stroke-linejoin:round;stroke-linecap:round"
        d="M 407.6111065885472,267.37362420770387 L 410.61110658854585,267.37362420770387 L 410.61110658854585,248.12362420770478 L 407.6111065885472,248.12362420770455 L 407.6111065885472,228.8736242077032 L 410.61110658854585,228.8736242077032 L 410.61110658854585,209.62362420770546 L 383.36797792209717,209.62362420770523 L 383.36797792209717,206.62362420770387 L 334.8679779220993,206.62362420770387 L 334.8679779220993,209.62362420770523 L 310.6111065885456,209.62362420770546 L 310.6111065885456,228.8736242077032 L 307.6111065885463,228.8736242077032 L 307.6111065885463,248.12362420770478 L 310.6111065885456,248.12362420770478 L 310.6111065885456,267.37362420770387 L 307.61110658854597,267.37362420770387 L 307.61110658854597,286.62362420770387 L 407.6111065885472,286.62362420770387 L 407.6111065885472,267.37362420770387 "
  />
  <path id="face1-interior"
 style="fill:none;stroke:#FF0000;stroke-width:1;stroke-miterlimit:4;stroke-dasharray:none;stroke-linejoin:round;stroke-linecap:round"
        d="M 226.3219401817302,95.51816724044943 L 226.3219401817302,57.51816724044966 L 226.11749513946455,55.96525296983441 L 225.51809260443684,54.51816724044966 L 224.56458086884953,53.27552655333034 L 223.3219401817302,52.32201481774291 L 221.87485445234535,51.72261228271532 L 220.3219401817301,51.51816724044943 L 26.321940181730213,51.51816724044943 L 26.321940181730213,201.51816724044966 L 76.32194018173021,201.51816724044943 L 76.32194018173021,101.51816724044943 L 220.3219401817301,101.51816724044943 L 221.87485445234535,101.313722198184 L 223.3219401817301,100.71431966315618 L 224.56458086884953,99.76080792756898 L 225.51809260443684,98.51816724044943 L 226.11749513946455,97.07108151106468 L 226.3219401817302,95.51816724044943 M 73.3219401817301,122.76816724044943 M 73.3219401817301,171.26816724044943 M 70.32194018173033,171.26816724044943 M 70.32194018173033,122.76816724044943 M 110.07194018173033,95.51816724044943 M 183.5719401817302,95.51816724044943 M 183.5719401817302,98.51816724044943 M 110.07194018173033,98.51816724044943 M 220.3219401817301,67.01816724044943 M 223.3219401817302,67.0181672404492 M 223.3219401817301,86.01816724044943 M 220.3219401817301,86.01816724044943 M 79.32194018173021,54.51816724044966 M 173.3219401817301,54.51816724044966 M 173.3219401817301,57.51816724044966 M 79.32194018173021,57.51816724044966 M 32.32194018173038,161.01816724044943 M 29.321940181730213,161.01816724044943 M 29.321940181730213,92.01816724044943 M 32.32194018173027,92.01816724044943 M 60.82194018173027,198.51816724044966 M 41.82194018173027,198.5181672404492 M 41.82194018173027,195.5181672404492 M 60.82194018173027,195.5181672404492 "
  />
  <path id="face2-interior"
 style="fill:none;stroke:#FF0000;stroke-width:1;stroke-miterlimit:4;stroke-dasharray:none;stroke-linejoin:round;stroke-linecap:round"
        d="M 87.14566467431638,191.7433046842325 L 237.14566467431695,191.7433046842325 L 237.14566467431695,172.49330468423432 L 240.1456646743166,172.49330468423432 L 240.1456646743166,153.2433046842325 L 237.14566467431672,153.2433046842325 L 237.14566467431672,133.99330468423318 L 240.1456646743166,133.99330468423318 L 240.1456646743166,114.74330468423318 L 200.39566467431638,114.74330452956201 L 200.39566467431638,111.74330453254402 L 126.89566467431649,111.74330453254379 L 126.89566467431649,114.74330452956201 L 90.1456646743166,114.74330468423318 L 90.1456646743166,133.99330468423318 L 87.14566467431649,133.99330468423318 L 87.14566467431649,153.2433046842325 L 90.1456646743166,153.2433046842325 L 90.1456646743166,172.49330468423432 L 87.14566467431638,172.4933046842341 L 87.14566467431638,191.7433046842325 "
  />
  <path id="face3-interior"
 style="fill:none;stroke:#FF0000;stroke-width:1;stroke-miterlimit:4;stroke-dasharray:none;stroke-linejoin:round;stroke-linecap:round"
        d="M 490.99999999999994,10.0 M 10.0,10.0 M 10.0,312.0000000000002 M 490.99999999999994,312.0000000000002 M 226.3219401817302,57.51816724044966 M 226.3219401817302,95.51816724044943 M 226.11749513946455,97.07108151106468 M 225.51809260443684,98.51816724044943 M 224.56458086884953,99.76080792756898 M 223.3219401817301,100.71431966315618 M 221.87485445234535,101.313722198184 M 220.3219401817301,101.51816724044943 M 76.32194018173021,101.51816724044943 M 76.32194018173021,201.51816724044943 M 26.321940181730213,201.51816724044966 M 26.321940181730213,51.51816724044943 M 220.3219401817301,51.51816724044943 M 221.87485445234535,51.72261228271532 M 223.3219401817302,52.32201481774291 M 224.56458086884953,53.27552655333034 M 225.51809260443684,54.51816724044966 M 226.11749513946455,55.96525296983441 M 237.14566467431695,191.7433046842325 M 87.14566467431638,191.7433046842325 M 87.14566467431638,172.4933046842341 M 90.1456646743166,172.49330468423432 M 90.1456646743166,153.2433046842325 M 87.14566467431649,153.2433046842325 M 87.14566467431649,133.99330468423318 M 90.1456646743166,133.99330468423318 M 90.1456646743166,114.74330468423318 M 126.89566467431649,114.74330452956201 M 126.89566467431649,111.74330453254379 M 200.39566467431638,111.74330453254402 M 200.39566467431638,114.74330452956201 M 240.1456646743166,114.74330468423318 M 240.1456646743166,133.99330468423318 M 237.14566467431672,133.99330468423318 M 237.14566467431672,153.2433046842325 M 240.1456646743166,153.2433046842325 M 240.1456646743166,172.49330468423432 M 237.14566467431695,172.49330468423432 M 455.6522104038541,191.7433046842325 L 264.65221040385455,191.7433046842325 L 264.65221040385455,172.49330468423432 L 261.65221040385455,172.49330468423432 L 261.65221040385455,153.2433046842325 L 264.65221040385455,153.2433046842325 L 264.65221040385455,133.99330468423318 L 261.65221040385455,133.99330468423318 L 261.65221040385455,114.74330468423318 L 311.65221040385455,114.74330452956224 L 311.65221040385455,111.74330453254402 L 405.65221040385444,111.74330453254402 L 405.65221040385444,114.74330452956224 L 452.65221040385444,114.74330468423318 L 452.65221040385444,133.99330468423318 L 455.65221040385444,133.99330468423318 L 455.65221040385444,153.2433046842325 L 452.65221040385444,153.2433046842325 L 452.65221040385444,172.49330468423432 L 455.6522104038541,172.49330468423432 L 455.6522104038541,191.7433046842325 M 455.6522104038541,286.6236242077034 L 414.652210403854,286.6236242077034 L 414.652210403854,267.37362420770387 L 417.65221040385364,267.37362420770387 L 417.65221040385364,248.12362420770478 L 414.6522104038533,248.12362420770455 L 414.6522104038533,228.8736242077032 L 417.65221040385364,228.8736242077032 L 417.65221040385364,209.62362420770546 L 427.15908173740644,209.62362420770523 L 427.15908173740644,206.62362420770387 L 446.15908173740564,206.6236242077041 L 446.15908173740564,209.62362420770523 L 458.65221040385444,209.62362420770523 L 458.65221040385444,228.8736242077032 L 455.6522104038541,228.8736242077032 L 455.6522104038541,248.12362420770478 L 458.65221040385444,248.12362420770478 L 458.65221040385444,267.37362420770387 L 455.6522104038541,267.37362420770387 L 455.6522104038541,286.6236242077034 M 410.61110658854585,267.37362420770387 M 407.6111065885472,267.37362420770387 M 407.6111065885472,286.62362420770387 M 307.61110658854597,286.62362420770387 M 307.61110658854597,267.37362420770387 M 310.6111065885456,267.37362420770387 M 310.6111065885456,248.12362420770478 M 307.6111065885463,248.12362420770478 M 307.6111065885463,228.8736242077032 M 310.6111065885456,228.8736242077032 M 310.6111065885456,209.62362420770546 M 334.8679779220993,209.62362420770523 M 334.8679779220993,206.62362420770387 M 383.36797792209717,206.62362420770387 M 383.36797792209717,209.62362420770523 M 410.61110658854585,209.62362420770546 M 410.61110658854585,228.8736242077032 M 407.6111065885472,228.8736242077032 M 407.6111065885472,248.12362420770455 M 410.61110658854585,248.12362420770478 M 295.088942972556,286.6236242077034 L 154.08894297255648,286.6236242077041 L 154.08894297255648,267.37362420770387 L 151.08894297255557,267.37362420770387 L 151.08894297255557,248.12362420770478 L 154.08894297255648,248.12362420770478 L 154.08894297255648,228.8736242077032 L 151.08894297255557,228.87362420770296 L 151.08894297255557,209.62362420770523 L 188.5958143061079,209.62362420770523 L 188.5958143061079,206.6236242077041 L 257.5958143061077,206.6236242077041 L 257.5958143061077,209.62362420770523 L 292.088942972556,209.62362420770523 L 292.088942972556,228.87362420770387 L 295.08894297255546,228.8736242077032 L 295.08894297255546,248.12362420770455 L 292.088942972556,248.1236242077041 L 292.088942972556,267.37362420770387 L 295.088942972556,267.37362420770387 L 295.088942972556,286.6236242077034 "
  />
  <path id="face4-interior"
 style="fill:none;stroke:#FF0000;stroke-width:1;stroke-miterlimit:4;stroke-dasharray:none;stroke-linejoin:round;stroke-linecap:round"
        d="M 154.08894297255648,286.6236242077041 M 295.088942972556,286.6236242077034 M 295.088942972556,267.37362420770387 M 292.088942972556,267.37362420770387 M 292.088942972556,248.1236242077041 M 295.08894297255546,248.12362420770455 M 295.08894297255546,228.8736242077032 M 292.088942972556,228.87362420770387 M 292.088942972556,209.62362420770523 M 257.5958143061077,209.62362420770523 M 257.5958143061077,206.6236242077041 M 188.5958143061079,206.6236242077041 M 188.5958143061079,209.62362420770523 M 151.08894297255557,209.62362420770523 M 151.08894297255557,228.87362420770296 M 154.08894297255648,228.8736242077032 M 154.08894297255648,248.12362420770478 M 151.08894297255557,248.12362420770478 M 151.08894297255557,267.37362420770387 M 154.08894297255648,267.37362420770387 "
  />
  <path id="face5-interior"
 style="fill:none;stroke:#FF0000;stroke-width:1;stroke-miterlimit:4;stroke-dasharray:none;stroke-linejoin:round;stroke-linecap:round"
        d="M 264.65221040385455,191.7433046842325 M 455.6522104038541,191.7433046842325 M 455.6522104038541,172.49330468423432 M 452.65221040385444,172.49330468423432 M 452.65221040385444,153.2433046842325 M 455.65221040385444,153.2433046842325 M 455.65221040385444,133.99330468423318 M 452.65221040385444,133.99330468423318 M 452.65221040385444,114.74330468423318 M 405.65221040385444,114.74330452956224 M 405.65221040385444,111.74330453254402 M 311.65221040385455,111.74330453254402 M 311.65221040385455,114.74330452956224 M 261.65221040385455,114.74330468423318 M 261.65221040385455,133.99330468423318 M 264.65221040385455,133.99330468423318 M 264.65221040385455,153.2433046842325 M 261.65221040385455,153.2433046842325 M 261.65221040385455,172.49330468423432 M 264.65221040385455,172.49330468423432 "
  />
  <path id="face6-interior"
 style="fill:none;stroke:#FF0000;stroke-width:1;stroke-miterlimit:4;stroke-dasharray:none;stroke-linejoin:round;stroke-linecap:round"
        d="M 414.652210403854,286.6236242077034 M 455.6522104038541,286.6236242077034 M 455.6522104038541,267.37362420770387 M 458.65221040385444,267.37362420770387 M 458.65221040385444,248.12362420770478 M 455.6522104038541,248.12362420770478 M 455.6522104038541,228.8736242077032 M 458.65221040385444,228.8736242077032 M 458.65221040385444,209.62362420770523 M 446.15908173740564,209.62362420770523 M 446.15908173740564,206.6236242077041 M 427.15908173740644,206.62362420770387 M 427.15908173740644,209.62362420770523 M 417.65221040385364,209.62362420770546 M 417.65221040385364,228.8736242077032 M 414.6522104038533,228.8736242077032 M 414.6522104038533,248.12362420770455 M 417.65221040385364,248.12362420770478 M 417.65221040385364,267.37362420770387 M 414.652210403854,267.37362420770387 "
  />
  <path id="face0-interior"
 style="fill:none;stroke:#00FF00;stroke-width:1;stroke-miterlimit:4;stroke-dasharray:none;stroke-linejoin:round;stroke-linecap:round"
        d="M 407.6111065885472,267.37362420770387 M 410.61110658854585,267.37362420770387 M 410.61110658854585,248.12362420770478 M 407.6111065885472,248.12362420770455 M 407.6111065885472,228.8736242077032 M 410.61110658854585,228.8736242077032 M 410.61110658854585,209.62362420770546 M 383.36797792209717,209.62362420770523 M 383.36797792209717,206.62362420770387 M 334.8679779220993,206.62362420770387 M 334.8679779220993,209.62362420770523 M 310.6111065885456,209.62362420770546 M 310.6111065885456,228.8736242077032 M 307.6111065885463,228.8736242077032 M 307.6111065885463,248.12362420770478 M 310.6111065885456,248.12362420770478 M 310.6111065885456,267.37362420770387 M 307.61110658854597,267.37362420770387 M 307.61110658854597,286.62362420770387 M 407.6111065885472,286.62362420770387 "
  />
  <path id="face1-interior"
 style="fill:none;stroke:#00FF00;stroke-width:1;stroke-miterlimit:4;stroke-dasharray:none;stroke-linejoin:round;stroke-linecap:round"
        d="M 226.3219401817302,95.51816724044943 M 226.3219401817302,57.51816724044966 M 226.11749513946455,55.96525296983441 M 225.51809260443684,54.51816724044966 M 224.56458086884953,53.27552655333034 M 223.3219401817302,52.32201481774291 M 221.87485445234535,51.72261228271532 M 220.3219401817301,51.51816724044943 M 26.321940181730213,51.51816724044943 M 26.321940181730213,201.51816724044966 M 76.32194018173021,201.51816724044943 M 76.32194018173021,101.51816724044943 M 220.3219401817301,101.51816724044943 M 221.87485445234535,101.313722198184 M 223.3219401817301,100.71431966315618 M 224.56458086884953,99.76080792756898 M 225.51809260443684,98.51816724044943 M 226.11749513946455,97.07108151106468 M 73.3219401817301,122.76816724044943 M 73.3219401817301,171.26816724044943 M 70.32194018173033,171.26816724044943 M 70.32194018173033,122.76816724044943 M 110.07194018173033,95.51816724044943 M 183.5719401817302,95.51816724044943 M 183.5719401817302,98.51816724044943 M 110.07194018173033,98.51816724044943 M 220.3219401817301,67.01816724044943 M 223.3219401817302,67.0181672404492 M 223.3219401817301,86.01816724044943 M 220.3219401817301,86.01816724044943 M 79.32194018173021,54.51816724044966 M 173.3219401817301,54.51816724044966 M 173.3219401817301,57.51816724044966 M 79.32194018173021,57.51816724044966 M 32.32194018173038,161.01816724044943 M 29.321940181730213,161.01816724044943 M 29.321940181730213,92.01816724044943 M 32.32194018173027,92.01816724044943 M 60.82194018173027,198.51816724044966 M 41.82194018173027,198.5181672404492 M 41.82194018173027,195.5181672404492 M 60.82194018173027,195.5181672404492 "
  />
  <path id="face2-interior"
 style="fill:none;stroke:#00FF00;stroke-width:1;stroke-miterlimit:4;stroke-dasharray:none;stroke-linejoin:round;stroke-linecap:round"
        d="M 87.14566467431638,191.7433046842325 M 237.14566467431695,191.7433046842325 M 237.14566467431695,172.49330468423432 M 240.1456646743166,172.49330468423432 M 240.1456646743166,153.2433046842325 M 237.14566467431672,153.2433046842325 M 237.14566467431672,133.99330468423318 M 240.1456646743166,133.99330468423318 M 240.1456646743166,114.74330468423318 M 200.39566467431638,114.74330452956201 M 200.39566467431638,111.74330453254402 M 126.89566467431649,111.74330453254379 M 126.89566467431649,114.74330452956201 M 90.1456646743166,114.74330468423318 M 90.1456646743166,133.99330468423318 M 87.14566467431649,133.99330468423318 M 87.14566467431649,153.2433046842325 M 90.1456646743166,153.2433046842325 M 90.1456646743166,172.49330468423432 M 87.14566467431638,172.4933046842341 "
  />
  <path id="face3-interior"
 style="fill:none;stroke:#00FF00;stroke-width:1;stroke-miterlimit:4;stroke-dasharray:none;stroke-linejoin:round;stroke-linecap:round"
        d="M 490.99999999999994,10.0 M 10.0,10.0 M 10.0,312.0000000000002 M 490.99999999999994,312.0000000000002 M 226.3219401817302,57.51816724044966 M 226.3219401817302,95.51816724044943 M 226.11749513946455,97.07108151106468 M 225.51809260443684,98.51816724044943 M 224.56458086884953,99.76080792756898 M 223.3219401817301,100.71431966315618 M 221.87485445234535,101.313722198184 M 220.3219401817301,101.51816724044943 M 76.32194018173021,101.51816724044943 M 76.32194018173021,201.51816724044943 M 26.321940181730213,201.51816724044966 M 26.321940181730213,51.51816724044943 M 220.3219401817301,51.51816724044943 M 221.87485445234535,51.72261228271532 M 223.3219401817302,52.32201481774291 M 224.56458086884953,53.27552655333034 M 225.51809260443684,54.51816724044966 M 226.11749513946455,55.96525296983441 M 237.14566467431695,191.7433046842325 M 87.14566467431638,191.7433046842325 M 87.14566467431638,172.4933046842341 M 90.1456646743166,172.49330468423432 M 90.1456646743166,153.2433046842325 M 87.14566467431649,153.2433046842325 M 87.14566467431649,133.99330468423318 M 90.1456646743166,133.99330468423318 M 90.1456646743166,114.74330468423318 M 126.89566467431649,114.74330452956201 M 126.89566467431649,111.74330453254379 M 200.39566467431638,111.74330453254402 M 200.39566467431638,114.74330452956201 M 240.1456646743166,114.74330468423318 M 240.1456646743166,133.99330468423318 M 237.14566467431672,133.99330468423318 M 237.14566467431672,153.2433046842325 M 240.1456646743166,153.2433046842325 M 240.1456646743166,172.49330468423432 M 237.14566467431695,172.49330468423432 M 455.6522104038541,191.7433046842325 M 264.65221040385455,191.7433046842325 M 264.65221040385455,172.49330468423432 M 261.65221040385455,172.49330468423432 M 261.65221040385455,153.2433046842325 M 264.65221040385455,153.2433046842325 M 264.65221040385455,133.99330468423318 M 261.65221040385455,133.99330468423318 M 261.65221040385455,114.74330468423318 M 311.65221040385455,114.74330452956224 M 311.65221040385455,111.74330453254402 M 405.65221040385444,111.74330453254402 M 405.65221040385444,114.74330452956224 M 452.65221040385444,114.74330468423318 M 452.65221040385444,133.99330468423318 M 455.65221040385444,133.99330468423318 M 455.65221040385444,153.2433046842325 M 452.65221040385444,153.2433046842325 M 452.65221040385444,172.49330468423432 M 455.6522104038541,172.49330468423432 M 455.6522104038541,286.6236242077034 M 414.652210403854,286.6236242077034 M 414.652210403854,267.37362420770387 M 417.65221040385364,267.37362420770387 M 417.65221040385364,248.12362420770478 M 414.6522104038533,248.12362420770455 M 414.6522104038533,228.8736242077032 M 417.65221040385364,228.8736242077032 M 417.65221040385364,209.62362420770546 M 427.15908173740644,209.62362420770523 M 427.15908173740644,206.62362420770387 M 446.15908173740564,206.6236242077041 M 446.15908173740564,209.62362420770523 M 458.65221040385444,209.62362420770523 M 458.65221040385444,228.8736242077032 M 455.6522104038541,228.8736242077032 M 455.6522104038541,248.12362420770478 M 458.65221040385444,248.12362420770478 M 458.65221040385444,267.37362420770387 M 455.6522104038541,267.37362420770387 M 410.61110658854585,267.37362420770387 M 407.6111065885472,267.37362420770387 M 407.6111065885472,286.62362420770387 M 307.61110658854597,286.62362420770387 M 307.61110658854597,267.37362420770387 M 310.6111065885456,267.37362420770387 M 310.6111065885456,248.12362420770478 M 307.6111065885463,248.12362420770478 M 307.6111065885463,228.8736242077032 M 310.6111065885456,228.8736242077032 M 310.6111065885456,209.62362420770546 M 334.8679779220993,209.62362420770523 M 334.8679779220993,206.62362420770387 M 383.36797792209717,206.62362420770387 M 383.36797792209717,209.62362420770523 M 410.61110658854585,209.62362420770546 M 410.61110658854585,228.8736242077032 M 407.6111065885472,228.8736242077032 M 407.6111065885472,248.12362420770455 M 410.61110658854585,248.12362420770478 M 295.088942972556,286.6236242077034 M 154.08894297255648,286.6236242077041 M 154.08894297255648,267.37362420770387 M 151.08894297255557,267.37362420770387 M 151.08894297255557,248.12362420770478 M 154.08894297255648,248.12362420770478 M 154.08894297255648,228.8736242077032 M 151.08894297255557,228.87362420770296 M 151.08894297255557,209.62362420770523 M 188.5958143061079,209.62362420770523 M 188.5958143061079,206.6236242077041 M 257.5958143061077,206.6236242077041 M 257.5958143061077,209.62362420770523 M 292.088942972556,209.62362420770523 M 292.088942972556,228.87362420770387 M 295.08894297255546,228.8736242077032 M 295.08894297255546,248.12362420770455 M 292.088942972556,248.1236242077041 M 292.088942972556,267.37362420770387 M 295.088942972556,267.37362420770387 "
  />
  <path id="face4-interior"
 style="fill:none;stroke:#00FF00;stroke-width:1;stroke-miterlimit:4;stroke-dasharray:none;stroke-linejoin:round;stroke-linecap:round"
        d="M 154.08894297255648,286.6236242077041 M 295.088942972556,286.6236242077034 M 295.088942972556,267.37362420770387 M 292.088942972556,267.37362420770387 M 292.088942972556,248.1236242077041 M 295.08894297255546,248.12362420770455 M 295.08894297255546,228.8736242077032 M 292.088942972556,228.87362420770387 M 292.088942972556,209.62362420770523 M 257.5958143061077,209.62362420770523 M 257.5958143061077,206.6236242077041 M 188.5958143061079,206.6236242077041 M 188.5958143061079,209.62362420770523 M 151.08894297255557,209.62362420770523 M 151.08894297255557,228.87362420770296 M 154.08894297255648,228.8736242077032 M 154.08894297255648,248.12362420770478 M 151.08894297255557,248.12362420770478 M 151.08894297255557,267.37362420770387 M 154.08894297255648,267.37362420770387 "
  />
  <path id="face5-interior"
 style="fill:none;stroke:#00FF00;stroke-width:1;stroke-miterlimit:4;stroke-dasharray:none;stroke-linejoin:round;stroke-linecap:round"
        d="M 264.65221040385455,191.7433046842325 M 455.6522104038541,191.7433046842325 M 455.6522104038541,172.49330468423432 M 452.65221040385444,172.49330468423432 M 452.65221040385444,153.2433046842325 M 455.65221040385444,153.2433046842325 M 455.65221040385444,133.99330468423318 M 452.65221040385444,133.99330468423318 M 452.65221040385444,114.74330468423318 M 405.65221040385444,114.74330452956224 M 405.65221040385444,111.74330453254402 M 311.65221040385455,111.74330453254402 M 311.65221040385455,114.74330452956224 M 261.65221040385455,114.74330468423318 M 261.65221040385455,133.99330468423318 M 264.65221040385455,133.99330468423318 M 264.65221040385455,153.2433046842325 M 261.65221040385455,153.2433046842325 M 261.65221040385455,172.49330468423432 M 264.65221040385455,172.49330468423432 "
  />
  <path id="face6-interior"
 style="fill:none;stroke:#00FF00;stroke-width:1;stroke-miterlimit:4;stroke-dasharray:none;stroke-linejoin:round;stroke-linecap:round"
        d="M 414.652210403854,286.6236242077034 M 455.6522104038541,286.6236242077034 M 455.6522104038541,267.37362420770387 M 458.65221040385444,267.37362420770387 M 458.65221040385444,248.12362420770478 M 455.6522104038541,248.12362420770478 M 455.6522104038541,228.8736242077032 M 458.65221040385444,228.8736242077032 M 458.65221040385444,209.62362420770523 M 446.15908173740564,209.62362420770523 M 446.15908173740564,206.6236242077041 M 427.15908173740644,206.62362420770387 M 427.15908173740644,209.62362420770523 M 417.65221040385364,209.62362420770546 M 417.65221040385364,228.8736242077032 M 414.6522104038533,228.8736242077032 M 414.6522104038533,248.12362420770455 M 417.65221040385364,248.12362420770478 M 417.65221040385364,267.37362420770387 M 414.652210403854,267.37362420770387 "
  />
</svg>
