999
Inkscape export via "Better DXF Output" (bob@bobcookdev.com)
  0
SECTION
  2
HEADER
  9
$ACADVER
  1
AC1014
  9
$HANDSEED
  5
FFFF
  0
ENDSEC
  0
SECTION
  2
TABLES
  0
TABLE
  2
VPORT
  5
8
330
0
100
AcDbSymbolTable
 70
     4
  0
VPORT
  5
2E
330
8
100
AcDbSymbolTableRecord
100
AcDbViewportTableRecord
  2
*ACTIVE
 70
     0
 10
0.0
 20
0.0
 11
1.0
 21
1.0
 12
4.25
 22
5.5
 13
0.0
 23
0.0
 14
10.0
 24
10.0
 15
10.0
 25
10.0
 16
0.0
 26
0.0
 36
1.0
 17
0.0
 27
0.0
 37
0.0
 40
11
 41
1.24
 42
50.0
 43
0.0
 44
0.0
 50
0.0
 51
0.0
 71
     0
 72
   100
 73
     1
 74
     3
 75
     0
 76
     0
 77
     0
 78
     0
  0
ENDTAB
  0
TABLE
  2
LTYPE
  5
5
330
0
100
AcDbSymbolTable
 70
     1
  0
LTYPE
  5
14
330
5
100
AcDbSymbolTableRecord
100
AcDbLinetypeTableRecord
  2
BYBLOCK
 70
     0
  3

 72
    65
 73
     0
 40
0.0
  0
LTYPE
  5
15
330
5
100
AcDbSymbolTableRecord
100
AcDbLinetypeTableRecord
  2
BYLAYER
 70
     0
  3

 72
    65
 73
     0
 40
0.0
  0
LTYPE
  5
16
330
5
100
AcDbSymbolTableRecord
100
AcDbLinetypeTableRecord
  2
CONTINUOUS
 70
     0
  3
Solid line
 72
    65
 73
     0
 40
0.0
  0
ENDTAB
  0
TABLE
  2
LAYER
  5
2
330
0
100
AcDbSymbolTable
 70
1
  0
LAYER
  5
10
330
2
100
AcDbSymbolTableRecord
100
AcDbLayerTableRecord
  2
0
 70
     0
 62
     7
  6
CONTINUOUS
  0
ENDTAB
  0
TABLE
  2
STYLE
  5
3
330
0
100
AcDbSymbolTable
 70
     1
  0
STYLE
  5
11
330
3
100
AcDbSymbolTableRecord
100
AcDbTextStyleTableRecord
  2
STANDARD
 70
     0
 40
0.0
 41
1.0
 50
0.0
 71
     0
 42
2.5
  3
txt
  4

  0
ENDTAB
  0
TABLE
  2
VIEW
  5
6
330
0
100
AcDbSymbolTable
 70
     0
  0
ENDTAB
  0
TABLE
  2
UCS
  5
7
330
0
100
AcDbSymbolTable
 70
     0
  0
ENDTAB
  0
TABLE
  2
APPID
  5
9
330
0
100
AcDbSymbolTable
 70
     2
  0
APPID
  5
12
330
9
100
AcDbSymbolTableRecord
100
AcDbRegAppTableRecord
  2
ACAD
 70
     0
  0
ENDTAB
  0
TABLE
  2
DIMSTYLE
  5
A
330
0
100
AcDbSymbolTable
 70
     1
  0
DIMSTYLE
105
27
330
A
100
AcDbSymbolTableRecord
100
AcDbDimStyleTableRecord
  2
ISO-25
 70
     0
  3

  4

  5

  6

  7

 40
1.0
 41
2.5
 42
0.625
 43
3.75
 44
1.25
 45
0.0
 46
0.0
 47
0.0
 48
0.0
140
2.5
141
2.5
142
0.0
143
0.03937007874016
144
1.0
145
0.0
146
1.0
147
0.625
 71
     0
 72
     0
 73
     0
 74
     0
 75
     0
 76
     0
 77
     1
 78
     8
170
     0
171
     3
172
     1
173
     0
174
     0
175
     0
176
     0
177
     0
178
     0
270
     2
271
     2
272
     2
273
     2
274
     3
340
11
275
     0
280
     0
281
     0
282
     0
283
     0
284
     8
285
     0
286
     0
287
     3
288
     0
  0
ENDTAB
  0
TABLE
  2
BLOCK_RECORD
  5
1
330
0
100
AcDbSymbolTable
 70
     1
  0
BLOCK_RECORD
  5
1F
330
1
100
AcDbSymbolTableRecord
100
AcDbBlockTableRecord
  2
*MODEL_SPACE
  0
BLOCK_RECORD
  5
1B
330
1
100
AcDbSymbolTableRecord
100
AcDbBlockTableRecord
  2
*PAPER_SPACE
  0
ENDTAB
  0
ENDSEC
  0
SECTION
  2
BLOCKS
  0
BLOCK
  5
20
330
1F
100
AcDbEntity
  8
0
100
AcDbBlockBegin
  2
*MODEL_SPACE
 70
     0
 10
0.0
 20
0.0
 30
0.0
  3
*MODEL_SPACE
  1

  0
ENDBLK
  5
21
330
1F
100
AcDbEntity
  8
0
100
AcDbBlockEnd
  0
BLOCK
  5
1C
330
1B
100
AcDbEntity
 67
     1
  8
0
100
AcDbBlockBegin
  2
*PAPER_SPACE
  1

  0
ENDBLK
  5
1D
330
1B
100
AcDbEntity
 67
     1
  8
0
100
AcDbBlockEnd
  0
ENDSEC
  0
SECTION
  2
ENTITIES
0
LINE
8
Calque 1
62
4
5
100
100
AcDbEntity
100
AcDbLine
10
171.383565
20
128.891237
30
0.0
11
-19.616431
21
128.891237
31
0.0
0
LINE
8
Calque 1
62
4
5
101
100
AcDbEntity
100
AcDbLine
10
-19.616431
20
128.891237
30
0.0
11
-19.616431
21
148.141237
31
0.0
0
LINE
8
Calque 1
62
4
5
102
100
AcDbEntity
100
AcDbLine
10
-19.616431
20
148.141237
30
0.0
11
-22.616430
21
148.141237
31
0.0
0
LINE
8
Calque 1
62
4
5
103
100
AcDbEntity
100
AcDbLine
10
-22.616430
20
148.141237
30
0.0
11
-22.616430
21
167.391234
31
0.0
0
LINE
8
Calque 1
62
4
5
104
100
AcDbEntity
100
AcDbLine
10
-22.616430
20
167.391234
30
0.0
11
-19.616431
21
167.391234
31
0.0
0
LINE
8
Calque 1
62
4
5
105
100
AcDbEntity
100
AcDbLine
10
-19.616431
20
167.391234
30
0.0
11
-19.616431
21
186.641233
31
0.0
0
LINE
8
Calque 1
62
4
5
106
100
AcDbEntity
100
AcDbLine
10
-19.616431
20
186.641233
30
0.0
11
-22.616430
21
186.641233
31
0.0
0
LINE
8
Calque 1
62
4
5
107
100
AcDbEntity
100
AcDbLine
10
-22.616430
20
186.641233
30
0.0
11
-22.616430
21
205.891233
31
0.0
0
LINE
8
Calque 1
62
4
5
108
100
AcDbEntity
100
AcDbLine
10
-22.616430
20
205.891233
30
0.0
11
27.383571
21
205.891233
31
0.0
0
LINE
8
Calque 1
62
4
5
109
100
AcDbEntity
100
AcDbLine
10
27.383571
20
205.891233
30
0.0
11
27.383571
21
208.891233
31
0.0
0
LINE
8
Calque 1
62
4
5
10a
100
AcDbEntity
100
AcDbLine
10
27.383571
20
208.891233
30
0.0
11
121.383552
21
208.891233
31
0.0
0
LINE
8
Calque 1
62
4
5
10b
100
AcDbEntity
100
AcDbLine
10
121.383552
20
208.891233
30
0.0
11
121.383552
21
205.891233
31
0.0
0
LINE
8
Calque 1
62
4
5
10c
100
AcDbEntity
100
AcDbLine
10
121.383552
20
205.891233
30
0.0
11
168.383543
21
205.891233
31
0.0
0
LINE
8
Calque 1
62
4
5
10d
100
AcDbEntity
100
AcDbLine
10
168.383543
20
205.891233
30
0.0
11
168.383543
21
186.641233
31
0.0
0
LINE
8
Calque 1
62
4
5
10e
100
AcDbEntity
100
AcDbLine
10
168.383543
20
186.641233
30
0.0
11
171.383565
21
186.641233
31
0.0
0
LINE
8
Calque 1
62
4
5
10f
100
AcDbEntity
100
AcDbLine
10
171.383565
20
186.641233
30
0.0
11
171.383565
21
167.391234
31
0.0
0
LINE
8
Calque 1
62
4
5
110
100
AcDbEntity
100
AcDbLine
10
171.383565
20
167.391234
30
0.0
11
168.383543
21
167.391234
31
0.0
0
LINE
8
Calque 1
62
4
5
111
100
AcDbEntity
100
AcDbLine
10
168.383543
20
167.391234
30
0.0
11
168.383543
21
148.141237
31
0.0
0
LINE
8
Calque 1
62
4
5
112
100
AcDbEntity
100
AcDbLine
10
168.383543
20
148.141237
30
0.0
11
171.383565
21
148.141237
31
0.0
0
LINE
8
Calque 1
62
4
5
113
100
AcDbEntity
100
AcDbLine
10
171.383565
20
148.141237
30
0.0
11
171.383565
21
128.891237
31
0.0
0
LINE
8
Calque 1
62
4
5
114
100
AcDbEntity
100
AcDbLine
10
171.383565
20
34.010926
30
0.0
11
130.383562
21
34.010926
31
0.0
0
LINE
8
Calque 1
62
4
5
115
100
AcDbEntity
100
AcDbLine
10
130.383562
20
34.010926
30
0.0
11
130.383562
21
53.260925
31
0.0
0
LINE
8
Calque 1
62
4
5
116
100
AcDbEntity
100
AcDbLine
10
130.383562
20
53.260925
30
0.0
11
133.383556
21
53.260925
31
0.0
0
LINE
8
Calque 1
62
4
5
117
100
AcDbEntity
100
AcDbLine
10
133.383556
20
53.260925
30
0.0
11
133.383556
21
72.510922
31
0.0
0
LINE
8
Calque 1
62
4
5
118
100
AcDbEntity
100
AcDbLine
10
133.383556
20
72.510922
30
0.0
11
130.383562
21
72.510922
31
0.0
0
LINE
8
Calque 1
62
4
5
119
100
AcDbEntity
100
AcDbLine
10
130.383562
20
72.510922
30
0.0
11
130.383562
21
91.760922
31
0.0
0
LINE
8
Calque 1
62
4
5
11a
100
AcDbEntity
100
AcDbLine
10
130.383562
20
91.760922
30
0.0
11
133.383556
21
91.760922
31
0.0
0
LINE
8
Calque 1
62
4
5
11b
100
AcDbEntity
100
AcDbLine
10
133.383556
20
91.760922
30
0.0
11
133.383556
21
111.010919
31
0.0
0
LINE
8
Calque 1
62
4
5
11c
100
AcDbEntity
100
AcDbLine
10
133.383556
20
111.010919
30
0.0
11
142.890438
21
111.010919
31
0.0
0
LINE
8
Calque 1
62
4
5
11d
100
AcDbEntity
100
AcDbLine
10
142.890438
20
111.010919
30
0.0
11
142.890438
21
114.010918
31
0.0
0
LINE
8
Calque 1
62
4
5
11e
100
AcDbEntity
100
AcDbLine
10
142.890438
20
114.010918
30
0.0
11
161.890428
21
114.010918
31
0.0
0
LINE
8
Calque 1
62
4
5
11f
100
AcDbEntity
100
AcDbLine
10
161.890428
20
114.010918
30
0.0
11
161.890428
21
111.010919
31
0.0
0
LINE
8
Calque 1
62
4
5
120
100
AcDbEntity
100
AcDbLine
10
161.890428
20
111.010919
30
0.0
11
174.383559
21
111.010919
31
0.0
0
LINE
8
Calque 1
62
4
5
121
100
AcDbEntity
100
AcDbLine
10
174.383559
20
111.010919
30
0.0
11
174.383559
21
91.760922
31
0.0
0
LINE
8
Calque 1
62
4
5
122
100
AcDbEntity
100
AcDbLine
10
174.383559
20
91.760922
30
0.0
11
171.383565
21
91.760922
31
0.0
0
LINE
8
Calque 1
62
4
5
123
100
AcDbEntity
100
AcDbLine
10
171.383565
20
91.760922
30
0.0
11
171.383565
21
72.510922
31
0.0
0
LINE
8
Calque 1
62
4
5
124
100
AcDbEntity
100
AcDbLine
10
171.383565
20
72.510922
30
0.0
11
174.383559
21
72.510922
31
0.0
0
LINE
8
Calque 1
62
4
5
125
100
AcDbEntity
100
AcDbLine
10
174.383559
20
72.510922
30
0.0
11
174.383559
21
53.260925
31
0.0
0
LINE
8
Calque 1
62
4
5
126
100
AcDbEntity
100
AcDbLine
10
174.383559
20
53.260925
30
0.0
11
171.383565
21
53.260925
31
0.0
0
LINE
8
Calque 1
62
4
5
127
100
AcDbEntity
100
AcDbLine
10
171.383565
20
53.260925
30
0.0
11
171.383565
21
34.010926
31
0.0
0
LINE
8
Calque 1
62
4
5
128
100
AcDbEntity
100
AcDbLine
10
10.820288
20
34.010926
30
0.0
11
-130.179693
21
34.010926
31
0.0
0
LINE
8
Calque 1
62
4
5
129
100
AcDbEntity
100
AcDbLine
10
-130.179693
20
34.010926
30
0.0
11
-130.179693
21
53.260925
31
0.0
0
LINE
8
Calque 1
62
4
5
12a
100
AcDbEntity
100
AcDbLine
10
-130.179693
20
53.260925
30
0.0
11
-133.179693
21
53.260925
31
0.0
0
LINE
8
Calque 1
62
4
5
12b
100
AcDbEntity
100
AcDbLine
10
-133.179693
20
53.260925
30
0.0
11
-133.179693
21
72.510922
31
0.0
0
LINE
8
Calque 1
62
4
5
12c
100
AcDbEntity
100
AcDbLine
10
-133.179693
20
72.510922
30
0.0
11
-130.179693
21
72.510922
31
0.0
0
LINE
8
Calque 1
62
4
5
12d
100
AcDbEntity
100
AcDbLine
10
-130.179693
20
72.510922
30
0.0
11
-130.179693
21
91.760922
31
0.0
0
LINE
8
Calque 1
62
4
5
12e
100
AcDbEntity
100
AcDbLine
10
-130.179693
20
91.760922
30
0.0
11
-133.179693
21
91.760922
31
0.0
0
LINE
8
Calque 1
62
4
5
12f
100
AcDbEntity
100
AcDbLine
10
-133.179693
20
91.760922
30
0.0
11
-133.179693
21
111.010919
31
0.0
0
LINE
8
Calque 1
62
4
5
130
100
AcDbEntity
100
AcDbLine
10
-133.179693
20
111.010919
30
0.0
11
-95.672825
21
111.010919
31
0.0
0
LINE
8
Calque 1
62
4
5
131
100
AcDbEntity
100
AcDbLine
10
-95.672825
20
111.010919
30
0.0
11
-95.672825
21
114.010918
31
0.0
0
LINE
8
Calque 1
62
4
5
132
100
AcDbEntity
100
AcDbLine
10
-95.672825
20
114.010918
30
0.0
11
-26.672830
21
114.010918
31
0.0
0
LINE
8
Calque 1
62
4
5
133
100
AcDbEntity
100
AcDbLine
10
-26.672830
20
114.010918
30
0.0
11
-26.672830
21
111.010919
31
0.0
0
LINE
8
Calque 1
62
4
5
134
100
AcDbEntity
100
AcDbLine
10
-26.672830
20
111.010919
30
0.0
11
7.820294
21
111.010919
31
0.0
0
LINE
8
Calque 1
62
4
5
135
100
AcDbEntity
100
AcDbLine
10
7.820294
20
111.010919
30
0.0
11
7.820294
21
91.760922
31
0.0
0
LINE
8
Calque 1
62
4
5
136
100
AcDbEntity
100
AcDbLine
10
7.820294
20
91.760922
30
0.0
11
10.820288
21
91.760922
31
0.0
0
LINE
8
Calque 1
62
4
5
137
100
AcDbEntity
100
AcDbLine
10
10.820288
20
91.760922
30
0.0
11
10.820288
21
72.510922
31
0.0
0
LINE
8
Calque 1
62
4
5
138
100
AcDbEntity
100
AcDbLine
10
10.820288
20
72.510922
30
0.0
11
7.820294
21
72.510922
31
0.0
0
LINE
8
Calque 1
62
4
5
139
100
AcDbEntity
100
AcDbLine
10
7.820294
20
72.510922
30
0.0
11
7.820294
21
53.260925
31
0.0
0
LINE
8
Calque 1
62
4
5
13a
100
AcDbEntity
100
AcDbLine
10
7.820294
20
53.260925
30
0.0
11
10.820288
21
53.260925
31
0.0
0
LINE
8
Calque 1
62
4
5
13b
100
AcDbEntity
100
AcDbLine
10
10.820288
20
53.260925
30
0.0
11
10.820288
21
34.010926
31
0.0
0
LINE
8
Calque 1
62
4
5
13c
100
AcDbEntity
100
AcDbLine
10
-197.122963
20
128.891237
30
0.0
11
-47.122977
21
128.891237
31
0.0
0
LINE
8
Calque 1
62
4
5
13d
100
AcDbEntity
100
AcDbLine
10
-47.122977
20
128.891237
30
0.0
11
-47.122977
21
148.141237
31
0.0
0
LINE
8
Calque 1
62
4
5
13e
100
AcDbEntity
100
AcDbLine
10
-47.122977
20
148.141237
30
0.0
11
-44.122978
21
148.141237
31
0.0
0
LINE
8
Calque 1
62
4
5
13f
100
AcDbEntity
100
AcDbLine
10
-44.122978
20
148.141237
30
0.0
11
-44.122978
21
167.391234
31
0.0
0
LINE
8
Calque 1
62
4
5
140
100
AcDbEntity
100
AcDbLine
10
-44.122978
20
167.391234
30
0.0
11
-47.122977
21
167.391234
31
0.0
0
LINE
8
Calque 1
62
4
5
141
100
AcDbEntity
100
AcDbLine
10
-47.122977
20
167.391234
30
0.0
11
-47.122977
21
186.641233
31
0.0
0
LINE
8
Calque 1
62
4
5
142
100
AcDbEntity
100
AcDbLine
10
-47.122977
20
186.641233
30
0.0
11
-44.122978
21
186.641233
31
0.0
0
LINE
8
Calque 1
62
4
5
143
100
AcDbEntity
100
AcDbLine
10
-44.122978
20
186.641233
30
0.0
11
-44.122978
21
205.891233
31
0.0
0
LINE
8
Calque 1
62
4
5
144
100
AcDbEntity
100
AcDbLine
10
-44.122978
20
205.891233
30
0.0
11
-83.872976
21
205.891233
31
0.0
0
LINE
8
Calque 1
62
4
5
145
100
AcDbEntity
100
AcDbLine
10
-83.872976
20
205.891233
30
0.0
11
-83.872976
21
208.891233
31
0.0
0
LINE
8
Calque 1
62
4
5
146
100
AcDbEntity
100
AcDbLine
10
-83.872976
20
208.891233
30
0.0
11
-157.372970
21
208.891233
31
0.0
0
LINE
8
Calque 1
62
4
5
147
100
AcDbEntity
100
AcDbLine
10
-157.372970
20
208.891233
30
0.0
11
-157.372970
21
205.891233
31
0.0
0
LINE
8
Calque 1
62
4
5
148
100
AcDbEntity
100
AcDbLine
10
-157.372970
20
205.891233
30
0.0
11
-194.122963
21
205.891233
31
0.0
0
LINE
8
Calque 1
62
4
5
149
100
AcDbEntity
100
AcDbLine
10
-194.122963
20
205.891233
30
0.0
11
-194.122963
21
186.641233
31
0.0
0
LINE
8
Calque 1
62
4
5
14a
100
AcDbEntity
100
AcDbLine
10
-194.122963
20
186.641233
30
0.0
11
-197.122963
21
186.641233
31
0.0
0
LINE
8
Calque 1
62
4
5
14b
100
AcDbEntity
100
AcDbLine
10
-197.122963
20
186.641233
30
0.0
11
-197.122963
21
167.391234
31
0.0
0
LINE
8
Calque 1
62
4
5
14c
100
AcDbEntity
100
AcDbLine
10
-197.122963
20
167.391234
30
0.0
11
-194.122963
21
167.391234
31
0.0
0
LINE
8
Calque 1
62
4
5
14d
100
AcDbEntity
100
AcDbLine
10
-194.122963
20
167.391234
30
0.0
11
-194.122963
21
148.141237
31
0.0
0
LINE
8
Calque 1
62
4
5
14e
100
AcDbEntity
100
AcDbLine
10
-194.122963
20
148.141237
30
0.0
11
-197.122963
21
148.141237
31
0.0
0
LINE
8
Calque 1
62
4
5
14f
100
AcDbEntity
100
AcDbLine
10
-197.122963
20
148.141237
30
0.0
11
-197.122963
21
128.891237
31
0.0
0
LINE
8
Calque 1
62
4
5
150
100
AcDbEntity
100
AcDbLine
10
-57.946699
20
225.116363
30
0.0
11
-57.946699
21
263.116360
31
0.0
0
LINE
8
Calque 1
62
4
5
151
100
AcDbEntity
100
AcDbLine
10
-57.946699
20
263.116360
30
0.0
11
-58.151138
21
264.669274
31
0.0
0
LINE
8
Calque 1
62
4
5
152
100
AcDbEntity
100
AcDbLine
10
-58.151138
20
264.669274
30
0.0
11
-58.750547
21
266.116360
31
0.0
0
LINE
8
Calque 1
62
4
5
153
100
AcDbEntity
100
AcDbLine
10
-58.750547
20
266.116360
30
0.0
11
-59.704057
21
267.358999
31
0.0
0
LINE
8
Calque 1
62
4
5
154
100
AcDbEntity
100
AcDbLine
10
-59.704057
20
267.358999
30
0.0
11
-60.946699
21
268.312512
31
0.0
0
LINE
8
Calque 1
62
4
5
155
100
AcDbEntity
100
AcDbLine
10
-60.946699
20
268.312512
30
0.0
11
-62.393788
21
268.911914
31
0.0
0
LINE
8
Calque 1
62
4
5
156
100
AcDbEntity
100
AcDbLine
10
-62.393788
20
268.911914
30
0.0
11
-63.946699
21
269.116359
31
0.0
0
LINE
8
Calque 1
62
4
5
157
100
AcDbEntity
100
AcDbLine
10
-63.946699
20
269.116359
30
0.0
11
-257.946680
21
269.116359
31
0.0
0
LINE
8
Calque 1
62
4
5
158
100
AcDbEntity
100
AcDbLine
10
-257.946680
20
269.116359
30
0.0
11
-257.946680
21
119.116369
31
0.0
0
LINE
8
Calque 1
62
4
5
159
100
AcDbEntity
100
AcDbLine
10
-257.946680
20
119.116369
30
0.0
11
-207.946687
21
119.116369
31
0.0
0
LINE
8
Calque 1
62
4
5
15a
100
AcDbEntity
100
AcDbLine
10
-207.946687
20
119.116369
30
0.0
11
-207.946687
21
219.116361
31
0.0
0
LINE
8
Calque 1
62
4
5
15b
100
AcDbEntity
100
AcDbLine
10
-207.946687
20
219.116361
30
0.0
11
-63.946699
21
219.116361
31
0.0
0
LINE
8
Calque 1
62
4
5
15c
100
AcDbEntity
100
AcDbLine
10
-63.946699
20
219.116361
30
0.0
11
-62.393788
21
219.320811
31
0.0
0
LINE
8
Calque 1
62
4
5
15d
100
AcDbEntity
100
AcDbLine
10
-62.393788
20
219.320811
30
0.0
11
-60.946699
21
219.920212
31
0.0
0
LINE
8
Calque 1
62
4
5
15e
100
AcDbEntity
100
AcDbLine
10
-60.946699
20
219.920212
30
0.0
11
-59.704057
21
220.873722
31
0.0
0
LINE
8
Calque 1
62
4
5
15f
100
AcDbEntity
100
AcDbLine
10
-59.704057
20
220.873722
30
0.0
11
-58.750547
21
222.116363
31
0.0
0
LINE
8
Calque 1
62
4
5
160
100
AcDbEntity
100
AcDbLine
10
-58.750547
20
222.116363
30
0.0
11
-58.151138
21
223.563449
31
0.0
0
LINE
8
Calque 1
62
4
5
161
100
AcDbEntity
100
AcDbLine
10
-58.151138
20
223.563449
30
0.0
11
-57.946699
21
225.116363
31
0.0
0
LINE
8
Calque 1
62
4
5
162
100
AcDbEntity
100
AcDbLine
10
123.342456
20
53.260925
30
0.0
11
126.342450
21
53.260925
31
0.0
0
LINE
8
Calque 1
62
4
5
163
100
AcDbEntity
100
AcDbLine
10
126.342450
20
53.260925
30
0.0
11
126.342450
21
72.510922
31
0.0
0
LINE
8
Calque 1
62
4
5
164
100
AcDbEntity
100
AcDbLine
10
126.342450
20
72.510922
30
0.0
11
123.342456
21
72.510922
31
0.0
0
LINE
8
Calque 1
62
4
5
165
100
AcDbEntity
100
AcDbLine
10
123.342456
20
72.510922
30
0.0
11
123.342456
21
91.760922
31
0.0
0
LINE
8
Calque 1
62
4
5
166
100
AcDbEntity
100
AcDbLine
10
123.342456
20
91.760922
30
0.0
11
126.342450
21
91.760922
31
0.0
0
LINE
8
Calque 1
62
4
5
167
100
AcDbEntity
100
AcDbLine
10
126.342450
20
91.760922
30
0.0
11
126.342450
21
111.010919
31
0.0
0
LINE
8
Calque 1
62
4
5
168
100
AcDbEntity
100
AcDbLine
10
126.342450
20
111.010919
30
0.0
11
99.099342
21
111.010919
31
0.0
0
LINE
8
Calque 1
62
4
5
169
100
AcDbEntity
100
AcDbLine
10
99.099342
20
111.010919
30
0.0
11
99.099342
21
114.010918
31
0.0
0
LINE
8
Calque 1
62
4
5
16a
100
AcDbEntity
100
AcDbLine
10
99.099342
20
114.010918
30
0.0
11
50.599340
21
114.010918
31
0.0
0
LINE
8
Calque 1
62
4
5
16b
100
AcDbEntity
100
AcDbLine
10
50.599340
20
114.010918
30
0.0
11
50.599340
21
111.010919
31
0.0
0
LINE
8
Calque 1
62
4
5
16c
100
AcDbEntity
100
AcDbLine
10
50.599340
20
111.010919
30
0.0
11
26.342453
21
111.010919
31
0.0
0
LINE
8
Calque 1
62
4
5
16d
100
AcDbEntity
100
AcDbLine
10
26.342453
20
111.010919
30
0.0
11
26.342453
21
91.760922
31
0.0
0
LINE
8
Calque 1
62
4
5
16e
100
AcDbEntity
100
AcDbLine
10
26.342453
20
91.760922
30
0.0
11
23.342459
21
91.760922
31
0.0
0
LINE
8
Calque 1
62
4
5
16f
100
AcDbEntity
100
AcDbLine
10
23.342459
20
91.760922
30
0.0
11
23.342459
21
72.510922
31
0.0
0
LINE
8
Calque 1
62
4
5
170
100
AcDbEntity
100
AcDbLine
10
23.342459
20
72.510922
30
0.0
11
26.342453
21
72.510922
31
0.0
0
LINE
8
Calque 1
62
4
5
171
100
AcDbEntity
100
AcDbLine
10
26.342453
20
72.510922
30
0.0
11
26.342453
21
53.260925
31
0.0
0
LINE
8
Calque 1
62
4
5
172
100
AcDbEntity
100
AcDbLine
10
26.342453
20
53.260925
30
0.0
11
23.342459
21
53.260925
31
0.0
0
LINE
8
Calque 1
62
4
5
173
100
AcDbEntity
100
AcDbLine
10
23.342459
20
53.260925
30
0.0
11
23.342459
21
34.010926
31
0.0
0
LINE
8
Calque 1
62
4
5
174
100
AcDbEntity
100
AcDbLine
10
23.342459
20
34.010926
30
0.0
11
123.342456
21
34.010926
31
0.0
0
LINE
8
Calque 1
62
4
5
175
100
AcDbEntity
100
AcDbLine
10
123.342456
20
34.010926
30
0.0
11
123.342456
21
53.260925
31
0.0
0
LINE
8
Calque 1
62
4
5
176
100
AcDbEntity
100
AcDbLine
10
206.731334
20
310.634522
30
0.0
11
-274.268619
21
310.634522
31
0.0
0
LINE
8
Calque 1
62
4
5
177
100
AcDbEntity
100
AcDbLine
10
-274.268619
20
310.634522
30
0.0
11
-274.268619
21
8.634562
31
0.0
0
LINE
8
Calque 1
62
4
5
178
100
AcDbEntity
100
AcDbLine
10
-274.268619
20
8.634562
30
0.0
11
206.731334
21
8.634562
31
0.0
0
LINE
8
Calque 1
62
4
5
179
100
AcDbEntity
100
AcDbLine
10
206.731334
20
8.634562
30
0.0
11
206.731334
21
310.634522
31
0.0
0
LINE
8
Calque 1
62
4
5
17a
100
AcDbEntity
100
AcDbLine
10
-210.946687
20
197.866363
30
0.0
11
-210.946687
21
149.366366
31
0.0
0
LINE
8
Calque 1
62
4
5
17b
100
AcDbEntity
100
AcDbLine
10
-210.946687
20
149.366366
30
0.0
11
-213.946686
21
149.366366
31
0.0
0
LINE
8
Calque 1
62
4
5
17c
100
AcDbEntity
100
AcDbLine
10
-213.946686
20
149.366366
30
0.0
11
-213.946686
21
197.866363
31
0.0
0
LINE
8
Calque 1
62
4
5
17d
100
AcDbEntity
100
AcDbLine
10
-213.946686
20
197.866363
30
0.0
11
-210.946687
21
197.866363
31
0.0
0
LINE
8
Calque 1
62
4
5
17e
100
AcDbEntity
100
AcDbLine
10
-174.196688
20
225.116363
30
0.0
11
-100.696694
21
225.116363
31
0.0
0
LINE
8
Calque 1
62
4
5
17f
100
AcDbEntity
100
AcDbLine
10
-100.696694
20
225.116363
30
0.0
11
-100.696694
21
222.116363
31
0.0
0
LINE
8
Calque 1
62
4
5
180
100
AcDbEntity
100
AcDbLine
10
-100.696694
20
222.116363
30
0.0
11
-174.196688
21
222.116363
31
0.0
0
LINE
8
Calque 1
62
4
5
181
100
AcDbEntity
100
AcDbLine
10
-174.196688
20
222.116363
30
0.0
11
-174.196688
21
225.116363
31
0.0
0
LINE
8
Calque 1
62
4
5
182
100
AcDbEntity
100
AcDbLine
10
-63.946699
20
253.616360
30
0.0
11
-60.946699
21
253.616360
31
0.0
0
LINE
8
Calque 1
62
4
5
183
100
AcDbEntity
100
AcDbLine
10
-60.946699
20
253.616360
30
0.0
11
-60.946699
21
234.616364
31
0.0
0
LINE
8
Calque 1
62
4
5
184
100
AcDbEntity
100
AcDbLine
10
-60.946699
20
234.616364
30
0.0
11
-63.946699
21
234.616364
31
0.0
0
LINE
8
Calque 1
62
4
5
185
100
AcDbEntity
100
AcDbLine
10
-63.946699
20
234.616364
30
0.0
11
-63.946699
21
253.616360
31
0.0
0
LINE
8
Calque 1
62
4
5
186
100
AcDbEntity
100
AcDbLine
10
-204.946687
20
266.116360
30
0.0
11
-110.946695
21
266.116360
31
0.0
0
LINE
8
Calque 1
62
4
5
187
100
AcDbEntity
100
AcDbLine
10
-110.946695
20
266.116360
30
0.0
11
-110.946695
21
263.116360
31
0.0
0
LINE
8
Calque 1
62
4
5
188
100
AcDbEntity
100
AcDbLine
10
-110.946695
20
263.116360
30
0.0
11
-204.946687
21
263.116360
31
0.0
0
LINE
8
Calque 1
62
4
5
189
100
AcDbEntity
100
AcDbLine
10
-204.946687
20
263.116360
30
0.0
11
-204.946687
21
266.116360
31
0.0
0
LINE
8
Calque 1
62
4
5
18a
100
AcDbEntity
100
AcDbLine
10
-251.946681
20
159.616367
30
0.0
11
-254.946681
21
159.616367
31
0.0
0
LINE
8
Calque 1
62
4
5
18b
100
AcDbEntity
100
AcDbLine
10
-254.946681
20
159.616367
30
0.0
11
-254.946681
21
228.616362
31
0.0
0
LINE
8
Calque 1
62
4
5
18c
100
AcDbEntity
100
AcDbLine
10
-254.946681
20
228.616362
30
0.0
11
-251.946681
21
228.616362
31
0.0
0
LINE
8
Calque 1
62
4
5
18d
100
AcDbEntity
100
AcDbLine
10
-251.946681
20
228.616362
30
0.0
11
-251.946681
21
159.616367
31
0.0
0
LINE
8
Calque 1
62
4
5
18e
100
AcDbEntity
100
AcDbLine
10
-223.446684
20
122.116369
30
0.0
11
-242.446683
21
122.116369
31
0.0
0
LINE
8
Calque 1
62
4
5
18f
100
AcDbEntity
100
AcDbLine
10
-242.446683
20
122.116369
30
0.0
11
-242.446683
21
125.116368
31
0.0
0
LINE
8
Calque 1
62
4
5
190
100
AcDbEntity
100
AcDbLine
10
-242.446683
20
125.116368
30
0.0
11
-223.446684
21
125.116368
31
0.0
0
LINE
8
Calque 1
62
4
5
191
100
AcDbEntity
100
AcDbLine
10
-223.446684
20
125.116368
30
0.0
11
-223.446684
21
122.116369
31
0.0
  0
ENDSEC
  0
SECTION
  2
OBJECTS
  0
DICTIONARY
  5
C
330
0
100
AcDbDictionary
  3
ACAD_GROUP
350
D
  3
ACAD_MLINESTYLE
350
17
  0
DICTIONARY
  5
D
330
C
100
AcDbDictionary
  0
DICTIONARY
  5
1A
330
C
100
AcDbDictionary
  0
DICTIONARY
  5
17
330
C
100
AcDbDictionary
  3
STANDARD
350
18
  0
DICTIONARY
  5
19
330
C
100
AcDbDictionary
  0
ENDSEC
  0
EOF
