<?xml version="1.0" standalone="no"?>
<!DOCTYPE svg PUBLIC "-//W3C//DTD SVG 1.1//EN" "http://www.w3.org/Graphics/SVG/1.1/DTD/svg11.dtd">
<svg width="369.0000000000002mm" height="144.00000000000023mm"
 viewBox="0 0 369.0000000000002 144.00000000000023"
 xmlns="http://www.w3.org/2000/svg" version="1.1"
 xmlns:xlink="http://www.w3.org/1999/xlink">
<desc>Output from Flights of Ideas SVG Sketchup Plugin</desc>

  <path id="face0-cut"
 style="fill:none;stroke:#0000FF;stroke-width:1;stroke-miterlimit:4;stroke-dasharray:none;stroke-linejoin:round;stroke-linecap:round"
        d="M 17.342885316367983,94.83809132330089 M 17.342885316367983,118.33809132330089 M 40.842885316367756,118.33809132330089 M 40.842885316367756,121.338091323301 M 87.84288531636798,121.338091323301 M 87.84288531636776,118.33809132330089 M 111.34288531636776,118.338091323301 M 111.34288531636776,94.83809132330089 M 114.34288531636776,94.83809132330089 M 114.34288531636776,47.838091323301114 M 111.34288531636776,47.838091323301114 M 111.34288531636776,24.338091323301 M 87.84288531636798,24.338091323301 M 87.84288531636776,21.338091323301 M 40.842885316367756,21.338091323301 M 40.84288531636798,24.338091323301 M 17.342885316367983,24.338091323301 M 17.342885316367983,47.838091323301114 M 14.342885316367756,47.838091323301114 M 14.342885316367756,94.83809132330089 "
  />
  <path id="face1-cut"
 style="fill:none;stroke:#0000FF;stroke-width:1;stroke-miterlimit:4;stroke-dasharray:none;stroke-linejoin:round;stroke-linecap:round"
        d="M 359.0000000000002,10.000000000000227 L 10.0,10.0 L 10.0,134.0 L 358.9999999999998,134.00000000000023 L 359.0000000000002,10.000000000000227 M 117.66926175656795,121.33809132330134 M 117.66926175656772,24.338091323301 M 175.16926175656818,24.338091323301 M 175.16926175656818,21.338091323301114 M 232.66926175656772,21.338091323301228 M 232.66926175656772,24.338091323301 M 290.1692617565677,24.338091323301114 M 290.1692617565677,21.338091323301 M 347.6692617565684,21.338091323301114 M 347.6692617565684,118.33809132329952 M 290.1692617565684,118.33809132330077 M 290.1692617565684,121.33809132330123 M 232.66926175656772,121.33809132330111 M 232.66926175656772,118.33809132330168 M 175.16926175656818,118.33809132330123 M 175.16926175656818,121.33809132330146 M 17.342885316367983,118.33809132330089 M 17.342885316367983,94.83809132330089 M 14.342885316367756,94.83809132330089 M 14.342885316367756,47.838091323301114 M 17.342885316367983,47.838091323301114 M 17.342885316367983,24.338091323301 M 40.84288531636798,24.338091323301 M 40.842885316367756,21.338091323301 M 87.84288531636776,21.338091323301 M 87.84288531636798,24.338091323301 M 111.34288531636776,24.338091323301 M 111.34288531636776,47.838091323301114 M 114.34288531636776,47.838091323301114 M 114.34288531636776,94.83809132330089 M 111.34288531636776,94.83809132330089 M 111.34288531636776,118.338091323301 M 87.84288531636776,118.33809132330089 M 87.84288531636798,121.338091323301 M 40.842885316367756,121.338091323301 M 40.842885316367756,118.33809132330089 "
  />
  <path id="face2-cut"
 style="fill:none;stroke:#0000FF;stroke-width:1;stroke-miterlimit:4;stroke-dasharray:none;stroke-linejoin:round;stroke-linecap:round"
        d="M 117.66926175656772,24.338091323301 M 117.66926175656795,121.33809132330134 M 175.16926175656818,121.33809132330146 M 175.16926175656818,118.33809132330123 M 232.66926175656772,118.33809132330168 M 232.66926175656772,121.33809132330111 M 290.1692617565684,121.33809132330123 M 290.1692617565684,118.33809132330077 M 347.6692617565684,118.33809132329952 M 347.6692617565684,21.338091323301114 M 290.1692617565677,21.338091323301 M 290.1692617565677,24.338091323301114 M 232.66926175656772,24.338091323301 M 232.66926175656772,21.338091323301228 M 175.16926175656818,21.338091323301114 M 175.16926175656818,24.338091323301 M 337.6692617565677,29.338091323301114 L 337.6692617565684,110.33809132330134 L 137.66926175656795,110.33809132330089 L 137.6692617565684,29.338091323301114 L 337.6692617565677,29.338091323301114 M 122.66926175656818,94.83809132330089 L 122.66926175656818,47.838091323300205 L 125.66926175656818,47.838091323300205 L 125.66926175656818,94.83809132330089 L 122.66926175656818,94.83809132330089 "
  />
  <path id="face0-interior"
 style="fill:none;stroke:#FF0000;stroke-width:1;stroke-miterlimit:4;stroke-dasharray:none;stroke-linejoin:round;stroke-linecap:round"
        d="M 17.342885316367983,94.83809132330089 L 17.342885316367983,118.33809132330089 L 40.842885316367756,118.33809132330089 L 40.842885316367756,121.338091323301 L 87.84288531636798,121.338091323301 L 87.84288531636776,118.33809132330089 L 111.34288531636776,118.338091323301 L 111.34288531636776,94.83809132330089 L 114.34288531636776,94.83809132330089 L 114.34288531636776,47.838091323301114 L 111.34288531636776,47.838091323301114 L 111.34288531636776,24.338091323301 L 87.84288531636798,24.338091323301 L 87.84288531636776,21.338091323301 L 40.842885316367756,21.338091323301 L 40.84288531636798,24.338091323301 L 17.342885316367983,24.338091323301 L 17.342885316367983,47.838091323301114 L 14.342885316367756,47.838091323301114 L 14.342885316367756,94.83809132330089 L 17.342885316367983,94.83809132330089 "
  />
  <path id="face1-interior"
 style="fill:none;stroke:#FF0000;stroke-width:1;stroke-miterlimit:4;stroke-dasharray:none;stroke-linejoin:round;stroke-linecap:round"
        d="M 359.0000000000002,10.000000000000227 M 10.0,10.0 M 10.0,134.0 M 358.9999999999998,134.00000000000023 M 117.66926175656795,121.33809132330134 L 117.66926175656772,24.338091323301 L 175.16926175656818,24.338091323301 L 175.16926175656818,21.338091323301114 L 232.66926175656772,21.338091323301228 L 232.66926175656772,24.338091323301 L 290.1692617565677,24.338091323301114 L 290.1692617565677,21.338091323301 L 347.6692617565684,21.338091323301114 L 347.6692617565684,118.33809132329952 L 290.1692617565684,118.33809132330077 L 290.1692617565684,121.33809132330123 L 232.66926175656772,121.33809132330111 L 232.66926175656772,118.33809132330168 L 175.16926175656818,118.33809132330123 L 175.16926175656818,121.33809132330146 L 117.66926175656795,121.33809132330134 M 17.342885316367983,118.33809132330089 M 17.342885316367983,94.83809132330089 M 14.342885316367756,94.83809132330089 M 14.342885316367756,47.838091323301114 M 17.342885316367983,47.838091323301114 M 17.342885316367983,24.338091323301 M 40.84288531636798,24.338091323301 M 40.842885316367756,21.338091323301 M 87.84288531636776,21.338091323301 M 87.84288531636798,24.338091323301 M 111.34288531636776,24.338091323301 M 111.34288531636776,47.838091323301114 M 114.34288531636776,47.838091323301114 M 114.34288531636776,94.83809132330089 M 111.34288531636776,94.83809132330089 M 111.34288531636776,118.338091323301 M 87.84288531636776,118.33809132330089 M 87.84288531636798,121.338091323301 M 40.842885316367756,121.338091323301 M 40.842885316367756,118.33809132330089 "
  />
  <path id="face2-interior"
 style="fill:none;stroke:#FF0000;stroke-width:1;stroke-miterlimit:4;stroke-dasharray:none;stroke-linejoin:round;stroke-linecap:round"
        d="M 117.66926175656772,24.338091323301 M 117.66926175656795,121.33809132330134 M 175.16926175656818,121.33809132330146 M 175.16926175656818,118.33809132330123 M 232.66926175656772,118.33809132330168 M 232.66926175656772,121.33809132330111 M 290.1692617565684,121.33809132330123 M 290.1692617565684,118.33809132330077 M 347.6692617565684,118.33809132329952 M 347.6692617565684,21.338091323301114 M 290.1692617565677,21.338091323301 M 290.1692617565677,24.338091323301114 M 232.66926175656772,24.338091323301 M 232.66926175656772,21.338091323301228 M 175.16926175656818,21.338091323301114 M 175.16926175656818,24.338091323301 M 337.6692617565677,29.338091323301114 M 337.6692617565684,110.33809132330134 M 137.66926175656795,110.33809132330089 M 137.6692617565684,29.338091323301114 M 122.66926175656818,94.83809132330089 M 122.66926175656818,47.838091323300205 M 125.66926175656818,47.838091323300205 M 125.66926175656818,94.83809132330089 "
  />
  <path id="face0-interior"
 style="fill:none;stroke:#00FF00;stroke-width:1;stroke-miterlimit:4;stroke-dasharray:none;stroke-linejoin:round;stroke-linecap:round"
        d="M 17.342885316367983,94.83809132330089 M 17.342885316367983,118.33809132330089 M 40.842885316367756,118.33809132330089 M 40.842885316367756,121.338091323301 M 87.84288531636798,121.338091323301 M 87.84288531636776,118.33809132330089 M 111.34288531636776,118.338091323301 M 111.34288531636776,94.83809132330089 M 114.34288531636776,94.83809132330089 M 114.34288531636776,47.838091323301114 M 111.34288531636776,47.838091323301114 M 111.34288531636776,24.338091323301 M 87.84288531636798,24.338091323301 M 87.84288531636776,21.338091323301 M 40.842885316367756,21.338091323301 M 40.84288531636798,24.338091323301 M 17.342885316367983,24.338091323301 M 17.342885316367983,47.838091323301114 M 14.342885316367756,47.838091323301114 M 14.342885316367756,94.83809132330089 "
  />
  <path id="face1-interior"
 style="fill:none;stroke:#00FF00;stroke-width:1;stroke-miterlimit:4;stroke-dasharray:none;stroke-linejoin:round;stroke-linecap:round"
        d="M 359.0000000000002,10.000000000000227 M 10.0,10.0 M 10.0,134.0 M 358.9999999999998,134.00000000000023 M 117.66926175656795,121.33809132330134 M 117.66926175656772,24.338091323301 M 175.16926175656818,24.338091323301 M 175.16926175656818,21.338091323301114 M 232.66926175656772,21.338091323301228 M 232.66926175656772,24.338091323301 M 290.1692617565677,24.338091323301114 M 290.1692617565677,21.338091323301 M 347.6692617565684,21.338091323301114 M 347.6692617565684,118.33809132329952 M 290.1692617565684,118.33809132330077 M 290.1692617565684,121.33809132330123 M 232.66926175656772,121.33809132330111 M 232.66926175656772,118.33809132330168 M 175.16926175656818,118.33809132330123 M 175.16926175656818,121.33809132330146 M 17.342885316367983,118.33809132330089 M 17.342885316367983,94.83809132330089 M 14.342885316367756,94.83809132330089 M 14.342885316367756,47.838091323301114 M 17.342885316367983,47.838091323301114 M 17.342885316367983,24.338091323301 M 40.84288531636798,24.338091323301 M 40.842885316367756,21.338091323301 M 87.84288531636776,21.338091323301 M 87.84288531636798,24.338091323301 M 111.34288531636776,24.338091323301 M 111.34288531636776,47.838091323301114 M 114.34288531636776,47.838091323301114 M 114.34288531636776,94.83809132330089 M 111.34288531636776,94.83809132330089 M 111.34288531636776,118.338091323301 M 87.84288531636776,118.33809132330089 M 87.84288531636798,121.338091323301 M 40.842885316367756,121.338091323301 M 40.842885316367756,118.33809132330089 "
  />
  <path id="face2-interior"
 style="fill:none;stroke:#00FF00;stroke-width:1;stroke-miterlimit:4;stroke-dasharray:none;stroke-linejoin:round;stroke-linecap:round"
        d="M 117.66926175656772,24.338091323301 M 117.66926175656795,121.33809132330134 M 175.16926175656818,121.33809132330146 M 175.16926175656818,118.33809132330123 M 232.66926175656772,118.33809132330168 M 232.66926175656772,121.33809132330111 M 290.1692617565684,121.33809132330123 M 290.1692617565684,118.33809132330077 M 347.6692617565684,118.33809132329952 M 347.6692617565684,21.338091323301114 M 290.1692617565677,21.338091323301 M 290.1692617565677,24.338091323301114 M 232.66926175656772,24.338091323301 M 232.66926175656772,21.338091323301228 M 175.16926175656818,21.338091323301114 M 175.16926175656818,24.338091323301 M 337.6692617565677,29.338091323301114 M 337.6692617565684,110.33809132330134 M 137.66926175656795,110.33809132330089 M 137.6692617565684,29.338091323301114 M 122.66926175656818,94.83809132330089 M 122.66926175656818,47.838091323300205 M 125.66926175656818,47.838091323300205 M 125.66926175656818,94.83809132330089 "
  />
</svg>
