999
Inkscape export via "Better DXF Output" (bob@bobcookdev.com)
  0
SECTION
  2
HEADER
  9
$ACADVER
  1
AC1014
  9
$HANDSEED
  5
FFFF
  0
ENDSEC
  0
SECTION
  2
TABLES
  0
TABLE
  2
VPORT
  5
8
330
0
100
AcDbSymbolTable
 70
     4
  0
VPORT
  5
2E
330
8
100
AcDbSymbolTableRecord
100
AcDbViewportTableRecord
  2
*ACTIVE
 70
     0
 10
0.0
 20
0.0
 11
1.0
 21
1.0
 12
4.25
 22
5.5
 13
0.0
 23
0.0
 14
10.0
 24
10.0
 15
10.0
 25
10.0
 16
0.0
 26
0.0
 36
1.0
 17
0.0
 27
0.0
 37
0.0
 40
11
 41
1.24
 42
50.0
 43
0.0
 44
0.0
 50
0.0
 51
0.0
 71
     0
 72
   100
 73
     1
 74
     3
 75
     0
 76
     0
 77
     0
 78
     0
  0
ENDTAB
  0
TABLE
  2
LTYPE
  5
5
330
0
100
AcDbSymbolTable
 70
     1
  0
LTYPE
  5
14
330
5
100
AcDbSymbolTableRecord
100
AcDbLinetypeTableRecord
  2
BYBLOCK
 70
     0
  3

 72
    65
 73
     0
 40
0.0
  0
LTYPE
  5
15
330
5
100
AcDbSymbolTableRecord
100
AcDbLinetypeTableRecord
  2
BYLAYER
 70
     0
  3

 72
    65
 73
     0
 40
0.0
  0
LTYPE
  5
16
330
5
100
AcDbSymbolTableRecord
100
AcDbLinetypeTableRecord
  2
CONTINUOUS
 70
     0
  3
Solid line
 72
    65
 73
     0
 40
0.0
  0
ENDTAB
  0
TABLE
  2
LAYER
  5
2
330
0
100
AcDbSymbolTable
 70
1
  0
LAYER
  5
10
330
2
100
AcDbSymbolTableRecord
100
AcDbLayerTableRecord
  2
0
 70
     0
 62
     7
  6
CONTINUOUS
  0
ENDTAB
  0
TABLE
  2
STYLE
  5
3
330
0
100
AcDbSymbolTable
 70
     1
  0
STYLE
  5
11
330
3
100
AcDbSymbolTableRecord
100
AcDbTextStyleTableRecord
  2
STANDARD
 70
     0
 40
0.0
 41
1.0
 50
0.0
 71
     0
 42
2.5
  3
txt
  4

  0
ENDTAB
  0
TABLE
  2
VIEW
  5
6
330
0
100
AcDbSymbolTable
 70
     0
  0
ENDTAB
  0
TABLE
  2
UCS
  5
7
330
0
100
AcDbSymbolTable
 70
     0
  0
ENDTAB
  0
TABLE
  2
APPID
  5
9
330
0
100
AcDbSymbolTable
 70
     2
  0
APPID
  5
12
330
9
100
AcDbSymbolTableRecord
100
AcDbRegAppTableRecord
  2
ACAD
 70
     0
  0
ENDTAB
  0
TABLE
  2
DIMSTYLE
  5
A
330
0
100
AcDbSymbolTable
 70
     1
  0
DIMSTYLE
105
27
330
A
100
AcDbSymbolTableRecord
100
AcDbDimStyleTableRecord
  2
ISO-25
 70
     0
  3

  4

  5

  6

  7

 40
1.0
 41
2.5
 42
0.625
 43
3.75
 44
1.25
 45
0.0
 46
0.0
 47
0.0
 48
0.0
140
2.5
141
2.5
142
0.0
143
0.03937007874016
144
1.0
145
0.0
146
1.0
147
0.625
 71
     0
 72
     0
 73
     0
 74
     0
 75
     0
 76
     0
 77
     1
 78
     8
170
     0
171
     3
172
     1
173
     0
174
     0
175
     0
176
     0
177
     0
178
     0
270
     2
271
     2
272
     2
273
     2
274
     3
340
11
275
     0
280
     0
281
     0
282
     0
283
     0
284
     8
285
     0
286
     0
287
     3
288
     0
  0
ENDTAB
  0
TABLE
  2
BLOCK_RECORD
  5
1
330
0
100
AcDbSymbolTable
 70
     1
  0
BLOCK_RECORD
  5
1F
330
1
100
AcDbSymbolTableRecord
100
AcDbBlockTableRecord
  2
*MODEL_SPACE
  0
BLOCK_RECORD
  5
1B
330
1
100
AcDbSymbolTableRecord
100
AcDbBlockTableRecord
  2
*PAPER_SPACE
  0
ENDTAB
  0
ENDSEC
  0
SECTION
  2
BLOCKS
  0
BLOCK
  5
20
330
1F
100
AcDbEntity
  8
0
100
AcDbBlockBegin
  2
*MODEL_SPACE
 70
     0
 10
0.0
 20
0.0
 30
0.0
  3
*MODEL_SPACE
  1

  0
ENDBLK
  5
21
330
1F
100
AcDbEntity
  8
0
100
AcDbBlockEnd
  0
BLOCK
  5
1C
330
1B
100
AcDbEntity
 67
     1
  8
0
100
AcDbBlockBegin
  2
*PAPER_SPACE
  1

  0
ENDBLK
  5
1D
330
1B
100
AcDbEntity
 67
     1
  8
0
100
AcDbBlockEnd
  0
ENDSEC
  0
SECTION
  2
ENTITIES
0
LINE
8
Calque 1
62
4
5
100
100
AcDbEntity
100
AcDbLine
10
-1154.036836
20
-784.295131
30
0.0
11
-1155.784102
21
-784.524465
31
0.0
0
LINE
8
Calque 1
62
4
5
101
100
AcDbEntity
100
AcDbLine
10
-1155.784102
20
-784.524465
30
0.0
11
-1156.397230
21
-784.800111
31
0.0
0
LINE
8
Calque 1
62
4
5
102
100
AcDbEntity
100
AcDbLine
10
-1156.397230
20
-784.800111
30
0.0
11
-1156.743771
21
-785.453399
31
0.0
0
LINE
8
Calque 1
62
4
5
103
100
AcDbEntity
100
AcDbLine
10
-1156.743771
20
-785.453399
30
0.0
11
-1157.702084
21
-786.994699
31
0.0
0
LINE
8
Calque 1
62
4
5
104
100
AcDbEntity
100
AcDbLine
10
-1157.702084
20
-786.994699
30
0.0
11
-1158.311035
21
-788.319225
31
0.0
0
LINE
8
Calque 1
62
4
5
105
100
AcDbEntity
100
AcDbLine
10
-1158.311035
20
-788.319225
30
0.0
11
-1161.387342
21
-794.385027
31
0.0
0
LINE
8
Calque 1
62
4
5
106
100
AcDbEntity
100
AcDbLine
10
-1161.387342
20
-794.385027
30
0.0
11
-1161.919529
21
-795.388412
31
0.0
0
LINE
8
Calque 1
62
4
5
107
100
AcDbEntity
100
AcDbLine
10
-1161.919529
20
-795.388412
30
0.0
11
-1162.003490
21
-796.082452
31
0.0
0
LINE
8
Calque 1
62
4
5
108
100
AcDbEntity
100
AcDbLine
10
-1162.003490
20
-796.082452
30
0.0
11
-1162.171581
21
-797.471381
31
0.0
0
LINE
8
Calque 1
62
4
5
109
100
AcDbEntity
100
AcDbLine
10
-1162.171581
20
-797.471381
30
0.0
11
-1162.796450
21
-798.472959
31
0.0
0
LINE
8
Calque 1
62
4
5
10a
100
AcDbEntity
100
AcDbLine
10
-1162.796450
20
-798.472959
30
0.0
11
-1162.971653
21
-799.161751
31
0.0
0
LINE
8
Calque 1
62
4
5
10b
100
AcDbEntity
100
AcDbLine
10
-1162.971653
20
-799.161751
30
0.0
11
-1163.322427
21
-800.540999
31
0.0
0
LINE
8
Calque 1
62
4
5
10c
100
AcDbEntity
100
AcDbLine
10
-1163.322427
20
-800.540999
30
0.0
11
-1164.310233
21
-802.139901
31
0.0
0
LINE
8
Calque 1
62
4
5
10d
100
AcDbEntity
100
AcDbLine
10
-1164.310233
20
-802.139901
30
0.0
11
-1165.306590
21
-803.303898
31
0.0
0
LINE
8
Calque 1
62
4
5
10e
100
AcDbEntity
100
AcDbLine
10
-1165.306590
20
-803.303898
30
0.0
11
-1168.624254
21
-804.404904
31
0.0
0
LINE
8
Calque 1
62
4
5
10f
100
AcDbEntity
100
AcDbLine
10
-1168.624254
20
-804.404904
30
0.0
11
-1172.001494
21
-804.445402
31
0.0
0
LINE
8
Calque 1
62
4
5
110
100
AcDbEntity
100
AcDbLine
10
-1172.001494
20
-804.445402
30
0.0
11
-1173.134419
21
-804.908896
31
0.0
0
LINE
8
Calque 1
62
4
5
111
100
AcDbEntity
100
AcDbLine
10
-1173.134419
20
-804.908896
30
0.0
11
-1173.896137
21
-804.858689
31
0.0
0
LINE
8
Calque 1
62
4
5
112
100
AcDbEntity
100
AcDbLine
10
-1173.896137
20
-804.858689
30
0.0
11
-1175.100492
21
-804.557896
31
0.0
0
LINE
8
Calque 1
62
4
5
113
100
AcDbEntity
100
AcDbLine
10
-1175.100492
20
-804.557896
30
0.0
11
-1180.034301
21
-803.974430
31
0.0
0
LINE
8
Calque 1
62
4
5
114
100
AcDbEntity
100
AcDbLine
10
-1180.034301
20
-803.974430
30
0.0
11
-1182.543426
21
-803.448368
31
0.0
0
LINE
8
Calque 1
62
4
5
115
100
AcDbEntity
100
AcDbLine
10
-1182.543426
20
-803.448368
30
0.0
11
-1185.076511
21
-803.285921
31
0.0
0
LINE
8
Calque 1
62
4
5
116
100
AcDbEntity
100
AcDbLine
10
-1185.076511
20
-803.285921
30
0.0
11
-1187.640754
21
-802.750319
31
0.0
0
LINE
8
Calque 1
62
4
5
117
100
AcDbEntity
100
AcDbLine
10
-1187.640754
20
-802.750319
30
0.0
11
-1190.415817
21
-802.570149
31
0.0
0
LINE
8
Calque 1
62
4
5
118
100
AcDbEntity
100
AcDbLine
10
-1190.415817
20
-802.570149
30
0.0
11
-1195.874982
21
-802.215706
31
0.0
0
LINE
8
Calque 1
62
4
5
119
100
AcDbEntity
100
AcDbLine
10
-1195.874982
20
-802.215706
30
0.0
11
-1201.463406
21
-801.661845
31
0.0
0
LINE
8
Calque 1
62
4
5
11a
100
AcDbEntity
100
AcDbLine
10
-1201.463406
20
-801.661845
30
0.0
11
-1204.205674
21
-801.674827
31
0.0
0
LINE
8
Calque 1
62
4
5
11b
100
AcDbEntity
100
AcDbLine
10
-1204.205674
20
-801.674827
30
0.0
11
-1206.988075
21
-800.721367
31
0.0
0
LINE
8
Calque 1
62
4
5
11c
100
AcDbEntity
100
AcDbLine
10
-1206.988075
20
-800.721367
30
0.0
11
-1208.591803
21
-800.227027
31
0.0
0
LINE
8
Calque 1
62
4
5
11d
100
AcDbEntity
100
AcDbLine
10
-1208.591803
20
-800.227027
30
0.0
11
-1209.703392
21
-799.569421
31
0.0
0
LINE
8
Calque 1
62
4
5
11e
100
AcDbEntity
100
AcDbLine
10
-1209.703392
20
-799.569421
30
0.0
11
-1212.146900
21
-798.035515
31
0.0
0
LINE
8
Calque 1
62
4
5
11f
100
AcDbEntity
100
AcDbLine
10
-1212.146900
20
-798.035515
30
0.0
11
-1214.516409
21
-796.003289
31
0.0
0
LINE
8
Calque 1
62
4
5
120
100
AcDbEntity
100
AcDbLine
10
-1214.516409
20
-796.003289
30
0.0
11
-1215.865911
21
-794.820411
31
0.0
0
LINE
8
Calque 1
62
4
5
121
100
AcDbEntity
100
AcDbLine
10
-1215.865911
20
-794.820411
30
0.0
11
-1216.595682
21
-794.173219
31
0.0
0
LINE
8
Calque 1
62
4
5
122
100
AcDbEntity
100
AcDbLine
10
-1216.595682
20
-794.173219
30
0.0
11
-1216.800264
21
-794.452732
31
0.0
0
LINE
8
Calque 1
62
4
5
123
100
AcDbEntity
100
AcDbLine
10
-1216.800264
20
-794.452732
30
0.0
11
-1218.465206
21
-794.323305
31
0.0
0
LINE
8
Calque 1
62
4
5
124
100
AcDbEntity
100
AcDbLine
10
-1218.465206
20
-794.323305
30
0.0
11
-1219.716664
21
-794.721464
31
0.0
0
LINE
8
Calque 1
62
4
5
125
100
AcDbEntity
100
AcDbLine
10
-1219.716664
20
-794.721464
30
0.0
11
-1221.180833
21
-795.602900
31
0.0
0
LINE
8
Calque 1
62
4
5
126
100
AcDbEntity
100
AcDbLine
10
-1221.180833
20
-795.602900
30
0.0
11
-1221.804855
21
-796.650876
31
0.0
0
LINE
8
Calque 1
62
4
5
127
100
AcDbEntity
100
AcDbLine
10
-1221.804855
20
-796.650876
30
0.0
11
-1221.895138
21
-798.336420
31
0.0
0
LINE
8
Calque 1
62
4
5
128
100
AcDbEntity
100
AcDbLine
10
-1221.895138
20
-798.336420
30
0.0
11
-1221.461164
21
-799.559938
31
0.0
0
LINE
8
Calque 1
62
4
5
129
100
AcDbEntity
100
AcDbLine
10
-1221.461164
20
-799.559938
30
0.0
11
-1220.066592
21
-802.331276
31
0.0
0
LINE
8
Calque 1
62
4
5
12a
100
AcDbEntity
100
AcDbLine
10
-1220.066592
20
-802.331276
30
0.0
11
-1218.888737
21
-805.075802
31
0.0
0
LINE
8
Calque 1
62
4
5
12b
100
AcDbEntity
100
AcDbLine
10
-1218.888737
20
-805.075802
30
0.0
11
-1217.299233
21
-807.927658
31
0.0
0
LINE
8
Calque 1
62
4
5
12c
100
AcDbEntity
100
AcDbLine
10
-1217.299233
20
-807.927658
30
0.0
11
-1215.823832
21
-810.658694
31
0.0
0
LINE
8
Calque 1
62
4
5
12d
100
AcDbEntity
100
AcDbLine
10
-1215.823832
20
-810.658694
30
0.0
11
-1214.872094
21
-813.255082
31
0.0
0
LINE
8
Calque 1
62
4
5
12e
100
AcDbEntity
100
AcDbLine
10
-1214.872094
20
-813.255082
30
0.0
11
-1212.976520
21
-818.712554
31
0.0
0
LINE
8
Calque 1
62
4
5
12f
100
AcDbEntity
100
AcDbLine
10
-1212.976520
20
-818.712554
30
0.0
11
-1211.626736
21
-821.484682
31
0.0
0
LINE
8
Calque 1
62
4
5
130
100
AcDbEntity
100
AcDbLine
10
-1211.626736
20
-821.484682
30
0.0
11
-1210.992696
21
-824.229011
31
0.0
0
LINE
8
Calque 1
62
4
5
131
100
AcDbEntity
100
AcDbLine
10
-1210.992696
20
-824.229011
30
0.0
11
-1211.586435
21
-825.877302
31
0.0
0
LINE
8
Calque 1
62
4
5
132
100
AcDbEntity
100
AcDbLine
10
-1211.586435
20
-825.877302
30
0.0
11
-1212.596593
21
-826.742426
31
0.0
0
LINE
8
Calque 1
62
4
5
133
100
AcDbEntity
100
AcDbLine
10
-1212.596593
20
-826.742426
30
0.0
11
-1214.230010
21
-827.211507
31
0.0
0
LINE
8
Calque 1
62
4
5
134
100
AcDbEntity
100
AcDbLine
10
-1214.230010
20
-827.211507
30
0.0
11
-1214.532016
21
-827.895162
31
0.0
0
LINE
8
Calque 1
62
4
5
135
100
AcDbEntity
100
AcDbLine
10
-1214.532016
20
-827.895162
30
0.0
11
-1214.220104
21
-828.291064
31
0.0
0
LINE
8
Calque 1
62
4
5
136
100
AcDbEntity
100
AcDbLine
10
-1214.220104
20
-828.291064
30
0.0
11
-1214.007591
21
-829.077899
31
0.0
0
LINE
8
Calque 1
62
4
5
137
100
AcDbEntity
100
AcDbLine
10
-1214.007591
20
-829.077899
30
0.0
11
-1213.387210
21
-829.670961
31
0.0
0
LINE
8
Calque 1
62
4
5
138
100
AcDbEntity
100
AcDbLine
10
-1213.387210
20
-829.670961
30
0.0
11
-1212.457768
21
-830.753368
31
0.0
0
LINE
8
Calque 1
62
4
5
139
100
AcDbEntity
100
AcDbLine
10
-1212.457768
20
-830.753368
30
0.0
11
-1211.232528
21
-831.247313
31
0.0
0
LINE
8
Calque 1
62
4
5
13a
100
AcDbEntity
100
AcDbLine
10
-1211.232528
20
-831.247313
30
0.0
11
-1210.519606
21
-831.639884
31
0.0
0
LINE
8
Calque 1
62
4
5
13b
100
AcDbEntity
100
AcDbLine
10
-1210.519606
20
-831.639884
30
0.0
11
-1210.617255
21
-832.029266
31
0.0
0
LINE
8
Calque 1
62
4
5
13c
100
AcDbEntity
100
AcDbLine
10
-1210.617255
20
-832.029266
30
0.0
11
-1211.207043
21
-834.603895
31
0.0
0
LINE
8
Calque 1
62
4
5
13d
100
AcDbEntity
100
AcDbLine
10
-1211.207043
20
-834.603895
30
0.0
11
-1212.208876
21
-836.448020
31
0.0
0
LINE
8
Calque 1
62
4
5
13e
100
AcDbEntity
100
AcDbLine
10
-1212.208876
20
-836.448020
30
0.0
11
-1213.904664
21
-841.435084
31
0.0
0
LINE
8
Calque 1
62
4
5
13f
100
AcDbEntity
100
AcDbLine
10
-1213.904664
20
-841.435084
30
0.0
11
-1216.034116
21
-845.673695
31
0.0
0
LINE
8
Calque 1
62
4
5
140
100
AcDbEntity
100
AcDbLine
10
-1216.034116
20
-845.673695
30
0.0
11
-1218.501698
21
-849.360956
31
0.0
0
LINE
8
Calque 1
62
4
5
141
100
AcDbEntity
100
AcDbLine
10
-1218.501698
20
-849.360956
30
0.0
11
-1218.910073
21
-850.557212
31
0.0
0
LINE
8
Calque 1
62
4
5
142
100
AcDbEntity
100
AcDbLine
10
-1218.910073
20
-850.557212
30
0.0
11
-1219.845075
21
-851.766760
31
0.0
0
LINE
8
Calque 1
62
4
5
143
100
AcDbEntity
100
AcDbLine
10
-1219.845075
20
-851.766760
30
0.0
11
-1220.773558
21
-854.075140
31
0.0
0
LINE
8
Calque 1
62
4
5
144
100
AcDbEntity
100
AcDbLine
10
-1220.773558
20
-854.075140
30
0.0
11
-1222.023125
21
-856.501715
31
0.0
0
LINE
8
Calque 1
62
4
5
145
100
AcDbEntity
100
AcDbLine
10
-1222.023125
20
-856.501715
30
0.0
11
-1222.864260
21
-857.626765
31
0.0
0
LINE
8
Calque 1
62
4
5
146
100
AcDbEntity
100
AcDbLine
10
-1222.864260
20
-857.626765
30
0.0
11
-1222.750384
21
-858.422322
31
0.0
0
LINE
8
Calque 1
62
4
5
147
100
AcDbEntity
100
AcDbLine
10
-1222.750384
20
-858.422322
30
0.0
11
-1222.727524
21
-860.919311
31
0.0
0
LINE
8
Calque 1
62
4
5
148
100
AcDbEntity
100
AcDbLine
10
-1222.727524
20
-860.919311
30
0.0
11
-1222.929680
21
-862.126770
31
0.0
0
LINE
8
Calque 1
62
4
5
149
100
AcDbEntity
100
AcDbLine
10
-1222.929680
20
-862.126770
30
0.0
11
-1222.602697
21
-862.912280
31
0.0
0
LINE
8
Calque 1
62
4
5
14a
100
AcDbEntity
100
AcDbLine
10
-1222.602697
20
-862.912280
30
0.0
11
-1221.427721
21
-863.558992
31
0.0
0
LINE
8
Calque 1
62
4
5
14b
100
AcDbEntity
100
AcDbLine
10
-1221.427721
20
-863.558992
30
0.0
11
-1220.580321
21
-863.620601
31
0.0
0
LINE
8
Calque 1
62
4
5
14c
100
AcDbEntity
100
AcDbLine
10
-1220.580321
20
-863.620601
30
0.0
11
-1219.316868
21
-863.464532
31
0.0
0
LINE
8
Calque 1
62
4
5
14d
100
AcDbEntity
100
AcDbLine
10
-1219.316868
20
-863.464532
30
0.0
11
-1218.377238
21
-862.927181
31
0.0
0
LINE
8
Calque 1
62
4
5
14e
100
AcDbEntity
100
AcDbLine
10
-1218.377238
20
-862.927181
30
0.0
11
-1213.114216
21
-860.442440
31
0.0
0
LINE
8
Calque 1
62
4
5
14f
100
AcDbEntity
100
AcDbLine
10
-1213.114216
20
-860.442440
30
0.0
11
-1210.776542
21
-859.375273
31
0.0
0
LINE
8
Calque 1
62
4
5
150
100
AcDbEntity
100
AcDbLine
10
-1210.776542
20
-859.375273
30
0.0
11
-1208.557908
21
-858.710047
31
0.0
0
LINE
8
Calque 1
62
4
5
151
100
AcDbEntity
100
AcDbLine
10
-1208.557908
20
-858.710047
30
0.0
11
-1205.863702
21
-857.743775
31
0.0
0
LINE
8
Calque 1
62
4
5
152
100
AcDbEntity
100
AcDbLine
10
-1205.863702
20
-857.743775
30
0.0
11
-1203.587805
21
-857.377422
31
0.0
0
LINE
8
Calque 1
62
4
5
153
100
AcDbEntity
100
AcDbLine
10
-1203.587805
20
-857.377422
30
0.0
11
-1199.296334
21
-856.280227
31
0.0
0
LINE
8
Calque 1
62
4
5
154
100
AcDbEntity
100
AcDbLine
10
-1199.296334
20
-856.280227
30
0.0
11
-1190.745029
21
-854.699161
31
0.0
0
LINE
8
Calque 1
62
4
5
155
100
AcDbEntity
100
AcDbLine
10
-1190.745029
20
-854.699161
30
0.0
11
-1186.488046
21
-854.205103
31
0.0
0
LINE
8
Calque 1
62
4
5
156
100
AcDbEntity
100
AcDbLine
10
-1186.488046
20
-854.205103
30
0.0
11
-1184.661221
21
-853.968996
31
0.0
0
LINE
8
Calque 1
62
4
5
157
100
AcDbEntity
100
AcDbLine
10
-1184.661221
20
-853.968996
30
0.0
11
-1183.179554
21
-854.108216
31
0.0
0
LINE
8
Calque 1
62
4
5
158
100
AcDbEntity
100
AcDbLine
10
-1183.179554
20
-854.108216
30
0.0
11
-1173.452878
21
-853.166638
31
0.0
0
LINE
8
Calque 1
62
4
5
159
100
AcDbEntity
100
AcDbLine
10
-1173.452878
20
-853.166638
30
0.0
11
-1168.267779
21
-853.404890
31
0.0
0
LINE
8
Calque 1
62
4
5
15a
100
AcDbEntity
100
AcDbLine
10
-1168.267779
20
-853.404890
30
0.0
11
-1166.038872
21
-853.845721
31
0.0
0
LINE
8
Calque 1
62
4
5
15b
100
AcDbEntity
100
AcDbLine
10
-1166.038872
20
-853.845721
30
0.0
11
-1164.843323
21
-853.795288
31
0.0
0
LINE
8
Calque 1
62
4
5
15c
100
AcDbEntity
100
AcDbLine
10
-1164.843323
20
-853.795288
30
0.0
11
-1164.198134
21
-854.209760
31
0.0
0
LINE
8
Calque 1
62
4
5
15d
100
AcDbEntity
100
AcDbLine
10
-1164.198134
20
-854.209760
30
0.0
11
-1163.100149
21
-854.514842
31
0.0
0
LINE
8
Calque 1
62
4
5
15e
100
AcDbEntity
100
AcDbLine
10
-1163.100149
20
-854.514842
30
0.0
11
-1162.186257
21
-855.090237
31
0.0
0
LINE
8
Calque 1
62
4
5
15f
100
AcDbEntity
100
AcDbLine
10
-1162.186257
20
-855.090237
30
0.0
11
-1161.262459
21
-857.154608
31
0.0
0
LINE
8
Calque 1
62
4
5
160
100
AcDbEntity
100
AcDbLine
10
-1161.262459
20
-857.154608
30
0.0
11
-1160.251680
21
-859.293231
31
0.0
0
LINE
8
Calque 1
62
4
5
161
100
AcDbEntity
100
AcDbLine
10
-1160.251680
20
-859.293231
30
0.0
11
-1159.160806
21
-860.893008
31
0.0
0
LINE
8
Calque 1
62
4
5
162
100
AcDbEntity
100
AcDbLine
10
-1159.160806
20
-860.893008
30
0.0
11
-1155.101915
21
-868.446065
31
0.0
0
LINE
8
Calque 1
62
4
5
163
100
AcDbEntity
100
AcDbLine
10
-1155.101915
20
-868.446065
30
0.0
11
-1153.858782
21
-870.250452
31
0.0
0
LINE
8
Calque 1
62
4
5
164
100
AcDbEntity
100
AcDbLine
10
-1153.858782
20
-870.250452
30
0.0
11
-1152.365516
21
-871.678553
31
0.0
0
LINE
8
Calque 1
62
4
5
165
100
AcDbEntity
100
AcDbLine
10
-1152.365516
20
-871.678553
30
0.0
11
-1151.409093
21
-872.112950
31
0.0
0
LINE
8
Calque 1
62
4
5
166
100
AcDbEntity
100
AcDbLine
10
-1151.409093
20
-872.112950
30
0.0
11
-1150.289772
21
-872.017022
31
0.0
0
LINE
8
Calque 1
62
4
5
167
100
AcDbEntity
100
AcDbLine
10
-1150.289772
20
-872.017022
30
0.0
11
-1148.578912
21
-871.870380
31
0.0
0
LINE
8
Calque 1
62
4
5
168
100
AcDbEntity
100
AcDbLine
10
-1148.578912
20
-871.870380
30
0.0
11
-1146.718786
21
-871.031418
31
0.0
0
LINE
8
Calque 1
62
4
5
169
100
AcDbEntity
100
AcDbLine
10
-1146.718786
20
-871.031418
30
0.0
11
-1145.796314
21
-870.445270
31
0.0
0
LINE
8
Calque 1
62
4
5
16a
100
AcDbEntity
100
AcDbLine
10
-1145.796314
20
-870.445270
30
0.0
11
-1145.805628
21
-869.428960
31
0.0
0
LINE
8
Calque 1
62
4
5
16b
100
AcDbEntity
100
AcDbLine
10
-1145.805628
20
-869.428960
30
0.0
11
-1145.839833
21
-865.702526
31
0.0
0
LINE
8
Calque 1
62
4
5
16c
100
AcDbEntity
100
AcDbLine
10
-1145.839833
20
-865.702526
30
0.0
11
-1146.214652
21
-861.573530
31
0.0
0
LINE
8
Calque 1
62
4
5
16d
100
AcDbEntity
100
AcDbLine
10
-1146.214652
20
-861.573530
30
0.0
11
-1146.249648
21
-857.759410
31
0.0
0
LINE
8
Calque 1
62
4
5
16e
100
AcDbEntity
100
AcDbLine
10
-1146.249648
20
-857.759410
30
0.0
11
-1146.206609
21
-853.263582
31
0.0
0
LINE
8
Calque 1
62
4
5
16f
100
AcDbEntity
100
AcDbLine
10
-1146.206609
20
-853.263582
30
0.0
11
-1145.972731
21
-851.220180
31
0.0
0
LINE
8
Calque 1
62
4
5
170
100
AcDbEntity
100
AcDbLine
10
-1145.972731
20
-851.220180
30
0.0
11
-1145.224560
21
-850.346025
31
0.0
0
LINE
8
Calque 1
62
4
5
171
100
AcDbEntity
100
AcDbLine
10
-1145.224560
20
-850.346025
30
0.0
11
-1145.310751
21
-850.095383
31
0.0
0
LINE
8
Calque 1
62
4
5
172
100
AcDbEntity
100
AcDbLine
10
-1145.310751
20
-850.095383
30
0.0
11
-1144.404789
21
-848.459567
31
0.0
0
LINE
8
Calque 1
62
4
5
173
100
AcDbEntity
100
AcDbLine
10
-1144.404789
20
-848.459567
30
0.0
11
-1143.251855
21
-846.992096
31
0.0
0
LINE
8
Calque 1
62
4
5
174
100
AcDbEntity
100
AcDbLine
10
-1143.251855
20
-846.992096
30
0.0
11
-1141.704007
21
-844.264813
31
0.0
0
LINE
8
Calque 1
62
4
5
175
100
AcDbEntity
100
AcDbLine
10
-1141.704007
20
-844.264813
30
0.0
11
-1140.414844
21
-841.394303
31
0.0
0
LINE
8
Calque 1
62
4
5
176
100
AcDbEntity
100
AcDbLine
10
-1140.414844
20
-841.394303
30
0.0
11
-1139.706100
21
-838.379577
31
0.0
0
LINE
8
Calque 1
62
4
5
177
100
AcDbEntity
100
AcDbLine
10
-1139.706100
20
-838.379577
30
0.0
11
-1139.060601
21
-837.624519
31
0.0
0
LINE
8
Calque 1
62
4
5
178
100
AcDbEntity
100
AcDbLine
10
-1139.060601
20
-837.624519
30
0.0
11
-1138.495254
21
-837.204968
31
0.0
0
LINE
8
Calque 1
62
4
5
179
100
AcDbEntity
100
AcDbLine
10
-1138.495254
20
-837.204968
30
0.0
11
-1136.720132
21
-836.781155
31
0.0
0
LINE
8
Calque 1
62
4
5
17a
100
AcDbEntity
100
AcDbLine
10
-1136.720132
20
-836.781155
30
0.0
11
-1135.758404
21
-836.528989
31
0.0
0
LINE
8
Calque 1
62
4
5
17b
100
AcDbEntity
100
AcDbLine
10
-1135.758404
20
-836.528989
30
0.0
11
-1135.283367
21
-835.949276
31
0.0
0
LINE
8
Calque 1
62
4
5
17c
100
AcDbEntity
100
AcDbLine
10
-1135.283367
20
-835.949276
30
0.0
11
-1135.192040
21
-835.691156
31
0.0
0
LINE
8
Calque 1
62
4
5
17d
100
AcDbEntity
100
AcDbLine
10
-1135.192040
20
-835.691156
30
0.0
11
-1134.720164
21
-835.729736
31
0.0
0
LINE
8
Calque 1
62
4
5
17e
100
AcDbEntity
100
AcDbLine
10
-1134.720164
20
-835.729736
30
0.0
11
-1134.701256
21
-835.729736
31
0.0
0
LINE
8
Calque 1
62
4
5
17f
100
AcDbEntity
100
AcDbLine
10
-1134.701256
20
-835.729736
30
0.0
11
-1134.648875
21
-835.738202
31
0.0
0
LINE
8
Calque 1
62
4
5
180
100
AcDbEntity
100
AcDbLine
10
-1134.648875
20
-835.738202
30
0.0
11
-1132.697280
21
-834.709305
31
0.0
0
LINE
8
Calque 1
62
4
5
181
100
AcDbEntity
100
AcDbLine
10
-1132.697280
20
-834.709305
30
0.0
11
-1131.731854
21
-834.456744
31
0.0
0
LINE
8
Calque 1
62
4
5
182
100
AcDbEntity
100
AcDbLine
10
-1131.731854
20
-834.456744
30
0.0
11
-1130.859618
21
-833.918067
31
0.0
0
LINE
8
Calque 1
62
4
5
183
100
AcDbEntity
100
AcDbLine
10
-1130.859618
20
-833.918067
30
0.0
11
-1130.126716
21
-833.594640
31
0.0
0
LINE
8
Calque 1
62
4
5
184
100
AcDbEntity
100
AcDbLine
10
-1130.126716
20
-833.594640
30
0.0
11
-1127.775917
21
-831.764514
31
0.0
0
LINE
8
Calque 1
62
4
5
185
100
AcDbEntity
100
AcDbLine
10
-1127.775917
20
-831.764514
30
0.0
11
-1127.642454
21
-831.672453
31
0.0
0
LINE
8
Calque 1
62
4
5
186
100
AcDbEntity
100
AcDbLine
10
-1127.642454
20
-831.672453
30
0.0
11
-1127.538935
21
-831.601050
31
0.0
0
LINE
8
Calque 1
62
4
5
187
100
AcDbEntity
100
AcDbLine
10
-1127.538935
20
-831.601050
30
0.0
11
-1125.604669
21
-830.266873
31
0.0
0
LINE
8
Calque 1
62
4
5
188
100
AcDbEntity
100
AcDbLine
10
-1125.604669
20
-830.266873
30
0.0
11
-1125.331026
21
-830.155367
31
0.0
0
LINE
8
Calque 1
62
4
5
189
100
AcDbEntity
100
AcDbLine
10
-1125.331026
20
-830.155367
30
0.0
11
-1125.014232
21
-830.004011
31
0.0
0
LINE
8
Calque 1
62
4
5
18a
100
AcDbEntity
100
AcDbLine
10
-1125.014232
20
-830.004011
30
0.0
11
-1124.696111
21
-829.567837
31
0.0
0
LINE
8
Calque 1
62
4
5
18b
100
AcDbEntity
100
AcDbLine
10
-1124.696111
20
-829.567837
30
0.0
11
-1124.340821
21
-829.133045
31
0.0
0
LINE
8
Calque 1
62
4
5
18c
100
AcDbEntity
100
AcDbLine
10
-1124.340821
20
-829.133045
30
0.0
11
-1124.264875
21
-828.929845
31
0.0
0
LINE
8
Calque 1
62
4
5
18d
100
AcDbEntity
100
AcDbLine
10
-1124.264875
20
-828.929845
30
0.0
11
-1124.264875
21
-828.929845
31
0.0
0
LINE
8
Calque 1
62
4
5
18e
100
AcDbEntity
100
AcDbLine
10
-1124.264875
20
-828.929845
30
0.0
11
-1124.122918
21
-828.344460
31
0.0
0
LINE
8
Calque 1
62
4
5
18f
100
AcDbEntity
100
AcDbLine
10
-1124.122918
20
-828.344460
30
0.0
11
-1124.078976
21
-828.217319
31
0.0
0
LINE
8
Calque 1
62
4
5
190
100
AcDbEntity
100
AcDbLine
10
-1124.078976
20
-828.217319
30
0.0
11
-1123.929595
21
-827.577154
31
0.0
0
LINE
8
Calque 1
62
4
5
191
100
AcDbEntity
100
AcDbLine
10
-1123.929595
20
-827.577154
30
0.0
11
-1124.078976
21
-826.863330
31
0.0
0
LINE
8
Calque 1
62
4
5
192
100
AcDbEntity
100
AcDbLine
10
-1124.078976
20
-826.863330
30
0.0
11
-1124.122918
21
-826.736188
31
0.0
0
LINE
8
Calque 1
62
4
5
193
100
AcDbEntity
100
AcDbLine
10
-1124.122918
20
-826.736188
30
0.0
11
-1124.264875
21
-826.150831
31
0.0
0
LINE
8
Calque 1
62
4
5
194
100
AcDbEntity
100
AcDbLine
10
-1124.264875
20
-826.150831
30
0.0
11
-1124.340821
21
-825.947575
31
0.0
0
LINE
8
Calque 1
62
4
5
195
100
AcDbEntity
100
AcDbLine
10
-1124.340821
20
-825.947575
30
0.0
11
-1124.696111
21
-825.512812
31
0.0
0
LINE
8
Calque 1
62
4
5
196
100
AcDbEntity
100
AcDbLine
10
-1124.696111
20
-825.512812
30
0.0
11
-1125.014232
21
-825.076637
31
0.0
0
LINE
8
Calque 1
62
4
5
197
100
AcDbEntity
100
AcDbLine
10
-1125.014232
20
-825.076637
30
0.0
11
-1125.331026
21
-824.925310
31
0.0
0
LINE
8
Calque 1
62
4
5
198
100
AcDbEntity
100
AcDbLine
10
-1125.331026
20
-824.925310
30
0.0
11
-1125.604669
21
-824.813775
31
0.0
0
LINE
8
Calque 1
62
4
5
199
100
AcDbEntity
100
AcDbLine
10
-1125.604669
20
-824.813775
30
0.0
11
-1127.775917
21
-823.316163
31
0.0
0
LINE
8
Calque 1
62
4
5
19a
100
AcDbEntity
100
AcDbLine
10
-1127.775917
20
-823.316163
30
0.0
11
-1130.126716
21
-821.486037
31
0.0
0
LINE
8
Calque 1
62
4
5
19b
100
AcDbEntity
100
AcDbLine
10
-1130.126716
20
-821.486037
30
0.0
11
-1130.859618
21
-821.162610
31
0.0
0
LINE
8
Calque 1
62
4
5
19c
100
AcDbEntity
100
AcDbLine
10
-1130.859618
20
-821.162610
30
0.0
11
-1131.731854
21
-820.623904
31
0.0
0
LINE
8
Calque 1
62
4
5
19d
100
AcDbEntity
100
AcDbLine
10
-1131.731854
20
-820.623904
30
0.0
11
-1132.697280
21
-820.371344
31
0.0
0
LINE
8
Calque 1
62
4
5
19e
100
AcDbEntity
100
AcDbLine
10
-1132.697280
20
-820.371344
30
0.0
11
-1134.648875
21
-819.342474
31
0.0
0
LINE
8
Calque 1
62
4
5
19f
100
AcDbEntity
100
AcDbLine
10
-1134.648875
20
-819.342474
30
0.0
11
-1134.701256
21
-819.350941
31
0.0
0
LINE
8
Calque 1
62
4
5
1a0
100
AcDbEntity
100
AcDbLine
10
-1134.701256
20
-819.350941
30
0.0
11
-1134.720164
21
-819.350941
31
0.0
0
LINE
8
Calque 1
62
4
5
1a1
100
AcDbEntity
100
AcDbLine
10
-1134.720164
20
-819.350941
30
0.0
11
-1135.839853
21
-819.442522
31
0.0
0
LINE
8
Calque 1
62
4
5
1a2
100
AcDbEntity
100
AcDbLine
10
-1135.839853
20
-819.442522
30
0.0
11
-1135.924491
21
-818.429909
31
0.0
0
LINE
8
Calque 1
62
4
5
1a3
100
AcDbEntity
100
AcDbLine
10
-1135.924491
20
-818.429909
30
0.0
11
-1136.490290
21
-817.993960
31
0.0
0
LINE
8
Calque 1
62
4
5
1a4
100
AcDbEntity
100
AcDbLine
10
-1136.490290
20
-817.993960
30
0.0
11
-1136.818233
21
-817.318348
31
0.0
0
LINE
8
Calque 1
62
4
5
1a5
100
AcDbEntity
100
AcDbLine
10
-1136.818233
20
-817.318348
30
0.0
11
-1137.548003
21
-816.873030
31
0.0
0
LINE
8
Calque 1
62
4
5
1a6
100
AcDbEntity
100
AcDbLine
10
-1137.548003
20
-816.873030
30
0.0
11
-1139.094214
21
-816.223862
31
0.0
0
LINE
8
Calque 1
62
4
5
1a7
100
AcDbEntity
100
AcDbLine
10
-1139.094214
20
-816.223862
30
0.0
11
-1140.402144
21
-815.998846
31
0.0
0
LINE
8
Calque 1
62
4
5
1a8
100
AcDbEntity
100
AcDbLine
10
-1140.402144
20
-815.998846
30
0.0
11
-1142.737223
21
-812.704241
31
0.0
0
LINE
8
Calque 1
62
4
5
1a9
100
AcDbEntity
100
AcDbLine
10
-1142.737223
20
-812.704241
30
0.0
11
-1144.594640
21
-809.572167
31
0.0
0
LINE
8
Calque 1
62
4
5
1aa
100
AcDbEntity
100
AcDbLine
10
-1144.594640
20
-809.572167
30
0.0
11
-1145.197918
21
-807.594805
31
0.0
0
LINE
8
Calque 1
62
4
5
1ab
100
AcDbEntity
100
AcDbLine
10
-1145.197918
20
-807.594805
30
0.0
11
-1145.539407
21
-806.897180
31
0.0
0
LINE
8
Calque 1
62
4
5
1ac
100
AcDbEntity
100
AcDbLine
10
-1145.539407
20
-806.897180
30
0.0
11
-1146.047238
21
-806.441052
31
0.0
0
LINE
8
Calque 1
62
4
5
1ad
100
AcDbEntity
100
AcDbLine
10
-1146.047238
20
-806.441052
30
0.0
11
-1147.087481
21
-803.235234
31
0.0
0
LINE
8
Calque 1
62
4
5
1ae
100
AcDbEntity
100
AcDbLine
10
-1147.087481
20
-803.235234
30
0.0
11
-1147.797213
21
-799.617004
31
0.0
0
LINE
8
Calque 1
62
4
5
1af
100
AcDbEntity
100
AcDbLine
10
-1147.797213
20
-799.617004
30
0.0
11
-1148.237057
21
-797.881309
31
0.0
0
LINE
8
Calque 1
62
4
5
1b0
100
AcDbEntity
100
AcDbLine
10
-1148.237057
20
-797.881309
30
0.0
11
-1148.251168
21
-796.350535
31
0.0
0
LINE
8
Calque 1
62
4
5
1b1
100
AcDbEntity
100
AcDbLine
10
-1148.251168
20
-796.350535
30
0.0
11
-1148.535027
21
-793.179232
31
0.0
0
LINE
8
Calque 1
62
4
5
1b2
100
AcDbEntity
100
AcDbLine
10
-1148.535027
20
-793.179232
30
0.0
11
-1149.586135
21
-790.009482
31
0.0
0
LINE
8
Calque 1
62
4
5
1b3
100
AcDbEntity
100
AcDbLine
10
-1149.586135
20
-790.009482
30
0.0
11
-1151.421172
21
-786.224741
31
0.0
0
LINE
8
Calque 1
62
4
5
1b4
100
AcDbEntity
100
AcDbLine
10
-1151.421172
20
-786.224741
30
0.0
11
-1152.643590
21
-784.714682
31
0.0
0
LINE
8
Calque 1
62
4
5
1b5
100
AcDbEntity
100
AcDbLine
10
-1152.643590
20
-784.714682
30
0.0
11
-1153.253416
21
-784.386514
31
0.0
0
LINE
8
Calque 1
62
4
5
1b6
100
AcDbEntity
100
AcDbLine
10
-1153.253416
20
-784.386514
30
0.0
11
-1154.036949
21
-784.295611
31
0.0
0
LINE
8
Calque 1
62
4
5
1b7
100
AcDbEntity
100
AcDbLine
10
-1154.036949
20
-784.295611
30
0.0
11
-1154.036836
21
-784.295131
31
0.0
  0
ENDSEC
  0
SECTION
  2
OBJECTS
  0
DICTIONARY
  5
C
330
0
100
AcDbDictionary
  3
ACAD_GROUP
350
D
  3
ACAD_MLINESTYLE
350
17
  0
DICTIONARY
  5
D
330
C
100
AcDbDictionary
  0
DICTIONARY
  5
1A
330
C
100
AcDbDictionary
  0
DICTIONARY
  5
17
330
C
100
AcDbDictionary
  3
STANDARD
350
18
  0
DICTIONARY
  5
19
330
C
100
AcDbDictionary
  0
ENDSEC
  0
EOF
