<?xml version="1.0" standalone="no"?>
<!DOCTYPE svg PUBLIC "-//W3C//DTD SVG 1.1//EN" "http://www.w3.org/Graphics/SVG/1.1/DTD/svg11.dtd">
<svg width="2067.4140668220743mm" height="2450.170848963487mm"
 viewBox="0 0 2067.4140668220743 2450.170848963487"
 xmlns="http://www.w3.org/2000/svg" version="1.1"
 xmlns:xlink="http://www.w3.org/1999/xlink">
<desc>Output from Flights of Ideas SVG Sketchup Plugin</desc>

  <path id="face0-cut"
 style="fill:none;stroke:#0000FF;stroke-width:1;stroke-miterlimit:4;stroke-dasharray:none;stroke-linejoin:round;stroke-linecap:round"
        d="M 294.89598718178763,1115.866687111662 L 281.2488677015742,1175.5127416398996 L 258.0675826254844,1218.2363843641997 L 218.8285444641274,1333.7724985895616 L 169.55519052956947,1431.9689492407124 L 112.45766560631091,1517.3924156218586 L 103.00841350957899,1545.1065027524032 L 81.37339731018119,1573.127917236423 L 59.88894563970939,1626.6069358084928 L 30.975159808369654,1682.8241329333687 L 11.511924384052008,1708.888269619557 L 14.147247314621609,1727.3185461452686 L 14.677453075561289,1785.1668206707 L 10.0,1813.1403042535735 L 17.565998093443113,1831.3384467763603 L 44.75384000917916,1846.321120574109 L 64.36152765446809,1847.7478099844784 L 93.59717981403264,1844.1328265019038 L 115.33828718931318,1831.6835840742178 L 237.11970643275163,1774.119582873498 L 291.2116989323274,1749.396508239618 L 342.5481495965387,1733.9844820171138 L 404.88917007301575,1711.598777564102 L 457.55100369319837,1703.1115850336814 L 556.851923138658,1677.6925755408092 L 754.7199447040307,1641.0636807970745 L 853.2225157745102,1629.6178293816893 L 895.4935103296275,1624.147320236842 L 929.7779668993776,1627.3733440711908 L 1154.8429117451797,1605.5595733074674 L 1274.8206770951017,1611.0795886259798 L 1326.3960071791312,1621.2919859581384 L 1354.0596353383353,1620.1238131812752 L 1368.9881715621893,1629.725632532472 L 1394.395113114007,1636.7933779518053 L 1415.5410415268223,1650.1238304273725 L 1436.9175877699374,1697.9497069902 L 1460.3055265195321,1747.4949855766931 L 1485.547423743142,1784.5580041103053 L 1579.4662721093769,1959.5407339046546 L 1608.2305498836463,2001.3431446763611 L 1642.783536167365,2034.4287325702276 L 1664.913884643081,2044.4922878639454 L 1690.8144821193903,2042.2696678549487 L 1730.4015828567697,2038.8725615804187 L 1773.4431949522173,2019.436053486982 L 1794.7885373606766,2005.8566434156678 L 1794.5727376725645,1982.311747209464 L 1793.781472148782,1895.9804611198742 L 1785.1082762513165,1800.3237238336142 L 1784.2983910997302,1711.9609371050597 L 1785.2940250457848,1607.8057293407314 L 1790.7063265909776,1560.4656901815897 L 1808.018024624823,1540.2136928155637 L 1806.023705089266,1534.4067326787576 L 1826.986634850342,1496.5097650202347 L 1853.6648774729229,1462.5130976294495 L 1889.4798078473202,1399.3294074811715 L 1919.3099804401152,1332.8276602406286 L 1935.709336425349,1262.9846850427593 L 1950.6454887624295,1245.492582119171 L 1963.7275836507506,1235.7721238607219 L 2004.802123798429,1225.9541260275068 L 2027.0556215213294,1220.111567772206 L 2038.0476161774234,1206.6816721682712 L 2048.856807236757,1176.0899546102542 L 2050.299985517932,1132.1629506678 L 2057.4140668220743,1103.5748730673658 L 2051.0950374541426,1017.5989041391002 L 2024.2653333463868,915.6762555868899 L 2025.2954484277336,825.7544451280618 L 2023.2123944122627,800.7950057057752 L 2010.1198668800366,790.6950134475968 L 2002.5321722369754,775.0436245329118 L 1985.6461690126857,764.7266366273117 L 1949.8680406981648,749.6876056647378 L 1919.603885640859,744.4739484721523 L 1865.5724877334842,668.1472253556791 L 1822.5940044191718,595.5864312583332 L 1808.6342936923547,549.7768329843851 L 1800.732418710312,533.6143595754228 L 1788.9821271821563,523.0468067611517 L 1764.912010855287,448.77746475530796 L 1748.4893355000966,364.9529325310988 L 1738.311706493222,324.74202668774853 L 1737.9866662074314,289.27839901894197 L 1731.4185430045584,215.8085668850964 L 1707.0965653065828,142.37455233649007 L 1664.6360112548748,54.69271295378428 L 1636.3504692533584,19.708504136416195 L 1622.2397688496108,12.10614095242181 L 1604.1100014606043,10.0 L 1563.6790561256441,15.313441279587096 L 1549.4928476808552,21.69902099915589 L 1541.4737122003125,36.833883721760685 L 1519.2990733341012,72.54132369274566 L 1505.2089064571703,103.22722738273069 L 1434.0264105484248,243.75462002505424 L 1421.7123029144257,267.00061388604456 L 1419.7688365588924,283.0794304569629 L 1415.8795294486317,315.2567076391848 L 1401.4205346831789,338.4606131411871 L 1397.367187699034,354.4177775805009 L 1389.2505632189054,386.37120077036354 L 1366.3929865426476,423.4133858094382 L 1343.338398748197,450.3797568172821 L 1266.5713856421457,475.8869742327357 L 1188.425146741731,476.8249797997404 L 1162.2110078140968,487.56327169580084 L 1144.5853061050557,486.40012480120106 L 1116.717950134269,479.4313127111644 L 1002.5543255548018,465.91401193725176 L 944.4957934684508,453.72668862420016 L 885.8830240806508,449.96300526488665 L 826.5492018378928,437.5547649463607 L 762.3365627493152,433.3807323204734 L 636.0172123169881,425.16955929555377 L 506.7060389266402,412.3383937672121 L 443.25305699143905,412.63925552955254 L 378.8709902107156,390.550216665877 L 341.7621783438309,379.0982079181664 L 316.04170178886716,363.8633262605796 L 259.5011441378888,328.3269786433249 L 204.67338179400235,281.24596745066515 L 173.44696703392447,253.8415776694785 L 156.5612938143338,238.8484565660982 L 151.82648270287655,245.32411885737213 L 113.30177319326776,242.32501065230701 L 84.34445084262666,251.54933455850016 L 50.46479597325083,271.9701284418911 L 36.02597274317873,296.24852771566464 L 33.93672912517809,335.2978083695133 L 43.97896194399323,363.6433185337545 L 76.24728224491741,427.84723904467694 L 103.50183653331624,491.43050526975196 L 140.28129189335937,557.5001461950186 L 174.4204065224494,620.770392523582 L 196.44276562272785,680.9212341030155 L 240.30453616369346,807.3554556364803 L 271.5374957518575,871.5775680810729 L 286.20855054592687,935.1564358897941 L 272.4702186630045,973.3426091113939 L 249.09592656079099,993.3847396581301 L 211.30006743205217,1004.2526909039451 L 204.31189095736613,1020.090738677514 L 211.52929240702588,1029.2623574385325 L 216.44701311025233,1047.4913347241272 L 230.80132938305837,1061.2306248950104 L 252.3077710100565,1086.307128288678 L 280.658985184205,1097.750957353412 L 297.1550929456788,1106.845355254064 L 294.89598718178763,1115.866687111662 "
  />
  <path id="face1-cut"
 style="fill:none;stroke:#0000FF;stroke-width:1;stroke-miterlimit:4;stroke-dasharray:none;stroke-linejoin:round;stroke-linecap:round"
        d="M 791.2391150428148,2279.5226369152047 L 794.5236935950187,2265.9612162170256 L 795.5406823344825,2263.015425804092 L 798.9967434017851,2248.1851711460536 L 795.5406893569266,2231.647770703188 L 794.5236969005316,2228.7019763525445 L 791.2391174910447,2215.140533540673 L 789.4820959051668,2210.43258310686 L 781.2611807466192,2200.3597859988226 L 773.8999771498322,2190.2548401670037 L 766.5694464149078,2186.748983556976 L 760.2375100951173,2184.1650280698072 L 709.9969111895992,2149.4694754870407 L 655.6022155204632,2107.070559052088 L 638.6431111611207,2099.577982922262 L 618.4609012883361,2087.0978283171166 L 596.1221460324186,2081.2466333766065 L 550.9638052156483,2057.4103953047215 L 549.7515069553692,2057.605540616608 L 549.3156467708361,2057.6001049134106 L 518.5301082947396,2060.120452619766 L 507.7708258360333,2061.1879807985197 L 485.1583769602712,2070.1217371907846 L 461.8480959462629,2072.293715882238 L 445.68026782770494,2065.0841568023357 L 391.33772233215745,2056.856697263622 L 383.8333468934893,2054.4922878639454 L 368.1189366355843,2060.6975477931396 L 305.3972531591676,2079.4769217541257 L 268.3381824141388,2112.686131707396 L 243.40704278075918,2113.2492509098042 L 193.95906930207912,2100.938608980494 L 159.79900308608944,2122.6361764342228 L 108.16063873835174,2160.784154079858 L 79.87270399458407,2186.682317340304 L 11.995244319037056,2246.150065773235 L 10.0,2247.3315964459553 L 11.995244319037056,2248.5131271186706 L 79.87270399458453,2307.980854916597 L 108.16063873835265,2333.8790206919793 L 159.79904974868873,2372.0269985729465 L 193.95907291409208,2393.7245308169713 L 243.40704278075918,2381.4139419821004 L 268.33818241413724,2381.977061184512 L 305.3972531591676,2415.1862711377803 L 368.1189366355834,2433.9655958989506 L 383.8333468934893,2440.170848963487 L 391.33772233215745,2437.806437487468 L 445.68026782770494,2429.5790170464393 L 461.8480806903044,2422.369460534952 L 485.15834742615925,2424.541442287849 L 507.77083992019425,2433.475204013082 L 518.5301234426747,2434.5427406561257 L 549.3156776750736,2437.063119071858 L 549.7515348426427,2437.057683452324 L 550.9638240972736,2437.2528264914517 L 596.1221460324177,2413.4165595152995 L 618.4609012883348,2407.5653473010066 L 638.6431111611223,2395.085187522738 L 655.6022294530053,2387.5926192474217 L 709.9969111895971,2345.1937051758773 L 713.0849721926176,2343.061127369859 L 715.4803571471023,2341.406903316058 L 760.2374852261443,2310.498168705863 L 766.5694256864664,2307.914210121686 L 773.8999667451375,2304.4083362525525 L 781.2611869931959,2294.303387696094 L 789.4821080489743,2284.230575254518 L 791.2391150428148,2279.5226369152047 "
  />
  <path id="face0-interior"
 style="fill:none;stroke:#FF0000;stroke-width:1;stroke-miterlimit:4;stroke-dasharray:none;stroke-linejoin:round;stroke-linecap:round"
        d="M 294.89598718178763,1115.866687111662 M 281.2488677015742,1175.5127416398996 M 258.0675826254844,1218.2363843641997 M 218.8285444641274,1333.7724985895616 M 169.55519052956947,1431.9689492407124 M 112.45766560631091,1517.3924156218586 M 103.00841350957899,1545.1065027524032 M 81.37339731018119,1573.127917236423 M 59.88894563970939,1626.6069358084928 M 30.975159808369654,1682.8241329333687 M 11.511924384052008,1708.888269619557 M 14.147247314621609,1727.3185461452686 M 14.677453075561289,1785.1668206707 M 10.0,1813.1403042535735 M 17.565998093443113,1831.3384467763603 M 44.75384000917916,1846.321120574109 M 64.36152765446809,1847.7478099844784 M 93.59717981403264,1844.1328265019038 M 115.33828718931318,1831.6835840742178 M 237.11970643275163,1774.119582873498 M 291.2116989323274,1749.396508239618 M 342.5481495965387,1733.9844820171138 M 404.88917007301575,1711.598777564102 M 457.55100369319837,1703.1115850336814 M 556.851923138658,1677.6925755408092 M 754.7199447040307,1641.0636807970745 M 853.2225157745102,1629.6178293816893 M 895.4935103296275,1624.147320236842 M 929.7779668993776,1627.3733440711908 M 1154.8429117451797,1605.5595733074674 M 1274.8206770951017,1611.0795886259798 M 1326.3960071791312,1621.2919859581384 M 1354.0596353383353,1620.1238131812752 M 1368.9881715621893,1629.725632532472 M 1394.395113114007,1636.7933779518053 M 1415.5410415268223,1650.1238304273725 M 1436.9175877699374,1697.9497069902 M 1460.3055265195321,1747.4949855766931 M 1485.547423743142,1784.5580041103053 M 1579.4662721093769,1959.5407339046546 M 1608.2305498836463,2001.3431446763611 M 1642.783536167365,2034.4287325702276 M 1664.913884643081,2044.4922878639454 M 1690.8144821193903,2042.2696678549487 M 1730.4015828567697,2038.8725615804187 M 1773.4431949522173,2019.436053486982 M 1794.7885373606766,2005.8566434156678 M 1794.5727376725645,1982.311747209464 M 1793.781472148782,1895.9804611198742 M 1785.1082762513165,1800.3237238336142 M 1784.2983910997302,1711.9609371050597 M 1785.2940250457848,1607.8057293407314 M 1790.7063265909776,1560.4656901815897 M 1808.018024624823,1540.2136928155637 M 1806.023705089266,1534.4067326787576 M 1826.986634850342,1496.5097650202347 M 1853.6648774729229,1462.5130976294495 M 1889.4798078473202,1399.3294074811715 M 1919.3099804401152,1332.8276602406286 M 1935.709336425349,1262.9846850427593 M 1950.6454887624295,1245.492582119171 M 1963.7275836507506,1235.7721238607219 M 2004.802123798429,1225.9541260275068 M 2027.0556215213294,1220.111567772206 M 2038.0476161774234,1206.6816721682712 M 2048.856807236757,1176.0899546102542 M 2050.299985517932,1132.1629506678 M 2057.4140668220743,1103.5748730673658 M 2051.0950374541426,1017.5989041391002 M 2024.2653333463868,915.6762555868899 M 2025.2954484277336,825.7544451280618 M 2023.2123944122627,800.7950057057752 M 2010.1198668800366,790.6950134475968 M 2002.5321722369754,775.0436245329118 M 1985.6461690126857,764.7266366273117 M 1949.8680406981648,749.6876056647378 M 1919.603885640859,744.4739484721523 M 1865.5724877334842,668.1472253556791 M 1822.5940044191718,595.5864312583332 M 1808.6342936923547,549.7768329843851 M 1800.732418710312,533.6143595754228 M 1788.9821271821563,523.0468067611517 M 1764.912010855287,448.77746475530796 M 1748.4893355000966,364.9529325310988 M 1738.311706493222,324.74202668774853 M 1737.9866662074314,289.27839901894197 M 1731.4185430045584,215.8085668850964 M 1707.0965653065828,142.37455233649007 M 1664.6360112548748,54.69271295378428 M 1636.3504692533584,19.708504136416195 M 1622.2397688496108,12.10614095242181 M 1604.1100014606043,10.0 M 1563.6790561256441,15.313441279587096 M 1549.4928476808552,21.69902099915589 M 1541.4737122003125,36.833883721760685 M 1519.2990733341012,72.54132369274566 M 1505.2089064571703,103.22722738273069 M 1434.0264105484248,243.75462002505424 M 1421.7123029144257,267.00061388604456 M 1419.7688365588924,283.0794304569629 M 1415.8795294486317,315.2567076391848 M 1401.4205346831789,338.4606131411871 M 1397.367187699034,354.4177775805009 M 1389.2505632189054,386.37120077036354 M 1366.3929865426476,423.4133858094382 M 1343.338398748197,450.3797568172821 M 1266.5713856421457,475.8869742327357 M 1188.425146741731,476.8249797997404 M 1162.2110078140968,487.56327169580084 M 1144.5853061050557,486.40012480120106 M 1116.717950134269,479.4313127111644 M 1002.5543255548018,465.91401193725176 M 944.4957934684508,453.72668862420016 M 885.8830240806508,449.96300526488665 M 826.5492018378928,437.5547649463607 M 762.3365627493152,433.3807323204734 M 636.0172123169881,425.16955929555377 M 506.7060389266402,412.3383937672121 M 443.25305699143905,412.63925552955254 M 378.8709902107156,390.550216665877 M 341.7621783438309,379.0982079181664 M 316.04170178886716,363.8633262605796 M 259.5011441378888,328.3269786433249 M 204.67338179400235,281.24596745066515 M 173.44696703392447,253.8415776694785 M 156.5612938143338,238.8484565660982 M 151.82648270287655,245.32411885737213 M 113.30177319326776,242.32501065230701 M 84.34445084262666,251.54933455850016 M 50.46479597325083,271.9701284418911 M 36.02597274317873,296.24852771566464 M 33.93672912517809,335.2978083695133 M 43.97896194399323,363.6433185337545 M 76.24728224491741,427.84723904467694 M 103.50183653331624,491.43050526975196 M 140.28129189335937,557.5001461950186 M 174.4204065224494,620.770392523582 M 196.44276562272785,680.9212341030155 M 240.30453616369346,807.3554556364803 M 271.5374957518575,871.5775680810729 M 286.20855054592687,935.1564358897941 M 272.4702186630045,973.3426091113939 M 249.09592656079099,993.3847396581301 M 211.30006743205217,1004.2526909039451 M 204.31189095736613,1020.090738677514 M 211.52929240702588,1029.2623574385325 M 216.44701311025233,1047.4913347241272 M 230.80132938305837,1061.2306248950104 M 252.3077710100565,1086.307128288678 M 280.658985184205,1097.750957353412 M 297.1550929456788,1106.845355254064 "
  />
  <path id="face1-interior"
 style="fill:none;stroke:#FF0000;stroke-width:1;stroke-miterlimit:4;stroke-dasharray:none;stroke-linejoin:round;stroke-linecap:round"
        d="M 791.2391150428148,2279.5226369152047 M 794.5236935950187,2265.9612162170256 M 795.5406823344825,2263.015425804092 M 798.9967434017851,2248.1851711460536 M 795.5406893569266,2231.647770703188 M 794.5236969005316,2228.7019763525445 M 791.2391174910447,2215.140533540673 M 789.4820959051668,2210.43258310686 M 781.2611807466192,2200.3597859988226 M 773.8999771498322,2190.2548401670037 M 766.5694464149078,2186.748983556976 M 760.2375100951173,2184.1650280698072 M 709.9969111895992,2149.4694754870407 M 655.6022155204632,2107.070559052088 M 638.6431111611207,2099.577982922262 M 618.4609012883361,2087.0978283171166 M 596.1221460324186,2081.2466333766065 M 550.9638052156483,2057.4103953047215 M 549.7515069553692,2057.605540616608 M 549.3156467708361,2057.6001049134106 M 518.5301082947396,2060.120452619766 M 507.7708258360333,2061.1879807985197 M 485.1583769602712,2070.1217371907846 M 461.8480959462629,2072.293715882238 M 445.68026782770494,2065.0841568023357 M 391.33772233215745,2056.856697263622 M 383.8333468934893,2054.4922878639454 M 368.1189366355843,2060.6975477931396 M 305.3972531591676,2079.4769217541257 M 268.3381824141388,2112.686131707396 M 243.40704278075918,2113.2492509098042 M 193.95906930207912,2100.938608980494 M 159.79900308608944,2122.6361764342228 M 108.16063873835174,2160.784154079858 M 79.87270399458407,2186.682317340304 M 11.995244319037056,2246.150065773235 M 10.0,2247.3315964459553 M 11.995244319037056,2248.5131271186706 M 79.87270399458453,2307.980854916597 M 108.16063873835265,2333.8790206919793 M 159.79904974868873,2372.0269985729465 M 193.95907291409208,2393.7245308169713 M 243.40704278075918,2381.4139419821004 M 268.33818241413724,2381.977061184512 M 305.3972531591676,2415.1862711377803 M 368.1189366355834,2433.9655958989506 M 383.8333468934893,2440.170848963487 M 391.33772233215745,2437.806437487468 M 445.68026782770494,2429.5790170464393 M 461.8480806903044,2422.369460534952 M 485.15834742615925,2424.541442287849 M 507.77083992019425,2433.475204013082 M 518.5301234426747,2434.5427406561257 M 549.3156776750736,2437.063119071858 M 549.7515348426427,2437.057683452324 M 550.9638240972736,2437.2528264914517 M 596.1221460324177,2413.4165595152995 M 618.4609012883348,2407.5653473010066 M 638.6431111611223,2395.085187522738 M 655.6022294530053,2387.5926192474217 M 709.9969111895971,2345.1937051758773 M 713.0849721926176,2343.061127369859 M 715.4803571471023,2341.406903316058 M 760.2374852261443,2310.498168705863 M 766.5694256864664,2307.914210121686 M 773.8999667451375,2304.4083362525525 M 781.2611869931959,2294.303387696094 M 789.4821080489743,2284.230575254518 "
  />
  <path id="face0-interior"
 style="fill:none;stroke:#00FF00;stroke-width:1;stroke-miterlimit:4;stroke-dasharray:none;stroke-linejoin:round;stroke-linecap:round"
        d="M 294.89598718178763,1115.866687111662 M 281.2488677015742,1175.5127416398996 M 258.0675826254844,1218.2363843641997 M 218.8285444641274,1333.7724985895616 M 169.55519052956947,1431.9689492407124 M 112.45766560631091,1517.3924156218586 M 103.00841350957899,1545.1065027524032 M 81.37339731018119,1573.127917236423 M 59.88894563970939,1626.6069358084928 M 30.975159808369654,1682.8241329333687 M 11.511924384052008,1708.888269619557 M 14.147247314621609,1727.3185461452686 M 14.677453075561289,1785.1668206707 M 10.0,1813.1403042535735 M 17.565998093443113,1831.3384467763603 M 44.75384000917916,1846.321120574109 M 64.36152765446809,1847.7478099844784 M 93.59717981403264,1844.1328265019038 M 115.33828718931318,1831.6835840742178 M 237.11970643275163,1774.119582873498 M 291.2116989323274,1749.396508239618 M 342.5481495965387,1733.9844820171138 M 404.88917007301575,1711.598777564102 M 457.55100369319837,1703.1115850336814 M 556.851923138658,1677.6925755408092 M 754.7199447040307,1641.0636807970745 M 853.2225157745102,1629.6178293816893 M 895.4935103296275,1624.147320236842 M 929.7779668993776,1627.3733440711908 M 1154.8429117451797,1605.5595733074674 M 1274.8206770951017,1611.0795886259798 M 1326.3960071791312,1621.2919859581384 M 1354.0596353383353,1620.1238131812752 M 1368.9881715621893,1629.725632532472 M 1394.395113114007,1636.7933779518053 M 1415.5410415268223,1650.1238304273725 M 1436.9175877699374,1697.9497069902 M 1460.3055265195321,1747.4949855766931 M 1485.547423743142,1784.5580041103053 M 1579.4662721093769,1959.5407339046546 M 1608.2305498836463,2001.3431446763611 M 1642.783536167365,2034.4287325702276 M 1664.913884643081,2044.4922878639454 M 1690.8144821193903,2042.2696678549487 M 1730.4015828567697,2038.8725615804187 M 1773.4431949522173,2019.436053486982 M 1794.7885373606766,2005.8566434156678 M 1794.5727376725645,1982.311747209464 M 1793.781472148782,1895.9804611198742 M 1785.1082762513165,1800.3237238336142 M 1784.2983910997302,1711.9609371050597 M 1785.2940250457848,1607.8057293407314 M 1790.7063265909776,1560.4656901815897 M 1808.018024624823,1540.2136928155637 M 1806.023705089266,1534.4067326787576 M 1826.986634850342,1496.5097650202347 M 1853.6648774729229,1462.5130976294495 M 1889.4798078473202,1399.3294074811715 M 1919.3099804401152,1332.8276602406286 M 1935.709336425349,1262.9846850427593 M 1950.6454887624295,1245.492582119171 M 1963.7275836507506,1235.7721238607219 M 2004.802123798429,1225.9541260275068 M 2027.0556215213294,1220.111567772206 M 2038.0476161774234,1206.6816721682712 M 2048.856807236757,1176.0899546102542 M 2050.299985517932,1132.1629506678 M 2057.4140668220743,1103.5748730673658 M 2051.0950374541426,1017.5989041391002 M 2024.2653333463868,915.6762555868899 M 2025.2954484277336,825.7544451280618 M 2023.2123944122627,800.7950057057752 M 2010.1198668800366,790.6950134475968 M 2002.5321722369754,775.0436245329118 M 1985.6461690126857,764.7266366273117 M 1949.8680406981648,749.6876056647378 M 1919.603885640859,744.4739484721523 M 1865.5724877334842,668.1472253556791 M 1822.5940044191718,595.5864312583332 M 1808.6342936923547,549.7768329843851 M 1800.732418710312,533.6143595754228 M 1788.9821271821563,523.0468067611517 M 1764.912010855287,448.77746475530796 M 1748.4893355000966,364.9529325310988 M 1738.311706493222,324.74202668774853 M 1737.9866662074314,289.27839901894197 M 1731.4185430045584,215.8085668850964 M 1707.0965653065828,142.37455233649007 M 1664.6360112548748,54.69271295378428 M 1636.3504692533584,19.708504136416195 M 1622.2397688496108,12.10614095242181 M 1604.1100014606043,10.0 M 1563.6790561256441,15.313441279587096 M 1549.4928476808552,21.69902099915589 M 1541.4737122003125,36.833883721760685 M 1519.2990733341012,72.54132369274566 M 1505.2089064571703,103.22722738273069 M 1434.0264105484248,243.75462002505424 M 1421.7123029144257,267.00061388604456 M 1419.7688365588924,283.0794304569629 M 1415.8795294486317,315.2567076391848 M 1401.4205346831789,338.4606131411871 M 1397.367187699034,354.4177775805009 M 1389.2505632189054,386.37120077036354 M 1366.3929865426476,423.4133858094382 M 1343.338398748197,450.3797568172821 M 1266.5713856421457,475.8869742327357 M 1188.425146741731,476.8249797997404 M 1162.2110078140968,487.56327169580084 M 1144.5853061050557,486.40012480120106 M 1116.717950134269,479.4313127111644 M 1002.5543255548018,465.91401193725176 M 944.4957934684508,453.72668862420016 M 885.8830240806508,449.96300526488665 M 826.5492018378928,437.5547649463607 M 762.3365627493152,433.3807323204734 M 636.0172123169881,425.16955929555377 M 506.7060389266402,412.3383937672121 M 443.25305699143905,412.63925552955254 M 378.8709902107156,390.550216665877 M 341.7621783438309,379.0982079181664 M 316.04170178886716,363.8633262605796 M 259.5011441378888,328.3269786433249 M 204.67338179400235,281.24596745066515 M 173.44696703392447,253.8415776694785 M 156.5612938143338,238.8484565660982 M 151.82648270287655,245.32411885737213 M 113.30177319326776,242.32501065230701 M 84.34445084262666,251.54933455850016 M 50.46479597325083,271.9701284418911 M 36.02597274317873,296.24852771566464 M 33.93672912517809,335.2978083695133 M 43.97896194399323,363.6433185337545 M 76.24728224491741,427.84723904467694 M 103.50183653331624,491.43050526975196 M 140.28129189335937,557.5001461950186 M 174.4204065224494,620.770392523582 M 196.44276562272785,680.9212341030155 M 240.30453616369346,807.3554556364803 M 271.5374957518575,871.5775680810729 M 286.20855054592687,935.1564358897941 M 272.4702186630045,973.3426091113939 M 249.09592656079099,993.3847396581301 M 211.30006743205217,1004.2526909039451 M 204.31189095736613,1020.090738677514 M 211.52929240702588,1029.2623574385325 M 216.44701311025233,1047.4913347241272 M 230.80132938305837,1061.2306248950104 M 252.3077710100565,1086.307128288678 M 280.658985184205,1097.750957353412 M 297.1550929456788,1106.845355254064 "
  />
  <path id="face1-interior"
 style="fill:none;stroke:#00FF00;stroke-width:1;stroke-miterlimit:4;stroke-dasharray:none;stroke-linejoin:round;stroke-linecap:round"
        d="M 791.2391150428148,2279.5226369152047 M 794.5236935950187,2265.9612162170256 M 795.5406823344825,2263.015425804092 M 798.9967434017851,2248.1851711460536 M 795.5406893569266,2231.647770703188 M 794.5236969005316,2228.7019763525445 M 791.2391174910447,2215.140533540673 M 789.4820959051668,2210.43258310686 M 781.2611807466192,2200.3597859988226 M 773.8999771498322,2190.2548401670037 M 766.5694464149078,2186.748983556976 M 760.2375100951173,2184.1650280698072 M 709.9969111895992,2149.4694754870407 M 655.6022155204632,2107.070559052088 M 638.6431111611207,2099.577982922262 M 618.4609012883361,2087.0978283171166 M 596.1221460324186,2081.2466333766065 M 550.9638052156483,2057.4103953047215 M 549.7515069553692,2057.605540616608 M 549.3156467708361,2057.6001049134106 M 518.5301082947396,2060.120452619766 M 507.7708258360333,2061.1879807985197 M 485.1583769602712,2070.1217371907846 M 461.8480959462629,2072.293715882238 M 445.68026782770494,2065.0841568023357 M 391.33772233215745,2056.856697263622 M 383.8333468934893,2054.4922878639454 M 368.1189366355843,2060.6975477931396 M 305.3972531591676,2079.4769217541257 M 268.3381824141388,2112.686131707396 M 243.40704278075918,2113.2492509098042 M 193.95906930207912,2100.938608980494 M 159.79900308608944,2122.6361764342228 M 108.16063873835174,2160.784154079858 M 79.87270399458407,2186.682317340304 M 11.995244319037056,2246.150065773235 M 10.0,2247.3315964459553 M 11.995244319037056,2248.5131271186706 M 79.87270399458453,2307.980854916597 M 108.16063873835265,2333.8790206919793 M 159.79904974868873,2372.0269985729465 M 193.95907291409208,2393.7245308169713 M 243.40704278075918,2381.4139419821004 M 268.33818241413724,2381.977061184512 M 305.3972531591676,2415.1862711377803 M 368.1189366355834,2433.9655958989506 M 383.8333468934893,2440.170848963487 M 391.33772233215745,2437.806437487468 M 445.68026782770494,2429.5790170464393 M 461.8480806903044,2422.369460534952 M 485.15834742615925,2424.541442287849 M 507.77083992019425,2433.475204013082 M 518.5301234426747,2434.5427406561257 M 549.3156776750736,2437.063119071858 M 549.7515348426427,2437.057683452324 M 550.9638240972736,2437.2528264914517 M 596.1221460324177,2413.4165595152995 M 618.4609012883348,2407.5653473010066 M 638.6431111611223,2395.085187522738 M 655.6022294530053,2387.5926192474217 M 709.9969111895971,2345.1937051758773 M 713.0849721926176,2343.061127369859 M 715.4803571471023,2341.406903316058 M 760.2374852261443,2310.498168705863 M 766.5694256864664,2307.914210121686 M 773.8999667451375,2304.4083362525525 M 781.2611869931959,2294.303387696094 M 789.4821080489743,2284.230575254518 "
  />
</svg>
