999
Inkscape export via "Better DXF Output" (bob@bobcookdev.com)
  0
SECTION
  2
HEADER
  9
$ACADVER
  1
AC1014
  9
$HANDSEED
  5
FFFF
  0
ENDSEC
  0
SECTION
  2
TABLES
  0
TABLE
  2
VPORT
  5
8
330
0
100
AcDbSymbolTable
 70
     4
  0
VPORT
  5
2E
330
8
100
AcDbSymbolTableRecord
100
AcDbViewportTableRecord
  2
*ACTIVE
 70
     0
 10
0.0
 20
0.0
 11
1.0
 21
1.0
 12
4.25
 22
5.5
 13
0.0
 23
0.0
 14
10.0
 24
10.0
 15
10.0
 25
10.0
 16
0.0
 26
0.0
 36
1.0
 17
0.0
 27
0.0
 37
0.0
 40
11
 41
1.24
 42
50.0
 43
0.0
 44
0.0
 50
0.0
 51
0.0
 71
     0
 72
   100
 73
     1
 74
     3
 75
     0
 76
     0
 77
     0
 78
     0
  0
ENDTAB
  0
TABLE
  2
LTYPE
  5
5
330
0
100
AcDbSymbolTable
 70
     1
  0
LTYPE
  5
14
330
5
100
AcDbSymbolTableRecord
100
AcDbLinetypeTableRecord
  2
BYBLOCK
 70
     0
  3

 72
    65
 73
     0
 40
0.0
  0
LTYPE
  5
15
330
5
100
AcDbSymbolTableRecord
100
AcDbLinetypeTableRecord
  2
BYLAYER
 70
     0
  3

 72
    65
 73
     0
 40
0.0
  0
LTYPE
  5
16
330
5
100
AcDbSymbolTableRecord
100
AcDbLinetypeTableRecord
  2
CONTINUOUS
 70
     0
  3
Solid line
 72
    65
 73
     0
 40
0.0
  0
ENDTAB
  0
TABLE
  2
LAYER
  5
2
330
0
100
AcDbSymbolTable
 70
1
  0
LAYER
  5
10
330
2
100
AcDbSymbolTableRecord
100
AcDbLayerTableRecord
  2
0
 70
     0
 62
     7
  6
CONTINUOUS
  0
ENDTAB
  0
TABLE
  2
STYLE
  5
3
330
0
100
AcDbSymbolTable
 70
     1
  0
STYLE
  5
11
330
3
100
AcDbSymbolTableRecord
100
AcDbTextStyleTableRecord
  2
STANDARD
 70
     0
 40
0.0
 41
1.0
 50
0.0
 71
     0
 42
2.5
  3
txt
  4

  0
ENDTAB
  0
TABLE
  2
VIEW
  5
6
330
0
100
AcDbSymbolTable
 70
     0
  0
ENDTAB
  0
TABLE
  2
UCS
  5
7
330
0
100
AcDbSymbolTable
 70
     0
  0
ENDTAB
  0
TABLE
  2
APPID
  5
9
330
0
100
AcDbSymbolTable
 70
     2
  0
APPID
  5
12
330
9
100
AcDbSymbolTableRecord
100
AcDbRegAppTableRecord
  2
ACAD
 70
     0
  0
ENDTAB
  0
TABLE
  2
DIMSTYLE
  5
A
330
0
100
AcDbSymbolTable
 70
     1
  0
DIMSTYLE
105
27
330
A
100
AcDbSymbolTableRecord
100
AcDbDimStyleTableRecord
  2
ISO-25
 70
     0
  3

  4

  5

  6

  7

 40
1.0
 41
2.5
 42
0.625
 43
3.75
 44
1.25
 45
0.0
 46
0.0
 47
0.0
 48
0.0
140
2.5
141
2.5
142
0.0
143
0.03937007874016
144
1.0
145
0.0
146
1.0
147
0.625
 71
     0
 72
     0
 73
     0
 74
     0
 75
     0
 76
     0
 77
     1
 78
     8
170
     0
171
     3
172
     1
173
     0
174
     0
175
     0
176
     0
177
     0
178
     0
270
     2
271
     2
272
     2
273
     2
274
     3
340
11
275
     0
280
     0
281
     0
282
     0
283
     0
284
     8
285
     0
286
     0
287
     3
288
     0
  0
ENDTAB
  0
TABLE
  2
BLOCK_RECORD
  5
1
330
0
100
AcDbSymbolTable
 70
     1
  0
BLOCK_RECORD
  5
1F
330
1
100
AcDbSymbolTableRecord
100
AcDbBlockTableRecord
  2
*MODEL_SPACE
  0
BLOCK_RECORD
  5
1B
330
1
100
AcDbSymbolTableRecord
100
AcDbBlockTableRecord
  2
*PAPER_SPACE
  0
ENDTAB
  0
ENDSEC
  0
SECTION
  2
BLOCKS
  0
BLOCK
  5
20
330
1F
100
AcDbEntity
  8
0
100
AcDbBlockBegin
  2
*MODEL_SPACE
 70
     0
 10
0.0
 20
0.0
 30
0.0
  3
*MODEL_SPACE
  1

  0
ENDBLK
  5
21
330
1F
100
AcDbEntity
  8
0
100
AcDbBlockEnd
  0
BLOCK
  5
1C
330
1B
100
AcDbEntity
 67
     1
  8
0
100
AcDbBlockBegin
  2
*PAPER_SPACE
  1

  0
ENDBLK
  5
1D
330
1B
100
AcDbEntity
 67
     1
  8
0
100
AcDbBlockEnd
  0
ENDSEC
  0
SECTION
  2
ENTITIES
0
LINE
8
Calque 1
62
4
5
100
100
AcDbEntity
100
AcDbLine
10
-59.210087
20
125.413723
30
0.0
11
-60.929266
21
125.190423
31
0.0
0
LINE
8
Calque 1
62
4
5
101
100
AcDbEntity
100
AcDbLine
10
-60.929266
20
125.190423
30
0.0
11
-61.534604
21
124.922422
31
0.0
0
LINE
8
Calque 1
62
4
5
102
100
AcDbEntity
100
AcDbLine
10
-61.534604
20
124.922422
30
0.0
11
-61.875794
21
124.274722
31
0.0
0
LINE
8
Calque 1
62
4
5
103
100
AcDbEntity
100
AcDbLine
10
-61.875794
20
124.274722
30
0.0
11
-62.822336
21
122.759223
31
0.0
0
LINE
8
Calque 1
62
4
5
104
100
AcDbEntity
100
AcDbLine
10
-62.822336
20
122.759223
30
0.0
11
-63.427675
21
121.456022
31
0.0
0
LINE
8
Calque 1
62
4
5
105
100
AcDbEntity
100
AcDbLine
10
-63.427675
20
121.456022
30
0.0
11
-66.454395
21
115.490423
31
0.0
0
LINE
8
Calque 1
62
4
5
106
100
AcDbEntity
100
AcDbLine
10
-66.454395
20
115.490423
30
0.0
11
-66.982696
21
114.507723
31
0.0
0
LINE
8
Calque 1
62
4
5
107
100
AcDbEntity
100
AcDbLine
10
-66.982696
20
114.507723
30
0.0
11
-67.092757
21
113.826424
31
0.0
0
LINE
8
Calque 1
62
4
5
108
100
AcDbEntity
100
AcDbLine
10
-67.092757
20
113.826424
30
0.0
11
-67.257845
21
112.459625
31
0.0
0
LINE
8
Calque 1
62
4
5
109
100
AcDbEntity
100
AcDbLine
10
-67.257845
20
112.459625
30
0.0
11
-67.874196
21
111.476822
31
0.0
0
LINE
8
Calque 1
62
4
5
10a
100
AcDbEntity
100
AcDbLine
10
-67.874196
20
111.476822
30
0.0
11
-68.050294
21
110.795623
31
0.0
0
LINE
8
Calque 1
62
4
5
10b
100
AcDbEntity
100
AcDbLine
10
-68.050294
20
110.795623
30
0.0
11
-68.391495
21
109.438822
31
0.0
0
LINE
8
Calque 1
62
4
5
10c
100
AcDbEntity
100
AcDbLine
10
-68.391495
20
109.438822
30
0.0
11
-69.360045
21
107.866424
31
0.0
0
LINE
8
Calque 1
62
4
5
10d
100
AcDbEntity
100
AcDbLine
10
-69.360045
20
107.866424
30
0.0
11
-70.339596
21
106.721824
31
0.0
0
LINE
8
Calque 1
62
4
5
10e
100
AcDbEntity
100
AcDbLine
10
-70.339596
20
106.721824
30
0.0
11
-73.604047
21
105.638522
31
0.0
0
LINE
8
Calque 1
62
4
5
10f
100
AcDbEntity
100
AcDbLine
10
-73.604047
20
105.638522
30
0.0
11
-76.926827
21
105.638522
31
0.0
0
LINE
8
Calque 1
62
4
5
110
100
AcDbEntity
100
AcDbLine
10
-76.926827
20
105.638522
30
0.0
11
-78.041765
21
105.180724
31
0.0
0
LINE
8
Calque 1
62
4
5
111
100
AcDbEntity
100
AcDbLine
10
-78.041765
20
105.180724
30
0.0
11
-78.790185
21
105.180724
31
0.0
0
LINE
8
Calque 1
62
4
5
112
100
AcDbEntity
100
AcDbLine
10
-78.790185
20
105.180724
30
0.0
11
-79.975555
21
105.471023
31
0.0
0
LINE
8
Calque 1
62
4
5
113
100
AcDbEntity
100
AcDbLine
10
-79.975555
20
105.471023
30
0.0
11
-84.829306
21
106.040522
31
0.0
0
LINE
8
Calque 1
62
4
5
114
100
AcDbEntity
100
AcDbLine
10
-84.829306
20
106.040522
30
0.0
11
-87.298005
21
106.554223
31
0.0
0
LINE
8
Calque 1
62
4
5
115
100
AcDbEntity
100
AcDbLine
10
-87.298005
20
106.554223
30
0.0
11
-89.790916
21
106.710622
31
0.0
0
LINE
8
Calque 1
62
4
5
116
100
AcDbEntity
100
AcDbLine
10
-89.790916
20
106.710622
30
0.0
11
-92.313546
21
107.235525
31
0.0
0
LINE
8
Calque 1
62
4
5
117
100
AcDbEntity
100
AcDbLine
10
-92.313546
20
107.235525
30
0.0
11
-95.044195
21
107.414123
31
0.0
0
LINE
8
Calque 1
62
4
5
118
100
AcDbEntity
100
AcDbLine
10
-95.044195
20
107.414123
30
0.0
11
-100.415234
21
107.760323
31
0.0
0
LINE
8
Calque 1
62
4
5
119
100
AcDbEntity
100
AcDbLine
10
-100.415234
20
107.760323
30
0.0
11
-105.913956
21
108.307523
31
0.0
0
LINE
8
Calque 1
62
4
5
11a
100
AcDbEntity
100
AcDbLine
10
-105.913956
20
108.307523
30
0.0
11
-108.611585
21
108.307523
31
0.0
0
LINE
8
Calque 1
62
4
5
11b
100
AcDbEntity
100
AcDbLine
10
-108.611585
20
108.307523
30
0.0
11
-111.348836
21
109.245624
31
0.0
0
LINE
8
Calque 1
62
4
5
11c
100
AcDbEntity
100
AcDbLine
10
-111.348836
20
109.245624
30
0.0
11
-112.927124
21
109.736922
31
0.0
0
LINE
8
Calque 1
62
4
5
11d
100
AcDbEntity
100
AcDbLine
10
-112.927124
20
109.736922
30
0.0
11
-114.016745
21
110.384724
31
0.0
0
LINE
8
Calque 1
62
4
5
11e
100
AcDbEntity
100
AcDbLine
10
-114.016745
20
110.384724
30
0.0
11
-116.420505
21
111.893425
31
0.0
0
LINE
8
Calque 1
62
4
5
11f
100
AcDbEntity
100
AcDbLine
10
-116.420505
20
111.893425
30
0.0
11
-118.751635
21
113.891225
31
0.0
0
LINE
8
Calque 1
62
4
5
120
100
AcDbEntity
100
AcDbLine
10
-118.751635
20
113.891225
30
0.0
11
-120.080086
21
115.054923
31
0.0
0
LINE
8
Calque 1
62
4
5
121
100
AcDbEntity
100
AcDbLine
10
-120.080086
20
115.054923
30
0.0
11
-120.795486
21
115.691425
31
0.0
0
LINE
8
Calque 1
62
4
5
122
100
AcDbEntity
100
AcDbLine
10
-120.795486
20
115.691425
30
0.0
11
-120.993606
21
115.412225
31
0.0
0
LINE
8
Calque 1
62
4
5
123
100
AcDbEntity
100
AcDbLine
10
-120.993606
20
115.412225
30
0.0
11
-122.631324
21
115.535124
31
0.0
0
LINE
8
Calque 1
62
4
5
124
100
AcDbEntity
100
AcDbLine
10
-122.631324
20
115.535124
30
0.0
11
-123.862925
21
115.144224
31
0.0
0
LINE
8
Calque 1
62
4
5
125
100
AcDbEntity
100
AcDbLine
10
-123.862925
20
115.144224
30
0.0
11
-125.303644
21
114.273122
31
0.0
0
LINE
8
Calque 1
62
4
5
126
100
AcDbEntity
100
AcDbLine
10
-125.303644
20
114.273122
30
0.0
11
-125.919995
21
113.245724
31
0.0
0
LINE
8
Calque 1
62
4
5
127
100
AcDbEntity
100
AcDbLine
10
-125.919995
20
113.245724
30
0.0
11
-126.030056
21
111.588523
31
0.0
0
LINE
8
Calque 1
62
4
5
128
100
AcDbEntity
100
AcDbLine
10
-126.030056
20
111.588523
30
0.0
11
-125.600816
21
110.384724
31
0.0
0
LINE
8
Calque 1
62
4
5
129
100
AcDbEntity
100
AcDbLine
10
-125.600816
20
110.384724
30
0.0
11
-124.228335
21
107.658723
31
0.0
0
LINE
8
Calque 1
62
4
5
12a
100
AcDbEntity
100
AcDbLine
10
-124.228335
20
107.658723
30
0.0
11
-123.069375
21
104.959524
31
0.0
0
LINE
8
Calque 1
62
4
5
12b
100
AcDbEntity
100
AcDbLine
10
-123.069375
20
104.959524
30
0.0
11
-121.505396
21
102.155423
31
0.0
0
LINE
8
Calque 1
62
4
5
12c
100
AcDbEntity
100
AcDbLine
10
-121.505396
20
102.155423
30
0.0
11
-120.053664
21
99.469624
31
0.0
0
LINE
8
Calque 1
62
4
5
12d
100
AcDbEntity
100
AcDbLine
10
-120.053664
20
99.469624
30
0.0
11
-119.118134
21
96.915722
31
0.0
0
LINE
8
Calque 1
62
4
5
12e
100
AcDbEntity
100
AcDbLine
10
-119.118134
20
96.915722
30
0.0
11
-117.253684
21
91.548623
31
0.0
0
LINE
8
Calque 1
62
4
5
12f
100
AcDbEntity
100
AcDbLine
10
-117.253684
20
91.548623
30
0.0
11
-115.925225
21
88.821524
31
0.0
0
LINE
8
Calque 1
62
4
5
130
100
AcDbEntity
100
AcDbLine
10
-115.925225
20
88.821524
30
0.0
11
-115.297876
21
86.123522
31
0.0
0
LINE
8
Calque 1
62
4
5
131
100
AcDbEntity
100
AcDbLine
10
-115.297876
20
86.123522
30
0.0
11
-115.881204
21
84.502022
31
0.0
0
LINE
8
Calque 1
62
4
5
132
100
AcDbEntity
100
AcDbLine
10
-115.881204
20
84.502022
30
0.0
11
-116.871764
21
83.653324
31
0.0
0
LINE
8
Calque 1
62
4
5
133
100
AcDbEntity
100
AcDbLine
10
-116.871764
20
83.653324
30
0.0
11
-118.478675
21
83.195424
31
0.0
0
LINE
8
Calque 1
62
4
5
134
100
AcDbEntity
100
AcDbLine
10
-118.478675
20
83.195424
30
0.0
11
-118.775844
21
82.525423
31
0.0
0
LINE
8
Calque 1
62
4
5
135
100
AcDbEntity
100
AcDbLine
10
-118.775844
20
82.525423
30
0.0
11
-118.467666
21
82.134522
31
0.0
0
LINE
8
Calque 1
62
4
5
136
100
AcDbEntity
100
AcDbLine
10
-118.467666
20
82.134522
30
0.0
11
-118.258556
21
81.364022
31
0.0
0
LINE
8
Calque 1
62
4
5
137
100
AcDbEntity
100
AcDbLine
10
-118.258556
20
81.364022
30
0.0
11
-117.653204
21
80.783324
31
0.0
0
LINE
8
Calque 1
62
4
5
138
100
AcDbEntity
100
AcDbLine
10
-117.653204
20
80.783324
30
0.0
11
-116.739695
21
79.722423
31
0.0
0
LINE
8
Calque 1
62
4
5
139
100
AcDbEntity
100
AcDbLine
10
-116.739695
20
79.722423
30
0.0
11
-115.534505
21
79.231023
31
0.0
0
LINE
8
Calque 1
62
4
5
13a
100
AcDbEntity
100
AcDbLine
10
-115.534505
20
79.231023
30
0.0
11
-114.830104
21
78.840122
31
0.0
0
LINE
8
Calque 1
62
4
5
13b
100
AcDbEntity
100
AcDbLine
10
-114.830104
20
78.840122
30
0.0
11
-114.940176
21
78.460424
31
0.0
0
LINE
8
Calque 1
62
4
5
13c
100
AcDbEntity
100
AcDbLine
10
-114.940176
20
78.460424
30
0.0
11
-115.523504
21
75.928822
31
0.0
0
LINE
8
Calque 1
62
4
5
13d
100
AcDbEntity
100
AcDbLine
10
-115.523504
20
75.928822
30
0.0
11
-116.514064
21
74.115223
31
0.0
0
LINE
8
Calque 1
62
4
5
13e
100
AcDbEntity
100
AcDbLine
10
-116.514064
20
74.115223
30
0.0
11
-118.181504
21
69.210522
31
0.0
0
LINE
8
Calque 1
62
4
5
13f
100
AcDbEntity
100
AcDbLine
10
-118.181504
20
69.210522
30
0.0
11
-120.277094
21
65.041722
31
0.0
0
LINE
8
Calque 1
62
4
5
140
100
AcDbEntity
100
AcDbLine
10
-120.277094
20
65.041722
30
0.0
11
-122.705074
21
61.415722
31
0.0
0
LINE
8
Calque 1
62
4
5
141
100
AcDbEntity
100
AcDbLine
10
-122.705074
20
61.415722
30
0.0
11
-123.112304
21
60.238622
31
0.0
0
LINE
8
Calque 1
62
4
5
142
100
AcDbEntity
100
AcDbLine
10
-123.112304
20
60.238622
30
0.0
11
-124.036825
21
59.049323
31
0.0
0
LINE
8
Calque 1
62
4
5
143
100
AcDbEntity
100
AcDbLine
10
-124.036825
20
59.049323
30
0.0
11
-124.950344
21
56.779023
31
0.0
0
LINE
8
Calque 1
62
4
5
144
100
AcDbEntity
100
AcDbLine
10
-124.950344
20
56.779023
30
0.0
11
-126.179735
21
54.392524
31
0.0
0
LINE
8
Calque 1
62
4
5
145
100
AcDbEntity
100
AcDbLine
10
-126.179735
20
54.392524
30
0.0
11
-127.005204
21
53.286924
31
0.0
0
LINE
8
Calque 1
62
4
5
146
100
AcDbEntity
100
AcDbLine
10
-127.005204
20
53.286924
30
0.0
11
-126.895146
21
52.505222
31
0.0
0
LINE
8
Calque 1
62
4
5
147
100
AcDbEntity
100
AcDbLine
10
-126.895146
20
52.505222
30
0.0
11
-126.895146
21
50.049522
31
0.0
0
LINE
8
Calque 1
62
4
5
148
100
AcDbEntity
100
AcDbLine
10
-126.895146
20
50.049522
30
0.0
11
-127.093255
21
48.862422
31
0.0
0
LINE
8
Calque 1
62
4
5
149
100
AcDbEntity
100
AcDbLine
10
-127.093255
20
48.862422
30
0.0
11
-126.774075
21
48.091822
31
0.0
0
LINE
8
Calque 1
62
4
5
14a
100
AcDbEntity
100
AcDbLine
10
-126.774075
20
48.091822
30
0.0
11
-125.618423
21
47.455324
31
0.0
0
LINE
8
Calque 1
62
4
5
14b
100
AcDbEntity
100
AcDbLine
10
-125.618423
20
47.455324
30
0.0
11
-124.781945
21
47.343623
31
0.0
0
LINE
8
Calque 1
62
4
5
14c
100
AcDbEntity
100
AcDbLine
10
-124.781945
20
47.343623
30
0.0
11
-123.539346
21
47.500022
31
0.0
0
LINE
8
Calque 1
62
4
5
14d
100
AcDbEntity
100
AcDbLine
10
-123.539346
20
47.500022
30
0.0
11
-122.614814
21
48.024823
31
0.0
0
LINE
8
Calque 1
62
4
5
14e
100
AcDbEntity
100
AcDbLine
10
-122.614814
20
48.024823
30
0.0
11
-117.436384
21
50.468322
31
0.0
0
LINE
8
Calque 1
62
4
5
14f
100
AcDbEntity
100
AcDbLine
10
-117.436384
20
50.468322
30
0.0
11
-115.136083
21
51.518023
31
0.0
0
LINE
8
Calque 1
62
4
5
150
100
AcDbEntity
100
AcDbLine
10
-115.136083
20
51.518023
30
0.0
11
-112.953546
21
52.176924
31
0.0
0
LINE
8
Calque 1
62
4
5
151
100
AcDbEntity
100
AcDbLine
10
-112.953546
20
52.176924
30
0.0
11
-110.302144
21
53.126122
31
0.0
0
LINE
8
Calque 1
62
4
5
152
100
AcDbEntity
100
AcDbLine
10
-110.302144
20
53.126122
30
0.0
11
-108.063476
21
53.483523
31
0.0
0
LINE
8
Calque 1
62
4
5
153
100
AcDbEntity
100
AcDbLine
10
-108.063476
20
53.483523
30
0.0
11
-103.840384
21
54.566723
31
0.0
0
LINE
8
Calque 1
62
4
5
154
100
AcDbEntity
100
AcDbLine
10
-103.840384
20
54.566723
30
0.0
11
-95.427216
21
56.121222
31
0.0
0
LINE
8
Calque 1
62
4
5
155
100
AcDbEntity
100
AcDbLine
10
-95.427216
20
56.121222
30
0.0
11
-91.238237
21
56.612622
31
0.0
0
LINE
8
Calque 1
62
4
5
156
100
AcDbEntity
100
AcDbLine
10
-91.238237
20
56.612622
30
0.0
11
-89.440927
21
56.847123
31
0.0
0
LINE
8
Calque 1
62
4
5
157
100
AcDbEntity
100
AcDbLine
10
-89.440927
20
56.847123
30
0.0
11
-87.983695
21
56.713124
31
0.0
0
LINE
8
Calque 1
62
4
5
158
100
AcDbEntity
100
AcDbLine
10
-87.983695
20
56.713124
30
0.0
11
-78.413777
21
57.640024
31
0.0
0
LINE
8
Calque 1
62
4
5
159
100
AcDbEntity
100
AcDbLine
10
-78.413777
20
57.640024
30
0.0
11
-73.312387
21
57.405424
31
0.0
0
LINE
8
Calque 1
62
4
5
15a
100
AcDbEntity
100
AcDbLine
10
-73.312387
20
57.405424
30
0.0
11
-71.118834
21
56.969924
31
0.0
0
LINE
8
Calque 1
62
4
5
15b
100
AcDbEntity
100
AcDbLine
10
-71.118834
20
56.969924
30
0.0
11
-69.942275
21
56.969924
31
0.0
0
LINE
8
Calque 1
62
4
5
15c
100
AcDbEntity
100
AcDbLine
10
-69.942275
20
56.969924
30
0.0
11
-69.303906
21
56.556722
31
0.0
0
LINE
8
Calque 1
62
4
5
15d
100
AcDbEntity
100
AcDbLine
10
-69.303906
20
56.556722
30
0.0
11
-68.225295
21
56.255221
31
0.0
0
LINE
8
Calque 1
62
4
5
15e
100
AcDbEntity
100
AcDbLine
10
-68.225295
20
56.255221
30
0.0
11
-67.322785
21
55.685722
31
0.0
0
LINE
8
Calque 1
62
4
5
15f
100
AcDbEntity
100
AcDbLine
10
-67.322785
20
55.685722
30
0.0
11
-66.409265
21
53.655421
31
0.0
0
LINE
8
Calque 1
62
4
5
160
100
AcDbEntity
100
AcDbLine
10
-66.409265
20
53.655421
30
0.0
11
-65.418705
21
51.551522
31
0.0
0
LINE
8
Calque 1
62
4
5
161
100
AcDbEntity
100
AcDbLine
10
-65.418705
20
51.551522
30
0.0
11
-64.340097
21
49.979124
31
0.0
0
LINE
8
Calque 1
62
4
5
162
100
AcDbEntity
100
AcDbLine
10
-64.340097
20
49.979124
30
0.0
11
-60.347036
21
42.550623
31
0.0
0
LINE
8
Calque 1
62
4
5
163
100
AcDbEntity
100
AcDbLine
10
-60.347036
20
42.550623
30
0.0
11
-59.124246
21
40.776123
31
0.0
0
LINE
8
Calque 1
62
4
5
164
100
AcDbEntity
100
AcDbLine
10
-59.124246
20
40.776123
30
0.0
11
-57.654907
21
39.371223
31
0.0
0
LINE
8
Calque 1
62
4
5
165
100
AcDbEntity
100
AcDbLine
10
-57.654907
20
39.371223
30
0.0
11
-56.708376
21
38.946922
31
0.0
0
LINE
8
Calque 1
62
4
5
166
100
AcDbEntity
100
AcDbLine
10
-56.708376
20
38.946922
30
0.0
11
-55.606645
21
39.058524
31
0.0
0
LINE
8
Calque 1
62
4
5
167
100
AcDbEntity
100
AcDbLine
10
-55.606645
20
39.058524
30
0.0
11
-53.923796
21
39.203722
31
0.0
0
LINE
8
Calque 1
62
4
5
168
100
AcDbEntity
100
AcDbLine
10
-53.923796
20
39.203722
30
0.0
11
-52.093455
21
40.030122
31
0.0
0
LINE
8
Calque 1
62
4
5
169
100
AcDbEntity
100
AcDbLine
10
-52.093455
20
40.030122
30
0.0
11
-51.190946
21
40.610822
31
0.0
0
LINE
8
Calque 1
62
4
5
16a
100
AcDbEntity
100
AcDbLine
10
-51.190946
20
40.610822
30
0.0
11
-51.200936
21
41.615923
31
0.0
0
LINE
8
Calque 1
62
4
5
16b
100
AcDbEntity
100
AcDbLine
10
-51.200936
20
41.615923
30
0.0
11
-51.200936
21
45.281022
31
0.0
0
LINE
8
Calque 1
62
4
5
16c
100
AcDbEntity
100
AcDbLine
10
-51.200936
20
45.281022
30
0.0
11
-51.575146
21
49.341522
31
0.0
0
LINE
8
Calque 1
62
4
5
16d
100
AcDbEntity
100
AcDbLine
10
-51.575146
20
49.341522
30
0.0
11
-51.575146
21
53.092622
31
0.0
0
LINE
8
Calque 1
62
4
5
16e
100
AcDbEntity
100
AcDbLine
10
-51.575146
20
53.092622
30
0.0
11
-51.575146
21
57.514923
31
0.0
0
LINE
8
Calque 1
62
4
5
16f
100
AcDbEntity
100
AcDbLine
10
-51.575146
20
57.514923
30
0.0
11
-51.344017
21
59.523922
31
0.0
0
LINE
8
Calque 1
62
4
5
170
100
AcDbEntity
100
AcDbLine
10
-51.344017
20
59.523922
30
0.0
11
-50.606596
21
60.383822
31
0.0
0
LINE
8
Calque 1
62
4
5
171
100
AcDbEntity
100
AcDbLine
10
-50.606596
20
60.383822
30
0.0
11
-50.716657
21
60.629522
31
0.0
0
LINE
8
Calque 1
62
4
5
172
100
AcDbEntity
100
AcDbLine
10
-50.716657
20
60.629522
30
0.0
11
-49.825156
21
62.237624
31
0.0
0
LINE
8
Calque 1
62
4
5
173
100
AcDbEntity
100
AcDbLine
10
-49.825156
20
62.237624
30
0.0
11
-48.691506
21
63.681524
31
0.0
0
LINE
8
Calque 1
62
4
5
174
100
AcDbEntity
100
AcDbLine
10
-48.691506
20
63.681524
30
0.0
11
-47.168246
21
66.363922
31
0.0
0
LINE
8
Calque 1
62
4
5
175
100
AcDbEntity
100
AcDbLine
10
-47.168246
20
66.363922
30
0.0
11
-45.899228
21
69.187022
31
0.0
0
LINE
8
Calque 1
62
4
5
176
100
AcDbEntity
100
AcDbLine
10
-45.899228
20
69.187022
30
0.0
11
-45.205836
21
72.152023
31
0.0
0
LINE
8
Calque 1
62
4
5
177
100
AcDbEntity
100
AcDbLine
10
-45.205836
20
72.152023
30
0.0
11
-44.567478
21
72.889024
31
0.0
0
LINE
8
Calque 1
62
4
5
178
100
AcDbEntity
100
AcDbLine
10
-44.567478
20
72.889024
30
0.0
11
-44.006158
21
73.302223
31
0.0
0
LINE
8
Calque 1
62
4
5
179
100
AcDbEntity
100
AcDbLine
10
-44.006158
20
73.302223
30
0.0
11
-42.260568
21
73.715424
31
0.0
0
LINE
8
Calque 1
62
4
5
17a
100
AcDbEntity
100
AcDbLine
10
-42.260568
20
73.715424
30
0.0
11
-41.314026
21
73.961124
31
0.0
0
LINE
8
Calque 1
62
4
5
17b
100
AcDbEntity
100
AcDbLine
10
-41.314026
20
73.961124
30
0.0
11
-40.840756
21
74.530623
31
0.0
0
LINE
8
Calque 1
62
4
5
17c
100
AcDbEntity
100
AcDbLine
10
-40.840756
20
74.530623
30
0.0
11
-40.378496
21
75.829424
31
0.0
0
LINE
8
Calque 1
62
4
5
17d
100
AcDbEntity
100
AcDbLine
10
-40.378496
20
75.829424
30
0.0
11
-40.369493
21
76.086322
31
0.0
0
LINE
8
Calque 1
62
4
5
17e
100
AcDbEntity
100
AcDbLine
10
-40.369493
20
76.086322
30
0.0
11
-39.940244
21
76.086322
31
0.0
0
LINE
8
Calque 1
62
4
5
17f
100
AcDbEntity
100
AcDbLine
10
-39.940244
20
76.086322
30
0.0
11
-38.631605
21
75.974621
31
0.0
0
LINE
8
Calque 1
62
4
5
180
100
AcDbEntity
100
AcDbLine
10
-38.631605
20
75.974621
30
0.0
11
-38.631605
21
75.974621
31
0.0
0
LINE
8
Calque 1
62
4
5
181
100
AcDbEntity
100
AcDbLine
10
-38.631605
20
75.974621
30
0.0
11
-38.631605
21
75.964631
31
0.0
0
LINE
8
Calque 1
62
4
5
182
100
AcDbEntity
100
AcDbLine
10
-38.631605
20
75.964631
30
0.0
11
-36.711015
21
76.980831
31
0.0
0
LINE
8
Calque 1
62
4
5
183
100
AcDbEntity
100
AcDbLine
10
-36.711015
20
76.980831
30
0.0
11
-35.764484
21
77.226531
31
0.0
0
LINE
8
Calque 1
62
4
5
184
100
AcDbEntity
100
AcDbLine
10
-35.764484
20
77.226531
30
0.0
11
-34.905995
21
77.751332
31
0.0
0
LINE
8
Calque 1
62
4
5
185
100
AcDbEntity
100
AcDbLine
10
-34.905995
20
77.751332
30
0.0
11
-34.190593
21
78.075233
31
0.0
0
LINE
8
Calque 1
62
4
5
186
100
AcDbEntity
100
AcDbLine
10
-34.190593
20
78.075233
30
0.0
11
-31.878185
21
79.874331
31
0.0
0
LINE
8
Calque 1
62
4
5
187
100
AcDbEntity
100
AcDbLine
10
-31.878185
20
79.874331
30
0.0
11
-31.746105
21
79.985931
31
0.0
0
LINE
8
Calque 1
62
4
5
188
100
AcDbEntity
100
AcDbLine
10
-31.746105
20
79.985931
30
0.0
11
-31.636044
21
80.097631
31
0.0
0
LINE
8
Calque 1
62
4
5
189
100
AcDbEntity
100
AcDbLine
10
-31.636044
20
80.097631
30
0.0
11
-29.733065
21
81.409832
31
0.0
0
LINE
8
Calque 1
62
4
5
18a
100
AcDbEntity
100
AcDbLine
10
-29.733065
20
81.409832
30
0.0
11
-29.457904
21
81.521530
31
0.0
0
LINE
8
Calque 1
62
4
5
18b
100
AcDbEntity
100
AcDbLine
10
-29.457904
20
81.521530
30
0.0
11
-29.149734
21
81.666632
31
0.0
0
LINE
8
Calque 1
62
4
5
18c
100
AcDbEntity
100
AcDbLine
10
-29.149734
20
81.666632
30
0.0
11
-28.841565
21
82.091032
31
0.0
0
LINE
8
Calque 1
62
4
5
18d
100
AcDbEntity
100
AcDbLine
10
-28.841565
20
82.091032
30
0.0
11
-28.489365
21
82.515432
31
0.0
0
LINE
8
Calque 1
62
4
5
18e
100
AcDbEntity
100
AcDbLine
10
-28.489365
20
82.515432
30
0.0
11
-28.379293
21
82.716431
31
0.0
0
LINE
8
Calque 1
62
4
5
18f
100
AcDbEntity
100
AcDbLine
10
-28.379293
20
82.716431
30
0.0
11
-28.379293
21
82.716431
31
0.0
0
LINE
8
Calque 1
62
4
5
190
100
AcDbEntity
100
AcDbLine
10
-28.379293
20
82.716431
30
0.0
11
-28.236215
21
83.297233
31
0.0
0
LINE
8
Calque 1
62
4
5
191
100
AcDbEntity
100
AcDbLine
10
-28.236215
20
83.297233
30
0.0
11
-28.236215
21
83.420030
31
0.0
0
LINE
8
Calque 1
62
4
5
192
100
AcDbEntity
100
AcDbLine
10
-28.236215
20
83.420030
30
0.0
11
-28.093133
21
84.045432
31
0.0
0
LINE
8
Calque 1
62
4
5
193
100
AcDbEntity
100
AcDbLine
10
-28.093133
20
84.045432
30
0.0
11
-28.236215
21
84.748930
31
0.0
0
LINE
8
Calque 1
62
4
5
194
100
AcDbEntity
100
AcDbLine
10
-28.236215
20
84.748930
30
0.0
11
-28.236215
21
84.871832
31
0.0
0
LINE
8
Calque 1
62
4
5
195
100
AcDbEntity
100
AcDbLine
10
-28.236215
20
84.871832
30
0.0
11
-28.379293
21
85.452533
31
0.0
0
LINE
8
Calque 1
62
4
5
196
100
AcDbEntity
100
AcDbLine
10
-28.379293
20
85.452533
30
0.0
11
-28.489365
21
85.653531
31
0.0
0
LINE
8
Calque 1
62
4
5
197
100
AcDbEntity
100
AcDbLine
10
-28.489365
20
85.653531
30
0.0
11
-28.841565
21
86.077833
31
0.0
0
LINE
8
Calque 1
62
4
5
198
100
AcDbEntity
100
AcDbLine
10
-28.841565
20
86.077833
30
0.0
11
-29.149734
21
86.502230
31
0.0
0
LINE
8
Calque 1
62
4
5
199
100
AcDbEntity
100
AcDbLine
10
-29.149734
20
86.502230
30
0.0
11
-29.457904
21
86.647431
31
0.0
0
LINE
8
Calque 1
62
4
5
19a
100
AcDbEntity
100
AcDbLine
10
-29.457904
20
86.647431
30
0.0
11
-29.733065
21
86.759033
31
0.0
0
LINE
8
Calque 1
62
4
5
19b
100
AcDbEntity
100
AcDbLine
10
-29.733065
20
86.759033
30
0.0
11
-31.869374
21
88.232032
31
0.0
0
LINE
8
Calque 1
62
4
5
19c
100
AcDbEntity
100
AcDbLine
10
-31.869374
20
88.232032
30
0.0
11
-34.181785
21
90.032232
31
0.0
0
LINE
8
Calque 1
62
4
5
19d
100
AcDbEntity
100
AcDbLine
10
-34.181785
20
90.032232
30
0.0
11
-34.897195
21
90.344931
31
0.0
0
LINE
8
Calque 1
62
4
5
19e
100
AcDbEntity
100
AcDbLine
10
-34.897195
20
90.344931
30
0.0
11
-35.755673
21
90.869831
31
0.0
0
LINE
8
Calque 1
62
4
5
19f
100
AcDbEntity
100
AcDbLine
10
-35.755673
20
90.869831
30
0.0
11
-36.702215
21
91.115432
31
0.0
0
LINE
8
Calque 1
62
4
5
1a0
100
AcDbEntity
100
AcDbLine
10
-36.702215
20
91.115432
30
0.0
11
-38.622805
21
92.131731
31
0.0
0
LINE
8
Calque 1
62
4
5
1a1
100
AcDbEntity
100
AcDbLine
10
-38.622805
20
92.131731
30
0.0
11
-38.622805
21
92.121740
31
0.0
0
LINE
8
Calque 1
62
4
5
1a2
100
AcDbEntity
100
AcDbLine
10
-38.622805
20
92.121740
30
0.0
11
-38.622805
21
92.121740
31
0.0
0
LINE
8
Calque 1
62
4
5
1a3
100
AcDbEntity
100
AcDbLine
10
-38.622805
20
92.121740
30
0.0
11
-39.931444
21
92.010039
31
0.0
0
LINE
8
Calque 1
62
4
5
1a4
100
AcDbEntity
100
AcDbLine
10
-39.931444
20
92.010039
30
0.0
11
-40.393705
21
92.010039
31
0.0
0
LINE
8
Calque 1
62
4
5
1a5
100
AcDbEntity
100
AcDbLine
10
-40.393705
20
92.010039
30
0.0
11
-41.351245
21
91.630340
31
0.0
0
LINE
8
Calque 1
62
4
5
1a6
100
AcDbEntity
100
AcDbLine
10
-41.351245
20
91.630340
30
0.0
11
-41.461315
21
91.620350
31
0.0
0
LINE
8
Calque 1
62
4
5
1a7
100
AcDbEntity
100
AcDbLine
10
-41.461315
20
91.620350
30
0.0
11
-41.461315
21
91.877152
31
0.0
0
LINE
8
Calque 1
62
4
5
1a8
100
AcDbEntity
100
AcDbLine
10
-41.461315
20
91.877152
30
0.0
11
-42.022624
21
92.301552
31
0.0
0
LINE
8
Calque 1
62
4
5
1a9
100
AcDbEntity
100
AcDbLine
10
-42.022624
20
92.301552
30
0.0
11
-42.341814
21
92.971551
31
0.0
0
LINE
8
Calque 1
62
4
5
1aa
100
AcDbEntity
100
AcDbLine
10
-42.341814
20
92.971551
30
0.0
11
-43.057214
21
93.407051
31
0.0
0
LINE
8
Calque 1
62
4
5
1ab
100
AcDbEntity
100
AcDbLine
10
-43.057214
20
93.407051
30
0.0
11
-44.578273
21
94.043651
31
0.0
0
LINE
8
Calque 1
62
4
5
1ac
100
AcDbEntity
100
AcDbLine
10
-44.578273
20
94.043651
30
0.0
11
-45.864904
21
94.266951
31
0.0
0
LINE
8
Calque 1
62
4
5
1ad
100
AcDbEntity
100
AcDbLine
10
-45.864904
20
94.266951
30
0.0
11
-48.163003
21
97.507751
31
0.0
0
LINE
8
Calque 1
62
4
5
1ae
100
AcDbEntity
100
AcDbLine
10
-48.163003
20
97.507751
30
0.0
11
-49.990045
21
100.587752
31
0.0
0
LINE
8
Calque 1
62
4
5
1af
100
AcDbEntity
100
AcDbLine
10
-49.990045
20
100.587752
30
0.0
11
-50.584385
21
102.531953
31
0.0
0
LINE
8
Calque 1
62
4
5
1b0
100
AcDbEntity
100
AcDbLine
10
-50.584385
20
102.531953
30
0.0
11
-50.925575
21
103.213153
31
0.0
0
LINE
8
Calque 1
62
4
5
1b1
100
AcDbEntity
100
AcDbLine
10
-50.925575
20
103.213153
30
0.0
11
-51.420855
21
103.659851
31
0.0
0
LINE
8
Calque 1
62
4
5
1b2
100
AcDbEntity
100
AcDbLine
10
-51.420855
20
103.659851
30
0.0
11
-52.444436
21
106.813552
31
0.0
0
LINE
8
Calque 1
62
4
5
1b3
100
AcDbEntity
100
AcDbLine
10
-52.444436
20
106.813552
30
0.0
11
-53.137824
21
110.371451
31
0.0
0
LINE
8
Calque 1
62
4
5
1b4
100
AcDbEntity
100
AcDbLine
10
-53.137824
20
110.371451
30
0.0
11
-53.567073
21
112.078952
31
0.0
0
LINE
8
Calque 1
62
4
5
1b5
100
AcDbEntity
100
AcDbLine
10
-53.567073
20
112.078952
30
0.0
11
-53.567073
21
113.584351
31
0.0
0
LINE
8
Calque 1
62
4
5
1b6
100
AcDbEntity
100
AcDbLine
10
-53.567073
20
113.584351
30
0.0
11
-53.842223
21
116.703352
31
0.0
0
LINE
8
Calque 1
62
4
5
1b7
100
AcDbEntity
100
AcDbLine
10
-53.842223
20
116.703352
30
0.0
11
-54.876813
21
119.820251
31
0.0
0
LINE
8
Calque 1
62
4
5
1b8
100
AcDbEntity
100
AcDbLine
10
-54.876813
20
119.820251
30
0.0
11
-56.681833
21
123.542251
31
0.0
0
LINE
8
Calque 1
62
4
5
1b9
100
AcDbEntity
100
AcDbLine
10
-56.681833
20
123.542251
30
0.0
11
-57.884814
21
125.027553
31
0.0
0
LINE
8
Calque 1
62
4
5
1ba
100
AcDbEntity
100
AcDbLine
10
-57.884814
20
125.027553
30
0.0
11
-58.490163
21
125.351451
31
0.0
0
LINE
8
Calque 1
62
4
5
1bb
100
AcDbEntity
100
AcDbLine
10
-58.490163
20
125.351451
30
0.0
11
-59.260593
21
125.463053
31
0.0
0
LINE
8
Calque 1
62
4
5
1bc
100
AcDbEntity
100
AcDbLine
10
-59.260593
20
125.463053
30
0.0
11
-59.210087
21
125.413723
31
0.0
  0
ENDSEC
  0
SECTION
  2
OBJECTS
  0
DICTIONARY
  5
C
330
0
100
AcDbDictionary
  3
ACAD_GROUP
350
D
  3
ACAD_MLINESTYLE
350
17
  0
DICTIONARY
  5
D
330
C
100
AcDbDictionary
  0
DICTIONARY
  5
1A
330
C
100
AcDbDictionary
  0
DICTIONARY
  5
17
330
C
100
AcDbDictionary
  3
STANDARD
350
18
  0
DICTIONARY
  5
19
330
C
100
AcDbDictionary
  0
ENDSEC
  0
EOF
