<?xml version="1.0" standalone="no"?>
<!DOCTYPE svg PUBLIC "-//W3C//DTD SVG 1.1//EN" "http://www.w3.org/Graphics/SVG/1.1/DTD/svg11.dtd">
<svg width="100.00000000000006mm" height="361.9999999999999mm"
 viewBox="0 0 100.00000000000006 361.9999999999999"
 xmlns="http://www.w3.org/2000/svg" version="1.1"
 xmlns:xlink="http://www.w3.org/1999/xlink">
<desc>Output from Flights of Ideas SVG Sketchup Plugin</desc>

  <path id="face0-cut"
 style="fill:none;stroke:#0000FF;stroke-width:1;stroke-miterlimit:4;stroke-dasharray:none;stroke-linejoin:round;stroke-linecap:round"
        d="M 10.0,10.0 L 10.0,108.00000000000011 L 15.000000000000114,108.00000000000011 L 15.000000000000341,111.0 L 19.999999999999886,111.0 L 20.000000000000057,108.00000000000011 L 25.027124527576802,108.00000000000011 L 25.0271245275772,111.0 L 30.00000000000017,111.0 L 30.00000000000051,108.00000000000011 L 35.000000000000284,108.00000000000011 L 34.99999999999994,10.0 L 30.00000000000051,10.0 L 30.00000000000051,13.000000000000114 L 25.000000000000057,13.000000000000114 L 25.000000000000057,10.0 L 20.000000000000057,10.0 L 20.000000000000057,13.000000000000114 L 15.000000000000114,13.000000000000114 L 15.000000000000114,10.0 L 10.0,10.0 "
  />
  <path id="face1-cut"
 style="fill:none;stroke:#0000FF;stroke-width:1;stroke-miterlimit:4;stroke-dasharray:none;stroke-linejoin:round;stroke-linecap:round"
        d="M 10.0,121.0 L 10.0,214.0 L 15.000000000000114,214.0 L 15.000000000000114,219.0000000000001 L 15.000000000000114,222.0 L 19.999999999999886,221.99999999999977 L 19.999999999999886,219.0000000000001 L 25.02712452757646,218.9999999999999 L 25.02712452757646,222.0 L 29.99999999999926,222.0 L 29.99999999999926,219.0000000000001 L 34.99999999999994,219.0000000000001 L 34.99999999999994,121.0 L 29.99999999999926,121.0 L 29.99999999999926,124.0 L 24.99999999999983,124.0 L 24.99999999999983,121.0 L 19.999999999999886,121.0 L 19.999999999999886,124.0 L 15.000000000000114,124.0 L 15.000000000000114,121.0 L 10.0,121.0 "
  />
  <path id="face2-cut"
 style="fill:none;stroke:#0000FF;stroke-width:1;stroke-miterlimit:4;stroke-dasharray:none;stroke-linejoin:round;stroke-linecap:round"
        d="M 90.00000000000006,351.9999999999999 L 90.00000000000006,232.0 L 10.0,232.0 L 10.0,351.9999999999999 L 90.00000000000006,351.9999999999999 "
  />
  <path id="face0-interior"
 style="fill:none;stroke:#FF0000;stroke-width:1;stroke-miterlimit:4;stroke-dasharray:none;stroke-linejoin:round;stroke-linecap:round"
        d="M 10.0,10.0 M 10.0,108.00000000000011 M 15.000000000000114,108.00000000000011 M 15.000000000000341,111.0 M 19.999999999999886,111.0 M 20.000000000000057,108.00000000000011 M 25.027124527576802,108.00000000000011 M 25.0271245275772,111.0 M 30.00000000000017,111.0 M 30.00000000000051,108.00000000000011 M 35.000000000000284,108.00000000000011 M 34.99999999999994,10.0 M 30.00000000000051,10.0 M 30.00000000000051,13.000000000000114 M 25.000000000000057,13.000000000000114 M 25.000000000000057,10.0 M 20.000000000000057,10.0 M 20.000000000000057,13.000000000000114 M 15.000000000000114,13.000000000000114 M 15.000000000000114,10.0 "
  />
  <path id="face1-interior"
 style="fill:none;stroke:#FF0000;stroke-width:1;stroke-miterlimit:4;stroke-dasharray:none;stroke-linejoin:round;stroke-linecap:round"
        d="M 10.0,121.0 M 10.0,214.0 M 15.000000000000114,214.0 M 15.000000000000114,219.0000000000001 M 15.000000000000114,222.0 M 19.999999999999886,221.99999999999977 M 19.999999999999886,219.0000000000001 M 25.02712452757646,218.9999999999999 M 25.02712452757646,222.0 M 29.99999999999926,222.0 M 29.99999999999926,219.0000000000001 M 34.99999999999994,219.0000000000001 M 34.99999999999994,121.0 M 29.99999999999926,121.0 M 29.99999999999926,124.0 M 24.99999999999983,124.0 M 24.99999999999983,121.0 M 19.999999999999886,121.0 M 19.999999999999886,124.0 M 15.000000000000114,124.0 M 15.000000000000114,121.0 "
  />
  <path id="face2-interior"
 style="fill:none;stroke:#FF0000;stroke-width:1;stroke-miterlimit:4;stroke-dasharray:none;stroke-linejoin:round;stroke-linecap:round"
        d="M 90.00000000000006,351.9999999999999 M 90.00000000000006,232.0 M 10.0,232.0 M 10.0,351.9999999999999 "
  />
  <path id="face0-interior"
 style="fill:none;stroke:#00FF00;stroke-width:1;stroke-miterlimit:4;stroke-dasharray:none;stroke-linejoin:round;stroke-linecap:round"
        d="M 10.0,10.0 M 10.0,108.00000000000011 M 15.000000000000114,108.00000000000011 M 15.000000000000341,111.0 M 19.999999999999886,111.0 M 20.000000000000057,108.00000000000011 M 25.027124527576802,108.00000000000011 M 25.0271245275772,111.0 M 30.00000000000017,111.0 M 30.00000000000051,108.00000000000011 M 35.000000000000284,108.00000000000011 M 34.99999999999994,10.0 M 30.00000000000051,10.0 M 30.00000000000051,13.000000000000114 M 25.000000000000057,13.000000000000114 M 25.000000000000057,10.0 M 20.000000000000057,10.0 M 20.000000000000057,13.000000000000114 M 15.000000000000114,13.000000000000114 M 15.000000000000114,10.0 "
  />
  <path id="face1-interior"
 style="fill:none;stroke:#00FF00;stroke-width:1;stroke-miterlimit:4;stroke-dasharray:none;stroke-linejoin:round;stroke-linecap:round"
        d="M 10.0,121.0 M 10.0,214.0 M 15.000000000000114,214.0 M 15.000000000000114,219.0000000000001 M 15.000000000000114,222.0 M 19.999999999999886,221.99999999999977 M 19.999999999999886,219.0000000000001 M 25.02712452757646,218.9999999999999 M 25.02712452757646,222.0 M 29.99999999999926,222.0 M 29.99999999999926,219.0000000000001 M 34.99999999999994,219.0000000000001 M 34.99999999999994,121.0 M 29.99999999999926,121.0 M 29.99999999999926,124.0 M 24.99999999999983,124.0 M 24.99999999999983,121.0 M 19.999999999999886,121.0 M 19.999999999999886,124.0 M 15.000000000000114,124.0 M 15.000000000000114,121.0 "
  />
  <path id="face2-interior"
 style="fill:none;stroke:#00FF00;stroke-width:1;stroke-miterlimit:4;stroke-dasharray:none;stroke-linejoin:round;stroke-linecap:round"
        d="M 90.00000000000006,351.9999999999999 M 90.00000000000006,232.0 M 10.0,232.0 M 10.0,351.9999999999999 "
  />
</svg>
