<?xml version="1.0" standalone="no"?>
<!DOCTYPE svg PUBLIC "-//W3C//DTD SVG 1.1//EN" "http://www.w3.org/Graphics/SVG/1.1/DTD/svg11.dtd">
<svg width="100.00000000000006mm" height="335.9999999999998mm"
 viewBox="0 0 100.00000000000006 335.9999999999998"
 xmlns="http://www.w3.org/2000/svg" version="1.1"
 xmlns:xlink="http://www.w3.org/1999/xlink">
<desc>Output from Flights of Ideas SVG Sketchup Plugin</desc>

  <path id="face0-cut"
 style="fill:none;stroke:#0000FF;stroke-width:1;stroke-miterlimit:4;stroke-dasharray:none;stroke-linejoin:round;stroke-linecap:round"
        d="M 90.00000000000006,129.9999999999999 L 90.00000000000006,10.0 L 10.0,10.0 L 10.0,129.9999999999999 L 90.00000000000006,129.9999999999999 "
  />
  <path id="face1-cut"
 style="fill:none;stroke:#0000FF;stroke-width:1;stroke-miterlimit:4;stroke-dasharray:none;stroke-linejoin:round;stroke-linecap:round"
        d="M 10.0,139.9999999999999 L 10.0,219.9999999999999 L 15.000000000000114,219.9999999999999 L 15.000000000000114,225.0000000000001 L 15.000000000000114,227.99999999999977 L 19.999999999999886,227.99999999999977 L 19.999999999999886,225.0000000000001 L 25.02712452757646,225.0000000000001 L 25.02712452757646,227.99999999999977 L 29.99999999999926,227.99999999999977 L 29.99999999999926,225.0000000000001 L 34.999999999999886,224.9999999999999 L 34.999999999999886,139.9999999999999 L 29.99999999999926,139.9999999999999 L 29.99999999999926,142.9999999999999 L 24.99999999999983,142.9999999999999 L 24.99999999999983,139.9999999999999 L 19.999999999999886,139.9999999999999 L 19.999999999999886,142.9999999999999 L 15.000000000000114,142.9999999999999 L 15.000000000000114,139.9999999999999 L 10.0,139.9999999999999 "
  />
  <path id="face2-cut"
 style="fill:none;stroke:#0000FF;stroke-width:1;stroke-miterlimit:4;stroke-dasharray:none;stroke-linejoin:round;stroke-linecap:round"
        d="M 10.0,237.99999999999977 L 10.0,323.0 L 15.000000000000114,323.0 L 15.000000000000284,325.9999999999998 L 19.999999999999886,325.9999999999998 L 20.000000000000057,323.0 L 25.027124527576802,323.0 L 25.027124527577143,325.9999999999998 L 30.00000000000017,325.9999999999998 L 30.00000000000051,323.0 L 35.000000000000284,323.0 L 34.999999999999886,237.99999999999977 L 30.00000000000051,237.99999999999977 L 30.00000000000051,240.9999999999999 L 25.0,240.9999999999999 L 25.0,237.99999999999977 L 20.000000000000057,237.99999999999977 L 20.000000000000057,240.9999999999999 L 15.000000000000114,240.9999999999999 L 15.000000000000114,237.99999999999977 L 10.0,237.99999999999977 "
  />
  <path id="face0-interior"
 style="fill:none;stroke:#FF0000;stroke-width:1;stroke-miterlimit:4;stroke-dasharray:none;stroke-linejoin:round;stroke-linecap:round"
        d="M 90.00000000000006,129.9999999999999 M 90.00000000000006,10.0 M 10.0,10.0 M 10.0,129.9999999999999 "
  />
  <path id="face1-interior"
 style="fill:none;stroke:#FF0000;stroke-width:1;stroke-miterlimit:4;stroke-dasharray:none;stroke-linejoin:round;stroke-linecap:round"
        d="M 10.0,139.9999999999999 M 10.0,219.9999999999999 M 15.000000000000114,219.9999999999999 M 15.000000000000114,225.0000000000001 M 15.000000000000114,227.99999999999977 M 19.999999999999886,227.99999999999977 M 19.999999999999886,225.0000000000001 M 25.02712452757646,225.0000000000001 M 25.02712452757646,227.99999999999977 M 29.99999999999926,227.99999999999977 M 29.99999999999926,225.0000000000001 M 34.999999999999886,224.9999999999999 M 34.999999999999886,139.9999999999999 M 29.99999999999926,139.9999999999999 M 29.99999999999926,142.9999999999999 M 24.99999999999983,142.9999999999999 M 24.99999999999983,139.9999999999999 M 19.999999999999886,139.9999999999999 M 19.999999999999886,142.9999999999999 M 15.000000000000114,142.9999999999999 M 15.000000000000114,139.9999999999999 "
  />
  <path id="face2-interior"
 style="fill:none;stroke:#FF0000;stroke-width:1;stroke-miterlimit:4;stroke-dasharray:none;stroke-linejoin:round;stroke-linecap:round"
        d="M 10.0,237.99999999999977 M 10.0,323.0 M 15.000000000000114,323.0 M 15.000000000000284,325.9999999999998 M 19.999999999999886,325.9999999999998 M 20.000000000000057,323.0 M 25.027124527576802,323.0 M 25.027124527577143,325.9999999999998 M 30.00000000000017,325.9999999999998 M 30.00000000000051,323.0 M 35.000000000000284,323.0 M 34.999999999999886,237.99999999999977 M 30.00000000000051,237.99999999999977 M 30.00000000000051,240.9999999999999 M 25.0,240.9999999999999 M 25.0,237.99999999999977 M 20.000000000000057,237.99999999999977 M 20.000000000000057,240.9999999999999 M 15.000000000000114,240.9999999999999 M 15.000000000000114,237.99999999999977 "
  />
  <path id="face0-interior"
 style="fill:none;stroke:#00FF00;stroke-width:1;stroke-miterlimit:4;stroke-dasharray:none;stroke-linejoin:round;stroke-linecap:round"
        d="M 90.00000000000006,129.9999999999999 M 90.00000000000006,10.0 M 10.0,10.0 M 10.0,129.9999999999999 "
  />
  <path id="face1-interior"
 style="fill:none;stroke:#00FF00;stroke-width:1;stroke-miterlimit:4;stroke-dasharray:none;stroke-linejoin:round;stroke-linecap:round"
        d="M 10.0,139.9999999999999 M 10.0,219.9999999999999 M 15.000000000000114,219.9999999999999 M 15.000000000000114,225.0000000000001 M 15.000000000000114,227.99999999999977 M 19.999999999999886,227.99999999999977 M 19.999999999999886,225.0000000000001 M 25.02712452757646,225.0000000000001 M 25.02712452757646,227.99999999999977 M 29.99999999999926,227.99999999999977 M 29.99999999999926,225.0000000000001 M 34.999999999999886,224.9999999999999 M 34.999999999999886,139.9999999999999 M 29.99999999999926,139.9999999999999 M 29.99999999999926,142.9999999999999 M 24.99999999999983,142.9999999999999 M 24.99999999999983,139.9999999999999 M 19.999999999999886,139.9999999999999 M 19.999999999999886,142.9999999999999 M 15.000000000000114,142.9999999999999 M 15.000000000000114,139.9999999999999 "
  />
  <path id="face2-interior"
 style="fill:none;stroke:#00FF00;stroke-width:1;stroke-miterlimit:4;stroke-dasharray:none;stroke-linejoin:round;stroke-linecap:round"
        d="M 10.0,237.99999999999977 M 10.0,323.0 M 15.000000000000114,323.0 M 15.000000000000284,325.9999999999998 M 19.999999999999886,325.9999999999998 M 20.000000000000057,323.0 M 25.027124527576802,323.0 M 25.027124527577143,325.9999999999998 M 30.00000000000017,325.9999999999998 M 30.00000000000051,323.0 M 35.000000000000284,323.0 M 34.999999999999886,237.99999999999977 M 30.00000000000051,237.99999999999977 M 30.00000000000051,240.9999999999999 M 25.0,240.9999999999999 M 25.0,237.99999999999977 M 20.000000000000057,237.99999999999977 M 20.000000000000057,240.9999999999999 M 15.000000000000114,240.9999999999999 M 15.000000000000114,237.99999999999977 "
  />
</svg>
