<?xml version="1.0" standalone="no"?>
<!DOCTYPE svg PUBLIC "-//W3C//DTD SVG 1.1//EN" "http://www.w3.org/Graphics/SVG/1.1/DTD/svg11.dtd">
<svg width="60.00000000000182mm" height="40.00000000000091mm"
 viewBox="0 0 60.00000000000182 40.00000000000091"
 xmlns="http://www.w3.org/2000/svg" version="1.1"
 xmlns:xlink="http://www.w3.org/1999/xlink">
<desc>Output from Flights of Ideas SVG Sketchup Plugin</desc>

  <path id="face0-cut"
 style="fill:none;stroke:#0000FF;stroke-width:1;stroke-miterlimit:4;stroke-dasharray:none;stroke-linejoin:round;stroke-linecap:round"
        d="M 10.0,10.0 L 10.0,30.00000000000091 L 50.00000000000182,30.00000000000091 L 50.00000000000182,10.0 L 10.0,10.0 M 40.70096189432479,20.75000000000091 M 40.55111126056909,20.38822856765455 M 40.5,20.00000000000091 M 40.55111126056909,19.61177143234727 M 40.70096189432479,19.25000000000091 M 40.93933982822091,18.93933982822182 M 41.25000000000182,18.700961894323882 M 41.61177143234818,18.551111260568177 M 42.0,18.50000000000091 M 42.38822856765364,18.551111260568177 M 42.75000000000182,18.700961894323882 M 43.06066017178091,18.93933982822182 M 43.29903810567703,19.25000000000091 M 43.44888873943273,19.61177143234727 M 43.5,20.00000000000091 M 43.44888873943455,20.38822856765455 M 43.29903810567885,20.75000000000091 M 43.06066017178091,21.06066017178 M 42.75000000000182,21.299038105677027 M 42.38822856765364,21.44888873943364 M 42.0,21.5 M 41.61177143234636,21.44888873943364 M 41.25000000000182,21.299038105677027 M 40.93933982822091,21.06066017178 M 16.5,20.00000000000091 M 16.551111260569087,19.61177143234727 M 16.70096189432479,19.25000000000091 M 16.93933982822091,18.93933982822182 M 17.25000000000182,18.700961894323882 M 17.61177143234636,18.551111260568177 M 18.00000000000182,18.50000000000091 M 18.38822856765364,18.551111260568177 M 18.75000000000182,18.700961894323882 M 19.06066017178091,18.93933982822182 M 19.299038105678846,19.25000000000091 M 19.44888873943455,19.61177143234727 M 19.5,20.00000000000091 M 19.44888873943455,20.38822856765455 M 19.299038105678846,20.75000000000091 M 19.06066017178091,21.06066017178 M 18.75000000000182,21.299038105677027 M 18.38822856765364,21.44888873943364 M 18.0,21.5 M 17.611771432348178,21.44888873943364 M 17.25,21.299038105677027 M 16.93933982822091,21.06066017178 M 16.70096189432479,20.75000000000091 M 16.551111260567268,20.38822856765455 M 22.0,14.50000000000091 M 38.00000000000182,14.50000000000091 M 40.00000000000182,25.50000000000091 M 20.00000000000182,25.50000000000091 "
  />
  <path id="face1-cut"
 style="fill:none;stroke:#0000FF;stroke-width:1;stroke-miterlimit:4;stroke-dasharray:none;stroke-linejoin:round;stroke-linecap:round"
        d="M 40.55111126056909,20.38822856765455 M 40.70096189432479,20.75000000000091 M 40.93933982822091,21.06066017178 M 41.25000000000182,21.299038105677027 M 41.61177143234636,21.44888873943364 M 42.0,21.5 M 42.38822856765364,21.44888873943364 M 42.75000000000182,21.299038105677027 M 43.06066017178091,21.06066017178 M 43.29903810567885,20.75000000000091 M 43.44888873943455,20.38822856765455 M 43.5,20.00000000000091 M 43.44888873943273,19.61177143234727 M 43.29903810567703,19.25000000000091 M 43.06066017178091,18.93933982822182 M 42.75000000000182,18.700961894323882 M 42.38822856765364,18.551111260568177 M 42.0,18.50000000000091 M 41.61177143234818,18.551111260568177 M 41.25000000000182,18.700961894323882 M 40.93933982822091,18.93933982822182 M 40.70096189432479,19.25000000000091 M 40.55111126056909,19.61177143234727 M 40.5,20.00000000000091 "
  />
  <path id="face2-cut"
 style="fill:none;stroke:#0000FF;stroke-width:1;stroke-miterlimit:4;stroke-dasharray:none;stroke-linejoin:round;stroke-linecap:round"
        d="M 38.00000000000182,14.50000000000091 M 22.0,14.50000000000091 M 20.00000000000182,25.50000000000091 M 40.00000000000182,25.50000000000091 "
  />
  <path id="face3-cut"
 style="fill:none;stroke:#0000FF;stroke-width:1;stroke-miterlimit:4;stroke-dasharray:none;stroke-linejoin:round;stroke-linecap:round"
        d="M 16.551111260569087,19.61177143234727 M 16.5,20.00000000000091 M 16.551111260567268,20.38822856765455 M 16.70096189432479,20.75000000000091 M 16.93933982822091,21.06066017178 M 17.25,21.299038105677027 M 17.611771432348178,21.44888873943364 M 18.0,21.5 M 18.38822856765364,21.44888873943364 M 18.75000000000182,21.299038105677027 M 19.06066017178091,21.06066017178 M 19.299038105678846,20.75000000000091 M 19.44888873943455,20.38822856765455 M 19.5,20.00000000000091 M 19.44888873943455,19.61177143234727 M 19.299038105678846,19.25000000000091 M 19.06066017178091,18.93933982822182 M 18.75000000000182,18.700961894323882 M 18.38822856765364,18.551111260568177 M 18.00000000000182,18.50000000000091 M 17.61177143234636,18.551111260568177 M 17.25000000000182,18.700961894323882 M 16.93933982822091,18.93933982822182 M 16.70096189432479,19.25000000000091 "
  />
  <path id="face0-interior"
 style="fill:none;stroke:#FF0000;stroke-width:1;stroke-miterlimit:4;stroke-dasharray:none;stroke-linejoin:round;stroke-linecap:round"
        d="M 10.0,10.0 M 10.0,30.00000000000091 M 50.00000000000182,30.00000000000091 M 50.00000000000182,10.0 M 40.70096189432479,20.75000000000091 L 40.55111126056909,20.38822856765455 L 40.5,20.00000000000091 L 40.55111126056909,19.61177143234727 L 40.70096189432479,19.25000000000091 L 40.93933982822091,18.93933982822182 L 41.25000000000182,18.700961894323882 L 41.61177143234818,18.551111260568177 L 42.0,18.50000000000091 L 42.38822856765364,18.551111260568177 L 42.75000000000182,18.700961894323882 L 43.06066017178091,18.93933982822182 L 43.29903810567703,19.25000000000091 L 43.44888873943273,19.61177143234727 L 43.5,20.00000000000091 L 43.44888873943455,20.38822856765455 L 43.29903810567885,20.75000000000091 L 43.06066017178091,21.06066017178 L 42.75000000000182,21.299038105677027 L 42.38822856765364,21.44888873943364 L 42.0,21.5 L 41.61177143234636,21.44888873943364 L 41.25000000000182,21.299038105677027 L 40.93933982822091,21.06066017178 L 40.70096189432479,20.75000000000091 M 16.5,20.00000000000091 L 16.551111260569087,19.61177143234727 L 16.70096189432479,19.25000000000091 L 16.93933982822091,18.93933982822182 L 17.25000000000182,18.700961894323882 L 17.61177143234636,18.551111260568177 L 18.00000000000182,18.50000000000091 L 18.38822856765364,18.551111260568177 L 18.75000000000182,18.700961894323882 L 19.06066017178091,18.93933982822182 L 19.299038105678846,19.25000000000091 L 19.44888873943455,19.61177143234727 L 19.5,20.00000000000091 L 19.44888873943455,20.38822856765455 L 19.299038105678846,20.75000000000091 L 19.06066017178091,21.06066017178 L 18.75000000000182,21.299038105677027 L 18.38822856765364,21.44888873943364 L 18.0,21.5 L 17.611771432348178,21.44888873943364 L 17.25,21.299038105677027 L 16.93933982822091,21.06066017178 L 16.70096189432479,20.75000000000091 L 16.551111260567268,20.38822856765455 L 16.5,20.00000000000091 M 22.0,14.50000000000091 L 38.00000000000182,14.50000000000091 L 40.00000000000182,25.50000000000091 L 20.00000000000182,25.50000000000091 L 22.0,14.50000000000091 "
  />
  <path id="face1-interior"
 style="fill:none;stroke:#FF0000;stroke-width:1;stroke-miterlimit:4;stroke-dasharray:none;stroke-linejoin:round;stroke-linecap:round"
        d="M 40.55111126056909,20.38822856765455 M 40.70096189432479,20.75000000000091 M 40.93933982822091,21.06066017178 M 41.25000000000182,21.299038105677027 M 41.61177143234636,21.44888873943364 M 42.0,21.5 M 42.38822856765364,21.44888873943364 M 42.75000000000182,21.299038105677027 M 43.06066017178091,21.06066017178 M 43.29903810567885,20.75000000000091 M 43.44888873943455,20.38822856765455 M 43.5,20.00000000000091 M 43.44888873943273,19.61177143234727 M 43.29903810567703,19.25000000000091 M 43.06066017178091,18.93933982822182 M 42.75000000000182,18.700961894323882 M 42.38822856765364,18.551111260568177 M 42.0,18.50000000000091 M 41.61177143234818,18.551111260568177 M 41.25000000000182,18.700961894323882 M 40.93933982822091,18.93933982822182 M 40.70096189432479,19.25000000000091 M 40.55111126056909,19.61177143234727 M 40.5,20.00000000000091 "
  />
  <path id="face2-interior"
 style="fill:none;stroke:#FF0000;stroke-width:1;stroke-miterlimit:4;stroke-dasharray:none;stroke-linejoin:round;stroke-linecap:round"
        d="M 38.00000000000182,14.50000000000091 M 22.0,14.50000000000091 M 20.00000000000182,25.50000000000091 M 40.00000000000182,25.50000000000091 "
  />
  <path id="face3-interior"
 style="fill:none;stroke:#FF0000;stroke-width:1;stroke-miterlimit:4;stroke-dasharray:none;stroke-linejoin:round;stroke-linecap:round"
        d="M 16.551111260569087,19.61177143234727 M 16.5,20.00000000000091 M 16.551111260567268,20.38822856765455 M 16.70096189432479,20.75000000000091 M 16.93933982822091,21.06066017178 M 17.25,21.299038105677027 M 17.611771432348178,21.44888873943364 M 18.0,21.5 M 18.38822856765364,21.44888873943364 M 18.75000000000182,21.299038105677027 M 19.06066017178091,21.06066017178 M 19.299038105678846,20.75000000000091 M 19.44888873943455,20.38822856765455 M 19.5,20.00000000000091 M 19.44888873943455,19.61177143234727 M 19.299038105678846,19.25000000000091 M 19.06066017178091,18.93933982822182 M 18.75000000000182,18.700961894323882 M 18.38822856765364,18.551111260568177 M 18.00000000000182,18.50000000000091 M 17.61177143234636,18.551111260568177 M 17.25000000000182,18.700961894323882 M 16.93933982822091,18.93933982822182 M 16.70096189432479,19.25000000000091 "
  />
  <path id="face0-interior"
 style="fill:none;stroke:#00FF00;stroke-width:1;stroke-miterlimit:4;stroke-dasharray:none;stroke-linejoin:round;stroke-linecap:round"
        d="M 10.0,10.0 M 10.0,30.00000000000091 M 50.00000000000182,30.00000000000091 M 50.00000000000182,10.0 M 40.70096189432479,20.75000000000091 M 40.55111126056909,20.38822856765455 M 40.5,20.00000000000091 M 40.55111126056909,19.61177143234727 M 40.70096189432479,19.25000000000091 M 40.93933982822091,18.93933982822182 M 41.25000000000182,18.700961894323882 M 41.61177143234818,18.551111260568177 M 42.0,18.50000000000091 M 42.38822856765364,18.551111260568177 M 42.75000000000182,18.700961894323882 M 43.06066017178091,18.93933982822182 M 43.29903810567703,19.25000000000091 M 43.44888873943273,19.61177143234727 M 43.5,20.00000000000091 M 43.44888873943455,20.38822856765455 M 43.29903810567885,20.75000000000091 M 43.06066017178091,21.06066017178 M 42.75000000000182,21.299038105677027 M 42.38822856765364,21.44888873943364 M 42.0,21.5 M 41.61177143234636,21.44888873943364 M 41.25000000000182,21.299038105677027 M 40.93933982822091,21.06066017178 M 16.5,20.00000000000091 M 16.551111260569087,19.61177143234727 M 16.70096189432479,19.25000000000091 M 16.93933982822091,18.93933982822182 M 17.25000000000182,18.700961894323882 M 17.61177143234636,18.551111260568177 M 18.00000000000182,18.50000000000091 M 18.38822856765364,18.551111260568177 M 18.75000000000182,18.700961894323882 M 19.06066017178091,18.93933982822182 M 19.299038105678846,19.25000000000091 M 19.44888873943455,19.61177143234727 M 19.5,20.00000000000091 M 19.44888873943455,20.38822856765455 M 19.299038105678846,20.75000000000091 M 19.06066017178091,21.06066017178 M 18.75000000000182,21.299038105677027 M 18.38822856765364,21.44888873943364 M 18.0,21.5 M 17.611771432348178,21.44888873943364 M 17.25,21.299038105677027 M 16.93933982822091,21.06066017178 M 16.70096189432479,20.75000000000091 M 16.551111260567268,20.38822856765455 M 22.0,14.50000000000091 M 38.00000000000182,14.50000000000091 M 40.00000000000182,25.50000000000091 M 20.00000000000182,25.50000000000091 "
  />
  <path id="face1-interior"
 style="fill:none;stroke:#00FF00;stroke-width:1;stroke-miterlimit:4;stroke-dasharray:none;stroke-linejoin:round;stroke-linecap:round"
        d="M 40.55111126056909,20.38822856765455 M 40.70096189432479,20.75000000000091 M 40.93933982822091,21.06066017178 M 41.25000000000182,21.299038105677027 M 41.61177143234636,21.44888873943364 M 42.0,21.5 M 42.38822856765364,21.44888873943364 M 42.75000000000182,21.299038105677027 M 43.06066017178091,21.06066017178 M 43.29903810567885,20.75000000000091 M 43.44888873943455,20.38822856765455 M 43.5,20.00000000000091 M 43.44888873943273,19.61177143234727 M 43.29903810567703,19.25000000000091 M 43.06066017178091,18.93933982822182 M 42.75000000000182,18.700961894323882 M 42.38822856765364,18.551111260568177 M 42.0,18.50000000000091 M 41.61177143234818,18.551111260568177 M 41.25000000000182,18.700961894323882 M 40.93933982822091,18.93933982822182 M 40.70096189432479,19.25000000000091 M 40.55111126056909,19.61177143234727 M 40.5,20.00000000000091 "
  />
  <path id="face2-interior"
 style="fill:none;stroke:#00FF00;stroke-width:1;stroke-miterlimit:4;stroke-dasharray:none;stroke-linejoin:round;stroke-linecap:round"
        d="M 38.00000000000182,14.50000000000091 M 22.0,14.50000000000091 M 20.00000000000182,25.50000000000091 M 40.00000000000182,25.50000000000091 "
  />
  <path id="face3-interior"
 style="fill:none;stroke:#00FF00;stroke-width:1;stroke-miterlimit:4;stroke-dasharray:none;stroke-linejoin:round;stroke-linecap:round"
        d="M 16.551111260569087,19.61177143234727 M 16.5,20.00000000000091 M 16.551111260567268,20.38822856765455 M 16.70096189432479,20.75000000000091 M 16.93933982822091,21.06066017178 M 17.25,21.299038105677027 M 17.611771432348178,21.44888873943364 M 18.0,21.5 M 18.38822856765364,21.44888873943364 M 18.75000000000182,21.299038105677027 M 19.06066017178091,21.06066017178 M 19.299038105678846,20.75000000000091 M 19.44888873943455,20.38822856765455 M 19.5,20.00000000000091 M 19.44888873943455,19.61177143234727 M 19.299038105678846,19.25000000000091 M 19.06066017178091,18.93933982822182 M 18.75000000000182,18.700961894323882 M 18.38822856765364,18.551111260568177 M 18.00000000000182,18.50000000000091 M 17.61177143234636,18.551111260568177 M 17.25000000000182,18.700961894323882 M 16.93933982822091,18.93933982822182 M 16.70096189432479,19.25000000000091 "
  />
</svg>
