<?xml version="1.0" standalone="no"?>
<!DOCTYPE svg PUBLIC "-//W3C//DTD SVG 1.1//EN" "http://www.w3.org/Graphics/SVG/1.1/DTD/svg11.dtd">
<svg width="3103.731726874974mm" height="5658.396328226672mm"
 viewBox="0 0 3103.731726874974 5658.396328226672"
 xmlns="http://www.w3.org/2000/svg" version="1.1"
 xmlns:xlink="http://www.w3.org/1999/xlink">
<desc>Output from Flights of Ideas SVG Sketchup Plugin</desc>

  <path id="face0-cut"
 style="fill:none;stroke:#0000FF;stroke-width:1;stroke-miterlimit:4;stroke-dasharray:none;stroke-linejoin:round;stroke-linecap:round"
        d="M 2797.9336436767762,4869.144271884246 M 2797.9336436767753,4829.144271884369 M 2757.9336436767762,4829.144271884369 M 2757.9336436767762,4826.144271884379 M 2740.9336436767676,4826.144271884379 M 2737.9336436767762,4826.144271884379 M 2737.9336436767767,4829.144271884369 M 2657.9336436767762,4829.144271884369 M 2657.9336436767762,4826.144271884379 M 2650.9336436767694,4826.144271884379 M 2637.9336436767762,4826.144271884379 M 2637.933643676776,4829.144271884369 M 2557.9336436767767,4829.144271884369 M 2557.933643676776,4826.144271884379 M 2537.9336436767767,4826.14427188438 M 2537.9336436767762,4829.144271884369 M 2500.933643676776,4829.144271884369 M 2500.933643676776,4869.144271884246 M 2497.9336436767744,4869.144271884246 M 2497.933643676774,4889.144271884186 M 2500.9336436767762,4889.144271884186 M 2500.9336436767762,4969.14427188395 M 2497.9336436767753,4969.14427188395 M 2497.9336436767753,4989.118977660171 M 2500.9336436767762,4989.118977660171 M 2500.9336436767767,5067.944271883665 M 2497.9336436767762,5067.944271883665 M 2497.9336436767762,5087.944271883612 M 2500.9336436767762,5087.944271883611 M 2500.9336436767767,5127.944271883502 M 2797.9336436767762,5127.944271883502 M 2797.9336436767762,5087.944271883612 M 2800.9336436767762,5087.944271883612 M 2800.9336436767767,5067.944271883666 M 2797.933643676776,5067.944271883665 M 2797.9336436767762,4989.118977660171 M 2800.9336436767762,4989.1189776601705 M 2800.9336436767762,4969.14427188395 M 2797.9336436767762,4969.144271883949 M 2797.9336436767762,4889.144271884186 M 2800.933643676776,4889.144271884186 M 2800.9336436767762,4869.144271884246 "
  />
  <path id="face1-cut"
 style="fill:none;stroke:#0000FF;stroke-width:1;stroke-miterlimit:4;stroke-dasharray:none;stroke-linejoin:round;stroke-linecap:round"
        d="M 2493.7317268749734,5636.101885410405 L 2493.732141740708,5536.101885411489 M 2496.7321417406824,5536.10189785746 M 2496.732556606419,5436.1018978585535 M 2493.7325566064437,5436.101885412582 L 2493.73297147218,5336.1018854136855 M 2496.7329714721536,5336.101897859658 M 2496.73338633789,5236.101897860774 M 2493.7333863379145,5236.1018854148015 L 2493.73380120365,5136.10188541593 M 2526.733801203365,5136.102022321622 M 2526.733813649337,5133.102022321656 M 2556.73381364908,5133.102146781377 M 2556.7338012031078,5136.102146781344 M 2586.7338012028504,5136.102271241064 M 2586.733813648822,5133.102271241099 M 2616.733813648562,5133.102395700818 M 2616.7338012025916,5136.102395700784 M 2646.7338012023333,5136.102520160504 M 2646.733813648307,5133.10252016054 M 2676.7338136480475,5133.10264462026 M 2676.733801202075,5136.102644620226 M 2706.733801201818,5136.1027690799465 M 2706.73381364779,5133.102769079981 M 2736.7338136475305,5133.102893539702 M 2736.733801201559,5136.102893539666 M 2766.7338012013006,5136.103017999387 M 2766.7338136472727,5133.103017999422 M 2795.5469485880644,5133.103137535245 M 2798.3323905508446,5131.98905381754 M 2810.9806174818154,5163.614106290967 M 2808.1951755190357,5164.728190008592 M 2820.843402450009,5196.353242481939 M 2823.628851198466,5195.239148681966 M 2836.2770781294385,5226.864201155396 M 2833.49162938098,5227.978294955286 M 2846.1398563119546,5259.603347428636 M 2848.925311533616,5258.489251041711 M 2861.5735384645886,5290.114303515127 M 2858.7880832429255,5291.228399901987 M 2871.436310173898,5322.853452375339 M 2874.221768991805,5321.739354554269 M 2886.8699959227774,5353.364407027654 M 2884.0845371048695,5354.478504848691 M 2896.7327640358444,5386.103557322044 M 2884.0819641362305,5417.728504838407 M 2886.867379297517,5418.842713758093 M 2874.2165793979057,5450.467661274441 M 2871.4311642366188,5449.35345235477 M 2858.7803643370057,5480.978399871135 M 2861.5657789017855,5482.092608555292 M 2848.9149790021725,5513.7175560716205 M 2846.1295644373936,5512.6033473875 M 2833.4787645377824,5544.228294903864 M 2836.264178028845,5545.342503161862 M 2823.613378129232,5576.96745067817 M 2820.827964638169,5575.853242420231 M 2808.1771647385553,5607.478189936602 M 2810.9625766787008,5608.592397577793 M 2798.31177677909,5640.217345094077 M 2795.526364838943,5639.103137452969 M 2766.7317144266513,5639.10301799383 M 2766.7317268726233,5636.1030179938625 M 2736.7317268728816,5636.102893534142 M 2736.731714426909,5639.10289353411 M 2706.7317144271697,5639.10276907439 M 2706.731726873141,5636.102769074421 M 2676.7317268733987,5636.102644614701 M 2676.731714427427,5639.102644614668 M 2646.731714427685,5639.102520154947 M 2646.731726873658,5636.10252015498 M 2616.731726873914,5636.1023956952595 M 2616.7317144279423,5639.102395695228 M 2586.731714428202,5639.102271235506 M 2586.7317268741726,5636.102271235539 M 2556.731726874432,5636.102146775817 M 2556.731714428459,5639.102146775787 M 2526.7317144287176,5639.102022316065 M 2526.7317268746883,5636.102022316097 M 2556.732742564588,5389.102153001436 L 2556.73275501056,5386.102153001491 L 2536.7327550107316,5386.102070028349 L 2536.7327425647604,5389.102070028317 L 2556.732742564588,5389.102153001436 M 2656.7327550097007,5386.102567867228 L 2636.732755009872,5386.102484894083 L 2636.7327425638996,5389.1024848940515 L 2656.7327425637277,5389.102567867172 L 2656.7327550097007,5386.102567867228 M 2735.7327550090195,5386.10289561116 L 2735.732742563049,5389.1028956111295 L 2755.7327425628755,5389.102978584249 L 2755.7327550088467,5386.102978584305 L 2735.7327550090195,5386.10289561116 "
  />
  <path id="face2-cut"
 style="fill:none;stroke:#0000FF;stroke-width:1;stroke-miterlimit:4;stroke-dasharray:none;stroke-linejoin:round;stroke-linecap:round"
        d="M 3019.6323045524823,5291.78709000501 M 3019.6323045524846,5631.77391857337 M 3029.6323045524864,5631.77391857337 M 3029.632304552486,5634.773918573366 M 3039.6323045524846,5634.773918573367 M 3039.6323045524837,5631.77391857337 M 3049.6323045524846,5631.77391857337 M 3049.632304552485,5634.7739185733635 M 3059.632304552485,5634.773918573364 M 3059.632304552485,5631.773918573366 M 3069.632304552484,5631.773918573366 M 3069.632304552485,5634.773918573364 M 3079.632304552485,5634.773918573364 M 3079.6323045524837,5581.773918573472 M 3082.6323045524823,5581.773918573472 M 3082.6323045524837,5481.773918573693 M 3079.6323045524837,5481.773918573693 M 3079.6323045524837,5381.773918573931 M 3082.632304552483,5381.773918573932 M 3082.6323045524828,5281.773918574171 M 3079.632304552484,5281.773918574171 M 3079.632304552483,5182.221278551148 M 3082.632304552484,5182.221278551147 M 3082.6323045524846,5081.773918574699 M 3079.632304552485,5081.773918574698 M 3079.6323045524855,4981.77391857498 M 3082.632304552484,4981.77391857498 M 3082.6323045524828,4881.773918575275 M 3079.6323045524837,4881.773918575275 M 3079.6323045524837,4802.773918575528 M 3069.632304552484,4802.773918575528 M 3069.6323045524855,4805.773918575515 M 3059.632304552485,4805.773918575515 M 3059.632304552485,4802.773918575525 M 3049.632304552484,4802.773918575525 M 3049.632304552484,4805.773918575515 M 3039.6323045524846,4805.773918575515 M 3039.632304552484,4802.773918575528 M 3029.6323045524864,4802.773918575528 M 3029.632304552485,4805.773918575515 M 3019.632304552484,4805.773918575515 M 3019.632304552484,5145.760747143658 M 3049.6323045524846,5145.760747143658 M 3049.6323045524846,5148.773918574511 M 3019.632304552484,5148.773918574511 M 3019.632304552484,5288.773918574153 M 3049.632304552484,5288.773918574153 M 3049.6323045524837,5291.78709000501 "
  />
  <path id="face3-cut"
 style="fill:none;stroke:#0000FF;stroke-width:1;stroke-miterlimit:4;stroke-dasharray:none;stroke-linejoin:round;stroke-linecap:round"
        d="M 2493.731726874974,4748.396328229038 L 2493.73380120365,5136.10188541593 M 2526.733801203365,5136.102022321622 M 2526.733813649337,5133.102022321656 M 2556.73381364908,5133.102146781377 M 2556.7338012031078,5136.102146781344 M 2586.7338012028504,5136.102271241064 M 2586.733813648822,5133.102271241099 M 2616.733813648562,5133.102395700818 M 2616.7338012025916,5136.102395700784 M 2646.7338012023333,5136.102520160504 M 2646.733813648307,5133.10252016054 M 2676.7338136480475,5133.10264462026 M 2676.733801202075,5136.102644620226 M 2706.733801201818,5136.1027690799465 M 2706.73381364779,5133.102769079981 M 2736.7338136475305,5133.102893539702 M 2736.733801201559,5136.102893539666 M 2766.7338012013006,5136.103017999387 M 2766.7338136472727,5133.103017999422 M 2795.5469485880644,5133.103137535245 M 2798.3323905508446,5131.98905381754 M 2810.9806174818154,5163.614106290967 M 2808.1951755190357,5164.728190008592 M 2820.843402450009,5196.353242481939 M 2823.628851198466,5195.239148681966 M 2836.2770781294385,5226.864201155396 M 2833.49162938098,5227.978294955286 M 2846.1398563119546,5259.603347428636 M 2848.925311533616,5258.489251041711 M 2861.5735384645886,5290.114303515127 M 2858.7880832429255,5291.228399901987 M 2871.436310173898,5322.853452375339 M 2874.221768991805,5321.739354554269 M 2886.8699959227774,5353.364407027654 M 2884.0845371048695,5354.478504848691 M 2896.7327640358444,5386.103557322044 M 2884.0819641362305,5417.728504838407 M 2886.867379297517,5418.842713758093 M 2874.2165793979057,5450.467661274441 M 2871.4311642366188,5449.35345235477 M 2858.7803643370057,5480.978399871135 M 2861.5657789017855,5482.092608555292 M 2848.9149790021725,5513.7175560716205 M 2846.1295644373936,5512.6033473875 M 2833.4787645377824,5544.228294903864 M 2836.264178028845,5545.342503161862 M 2823.613378129232,5576.96745067817 M 2820.827964638169,5575.853242420231 M 2808.1771647385553,5607.478189936602 M 2810.9625766787008,5608.592397577793 M 2798.31177677909,5640.217345094077 M 2795.526364838943,5639.103137452969 M 2766.7317144266513,5639.10301799383 M 2766.7317268726233,5636.1030179938625 M 2736.7317268728816,5636.102893534142 M 2736.731714426909,5639.10289353411 M 2706.7317144271697,5639.10276907439 M 2706.731726873141,5636.102769074421 M 2676.7317268733987,5636.102644614701 M 2676.731714427427,5639.102644614668 M 2646.731714427685,5639.102520154947 M 2646.731726873658,5636.10252015498 M 2616.731726873914,5636.1023956952595 M 2616.7317144279423,5639.102395695228 M 2586.731714428202,5639.102271235506 M 2586.7317268741726,5636.102271235539 M 2556.731726874432,5636.102146775817 M 2556.731714428459,5639.102146775787 M 2526.7317144287176,5639.102022316065 M 2526.7317268746883,5636.102022316097 M 2493.7317268749734,5636.101885410405 L 2493.731726874974,5648.396328226672 L 3093.731726874974,5648.396328226672 L 3093.731726874974,4748.396328229039 L 2493.731726874974,4748.396328229038 M 2797.9336436767753,4829.144271884369 M 2797.9336436767762,4869.144271884246 M 2800.9336436767762,4869.144271884246 M 2800.933643676776,4889.144271884186 M 2797.9336436767762,4889.144271884186 M 2797.9336436767762,4969.144271883949 M 2800.9336436767762,4969.14427188395 M 2800.9336436767762,4989.1189776601705 M 2797.9336436767762,4989.118977660171 M 2797.933643676776,5067.944271883665 M 2800.9336436767767,5067.944271883666 M 2800.9336436767762,5087.944271883612 M 2797.9336436767762,5087.944271883612 M 2797.9336436767762,5127.944271883502 M 2500.9336436767767,5127.944271883502 M 2500.9336436767762,5087.944271883611 M 2497.9336436767762,5087.944271883612 M 2497.9336436767762,5067.944271883665 M 2500.9336436767767,5067.944271883665 M 2500.9336436767762,4989.118977660171 M 2497.9336436767753,4989.118977660171 M 2497.9336436767753,4969.14427188395 M 2500.9336436767762,4969.14427188395 M 2500.9336436767762,4889.144271884186 M 2497.933643676774,4889.144271884186 M 2497.9336436767744,4869.144271884246 M 2500.933643676776,4869.144271884246 M 2500.933643676776,4829.144271884369 M 2537.9336436767762,4829.144271884369 M 2537.9336436767767,4826.14427188438 M 2557.933643676776,4826.144271884379 M 2557.9336436767767,4829.144271884369 M 2637.933643676776,4829.144271884369 M 2637.9336436767762,4826.144271884379 M 2650.9336436767694,4826.144271884379 M 2657.9336436767762,4826.144271884379 M 2657.9336436767762,4829.144271884369 M 2737.9336436767767,4829.144271884369 M 2737.9336436767762,4826.144271884379 M 2740.9336436767676,4826.144271884379 M 2757.9336436767762,4826.144271884379 M 2757.9336436767762,4829.144271884369 M 3019.6323045524846,5631.77391857337 M 3019.6323045524823,5291.78709000501 M 3049.6323045524837,5291.78709000501 M 3049.632304552484,5288.773918574153 M 3019.632304552484,5288.773918574153 M 3019.632304552484,5148.773918574511 M 3049.6323045524846,5148.773918574511 M 3049.6323045524846,5145.760747143658 M 3019.632304552484,5145.760747143658 M 3019.632304552484,4805.773918575515 M 3029.632304552485,4805.773918575515 M 3029.6323045524864,4802.773918575528 M 3039.632304552484,4802.773918575528 M 3039.6323045524846,4805.773918575515 M 3049.632304552484,4805.773918575515 M 3049.632304552484,4802.773918575525 M 3059.632304552485,4802.773918575525 M 3059.632304552485,4805.773918575515 M 3069.6323045524855,4805.773918575515 M 3069.632304552484,4802.773918575528 M 3079.6323045524837,4802.773918575528 M 3079.6323045524837,4881.773918575275 M 3082.6323045524828,4881.773918575275 M 3082.632304552484,4981.77391857498 M 3079.6323045524855,4981.77391857498 M 3079.632304552485,5081.773918574698 M 3082.6323045524846,5081.773918574699 M 3082.632304552484,5182.221278551147 M 3079.632304552483,5182.221278551148 M 3079.632304552484,5281.773918574171 M 3082.6323045524828,5281.773918574171 M 3082.632304552483,5381.773918573932 M 3079.6323045524837,5381.773918573931 M 3079.6323045524837,5481.773918573693 M 3082.6323045524837,5481.773918573693 M 3082.6323045524823,5581.773918573472 M 3079.6323045524837,5581.773918573472 M 3079.632304552485,5634.773918573364 M 3069.632304552485,5634.773918573364 M 3069.632304552484,5631.773918573366 M 3059.632304552485,5631.773918573366 M 3059.632304552485,5634.773918573364 M 3049.632304552485,5634.7739185733635 M 3049.6323045524846,5631.77391857337 M 3039.6323045524837,5631.77391857337 M 3039.6323045524846,5634.773918573367 M 3029.632304552486,5634.773918573366 M 3029.6323045524864,5631.77391857337 "
  />
  <path id="face4-cut"
 style="fill:none;stroke:#0000FF;stroke-width:1;stroke-miterlimit:4;stroke-dasharray:none;stroke-linejoin:round;stroke-linecap:round"
        d="M 2493.7325566064437,5436.101885412582 L 2493.732141740708,5536.101885411489 M 2496.7321417406824,5536.10189785746 M 2496.732556606419,5436.1018978585535 "
  />
  <path id="face5-cut"
 style="fill:none;stroke:#0000FF;stroke-width:1;stroke-miterlimit:4;stroke-dasharray:none;stroke-linejoin:round;stroke-linecap:round"
        d="M 2493.7333863379145,5236.1018854148015 L 2493.73297147218,5336.1018854136855 M 2496.7329714721536,5336.101897859658 M 2496.73338633789,5236.101897860774 "
  />
  <path id="face0-interior"
 style="fill:none;stroke:#FF0000;stroke-width:1;stroke-miterlimit:4;stroke-dasharray:none;stroke-linejoin:round;stroke-linecap:round"
        d="M 2797.9336436767762,4869.144271884246 L 2797.9336436767753,4829.144271884369 L 2757.9336436767762,4829.144271884369 L 2757.9336436767762,4826.144271884379 L 2740.9336436767676,4826.144271884379 L 2737.9336436767762,4826.144271884379 L 2737.9336436767767,4829.144271884369 L 2657.9336436767762,4829.144271884369 L 2657.9336436767762,4826.144271884379 L 2650.9336436767694,4826.144271884379 L 2637.9336436767762,4826.144271884379 L 2637.933643676776,4829.144271884369 L 2557.9336436767767,4829.144271884369 L 2557.933643676776,4826.144271884379 L 2537.9336436767767,4826.14427188438 L 2537.9336436767762,4829.144271884369 L 2500.933643676776,4829.144271884369 L 2500.933643676776,4869.144271884246 L 2497.9336436767744,4869.144271884246 L 2497.933643676774,4889.144271884186 L 2500.9336436767762,4889.144271884186 L 2500.9336436767762,4969.14427188395 L 2497.9336436767753,4969.14427188395 L 2497.9336436767753,4989.118977660171 L 2500.9336436767762,4989.118977660171 L 2500.9336436767767,5067.944271883665 L 2497.9336436767762,5067.944271883665 L 2497.9336436767762,5087.944271883612 L 2500.9336436767762,5087.944271883611 L 2500.9336436767767,5127.944271883502 L 2797.9336436767762,5127.944271883502 L 2797.9336436767762,5087.944271883612 L 2800.9336436767762,5087.944271883612 L 2800.9336436767767,5067.944271883666 L 2797.933643676776,5067.944271883665 L 2797.9336436767762,4989.118977660171 L 2800.9336436767762,4989.1189776601705 L 2800.9336436767762,4969.14427188395 L 2797.9336436767762,4969.144271883949 L 2797.9336436767762,4889.144271884186 L 2800.933643676776,4889.144271884186 L 2800.9336436767762,4869.144271884246 L 2797.9336436767762,4869.144271884246 "
  />
  <path id="face1-interior"
 style="fill:none;stroke:#FF0000;stroke-width:1;stroke-miterlimit:4;stroke-dasharray:none;stroke-linejoin:round;stroke-linecap:round"
        d="M 2493.7317268749734,5636.101885410405 M 2493.732141740708,5536.101885411489 L 2496.7321417406824,5536.10189785746 L 2496.732556606419,5436.1018978585535 L 2493.7325566064437,5436.101885412582 M 2493.73297147218,5336.1018854136855 L 2496.7329714721536,5336.101897859658 L 2496.73338633789,5236.101897860774 L 2493.7333863379145,5236.1018854148015 M 2493.73380120365,5136.10188541593 L 2526.733801203365,5136.102022321622 L 2526.733813649337,5133.102022321656 L 2556.73381364908,5133.102146781377 L 2556.7338012031078,5136.102146781344 L 2586.7338012028504,5136.102271241064 L 2586.733813648822,5133.102271241099 L 2616.733813648562,5133.102395700818 L 2616.7338012025916,5136.102395700784 L 2646.7338012023333,5136.102520160504 L 2646.733813648307,5133.10252016054 L 2676.7338136480475,5133.10264462026 L 2676.733801202075,5136.102644620226 L 2706.733801201818,5136.1027690799465 L 2706.73381364779,5133.102769079981 L 2736.7338136475305,5133.102893539702 L 2736.733801201559,5136.102893539666 L 2766.7338012013006,5136.103017999387 L 2766.7338136472727,5133.103017999422 L 2795.5469485880644,5133.103137535245 L 2798.3323905508446,5131.98905381754 L 2810.9806174818154,5163.614106290967 L 2808.1951755190357,5164.728190008592 L 2820.843402450009,5196.353242481939 L 2823.628851198466,5195.239148681966 L 2836.2770781294385,5226.864201155396 L 2833.49162938098,5227.978294955286 L 2846.1398563119546,5259.603347428636 L 2848.925311533616,5258.489251041711 L 2861.5735384645886,5290.114303515127 L 2858.7880832429255,5291.228399901987 L 2871.436310173898,5322.853452375339 L 2874.221768991805,5321.739354554269 L 2886.8699959227774,5353.364407027654 L 2884.0845371048695,5354.478504848691 L 2896.7327640358444,5386.103557322044 L 2884.0819641362305,5417.728504838407 L 2886.867379297517,5418.842713758093 L 2874.2165793979057,5450.467661274441 L 2871.4311642366188,5449.35345235477 L 2858.7803643370057,5480.978399871135 L 2861.5657789017855,5482.092608555292 L 2848.9149790021725,5513.7175560716205 L 2846.1295644373936,5512.6033473875 L 2833.4787645377824,5544.228294903864 L 2836.264178028845,5545.342503161862 L 2823.613378129232,5576.96745067817 L 2820.827964638169,5575.853242420231 L 2808.1771647385553,5607.478189936602 L 2810.9625766787008,5608.592397577793 L 2798.31177677909,5640.217345094077 L 2795.526364838943,5639.103137452969 L 2766.7317144266513,5639.10301799383 L 2766.7317268726233,5636.1030179938625 L 2736.7317268728816,5636.102893534142 L 2736.731714426909,5639.10289353411 L 2706.7317144271697,5639.10276907439 L 2706.731726873141,5636.102769074421 L 2676.7317268733987,5636.102644614701 L 2676.731714427427,5639.102644614668 L 2646.731714427685,5639.102520154947 L 2646.731726873658,5636.10252015498 L 2616.731726873914,5636.1023956952595 L 2616.7317144279423,5639.102395695228 L 2586.731714428202,5639.102271235506 L 2586.7317268741726,5636.102271235539 L 2556.731726874432,5636.102146775817 L 2556.731714428459,5639.102146775787 L 2526.7317144287176,5639.102022316065 L 2526.7317268746883,5636.102022316097 L 2493.7317268749734,5636.101885410405 M 2556.732742564588,5389.102153001436 M 2556.73275501056,5386.102153001491 M 2536.7327550107316,5386.102070028349 M 2536.7327425647604,5389.102070028317 M 2656.7327550097007,5386.102567867228 M 2636.732755009872,5386.102484894083 M 2636.7327425638996,5389.1024848940515 M 2656.7327425637277,5389.102567867172 M 2735.7327550090195,5386.10289561116 M 2735.732742563049,5389.1028956111295 M 2755.7327425628755,5389.102978584249 M 2755.7327550088467,5386.102978584305 "
  />
  <path id="face2-interior"
 style="fill:none;stroke:#FF0000;stroke-width:1;stroke-miterlimit:4;stroke-dasharray:none;stroke-linejoin:round;stroke-linecap:round"
        d="M 3019.6323045524823,5291.78709000501 L 3019.6323045524846,5631.77391857337 L 3029.6323045524864,5631.77391857337 L 3029.632304552486,5634.773918573366 L 3039.6323045524846,5634.773918573367 L 3039.6323045524837,5631.77391857337 L 3049.6323045524846,5631.77391857337 L 3049.632304552485,5634.7739185733635 L 3059.632304552485,5634.773918573364 L 3059.632304552485,5631.773918573366 L 3069.632304552484,5631.773918573366 L 3069.632304552485,5634.773918573364 L 3079.632304552485,5634.773918573364 L 3079.6323045524837,5581.773918573472 L 3082.6323045524823,5581.773918573472 L 3082.6323045524837,5481.773918573693 L 3079.6323045524837,5481.773918573693 L 3079.6323045524837,5381.773918573931 L 3082.632304552483,5381.773918573932 L 3082.6323045524828,5281.773918574171 L 3079.632304552484,5281.773918574171 L 3079.632304552483,5182.221278551148 L 3082.632304552484,5182.221278551147 L 3082.6323045524846,5081.773918574699 L 3079.632304552485,5081.773918574698 L 3079.6323045524855,4981.77391857498 L 3082.632304552484,4981.77391857498 L 3082.6323045524828,4881.773918575275 L 3079.6323045524837,4881.773918575275 L 3079.6323045524837,4802.773918575528 L 3069.632304552484,4802.773918575528 L 3069.6323045524855,4805.773918575515 L 3059.632304552485,4805.773918575515 L 3059.632304552485,4802.773918575525 L 3049.632304552484,4802.773918575525 L 3049.632304552484,4805.773918575515 L 3039.6323045524846,4805.773918575515 L 3039.632304552484,4802.773918575528 L 3029.6323045524864,4802.773918575528 L 3029.632304552485,4805.773918575515 L 3019.632304552484,4805.773918575515 L 3019.632304552484,5145.760747143658 L 3049.6323045524846,5145.760747143658 L 3049.6323045524846,5148.773918574511 L 3019.632304552484,5148.773918574511 L 3019.632304552484,5288.773918574153 L 3049.632304552484,5288.773918574153 L 3049.6323045524837,5291.78709000501 L 3019.6323045524823,5291.78709000501 "
  />
  <path id="face3-interior"
 style="fill:none;stroke:#FF0000;stroke-width:1;stroke-miterlimit:4;stroke-dasharray:none;stroke-linejoin:round;stroke-linecap:round"
        d="M 2493.731726874974,4748.396328229038 M 2493.73380120365,5136.10188541593 M 2526.733801203365,5136.102022321622 M 2526.733813649337,5133.102022321656 M 2556.73381364908,5133.102146781377 M 2556.7338012031078,5136.102146781344 M 2586.7338012028504,5136.102271241064 M 2586.733813648822,5133.102271241099 M 2616.733813648562,5133.102395700818 M 2616.7338012025916,5136.102395700784 M 2646.7338012023333,5136.102520160504 M 2646.733813648307,5133.10252016054 M 2676.7338136480475,5133.10264462026 M 2676.733801202075,5136.102644620226 M 2706.733801201818,5136.1027690799465 M 2706.73381364779,5133.102769079981 M 2736.7338136475305,5133.102893539702 M 2736.733801201559,5136.102893539666 M 2766.7338012013006,5136.103017999387 M 2766.7338136472727,5133.103017999422 M 2795.5469485880644,5133.103137535245 M 2798.3323905508446,5131.98905381754 M 2810.9806174818154,5163.614106290967 M 2808.1951755190357,5164.728190008592 M 2820.843402450009,5196.353242481939 M 2823.628851198466,5195.239148681966 M 2836.2770781294385,5226.864201155396 M 2833.49162938098,5227.978294955286 M 2846.1398563119546,5259.603347428636 M 2848.925311533616,5258.489251041711 M 2861.5735384645886,5290.114303515127 M 2858.7880832429255,5291.228399901987 M 2871.436310173898,5322.853452375339 M 2874.221768991805,5321.739354554269 M 2886.8699959227774,5353.364407027654 M 2884.0845371048695,5354.478504848691 M 2896.7327640358444,5386.103557322044 M 2884.0819641362305,5417.728504838407 M 2886.867379297517,5418.842713758093 M 2874.2165793979057,5450.467661274441 M 2871.4311642366188,5449.35345235477 M 2858.7803643370057,5480.978399871135 M 2861.5657789017855,5482.092608555292 M 2848.9149790021725,5513.7175560716205 M 2846.1295644373936,5512.6033473875 M 2833.4787645377824,5544.228294903864 M 2836.264178028845,5545.342503161862 M 2823.613378129232,5576.96745067817 M 2820.827964638169,5575.853242420231 M 2808.1771647385553,5607.478189936602 M 2810.9625766787008,5608.592397577793 M 2798.31177677909,5640.217345094077 M 2795.526364838943,5639.103137452969 M 2766.7317144266513,5639.10301799383 M 2766.7317268726233,5636.1030179938625 M 2736.7317268728816,5636.102893534142 M 2736.731714426909,5639.10289353411 M 2706.7317144271697,5639.10276907439 M 2706.731726873141,5636.102769074421 M 2676.7317268733987,5636.102644614701 M 2676.731714427427,5639.102644614668 M 2646.731714427685,5639.102520154947 M 2646.731726873658,5636.10252015498 M 2616.731726873914,5636.1023956952595 M 2616.7317144279423,5639.102395695228 M 2586.731714428202,5639.102271235506 M 2586.7317268741726,5636.102271235539 M 2556.731726874432,5636.102146775817 M 2556.731714428459,5639.102146775787 M 2526.7317144287176,5639.102022316065 M 2526.7317268746883,5636.102022316097 M 2493.7317268749734,5636.101885410405 M 2493.731726874974,5648.396328226672 M 3093.731726874974,5648.396328226672 M 3093.731726874974,4748.396328229039 M 2797.9336436767753,4829.144271884369 M 2797.9336436767762,4869.144271884246 M 2800.9336436767762,4869.144271884246 M 2800.933643676776,4889.144271884186 M 2797.9336436767762,4889.144271884186 M 2797.9336436767762,4969.144271883949 M 2800.9336436767762,4969.14427188395 M 2800.9336436767762,4989.1189776601705 M 2797.9336436767762,4989.118977660171 M 2797.933643676776,5067.944271883665 M 2800.9336436767767,5067.944271883666 M 2800.9336436767762,5087.944271883612 M 2797.9336436767762,5087.944271883612 M 2797.9336436767762,5127.944271883502 M 2500.9336436767767,5127.944271883502 M 2500.9336436767762,5087.944271883611 M 2497.9336436767762,5087.944271883612 M 2497.9336436767762,5067.944271883665 M 2500.9336436767767,5067.944271883665 M 2500.9336436767762,4989.118977660171 M 2497.9336436767753,4989.118977660171 M 2497.9336436767753,4969.14427188395 M 2500.9336436767762,4969.14427188395 M 2500.9336436767762,4889.144271884186 M 2497.933643676774,4889.144271884186 M 2497.9336436767744,4869.144271884246 M 2500.933643676776,4869.144271884246 M 2500.933643676776,4829.144271884369 M 2537.9336436767762,4829.144271884369 M 2537.9336436767767,4826.14427188438 M 2557.933643676776,4826.144271884379 M 2557.9336436767767,4829.144271884369 M 2637.933643676776,4829.144271884369 M 2637.9336436767762,4826.144271884379 M 2650.9336436767694,4826.144271884379 M 2657.9336436767762,4826.144271884379 M 2657.9336436767762,4829.144271884369 M 2737.9336436767767,4829.144271884369 M 2737.9336436767762,4826.144271884379 M 2740.9336436767676,4826.144271884379 M 2757.9336436767762,4826.144271884379 M 2757.9336436767762,4829.144271884369 M 3019.6323045524846,5631.77391857337 M 3019.6323045524823,5291.78709000501 M 3049.6323045524837,5291.78709000501 M 3049.632304552484,5288.773918574153 M 3019.632304552484,5288.773918574153 M 3019.632304552484,5148.773918574511 M 3049.6323045524846,5148.773918574511 M 3049.6323045524846,5145.760747143658 M 3019.632304552484,5145.760747143658 M 3019.632304552484,4805.773918575515 M 3029.632304552485,4805.773918575515 M 3029.6323045524864,4802.773918575528 M 3039.632304552484,4802.773918575528 M 3039.6323045524846,4805.773918575515 M 3049.632304552484,4805.773918575515 M 3049.632304552484,4802.773918575525 M 3059.632304552485,4802.773918575525 M 3059.632304552485,4805.773918575515 M 3069.6323045524855,4805.773918575515 M 3069.632304552484,4802.773918575528 M 3079.6323045524837,4802.773918575528 M 3079.6323045524837,4881.773918575275 M 3082.6323045524828,4881.773918575275 M 3082.632304552484,4981.77391857498 M 3079.6323045524855,4981.77391857498 M 3079.632304552485,5081.773918574698 M 3082.6323045524846,5081.773918574699 M 3082.632304552484,5182.221278551147 M 3079.632304552483,5182.221278551148 M 3079.632304552484,5281.773918574171 M 3082.6323045524828,5281.773918574171 M 3082.632304552483,5381.773918573932 M 3079.6323045524837,5381.773918573931 M 3079.6323045524837,5481.773918573693 M 3082.6323045524837,5481.773918573693 M 3082.6323045524823,5581.773918573472 M 3079.6323045524837,5581.773918573472 M 3079.632304552485,5634.773918573364 M 3069.632304552485,5634.773918573364 M 3069.632304552484,5631.773918573366 M 3059.632304552485,5631.773918573366 M 3059.632304552485,5634.773918573364 M 3049.632304552485,5634.7739185733635 M 3049.6323045524846,5631.77391857337 M 3039.6323045524837,5631.77391857337 M 3039.6323045524846,5634.773918573367 M 3029.632304552486,5634.773918573366 M 3029.6323045524864,5631.77391857337 "
  />
  <path id="face4-interior"
 style="fill:none;stroke:#FF0000;stroke-width:1;stroke-miterlimit:4;stroke-dasharray:none;stroke-linejoin:round;stroke-linecap:round"
        d="M 2493.7325566064437,5436.101885412582 M 2493.732141740708,5536.101885411489 M 2496.7321417406824,5536.10189785746 M 2496.732556606419,5436.1018978585535 "
  />
  <path id="face5-interior"
 style="fill:none;stroke:#FF0000;stroke-width:1;stroke-miterlimit:4;stroke-dasharray:none;stroke-linejoin:round;stroke-linecap:round"
        d="M 2493.7333863379145,5236.1018854148015 M 2493.73297147218,5336.1018854136855 M 2496.7329714721536,5336.101897859658 M 2496.73338633789,5236.101897860774 "
  />
  <path id="face0-interior"
 style="fill:none;stroke:#00FF00;stroke-width:1;stroke-miterlimit:4;stroke-dasharray:none;stroke-linejoin:round;stroke-linecap:round"
        d="M 2797.9336436767762,4869.144271884246 M 2797.9336436767753,4829.144271884369 M 2757.9336436767762,4829.144271884369 M 2757.9336436767762,4826.144271884379 M 2740.9336436767676,4826.144271884379 M 2737.9336436767762,4826.144271884379 M 2737.9336436767767,4829.144271884369 M 2657.9336436767762,4829.144271884369 M 2657.9336436767762,4826.144271884379 M 2650.9336436767694,4826.144271884379 M 2637.9336436767762,4826.144271884379 M 2637.933643676776,4829.144271884369 M 2557.9336436767767,4829.144271884369 M 2557.933643676776,4826.144271884379 M 2537.9336436767767,4826.14427188438 M 2537.9336436767762,4829.144271884369 M 2500.933643676776,4829.144271884369 M 2500.933643676776,4869.144271884246 M 2497.9336436767744,4869.144271884246 M 2497.933643676774,4889.144271884186 M 2500.9336436767762,4889.144271884186 M 2500.9336436767762,4969.14427188395 M 2497.9336436767753,4969.14427188395 M 2497.9336436767753,4989.118977660171 M 2500.9336436767762,4989.118977660171 M 2500.9336436767767,5067.944271883665 M 2497.9336436767762,5067.944271883665 M 2497.9336436767762,5087.944271883612 M 2500.9336436767762,5087.944271883611 M 2500.9336436767767,5127.944271883502 M 2797.9336436767762,5127.944271883502 M 2797.9336436767762,5087.944271883612 M 2800.9336436767762,5087.944271883612 M 2800.9336436767767,5067.944271883666 M 2797.933643676776,5067.944271883665 M 2797.9336436767762,4989.118977660171 M 2800.9336436767762,4989.1189776601705 M 2800.9336436767762,4969.14427188395 M 2797.9336436767762,4969.144271883949 M 2797.9336436767762,4889.144271884186 M 2800.933643676776,4889.144271884186 M 2800.9336436767762,4869.144271884246 "
  />
  <path id="face1-interior"
 style="fill:none;stroke:#00FF00;stroke-width:1;stroke-miterlimit:4;stroke-dasharray:none;stroke-linejoin:round;stroke-linecap:round"
        d="M 2493.7317268749734,5636.101885410405 M 2493.732141740708,5536.101885411489 M 2496.7321417406824,5536.10189785746 M 2496.732556606419,5436.1018978585535 M 2493.7325566064437,5436.101885412582 M 2493.73297147218,5336.1018854136855 M 2496.7329714721536,5336.101897859658 M 2496.73338633789,5236.101897860774 M 2493.7333863379145,5236.1018854148015 M 2493.73380120365,5136.10188541593 M 2526.733801203365,5136.102022321622 M 2526.733813649337,5133.102022321656 M 2556.73381364908,5133.102146781377 M 2556.7338012031078,5136.102146781344 M 2586.7338012028504,5136.102271241064 M 2586.733813648822,5133.102271241099 M 2616.733813648562,5133.102395700818 M 2616.7338012025916,5136.102395700784 M 2646.7338012023333,5136.102520160504 M 2646.733813648307,5133.10252016054 M 2676.7338136480475,5133.10264462026 M 2676.733801202075,5136.102644620226 M 2706.733801201818,5136.1027690799465 M 2706.73381364779,5133.102769079981 M 2736.7338136475305,5133.102893539702 M 2736.733801201559,5136.102893539666 M 2766.7338012013006,5136.103017999387 M 2766.7338136472727,5133.103017999422 M 2795.5469485880644,5133.103137535245 M 2798.3323905508446,5131.98905381754 M 2810.9806174818154,5163.614106290967 M 2808.1951755190357,5164.728190008592 M 2820.843402450009,5196.353242481939 M 2823.628851198466,5195.239148681966 M 2836.2770781294385,5226.864201155396 M 2833.49162938098,5227.978294955286 M 2846.1398563119546,5259.603347428636 M 2848.925311533616,5258.489251041711 M 2861.5735384645886,5290.114303515127 M 2858.7880832429255,5291.228399901987 M 2871.436310173898,5322.853452375339 M 2874.221768991805,5321.739354554269 M 2886.8699959227774,5353.364407027654 M 2884.0845371048695,5354.478504848691 M 2896.7327640358444,5386.103557322044 M 2884.0819641362305,5417.728504838407 M 2886.867379297517,5418.842713758093 M 2874.2165793979057,5450.467661274441 M 2871.4311642366188,5449.35345235477 M 2858.7803643370057,5480.978399871135 M 2861.5657789017855,5482.092608555292 M 2848.9149790021725,5513.7175560716205 M 2846.1295644373936,5512.6033473875 M 2833.4787645377824,5544.228294903864 M 2836.264178028845,5545.342503161862 M 2823.613378129232,5576.96745067817 M 2820.827964638169,5575.853242420231 M 2808.1771647385553,5607.478189936602 M 2810.9625766787008,5608.592397577793 M 2798.31177677909,5640.217345094077 M 2795.526364838943,5639.103137452969 M 2766.7317144266513,5639.10301799383 M 2766.7317268726233,5636.1030179938625 M 2736.7317268728816,5636.102893534142 M 2736.731714426909,5639.10289353411 M 2706.7317144271697,5639.10276907439 M 2706.731726873141,5636.102769074421 M 2676.7317268733987,5636.102644614701 M 2676.731714427427,5639.102644614668 M 2646.731714427685,5639.102520154947 M 2646.731726873658,5636.10252015498 M 2616.731726873914,5636.1023956952595 M 2616.7317144279423,5639.102395695228 M 2586.731714428202,5639.102271235506 M 2586.7317268741726,5636.102271235539 M 2556.731726874432,5636.102146775817 M 2556.731714428459,5639.102146775787 M 2526.7317144287176,5639.102022316065 M 2526.7317268746883,5636.102022316097 M 2556.732742564588,5389.102153001436 M 2556.73275501056,5386.102153001491 M 2536.7327550107316,5386.102070028349 M 2536.7327425647604,5389.102070028317 M 2656.7327550097007,5386.102567867228 M 2636.732755009872,5386.102484894083 M 2636.7327425638996,5389.1024848940515 M 2656.7327425637277,5389.102567867172 M 2735.7327550090195,5386.10289561116 M 2735.732742563049,5389.1028956111295 M 2755.7327425628755,5389.102978584249 M 2755.7327550088467,5386.102978584305 "
  />
  <path id="face2-interior"
 style="fill:none;stroke:#00FF00;stroke-width:1;stroke-miterlimit:4;stroke-dasharray:none;stroke-linejoin:round;stroke-linecap:round"
        d="M 3019.6323045524823,5291.78709000501 M 3019.6323045524846,5631.77391857337 M 3029.6323045524864,5631.77391857337 M 3029.632304552486,5634.773918573366 M 3039.6323045524846,5634.773918573367 M 3039.6323045524837,5631.77391857337 M 3049.6323045524846,5631.77391857337 M 3049.632304552485,5634.7739185733635 M 3059.632304552485,5634.773918573364 M 3059.632304552485,5631.773918573366 M 3069.632304552484,5631.773918573366 M 3069.632304552485,5634.773918573364 M 3079.632304552485,5634.773918573364 M 3079.6323045524837,5581.773918573472 M 3082.6323045524823,5581.773918573472 M 3082.6323045524837,5481.773918573693 M 3079.6323045524837,5481.773918573693 M 3079.6323045524837,5381.773918573931 M 3082.632304552483,5381.773918573932 M 3082.6323045524828,5281.773918574171 M 3079.632304552484,5281.773918574171 M 3079.632304552483,5182.221278551148 M 3082.632304552484,5182.221278551147 M 3082.6323045524846,5081.773918574699 M 3079.632304552485,5081.773918574698 M 3079.6323045524855,4981.77391857498 M 3082.632304552484,4981.77391857498 M 3082.6323045524828,4881.773918575275 M 3079.6323045524837,4881.773918575275 M 3079.6323045524837,4802.773918575528 M 3069.632304552484,4802.773918575528 M 3069.6323045524855,4805.773918575515 M 3059.632304552485,4805.773918575515 M 3059.632304552485,4802.773918575525 M 3049.632304552484,4802.773918575525 M 3049.632304552484,4805.773918575515 M 3039.6323045524846,4805.773918575515 M 3039.632304552484,4802.773918575528 M 3029.6323045524864,4802.773918575528 M 3029.632304552485,4805.773918575515 M 3019.632304552484,4805.773918575515 M 3019.632304552484,5145.760747143658 M 3049.6323045524846,5145.760747143658 M 3049.6323045524846,5148.773918574511 M 3019.632304552484,5148.773918574511 M 3019.632304552484,5288.773918574153 M 3049.632304552484,5288.773918574153 M 3049.6323045524837,5291.78709000501 "
  />
  <path id="face3-interior"
 style="fill:none;stroke:#00FF00;stroke-width:1;stroke-miterlimit:4;stroke-dasharray:none;stroke-linejoin:round;stroke-linecap:round"
        d="M 2493.731726874974,4748.396328229038 M 2493.73380120365,5136.10188541593 M 2526.733801203365,5136.102022321622 M 2526.733813649337,5133.102022321656 M 2556.73381364908,5133.102146781377 M 2556.7338012031078,5136.102146781344 M 2586.7338012028504,5136.102271241064 M 2586.733813648822,5133.102271241099 M 2616.733813648562,5133.102395700818 M 2616.7338012025916,5136.102395700784 M 2646.7338012023333,5136.102520160504 M 2646.733813648307,5133.10252016054 M 2676.7338136480475,5133.10264462026 M 2676.733801202075,5136.102644620226 M 2706.733801201818,5136.1027690799465 M 2706.73381364779,5133.102769079981 M 2736.7338136475305,5133.102893539702 M 2736.733801201559,5136.102893539666 M 2766.7338012013006,5136.103017999387 M 2766.7338136472727,5133.103017999422 M 2795.5469485880644,5133.103137535245 M 2798.3323905508446,5131.98905381754 M 2810.9806174818154,5163.614106290967 M 2808.1951755190357,5164.728190008592 M 2820.843402450009,5196.353242481939 M 2823.628851198466,5195.239148681966 M 2836.2770781294385,5226.864201155396 M 2833.49162938098,5227.978294955286 M 2846.1398563119546,5259.603347428636 M 2848.925311533616,5258.489251041711 M 2861.5735384645886,5290.114303515127 M 2858.7880832429255,5291.228399901987 M 2871.436310173898,5322.853452375339 M 2874.221768991805,5321.739354554269 M 2886.8699959227774,5353.364407027654 M 2884.0845371048695,5354.478504848691 M 2896.7327640358444,5386.103557322044 M 2884.0819641362305,5417.728504838407 M 2886.867379297517,5418.842713758093 M 2874.2165793979057,5450.467661274441 M 2871.4311642366188,5449.35345235477 M 2858.7803643370057,5480.978399871135 M 2861.5657789017855,5482.092608555292 M 2848.9149790021725,5513.7175560716205 M 2846.1295644373936,5512.6033473875 M 2833.4787645377824,5544.228294903864 M 2836.264178028845,5545.342503161862 M 2823.613378129232,5576.96745067817 M 2820.827964638169,5575.853242420231 M 2808.1771647385553,5607.478189936602 M 2810.9625766787008,5608.592397577793 M 2798.31177677909,5640.217345094077 M 2795.526364838943,5639.103137452969 M 2766.7317144266513,5639.10301799383 M 2766.7317268726233,5636.1030179938625 M 2736.7317268728816,5636.102893534142 M 2736.731714426909,5639.10289353411 M 2706.7317144271697,5639.10276907439 M 2706.731726873141,5636.102769074421 M 2676.7317268733987,5636.102644614701 M 2676.731714427427,5639.102644614668 M 2646.731714427685,5639.102520154947 M 2646.731726873658,5636.10252015498 M 2616.731726873914,5636.1023956952595 M 2616.7317144279423,5639.102395695228 M 2586.731714428202,5639.102271235506 M 2586.7317268741726,5636.102271235539 M 2556.731726874432,5636.102146775817 M 2556.731714428459,5639.102146775787 M 2526.7317144287176,5639.102022316065 M 2526.7317268746883,5636.102022316097 M 2493.7317268749734,5636.101885410405 M 2493.731726874974,5648.396328226672 M 3093.731726874974,5648.396328226672 M 3093.731726874974,4748.396328229039 M 2797.9336436767753,4829.144271884369 M 2797.9336436767762,4869.144271884246 M 2800.9336436767762,4869.144271884246 M 2800.933643676776,4889.144271884186 M 2797.9336436767762,4889.144271884186 M 2797.9336436767762,4969.144271883949 M 2800.9336436767762,4969.14427188395 M 2800.9336436767762,4989.1189776601705 M 2797.9336436767762,4989.118977660171 M 2797.933643676776,5067.944271883665 M 2800.9336436767767,5067.944271883666 M 2800.9336436767762,5087.944271883612 M 2797.9336436767762,5087.944271883612 M 2797.9336436767762,5127.944271883502 M 2500.9336436767767,5127.944271883502 M 2500.9336436767762,5087.944271883611 M 2497.9336436767762,5087.944271883612 M 2497.9336436767762,5067.944271883665 M 2500.9336436767767,5067.944271883665 M 2500.9336436767762,4989.118977660171 M 2497.9336436767753,4989.118977660171 M 2497.9336436767753,4969.14427188395 M 2500.9336436767762,4969.14427188395 M 2500.9336436767762,4889.144271884186 M 2497.933643676774,4889.144271884186 M 2497.9336436767744,4869.144271884246 M 2500.933643676776,4869.144271884246 M 2500.933643676776,4829.144271884369 M 2537.9336436767762,4829.144271884369 M 2537.9336436767767,4826.14427188438 M 2557.933643676776,4826.144271884379 M 2557.9336436767767,4829.144271884369 M 2637.933643676776,4829.144271884369 M 2637.9336436767762,4826.144271884379 M 2650.9336436767694,4826.144271884379 M 2657.9336436767762,4826.144271884379 M 2657.9336436767762,4829.144271884369 M 2737.9336436767767,4829.144271884369 M 2737.9336436767762,4826.144271884379 M 2740.9336436767676,4826.144271884379 M 2757.9336436767762,4826.144271884379 M 2757.9336436767762,4829.144271884369 M 3019.6323045524846,5631.77391857337 M 3019.6323045524823,5291.78709000501 M 3049.6323045524837,5291.78709000501 M 3049.632304552484,5288.773918574153 M 3019.632304552484,5288.773918574153 M 3019.632304552484,5148.773918574511 M 3049.6323045524846,5148.773918574511 M 3049.6323045524846,5145.760747143658 M 3019.632304552484,5145.760747143658 M 3019.632304552484,4805.773918575515 M 3029.632304552485,4805.773918575515 M 3029.6323045524864,4802.773918575528 M 3039.632304552484,4802.773918575528 M 3039.6323045524846,4805.773918575515 M 3049.632304552484,4805.773918575515 M 3049.632304552484,4802.773918575525 M 3059.632304552485,4802.773918575525 M 3059.632304552485,4805.773918575515 M 3069.6323045524855,4805.773918575515 M 3069.632304552484,4802.773918575528 M 3079.6323045524837,4802.773918575528 M 3079.6323045524837,4881.773918575275 M 3082.6323045524828,4881.773918575275 M 3082.632304552484,4981.77391857498 M 3079.6323045524855,4981.77391857498 M 3079.632304552485,5081.773918574698 M 3082.6323045524846,5081.773918574699 M 3082.632304552484,5182.221278551147 M 3079.632304552483,5182.221278551148 M 3079.632304552484,5281.773918574171 M 3082.6323045524828,5281.773918574171 M 3082.632304552483,5381.773918573932 M 3079.6323045524837,5381.773918573931 M 3079.6323045524837,5481.773918573693 M 3082.6323045524837,5481.773918573693 M 3082.6323045524823,5581.773918573472 M 3079.6323045524837,5581.773918573472 M 3079.632304552485,5634.773918573364 M 3069.632304552485,5634.773918573364 M 3069.632304552484,5631.773918573366 M 3059.632304552485,5631.773918573366 M 3059.632304552485,5634.773918573364 M 3049.632304552485,5634.7739185733635 M 3049.6323045524846,5631.77391857337 M 3039.6323045524837,5631.77391857337 M 3039.6323045524846,5634.773918573367 M 3029.632304552486,5634.773918573366 M 3029.6323045524864,5631.77391857337 "
  />
  <path id="face4-interior"
 style="fill:none;stroke:#00FF00;stroke-width:1;stroke-miterlimit:4;stroke-dasharray:none;stroke-linejoin:round;stroke-linecap:round"
        d="M 2493.7325566064437,5436.101885412582 M 2493.732141740708,5536.101885411489 M 2496.7321417406824,5536.10189785746 M 2496.732556606419,5436.1018978585535 "
  />
  <path id="face5-interior"
 style="fill:none;stroke:#00FF00;stroke-width:1;stroke-miterlimit:4;stroke-dasharray:none;stroke-linejoin:round;stroke-linecap:round"
        d="M 2493.7333863379145,5236.1018854148015 M 2493.73297147218,5336.1018854136855 M 2496.7329714721536,5336.101897859658 M 2496.73338633789,5236.101897860774 "
  />
</svg>
