<?xml version="1.0" standalone="no"?>
<!DOCTYPE svg PUBLIC "-//W3C//DTD SVG 1.1//EN" "http://www.w3.org/Graphics/SVG/1.1/DTD/svg11.dtd">
<svg width="4388.5260539795245mm" height="3559.6496291402777mm"
 viewBox="0 0 4388.5260539795245 3559.6496291402777"
 xmlns="http://www.w3.org/2000/svg" version="1.1"
 xmlns:xlink="http://www.w3.org/1999/xlink">
<desc>Output from Flights of Ideas SVG Sketchup Plugin</desc>

  <path id="face0-cut"
 style="fill:none;stroke:#0000FF;stroke-width:1;stroke-miterlimit:4;stroke-dasharray:none;stroke-linejoin:round;stroke-linecap:round"
        d="M 4377.526053979524,3053.636457709416 L 4377.526053979524,2703.6496291403146 L 3781.526053979525,2703.6496291403137 L 3781.5260539795245,3549.649629140276 L 3797.5260539795263,3549.649629140277 L 4377.526053979523,3549.6496291402777 L 4377.526053979524,3199.6628005711477 L 4374.526053979525,3199.662800571147 L 4374.5260539795245,3196.6496291402814 L 4378.526053979524,3196.6496291402814 L 4378.5260539795245,3056.6496291402786 L 4374.5260539795245,3056.6496291402786 L 4374.5260539795245,3053.636457709416 L 4377.526053979524,3053.636457709416 M 4307.5260539795245,2896.649629140277 L 4307.526053979524,2936.6496291402786 L 4304.526053979524,2936.6496291402786 L 4304.526053979524,2896.6496291402786 L 4307.5260539795245,2896.649629140277 M 4004.5260539795245,3529.6496291402786 L 4004.5260539795254,3526.6496291402777 L 4104.526053979524,3526.6496291402786 L 4104.526053979524,3529.6496291402786 L 4004.5260539795245,3529.6496291402786 M 4054.5260539795245,2963.6496291402796 L 4054.5260539795245,2983.6496291402786 L 4051.526053979525,2983.6496291402786 L 4051.5260539795254,2963.6496291402786 L 4054.5260539795245,2963.6496291402796 M 4304.5260539795245,3196.6496291402786 L 4304.526053979524,3176.6496291402786 L 4307.526053979524,3176.6496291402786 L 4307.5260539795245,3196.6496291402786 L 4304.5260539795245,3196.6496291402786 M 3904.5260539795254,3023.6496291402796 L 3944.526053979525,3023.6496291402786 L 3944.526053979524,3026.6496291402805 L 3904.526053979525,3026.6496291402786 L 3904.5260539795254,3023.6496291402796 M 4064.526053979525,3023.6496291402786 L 4064.526053979525,3026.6496291402786 L 4044.5260539795245,3026.6496291402777 L 4044.5260539795254,3023.6496291402796 L 4064.526053979525,3023.6496291402786 M 4104.5260539795245,2726.649629140278 L 4004.526053979524,2726.649629140279 L 4004.5260539795236,2723.649629140279 L 4104.526053979524,2723.649629140279 L 4104.5260539795245,2726.649629140278 M 4054.526053979524,2883.6496291402786 L 4051.526053979524,2883.6496291402786 L 4051.5260539795245,2863.6496291402777 L 4054.5260539795245,2863.6496291402786 L 4054.526053979524,2883.6496291402786 M 4051.5260539795245,2763.6496291402786 L 4054.5260539795245,2763.6496291402786 L 4054.526053979525,2783.649629140278 L 4051.526053979525,2783.649629140278 L 4051.5260539795245,2763.6496291402786 M 4204.5260539795245,3026.6496291402796 L 4164.5260539795245,3026.6496291402796 L 4164.5260539795245,3023.6496291402786 L 4204.5260539795245,3023.6496291402786 L 4204.5260539795245,3026.6496291402796 M 4244.526053979525,3026.6496291402786 L 4244.5260539795245,3023.6496291402796 L 4284.5260539795245,3023.6496291402777 L 4284.526053979524,3026.6496291402786 L 4244.526053979525,3026.6496291402786 M 3804.526053979525,3176.649629140277 L 3804.526053979524,3276.6496291402805 L 3801.526053979524,3276.6496291402796 L 3801.5260539795254,3176.6496291402777 L 3804.526053979525,3176.649629140277 M 3824.526053979524,3026.6496291402786 L 3824.5260539795245,3023.6496291402777 L 3864.526053979525,3023.6496291402786 L 3864.5260539795245,3026.6496291402796 L 3824.526053979524,3026.6496291402786 M 3801.526053979525,3476.649629140277 L 3801.5260539795245,3376.649629140277 L 3804.5260539795245,3376.6496291402777 L 3804.5260539795245,3476.6496291402777 L 3801.526053979525,3476.649629140277 M 3804.5260539795245,2723.649629140279 L 3904.526053979524,2723.649629140278 L 3904.5260539795245,2726.649629140278 L 3804.5260539795245,2726.649629140279 L 3804.5260539795245,2723.649629140279 M 3801.526053979525,2876.6496291402777 L 3801.5260539795245,2776.6496291402777 L 3804.526053979524,2776.6496291402786 L 3804.5260539795245,2876.6496291402777 L 3801.526053979525,2876.6496291402777 M 3801.526053979524,2976.6496291402786 L 3804.526053979524,2976.6496291402777 L 3804.5260539795245,3076.6496291402777 L 3801.526053979525,3076.6496291402777 L 3801.526053979524,2976.6496291402786 M 3804.5260539795245,3529.6496291402786 L 3804.526053979525,3526.6496291402777 L 3904.526053979524,3526.6496291402786 L 3904.5260539795245,3529.6496291402796 L 3804.5260539795245,3529.6496291402786 M 4304.526053979524,3056.6496291402786 L 4307.526053979524,3056.6496291402786 L 4307.526053979524,3076.6496291402786 L 4304.526053979524,3076.6496291402786 L 4304.526053979524,3056.6496291402786 M 4304.526053979524,2996.6496291402786 L 4307.526053979524,2996.6496291402786 L 4307.526053979524,3036.6496291402786 L 4304.526053979524,3036.6496291402796 L 4304.526053979524,2996.6496291402786 M 4307.526053979524,2756.649629140278 L 4307.526053979524,2796.649629140278 L 4304.526053979524,2796.649629140278 L 4304.526053979524,2756.6496291402773 L 4307.526053979524,2756.649629140278 M 4304.526053979524,2723.649629140278 L 4304.526053979524,2726.649629140278 L 4204.5260539795245,2726.649629140278 L 4204.5260539795245,2723.649629140278 L 4304.526053979524,2723.649629140278 M 4304.526053979524,3526.6496291402786 L 4304.526053979524,3529.6496291402796 L 4204.5260539795245,3529.6496291402786 L 4204.526053979525,3526.6496291402777 L 4304.526053979524,3526.6496291402786 M 4304.526053979523,3387.6496291402805 L 4307.526053979524,3387.6496291402814 L 4307.526053979523,3417.649629140277 L 4304.526053979523,3417.649629140277 L 4304.526053979523,3387.6496291402805 M 4307.5260539795245,3256.6496291402786 L 4307.526053979524,3316.6496291402786 L 4304.526053979524,3316.649629140277 L 4304.526053979524,3256.6496291402786 L 4307.5260539795245,3256.6496291402786 M 4307.526053979524,2865.1496291402786 L 4304.526053979524,2865.1496291402796 L 4304.526053979524,2835.1496291402796 L 4307.526053979524,2835.149629140279 L 4307.526053979524,2865.1496291402786 M 4304.526053979524,3497.649629140276 L 4304.526053979523,3457.649629140276 L 4307.526053979523,3457.649629140277 L 4307.526053979524,3497.649629140276 L 4304.526053979524,3497.649629140276 M 4104.526053979523,3539.6496291402796 L 4204.526053979524,3539.6496291402786 L 4204.526053979524,3542.6496291402786 L 4104.526053979523,3542.6496291402786 L 4104.526053979523,3539.6496291402796 M 4368.526053979522,3363.6496291402796 L 4371.526053979535,3363.6496291402786 L 4371.526053979535,3463.6496291402805 L 4368.526053979523,3463.6496291402796 L 4368.526053979522,3363.6496291402796 M 3788.526053979525,3376.649629140276 L 3788.5260539795236,3276.649629140276 L 3791.526053979538,3276.649629140275 L 3791.526053979538,3376.649629140276 L 3788.526053979525,3376.649629140276 M 3904.526053979524,3539.6496291402796 L 4004.5260539795236,3539.6496291402805 L 4004.526053979526,3542.6496291402786 L 3904.526053979524,3542.6496291402786 L 3904.526053979524,3539.6496291402796 M 4368.526053979523,2863.6496291402777 L 4368.526053979523,2763.6496291402786 L 4371.526053979536,2763.6496291402777 L 4371.526053979536,2863.6496291402786 L 4368.526053979523,2863.6496291402777 M 4368.526053979523,3263.6496291402786 L 4368.526053979523,3163.202269163556 L 4371.526053979536,3163.202269163556 L 4371.526053979537,3263.6496291402786 L 4368.526053979523,3263.6496291402786 M 4368.526053979523,3063.6496291402786 L 4368.526053979523,2963.6496291402786 L 4371.526053979536,2963.6496291402796 L 4371.526053979536,3063.6496291402796 L 4368.526053979523,3063.6496291402786 M 4204.526066425496,2713.649629140278 L 4105.151571687627,2713.649629140278 L 4105.151571687627,2710.649629140279 L 4204.526066425496,2710.649629140279 L 4204.526066425496,2713.649629140278 M 4005.7770769497592,2713.649629140279 L 3904.5260664254956,2713.649629140279 L 3904.526066425495,2710.649629140278 L 4005.7770769497583,2710.649629140279 L 4005.7770769497592,2713.649629140279 M 3791.526053979538,2976.6496291402796 L 3788.5260539795245,2976.6496291402796 L 3788.5260539795245,2876.6496291402786 L 3791.526053979538,2876.6496291402786 L 3791.526053979538,2976.6496291402796 M 3791.526053979539,3176.649629140273 L 3788.5260539795254,3176.6496291402723 L 3788.5260539795245,3076.649629140277 L 3791.5260539795386,3076.649629140277 L 3791.526053979539,3176.649629140273 M 4312.575092085204,3405.1005910346 L 4313.086714151306,3405.3125118331877 L 4313.526053979528,3405.649629140277 L 4313.8631712866145,3406.0889689684977 L 4314.075092085204,3406.6005910346 L 4314.147374323087,3407.149629140275 L 4314.075092085204,3407.698667245952 L 4313.8631712866145,3408.210289312055 L 4313.526053979528,3408.649629140275 L 4313.086714151306,3408.986746447363 L 4312.575092085204,3409.198667245952 L 4312.026053979528,3409.270949483835 L 4311.47701587385,3409.198667245951 L 4310.965393807747,3408.986746447364 L 4310.526053979527,3408.649629140275 L 4310.188936672441,3408.210289312054 L 4309.977015873851,3407.698667245951 L 4309.904733635969,3407.149629140276 L 4309.977015873851,3406.6005910346007 L 4310.188936672441,3406.088968968495 L 4310.526053979527,3405.649629140276 L 4310.965393807748,3405.3125118331886 L 4311.47701587385,3405.100591034599 L 4312.026053979528,3405.028308796717 L 4312.575092085204,3405.1005910346 M 4313.086714151304,2843.812511833191 L 4313.5260539795245,2844.149629140278 L 4313.863171286611,2844.5889689684986 L 4314.075092085201,2845.100591034602 L 4314.147374323083,2845.6496291402786 L 4314.075092085201,2846.198667245956 L 4313.863171286611,2846.7102893120586 L 4313.5260539795245,2847.149629140278 L 4313.0867141513045,2847.4867464473664 L 4312.575092085201,2847.6986672459557 L 4312.026053979524,2847.770949483838 L 4311.477015873847,2847.6986672459557 L 4310.9653938077445,2847.4867464473655 L 4310.5260539795245,2847.149629140278 L 4310.188936672436,2846.7102893120586 L 4309.9770158738465,2846.198667245955 L 4309.9047336359645,2845.6496291402777 L 4309.9770158738465,2845.100591034602 L 4310.188936672436,2844.588968968498 L 4310.5260539795245,2844.149629140278 L 4310.9653938077445,2843.8125118331905 L 4311.4770158738465,2843.6005910346025 L 4312.026053979524,2843.528308796719 L 4312.575092085201,2843.6005910346016 L 4313.086714151304,2843.812511833191 M 4298.526053979524,3070.6496291402786 L 4298.965393807744,3070.3125118331905 L 4299.4770158738465,3070.1005910346016 L 4300.026053979524,3070.0283087967196 L 4300.575092085201,3070.1005910346016 L 4301.086714151303,3070.3125118331923 L 4301.526053979524,3070.6496291402786 L 4301.863171286612,3071.0889689684986 L 4302.0750920852,3071.6005910346016 L 4302.147374323083,3072.1496291402786 L 4302.075092085201,3072.6986672459557 L 4301.863171286612,3073.2102893120586 L 4301.526053979524,3073.6496291402786 L 4301.086714151303,3073.986746447366 L 4300.5750920852,3074.1986672459566 L 4300.026053979523,3074.2709494838386 L 4299.4770158738465,3074.1986672459548 L 4298.965393807743,3073.9867464473678 L 4298.526053979524,3073.6496291402786 L 4298.188936672435,3073.2102893120586 L 4297.9770158738465,3072.6986672459557 L 4297.904733635964,3072.1496291402786 L 4297.977015873845,3071.6005910346016 L 4298.188936672435,3071.0889689684996 L 4298.526053979524,3070.6496291402786 "
  />
  <path id="face0-interior"
 style="fill:none;stroke:#FF0000;stroke-width:1;stroke-miterlimit:4;stroke-dasharray:none;stroke-linejoin:round;stroke-linecap:round"
        d="M 4377.526053979524,3053.636457709416 M 4377.526053979524,2703.6496291403146 M 3781.526053979525,2703.6496291403137 M 3781.5260539795245,3549.649629140276 M 3797.5260539795263,3549.649629140277 M 4377.526053979523,3549.6496291402777 M 4377.526053979524,3199.6628005711477 M 4374.526053979525,3199.662800571147 M 4374.5260539795245,3196.6496291402814 M 4378.526053979524,3196.6496291402814 M 4378.5260539795245,3056.6496291402786 M 4374.5260539795245,3056.6496291402786 M 4374.5260539795245,3053.636457709416 M 4307.5260539795245,2896.649629140277 M 4307.526053979524,2936.6496291402786 M 4304.526053979524,2936.6496291402786 M 4304.526053979524,2896.6496291402786 M 4004.5260539795245,3529.6496291402786 M 4004.5260539795254,3526.6496291402777 M 4104.526053979524,3526.6496291402786 M 4104.526053979524,3529.6496291402786 M 4054.5260539795245,2963.6496291402796 M 4054.5260539795245,2983.6496291402786 M 4051.526053979525,2983.6496291402786 M 4051.5260539795254,2963.6496291402786 M 4304.5260539795245,3196.6496291402786 M 4304.526053979524,3176.6496291402786 M 4307.526053979524,3176.6496291402786 M 4307.5260539795245,3196.6496291402786 M 3904.5260539795254,3023.6496291402796 M 3944.526053979525,3023.6496291402786 M 3944.526053979524,3026.6496291402805 M 3904.526053979525,3026.6496291402786 M 4064.526053979525,3023.6496291402786 M 4064.526053979525,3026.6496291402786 M 4044.5260539795245,3026.6496291402777 M 4044.5260539795254,3023.6496291402796 M 4104.5260539795245,2726.649629140278 M 4004.526053979524,2726.649629140279 M 4004.5260539795236,2723.649629140279 M 4104.526053979524,2723.649629140279 M 4054.526053979524,2883.6496291402786 M 4051.526053979524,2883.6496291402786 M 4051.5260539795245,2863.6496291402777 M 4054.5260539795245,2863.6496291402786 M 4051.5260539795245,2763.6496291402786 M 4054.5260539795245,2763.6496291402786 M 4054.526053979525,2783.649629140278 M 4051.526053979525,2783.649629140278 M 4204.5260539795245,3026.6496291402796 M 4164.5260539795245,3026.6496291402796 M 4164.5260539795245,3023.6496291402786 M 4204.5260539795245,3023.6496291402786 M 4244.526053979525,3026.6496291402786 M 4244.5260539795245,3023.6496291402796 M 4284.5260539795245,3023.6496291402777 M 4284.526053979524,3026.6496291402786 M 3804.526053979525,3176.649629140277 M 3804.526053979524,3276.6496291402805 M 3801.526053979524,3276.6496291402796 M 3801.5260539795254,3176.6496291402777 M 3824.526053979524,3026.6496291402786 M 3824.5260539795245,3023.6496291402777 M 3864.526053979525,3023.6496291402786 M 3864.5260539795245,3026.6496291402796 M 3801.526053979525,3476.649629140277 M 3801.5260539795245,3376.649629140277 M 3804.5260539795245,3376.6496291402777 M 3804.5260539795245,3476.6496291402777 M 3804.5260539795245,2723.649629140279 M 3904.526053979524,2723.649629140278 M 3904.5260539795245,2726.649629140278 M 3804.5260539795245,2726.649629140279 M 3801.526053979525,2876.6496291402777 M 3801.5260539795245,2776.6496291402777 M 3804.526053979524,2776.6496291402786 M 3804.5260539795245,2876.6496291402777 M 3801.526053979524,2976.6496291402786 M 3804.526053979524,2976.6496291402777 M 3804.5260539795245,3076.6496291402777 M 3801.526053979525,3076.6496291402777 M 3804.5260539795245,3529.6496291402786 M 3804.526053979525,3526.6496291402777 M 3904.526053979524,3526.6496291402786 M 3904.5260539795245,3529.6496291402796 M 4304.526053979524,3056.6496291402786 M 4307.526053979524,3056.6496291402786 M 4307.526053979524,3076.6496291402786 M 4304.526053979524,3076.6496291402786 M 4304.526053979524,2996.6496291402786 M 4307.526053979524,2996.6496291402786 M 4307.526053979524,3036.6496291402786 M 4304.526053979524,3036.6496291402796 M 4307.526053979524,2756.649629140278 M 4307.526053979524,2796.649629140278 M 4304.526053979524,2796.649629140278 M 4304.526053979524,2756.6496291402773 M 4304.526053979524,2723.649629140278 M 4304.526053979524,2726.649629140278 M 4204.5260539795245,2726.649629140278 M 4204.5260539795245,2723.649629140278 M 4304.526053979524,3526.6496291402786 M 4304.526053979524,3529.6496291402796 M 4204.5260539795245,3529.6496291402786 M 4204.526053979525,3526.6496291402777 M 4304.526053979523,3387.6496291402805 M 4307.526053979524,3387.6496291402814 M 4307.526053979523,3417.649629140277 M 4304.526053979523,3417.649629140277 M 4307.5260539795245,3256.6496291402786 M 4307.526053979524,3316.6496291402786 M 4304.526053979524,3316.649629140277 M 4304.526053979524,3256.6496291402786 M 4307.526053979524,2865.1496291402786 M 4304.526053979524,2865.1496291402796 M 4304.526053979524,2835.1496291402796 M 4307.526053979524,2835.149629140279 M 4304.526053979524,3497.649629140276 M 4304.526053979523,3457.649629140276 M 4307.526053979523,3457.649629140277 M 4307.526053979524,3497.649629140276 M 4104.526053979523,3539.6496291402796 M 4204.526053979524,3539.6496291402786 M 4204.526053979524,3542.6496291402786 M 4104.526053979523,3542.6496291402786 M 4368.526053979522,3363.6496291402796 M 4371.526053979535,3363.6496291402786 M 4371.526053979535,3463.6496291402805 M 4368.526053979523,3463.6496291402796 M 3788.526053979525,3376.649629140276 M 3788.5260539795236,3276.649629140276 M 3791.526053979538,3276.649629140275 M 3791.526053979538,3376.649629140276 M 3904.526053979524,3539.6496291402796 M 4004.5260539795236,3539.6496291402805 M 4004.526053979526,3542.6496291402786 M 3904.526053979524,3542.6496291402786 M 4368.526053979523,2863.6496291402777 M 4368.526053979523,2763.6496291402786 M 4371.526053979536,2763.6496291402777 M 4371.526053979536,2863.6496291402786 M 4368.526053979523,3263.6496291402786 M 4368.526053979523,3163.202269163556 M 4371.526053979536,3163.202269163556 M 4371.526053979537,3263.6496291402786 M 4368.526053979523,3063.6496291402786 M 4368.526053979523,2963.6496291402786 M 4371.526053979536,2963.6496291402796 M 4371.526053979536,3063.6496291402796 M 4204.526066425496,2713.649629140278 M 4105.151571687627,2713.649629140278 M 4105.151571687627,2710.649629140279 M 4204.526066425496,2710.649629140279 M 4005.7770769497592,2713.649629140279 M 3904.5260664254956,2713.649629140279 M 3904.526066425495,2710.649629140278 M 4005.7770769497583,2710.649629140279 M 3791.526053979538,2976.6496291402796 M 3788.5260539795245,2976.6496291402796 M 3788.5260539795245,2876.6496291402786 M 3791.526053979538,2876.6496291402786 M 3791.526053979539,3176.649629140273 M 3788.5260539795254,3176.6496291402723 M 3788.5260539795245,3076.649629140277 M 3791.5260539795386,3076.649629140277 M 4312.575092085204,3405.1005910346 M 4313.086714151306,3405.3125118331877 M 4313.526053979528,3405.649629140277 M 4313.8631712866145,3406.0889689684977 M 4314.075092085204,3406.6005910346 M 4314.147374323087,3407.149629140275 M 4314.075092085204,3407.698667245952 M 4313.8631712866145,3408.210289312055 M 4313.526053979528,3408.649629140275 M 4313.086714151306,3408.986746447363 M 4312.575092085204,3409.198667245952 M 4312.026053979528,3409.270949483835 M 4311.47701587385,3409.198667245951 M 4310.965393807747,3408.986746447364 M 4310.526053979527,3408.649629140275 M 4310.188936672441,3408.210289312054 M 4309.977015873851,3407.698667245951 M 4309.904733635969,3407.149629140276 M 4309.977015873851,3406.6005910346007 M 4310.188936672441,3406.088968968495 M 4310.526053979527,3405.649629140276 M 4310.965393807748,3405.3125118331886 M 4311.47701587385,3405.100591034599 M 4312.026053979528,3405.028308796717 M 4313.086714151304,2843.812511833191 M 4313.5260539795245,2844.149629140278 M 4313.863171286611,2844.5889689684986 M 4314.075092085201,2845.100591034602 M 4314.147374323083,2845.6496291402786 M 4314.075092085201,2846.198667245956 M 4313.863171286611,2846.7102893120586 M 4313.5260539795245,2847.149629140278 M 4313.0867141513045,2847.4867464473664 M 4312.575092085201,2847.6986672459557 M 4312.026053979524,2847.770949483838 M 4311.477015873847,2847.6986672459557 M 4310.9653938077445,2847.4867464473655 M 4310.5260539795245,2847.149629140278 M 4310.188936672436,2846.7102893120586 M 4309.9770158738465,2846.198667245955 M 4309.9047336359645,2845.6496291402777 M 4309.9770158738465,2845.100591034602 M 4310.188936672436,2844.588968968498 M 4310.5260539795245,2844.149629140278 M 4310.9653938077445,2843.8125118331905 M 4311.4770158738465,2843.6005910346025 M 4312.026053979524,2843.528308796719 M 4312.575092085201,2843.6005910346016 M 4298.526053979524,3070.6496291402786 M 4298.965393807744,3070.3125118331905 M 4299.4770158738465,3070.1005910346016 M 4300.026053979524,3070.0283087967196 M 4300.575092085201,3070.1005910346016 M 4301.086714151303,3070.3125118331923 M 4301.526053979524,3070.6496291402786 M 4301.863171286612,3071.0889689684986 M 4302.0750920852,3071.6005910346016 M 4302.147374323083,3072.1496291402786 M 4302.075092085201,3072.6986672459557 M 4301.863171286612,3073.2102893120586 M 4301.526053979524,3073.6496291402786 M 4301.086714151303,3073.986746447366 M 4300.5750920852,3074.1986672459566 M 4300.026053979523,3074.2709494838386 M 4299.4770158738465,3074.1986672459548 M 4298.965393807743,3073.9867464473678 M 4298.526053979524,3073.6496291402786 M 4298.188936672435,3073.2102893120586 M 4297.9770158738465,3072.6986672459557 M 4297.904733635964,3072.1496291402786 M 4297.977015873845,3071.6005910346016 M 4298.188936672435,3071.0889689684996 "
  />
  <path id="face0-interior"
 style="fill:none;stroke:#00FF00;stroke-width:1;stroke-miterlimit:4;stroke-dasharray:none;stroke-linejoin:round;stroke-linecap:round"
        d="M 4377.526053979524,3053.636457709416 M 4377.526053979524,2703.6496291403146 M 3781.526053979525,2703.6496291403137 M 3781.5260539795245,3549.649629140276 M 3797.5260539795263,3549.649629140277 M 4377.526053979523,3549.6496291402777 M 4377.526053979524,3199.6628005711477 M 4374.526053979525,3199.662800571147 M 4374.5260539795245,3196.6496291402814 M 4378.526053979524,3196.6496291402814 M 4378.5260539795245,3056.6496291402786 M 4374.5260539795245,3056.6496291402786 M 4374.5260539795245,3053.636457709416 M 4307.5260539795245,2896.649629140277 M 4307.526053979524,2936.6496291402786 M 4304.526053979524,2936.6496291402786 M 4304.526053979524,2896.6496291402786 M 4004.5260539795245,3529.6496291402786 M 4004.5260539795254,3526.6496291402777 M 4104.526053979524,3526.6496291402786 M 4104.526053979524,3529.6496291402786 M 4054.5260539795245,2963.6496291402796 M 4054.5260539795245,2983.6496291402786 M 4051.526053979525,2983.6496291402786 M 4051.5260539795254,2963.6496291402786 M 4304.5260539795245,3196.6496291402786 M 4304.526053979524,3176.6496291402786 M 4307.526053979524,3176.6496291402786 M 4307.5260539795245,3196.6496291402786 M 3904.5260539795254,3023.6496291402796 M 3944.526053979525,3023.6496291402786 M 3944.526053979524,3026.6496291402805 M 3904.526053979525,3026.6496291402786 M 4064.526053979525,3023.6496291402786 M 4064.526053979525,3026.6496291402786 M 4044.5260539795245,3026.6496291402777 M 4044.5260539795254,3023.6496291402796 M 4104.5260539795245,2726.649629140278 M 4004.526053979524,2726.649629140279 M 4004.5260539795236,2723.649629140279 M 4104.526053979524,2723.649629140279 M 4054.526053979524,2883.6496291402786 M 4051.526053979524,2883.6496291402786 M 4051.5260539795245,2863.6496291402777 M 4054.5260539795245,2863.6496291402786 M 4051.5260539795245,2763.6496291402786 M 4054.5260539795245,2763.6496291402786 M 4054.526053979525,2783.649629140278 M 4051.526053979525,2783.649629140278 M 4204.5260539795245,3026.6496291402796 M 4164.5260539795245,3026.6496291402796 M 4164.5260539795245,3023.6496291402786 M 4204.5260539795245,3023.6496291402786 M 4244.526053979525,3026.6496291402786 M 4244.5260539795245,3023.6496291402796 M 4284.5260539795245,3023.6496291402777 M 4284.526053979524,3026.6496291402786 M 3804.526053979525,3176.649629140277 M 3804.526053979524,3276.6496291402805 M 3801.526053979524,3276.6496291402796 M 3801.5260539795254,3176.6496291402777 M 3824.526053979524,3026.6496291402786 M 3824.5260539795245,3023.6496291402777 M 3864.526053979525,3023.6496291402786 M 3864.5260539795245,3026.6496291402796 M 3801.526053979525,3476.649629140277 M 3801.5260539795245,3376.649629140277 M 3804.5260539795245,3376.6496291402777 M 3804.5260539795245,3476.6496291402777 M 3804.5260539795245,2723.649629140279 M 3904.526053979524,2723.649629140278 M 3904.5260539795245,2726.649629140278 M 3804.5260539795245,2726.649629140279 M 3801.526053979525,2876.6496291402777 M 3801.5260539795245,2776.6496291402777 M 3804.526053979524,2776.6496291402786 M 3804.5260539795245,2876.6496291402777 M 3801.526053979524,2976.6496291402786 M 3804.526053979524,2976.6496291402777 M 3804.5260539795245,3076.6496291402777 M 3801.526053979525,3076.6496291402777 M 3804.5260539795245,3529.6496291402786 M 3804.526053979525,3526.6496291402777 M 3904.526053979524,3526.6496291402786 M 3904.5260539795245,3529.6496291402796 M 4304.526053979524,3056.6496291402786 M 4307.526053979524,3056.6496291402786 M 4307.526053979524,3076.6496291402786 M 4304.526053979524,3076.6496291402786 M 4304.526053979524,2996.6496291402786 M 4307.526053979524,2996.6496291402786 M 4307.526053979524,3036.6496291402786 M 4304.526053979524,3036.6496291402796 M 4307.526053979524,2756.649629140278 M 4307.526053979524,2796.649629140278 M 4304.526053979524,2796.649629140278 M 4304.526053979524,2756.6496291402773 M 4304.526053979524,2723.649629140278 M 4304.526053979524,2726.649629140278 M 4204.5260539795245,2726.649629140278 M 4204.5260539795245,2723.649629140278 M 4304.526053979524,3526.6496291402786 M 4304.526053979524,3529.6496291402796 M 4204.5260539795245,3529.6496291402786 M 4204.526053979525,3526.6496291402777 M 4304.526053979523,3387.6496291402805 M 4307.526053979524,3387.6496291402814 M 4307.526053979523,3417.649629140277 M 4304.526053979523,3417.649629140277 M 4307.5260539795245,3256.6496291402786 M 4307.526053979524,3316.6496291402786 M 4304.526053979524,3316.649629140277 M 4304.526053979524,3256.6496291402786 M 4307.526053979524,2865.1496291402786 M 4304.526053979524,2865.1496291402796 M 4304.526053979524,2835.1496291402796 M 4307.526053979524,2835.149629140279 M 4304.526053979524,3497.649629140276 M 4304.526053979523,3457.649629140276 M 4307.526053979523,3457.649629140277 M 4307.526053979524,3497.649629140276 M 4104.526053979523,3539.6496291402796 M 4204.526053979524,3539.6496291402786 M 4204.526053979524,3542.6496291402786 M 4104.526053979523,3542.6496291402786 M 4368.526053979522,3363.6496291402796 M 4371.526053979535,3363.6496291402786 M 4371.526053979535,3463.6496291402805 M 4368.526053979523,3463.6496291402796 M 3788.526053979525,3376.649629140276 M 3788.5260539795236,3276.649629140276 M 3791.526053979538,3276.649629140275 M 3791.526053979538,3376.649629140276 M 3904.526053979524,3539.6496291402796 M 4004.5260539795236,3539.6496291402805 M 4004.526053979526,3542.6496291402786 M 3904.526053979524,3542.6496291402786 M 4368.526053979523,2863.6496291402777 M 4368.526053979523,2763.6496291402786 M 4371.526053979536,2763.6496291402777 M 4371.526053979536,2863.6496291402786 M 4368.526053979523,3263.6496291402786 M 4368.526053979523,3163.202269163556 M 4371.526053979536,3163.202269163556 M 4371.526053979537,3263.6496291402786 M 4368.526053979523,3063.6496291402786 M 4368.526053979523,2963.6496291402786 M 4371.526053979536,2963.6496291402796 M 4371.526053979536,3063.6496291402796 M 4204.526066425496,2713.649629140278 M 4105.151571687627,2713.649629140278 M 4105.151571687627,2710.649629140279 M 4204.526066425496,2710.649629140279 M 4005.7770769497592,2713.649629140279 M 3904.5260664254956,2713.649629140279 M 3904.526066425495,2710.649629140278 M 4005.7770769497583,2710.649629140279 M 3791.526053979538,2976.6496291402796 M 3788.5260539795245,2976.6496291402796 M 3788.5260539795245,2876.6496291402786 M 3791.526053979538,2876.6496291402786 M 3791.526053979539,3176.649629140273 M 3788.5260539795254,3176.6496291402723 M 3788.5260539795245,3076.649629140277 M 3791.5260539795386,3076.649629140277 M 4312.575092085204,3405.1005910346 M 4313.086714151306,3405.3125118331877 M 4313.526053979528,3405.649629140277 M 4313.8631712866145,3406.0889689684977 M 4314.075092085204,3406.6005910346 M 4314.147374323087,3407.149629140275 M 4314.075092085204,3407.698667245952 M 4313.8631712866145,3408.210289312055 M 4313.526053979528,3408.649629140275 M 4313.086714151306,3408.986746447363 M 4312.575092085204,3409.198667245952 M 4312.026053979528,3409.270949483835 M 4311.47701587385,3409.198667245951 M 4310.965393807747,3408.986746447364 M 4310.526053979527,3408.649629140275 M 4310.188936672441,3408.210289312054 M 4309.977015873851,3407.698667245951 M 4309.904733635969,3407.149629140276 M 4309.977015873851,3406.6005910346007 M 4310.188936672441,3406.088968968495 M 4310.526053979527,3405.649629140276 M 4310.965393807748,3405.3125118331886 M 4311.47701587385,3405.100591034599 M 4312.026053979528,3405.028308796717 M 4313.086714151304,2843.812511833191 M 4313.5260539795245,2844.149629140278 M 4313.863171286611,2844.5889689684986 M 4314.075092085201,2845.100591034602 M 4314.147374323083,2845.6496291402786 M 4314.075092085201,2846.198667245956 M 4313.863171286611,2846.7102893120586 M 4313.5260539795245,2847.149629140278 M 4313.0867141513045,2847.4867464473664 M 4312.575092085201,2847.6986672459557 M 4312.026053979524,2847.770949483838 M 4311.477015873847,2847.6986672459557 M 4310.9653938077445,2847.4867464473655 M 4310.5260539795245,2847.149629140278 M 4310.188936672436,2846.7102893120586 M 4309.9770158738465,2846.198667245955 M 4309.9047336359645,2845.6496291402777 M 4309.9770158738465,2845.100591034602 M 4310.188936672436,2844.588968968498 M 4310.5260539795245,2844.149629140278 M 4310.9653938077445,2843.8125118331905 M 4311.4770158738465,2843.6005910346025 M 4312.026053979524,2843.528308796719 M 4312.575092085201,2843.6005910346016 M 4298.526053979524,3070.6496291402786 M 4298.965393807744,3070.3125118331905 M 4299.4770158738465,3070.1005910346016 M 4300.026053979524,3070.0283087967196 M 4300.575092085201,3070.1005910346016 M 4301.086714151303,3070.3125118331923 M 4301.526053979524,3070.6496291402786 M 4301.863171286612,3071.0889689684986 M 4302.0750920852,3071.6005910346016 M 4302.147374323083,3072.1496291402786 M 4302.075092085201,3072.6986672459557 M 4301.863171286612,3073.2102893120586 M 4301.526053979524,3073.6496291402786 M 4301.086714151303,3073.986746447366 M 4300.5750920852,3074.1986672459566 M 4300.026053979523,3074.2709494838386 M 4299.4770158738465,3074.1986672459548 M 4298.965393807743,3073.9867464473678 M 4298.526053979524,3073.6496291402786 M 4298.188936672435,3073.2102893120586 M 4297.9770158738465,3072.6986672459557 M 4297.904733635964,3072.1496291402786 M 4297.977015873845,3071.6005910346016 M 4298.188936672435,3071.0889689684996 "
  />
</svg>
