<?xml version="1.0" standalone="no"?>
<!DOCTYPE svg PUBLIC "-//W3C//DTD SVG 1.1//EN" "http://www.w3.org/Graphics/SVG/1.1/DTD/svg11.dtd">
<svg width="4277.2495541560775mm" height="4199.424846718592mm"
 viewBox="0 0 4277.2495541560775 4199.424846718592"
 xmlns="http://www.w3.org/2000/svg" version="1.1"
 xmlns:xlink="http://www.w3.org/1999/xlink">
<desc>Output from Flights of Ideas SVG Sketchup Plugin</desc>

  <path id="face0-cut"
 style="fill:none;stroke:#0000FF;stroke-width:1;stroke-miterlimit:4;stroke-dasharray:none;stroke-linejoin:round;stroke-linecap:round"
        d="M 3670.6747771777527,3775.5579303881213 M 3670.674777177759,3795.5579303880972 M 3667.674777177753,3795.5579303881013 M 3667.6747771777536,3835.557930388054 M 3670.674777177754,3835.557930388052 M 3670.6747771777577,3895.557930387987 M 3667.6747771777564,3895.557930387986 M 3667.6747771777596,3935.5579303879413 M 3670.674777177755,3935.5579303879417 M 3670.6747771777555,3967.057930387906 M 3667.6747771777555,3967.057930387907 M 3667.6747771777545,3997.057930387876 M 3670.674777177755,3997.057930387876 M 3670.674777177758,4035.5579303878367 M 3667.6747771777486,4035.5579303878367 M 3667.6747771777573,4075.557930387796 M 3670.6747771777555,4075.5579303877944 M 3670.6747771777573,4108.557930387763 M 3700.6747771777555,4108.557930387763 M 3700.674777177754,4105.557930387767 M 3730.6747771777536,4105.557930387766 M 3730.6747771777545,4108.557930387763 M 3760.674777177754,4108.557930387763 M 3760.6747771777545,4105.557930387764 M 3790.674777177756,4105.557930387767 M 3790.674777177763,4108.55793038776 M 3820.674777177751,4108.557930387764 M 3820.674777177755,4105.557930387764 M 3850.674777177757,4105.557930387764 M 3850.6747771777573,4108.557930387763 M 3880.674777177756,4108.557930387759 M 3880.674777177754,4105.557930387764 M 3910.6747771777545,4105.557930387764 M 3910.6747771777505,4108.557930387762 M 3940.674777177749,4108.557930387763 M 3940.674777177752,4105.557930387764 M 3969.474777177748,4105.557930387761 M 3969.474777177745,3305.5579303887575 M 3940.674777177749,3305.557930388758 M 3940.6747771777436,3302.557930388764 M 3910.6747771777545,3302.5579303887607 M 3910.674777177752,3305.557930388756 M 3880.674777177748,3305.557930388758 M 3880.674777177754,3302.5579303887635 M 3850.674777177748,3302.5579303887603 M 3850.6747771777505,3305.557930388758 M 3820.6747771777514,3305.5579303887575 M 3820.6747771777555,3302.5579303887625 M 3790.674777177753,3302.5579303887644 M 3790.6747771777514,3305.557930388759 M 3760.6747771777505,3305.5579303887585 M 3760.6747771777586,3302.5579303887635 M 3730.6747771777523,3302.5579303887635 M 3730.6747771777505,3305.5579303887566 M 3700.674777177752,3305.5579303887594 M 3700.6747771777555,3302.5579303887616 M 3670.6747771777505,3302.5579303887607 M 3670.6747771777527,3334.557930388714 M 3667.6747771777495,3334.557930388716 M 3667.6747771777495,3374.557930388657 M 3670.6747771777527,3374.5579303886543 M 3670.6747771777545,3395.557930388622 M 3670.6747771777527,3414.5579303885975 M 3667.674777177748,3414.5579303885975 M 3667.674777177755,3444.557930388549 M 3670.6747771777564,3444.557930388549 M 3670.6747771777564,3455.5579303885384 M 3670.6747771777586,3515.5579303884533 M 3667.6747771777545,3515.5579303884524 M 3667.6747771777514,3575.5579303883724 M 3670.6747771777505,3575.5579303883737 M 3670.6747771777527,3635.5579303882946 M 3667.6747771777536,3635.5579303882923 M 3667.674777177753,3655.5579303882682 M 3890.6747771777495,3655.5579303882714 M 3890.6747771777545,3657.5579303882673 M 3890.6747771777536,3755.557930388148 M 3672.674777177755,3755.557930388148 M 3667.6747771777577,3755.557930388148 M 3667.674777177749,3775.5579303881204 M 3798.5097136682944,3641.6859612397216 L 3798.9070102247906,3641.168194286754 L 3799.424777177755,3640.7708977302577 L 3800.027729565003,3640.5211466739984 L 3800.6747771777555,3640.435961239719 L 3801.321824790513,3640.5211466739984 L 3801.9247771777555,3640.77089773026 L 3802.4425441307176,3641.168194286754 L 3802.8398406872175,3641.6859612397207 L 3803.0895917434777,3642.288913626964 L 3803.1747771777536,3642.9359612397175 L 3803.0895917434755,3643.583008852473 L 3802.8398406872184,3644.1859612397166 L 3802.442544130724,3644.7037281926837 L 3801.924777177757,3645.101024749175 L 3801.321824790513,3645.3507758054384 L 3800.6747771777577,3645.4359612397147 L 3800.027729565002,3645.3507758054384 L 3799.4247771777545,3645.101024749175 L 3798.907010224788,3644.703728192684 L 3798.5097136682934,3644.185961239716 L 3798.2599626120295,3643.5830088524744 L 3798.1747771777564,3642.9359612397175 L 3798.2599626120336,3642.2889136269637 L 3798.5097136682944,3641.6859612397216 M 3788.5097136682953,3644.185961239718 L 3788.2599626120336,3643.5830088524717 L 3788.1747771777536,3642.9359612397184 L 3788.2599626120304,3642.2889136269637 L 3788.509713668295,3641.6859612397216 L 3788.9070102247874,3641.1681942867554 L 3789.42477717775,3640.770897730263 L 3790.0277295649944,3640.5211466740006 L 3790.6747771777545,3640.4359612397225 L 3791.321824790511,3640.5211466739975 L 3791.9247771777545,3640.7708977302595 L 3792.44254413072,3641.1681942867544 L 3792.839840687215,3641.6859612397207 L 3793.08959174348,3642.2889136269614 L 3793.174777177756,3642.935961239716 L 3793.0895917434786,3643.5830088524717 L 3792.8398406872175,3644.185961239716 L 3792.4425441307185,3644.703728192683 L 3791.924777177759,3645.101024749178 L 3791.3218247905143,3645.350775805439 L 3790.6747771777577,3645.4359612397147 L 3790.027729564996,3645.3507758054407 L 3789.4247771777573,3645.101024749178 L 3788.907010224788,3644.7037281926864 L 3788.5097136682953,3644.185961239718 M 3770.6747771777545,3529.5579303884333 M 3770.67477717775,3429.5579303885747 M 3780.6747771777555,3429.5579303885715 L 3790.674777177754,3429.5579303885715 M 3800.6747771777545,3429.5579303885715 L 3810.674777177755,3429.5579303885725 M 3820.6747771777545,3429.5579303885715 L 3830.6747771777536,3429.5579303885715 M 3840.674777177754,3429.5579303885715 L 3850.6747771777545,3429.5579303885715 M 3860.6747771777536,3429.5579303885715 L 3870.6747771777573,3429.5579303885715 L 3870.6747771777545,3432.5579303885675 M 3870.6747771777545,3526.557930388437 L 3870.6747771777573,3529.557930388434 L 3860.674777177754,3529.5579303884333 M 3850.6747771777536,3529.5579303884333 L 3840.6747771777536,3529.557930388433 M 3830.6747771777536,3529.557930388433 L 3820.6747771777545,3529.5579303884333 M 3810.674777177754,3529.5579303884333 L 3800.674777177754,3529.5579303884333 M 3790.674777177754,3529.5579303884333 L 3780.674777177754,3529.5579303884333 M 3730.621073258453,3805.5579303880904 L 3730.621073258448,3808.5579303880854 L 3710.6747771777586,3808.5579303880836 L 3710.6747771777573,3805.5579303880863 L 3730.621073258453,3805.5579303880904 M 3830.6747771777577,3808.557930388085 L 3810.674777177753,3808.557930388084 L 3810.674777177753,3805.5579303880877 L 3830.674777177759,3805.5579303880863 L 3830.6747771777577,3808.557930388085 M 3910.6747771777505,3808.5579303880813 L 3910.674777177753,3805.557930388089 L 3930.674777177746,3805.5579303880886 L 3930.674777177746,3808.557930388085 L 3910.6747771777505,3808.5579303880813 M 3876.6747771777564,3418.5579303885925 L 3876.6747771777527,3431.5579303885747 L 3873.674777177753,3431.557930388573 L 3873.6747771777523,3418.557930388593 L 3876.6747771777564,3418.5579303885925 M 3767.6747771777514,3418.557930388589 L 3767.6747771777527,3431.557930388571 L 3764.674777177752,3431.5579303885706 L 3764.6747771777523,3418.557930388588 L 3767.6747771777514,3418.557930388589 M 3764.6747771777555,3980.057930387892 L 3767.674777177757,3980.057930387892 L 3767.6747771777555,3993.0579303878812 L 3764.674777177753,3993.0579303878785 L 3764.6747771777555,3980.057930387892 M 3873.6747771777523,3993.057930387879 L 3873.674777177757,3980.057930387891 L 3876.674777177755,3980.057930387892 L 3876.6747771777536,3993.05793038788 L 3873.6747771777523,3993.057930387879 M 3870.6747771777573,3982.0579303878894 L 3860.6747771777527,3982.057930387891 M 3850.6747771777514,3982.0579303878917 L 3840.6747771777514,3982.0579303878917 M 3830.674777177752,3982.057930387891 L 3820.6747771777527,3982.0579303878917 M 3810.6747771777523,3982.057930387891 L 3800.6747771777523,3982.0579303878917 M 3790.6747771777527,3982.0579303878917 L 3780.6747771777523,3982.057930387891 M 3770.674777177752,3982.0579303878903 M 3770.6747771777527,3882.057930387999 M 3780.6747771777527,3882.057930387999 L 3790.6747771777527,3882.0579303879995 M 3800.674777177752,3882.057930387999 L 3810.674777177753,3882.057930387999 M 3820.674777177752,3882.0579303879995 L 3830.674777177752,3882.057930387999 M 3840.6747771777523,3882.057930387999 L 3850.674777177752,3882.057930387999 M 3860.674777177752,3882.057930387999 L 3870.6747771777586,3882.057930388001 L 3870.6747771777523,3885.057930387996 M 3870.6747771777523,3979.0579303878944 L 3870.6747771777573,3982.0579303878894 M 3903.674777177751,3766.5579303881354 L 3900.674777177754,3766.557930388134 L 3900.6747771777564,3753.557930388151 L 3903.6747771777536,3753.5579303881495 L 3903.674777177751,3766.5579303881354 "
  />
  <path id="face1-cut"
 style="fill:none;stroke:#0000FF;stroke-width:1;stroke-miterlimit:4;stroke-dasharray:none;stroke-linejoin:round;stroke-linecap:round"
        d="M 4255.494567280896,4182.481933429953 M 4255.4945672809035,4172.481933429963 M 4258.494567280916,4172.481933429965 M 4258.494567280922,4162.481933429974 M 4255.494567280909,4162.481933429972 M 4255.494567280916,4152.481933429981 M 4258.494567280929,4152.481933429985 M 4258.494567280936,4142.4819334299955 M 4255.494567280922,4142.481933429995 M 4255.494567280928,4132.4819334300055 M 4258.494567280942,4132.481933430006 M 4258.494567280948,4122.481933430014 M 3675.4945672809504,4122.48193342963 M 3675.494567280944,4132.481941524358 M 3678.4945672809426,4132.481941524361 M 3678.4945672809363,4142.48194152435 M 3675.494567280937,4142.4819415243455 M 3675.49456728093,4152.4819415243355 M 3678.494567280931,4152.481941524336 M 3678.494567280923,4162.481941524326 M 3675.4945672809245,4162.481941524326 M 3675.4945672809176,4172.481941524316 M 3678.4945672809167,4172.48194152432 M 3678.4945672809095,4182.481933429575 M 3791.494579726869,4182.481933429648 M 3791.494579726867,4185.4819334296435 M 3891.4945797268665,4185.481933429709 M 3891.4945797268692,4182.4819334297135 M 3991.4945797268692,4182.481933429779 M 3991.4945797268674,4185.481933429775 M 4091.494579726866,4185.481933429842 M 4091.4945797268683,4182.481933429845 "
  />
  <path id="face2-cut"
 style="fill:none;stroke:#0000FF;stroke-width:1;stroke-miterlimit:4;stroke-dasharray:none;stroke-linejoin:round;stroke-linecap:round"
        d="M 3770.6747771777545,3529.5579303884333 M 3780.674777177754,3529.5579303884333 L 3780.674777177755,3526.557930388438 L 3790.674777177754,3526.557930388437 L 3790.674777177754,3529.5579303884333 M 3800.674777177754,3529.5579303884333 L 3800.674777177754,3526.557930388438 L 3810.6747771777545,3526.557930388438 L 3810.674777177754,3529.5579303884333 M 3820.6747771777545,3529.5579303884333 L 3820.6747771777545,3526.557930388437 L 3830.6747771777545,3526.557930388438 L 3830.6747771777536,3529.557930388433 M 3840.6747771777536,3529.557930388433 L 3840.6747771777536,3526.557930388437 L 3850.6747771777536,3526.557930388438 L 3850.6747771777536,3529.5579303884333 M 3860.674777177754,3529.5579303884333 L 3860.6747771777545,3526.557930388438 L 3870.6747771777545,3526.557930388437 M 3870.6747771777545,3432.5579303885675 L 3860.6747771777527,3432.5579303885675 L 3860.6747771777536,3429.5579303885715 M 3850.6747771777545,3429.5579303885715 L 3850.6747771777536,3432.5579303885675 L 3840.6747771777536,3432.5579303885675 L 3840.674777177754,3429.5579303885715 M 3830.6747771777536,3429.5579303885715 L 3830.6747771777527,3432.5579303885675 L 3820.674777177753,3432.5579303885675 L 3820.6747771777545,3429.5579303885715 M 3810.674777177755,3429.5579303885725 L 3810.6747771777545,3432.557930388568 L 3800.674777177754,3432.557930388568 L 3800.6747771777545,3429.5579303885715 M 3790.674777177754,3429.5579303885715 L 3790.6747771777536,3432.5579303885675 L 3780.674777177755,3432.5579303885675 L 3780.6747771777555,3429.5579303885715 M 3770.67477717775,3429.5579303885747 "
  />
  <path id="face3-cut"
 style="fill:none;stroke:#0000FF;stroke-width:1;stroke-miterlimit:4;stroke-dasharray:none;stroke-linejoin:round;stroke-linecap:round"
        d="M 3770.674777177752,3982.0579303878903 M 3780.6747771777523,3982.057930387891 L 3780.6747771777523,3979.057930387894 L 3790.674777177752,3979.0579303878944 L 3790.6747771777527,3982.0579303878917 M 3800.6747771777523,3982.0579303878917 L 3800.6747771777523,3979.0579303878944 L 3810.674777177752,3979.0579303878944 L 3810.6747771777523,3982.057930387891 M 3820.6747771777527,3982.0579303878917 L 3820.6747771777527,3979.0579303878953 L 3830.6747771777527,3979.0579303878944 L 3830.674777177752,3982.057930387891 M 3840.6747771777514,3982.0579303878917 L 3840.674777177752,3979.0579303878944 L 3850.6747771777514,3979.0579303878944 L 3850.6747771777514,3982.0579303878917 M 3860.6747771777527,3982.057930387891 L 3860.6747771777523,3979.0579303878953 L 3870.6747771777523,3979.0579303878944 M 3870.6747771777523,3885.057930387996 L 3860.6747771777505,3885.0579303879954 L 3860.674777177752,3882.057930387999 M 3850.674777177752,3882.057930387999 L 3850.6747771777514,3885.057930387996 L 3840.6747771777514,3885.0579303879954 L 3840.6747771777523,3882.057930387999 M 3830.674777177752,3882.057930387999 L 3830.674777177751,3885.0579303879954 L 3820.674777177751,3885.057930387996 L 3820.674777177752,3882.0579303879995 M 3810.674777177753,3882.057930387999 L 3810.674777177752,3885.057930387996 L 3800.6747771777514,3885.0579303879954 L 3800.674777177752,3882.057930387999 M 3790.6747771777527,3882.0579303879995 L 3790.674777177752,3885.057930387996 L 3780.6747771777527,3885.0579303879954 L 3780.6747771777527,3882.057930387999 M 3770.6747771777527,3882.057930387999 "
  />
  <path id="face4-cut"
 style="fill:none;stroke:#0000FF;stroke-width:1;stroke-miterlimit:4;stroke-dasharray:none;stroke-linejoin:round;stroke-linecap:round"
        d="M 3672.674777177755,3755.557930388148 M 3890.6747771777536,3755.557930388148 M 3890.6747771777545,3657.5579303882673 M 3672.6747771777545,3657.557930388268 M 3838.6747771777545,3696.557930388219 L 3838.674777177755,3676.557930388243 L 3841.674777177755,3676.557930388243 L 3841.6747771777555,3696.557930388219 L 3838.6747771777545,3696.557930388219 M 3721.674777177755,3696.557930388219 L 3721.674777177755,3676.557930388243 L 3724.6747771777545,3676.557930388243 L 3724.6747771777545,3696.557930388219 L 3721.674777177755,3696.557930388219 M 3724.6747771777545,3736.55793038817 L 3721.6747771777545,3736.5579303881705 L 3721.6747771777555,3716.5579303881946 L 3724.6747771777545,3716.5579303881937 L 3724.6747771777545,3736.55793038817 M 3841.6747771777545,3736.55793038817 L 3838.674777177754,3736.55793038817 L 3838.6747771777555,3716.5579303881946 L 3841.6747771777545,3716.5579303881937 L 3841.6747771777545,3736.55793038817 "
  />
  <path id="face5-cut"
 style="fill:none;stroke:#0000FF;stroke-width:1;stroke-miterlimit:4;stroke-dasharray:none;stroke-linejoin:round;stroke-linecap:round"
        d="M 4267.248108857193,4189.424846718592 L 4267.2495541560775,4105.424984626095 M 3974.7602470786474,4105.425932311899 M 3974.758659107205,3289.4292169949204 L 3666.2481088571926,3289.424846719693 L 3667.248108857192,4189.424846718592 L 4267.248108857193,4189.424846718592 M 4255.4945672809035,4172.481933429963 M 4255.494567280896,4182.481933429953 M 4091.4945797268683,4182.481933429845 M 4091.494579726866,4185.481933429842 M 3991.4945797268674,4185.481933429775 M 3991.4945797268692,4182.481933429779 M 3891.4945797268692,4182.4819334297135 M 3891.4945797268665,4185.481933429709 M 3791.494579726867,4185.4819334296435 M 3791.494579726869,4182.481933429648 M 3678.4945672809095,4182.481933429575 M 3678.4945672809167,4172.48194152432 M 3675.4945672809176,4172.481941524316 M 3675.4945672809245,4162.481941524326 M 3678.494567280923,4162.481941524326 M 3678.494567280931,4152.481941524336 M 3675.49456728093,4152.4819415243355 M 3675.494567280937,4142.4819415243455 M 3678.4945672809363,4142.48194152435 M 3678.4945672809426,4132.481941524361 M 3675.494567280944,4132.481941524358 M 3675.4945672809504,4122.48193342963 M 4258.494567280948,4122.481933430014 M 4258.494567280942,4132.481933430006 M 4255.494567280928,4132.4819334300055 M 4255.494567280922,4142.481933429995 M 4258.494567280936,4142.4819334299955 M 4258.494567280929,4152.481933429985 M 4255.494567280916,4152.481933429981 M 4255.494567280909,4162.481933429972 M 4258.494567280922,4162.481933429974 M 4258.494567280916,4172.481933429965 M 3670.674777177759,3795.5579303880972 M 3670.6747771777527,3775.5579303881213 M 3667.674777177749,3775.5579303881204 M 3667.6747771777577,3755.557930388148 M 3672.674777177755,3755.557930388148 M 3672.6747771777545,3657.557930388268 M 3890.6747771777545,3657.5579303882673 M 3890.6747771777495,3655.5579303882714 M 3667.674777177753,3655.5579303882682 M 3667.6747771777536,3635.5579303882923 M 3670.6747771777527,3635.5579303882946 M 3670.6747771777505,3575.5579303883737 M 3667.6747771777514,3575.5579303883724 M 3667.6747771777545,3515.5579303884524 M 3670.6747771777586,3515.5579303884533 M 3670.6747771777564,3455.5579303885384 M 3670.6747771777564,3444.557930388549 M 3667.674777177755,3444.557930388549 M 3667.674777177748,3414.5579303885975 M 3670.6747771777527,3414.5579303885975 M 3670.6747771777545,3395.557930388622 M 3670.6747771777527,3374.5579303886543 M 3667.6747771777495,3374.557930388657 M 3667.6747771777495,3334.557930388716 M 3670.6747771777527,3334.557930388714 M 3670.6747771777505,3302.5579303887607 M 3700.6747771777555,3302.5579303887616 M 3700.674777177752,3305.5579303887594 M 3730.6747771777505,3305.5579303887566 M 3730.6747771777523,3302.5579303887635 M 3760.6747771777586,3302.5579303887635 M 3760.6747771777505,3305.5579303887585 M 3790.6747771777514,3305.557930388759 M 3790.674777177753,3302.5579303887644 M 3820.6747771777555,3302.5579303887625 M 3820.6747771777514,3305.5579303887575 M 3850.6747771777505,3305.557930388758 M 3850.674777177748,3302.5579303887603 M 3880.674777177754,3302.5579303887635 M 3880.674777177748,3305.557930388758 M 3910.674777177752,3305.557930388756 M 3910.6747771777545,3302.5579303887607 M 3940.6747771777436,3302.557930388764 M 3940.674777177749,3305.557930388758 M 3969.474777177745,3305.5579303887575 M 3969.474777177748,4105.557930387761 M 3940.674777177752,4105.557930387764 M 3940.674777177749,4108.557930387763 M 3910.6747771777505,4108.557930387762 M 3910.6747771777545,4105.557930387764 M 3880.674777177754,4105.557930387764 M 3880.674777177756,4108.557930387759 M 3850.6747771777573,4108.557930387763 M 3850.674777177757,4105.557930387764 M 3820.674777177755,4105.557930387764 M 3820.674777177751,4108.557930387764 M 3790.674777177763,4108.55793038776 M 3790.674777177756,4105.557930387767 M 3760.6747771777545,4105.557930387764 M 3760.674777177754,4108.557930387763 M 3730.6747771777545,4108.557930387763 M 3730.6747771777536,4105.557930387766 M 3700.674777177754,4105.557930387767 M 3700.6747771777555,4108.557930387763 M 3670.6747771777573,4108.557930387763 M 3670.6747771777555,4075.5579303877944 M 3667.6747771777573,4075.557930387796 M 3667.6747771777486,4035.5579303878367 M 3670.674777177758,4035.5579303878367 M 3670.674777177755,3997.057930387876 M 3667.6747771777545,3997.057930387876 M 3667.6747771777555,3967.057930387907 M 3670.6747771777555,3967.057930387906 M 3670.674777177755,3935.5579303879417 M 3667.6747771777596,3935.5579303879413 M 3667.6747771777564,3895.557930387986 M 3670.6747771777577,3895.557930387987 M 3670.674777177754,3835.557930388052 M 3667.6747771777536,3835.557930388054 M 3667.674777177753,3795.5579303881013 "
  />
  <path id="face6-cut"
 style="fill:none;stroke:#0000FF;stroke-width:1;stroke-miterlimit:4;stroke-dasharray:none;stroke-linejoin:round;stroke-linecap:round"
        d="M 4247.247078323893,3289.4296102774965 L 4195.847476002619,3289.427191399472 L 3974.758659107205,3289.4292169949204 M 3974.7602470786474,4105.425932311899 M 4267.2495541560775,4105.424984626095 L 4267.248108857192,3289.424846719693 L 4247.247078323893,3289.4296102774965 M 4008.8196228689867,4100.425695901731 L 4008.8196482942603,4097.4247228695585 L 4042.881045566799,4097.424698150084 L 4042.8809131907287,4100.425059603083 L 4008.8196228689867,4100.425695901731 M 4111.003845105866,4100.426940531606 L 4076.9424541297194,4100.426974323596 L 4076.9424795557125,4097.424759554663 L 4111.003877003649,4097.424736841625 L 4111.003845105866,4100.426940531606 M 4179.126675728884,4100.4282179291085 L 4145.065285390409,4100.428252753013 L 4145.065310817162,4097.424796248434 L 4179.126708494684,4097.424776145621 L 4179.126675728884,4100.4282179291085 M 4247.249548459444,4097.42954954389 L 4247.250270989024,4100.433056141908 L 4213.188116651066,4100.429531189346 L 4213.188142078615,4097.424832950877 L 4247.249548459444,4097.42954954389 M 4042.8814474160836,3294.4257919361366 L 4042.8814837303817,3297.4247014428015 L 4008.8200500372764,3297.4247228707763 L 4008.8200236232,3294.4256603033705 L 4042.8814474160836,3294.4257919361366 M 4111.004278784048,3294.4270620728544 L 4111.0043131634975,3297.4247588830112 L 4076.9428812987258,3297.424759554692 L 4076.9428548839323,3294.4269387240465 L 4111.004278784048,3294.4270620728544 M 4179.127109710064,3294.428337489127 L 4179.127143759526,3297.4248031419274 L 4145.065712560176,3297.4247962494296 L 4145.065686144625,3294.428217154436 L 4179.127109710064,3294.428337489127 M 4247.2499330360015,3294.429513950754 L 4247.2499168583445,3297.429513950665 L 4213.188543821629,3297.4248329549832 L 4213.188517405276,3294.4294955939054 L 4247.2499330360015,3294.429513950754 "
  />
  <path id="face0-interior"
 style="fill:none;stroke:#FF0000;stroke-width:1;stroke-miterlimit:4;stroke-dasharray:none;stroke-linejoin:round;stroke-linecap:round"
        d="M 3670.6747771777527,3775.5579303881213 L 3670.674777177759,3795.5579303880972 L 3667.674777177753,3795.5579303881013 L 3667.6747771777536,3835.557930388054 L 3670.674777177754,3835.557930388052 L 3670.6747771777577,3895.557930387987 L 3667.6747771777564,3895.557930387986 L 3667.6747771777596,3935.5579303879413 L 3670.674777177755,3935.5579303879417 L 3670.6747771777555,3967.057930387906 L 3667.6747771777555,3967.057930387907 L 3667.6747771777545,3997.057930387876 L 3670.674777177755,3997.057930387876 L 3670.674777177758,4035.5579303878367 L 3667.6747771777486,4035.5579303878367 L 3667.6747771777573,4075.557930387796 L 3670.6747771777555,4075.5579303877944 L 3670.6747771777573,4108.557930387763 L 3700.6747771777555,4108.557930387763 L 3700.674777177754,4105.557930387767 L 3730.6747771777536,4105.557930387766 L 3730.6747771777545,4108.557930387763 L 3760.674777177754,4108.557930387763 L 3760.6747771777545,4105.557930387764 L 3790.674777177756,4105.557930387767 L 3790.674777177763,4108.55793038776 L 3820.674777177751,4108.557930387764 L 3820.674777177755,4105.557930387764 L 3850.674777177757,4105.557930387764 L 3850.6747771777573,4108.557930387763 L 3880.674777177756,4108.557930387759 L 3880.674777177754,4105.557930387764 L 3910.6747771777545,4105.557930387764 L 3910.6747771777505,4108.557930387762 L 3940.674777177749,4108.557930387763 L 3940.674777177752,4105.557930387764 L 3969.474777177748,4105.557930387761 L 3969.474777177745,3305.5579303887575 L 3940.674777177749,3305.557930388758 L 3940.6747771777436,3302.557930388764 L 3910.6747771777545,3302.5579303887607 L 3910.674777177752,3305.557930388756 L 3880.674777177748,3305.557930388758 L 3880.674777177754,3302.5579303887635 L 3850.674777177748,3302.5579303887603 L 3850.6747771777505,3305.557930388758 L 3820.6747771777514,3305.5579303887575 L 3820.6747771777555,3302.5579303887625 L 3790.674777177753,3302.5579303887644 L 3790.6747771777514,3305.557930388759 L 3760.6747771777505,3305.5579303887585 L 3760.6747771777586,3302.5579303887635 L 3730.6747771777523,3302.5579303887635 L 3730.6747771777505,3305.5579303887566 L 3700.674777177752,3305.5579303887594 L 3700.6747771777555,3302.5579303887616 L 3670.6747771777505,3302.5579303887607 L 3670.6747771777527,3334.557930388714 L 3667.6747771777495,3334.557930388716 L 3667.6747771777495,3374.557930388657 L 3670.6747771777527,3374.5579303886543 L 3670.6747771777545,3395.557930388622 L 3670.6747771777527,3414.5579303885975 L 3667.674777177748,3414.5579303885975 L 3667.674777177755,3444.557930388549 L 3670.6747771777564,3444.557930388549 L 3670.6747771777564,3455.5579303885384 L 3670.6747771777586,3515.5579303884533 L 3667.6747771777545,3515.5579303884524 L 3667.6747771777514,3575.5579303883724 L 3670.6747771777505,3575.5579303883737 L 3670.6747771777527,3635.5579303882946 L 3667.6747771777536,3635.5579303882923 L 3667.674777177753,3655.5579303882682 L 3890.6747771777495,3655.5579303882714 L 3890.6747771777545,3657.5579303882673 L 3890.6747771777536,3755.557930388148 L 3672.674777177755,3755.557930388148 L 3667.6747771777577,3755.557930388148 L 3667.674777177749,3775.5579303881204 L 3670.6747771777527,3775.5579303881213 M 3798.5097136682944,3641.6859612397216 M 3798.9070102247906,3641.168194286754 M 3799.424777177755,3640.7708977302577 M 3800.027729565003,3640.5211466739984 M 3800.6747771777555,3640.435961239719 M 3801.321824790513,3640.5211466739984 M 3801.9247771777555,3640.77089773026 M 3802.4425441307176,3641.168194286754 M 3802.8398406872175,3641.6859612397207 M 3803.0895917434777,3642.288913626964 M 3803.1747771777536,3642.9359612397175 M 3803.0895917434755,3643.583008852473 M 3802.8398406872184,3644.1859612397166 M 3802.442544130724,3644.7037281926837 M 3801.924777177757,3645.101024749175 M 3801.321824790513,3645.3507758054384 M 3800.6747771777577,3645.4359612397147 M 3800.027729565002,3645.3507758054384 M 3799.4247771777545,3645.101024749175 M 3798.907010224788,3644.703728192684 M 3798.5097136682934,3644.185961239716 M 3798.2599626120295,3643.5830088524744 M 3798.1747771777564,3642.9359612397175 M 3798.2599626120336,3642.2889136269637 M 3788.5097136682953,3644.185961239718 M 3788.2599626120336,3643.5830088524717 M 3788.1747771777536,3642.9359612397184 M 3788.2599626120304,3642.2889136269637 M 3788.509713668295,3641.6859612397216 M 3788.9070102247874,3641.1681942867554 M 3789.42477717775,3640.770897730263 M 3790.0277295649944,3640.5211466740006 M 3790.6747771777545,3640.4359612397225 M 3791.321824790511,3640.5211466739975 M 3791.9247771777545,3640.7708977302595 M 3792.44254413072,3641.1681942867544 M 3792.839840687215,3641.6859612397207 M 3793.08959174348,3642.2889136269614 M 3793.174777177756,3642.935961239716 M 3793.0895917434786,3643.5830088524717 M 3792.8398406872175,3644.185961239716 M 3792.4425441307185,3644.703728192683 M 3791.924777177759,3645.101024749178 M 3791.3218247905143,3645.350775805439 M 3790.6747771777577,3645.4359612397147 M 3790.027729564996,3645.3507758054407 M 3789.4247771777573,3645.101024749178 M 3788.907010224788,3644.7037281926864 M 3770.6747771777545,3529.5579303884333 L 3770.67477717775,3429.5579303885747 L 3780.6747771777555,3429.5579303885715 M 3790.674777177754,3429.5579303885715 L 3800.6747771777545,3429.5579303885715 M 3810.674777177755,3429.5579303885725 L 3820.6747771777545,3429.5579303885715 M 3830.6747771777536,3429.5579303885715 L 3840.674777177754,3429.5579303885715 M 3850.6747771777545,3429.5579303885715 L 3860.6747771777536,3429.5579303885715 M 3870.6747771777573,3429.5579303885715 M 3870.6747771777545,3432.5579303885675 L 3870.6747771777545,3526.557930388437 M 3870.6747771777573,3529.557930388434 M 3860.674777177754,3529.5579303884333 L 3850.6747771777536,3529.5579303884333 M 3840.6747771777536,3529.557930388433 L 3830.6747771777536,3529.557930388433 M 3820.6747771777545,3529.5579303884333 L 3810.674777177754,3529.5579303884333 M 3800.674777177754,3529.5579303884333 L 3790.674777177754,3529.5579303884333 M 3780.674777177754,3529.5579303884333 L 3770.6747771777545,3529.5579303884333 M 3730.621073258453,3805.5579303880904 M 3730.621073258448,3808.5579303880854 M 3710.6747771777586,3808.5579303880836 M 3710.6747771777573,3805.5579303880863 M 3830.6747771777577,3808.557930388085 M 3810.674777177753,3808.557930388084 M 3810.674777177753,3805.5579303880877 M 3830.674777177759,3805.5579303880863 M 3910.6747771777505,3808.5579303880813 M 3910.674777177753,3805.557930388089 M 3930.674777177746,3805.5579303880886 M 3930.674777177746,3808.557930388085 M 3876.6747771777564,3418.5579303885925 M 3876.6747771777527,3431.5579303885747 M 3873.674777177753,3431.557930388573 M 3873.6747771777523,3418.557930388593 M 3767.6747771777514,3418.557930388589 M 3767.6747771777527,3431.557930388571 M 3764.674777177752,3431.5579303885706 M 3764.6747771777523,3418.557930388588 M 3764.6747771777555,3980.057930387892 M 3767.674777177757,3980.057930387892 M 3767.6747771777555,3993.0579303878812 M 3764.674777177753,3993.0579303878785 M 3873.6747771777523,3993.057930387879 M 3873.674777177757,3980.057930387891 M 3876.674777177755,3980.057930387892 M 3876.6747771777536,3993.05793038788 M 3870.6747771777573,3982.0579303878894 M 3860.6747771777527,3982.057930387891 L 3850.6747771777514,3982.0579303878917 M 3840.6747771777514,3982.0579303878917 L 3830.674777177752,3982.057930387891 M 3820.6747771777527,3982.0579303878917 L 3810.6747771777523,3982.057930387891 M 3800.6747771777523,3982.0579303878917 L 3790.6747771777527,3982.0579303878917 M 3780.6747771777523,3982.057930387891 L 3770.674777177752,3982.0579303878903 L 3770.6747771777527,3882.057930387999 L 3780.6747771777527,3882.057930387999 M 3790.6747771777527,3882.0579303879995 L 3800.674777177752,3882.057930387999 M 3810.674777177753,3882.057930387999 L 3820.674777177752,3882.0579303879995 M 3830.674777177752,3882.057930387999 L 3840.6747771777523,3882.057930387999 M 3850.674777177752,3882.057930387999 L 3860.674777177752,3882.057930387999 M 3870.6747771777586,3882.057930388001 M 3870.6747771777523,3885.057930387996 L 3870.6747771777523,3979.0579303878944 M 3903.674777177751,3766.5579303881354 M 3900.674777177754,3766.557930388134 M 3900.6747771777564,3753.557930388151 M 3903.6747771777536,3753.5579303881495 "
  />
  <path id="face1-interior"
 style="fill:none;stroke:#FF0000;stroke-width:1;stroke-miterlimit:4;stroke-dasharray:none;stroke-linejoin:round;stroke-linecap:round"
        d="M 4255.494567280896,4182.481933429953 L 4255.4945672809035,4172.481933429963 L 4258.494567280916,4172.481933429965 L 4258.494567280922,4162.481933429974 L 4255.494567280909,4162.481933429972 L 4255.494567280916,4152.481933429981 L 4258.494567280929,4152.481933429985 L 4258.494567280936,4142.4819334299955 L 4255.494567280922,4142.481933429995 L 4255.494567280928,4132.4819334300055 L 4258.494567280942,4132.481933430006 L 4258.494567280948,4122.481933430014 L 3675.4945672809504,4122.48193342963 L 3675.494567280944,4132.481941524358 L 3678.4945672809426,4132.481941524361 L 3678.4945672809363,4142.48194152435 L 3675.494567280937,4142.4819415243455 L 3675.49456728093,4152.4819415243355 L 3678.494567280931,4152.481941524336 L 3678.494567280923,4162.481941524326 L 3675.4945672809245,4162.481941524326 L 3675.4945672809176,4172.481941524316 L 3678.4945672809167,4172.48194152432 L 3678.4945672809095,4182.481933429575 L 3791.494579726869,4182.481933429648 L 3791.494579726867,4185.4819334296435 L 3891.4945797268665,4185.481933429709 L 3891.4945797268692,4182.4819334297135 L 3991.4945797268692,4182.481933429779 L 3991.4945797268674,4185.481933429775 L 4091.494579726866,4185.481933429842 L 4091.4945797268683,4182.481933429845 L 4255.494567280896,4182.481933429953 "
  />
  <path id="face2-interior"
 style="fill:none;stroke:#FF0000;stroke-width:1;stroke-miterlimit:4;stroke-dasharray:none;stroke-linejoin:round;stroke-linecap:round"
        d="M 3770.6747771777545,3529.5579303884333 M 3780.674777177754,3529.5579303884333 M 3780.674777177755,3526.557930388438 M 3790.674777177754,3526.557930388437 M 3790.674777177754,3529.5579303884333 M 3800.674777177754,3529.5579303884333 M 3800.674777177754,3526.557930388438 M 3810.6747771777545,3526.557930388438 M 3810.674777177754,3529.5579303884333 M 3820.6747771777545,3529.5579303884333 M 3820.6747771777545,3526.557930388437 M 3830.6747771777545,3526.557930388438 M 3830.6747771777536,3529.557930388433 M 3840.6747771777536,3529.557930388433 M 3840.6747771777536,3526.557930388437 M 3850.6747771777536,3526.557930388438 M 3850.6747771777536,3529.5579303884333 M 3860.674777177754,3529.5579303884333 M 3860.6747771777545,3526.557930388438 M 3870.6747771777545,3526.557930388437 M 3870.6747771777545,3432.5579303885675 M 3860.6747771777527,3432.5579303885675 M 3860.6747771777536,3429.5579303885715 M 3850.6747771777545,3429.5579303885715 M 3850.6747771777536,3432.5579303885675 M 3840.6747771777536,3432.5579303885675 M 3840.674777177754,3429.5579303885715 M 3830.6747771777536,3429.5579303885715 M 3830.6747771777527,3432.5579303885675 M 3820.674777177753,3432.5579303885675 M 3820.6747771777545,3429.5579303885715 M 3810.674777177755,3429.5579303885725 M 3810.6747771777545,3432.557930388568 M 3800.674777177754,3432.557930388568 M 3800.6747771777545,3429.5579303885715 M 3790.674777177754,3429.5579303885715 M 3790.6747771777536,3432.5579303885675 M 3780.674777177755,3432.5579303885675 M 3780.6747771777555,3429.5579303885715 M 3770.67477717775,3429.5579303885747 "
  />
  <path id="face3-interior"
 style="fill:none;stroke:#FF0000;stroke-width:1;stroke-miterlimit:4;stroke-dasharray:none;stroke-linejoin:round;stroke-linecap:round"
        d="M 3770.674777177752,3982.0579303878903 M 3780.6747771777523,3982.057930387891 M 3780.6747771777523,3979.057930387894 M 3790.674777177752,3979.0579303878944 M 3790.6747771777527,3982.0579303878917 M 3800.6747771777523,3982.0579303878917 M 3800.6747771777523,3979.0579303878944 M 3810.674777177752,3979.0579303878944 M 3810.6747771777523,3982.057930387891 M 3820.6747771777527,3982.0579303878917 M 3820.6747771777527,3979.0579303878953 M 3830.6747771777527,3979.0579303878944 M 3830.674777177752,3982.057930387891 M 3840.6747771777514,3982.0579303878917 M 3840.674777177752,3979.0579303878944 M 3850.6747771777514,3979.0579303878944 M 3850.6747771777514,3982.0579303878917 M 3860.6747771777527,3982.057930387891 M 3860.6747771777523,3979.0579303878953 M 3870.6747771777523,3979.0579303878944 M 3870.6747771777523,3885.057930387996 M 3860.6747771777505,3885.0579303879954 M 3860.674777177752,3882.057930387999 M 3850.674777177752,3882.057930387999 M 3850.6747771777514,3885.057930387996 M 3840.6747771777514,3885.0579303879954 M 3840.6747771777523,3882.057930387999 M 3830.674777177752,3882.057930387999 M 3830.674777177751,3885.0579303879954 M 3820.674777177751,3885.057930387996 M 3820.674777177752,3882.0579303879995 M 3810.674777177753,3882.057930387999 M 3810.674777177752,3885.057930387996 M 3800.6747771777514,3885.0579303879954 M 3800.674777177752,3882.057930387999 M 3790.6747771777527,3882.0579303879995 M 3790.674777177752,3885.057930387996 M 3780.6747771777527,3885.0579303879954 M 3780.6747771777527,3882.057930387999 M 3770.6747771777527,3882.057930387999 "
  />
  <path id="face4-interior"
 style="fill:none;stroke:#FF0000;stroke-width:1;stroke-miterlimit:4;stroke-dasharray:none;stroke-linejoin:round;stroke-linecap:round"
        d="M 3672.674777177755,3755.557930388148 M 3890.6747771777536,3755.557930388148 M 3890.6747771777545,3657.5579303882673 L 3672.6747771777545,3657.557930388268 L 3672.674777177755,3755.557930388148 M 3838.6747771777545,3696.557930388219 M 3838.674777177755,3676.557930388243 M 3841.674777177755,3676.557930388243 M 3841.6747771777555,3696.557930388219 M 3721.674777177755,3696.557930388219 M 3721.674777177755,3676.557930388243 M 3724.6747771777545,3676.557930388243 M 3724.6747771777545,3696.557930388219 M 3724.6747771777545,3736.55793038817 M 3721.6747771777545,3736.5579303881705 M 3721.6747771777555,3716.5579303881946 M 3724.6747771777545,3716.5579303881937 M 3841.6747771777545,3736.55793038817 M 3838.674777177754,3736.55793038817 M 3838.6747771777555,3716.5579303881946 M 3841.6747771777545,3716.5579303881937 "
  />
  <path id="face5-interior"
 style="fill:none;stroke:#FF0000;stroke-width:1;stroke-miterlimit:4;stroke-dasharray:none;stroke-linejoin:round;stroke-linecap:round"
        d="M 4267.248108857193,4189.424846718592 M 4267.2495541560775,4105.424984626095 L 3974.7602470786474,4105.425932311899 L 3974.758659107205,3289.4292169949204 M 3666.2481088571926,3289.424846719693 M 3667.248108857192,4189.424846718592 M 4255.4945672809035,4172.481933429963 M 4255.494567280896,4182.481933429953 M 4091.4945797268683,4182.481933429845 M 4091.494579726866,4185.481933429842 M 3991.4945797268674,4185.481933429775 M 3991.4945797268692,4182.481933429779 M 3891.4945797268692,4182.4819334297135 M 3891.4945797268665,4185.481933429709 M 3791.494579726867,4185.4819334296435 M 3791.494579726869,4182.481933429648 M 3678.4945672809095,4182.481933429575 M 3678.4945672809167,4172.48194152432 M 3675.4945672809176,4172.481941524316 M 3675.4945672809245,4162.481941524326 M 3678.494567280923,4162.481941524326 M 3678.494567280931,4152.481941524336 M 3675.49456728093,4152.4819415243355 M 3675.494567280937,4142.4819415243455 M 3678.4945672809363,4142.48194152435 M 3678.4945672809426,4132.481941524361 M 3675.494567280944,4132.481941524358 M 3675.4945672809504,4122.48193342963 M 4258.494567280948,4122.481933430014 M 4258.494567280942,4132.481933430006 M 4255.494567280928,4132.4819334300055 M 4255.494567280922,4142.481933429995 M 4258.494567280936,4142.4819334299955 M 4258.494567280929,4152.481933429985 M 4255.494567280916,4152.481933429981 M 4255.494567280909,4162.481933429972 M 4258.494567280922,4162.481933429974 M 4258.494567280916,4172.481933429965 M 3670.674777177759,3795.5579303880972 M 3670.6747771777527,3775.5579303881213 M 3667.674777177749,3775.5579303881204 M 3667.6747771777577,3755.557930388148 M 3672.674777177755,3755.557930388148 M 3672.6747771777545,3657.557930388268 M 3890.6747771777545,3657.5579303882673 M 3890.6747771777495,3655.5579303882714 M 3667.674777177753,3655.5579303882682 M 3667.6747771777536,3635.5579303882923 M 3670.6747771777527,3635.5579303882946 M 3670.6747771777505,3575.5579303883737 M 3667.6747771777514,3575.5579303883724 M 3667.6747771777545,3515.5579303884524 M 3670.6747771777586,3515.5579303884533 M 3670.6747771777564,3455.5579303885384 M 3670.6747771777564,3444.557930388549 M 3667.674777177755,3444.557930388549 M 3667.674777177748,3414.5579303885975 M 3670.6747771777527,3414.5579303885975 M 3670.6747771777545,3395.557930388622 M 3670.6747771777527,3374.5579303886543 M 3667.6747771777495,3374.557930388657 M 3667.6747771777495,3334.557930388716 M 3670.6747771777527,3334.557930388714 M 3670.6747771777505,3302.5579303887607 M 3700.6747771777555,3302.5579303887616 M 3700.674777177752,3305.5579303887594 M 3730.6747771777505,3305.5579303887566 M 3730.6747771777523,3302.5579303887635 M 3760.6747771777586,3302.5579303887635 M 3760.6747771777505,3305.5579303887585 M 3790.6747771777514,3305.557930388759 M 3790.674777177753,3302.5579303887644 M 3820.6747771777555,3302.5579303887625 M 3820.6747771777514,3305.5579303887575 M 3850.6747771777505,3305.557930388758 M 3850.674777177748,3302.5579303887603 M 3880.674777177754,3302.5579303887635 M 3880.674777177748,3305.557930388758 M 3910.674777177752,3305.557930388756 M 3910.6747771777545,3302.5579303887607 M 3940.6747771777436,3302.557930388764 M 3940.674777177749,3305.557930388758 M 3969.474777177745,3305.5579303887575 M 3969.474777177748,4105.557930387761 M 3940.674777177752,4105.557930387764 M 3940.674777177749,4108.557930387763 M 3910.6747771777505,4108.557930387762 M 3910.6747771777545,4105.557930387764 M 3880.674777177754,4105.557930387764 M 3880.674777177756,4108.557930387759 M 3850.6747771777573,4108.557930387763 M 3850.674777177757,4105.557930387764 M 3820.674777177755,4105.557930387764 M 3820.674777177751,4108.557930387764 M 3790.674777177763,4108.55793038776 M 3790.674777177756,4105.557930387767 M 3760.6747771777545,4105.557930387764 M 3760.674777177754,4108.557930387763 M 3730.6747771777545,4108.557930387763 M 3730.6747771777536,4105.557930387766 M 3700.674777177754,4105.557930387767 M 3700.6747771777555,4108.557930387763 M 3670.6747771777573,4108.557930387763 M 3670.6747771777555,4075.5579303877944 M 3667.6747771777573,4075.557930387796 M 3667.6747771777486,4035.5579303878367 M 3670.674777177758,4035.5579303878367 M 3670.674777177755,3997.057930387876 M 3667.6747771777545,3997.057930387876 M 3667.6747771777555,3967.057930387907 M 3670.6747771777555,3967.057930387906 M 3670.674777177755,3935.5579303879417 M 3667.6747771777596,3935.5579303879413 M 3667.6747771777564,3895.557930387986 M 3670.6747771777577,3895.557930387987 M 3670.674777177754,3835.557930388052 M 3667.6747771777536,3835.557930388054 M 3667.674777177753,3795.5579303881013 "
  />
  <path id="face6-interior"
 style="fill:none;stroke:#FF0000;stroke-width:1;stroke-miterlimit:4;stroke-dasharray:none;stroke-linejoin:round;stroke-linecap:round"
        d="M 4247.247078323893,3289.4296102774965 M 4195.847476002619,3289.427191399472 M 3974.758659107205,3289.4292169949204 M 3974.7602470786474,4105.425932311899 M 4267.2495541560775,4105.424984626095 M 4267.248108857192,3289.424846719693 M 4008.8196228689867,4100.425695901731 M 4008.8196482942603,4097.4247228695585 M 4042.881045566799,4097.424698150084 M 4042.8809131907287,4100.425059603083 M 4111.003845105866,4100.426940531606 M 4076.9424541297194,4100.426974323596 M 4076.9424795557125,4097.424759554663 M 4111.003877003649,4097.424736841625 M 4179.126675728884,4100.4282179291085 M 4145.065285390409,4100.428252753013 M 4145.065310817162,4097.424796248434 M 4179.126708494684,4097.424776145621 M 4247.249548459444,4097.42954954389 M 4247.250270989024,4100.433056141908 M 4213.188116651066,4100.429531189346 M 4213.188142078615,4097.424832950877 M 4042.8814474160836,3294.4257919361366 M 4042.8814837303817,3297.4247014428015 M 4008.8200500372764,3297.4247228707763 M 4008.8200236232,3294.4256603033705 M 4111.004278784048,3294.4270620728544 M 4111.0043131634975,3297.4247588830112 M 4076.9428812987258,3297.424759554692 M 4076.9428548839323,3294.4269387240465 M 4179.127109710064,3294.428337489127 M 4179.127143759526,3297.4248031419274 M 4145.065712560176,3297.4247962494296 M 4145.065686144625,3294.428217154436 M 4247.2499330360015,3294.429513950754 M 4247.2499168583445,3297.429513950665 M 4213.188543821629,3297.4248329549832 M 4213.188517405276,3294.4294955939054 "
  />
  <path id="face0-interior"
 style="fill:none;stroke:#00FF00;stroke-width:1;stroke-miterlimit:4;stroke-dasharray:none;stroke-linejoin:round;stroke-linecap:round"
        d="M 3670.6747771777527,3775.5579303881213 M 3670.674777177759,3795.5579303880972 M 3667.674777177753,3795.5579303881013 M 3667.6747771777536,3835.557930388054 M 3670.674777177754,3835.557930388052 M 3670.6747771777577,3895.557930387987 M 3667.6747771777564,3895.557930387986 M 3667.6747771777596,3935.5579303879413 M 3670.674777177755,3935.5579303879417 M 3670.6747771777555,3967.057930387906 M 3667.6747771777555,3967.057930387907 M 3667.6747771777545,3997.057930387876 M 3670.674777177755,3997.057930387876 M 3670.674777177758,4035.5579303878367 M 3667.6747771777486,4035.5579303878367 M 3667.6747771777573,4075.557930387796 M 3670.6747771777555,4075.5579303877944 M 3670.6747771777573,4108.557930387763 M 3700.6747771777555,4108.557930387763 M 3700.674777177754,4105.557930387767 M 3730.6747771777536,4105.557930387766 M 3730.6747771777545,4108.557930387763 M 3760.674777177754,4108.557930387763 M 3760.6747771777545,4105.557930387764 M 3790.674777177756,4105.557930387767 M 3790.674777177763,4108.55793038776 M 3820.674777177751,4108.557930387764 M 3820.674777177755,4105.557930387764 M 3850.674777177757,4105.557930387764 M 3850.6747771777573,4108.557930387763 M 3880.674777177756,4108.557930387759 M 3880.674777177754,4105.557930387764 M 3910.6747771777545,4105.557930387764 M 3910.6747771777505,4108.557930387762 M 3940.674777177749,4108.557930387763 M 3940.674777177752,4105.557930387764 M 3969.474777177748,4105.557930387761 M 3969.474777177745,3305.5579303887575 M 3940.674777177749,3305.557930388758 M 3940.6747771777436,3302.557930388764 M 3910.6747771777545,3302.5579303887607 M 3910.674777177752,3305.557930388756 M 3880.674777177748,3305.557930388758 M 3880.674777177754,3302.5579303887635 M 3850.674777177748,3302.5579303887603 M 3850.6747771777505,3305.557930388758 M 3820.6747771777514,3305.5579303887575 M 3820.6747771777555,3302.5579303887625 M 3790.674777177753,3302.5579303887644 M 3790.6747771777514,3305.557930388759 M 3760.6747771777505,3305.5579303887585 M 3760.6747771777586,3302.5579303887635 M 3730.6747771777523,3302.5579303887635 M 3730.6747771777505,3305.5579303887566 M 3700.674777177752,3305.5579303887594 M 3700.6747771777555,3302.5579303887616 M 3670.6747771777505,3302.5579303887607 M 3670.6747771777527,3334.557930388714 M 3667.6747771777495,3334.557930388716 M 3667.6747771777495,3374.557930388657 M 3670.6747771777527,3374.5579303886543 M 3670.6747771777545,3395.557930388622 M 3670.6747771777527,3414.5579303885975 M 3667.674777177748,3414.5579303885975 M 3667.674777177755,3444.557930388549 M 3670.6747771777564,3444.557930388549 M 3670.6747771777564,3455.5579303885384 M 3670.6747771777586,3515.5579303884533 M 3667.6747771777545,3515.5579303884524 M 3667.6747771777514,3575.5579303883724 M 3670.6747771777505,3575.5579303883737 M 3670.6747771777527,3635.5579303882946 M 3667.6747771777536,3635.5579303882923 M 3667.674777177753,3655.5579303882682 M 3890.6747771777495,3655.5579303882714 M 3890.6747771777545,3657.5579303882673 M 3890.6747771777536,3755.557930388148 M 3672.674777177755,3755.557930388148 M 3667.6747771777577,3755.557930388148 M 3667.674777177749,3775.5579303881204 M 3798.5097136682944,3641.6859612397216 M 3798.9070102247906,3641.168194286754 M 3799.424777177755,3640.7708977302577 M 3800.027729565003,3640.5211466739984 M 3800.6747771777555,3640.435961239719 M 3801.321824790513,3640.5211466739984 M 3801.9247771777555,3640.77089773026 M 3802.4425441307176,3641.168194286754 M 3802.8398406872175,3641.6859612397207 M 3803.0895917434777,3642.288913626964 M 3803.1747771777536,3642.9359612397175 M 3803.0895917434755,3643.583008852473 M 3802.8398406872184,3644.1859612397166 M 3802.442544130724,3644.7037281926837 M 3801.924777177757,3645.101024749175 M 3801.321824790513,3645.3507758054384 M 3800.6747771777577,3645.4359612397147 M 3800.027729565002,3645.3507758054384 M 3799.4247771777545,3645.101024749175 M 3798.907010224788,3644.703728192684 M 3798.5097136682934,3644.185961239716 M 3798.2599626120295,3643.5830088524744 M 3798.1747771777564,3642.9359612397175 M 3798.2599626120336,3642.2889136269637 M 3788.5097136682953,3644.185961239718 M 3788.2599626120336,3643.5830088524717 M 3788.1747771777536,3642.9359612397184 M 3788.2599626120304,3642.2889136269637 M 3788.509713668295,3641.6859612397216 M 3788.9070102247874,3641.1681942867554 M 3789.42477717775,3640.770897730263 M 3790.0277295649944,3640.5211466740006 M 3790.6747771777545,3640.4359612397225 M 3791.321824790511,3640.5211466739975 M 3791.9247771777545,3640.7708977302595 M 3792.44254413072,3641.1681942867544 M 3792.839840687215,3641.6859612397207 M 3793.08959174348,3642.2889136269614 M 3793.174777177756,3642.935961239716 M 3793.0895917434786,3643.5830088524717 M 3792.8398406872175,3644.185961239716 M 3792.4425441307185,3644.703728192683 M 3791.924777177759,3645.101024749178 M 3791.3218247905143,3645.350775805439 M 3790.6747771777577,3645.4359612397147 M 3790.027729564996,3645.3507758054407 M 3789.4247771777573,3645.101024749178 M 3788.907010224788,3644.7037281926864 M 3770.6747771777545,3529.5579303884333 M 3770.67477717775,3429.5579303885747 M 3780.6747771777555,3429.5579303885715 M 3790.674777177754,3429.5579303885715 M 3800.6747771777545,3429.5579303885715 M 3810.674777177755,3429.5579303885725 M 3820.6747771777545,3429.5579303885715 M 3830.6747771777536,3429.5579303885715 M 3840.674777177754,3429.5579303885715 M 3850.6747771777545,3429.5579303885715 M 3860.6747771777536,3429.5579303885715 M 3870.6747771777573,3429.5579303885715 M 3870.6747771777545,3432.5579303885675 M 3870.6747771777545,3526.557930388437 M 3870.6747771777573,3529.557930388434 M 3860.674777177754,3529.5579303884333 M 3850.6747771777536,3529.5579303884333 M 3840.6747771777536,3529.557930388433 M 3830.6747771777536,3529.557930388433 M 3820.6747771777545,3529.5579303884333 M 3810.674777177754,3529.5579303884333 M 3800.674777177754,3529.5579303884333 M 3790.674777177754,3529.5579303884333 M 3780.674777177754,3529.5579303884333 M 3730.621073258453,3805.5579303880904 M 3730.621073258448,3808.5579303880854 M 3710.6747771777586,3808.5579303880836 M 3710.6747771777573,3805.5579303880863 M 3830.6747771777577,3808.557930388085 M 3810.674777177753,3808.557930388084 M 3810.674777177753,3805.5579303880877 M 3830.674777177759,3805.5579303880863 M 3910.6747771777505,3808.5579303880813 M 3910.674777177753,3805.557930388089 M 3930.674777177746,3805.5579303880886 M 3930.674777177746,3808.557930388085 M 3876.6747771777564,3418.5579303885925 M 3876.6747771777527,3431.5579303885747 M 3873.674777177753,3431.557930388573 M 3873.6747771777523,3418.557930388593 M 3767.6747771777514,3418.557930388589 M 3767.6747771777527,3431.557930388571 M 3764.674777177752,3431.5579303885706 M 3764.6747771777523,3418.557930388588 M 3764.6747771777555,3980.057930387892 M 3767.674777177757,3980.057930387892 M 3767.6747771777555,3993.0579303878812 M 3764.674777177753,3993.0579303878785 M 3873.6747771777523,3993.057930387879 M 3873.674777177757,3980.057930387891 M 3876.674777177755,3980.057930387892 M 3876.6747771777536,3993.05793038788 M 3870.6747771777573,3982.0579303878894 M 3860.6747771777527,3982.057930387891 M 3850.6747771777514,3982.0579303878917 M 3840.6747771777514,3982.0579303878917 M 3830.674777177752,3982.057930387891 M 3820.6747771777527,3982.0579303878917 M 3810.6747771777523,3982.057930387891 M 3800.6747771777523,3982.0579303878917 M 3790.6747771777527,3982.0579303878917 M 3780.6747771777523,3982.057930387891 M 3770.674777177752,3982.0579303878903 M 3770.6747771777527,3882.057930387999 M 3780.6747771777527,3882.057930387999 M 3790.6747771777527,3882.0579303879995 M 3800.674777177752,3882.057930387999 M 3810.674777177753,3882.057930387999 M 3820.674777177752,3882.0579303879995 M 3830.674777177752,3882.057930387999 M 3840.6747771777523,3882.057930387999 M 3850.674777177752,3882.057930387999 M 3860.674777177752,3882.057930387999 M 3870.6747771777586,3882.057930388001 M 3870.6747771777523,3885.057930387996 M 3870.6747771777523,3979.0579303878944 M 3903.674777177751,3766.5579303881354 M 3900.674777177754,3766.557930388134 M 3900.6747771777564,3753.557930388151 M 3903.6747771777536,3753.5579303881495 "
  />
  <path id="face1-interior"
 style="fill:none;stroke:#00FF00;stroke-width:1;stroke-miterlimit:4;stroke-dasharray:none;stroke-linejoin:round;stroke-linecap:round"
        d="M 4255.494567280896,4182.481933429953 M 4255.4945672809035,4172.481933429963 M 4258.494567280916,4172.481933429965 M 4258.494567280922,4162.481933429974 M 4255.494567280909,4162.481933429972 M 4255.494567280916,4152.481933429981 M 4258.494567280929,4152.481933429985 M 4258.494567280936,4142.4819334299955 M 4255.494567280922,4142.481933429995 M 4255.494567280928,4132.4819334300055 M 4258.494567280942,4132.481933430006 M 4258.494567280948,4122.481933430014 M 3675.4945672809504,4122.48193342963 M 3675.494567280944,4132.481941524358 M 3678.4945672809426,4132.481941524361 M 3678.4945672809363,4142.48194152435 M 3675.494567280937,4142.4819415243455 M 3675.49456728093,4152.4819415243355 M 3678.494567280931,4152.481941524336 M 3678.494567280923,4162.481941524326 M 3675.4945672809245,4162.481941524326 M 3675.4945672809176,4172.481941524316 M 3678.4945672809167,4172.48194152432 M 3678.4945672809095,4182.481933429575 M 3791.494579726869,4182.481933429648 M 3791.494579726867,4185.4819334296435 M 3891.4945797268665,4185.481933429709 M 3891.4945797268692,4182.4819334297135 M 3991.4945797268692,4182.481933429779 M 3991.4945797268674,4185.481933429775 M 4091.494579726866,4185.481933429842 M 4091.4945797268683,4182.481933429845 "
  />
  <path id="face2-interior"
 style="fill:none;stroke:#00FF00;stroke-width:1;stroke-miterlimit:4;stroke-dasharray:none;stroke-linejoin:round;stroke-linecap:round"
        d="M 3770.6747771777545,3529.5579303884333 M 3780.674777177754,3529.5579303884333 M 3780.674777177755,3526.557930388438 M 3790.674777177754,3526.557930388437 M 3790.674777177754,3529.5579303884333 M 3800.674777177754,3529.5579303884333 M 3800.674777177754,3526.557930388438 M 3810.6747771777545,3526.557930388438 M 3810.674777177754,3529.5579303884333 M 3820.6747771777545,3529.5579303884333 M 3820.6747771777545,3526.557930388437 M 3830.6747771777545,3526.557930388438 M 3830.6747771777536,3529.557930388433 M 3840.6747771777536,3529.557930388433 M 3840.6747771777536,3526.557930388437 M 3850.6747771777536,3526.557930388438 M 3850.6747771777536,3529.5579303884333 M 3860.674777177754,3529.5579303884333 M 3860.6747771777545,3526.557930388438 M 3870.6747771777545,3526.557930388437 M 3870.6747771777545,3432.5579303885675 M 3860.6747771777527,3432.5579303885675 M 3860.6747771777536,3429.5579303885715 M 3850.6747771777545,3429.5579303885715 M 3850.6747771777536,3432.5579303885675 M 3840.6747771777536,3432.5579303885675 M 3840.674777177754,3429.5579303885715 M 3830.6747771777536,3429.5579303885715 M 3830.6747771777527,3432.5579303885675 M 3820.674777177753,3432.5579303885675 M 3820.6747771777545,3429.5579303885715 M 3810.674777177755,3429.5579303885725 M 3810.6747771777545,3432.557930388568 M 3800.674777177754,3432.557930388568 M 3800.6747771777545,3429.5579303885715 M 3790.674777177754,3429.5579303885715 M 3790.6747771777536,3432.5579303885675 M 3780.674777177755,3432.5579303885675 M 3780.6747771777555,3429.5579303885715 M 3770.67477717775,3429.5579303885747 "
  />
  <path id="face3-interior"
 style="fill:none;stroke:#00FF00;stroke-width:1;stroke-miterlimit:4;stroke-dasharray:none;stroke-linejoin:round;stroke-linecap:round"
        d="M 3770.674777177752,3982.0579303878903 M 3780.6747771777523,3982.057930387891 M 3780.6747771777523,3979.057930387894 M 3790.674777177752,3979.0579303878944 M 3790.6747771777527,3982.0579303878917 M 3800.6747771777523,3982.0579303878917 M 3800.6747771777523,3979.0579303878944 M 3810.674777177752,3979.0579303878944 M 3810.6747771777523,3982.057930387891 M 3820.6747771777527,3982.0579303878917 M 3820.6747771777527,3979.0579303878953 M 3830.6747771777527,3979.0579303878944 M 3830.674777177752,3982.057930387891 M 3840.6747771777514,3982.0579303878917 M 3840.674777177752,3979.0579303878944 M 3850.6747771777514,3979.0579303878944 M 3850.6747771777514,3982.0579303878917 M 3860.6747771777527,3982.057930387891 M 3860.6747771777523,3979.0579303878953 M 3870.6747771777523,3979.0579303878944 M 3870.6747771777523,3885.057930387996 M 3860.6747771777505,3885.0579303879954 M 3860.674777177752,3882.057930387999 M 3850.674777177752,3882.057930387999 M 3850.6747771777514,3885.057930387996 M 3840.6747771777514,3885.0579303879954 M 3840.6747771777523,3882.057930387999 M 3830.674777177752,3882.057930387999 M 3830.674777177751,3885.0579303879954 M 3820.674777177751,3885.057930387996 M 3820.674777177752,3882.0579303879995 M 3810.674777177753,3882.057930387999 M 3810.674777177752,3885.057930387996 M 3800.6747771777514,3885.0579303879954 M 3800.674777177752,3882.057930387999 M 3790.6747771777527,3882.0579303879995 M 3790.674777177752,3885.057930387996 M 3780.6747771777527,3885.0579303879954 M 3780.6747771777527,3882.057930387999 M 3770.6747771777527,3882.057930387999 "
  />
  <path id="face4-interior"
 style="fill:none;stroke:#00FF00;stroke-width:1;stroke-miterlimit:4;stroke-dasharray:none;stroke-linejoin:round;stroke-linecap:round"
        d="M 3672.674777177755,3755.557930388148 M 3890.6747771777536,3755.557930388148 M 3890.6747771777545,3657.5579303882673 M 3672.6747771777545,3657.557930388268 M 3838.6747771777545,3696.557930388219 M 3838.674777177755,3676.557930388243 M 3841.674777177755,3676.557930388243 M 3841.6747771777555,3696.557930388219 M 3721.674777177755,3696.557930388219 M 3721.674777177755,3676.557930388243 M 3724.6747771777545,3676.557930388243 M 3724.6747771777545,3696.557930388219 M 3724.6747771777545,3736.55793038817 M 3721.6747771777545,3736.5579303881705 M 3721.6747771777555,3716.5579303881946 M 3724.6747771777545,3716.5579303881937 M 3841.6747771777545,3736.55793038817 M 3838.674777177754,3736.55793038817 M 3838.6747771777555,3716.5579303881946 M 3841.6747771777545,3716.5579303881937 "
  />
  <path id="face5-interior"
 style="fill:none;stroke:#00FF00;stroke-width:1;stroke-miterlimit:4;stroke-dasharray:none;stroke-linejoin:round;stroke-linecap:round"
        d="M 4267.248108857193,4189.424846718592 M 4267.2495541560775,4105.424984626095 M 3974.7602470786474,4105.425932311899 M 3974.758659107205,3289.4292169949204 M 3666.2481088571926,3289.424846719693 M 3667.248108857192,4189.424846718592 M 4255.4945672809035,4172.481933429963 M 4255.494567280896,4182.481933429953 M 4091.4945797268683,4182.481933429845 M 4091.494579726866,4185.481933429842 M 3991.4945797268674,4185.481933429775 M 3991.4945797268692,4182.481933429779 M 3891.4945797268692,4182.4819334297135 M 3891.4945797268665,4185.481933429709 M 3791.494579726867,4185.4819334296435 M 3791.494579726869,4182.481933429648 M 3678.4945672809095,4182.481933429575 M 3678.4945672809167,4172.48194152432 M 3675.4945672809176,4172.481941524316 M 3675.4945672809245,4162.481941524326 M 3678.494567280923,4162.481941524326 M 3678.494567280931,4152.481941524336 M 3675.49456728093,4152.4819415243355 M 3675.494567280937,4142.4819415243455 M 3678.4945672809363,4142.48194152435 M 3678.4945672809426,4132.481941524361 M 3675.494567280944,4132.481941524358 M 3675.4945672809504,4122.48193342963 M 4258.494567280948,4122.481933430014 M 4258.494567280942,4132.481933430006 M 4255.494567280928,4132.4819334300055 M 4255.494567280922,4142.481933429995 M 4258.494567280936,4142.4819334299955 M 4258.494567280929,4152.481933429985 M 4255.494567280916,4152.481933429981 M 4255.494567280909,4162.481933429972 M 4258.494567280922,4162.481933429974 M 4258.494567280916,4172.481933429965 M 3670.674777177759,3795.5579303880972 M 3670.6747771777527,3775.5579303881213 M 3667.674777177749,3775.5579303881204 M 3667.6747771777577,3755.557930388148 M 3672.674777177755,3755.557930388148 M 3672.6747771777545,3657.557930388268 M 3890.6747771777545,3657.5579303882673 M 3890.6747771777495,3655.5579303882714 M 3667.674777177753,3655.5579303882682 M 3667.6747771777536,3635.5579303882923 M 3670.6747771777527,3635.5579303882946 M 3670.6747771777505,3575.5579303883737 M 3667.6747771777514,3575.5579303883724 M 3667.6747771777545,3515.5579303884524 M 3670.6747771777586,3515.5579303884533 M 3670.6747771777564,3455.5579303885384 M 3670.6747771777564,3444.557930388549 M 3667.674777177755,3444.557930388549 M 3667.674777177748,3414.5579303885975 M 3670.6747771777527,3414.5579303885975 M 3670.6747771777545,3395.557930388622 M 3670.6747771777527,3374.5579303886543 M 3667.6747771777495,3374.557930388657 M 3667.6747771777495,3334.557930388716 M 3670.6747771777527,3334.557930388714 M 3670.6747771777505,3302.5579303887607 M 3700.6747771777555,3302.5579303887616 M 3700.674777177752,3305.5579303887594 M 3730.6747771777505,3305.5579303887566 M 3730.6747771777523,3302.5579303887635 M 3760.6747771777586,3302.5579303887635 M 3760.6747771777505,3305.5579303887585 M 3790.6747771777514,3305.557930388759 M 3790.674777177753,3302.5579303887644 M 3820.6747771777555,3302.5579303887625 M 3820.6747771777514,3305.5579303887575 M 3850.6747771777505,3305.557930388758 M 3850.674777177748,3302.5579303887603 M 3880.674777177754,3302.5579303887635 M 3880.674777177748,3305.557930388758 M 3910.674777177752,3305.557930388756 M 3910.6747771777545,3302.5579303887607 M 3940.6747771777436,3302.557930388764 M 3940.674777177749,3305.557930388758 M 3969.474777177745,3305.5579303887575 M 3969.474777177748,4105.557930387761 M 3940.674777177752,4105.557930387764 M 3940.674777177749,4108.557930387763 M 3910.6747771777505,4108.557930387762 M 3910.6747771777545,4105.557930387764 M 3880.674777177754,4105.557930387764 M 3880.674777177756,4108.557930387759 M 3850.6747771777573,4108.557930387763 M 3850.674777177757,4105.557930387764 M 3820.674777177755,4105.557930387764 M 3820.674777177751,4108.557930387764 M 3790.674777177763,4108.55793038776 M 3790.674777177756,4105.557930387767 M 3760.6747771777545,4105.557930387764 M 3760.674777177754,4108.557930387763 M 3730.6747771777545,4108.557930387763 M 3730.6747771777536,4105.557930387766 M 3700.674777177754,4105.557930387767 M 3700.6747771777555,4108.557930387763 M 3670.6747771777573,4108.557930387763 M 3670.6747771777555,4075.5579303877944 M 3667.6747771777573,4075.557930387796 M 3667.6747771777486,4035.5579303878367 M 3670.674777177758,4035.5579303878367 M 3670.674777177755,3997.057930387876 M 3667.6747771777545,3997.057930387876 M 3667.6747771777555,3967.057930387907 M 3670.6747771777555,3967.057930387906 M 3670.674777177755,3935.5579303879417 M 3667.6747771777596,3935.5579303879413 M 3667.6747771777564,3895.557930387986 M 3670.6747771777577,3895.557930387987 M 3670.674777177754,3835.557930388052 M 3667.6747771777536,3835.557930388054 M 3667.674777177753,3795.5579303881013 "
  />
  <path id="face6-interior"
 style="fill:none;stroke:#00FF00;stroke-width:1;stroke-miterlimit:4;stroke-dasharray:none;stroke-linejoin:round;stroke-linecap:round"
        d="M 4247.247078323893,3289.4296102774965 M 4195.847476002619,3289.427191399472 M 3974.758659107205,3289.4292169949204 M 3974.7602470786474,4105.425932311899 M 4267.2495541560775,4105.424984626095 M 4267.248108857192,3289.424846719693 M 4008.8196228689867,4100.425695901731 M 4008.8196482942603,4097.4247228695585 M 4042.881045566799,4097.424698150084 M 4042.8809131907287,4100.425059603083 M 4111.003845105866,4100.426940531606 M 4076.9424541297194,4100.426974323596 M 4076.9424795557125,4097.424759554663 M 4111.003877003649,4097.424736841625 M 4179.126675728884,4100.4282179291085 M 4145.065285390409,4100.428252753013 M 4145.065310817162,4097.424796248434 M 4179.126708494684,4097.424776145621 M 4247.249548459444,4097.42954954389 M 4247.250270989024,4100.433056141908 M 4213.188116651066,4100.429531189346 M 4213.188142078615,4097.424832950877 M 4042.8814474160836,3294.4257919361366 M 4042.8814837303817,3297.4247014428015 M 4008.8200500372764,3297.4247228707763 M 4008.8200236232,3294.4256603033705 M 4111.004278784048,3294.4270620728544 M 4111.0043131634975,3297.4247588830112 M 4076.9428812987258,3297.424759554692 M 4076.9428548839323,3294.4269387240465 M 4179.127109710064,3294.428337489127 M 4179.127143759526,3297.4248031419274 M 4145.065712560176,3297.4247962494296 M 4145.065686144625,3294.428217154436 M 4247.2499330360015,3294.429513950754 M 4247.2499168583445,3297.429513950665 M 4213.188543821629,3297.4248329549832 M 4213.188517405276,3294.4294955939054 "
  />
</svg>
