<?xml version="1.0" standalone="no"?>
<!DOCTYPE svg PUBLIC "-//W3C//DTD SVG 1.1//EN" "http://www.w3.org/Graphics/SVG/1.1/DTD/svg11.dtd">
<svg width="6719.347910290611mm" height="920.0000000000582mm"
 viewBox="0 0 6719.347910290611 920.0000000000582"
 xmlns="http://www.w3.org/2000/svg" version="1.1"
 xmlns:xlink="http://www.w3.org/1999/xlink">
<desc>Output from Flights of Ideas SVG Sketchup Plugin</desc>

  <path id="face0-cut"
 style="fill:none;stroke:#0000FF;stroke-width:1;stroke-miterlimit:4;stroke-dasharray:none;stroke-linejoin:round;stroke-linecap:round"
        d="M 6709.3464650058695,909.9999999934989 L 6709.347910290611,826.000137880274 M 6416.85860328677,826.001085717271 M 6416.857015311292,10.00437045462877 L 6109.346465007379,10.000000009451924 L 6109.346465007386,16.912109384164523 M 6138.146465006688,16.91191219311213 M 6138.146444465975,13.911912193232638 M 6168.146444465236,13.91170678588287 M 6168.146465005944,16.911706785767365 M 6198.146465005221,16.911501378418507 M 6198.146444464512,13.911501378538105 M 6228.146444463764,13.91129597119425 M 6228.146465004487,16.91129597107647 M 6258.14646500376,16.91109056373398 M 6258.146444463042,13.91109056384812 M 6288.146444462309,13.910885156505628 M 6288.146465003018,16.910885156392396 M 6318.146465002284,16.910679749052633 M 6318.146444461576,13.910679749164501 M 6348.1464444608355,13.910474341827012 M 6348.146465001556,16.910474341712415 M 6378.14646500081,16.910268934373107 M 6378.146444460102,13.910268934486794 M 6408.146444459369,13.910063527148395 M 6408.146465000082,16.91006352703471 M 6408.146807345264,66.91006352516933 M 6411.146807345185,66.91004298443886 M 6411.14749203555,166.9100429808177 M 6408.147492035629,166.91006352155318 M 6408.148176725996,266.9100635180521 M 6411.1481767259265,266.91004297732115 M 6411.14886141629,366.91004297392783 M 6408.1488614163645,366.91006351465785 M 6408.149546106732,466.91006351135456 M 6411.149546106653,466.9100429706241 M 6411.150230797031,566.9100429674018 M 6408.150230797097,566.9100635081336 M 6408.150915487473,666.9100635049758 M 6411.150915487384,666.9100429642513 M 6411.151600177756,766.9100429611635 M 6408.151600177835,766.9100635018908 M 6408.151942523014,816.9100635003642 M 6408.151963063737,819.9100635002751 M 6378.151963064451,819.9102689075439 M 6378.1519425237475,816.910268907633 M 6348.151942524497,816.9104743149051 M 6348.151963065204,819.9104743148082 M 6318.151963065928,819.9106797220852 M 6318.151942525226,816.9106797221739 M 6288.151942525945,816.9108851294504 M 6288.151963066668,819.9108851293545 M 6258.151963067402,819.9110905366256 M 6258.1519425267,816.9110905367152 M 6228.151942527424,816.9112959439894 M 6228.151963068134,819.9112959438976 M 6198.151963068862,819.9115013511719 M 6198.1519425281585,816.9115013512633 M 6168.151942528882,816.9117067585385 M 6168.151963069598,819.9117067584457 M 6138.1519630703315,819.9119121657172 M 6138.151942529617,816.9119121658105 M 6109.351942530313,816.9121093567956 L 6109.346465008346,910.0000000000582 L 6709.3464650058695,909.9999999934989 M 6138.863274707865,852.0283214629949 M 6134.363274707882,852.0283214630485 M 6133.198589004926,851.874987681364 M 6132.113274707891,851.4254357801105 M 6131.181294192555,850.7103019784358 M 6130.466160390866,849.7783214631118 M 6130.016608489596,848.6930071660863 M 6129.863274707896,847.5283214631345 M 6130.016608489594,846.3636357601808 M 6130.466160390861,845.2783214631436 M 6131.181294192548,844.3463409478031 M 6132.113274707883,843.6312071461052 M 6133.198589004916,843.1816552448254 M 6134.363274707873,843.0283214631131 M 6158.863274707772,843.0283214628207 M 6158.863274707768,840.0283214628412 M 6178.863274707686,840.0283214626033 M 6178.86327470769,843.0283214625824 M 6198.863274707607,843.0283214623464 M 6198.8632747076035,840.0283214623669 M 6218.863274707521,840.0283214621336 M 6218.863274707524,843.0283214621127 M 6238.863274707441,843.0283214618794 M 6238.863274707446,848.0283214618453 M 6138.863274707859,848.0283214630235 M 6140.672978871237,837.4099727615603 M 6136.1729788712555,837.4099727616122 M 6135.008293168299,837.2566389799294 M 6133.922978871264,836.8070870786755 M 6132.990998355928,836.0919532769994 M 6132.27586455424,835.1599727616772 M 6131.826312652969,834.0746584646522 M 6131.672978871269,832.9099727617013 M 6131.826312652967,831.7452870587449 M 6132.2758645542335,830.6599727617104 M 6132.990998355921,829.7279922463676 M 6133.9229788712555,829.012858444672 M 6135.00829316829,828.5633065433908 M 6136.172978871246,828.4099727616785 M 6160.672978871145,828.4099727613861 M 6160.672978871142,825.4099727614062 M 6180.67297887106,825.4099727611688 M 6180.672978871064,828.4099727611451 M 6200.67297887098,828.4099727609082 M 6200.672978870976,825.4099727609291 M 6220.6729788708935,825.4099727606945 M 6220.672978870897,828.4099727606731 M 6240.672978870814,828.4099727604375 M 6240.67297887082,833.409972760403 M 6140.672978871233,833.4099727615885 M 6385.4721787134395,899.9271360008042 M 6385.318844931742,901.0918217037602 M 6384.869293030475,902.1771360007979 M 6384.154159228788,903.1091165161397 M 6383.222178713453,903.8242503178362 M 6382.1368644164195,904.2738022191165 M 6380.972178713463,904.4271360008261 M 6273.472178713905,904.4271360020261 M 6273.472178713897,895.427136002083 M 6380.972178713453,895.4271360008802 M 6382.1368644164095,895.5804697825656 M 6383.222178713443,896.0300216838241 M 6384.154159228781,896.7451554854965 M 6384.86929303047,897.6771360008247 M 6385.318844931739,898.762450297852 M 6239.567413063196,882.9728041714939 M 6239.414079281496,884.1374898744498 M 6238.96452738023,885.222804171487 M 6238.249393578542,886.1547846868284 M 6237.317413063209,886.8699184885245 M 6236.232098766175,887.3194703898052 M 6235.067413063219,887.4728041715161 M 6127.56741306366,887.472804172769 M 6127.567413063653,878.4728041728326 M 6235.067413063208,878.4728041715771 M 6236.232098766164,878.6261379532611 M 6237.317413063199,879.0756898545151 M 6238.249393578537,879.7908236561884 M 6238.964527380225,880.7228041715161 M 6239.414079281494,881.8081184685425 M 6241.564151796383,858.0721444920164 M 6241.410818014685,859.2368301949723 M 6240.961266113418,860.3221444920086 M 6240.24613231173,861.25412500735 M 6239.314151796396,861.9692588090456 M 6238.228837499362,862.4188107103269 M 6237.064151796406,862.5721444920387 M 6129.564151796849,862.572144493302 M 6129.56415179684,853.5721444933661 M 6237.064151796396,853.5721444920996 M 6238.228837499352,853.7254782737823 M 6239.314151796386,854.1750301750399 M 6240.246132311724,854.8901639767123 M 6240.961266113412,855.8221444920387 M 6241.410818014683,856.9074587890636 M 6255.832667930671,869.2272335216553 M 6395.8326679300935,869.2272335200751 M 6395.832667930097,872.2272335200573 M 6398.832667930087,872.2272335200241 M 6398.83266793009,875.2272335200073 M 6395.832667930101,875.22723352004 M 6395.832667930103,878.227233520021 M 6255.832667930681,878.2272335215976 M 6255.832667930677,875.2272335216171 M 6252.83266793069,875.2272335216503 M 6252.832667930688,872.2272335216712 M 6255.832667930674,872.2272335216367 M 6256.290941064277,824.2055746341566 M 6396.2909410637,824.2055746325527 M 6396.290941063703,827.2055746325345 M 6399.290941063689,827.2055746325013 M 6399.290941063693,830.2055746324818 M 6396.290941063707,830.205574632515 M 6396.290941063709,833.2055746324972 M 6256.290941064286,833.205574634097 M 6256.290941064283,830.2055746341148 M 6253.290941064294,830.2055746341512 M 6253.2909410642915,827.2055746341721 M 6256.290941064279,827.2055746341371 M 6257.79049425005,840.9502438231439 M 6257.790494250045,837.9502438231661 M 6397.790494249468,837.9502438215686 M 6397.7904942494715,840.9502438215495 M 6400.790494249459,840.9502438215163 M 6400.790494249465,846.950243821479 M 6397.790494249478,846.9502438215131 M 6397.790494249484,852.9502438214763 M 6257.790494250063,852.9502438230638 M 6257.790494250055,846.9502438231038 M 6254.790494250068,846.9502438231389 M 6254.790494250061,840.9502438231789 M 6256.310303795214,882.9090702311546 M 6396.310303794637,882.9090702295825 M 6396.3103037946385,885.9090702295653 M 6399.310303794628,885.9090702295312 M 6399.310303794632,888.9090702295134 M 6396.310303794642,888.9090702295466 M 6396.310303794646,891.9090702295284 M 6256.310303795223,891.9090702310973 M 6256.31030379522,888.9090702311164 M 6253.310303795233,888.9090702311514 M 6253.31030379523,885.9090702311714 M 6256.310303795217,885.9090702311355 M 6560.29493773149,873.8283649792243 M 6700.294937730914,873.8283649777759 M 6700.294937730922,881.8283649777345 M 6703.2949377309105,881.8283649777036 M 6703.2949377309305,901.8283649776067 M 6700.294937730945,901.8283649776354 M 6700.29493773095,906.8283649776126 M 6560.294937731525,906.8283649790451 M 6560.294937731521,901.8283649790706 M 6557.2949377315335,901.8283649791024 M 6557.294937731513,881.8283649792093 M 6560.294937731499,881.828364979177 M 6241.805352676929,870.8004042789257 M 6241.65201889523,871.9650899818816 M 6241.202466993964,873.050404278918 M 6240.487333192275,873.9823847942603 M 6239.555352676942,874.697518595955 M 6238.470038379908,875.1470704972371 M 6237.305352676951,875.300404278948 M 6129.805352677394,875.3004042802054 M 6129.805352677386,866.3004042802681 M 6237.305352676942,866.300404279009 M 6238.470038379897,866.4537380606935 M 6239.555352676931,866.9032899619488 M 6240.487333192269,867.6184237636216 M 6241.202466993958,868.550404278948 M 6241.652018895228,869.6357185759721 M 6560.8680443126705,834.2551102429793 M 6700.868044312094,834.2551102415141 M 6700.868044312103,842.2551102414732 M 6703.868044312089,842.2551102414413 M 6703.868044312112,862.2551102413413 M 6700.868044312123,862.255110241374 M 6700.868044312128,867.255110241349 M 6560.868044312705,867.2551102428001 M 6560.8680443127,862.2551102428265 M 6557.868044312712,862.2551102428574 M 6557.8680443126905,842.2551102429675 M 6560.868044312678,842.2551102429356 M 6402.461587837565,869.4724333045215 M 6554.46158783694,869.4724333028771 M 6554.461587836975,902.4724333026998 M 6551.461587836989,902.4724333027298 M 6551.461587836973,887.4724333028103 M 6548.461587836986,887.4724333028421 M 6548.461587837004,905.4724333027457 M 6408.461587837581,905.4724333042413 M 6408.461587837559,887.4724333043587 M 6405.461587837572,887.4724333043914 M 6405.461587837588,902.4724333042923 M 6402.461587837599,902.4724333043264 M 6257.550132554,856.1278912431922 M 6397.550132553421,856.127891241606 M 6397.550132553425,859.1278912415873 M 6400.550132553415,859.1278912415546 M 6400.550132553419,862.1278912415355 M 6397.550132553428,862.1278912415701 M 6397.5501325534315,865.1278912415519 M 6257.55013255401,865.127891243133 M 6257.550132554006,862.127891243154 M 6254.550132554017,862.1278912431881 M 6254.550132554015,859.1278912432067 M 6257.550132554003,859.1278912431735 M 6410.583812992101,833.4781226040377 M 6550.583812991525,833.4781226025061 M 6550.583812991533,841.4781226024625 M 6553.583812991521,841.4781226024293 M 6553.583812991541,861.4781226023183 M 6550.583812991555,861.478122602351 M 6550.58381299156,866.4781226023224 M 6410.583812992136,866.4781226038385 M 6410.583812992131,861.4781226038676 M 6407.583812992145,861.4781226038999 M 6407.583812992123,841.4781226040236 M 6410.58381299211,841.478122603989 "
  />
  <path id="face1-cut"
 style="fill:none;stroke:#0000FF;stroke-width:1;stroke-miterlimit:4;stroke-dasharray:none;stroke-linejoin:round;stroke-linecap:round"
        d="M 6134.363274707882,852.0283214630485 M 6138.863274707865,852.0283214629949 M 6138.863274707859,848.0283214630235 M 6238.863274707446,848.0283214618453 M 6238.863274707441,843.0283214618794 M 6218.863274707524,843.0283214621127 M 6218.863274707521,840.0283214621336 M 6198.8632747076035,840.0283214623669 M 6198.863274707607,843.0283214623464 M 6178.86327470769,843.0283214625824 M 6178.863274707686,840.0283214626033 M 6158.863274707768,840.0283214628412 M 6158.863274707772,843.0283214628207 M 6134.363274707873,843.0283214631131 M 6133.198589004916,843.1816552448254 M 6132.113274707883,843.6312071461052 M 6131.181294192548,844.3463409478031 M 6130.466160390861,845.2783214631436 M 6130.016608489594,846.3636357601808 M 6129.863274707896,847.5283214631345 M 6130.016608489596,848.6930071660863 M 6130.466160390866,849.7783214631118 M 6131.181294192555,850.7103019784358 M 6132.113274707891,851.4254357801105 M 6133.198589004926,851.874987681364 M 6132.8632747078855,849.0283214630881 L 6132.863274707882,846.028321463109 L 6135.86327470787,846.0283214630726 L 6135.863274707874,849.0283214630513 L 6132.8632747078855,849.0283214630881 "
  />
  <path id="face2-cut"
 style="fill:none;stroke:#0000FF;stroke-width:1;stroke-miterlimit:4;stroke-dasharray:none;stroke-linejoin:round;stroke-linecap:round"
        d="M 6395.8326679300935,869.2272335200751 M 6255.832667930671,869.2272335216553 M 6255.832667930674,872.2272335216367 M 6252.832667930688,872.2272335216712 M 6252.83266793069,875.2272335216503 M 6255.832667930677,875.2272335216171 M 6255.832667930681,878.2272335215976 M 6395.832667930103,878.227233520021 M 6395.832667930101,875.22723352004 M 6398.83266793009,875.2272335200073 M 6398.832667930087,872.2272335200241 M 6395.832667930097,872.2272335200573 "
  />
  <path id="face3-cut"
 style="fill:none;stroke:#0000FF;stroke-width:1;stroke-miterlimit:4;stroke-dasharray:none;stroke-linejoin:round;stroke-linecap:round"
        d="M 6257.790494250045,837.9502438231661 M 6257.79049425005,840.9502438231439 M 6254.790494250061,840.9502438231789 M 6254.790494250068,846.9502438231389 M 6257.790494250055,846.9502438231038 M 6257.790494250063,852.9502438230638 M 6397.790494249484,852.9502438214763 M 6397.790494249478,846.9502438215131 M 6400.790494249465,846.950243821479 M 6400.790494249459,840.9502438215163 M 6397.7904942494715,840.9502438215495 M 6397.790494249468,837.9502438215686 "
  />
  <path id="face4-cut"
 style="fill:none;stroke:#0000FF;stroke-width:1;stroke-miterlimit:4;stroke-dasharray:none;stroke-linejoin:round;stroke-linecap:round"
        d="M 6396.310303794637,882.9090702295825 M 6256.310303795214,882.9090702311546 M 6256.310303795217,885.9090702311355 M 6253.31030379523,885.9090702311714 M 6253.310303795233,888.9090702311514 M 6256.31030379522,888.9090702311164 M 6256.310303795223,891.9090702310973 M 6396.310303794646,891.9090702295284 M 6396.310303794642,888.9090702295466 M 6399.310303794632,888.9090702295134 M 6399.310303794628,885.9090702295312 M 6396.3103037946385,885.9090702295653 "
  />
  <path id="face5-cut"
 style="fill:none;stroke:#0000FF;stroke-width:1;stroke-miterlimit:4;stroke-dasharray:none;stroke-linejoin:round;stroke-linecap:round"
        d="M 6241.65201889523,871.9650899818816 M 6241.805352676929,870.8004042789257 M 6241.652018895228,869.6357185759721 M 6241.202466993958,868.550404278948 M 6240.487333192269,867.6184237636216 M 6239.555352676931,866.9032899619488 M 6238.470038379897,866.4537380606935 M 6237.305352676942,866.300404279009 M 6129.805352677386,866.3004042802681 M 6129.805352677394,875.3004042802054 M 6237.305352676951,875.300404278948 M 6238.470038379908,875.1470704972371 M 6239.555352676942,874.697518595955 M 6240.487333192275,873.9823847942603 M 6241.202466993964,873.050404278918 M 6238.805352676942,872.3004042789485 L 6235.8053526769545,872.3004042789853 L 6235.805352676952,869.3004042790039 L 6238.805352676938,869.3004042789703 L 6238.805352676942,872.3004042789485 M 6192.805352677132,872.3004042794855 L 6192.805352677129,869.3004042795051 L 6202.805352677086,869.3004042793882 L 6202.805352677091,872.3004042793664 L 6192.805352677132,872.3004042794855 M 6222.8053526770045,869.3004042791558 L 6222.805352677009,872.3004042791363 L 6212.805352677049,872.3004042792504 L 6212.805352677045,869.3004042792718 L 6222.8053526770045,869.3004042791558 M 6182.8053526771755,872.3004042795992 L 6172.805352677215,872.3004042797184 L 6172.805352677211,869.3004042797388 L 6182.80535267717,869.3004042796229 L 6182.8053526771755,872.3004042795992 M 6162.805352677252,869.3004042798566 L 6162.8053526772555,872.300404279838 L 6152.8053526772965,872.3004042799548 L 6152.805352677295,869.3004042799744 L 6162.805352677252,869.3004042798566 M 6142.805352677335,869.3004042800926 L 6142.805352677338,872.3004042800717 L 6132.805352677379,872.3004042801927 L 6132.805352677377,869.3004042802113 L 6142.805352677335,869.3004042800926 "
  />
  <path id="face6-cut"
 style="fill:none;stroke:#0000FF;stroke-width:1;stroke-miterlimit:4;stroke-dasharray:none;stroke-linejoin:round;stroke-linecap:round"
        d="M 6700.868044312094,834.2551102415141 M 6560.8680443126705,834.2551102429793 M 6560.868044312678,842.2551102429356 M 6557.8680443126905,842.2551102429675 M 6557.868044312712,862.2551102428574 M 6560.8680443127,862.2551102428265 M 6560.868044312705,867.2551102428001 M 6700.868044312128,867.255110241349 M 6700.868044312123,862.255110241374 M 6703.868044312112,862.2551102413413 M 6703.868044312089,842.2551102414413 M 6700.868044312103,842.2551102414732 "
  />
  <path id="face7-cut"
 style="fill:none;stroke:#0000FF;stroke-width:1;stroke-miterlimit:4;stroke-dasharray:none;stroke-linejoin:round;stroke-linecap:round"
        d="M 6397.550132553421,856.127891241606 M 6257.550132554,856.1278912431922 M 6257.550132554003,859.1278912431735 M 6254.550132554015,859.1278912432067 M 6254.550132554017,862.1278912431881 M 6257.550132554006,862.127891243154 M 6257.55013255401,865.127891243133 M 6397.5501325534315,865.1278912415519 M 6397.550132553428,862.1278912415701 M 6400.550132553419,862.1278912415355 M 6400.550132553415,859.1278912415546 M 6397.550132553425,859.1278912415873 "
  />
  <path id="face8-cut"
 style="fill:none;stroke:#0000FF;stroke-width:1;stroke-miterlimit:4;stroke-dasharray:none;stroke-linejoin:round;stroke-linecap:round"
        d="M 6385.318844931742,901.0918217037602 M 6385.4721787134395,899.9271360008042 M 6385.318844931739,898.762450297852 M 6384.86929303047,897.6771360008247 M 6384.154159228781,896.7451554854965 M 6383.222178713443,896.0300216838241 M 6382.1368644164095,895.5804697825656 M 6380.972178713453,895.4271360008802 M 6273.472178713897,895.427136002083 M 6273.472178713905,904.4271360020261 M 6380.972178713463,904.4271360008261 M 6382.1368644164195,904.2738022191165 M 6383.222178713453,903.8242503178362 M 6384.154159228788,903.1091165161397 M 6384.869293030475,902.1771360007979 M 6382.472178713454,901.427136000827 L 6379.472178713466,901.4271360008615 L 6379.472178713462,898.4271360008797 L 6382.472178713451,898.4271360008456 L 6382.472178713454,901.427136000827 M 6336.472178713643,901.4271360013395 L 6336.47217871364,898.4271360013572 L 6346.472178713598,898.4271360012449 L 6346.472178713601,901.4271360012267 L 6336.472178713643,901.4271360013395 M 6366.472178713515,898.4271360010225 L 6366.47217871352,901.4271360010057 L 6356.47217871356,901.4271360011144 L 6356.472178713557,898.4271360011335 L 6366.472178713515,898.4271360010225 M 6326.472178713686,901.4271360014486 L 6316.472178713725,901.4271360015605 L 6316.472178713722,898.4271360015782 L 6326.472178713682,898.4271360014673 L 6326.472178713686,901.4271360014486 M 6306.472178713764,898.427136001691 L 6306.472178713769,901.4271360016728 L 6296.472178713808,901.4271360017856 L 6296.472178713806,898.4271360018038 L 6306.472178713764,898.427136001691 M 6286.472178713847,898.4271360019175 L 6286.47217871385,901.4271360018975 L 6276.4721787138915,901.4271360020107 L 6276.472178713888,898.4271360020293 L 6286.472178713847,898.4271360019175 "
  />
  <path id="face9-cut"
 style="fill:none;stroke:#0000FF;stroke-width:1;stroke-miterlimit:4;stroke-dasharray:none;stroke-linejoin:round;stroke-linecap:round"
        d="M 6700.294937730914,873.8283649777759 M 6560.29493773149,873.8283649792243 M 6560.294937731499,881.828364979177 M 6557.294937731513,881.8283649792093 M 6557.2949377315335,901.8283649791024 M 6560.294937731521,901.8283649790706 M 6560.294937731525,906.8283649790451 M 6700.29493773095,906.8283649776126 M 6700.294937730945,901.8283649776354 M 6703.2949377309305,901.8283649776067 M 6703.2949377309105,881.8283649777036 M 6700.294937730922,881.8283649777345 "
  />
  <path id="face10-cut"
 style="fill:none;stroke:#0000FF;stroke-width:1;stroke-miterlimit:4;stroke-dasharray:none;stroke-linejoin:round;stroke-linecap:round"
        d="M 6554.46158783694,869.4724333028771 M 6402.461587837565,869.4724333045215 M 6402.461587837599,902.4724333043264 M 6405.461587837588,902.4724333042923 M 6405.461587837572,887.4724333043914 M 6408.461587837559,887.4724333043587 M 6408.461587837581,905.4724333042413 M 6548.461587837004,905.4724333027457 M 6548.461587836986,887.4724333028421 M 6551.461587836973,887.4724333028103 M 6551.461587836989,902.4724333027298 M 6554.461587836975,902.4724333026998 "
  />
  <path id="face11-cut"
 style="fill:none;stroke:#0000FF;stroke-width:1;stroke-miterlimit:4;stroke-dasharray:none;stroke-linejoin:round;stroke-linecap:round"
        d="M 6550.583812991525,833.4781226025061 M 6410.583812992101,833.4781226040377 M 6410.58381299211,841.478122603989 M 6407.583812992123,841.4781226040236 M 6407.583812992145,861.4781226038999 M 6410.583812992131,861.4781226038676 M 6410.583812992136,866.4781226038385 M 6550.58381299156,866.4781226023224 M 6550.583812991555,861.478122602351 M 6553.583812991541,861.4781226023183 M 6553.583812991521,841.4781226024293 M 6550.583812991533,841.4781226024625 "
  />
  <path id="face12-cut"
 style="fill:none;stroke:#0000FF;stroke-width:1;stroke-miterlimit:4;stroke-dasharray:none;stroke-linejoin:round;stroke-linecap:round"
        d="M 6136.1729788712555,837.4099727616122 M 6140.672978871237,837.4099727615603 M 6140.672978871233,833.4099727615885 M 6240.67297887082,833.409972760403 M 6240.672978870814,828.4099727604375 M 6220.672978870897,828.4099727606731 M 6220.6729788708935,825.4099727606945 M 6200.672978870976,825.4099727609291 M 6200.67297887098,828.4099727609082 M 6180.672978871064,828.4099727611451 M 6180.67297887106,825.4099727611688 M 6160.672978871142,825.4099727614062 M 6160.672978871145,828.4099727613861 M 6136.172978871246,828.4099727616785 M 6135.00829316829,828.5633065433908 M 6133.9229788712555,829.012858444672 M 6132.990998355921,829.7279922463676 M 6132.2758645542335,830.6599727617104 M 6131.826312652967,831.7452870587449 M 6131.672978871269,832.9099727617013 M 6131.826312652969,834.0746584646522 M 6132.27586455424,835.1599727616772 M 6132.990998355928,836.0919532769994 M 6133.922978871264,836.8070870786755 M 6135.008293168299,837.2566389799294 M 6134.672978871259,834.4099727616526 L 6134.672978871256,831.409972761674 L 6137.672978871244,831.4099727616394 L 6137.672978871247,834.4099727616172 L 6134.672978871259,834.4099727616526 "
  />
  <path id="face13-cut"
 style="fill:none;stroke:#0000FF;stroke-width:1;stroke-miterlimit:4;stroke-dasharray:none;stroke-linejoin:round;stroke-linecap:round"
        d="M 6637.945832150885,10.002344681412978 L 6689.345434459321,10.004763532554534 L 6709.346465004902,10.0 L 6709.347910290611,826.000137880274 M 6416.85860328677,826.001085717271 M 6416.857015311292,10.00437045462877 L 6637.945832150885,10.002344681412978 M 6450.918004493695,817.9998762523646 L 6450.917979068441,821.0008492844368 L 6484.979269382246,821.0002129659097 L 6484.979401757486,817.9998515110783 L 6450.918004493695,817.9998762523646 M 6519.040810311893,821.002127664598 L 6553.102201279846,821.0020938547077 L 6553.102233177028,817.9998901635663 L 6519.040835737869,817.9999128957215 L 6519.040810311893,821.002127664598 M 6587.163641555304,821.0034060577441 L 6621.225031885582,821.0033712185273 L 6621.225064650786,817.9999294340241 L 6587.163666982041,817.9999495531888 L 6587.163641555304,821.0034060577441 M 6689.34862712129,821.0082093929364 L 6689.347904598393,818.0047028043732 L 6655.286498226217,817.9999862247723 L 6655.286472798676,821.0046844632379 L 6689.34862712129,821.0082093929364 M 6484.9798399171605,17.99985483620958 L 6484.979803603368,15.00094533150832 L 6450.9183798186805,15.000813728741832 L 6450.918406232774,17.999876295922604 L 6484.9798399171605,17.99985483620958 M 6553.102669332975,17.999912220515398 L 6553.102634954054,15.002215412023816 L 6519.041211062134,15.00209208872684 L 6519.041237476945,17.99991291925471 L 6553.102669332975,17.999912220515398 M 6621.225499911734,17.999956433053285 L 6621.225465862788,15.003490781534765 L 6587.164042305544,15.003370467861714 L 6587.164068721117,17.99994956282626 L 6621.225499911734,17.999956433053285 M 6689.348272993366,18.004667204958423 L 6689.348289170999,15.004667205003898 L 6655.286873548912,15.004648865516174 L 6655.286899965291,17.999986226627698 L 6689.348272993366,18.004667204958423 "
  />
  <path id="face14-cut"
 style="fill:none;stroke:#0000FF;stroke-width:1;stroke-miterlimit:4;stroke-dasharray:none;stroke-linejoin:round;stroke-linecap:round"
        d="M 6396.2909410637,824.2055746325527 M 6256.290941064277,824.2055746341566 M 6256.290941064279,827.2055746341371 M 6253.2909410642915,827.2055746341721 M 6253.290941064294,830.2055746341512 M 6256.290941064283,830.2055746341148 M 6256.290941064286,833.205574634097 M 6396.290941063709,833.2055746324972 M 6396.290941063707,830.205574632515 M 6399.290941063693,830.2055746324818 M 6399.290941063689,827.2055746325013 M 6396.290941063703,827.2055746325345 "
  />
  <path id="face15-cut"
 style="fill:none;stroke:#0000FF;stroke-width:1;stroke-miterlimit:4;stroke-dasharray:none;stroke-linejoin:round;stroke-linecap:round"
        d="M 6378.14646500081,16.910268934373107 M 6348.146465001556,16.910474341712415 M 6348.1464444608355,13.910474341827012 M 6318.146444461576,13.910679749164501 M 6318.146465002284,16.910679749052633 M 6288.146465003018,16.910885156392396 M 6288.146444462309,13.910885156505628 M 6258.146444463042,13.91109056384812 M 6258.14646500376,16.91109056373398 M 6228.146465004487,16.91129597107647 M 6228.146444463764,13.91129597119425 M 6198.146444464512,13.911501378538105 M 6198.146465005221,16.911501378418507 M 6168.146465005944,16.911706785767365 M 6168.146444465236,13.91170678588287 M 6138.146444465975,13.911912193232638 M 6138.146465006688,16.91191219311213 M 6109.346465007386,16.912109384164523 L 6109.351942530313,816.9121093567956 M 6138.151942529617,816.9119121658105 M 6138.1519630703315,819.9119121657172 M 6168.151963069598,819.9117067584457 M 6168.151942528882,816.9117067585385 M 6198.1519425281585,816.9115013512633 M 6198.151963068862,819.9115013511719 M 6228.151963068134,819.9112959438976 M 6228.151942527424,816.9112959439894 M 6258.1519425267,816.9110905367152 M 6258.151963067402,819.9110905366256 M 6288.151963066668,819.9108851293545 M 6288.151942525945,816.9108851294504 M 6318.151942525226,816.9106797221739 M 6318.151963065928,819.9106797220852 M 6348.151963065204,819.9104743148082 M 6348.151942524497,816.9104743149051 M 6378.1519425237475,816.910268907633 M 6378.151963064451,819.9102689075439 M 6408.151963063737,819.9100635002751 M 6408.151942523014,816.9100635003642 M 6408.151600177835,766.9100635018908 M 6411.151600177756,766.9100429611635 M 6411.150915487384,666.9100429642513 M 6408.150915487473,666.9100635049758 M 6408.150230797097,566.9100635081336 M 6411.150230797031,566.9100429674018 M 6411.149546106653,466.9100429706241 M 6408.149546106732,466.91006351135456 M 6408.1488614163645,366.91006351465785 M 6411.14886141629,366.91004297392783 M 6411.1481767259265,266.91004297732115 M 6408.148176725996,266.9100635180521 M 6408.147492035629,166.91006352155318 M 6411.14749203555,166.9100429808177 M 6411.146807345185,66.91004298443886 M 6408.146807345264,66.91006352516933 M 6408.146465000082,16.91006352703471 M 6408.146444459369,13.910063527148395 M 6378.146444460102,13.910268934486794 M 6148.149908998981,519.9118437061679 L 6148.14988845827,516.9118437062698 L 6168.149888457782,516.9117067680695 L 6168.149908998499,519.9117067679708 L 6148.149908998981,519.9118437061679 M 6268.1499089960535,519.9110220769917 L 6248.149908996552,519.9111590151865 L 6248.149888455835,516.9111590152834 L 6268.149888455341,516.911022077089 L 6268.1499089960535,519.9110220769917 M 6348.1499089941,519.9104743242137 L 6348.1498884533885,516.9104743243124 L 6368.149888452892,516.9103373861176 L 6368.149908993606,519.9103373860225 L 6348.1499089941,519.9104743242137 "
  />
  <path id="face16-cut"
 style="fill:none;stroke:#0000FF;stroke-width:1;stroke-miterlimit:4;stroke-dasharray:none;stroke-linejoin:round;stroke-linecap:round"
        d="M 6239.414079281496,884.1374898744498 M 6239.567413063196,882.9728041714939 M 6239.414079281494,881.8081184685425 M 6238.964527380225,880.7228041715161 M 6238.249393578537,879.7908236561884 M 6237.317413063199,879.0756898545151 M 6236.232098766164,878.6261379532611 M 6235.067413063208,878.4728041715771 M 6127.567413063653,878.4728041728326 M 6127.56741306366,887.472804172769 M 6235.067413063219,887.4728041715161 M 6236.232098766175,887.3194703898052 M 6237.317413063209,886.8699184885245 M 6238.249393578542,886.1547846868284 M 6238.96452738023,885.222804171487 M 6236.567413063209,884.472804171518 L 6233.5674130632215,884.4728041715543 L 6233.567413063218,881.472804171573 L 6236.567413063205,881.4728041715389 L 6236.567413063209,884.472804171518 M 6190.5674130634,884.4728041720509 L 6190.567413063394,881.4728041720709 L 6200.567413063352,881.4728041719554 L 6200.567413063358,884.4728041719341 L 6190.5674130634,884.4728041720509 M 6220.567413063271,881.472804171724 L 6220.567413063276,884.4728041717044 L 6210.567413063316,884.4728041718186 L 6210.5674130633115,881.4728041718395 L 6220.567413063271,881.472804171724 M 6180.567413063442,884.4728041721664 L 6170.567413063482,884.4728041722833 L 6170.567413063476,881.4728041723056 L 6180.567413063437,881.4728041721878 L 6180.567413063442,884.4728041721664 M 6160.567413063519,881.472804172422 L 6160.5674130635225,884.4728041724024 L 6150.567413063564,884.4728041725202 L 6150.567413063562,881.4728041725393 L 6160.567413063519,881.472804172422 M 6140.567413063602,881.4728041726594 L 6140.567413063605,884.4728041726357 L 6130.567413063646,884.4728041727567 L 6130.5674130636435,881.4728041727763 L 6140.567413063602,881.4728041726594 "
  />
  <path id="face17-cut"
 style="fill:none;stroke:#0000FF;stroke-width:1;stroke-miterlimit:4;stroke-dasharray:none;stroke-linejoin:round;stroke-linecap:round"
        d="M 6241.410818014685,859.2368301949723 M 6241.564151796383,858.0721444920164 M 6241.410818014683,856.9074587890636 M 6240.961266113412,855.8221444920387 M 6240.246132311724,854.8901639767123 M 6239.314151796386,854.1750301750399 M 6238.228837499352,853.7254782737823 M 6237.064151796396,853.5721444920996 M 6129.56415179684,853.5721444933661 M 6129.564151796849,862.572144493302 M 6237.064151796406,862.5721444920387 M 6238.228837499362,862.4188107103269 M 6239.314151796396,861.9692588090456 M 6240.24613231173,861.25412500735 M 6240.961266113418,860.3221444920086 M 6238.564151796398,859.5721444920391 L 6235.5641517964095,859.5721444920755 L 6235.564151796406,856.5721444920964 L 6238.564151796394,856.5721444920614 L 6238.564151796398,859.5721444920391 M 6192.564151796587,859.5721444925771 L 6192.564151796583,856.572144492598 L 6202.5641517965405,856.5721444924811 L 6202.564151796545,859.5721444924593 L 6192.564151796587,859.5721444925771 M 6222.564151796459,856.5721444922469 L 6222.564151796463,859.5721444922269 L 6212.564151796503,859.5721444923438 L 6212.5641517965,856.5721444923647 L 6222.564151796459,856.5721444922469 M 6182.5641517966305,859.5721444926926 L 6172.564151796669,859.5721444928131 L 6172.564151796665,856.572144492834 L 6182.564151796625,856.5721444927171 L 6182.5641517966305,859.5721444926926 M 6162.564151796707,856.5721444929518 L 6162.564151796711,859.5721444929313 L 6152.564151796752,859.5721444930487 L 6152.564151796749,856.5721444930691 L 6162.564151796707,856.5721444929518 M 6142.564151796791,856.5721444931883 L 6142.564151796793,859.5721444931669 L 6132.564151796834,859.5721444932883 L 6132.5641517968315,856.5721444933083 L 6142.564151796791,856.5721444931883 "
  />
  <path id="face0-interior"
 style="fill:none;stroke:#FF0000;stroke-width:1;stroke-miterlimit:4;stroke-dasharray:none;stroke-linejoin:round;stroke-linecap:round"
        d="M 6709.3464650058695,909.9999999934989 M 6709.347910290611,826.000137880274 L 6416.85860328677,826.001085717271 L 6416.857015311292,10.00437045462877 M 6109.346465007379,10.000000009451924 M 6109.346465007386,16.912109384164523 L 6138.146465006688,16.91191219311213 L 6138.146444465975,13.911912193232638 L 6168.146444465236,13.91170678588287 L 6168.146465005944,16.911706785767365 L 6198.146465005221,16.911501378418507 L 6198.146444464512,13.911501378538105 L 6228.146444463764,13.91129597119425 L 6228.146465004487,16.91129597107647 L 6258.14646500376,16.91109056373398 L 6258.146444463042,13.91109056384812 L 6288.146444462309,13.910885156505628 L 6288.146465003018,16.910885156392396 L 6318.146465002284,16.910679749052633 L 6318.146444461576,13.910679749164501 L 6348.1464444608355,13.910474341827012 L 6348.146465001556,16.910474341712415 L 6378.14646500081,16.910268934373107 L 6378.146444460102,13.910268934486794 L 6408.146444459369,13.910063527148395 L 6408.146465000082,16.91006352703471 L 6408.146807345264,66.91006352516933 L 6411.146807345185,66.91004298443886 L 6411.14749203555,166.9100429808177 L 6408.147492035629,166.91006352155318 L 6408.148176725996,266.9100635180521 L 6411.1481767259265,266.91004297732115 L 6411.14886141629,366.91004297392783 L 6408.1488614163645,366.91006351465785 L 6408.149546106732,466.91006351135456 L 6411.149546106653,466.9100429706241 L 6411.150230797031,566.9100429674018 L 6408.150230797097,566.9100635081336 L 6408.150915487473,666.9100635049758 L 6411.150915487384,666.9100429642513 L 6411.151600177756,766.9100429611635 L 6408.151600177835,766.9100635018908 L 6408.151942523014,816.9100635003642 L 6408.151963063737,819.9100635002751 L 6378.151963064451,819.9102689075439 L 6378.1519425237475,816.910268907633 L 6348.151942524497,816.9104743149051 L 6348.151963065204,819.9104743148082 L 6318.151963065928,819.9106797220852 L 6318.151942525226,816.9106797221739 L 6288.151942525945,816.9108851294504 L 6288.151963066668,819.9108851293545 L 6258.151963067402,819.9110905366256 L 6258.1519425267,816.9110905367152 L 6228.151942527424,816.9112959439894 L 6228.151963068134,819.9112959438976 L 6198.151963068862,819.9115013511719 L 6198.1519425281585,816.9115013512633 L 6168.151942528882,816.9117067585385 L 6168.151963069598,819.9117067584457 L 6138.1519630703315,819.9119121657172 L 6138.151942529617,816.9119121658105 L 6109.351942530313,816.9121093567956 M 6109.346465008346,910.0000000000582 M 6138.863274707865,852.0283214629949 L 6134.363274707882,852.0283214630485 L 6133.198589004926,851.874987681364 L 6132.113274707891,851.4254357801105 L 6131.181294192555,850.7103019784358 L 6130.466160390866,849.7783214631118 L 6130.016608489596,848.6930071660863 L 6129.863274707896,847.5283214631345 L 6130.016608489594,846.3636357601808 L 6130.466160390861,845.2783214631436 L 6131.181294192548,844.3463409478031 L 6132.113274707883,843.6312071461052 L 6133.198589004916,843.1816552448254 L 6134.363274707873,843.0283214631131 L 6158.863274707772,843.0283214628207 L 6158.863274707768,840.0283214628412 L 6178.863274707686,840.0283214626033 L 6178.86327470769,843.0283214625824 L 6198.863274707607,843.0283214623464 L 6198.8632747076035,840.0283214623669 L 6218.863274707521,840.0283214621336 L 6218.863274707524,843.0283214621127 L 6238.863274707441,843.0283214618794 L 6238.863274707446,848.0283214618453 L 6138.863274707859,848.0283214630235 L 6138.863274707865,852.0283214629949 M 6140.672978871237,837.4099727615603 L 6136.1729788712555,837.4099727616122 L 6135.008293168299,837.2566389799294 L 6133.922978871264,836.8070870786755 L 6132.990998355928,836.0919532769994 L 6132.27586455424,835.1599727616772 L 6131.826312652969,834.0746584646522 L 6131.672978871269,832.9099727617013 L 6131.826312652967,831.7452870587449 L 6132.2758645542335,830.6599727617104 L 6132.990998355921,829.7279922463676 L 6133.9229788712555,829.012858444672 L 6135.00829316829,828.5633065433908 L 6136.172978871246,828.4099727616785 L 6160.672978871145,828.4099727613861 L 6160.672978871142,825.4099727614062 L 6180.67297887106,825.4099727611688 L 6180.672978871064,828.4099727611451 L 6200.67297887098,828.4099727609082 L 6200.672978870976,825.4099727609291 L 6220.6729788708935,825.4099727606945 L 6220.672978870897,828.4099727606731 L 6240.672978870814,828.4099727604375 L 6240.67297887082,833.409972760403 L 6140.672978871233,833.4099727615885 L 6140.672978871237,837.4099727615603 M 6385.4721787134395,899.9271360008042 L 6385.318844931742,901.0918217037602 L 6384.869293030475,902.1771360007979 L 6384.154159228788,903.1091165161397 L 6383.222178713453,903.8242503178362 L 6382.1368644164195,904.2738022191165 L 6380.972178713463,904.4271360008261 L 6273.472178713905,904.4271360020261 L 6273.472178713897,895.427136002083 L 6380.972178713453,895.4271360008802 L 6382.1368644164095,895.5804697825656 L 6383.222178713443,896.0300216838241 L 6384.154159228781,896.7451554854965 L 6384.86929303047,897.6771360008247 L 6385.318844931739,898.762450297852 L 6385.4721787134395,899.9271360008042 M 6239.567413063196,882.9728041714939 L 6239.414079281496,884.1374898744498 L 6238.96452738023,885.222804171487 L 6238.249393578542,886.1547846868284 L 6237.317413063209,886.8699184885245 L 6236.232098766175,887.3194703898052 L 6235.067413063219,887.4728041715161 L 6127.56741306366,887.472804172769 L 6127.567413063653,878.4728041728326 L 6235.067413063208,878.4728041715771 L 6236.232098766164,878.6261379532611 L 6237.317413063199,879.0756898545151 L 6238.249393578537,879.7908236561884 L 6238.964527380225,880.7228041715161 L 6239.414079281494,881.8081184685425 L 6239.567413063196,882.9728041714939 M 6241.564151796383,858.0721444920164 L 6241.410818014685,859.2368301949723 L 6240.961266113418,860.3221444920086 L 6240.24613231173,861.25412500735 L 6239.314151796396,861.9692588090456 L 6238.228837499362,862.4188107103269 L 6237.064151796406,862.5721444920387 L 6129.564151796849,862.572144493302 L 6129.56415179684,853.5721444933661 L 6237.064151796396,853.5721444920996 L 6238.228837499352,853.7254782737823 L 6239.314151796386,854.1750301750399 L 6240.246132311724,854.8901639767123 L 6240.961266113412,855.8221444920387 L 6241.410818014683,856.9074587890636 L 6241.564151796383,858.0721444920164 M 6255.832667930671,869.2272335216553 L 6395.8326679300935,869.2272335200751 L 6395.832667930097,872.2272335200573 L 6398.832667930087,872.2272335200241 L 6398.83266793009,875.2272335200073 L 6395.832667930101,875.22723352004 L 6395.832667930103,878.227233520021 L 6255.832667930681,878.2272335215976 L 6255.832667930677,875.2272335216171 L 6252.83266793069,875.2272335216503 L 6252.832667930688,872.2272335216712 L 6255.832667930674,872.2272335216367 L 6255.832667930671,869.2272335216553 M 6256.290941064277,824.2055746341566 L 6396.2909410637,824.2055746325527 L 6396.290941063703,827.2055746325345 L 6399.290941063689,827.2055746325013 L 6399.290941063693,830.2055746324818 L 6396.290941063707,830.205574632515 L 6396.290941063709,833.2055746324972 L 6256.290941064286,833.205574634097 L 6256.290941064283,830.2055746341148 L 6253.290941064294,830.2055746341512 L 6253.2909410642915,827.2055746341721 L 6256.290941064279,827.2055746341371 L 6256.290941064277,824.2055746341566 M 6257.79049425005,840.9502438231439 L 6257.790494250045,837.9502438231661 L 6397.790494249468,837.9502438215686 L 6397.7904942494715,840.9502438215495 L 6400.790494249459,840.9502438215163 L 6400.790494249465,846.950243821479 L 6397.790494249478,846.9502438215131 L 6397.790494249484,852.9502438214763 L 6257.790494250063,852.9502438230638 L 6257.790494250055,846.9502438231038 L 6254.790494250068,846.9502438231389 L 6254.790494250061,840.9502438231789 L 6257.79049425005,840.9502438231439 M 6256.310303795214,882.9090702311546 L 6396.310303794637,882.9090702295825 L 6396.3103037946385,885.9090702295653 L 6399.310303794628,885.9090702295312 L 6399.310303794632,888.9090702295134 L 6396.310303794642,888.9090702295466 L 6396.310303794646,891.9090702295284 L 6256.310303795223,891.9090702310973 L 6256.31030379522,888.9090702311164 L 6253.310303795233,888.9090702311514 L 6253.31030379523,885.9090702311714 L 6256.310303795217,885.9090702311355 L 6256.310303795214,882.9090702311546 M 6560.29493773149,873.8283649792243 L 6700.294937730914,873.8283649777759 L 6700.294937730922,881.8283649777345 L 6703.2949377309105,881.8283649777036 L 6703.2949377309305,901.8283649776067 L 6700.294937730945,901.8283649776354 L 6700.29493773095,906.8283649776126 L 6560.294937731525,906.8283649790451 L 6560.294937731521,901.8283649790706 L 6557.2949377315335,901.8283649791024 L 6557.294937731513,881.8283649792093 L 6560.294937731499,881.828364979177 L 6560.29493773149,873.8283649792243 M 6241.805352676929,870.8004042789257 L 6241.65201889523,871.9650899818816 L 6241.202466993964,873.050404278918 L 6240.487333192275,873.9823847942603 L 6239.555352676942,874.697518595955 L 6238.470038379908,875.1470704972371 L 6237.305352676951,875.300404278948 L 6129.805352677394,875.3004042802054 L 6129.805352677386,866.3004042802681 L 6237.305352676942,866.300404279009 L 6238.470038379897,866.4537380606935 L 6239.555352676931,866.9032899619488 L 6240.487333192269,867.6184237636216 L 6241.202466993958,868.550404278948 L 6241.652018895228,869.6357185759721 L 6241.805352676929,870.8004042789257 M 6560.8680443126705,834.2551102429793 L 6700.868044312094,834.2551102415141 L 6700.868044312103,842.2551102414732 L 6703.868044312089,842.2551102414413 L 6703.868044312112,862.2551102413413 L 6700.868044312123,862.255110241374 L 6700.868044312128,867.255110241349 L 6560.868044312705,867.2551102428001 L 6560.8680443127,862.2551102428265 L 6557.868044312712,862.2551102428574 L 6557.8680443126905,842.2551102429675 L 6560.868044312678,842.2551102429356 L 6560.8680443126705,834.2551102429793 M 6402.461587837565,869.4724333045215 L 6554.46158783694,869.4724333028771 L 6554.461587836975,902.4724333026998 L 6551.461587836989,902.4724333027298 L 6551.461587836973,887.4724333028103 L 6548.461587836986,887.4724333028421 L 6548.461587837004,905.4724333027457 L 6408.461587837581,905.4724333042413 L 6408.461587837559,887.4724333043587 L 6405.461587837572,887.4724333043914 L 6405.461587837588,902.4724333042923 L 6402.461587837599,902.4724333043264 L 6402.461587837565,869.4724333045215 M 6257.550132554,856.1278912431922 L 6397.550132553421,856.127891241606 L 6397.550132553425,859.1278912415873 L 6400.550132553415,859.1278912415546 L 6400.550132553419,862.1278912415355 L 6397.550132553428,862.1278912415701 L 6397.5501325534315,865.1278912415519 L 6257.55013255401,865.127891243133 L 6257.550132554006,862.127891243154 L 6254.550132554017,862.1278912431881 L 6254.550132554015,859.1278912432067 L 6257.550132554003,859.1278912431735 L 6257.550132554,856.1278912431922 M 6410.583812992101,833.4781226040377 L 6550.583812991525,833.4781226025061 L 6550.583812991533,841.4781226024625 L 6553.583812991521,841.4781226024293 L 6553.583812991541,861.4781226023183 L 6550.583812991555,861.478122602351 L 6550.58381299156,866.4781226023224 L 6410.583812992136,866.4781226038385 L 6410.583812992131,861.4781226038676 L 6407.583812992145,861.4781226038999 L 6407.583812992123,841.4781226040236 L 6410.58381299211,841.478122603989 L 6410.583812992101,833.4781226040377 "
  />
  <path id="face1-interior"
 style="fill:none;stroke:#FF0000;stroke-width:1;stroke-miterlimit:4;stroke-dasharray:none;stroke-linejoin:round;stroke-linecap:round"
        d="M 6134.363274707882,852.0283214630485 M 6138.863274707865,852.0283214629949 M 6138.863274707859,848.0283214630235 M 6238.863274707446,848.0283214618453 M 6238.863274707441,843.0283214618794 M 6218.863274707524,843.0283214621127 M 6218.863274707521,840.0283214621336 M 6198.8632747076035,840.0283214623669 M 6198.863274707607,843.0283214623464 M 6178.86327470769,843.0283214625824 M 6178.863274707686,840.0283214626033 M 6158.863274707768,840.0283214628412 M 6158.863274707772,843.0283214628207 M 6134.363274707873,843.0283214631131 M 6133.198589004916,843.1816552448254 M 6132.113274707883,843.6312071461052 M 6131.181294192548,844.3463409478031 M 6130.466160390861,845.2783214631436 M 6130.016608489594,846.3636357601808 M 6129.863274707896,847.5283214631345 M 6130.016608489596,848.6930071660863 M 6130.466160390866,849.7783214631118 M 6131.181294192555,850.7103019784358 M 6132.113274707891,851.4254357801105 M 6133.198589004926,851.874987681364 M 6132.8632747078855,849.0283214630881 M 6132.863274707882,846.028321463109 M 6135.86327470787,846.0283214630726 M 6135.863274707874,849.0283214630513 "
  />
  <path id="face2-interior"
 style="fill:none;stroke:#FF0000;stroke-width:1;stroke-miterlimit:4;stroke-dasharray:none;stroke-linejoin:round;stroke-linecap:round"
        d="M 6395.8326679300935,869.2272335200751 M 6255.832667930671,869.2272335216553 M 6255.832667930674,872.2272335216367 M 6252.832667930688,872.2272335216712 M 6252.83266793069,875.2272335216503 M 6255.832667930677,875.2272335216171 M 6255.832667930681,878.2272335215976 M 6395.832667930103,878.227233520021 M 6395.832667930101,875.22723352004 M 6398.83266793009,875.2272335200073 M 6398.832667930087,872.2272335200241 M 6395.832667930097,872.2272335200573 "
  />
  <path id="face3-interior"
 style="fill:none;stroke:#FF0000;stroke-width:1;stroke-miterlimit:4;stroke-dasharray:none;stroke-linejoin:round;stroke-linecap:round"
        d="M 6257.790494250045,837.9502438231661 M 6257.79049425005,840.9502438231439 M 6254.790494250061,840.9502438231789 M 6254.790494250068,846.9502438231389 M 6257.790494250055,846.9502438231038 M 6257.790494250063,852.9502438230638 M 6397.790494249484,852.9502438214763 M 6397.790494249478,846.9502438215131 M 6400.790494249465,846.950243821479 M 6400.790494249459,840.9502438215163 M 6397.7904942494715,840.9502438215495 M 6397.790494249468,837.9502438215686 "
  />
  <path id="face4-interior"
 style="fill:none;stroke:#FF0000;stroke-width:1;stroke-miterlimit:4;stroke-dasharray:none;stroke-linejoin:round;stroke-linecap:round"
        d="M 6396.310303794637,882.9090702295825 M 6256.310303795214,882.9090702311546 M 6256.310303795217,885.9090702311355 M 6253.31030379523,885.9090702311714 M 6253.310303795233,888.9090702311514 M 6256.31030379522,888.9090702311164 M 6256.310303795223,891.9090702310973 M 6396.310303794646,891.9090702295284 M 6396.310303794642,888.9090702295466 M 6399.310303794632,888.9090702295134 M 6399.310303794628,885.9090702295312 M 6396.3103037946385,885.9090702295653 "
  />
  <path id="face5-interior"
 style="fill:none;stroke:#FF0000;stroke-width:1;stroke-miterlimit:4;stroke-dasharray:none;stroke-linejoin:round;stroke-linecap:round"
        d="M 6241.65201889523,871.9650899818816 M 6241.805352676929,870.8004042789257 M 6241.652018895228,869.6357185759721 M 6241.202466993958,868.550404278948 M 6240.487333192269,867.6184237636216 M 6239.555352676931,866.9032899619488 M 6238.470038379897,866.4537380606935 M 6237.305352676942,866.300404279009 M 6129.805352677386,866.3004042802681 M 6129.805352677394,875.3004042802054 M 6237.305352676951,875.300404278948 M 6238.470038379908,875.1470704972371 M 6239.555352676942,874.697518595955 M 6240.487333192275,873.9823847942603 M 6241.202466993964,873.050404278918 M 6238.805352676942,872.3004042789485 M 6235.8053526769545,872.3004042789853 M 6235.805352676952,869.3004042790039 M 6238.805352676938,869.3004042789703 M 6192.805352677132,872.3004042794855 M 6192.805352677129,869.3004042795051 M 6202.805352677086,869.3004042793882 M 6202.805352677091,872.3004042793664 M 6222.8053526770045,869.3004042791558 M 6222.805352677009,872.3004042791363 M 6212.805352677049,872.3004042792504 M 6212.805352677045,869.3004042792718 M 6182.8053526771755,872.3004042795992 M 6172.805352677215,872.3004042797184 M 6172.805352677211,869.3004042797388 M 6182.80535267717,869.3004042796229 M 6162.805352677252,869.3004042798566 M 6162.8053526772555,872.300404279838 M 6152.8053526772965,872.3004042799548 M 6152.805352677295,869.3004042799744 M 6142.805352677335,869.3004042800926 M 6142.805352677338,872.3004042800717 M 6132.805352677379,872.3004042801927 M 6132.805352677377,869.3004042802113 "
  />
  <path id="face6-interior"
 style="fill:none;stroke:#FF0000;stroke-width:1;stroke-miterlimit:4;stroke-dasharray:none;stroke-linejoin:round;stroke-linecap:round"
        d="M 6700.868044312094,834.2551102415141 M 6560.8680443126705,834.2551102429793 M 6560.868044312678,842.2551102429356 M 6557.8680443126905,842.2551102429675 M 6557.868044312712,862.2551102428574 M 6560.8680443127,862.2551102428265 M 6560.868044312705,867.2551102428001 M 6700.868044312128,867.255110241349 M 6700.868044312123,862.255110241374 M 6703.868044312112,862.2551102413413 M 6703.868044312089,842.2551102414413 M 6700.868044312103,842.2551102414732 "
  />
  <path id="face7-interior"
 style="fill:none;stroke:#FF0000;stroke-width:1;stroke-miterlimit:4;stroke-dasharray:none;stroke-linejoin:round;stroke-linecap:round"
        d="M 6397.550132553421,856.127891241606 M 6257.550132554,856.1278912431922 M 6257.550132554003,859.1278912431735 M 6254.550132554015,859.1278912432067 M 6254.550132554017,862.1278912431881 M 6257.550132554006,862.127891243154 M 6257.55013255401,865.127891243133 M 6397.5501325534315,865.1278912415519 M 6397.550132553428,862.1278912415701 M 6400.550132553419,862.1278912415355 M 6400.550132553415,859.1278912415546 M 6397.550132553425,859.1278912415873 "
  />
  <path id="face8-interior"
 style="fill:none;stroke:#FF0000;stroke-width:1;stroke-miterlimit:4;stroke-dasharray:none;stroke-linejoin:round;stroke-linecap:round"
        d="M 6385.318844931742,901.0918217037602 M 6385.4721787134395,899.9271360008042 M 6385.318844931739,898.762450297852 M 6384.86929303047,897.6771360008247 M 6384.154159228781,896.7451554854965 M 6383.222178713443,896.0300216838241 M 6382.1368644164095,895.5804697825656 M 6380.972178713453,895.4271360008802 M 6273.472178713897,895.427136002083 M 6273.472178713905,904.4271360020261 M 6380.972178713463,904.4271360008261 M 6382.1368644164195,904.2738022191165 M 6383.222178713453,903.8242503178362 M 6384.154159228788,903.1091165161397 M 6384.869293030475,902.1771360007979 M 6382.472178713454,901.427136000827 M 6379.472178713466,901.4271360008615 M 6379.472178713462,898.4271360008797 M 6382.472178713451,898.4271360008456 M 6336.472178713643,901.4271360013395 M 6336.47217871364,898.4271360013572 M 6346.472178713598,898.4271360012449 M 6346.472178713601,901.4271360012267 M 6366.472178713515,898.4271360010225 M 6366.47217871352,901.4271360010057 M 6356.47217871356,901.4271360011144 M 6356.472178713557,898.4271360011335 M 6326.472178713686,901.4271360014486 M 6316.472178713725,901.4271360015605 M 6316.472178713722,898.4271360015782 M 6326.472178713682,898.4271360014673 M 6306.472178713764,898.427136001691 M 6306.472178713769,901.4271360016728 M 6296.472178713808,901.4271360017856 M 6296.472178713806,898.4271360018038 M 6286.472178713847,898.4271360019175 M 6286.47217871385,901.4271360018975 M 6276.4721787138915,901.4271360020107 M 6276.472178713888,898.4271360020293 "
  />
  <path id="face9-interior"
 style="fill:none;stroke:#FF0000;stroke-width:1;stroke-miterlimit:4;stroke-dasharray:none;stroke-linejoin:round;stroke-linecap:round"
        d="M 6700.294937730914,873.8283649777759 M 6560.29493773149,873.8283649792243 M 6560.294937731499,881.828364979177 M 6557.294937731513,881.8283649792093 M 6557.2949377315335,901.8283649791024 M 6560.294937731521,901.8283649790706 M 6560.294937731525,906.8283649790451 M 6700.29493773095,906.8283649776126 M 6700.294937730945,901.8283649776354 M 6703.2949377309305,901.8283649776067 M 6703.2949377309105,881.8283649777036 M 6700.294937730922,881.8283649777345 "
  />
  <path id="face10-interior"
 style="fill:none;stroke:#FF0000;stroke-width:1;stroke-miterlimit:4;stroke-dasharray:none;stroke-linejoin:round;stroke-linecap:round"
        d="M 6554.46158783694,869.4724333028771 M 6402.461587837565,869.4724333045215 M 6402.461587837599,902.4724333043264 M 6405.461587837588,902.4724333042923 M 6405.461587837572,887.4724333043914 M 6408.461587837559,887.4724333043587 M 6408.461587837581,905.4724333042413 M 6548.461587837004,905.4724333027457 M 6548.461587836986,887.4724333028421 M 6551.461587836973,887.4724333028103 M 6551.461587836989,902.4724333027298 M 6554.461587836975,902.4724333026998 "
  />
  <path id="face11-interior"
 style="fill:none;stroke:#FF0000;stroke-width:1;stroke-miterlimit:4;stroke-dasharray:none;stroke-linejoin:round;stroke-linecap:round"
        d="M 6550.583812991525,833.4781226025061 M 6410.583812992101,833.4781226040377 M 6410.58381299211,841.478122603989 M 6407.583812992123,841.4781226040236 M 6407.583812992145,861.4781226038999 M 6410.583812992131,861.4781226038676 M 6410.583812992136,866.4781226038385 M 6550.58381299156,866.4781226023224 M 6550.583812991555,861.478122602351 M 6553.583812991541,861.4781226023183 M 6553.583812991521,841.4781226024293 M 6550.583812991533,841.4781226024625 "
  />
  <path id="face12-interior"
 style="fill:none;stroke:#FF0000;stroke-width:1;stroke-miterlimit:4;stroke-dasharray:none;stroke-linejoin:round;stroke-linecap:round"
        d="M 6136.1729788712555,837.4099727616122 M 6140.672978871237,837.4099727615603 M 6140.672978871233,833.4099727615885 M 6240.67297887082,833.409972760403 M 6240.672978870814,828.4099727604375 M 6220.672978870897,828.4099727606731 M 6220.6729788708935,825.4099727606945 M 6200.672978870976,825.4099727609291 M 6200.67297887098,828.4099727609082 M 6180.672978871064,828.4099727611451 M 6180.67297887106,825.4099727611688 M 6160.672978871142,825.4099727614062 M 6160.672978871145,828.4099727613861 M 6136.172978871246,828.4099727616785 M 6135.00829316829,828.5633065433908 M 6133.9229788712555,829.012858444672 M 6132.990998355921,829.7279922463676 M 6132.2758645542335,830.6599727617104 M 6131.826312652967,831.7452870587449 M 6131.672978871269,832.9099727617013 M 6131.826312652969,834.0746584646522 M 6132.27586455424,835.1599727616772 M 6132.990998355928,836.0919532769994 M 6133.922978871264,836.8070870786755 M 6135.008293168299,837.2566389799294 M 6134.672978871259,834.4099727616526 M 6134.672978871256,831.409972761674 M 6137.672978871244,831.4099727616394 M 6137.672978871247,834.4099727616172 "
  />
  <path id="face13-interior"
 style="fill:none;stroke:#FF0000;stroke-width:1;stroke-miterlimit:4;stroke-dasharray:none;stroke-linejoin:round;stroke-linecap:round"
        d="M 6637.945832150885,10.002344681412978 M 6689.345434459321,10.004763532554534 M 6709.346465004902,10.0 M 6709.347910290611,826.000137880274 M 6416.85860328677,826.001085717271 M 6416.857015311292,10.00437045462877 M 6450.918004493695,817.9998762523646 M 6450.917979068441,821.0008492844368 M 6484.979269382246,821.0002129659097 M 6484.979401757486,817.9998515110783 M 6519.040810311893,821.002127664598 M 6553.102201279846,821.0020938547077 M 6553.102233177028,817.9998901635663 M 6519.040835737869,817.9999128957215 M 6587.163641555304,821.0034060577441 M 6621.225031885582,821.0033712185273 M 6621.225064650786,817.9999294340241 M 6587.163666982041,817.9999495531888 M 6689.34862712129,821.0082093929364 M 6689.347904598393,818.0047028043732 M 6655.286498226217,817.9999862247723 M 6655.286472798676,821.0046844632379 M 6484.9798399171605,17.99985483620958 M 6484.979803603368,15.00094533150832 M 6450.9183798186805,15.000813728741832 M 6450.918406232774,17.999876295922604 M 6553.102669332975,17.999912220515398 M 6553.102634954054,15.002215412023816 M 6519.041211062134,15.00209208872684 M 6519.041237476945,17.99991291925471 M 6621.225499911734,17.999956433053285 M 6621.225465862788,15.003490781534765 M 6587.164042305544,15.003370467861714 M 6587.164068721117,17.99994956282626 M 6689.348272993366,18.004667204958423 M 6689.348289170999,15.004667205003898 M 6655.286873548912,15.004648865516174 M 6655.286899965291,17.999986226627698 "
  />
  <path id="face14-interior"
 style="fill:none;stroke:#FF0000;stroke-width:1;stroke-miterlimit:4;stroke-dasharray:none;stroke-linejoin:round;stroke-linecap:round"
        d="M 6396.2909410637,824.2055746325527 M 6256.290941064277,824.2055746341566 M 6256.290941064279,827.2055746341371 M 6253.2909410642915,827.2055746341721 M 6253.290941064294,830.2055746341512 M 6256.290941064283,830.2055746341148 M 6256.290941064286,833.205574634097 M 6396.290941063709,833.2055746324972 M 6396.290941063707,830.205574632515 M 6399.290941063693,830.2055746324818 M 6399.290941063689,827.2055746325013 M 6396.290941063703,827.2055746325345 "
  />
  <path id="face15-interior"
 style="fill:none;stroke:#FF0000;stroke-width:1;stroke-miterlimit:4;stroke-dasharray:none;stroke-linejoin:round;stroke-linecap:round"
        d="M 6378.14646500081,16.910268934373107 M 6348.146465001556,16.910474341712415 M 6348.1464444608355,13.910474341827012 M 6318.146444461576,13.910679749164501 M 6318.146465002284,16.910679749052633 M 6288.146465003018,16.910885156392396 M 6288.146444462309,13.910885156505628 M 6258.146444463042,13.91109056384812 M 6258.14646500376,16.91109056373398 M 6228.146465004487,16.91129597107647 M 6228.146444463764,13.91129597119425 M 6198.146444464512,13.911501378538105 M 6198.146465005221,16.911501378418507 M 6168.146465005944,16.911706785767365 M 6168.146444465236,13.91170678588287 M 6138.146444465975,13.911912193232638 M 6138.146465006688,16.91191219311213 M 6109.346465007386,16.912109384164523 M 6109.351942530313,816.9121093567956 M 6138.151942529617,816.9119121658105 M 6138.1519630703315,819.9119121657172 M 6168.151963069598,819.9117067584457 M 6168.151942528882,816.9117067585385 M 6198.1519425281585,816.9115013512633 M 6198.151963068862,819.9115013511719 M 6228.151963068134,819.9112959438976 M 6228.151942527424,816.9112959439894 M 6258.1519425267,816.9110905367152 M 6258.151963067402,819.9110905366256 M 6288.151963066668,819.9108851293545 M 6288.151942525945,816.9108851294504 M 6318.151942525226,816.9106797221739 M 6318.151963065928,819.9106797220852 M 6348.151963065204,819.9104743148082 M 6348.151942524497,816.9104743149051 M 6378.1519425237475,816.910268907633 M 6378.151963064451,819.9102689075439 M 6408.151963063737,819.9100635002751 M 6408.151942523014,816.9100635003642 M 6408.151600177835,766.9100635018908 M 6411.151600177756,766.9100429611635 M 6411.150915487384,666.9100429642513 M 6408.150915487473,666.9100635049758 M 6408.150230797097,566.9100635081336 M 6411.150230797031,566.9100429674018 M 6411.149546106653,466.9100429706241 M 6408.149546106732,466.91006351135456 M 6408.1488614163645,366.91006351465785 M 6411.14886141629,366.91004297392783 M 6411.1481767259265,266.91004297732115 M 6408.148176725996,266.9100635180521 M 6408.147492035629,166.91006352155318 M 6411.14749203555,166.9100429808177 M 6411.146807345185,66.91004298443886 M 6408.146807345264,66.91006352516933 M 6408.146465000082,16.91006352703471 M 6408.146444459369,13.910063527148395 M 6378.146444460102,13.910268934486794 M 6148.149908998981,519.9118437061679 M 6148.14988845827,516.9118437062698 M 6168.149888457782,516.9117067680695 M 6168.149908998499,519.9117067679708 M 6268.1499089960535,519.9110220769917 M 6248.149908996552,519.9111590151865 M 6248.149888455835,516.9111590152834 M 6268.149888455341,516.911022077089 M 6348.1499089941,519.9104743242137 M 6348.1498884533885,516.9104743243124 M 6368.149888452892,516.9103373861176 M 6368.149908993606,519.9103373860225 "
  />
  <path id="face16-interior"
 style="fill:none;stroke:#FF0000;stroke-width:1;stroke-miterlimit:4;stroke-dasharray:none;stroke-linejoin:round;stroke-linecap:round"
        d="M 6239.414079281496,884.1374898744498 M 6239.567413063196,882.9728041714939 M 6239.414079281494,881.8081184685425 M 6238.964527380225,880.7228041715161 M 6238.249393578537,879.7908236561884 M 6237.317413063199,879.0756898545151 M 6236.232098766164,878.6261379532611 M 6235.067413063208,878.4728041715771 M 6127.567413063653,878.4728041728326 M 6127.56741306366,887.472804172769 M 6235.067413063219,887.4728041715161 M 6236.232098766175,887.3194703898052 M 6237.317413063209,886.8699184885245 M 6238.249393578542,886.1547846868284 M 6238.96452738023,885.222804171487 M 6236.567413063209,884.472804171518 M 6233.5674130632215,884.4728041715543 M 6233.567413063218,881.472804171573 M 6236.567413063205,881.4728041715389 M 6190.5674130634,884.4728041720509 M 6190.567413063394,881.4728041720709 M 6200.567413063352,881.4728041719554 M 6200.567413063358,884.4728041719341 M 6220.567413063271,881.472804171724 M 6220.567413063276,884.4728041717044 M 6210.567413063316,884.4728041718186 M 6210.5674130633115,881.4728041718395 M 6180.567413063442,884.4728041721664 M 6170.567413063482,884.4728041722833 M 6170.567413063476,881.4728041723056 M 6180.567413063437,881.4728041721878 M 6160.567413063519,881.472804172422 M 6160.5674130635225,884.4728041724024 M 6150.567413063564,884.4728041725202 M 6150.567413063562,881.4728041725393 M 6140.567413063602,881.4728041726594 M 6140.567413063605,884.4728041726357 M 6130.567413063646,884.4728041727567 M 6130.5674130636435,881.4728041727763 "
  />
  <path id="face17-interior"
 style="fill:none;stroke:#FF0000;stroke-width:1;stroke-miterlimit:4;stroke-dasharray:none;stroke-linejoin:round;stroke-linecap:round"
        d="M 6241.410818014685,859.2368301949723 M 6241.564151796383,858.0721444920164 M 6241.410818014683,856.9074587890636 M 6240.961266113412,855.8221444920387 M 6240.246132311724,854.8901639767123 M 6239.314151796386,854.1750301750399 M 6238.228837499352,853.7254782737823 M 6237.064151796396,853.5721444920996 M 6129.56415179684,853.5721444933661 M 6129.564151796849,862.572144493302 M 6237.064151796406,862.5721444920387 M 6238.228837499362,862.4188107103269 M 6239.314151796396,861.9692588090456 M 6240.24613231173,861.25412500735 M 6240.961266113418,860.3221444920086 M 6238.564151796398,859.5721444920391 M 6235.5641517964095,859.5721444920755 M 6235.564151796406,856.5721444920964 M 6238.564151796394,856.5721444920614 M 6192.564151796587,859.5721444925771 M 6192.564151796583,856.572144492598 M 6202.5641517965405,856.5721444924811 M 6202.564151796545,859.5721444924593 M 6222.564151796459,856.5721444922469 M 6222.564151796463,859.5721444922269 M 6212.564151796503,859.5721444923438 M 6212.5641517965,856.5721444923647 M 6182.5641517966305,859.5721444926926 M 6172.564151796669,859.5721444928131 M 6172.564151796665,856.572144492834 M 6182.564151796625,856.5721444927171 M 6162.564151796707,856.5721444929518 M 6162.564151796711,859.5721444929313 M 6152.564151796752,859.5721444930487 M 6152.564151796749,856.5721444930691 M 6142.564151796791,856.5721444931883 M 6142.564151796793,859.5721444931669 M 6132.564151796834,859.5721444932883 M 6132.5641517968315,856.5721444933083 "
  />
  <path id="face0-interior"
 style="fill:none;stroke:#00FF00;stroke-width:1;stroke-miterlimit:4;stroke-dasharray:none;stroke-linejoin:round;stroke-linecap:round"
        d="M 6709.3464650058695,909.9999999934989 M 6709.347910290611,826.000137880274 M 6416.85860328677,826.001085717271 M 6416.857015311292,10.00437045462877 M 6109.346465007379,10.000000009451924 M 6109.346465007386,16.912109384164523 M 6138.146465006688,16.91191219311213 M 6138.146444465975,13.911912193232638 M 6168.146444465236,13.91170678588287 M 6168.146465005944,16.911706785767365 M 6198.146465005221,16.911501378418507 M 6198.146444464512,13.911501378538105 M 6228.146444463764,13.91129597119425 M 6228.146465004487,16.91129597107647 M 6258.14646500376,16.91109056373398 M 6258.146444463042,13.91109056384812 M 6288.146444462309,13.910885156505628 M 6288.146465003018,16.910885156392396 M 6318.146465002284,16.910679749052633 M 6318.146444461576,13.910679749164501 M 6348.1464444608355,13.910474341827012 M 6348.146465001556,16.910474341712415 M 6378.14646500081,16.910268934373107 M 6378.146444460102,13.910268934486794 M 6408.146444459369,13.910063527148395 M 6408.146465000082,16.91006352703471 M 6408.146807345264,66.91006352516933 M 6411.146807345185,66.91004298443886 M 6411.14749203555,166.9100429808177 M 6408.147492035629,166.91006352155318 M 6408.148176725996,266.9100635180521 M 6411.1481767259265,266.91004297732115 M 6411.14886141629,366.91004297392783 M 6408.1488614163645,366.91006351465785 M 6408.149546106732,466.91006351135456 M 6411.149546106653,466.9100429706241 M 6411.150230797031,566.9100429674018 M 6408.150230797097,566.9100635081336 M 6408.150915487473,666.9100635049758 M 6411.150915487384,666.9100429642513 M 6411.151600177756,766.9100429611635 M 6408.151600177835,766.9100635018908 M 6408.151942523014,816.9100635003642 M 6408.151963063737,819.9100635002751 M 6378.151963064451,819.9102689075439 M 6378.1519425237475,816.910268907633 M 6348.151942524497,816.9104743149051 M 6348.151963065204,819.9104743148082 M 6318.151963065928,819.9106797220852 M 6318.151942525226,816.9106797221739 M 6288.151942525945,816.9108851294504 M 6288.151963066668,819.9108851293545 M 6258.151963067402,819.9110905366256 M 6258.1519425267,816.9110905367152 M 6228.151942527424,816.9112959439894 M 6228.151963068134,819.9112959438976 M 6198.151963068862,819.9115013511719 M 6198.1519425281585,816.9115013512633 M 6168.151942528882,816.9117067585385 M 6168.151963069598,819.9117067584457 M 6138.1519630703315,819.9119121657172 M 6138.151942529617,816.9119121658105 M 6109.351942530313,816.9121093567956 M 6109.346465008346,910.0000000000582 M 6138.863274707865,852.0283214629949 M 6134.363274707882,852.0283214630485 M 6133.198589004926,851.874987681364 M 6132.113274707891,851.4254357801105 M 6131.181294192555,850.7103019784358 M 6130.466160390866,849.7783214631118 M 6130.016608489596,848.6930071660863 M 6129.863274707896,847.5283214631345 M 6130.016608489594,846.3636357601808 M 6130.466160390861,845.2783214631436 M 6131.181294192548,844.3463409478031 M 6132.113274707883,843.6312071461052 M 6133.198589004916,843.1816552448254 M 6134.363274707873,843.0283214631131 M 6158.863274707772,843.0283214628207 M 6158.863274707768,840.0283214628412 M 6178.863274707686,840.0283214626033 M 6178.86327470769,843.0283214625824 M 6198.863274707607,843.0283214623464 M 6198.8632747076035,840.0283214623669 M 6218.863274707521,840.0283214621336 M 6218.863274707524,843.0283214621127 M 6238.863274707441,843.0283214618794 M 6238.863274707446,848.0283214618453 M 6138.863274707859,848.0283214630235 M 6140.672978871237,837.4099727615603 M 6136.1729788712555,837.4099727616122 M 6135.008293168299,837.2566389799294 M 6133.922978871264,836.8070870786755 M 6132.990998355928,836.0919532769994 M 6132.27586455424,835.1599727616772 M 6131.826312652969,834.0746584646522 M 6131.672978871269,832.9099727617013 M 6131.826312652967,831.7452870587449 M 6132.2758645542335,830.6599727617104 M 6132.990998355921,829.7279922463676 M 6133.9229788712555,829.012858444672 M 6135.00829316829,828.5633065433908 M 6136.172978871246,828.4099727616785 M 6160.672978871145,828.4099727613861 M 6160.672978871142,825.4099727614062 M 6180.67297887106,825.4099727611688 M 6180.672978871064,828.4099727611451 M 6200.67297887098,828.4099727609082 M 6200.672978870976,825.4099727609291 M 6220.6729788708935,825.4099727606945 M 6220.672978870897,828.4099727606731 M 6240.672978870814,828.4099727604375 M 6240.67297887082,833.409972760403 M 6140.672978871233,833.4099727615885 M 6385.4721787134395,899.9271360008042 M 6385.318844931742,901.0918217037602 M 6384.869293030475,902.1771360007979 M 6384.154159228788,903.1091165161397 M 6383.222178713453,903.8242503178362 M 6382.1368644164195,904.2738022191165 M 6380.972178713463,904.4271360008261 M 6273.472178713905,904.4271360020261 M 6273.472178713897,895.427136002083 M 6380.972178713453,895.4271360008802 M 6382.1368644164095,895.5804697825656 M 6383.222178713443,896.0300216838241 M 6384.154159228781,896.7451554854965 M 6384.86929303047,897.6771360008247 M 6385.318844931739,898.762450297852 M 6239.567413063196,882.9728041714939 M 6239.414079281496,884.1374898744498 M 6238.96452738023,885.222804171487 M 6238.249393578542,886.1547846868284 M 6237.317413063209,886.8699184885245 M 6236.232098766175,887.3194703898052 M 6235.067413063219,887.4728041715161 M 6127.56741306366,887.472804172769 M 6127.567413063653,878.4728041728326 M 6235.067413063208,878.4728041715771 M 6236.232098766164,878.6261379532611 M 6237.317413063199,879.0756898545151 M 6238.249393578537,879.7908236561884 M 6238.964527380225,880.7228041715161 M 6239.414079281494,881.8081184685425 M 6241.564151796383,858.0721444920164 M 6241.410818014685,859.2368301949723 M 6240.961266113418,860.3221444920086 M 6240.24613231173,861.25412500735 M 6239.314151796396,861.9692588090456 M 6238.228837499362,862.4188107103269 M 6237.064151796406,862.5721444920387 M 6129.564151796849,862.572144493302 M 6129.56415179684,853.5721444933661 M 6237.064151796396,853.5721444920996 M 6238.228837499352,853.7254782737823 M 6239.314151796386,854.1750301750399 M 6240.246132311724,854.8901639767123 M 6240.961266113412,855.8221444920387 M 6241.410818014683,856.9074587890636 M 6255.832667930671,869.2272335216553 M 6395.8326679300935,869.2272335200751 M 6395.832667930097,872.2272335200573 M 6398.832667930087,872.2272335200241 M 6398.83266793009,875.2272335200073 M 6395.832667930101,875.22723352004 M 6395.832667930103,878.227233520021 M 6255.832667930681,878.2272335215976 M 6255.832667930677,875.2272335216171 M 6252.83266793069,875.2272335216503 M 6252.832667930688,872.2272335216712 M 6255.832667930674,872.2272335216367 M 6256.290941064277,824.2055746341566 M 6396.2909410637,824.2055746325527 M 6396.290941063703,827.2055746325345 M 6399.290941063689,827.2055746325013 M 6399.290941063693,830.2055746324818 M 6396.290941063707,830.205574632515 M 6396.290941063709,833.2055746324972 M 6256.290941064286,833.205574634097 M 6256.290941064283,830.2055746341148 M 6253.290941064294,830.2055746341512 M 6253.2909410642915,827.2055746341721 M 6256.290941064279,827.2055746341371 M 6257.79049425005,840.9502438231439 M 6257.790494250045,837.9502438231661 M 6397.790494249468,837.9502438215686 M 6397.7904942494715,840.9502438215495 M 6400.790494249459,840.9502438215163 M 6400.790494249465,846.950243821479 M 6397.790494249478,846.9502438215131 M 6397.790494249484,852.9502438214763 M 6257.790494250063,852.9502438230638 M 6257.790494250055,846.9502438231038 M 6254.790494250068,846.9502438231389 M 6254.790494250061,840.9502438231789 M 6256.310303795214,882.9090702311546 M 6396.310303794637,882.9090702295825 M 6396.3103037946385,885.9090702295653 M 6399.310303794628,885.9090702295312 M 6399.310303794632,888.9090702295134 M 6396.310303794642,888.9090702295466 M 6396.310303794646,891.9090702295284 M 6256.310303795223,891.9090702310973 M 6256.31030379522,888.9090702311164 M 6253.310303795233,888.9090702311514 M 6253.31030379523,885.9090702311714 M 6256.310303795217,885.9090702311355 M 6560.29493773149,873.8283649792243 M 6700.294937730914,873.8283649777759 M 6700.294937730922,881.8283649777345 M 6703.2949377309105,881.8283649777036 M 6703.2949377309305,901.8283649776067 M 6700.294937730945,901.8283649776354 M 6700.29493773095,906.8283649776126 M 6560.294937731525,906.8283649790451 M 6560.294937731521,901.8283649790706 M 6557.2949377315335,901.8283649791024 M 6557.294937731513,881.8283649792093 M 6560.294937731499,881.828364979177 M 6241.805352676929,870.8004042789257 M 6241.65201889523,871.9650899818816 M 6241.202466993964,873.050404278918 M 6240.487333192275,873.9823847942603 M 6239.555352676942,874.697518595955 M 6238.470038379908,875.1470704972371 M 6237.305352676951,875.300404278948 M 6129.805352677394,875.3004042802054 M 6129.805352677386,866.3004042802681 M 6237.305352676942,866.300404279009 M 6238.470038379897,866.4537380606935 M 6239.555352676931,866.9032899619488 M 6240.487333192269,867.6184237636216 M 6241.202466993958,868.550404278948 M 6241.652018895228,869.6357185759721 M 6560.8680443126705,834.2551102429793 M 6700.868044312094,834.2551102415141 M 6700.868044312103,842.2551102414732 M 6703.868044312089,842.2551102414413 M 6703.868044312112,862.2551102413413 M 6700.868044312123,862.255110241374 M 6700.868044312128,867.255110241349 M 6560.868044312705,867.2551102428001 M 6560.8680443127,862.2551102428265 M 6557.868044312712,862.2551102428574 M 6557.8680443126905,842.2551102429675 M 6560.868044312678,842.2551102429356 M 6402.461587837565,869.4724333045215 M 6554.46158783694,869.4724333028771 M 6554.461587836975,902.4724333026998 M 6551.461587836989,902.4724333027298 M 6551.461587836973,887.4724333028103 M 6548.461587836986,887.4724333028421 M 6548.461587837004,905.4724333027457 M 6408.461587837581,905.4724333042413 M 6408.461587837559,887.4724333043587 M 6405.461587837572,887.4724333043914 M 6405.461587837588,902.4724333042923 M 6402.461587837599,902.4724333043264 M 6257.550132554,856.1278912431922 M 6397.550132553421,856.127891241606 M 6397.550132553425,859.1278912415873 M 6400.550132553415,859.1278912415546 M 6400.550132553419,862.1278912415355 M 6397.550132553428,862.1278912415701 M 6397.5501325534315,865.1278912415519 M 6257.55013255401,865.127891243133 M 6257.550132554006,862.127891243154 M 6254.550132554017,862.1278912431881 M 6254.550132554015,859.1278912432067 M 6257.550132554003,859.1278912431735 M 6410.583812992101,833.4781226040377 M 6550.583812991525,833.4781226025061 M 6550.583812991533,841.4781226024625 M 6553.583812991521,841.4781226024293 M 6553.583812991541,861.4781226023183 M 6550.583812991555,861.478122602351 M 6550.58381299156,866.4781226023224 M 6410.583812992136,866.4781226038385 M 6410.583812992131,861.4781226038676 M 6407.583812992145,861.4781226038999 M 6407.583812992123,841.4781226040236 M 6410.58381299211,841.478122603989 "
  />
  <path id="face1-interior"
 style="fill:none;stroke:#00FF00;stroke-width:1;stroke-miterlimit:4;stroke-dasharray:none;stroke-linejoin:round;stroke-linecap:round"
        d="M 6134.363274707882,852.0283214630485 M 6138.863274707865,852.0283214629949 M 6138.863274707859,848.0283214630235 M 6238.863274707446,848.0283214618453 M 6238.863274707441,843.0283214618794 M 6218.863274707524,843.0283214621127 M 6218.863274707521,840.0283214621336 M 6198.8632747076035,840.0283214623669 M 6198.863274707607,843.0283214623464 M 6178.86327470769,843.0283214625824 M 6178.863274707686,840.0283214626033 M 6158.863274707768,840.0283214628412 M 6158.863274707772,843.0283214628207 M 6134.363274707873,843.0283214631131 M 6133.198589004916,843.1816552448254 M 6132.113274707883,843.6312071461052 M 6131.181294192548,844.3463409478031 M 6130.466160390861,845.2783214631436 M 6130.016608489594,846.3636357601808 M 6129.863274707896,847.5283214631345 M 6130.016608489596,848.6930071660863 M 6130.466160390866,849.7783214631118 M 6131.181294192555,850.7103019784358 M 6132.113274707891,851.4254357801105 M 6133.198589004926,851.874987681364 M 6132.8632747078855,849.0283214630881 M 6132.863274707882,846.028321463109 M 6135.86327470787,846.0283214630726 M 6135.863274707874,849.0283214630513 "
  />
  <path id="face2-interior"
 style="fill:none;stroke:#00FF00;stroke-width:1;stroke-miterlimit:4;stroke-dasharray:none;stroke-linejoin:round;stroke-linecap:round"
        d="M 6395.8326679300935,869.2272335200751 M 6255.832667930671,869.2272335216553 M 6255.832667930674,872.2272335216367 M 6252.832667930688,872.2272335216712 M 6252.83266793069,875.2272335216503 M 6255.832667930677,875.2272335216171 M 6255.832667930681,878.2272335215976 M 6395.832667930103,878.227233520021 M 6395.832667930101,875.22723352004 M 6398.83266793009,875.2272335200073 M 6398.832667930087,872.2272335200241 M 6395.832667930097,872.2272335200573 "
  />
  <path id="face3-interior"
 style="fill:none;stroke:#00FF00;stroke-width:1;stroke-miterlimit:4;stroke-dasharray:none;stroke-linejoin:round;stroke-linecap:round"
        d="M 6257.790494250045,837.9502438231661 M 6257.79049425005,840.9502438231439 M 6254.790494250061,840.9502438231789 M 6254.790494250068,846.9502438231389 M 6257.790494250055,846.9502438231038 M 6257.790494250063,852.9502438230638 M 6397.790494249484,852.9502438214763 M 6397.790494249478,846.9502438215131 M 6400.790494249465,846.950243821479 M 6400.790494249459,840.9502438215163 M 6397.7904942494715,840.9502438215495 M 6397.790494249468,837.9502438215686 "
  />
  <path id="face4-interior"
 style="fill:none;stroke:#00FF00;stroke-width:1;stroke-miterlimit:4;stroke-dasharray:none;stroke-linejoin:round;stroke-linecap:round"
        d="M 6396.310303794637,882.9090702295825 M 6256.310303795214,882.9090702311546 M 6256.310303795217,885.9090702311355 M 6253.31030379523,885.9090702311714 M 6253.310303795233,888.9090702311514 M 6256.31030379522,888.9090702311164 M 6256.310303795223,891.9090702310973 M 6396.310303794646,891.9090702295284 M 6396.310303794642,888.9090702295466 M 6399.310303794632,888.9090702295134 M 6399.310303794628,885.9090702295312 M 6396.3103037946385,885.9090702295653 "
  />
  <path id="face5-interior"
 style="fill:none;stroke:#00FF00;stroke-width:1;stroke-miterlimit:4;stroke-dasharray:none;stroke-linejoin:round;stroke-linecap:round"
        d="M 6241.65201889523,871.9650899818816 M 6241.805352676929,870.8004042789257 M 6241.652018895228,869.6357185759721 M 6241.202466993958,868.550404278948 M 6240.487333192269,867.6184237636216 M 6239.555352676931,866.9032899619488 M 6238.470038379897,866.4537380606935 M 6237.305352676942,866.300404279009 M 6129.805352677386,866.3004042802681 M 6129.805352677394,875.3004042802054 M 6237.305352676951,875.300404278948 M 6238.470038379908,875.1470704972371 M 6239.555352676942,874.697518595955 M 6240.487333192275,873.9823847942603 M 6241.202466993964,873.050404278918 M 6238.805352676942,872.3004042789485 M 6235.8053526769545,872.3004042789853 M 6235.805352676952,869.3004042790039 M 6238.805352676938,869.3004042789703 M 6192.805352677132,872.3004042794855 M 6192.805352677129,869.3004042795051 M 6202.805352677086,869.3004042793882 M 6202.805352677091,872.3004042793664 M 6222.8053526770045,869.3004042791558 M 6222.805352677009,872.3004042791363 M 6212.805352677049,872.3004042792504 M 6212.805352677045,869.3004042792718 M 6182.8053526771755,872.3004042795992 M 6172.805352677215,872.3004042797184 M 6172.805352677211,869.3004042797388 M 6182.80535267717,869.3004042796229 M 6162.805352677252,869.3004042798566 M 6162.8053526772555,872.300404279838 M 6152.8053526772965,872.3004042799548 M 6152.805352677295,869.3004042799744 M 6142.805352677335,869.3004042800926 M 6142.805352677338,872.3004042800717 M 6132.805352677379,872.3004042801927 M 6132.805352677377,869.3004042802113 "
  />
  <path id="face6-interior"
 style="fill:none;stroke:#00FF00;stroke-width:1;stroke-miterlimit:4;stroke-dasharray:none;stroke-linejoin:round;stroke-linecap:round"
        d="M 6700.868044312094,834.2551102415141 M 6560.8680443126705,834.2551102429793 M 6560.868044312678,842.2551102429356 M 6557.8680443126905,842.2551102429675 M 6557.868044312712,862.2551102428574 M 6560.8680443127,862.2551102428265 M 6560.868044312705,867.2551102428001 M 6700.868044312128,867.255110241349 M 6700.868044312123,862.255110241374 M 6703.868044312112,862.2551102413413 M 6703.868044312089,842.2551102414413 M 6700.868044312103,842.2551102414732 "
  />
  <path id="face7-interior"
 style="fill:none;stroke:#00FF00;stroke-width:1;stroke-miterlimit:4;stroke-dasharray:none;stroke-linejoin:round;stroke-linecap:round"
        d="M 6397.550132553421,856.127891241606 M 6257.550132554,856.1278912431922 M 6257.550132554003,859.1278912431735 M 6254.550132554015,859.1278912432067 M 6254.550132554017,862.1278912431881 M 6257.550132554006,862.127891243154 M 6257.55013255401,865.127891243133 M 6397.5501325534315,865.1278912415519 M 6397.550132553428,862.1278912415701 M 6400.550132553419,862.1278912415355 M 6400.550132553415,859.1278912415546 M 6397.550132553425,859.1278912415873 "
  />
  <path id="face8-interior"
 style="fill:none;stroke:#00FF00;stroke-width:1;stroke-miterlimit:4;stroke-dasharray:none;stroke-linejoin:round;stroke-linecap:round"
        d="M 6385.318844931742,901.0918217037602 M 6385.4721787134395,899.9271360008042 M 6385.318844931739,898.762450297852 M 6384.86929303047,897.6771360008247 M 6384.154159228781,896.7451554854965 M 6383.222178713443,896.0300216838241 M 6382.1368644164095,895.5804697825656 M 6380.972178713453,895.4271360008802 M 6273.472178713897,895.427136002083 M 6273.472178713905,904.4271360020261 M 6380.972178713463,904.4271360008261 M 6382.1368644164195,904.2738022191165 M 6383.222178713453,903.8242503178362 M 6384.154159228788,903.1091165161397 M 6384.869293030475,902.1771360007979 M 6382.472178713454,901.427136000827 M 6379.472178713466,901.4271360008615 M 6379.472178713462,898.4271360008797 M 6382.472178713451,898.4271360008456 M 6336.472178713643,901.4271360013395 M 6336.47217871364,898.4271360013572 M 6346.472178713598,898.4271360012449 M 6346.472178713601,901.4271360012267 M 6366.472178713515,898.4271360010225 M 6366.47217871352,901.4271360010057 M 6356.47217871356,901.4271360011144 M 6356.472178713557,898.4271360011335 M 6326.472178713686,901.4271360014486 M 6316.472178713725,901.4271360015605 M 6316.472178713722,898.4271360015782 M 6326.472178713682,898.4271360014673 M 6306.472178713764,898.427136001691 M 6306.472178713769,901.4271360016728 M 6296.472178713808,901.4271360017856 M 6296.472178713806,898.4271360018038 M 6286.472178713847,898.4271360019175 M 6286.47217871385,901.4271360018975 M 6276.4721787138915,901.4271360020107 M 6276.472178713888,898.4271360020293 "
  />
  <path id="face9-interior"
 style="fill:none;stroke:#00FF00;stroke-width:1;stroke-miterlimit:4;stroke-dasharray:none;stroke-linejoin:round;stroke-linecap:round"
        d="M 6700.294937730914,873.8283649777759 M 6560.29493773149,873.8283649792243 M 6560.294937731499,881.828364979177 M 6557.294937731513,881.8283649792093 M 6557.2949377315335,901.8283649791024 M 6560.294937731521,901.8283649790706 M 6560.294937731525,906.8283649790451 M 6700.29493773095,906.8283649776126 M 6700.294937730945,901.8283649776354 M 6703.2949377309305,901.8283649776067 M 6703.2949377309105,881.8283649777036 M 6700.294937730922,881.8283649777345 "
  />
  <path id="face10-interior"
 style="fill:none;stroke:#00FF00;stroke-width:1;stroke-miterlimit:4;stroke-dasharray:none;stroke-linejoin:round;stroke-linecap:round"
        d="M 6554.46158783694,869.4724333028771 M 6402.461587837565,869.4724333045215 M 6402.461587837599,902.4724333043264 M 6405.461587837588,902.4724333042923 M 6405.461587837572,887.4724333043914 M 6408.461587837559,887.4724333043587 M 6408.461587837581,905.4724333042413 M 6548.461587837004,905.4724333027457 M 6548.461587836986,887.4724333028421 M 6551.461587836973,887.4724333028103 M 6551.461587836989,902.4724333027298 M 6554.461587836975,902.4724333026998 "
  />
  <path id="face11-interior"
 style="fill:none;stroke:#00FF00;stroke-width:1;stroke-miterlimit:4;stroke-dasharray:none;stroke-linejoin:round;stroke-linecap:round"
        d="M 6550.583812991525,833.4781226025061 M 6410.583812992101,833.4781226040377 M 6410.58381299211,841.478122603989 M 6407.583812992123,841.4781226040236 M 6407.583812992145,861.4781226038999 M 6410.583812992131,861.4781226038676 M 6410.583812992136,866.4781226038385 M 6550.58381299156,866.4781226023224 M 6550.583812991555,861.478122602351 M 6553.583812991541,861.4781226023183 M 6553.583812991521,841.4781226024293 M 6550.583812991533,841.4781226024625 "
  />
  <path id="face12-interior"
 style="fill:none;stroke:#00FF00;stroke-width:1;stroke-miterlimit:4;stroke-dasharray:none;stroke-linejoin:round;stroke-linecap:round"
        d="M 6136.1729788712555,837.4099727616122 M 6140.672978871237,837.4099727615603 M 6140.672978871233,833.4099727615885 M 6240.67297887082,833.409972760403 M 6240.672978870814,828.4099727604375 M 6220.672978870897,828.4099727606731 M 6220.6729788708935,825.4099727606945 M 6200.672978870976,825.4099727609291 M 6200.67297887098,828.4099727609082 M 6180.672978871064,828.4099727611451 M 6180.67297887106,825.4099727611688 M 6160.672978871142,825.4099727614062 M 6160.672978871145,828.4099727613861 M 6136.172978871246,828.4099727616785 M 6135.00829316829,828.5633065433908 M 6133.9229788712555,829.012858444672 M 6132.990998355921,829.7279922463676 M 6132.2758645542335,830.6599727617104 M 6131.826312652967,831.7452870587449 M 6131.672978871269,832.9099727617013 M 6131.826312652969,834.0746584646522 M 6132.27586455424,835.1599727616772 M 6132.990998355928,836.0919532769994 M 6133.922978871264,836.8070870786755 M 6135.008293168299,837.2566389799294 M 6134.672978871259,834.4099727616526 M 6134.672978871256,831.409972761674 M 6137.672978871244,831.4099727616394 M 6137.672978871247,834.4099727616172 "
  />
  <path id="face13-interior"
 style="fill:none;stroke:#00FF00;stroke-width:1;stroke-miterlimit:4;stroke-dasharray:none;stroke-linejoin:round;stroke-linecap:round"
        d="M 6637.945832150885,10.002344681412978 M 6689.345434459321,10.004763532554534 M 6709.346465004902,10.0 M 6709.347910290611,826.000137880274 M 6416.85860328677,826.001085717271 M 6416.857015311292,10.00437045462877 M 6450.918004493695,817.9998762523646 M 6450.917979068441,821.0008492844368 M 6484.979269382246,821.0002129659097 M 6484.979401757486,817.9998515110783 M 6519.040810311893,821.002127664598 M 6553.102201279846,821.0020938547077 M 6553.102233177028,817.9998901635663 M 6519.040835737869,817.9999128957215 M 6587.163641555304,821.0034060577441 M 6621.225031885582,821.0033712185273 M 6621.225064650786,817.9999294340241 M 6587.163666982041,817.9999495531888 M 6689.34862712129,821.0082093929364 M 6689.347904598393,818.0047028043732 M 6655.286498226217,817.9999862247723 M 6655.286472798676,821.0046844632379 M 6484.9798399171605,17.99985483620958 M 6484.979803603368,15.00094533150832 M 6450.9183798186805,15.000813728741832 M 6450.918406232774,17.999876295922604 M 6553.102669332975,17.999912220515398 M 6553.102634954054,15.002215412023816 M 6519.041211062134,15.00209208872684 M 6519.041237476945,17.99991291925471 M 6621.225499911734,17.999956433053285 M 6621.225465862788,15.003490781534765 M 6587.164042305544,15.003370467861714 M 6587.164068721117,17.99994956282626 M 6689.348272993366,18.004667204958423 M 6689.348289170999,15.004667205003898 M 6655.286873548912,15.004648865516174 M 6655.286899965291,17.999986226627698 "
  />
  <path id="face14-interior"
 style="fill:none;stroke:#00FF00;stroke-width:1;stroke-miterlimit:4;stroke-dasharray:none;stroke-linejoin:round;stroke-linecap:round"
        d="M 6396.2909410637,824.2055746325527 M 6256.290941064277,824.2055746341566 M 6256.290941064279,827.2055746341371 M 6253.2909410642915,827.2055746341721 M 6253.290941064294,830.2055746341512 M 6256.290941064283,830.2055746341148 M 6256.290941064286,833.205574634097 M 6396.290941063709,833.2055746324972 M 6396.290941063707,830.205574632515 M 6399.290941063693,830.2055746324818 M 6399.290941063689,827.2055746325013 M 6396.290941063703,827.2055746325345 "
  />
  <path id="face15-interior"
 style="fill:none;stroke:#00FF00;stroke-width:1;stroke-miterlimit:4;stroke-dasharray:none;stroke-linejoin:round;stroke-linecap:round"
        d="M 6378.14646500081,16.910268934373107 M 6348.146465001556,16.910474341712415 M 6348.1464444608355,13.910474341827012 M 6318.146444461576,13.910679749164501 M 6318.146465002284,16.910679749052633 M 6288.146465003018,16.910885156392396 M 6288.146444462309,13.910885156505628 M 6258.146444463042,13.91109056384812 M 6258.14646500376,16.91109056373398 M 6228.146465004487,16.91129597107647 M 6228.146444463764,13.91129597119425 M 6198.146444464512,13.911501378538105 M 6198.146465005221,16.911501378418507 M 6168.146465005944,16.911706785767365 M 6168.146444465236,13.91170678588287 M 6138.146444465975,13.911912193232638 M 6138.146465006688,16.91191219311213 M 6109.346465007386,16.912109384164523 M 6109.351942530313,816.9121093567956 M 6138.151942529617,816.9119121658105 M 6138.1519630703315,819.9119121657172 M 6168.151963069598,819.9117067584457 M 6168.151942528882,816.9117067585385 M 6198.1519425281585,816.9115013512633 M 6198.151963068862,819.9115013511719 M 6228.151963068134,819.9112959438976 M 6228.151942527424,816.9112959439894 M 6258.1519425267,816.9110905367152 M 6258.151963067402,819.9110905366256 M 6288.151963066668,819.9108851293545 M 6288.151942525945,816.9108851294504 M 6318.151942525226,816.9106797221739 M 6318.151963065928,819.9106797220852 M 6348.151963065204,819.9104743148082 M 6348.151942524497,816.9104743149051 M 6378.1519425237475,816.910268907633 M 6378.151963064451,819.9102689075439 M 6408.151963063737,819.9100635002751 M 6408.151942523014,816.9100635003642 M 6408.151600177835,766.9100635018908 M 6411.151600177756,766.9100429611635 M 6411.150915487384,666.9100429642513 M 6408.150915487473,666.9100635049758 M 6408.150230797097,566.9100635081336 M 6411.150230797031,566.9100429674018 M 6411.149546106653,466.9100429706241 M 6408.149546106732,466.91006351135456 M 6408.1488614163645,366.91006351465785 M 6411.14886141629,366.91004297392783 M 6411.1481767259265,266.91004297732115 M 6408.148176725996,266.9100635180521 M 6408.147492035629,166.91006352155318 M 6411.14749203555,166.9100429808177 M 6411.146807345185,66.91004298443886 M 6408.146807345264,66.91006352516933 M 6408.146465000082,16.91006352703471 M 6408.146444459369,13.910063527148395 M 6378.146444460102,13.910268934486794 M 6148.149908998981,519.9118437061679 M 6148.14988845827,516.9118437062698 M 6168.149888457782,516.9117067680695 M 6168.149908998499,519.9117067679708 M 6268.1499089960535,519.9110220769917 M 6248.149908996552,519.9111590151865 M 6248.149888455835,516.9111590152834 M 6268.149888455341,516.911022077089 M 6348.1499089941,519.9104743242137 M 6348.1498884533885,516.9104743243124 M 6368.149888452892,516.9103373861176 M 6368.149908993606,519.9103373860225 "
  />
  <path id="face16-interior"
 style="fill:none;stroke:#00FF00;stroke-width:1;stroke-miterlimit:4;stroke-dasharray:none;stroke-linejoin:round;stroke-linecap:round"
        d="M 6239.414079281496,884.1374898744498 M 6239.567413063196,882.9728041714939 M 6239.414079281494,881.8081184685425 M 6238.964527380225,880.7228041715161 M 6238.249393578537,879.7908236561884 M 6237.317413063199,879.0756898545151 M 6236.232098766164,878.6261379532611 M 6235.067413063208,878.4728041715771 M 6127.567413063653,878.4728041728326 M 6127.56741306366,887.472804172769 M 6235.067413063219,887.4728041715161 M 6236.232098766175,887.3194703898052 M 6237.317413063209,886.8699184885245 M 6238.249393578542,886.1547846868284 M 6238.96452738023,885.222804171487 M 6236.567413063209,884.472804171518 M 6233.5674130632215,884.4728041715543 M 6233.567413063218,881.472804171573 M 6236.567413063205,881.4728041715389 M 6190.5674130634,884.4728041720509 M 6190.567413063394,881.4728041720709 M 6200.567413063352,881.4728041719554 M 6200.567413063358,884.4728041719341 M 6220.567413063271,881.472804171724 M 6220.567413063276,884.4728041717044 M 6210.567413063316,884.4728041718186 M 6210.5674130633115,881.4728041718395 M 6180.567413063442,884.4728041721664 M 6170.567413063482,884.4728041722833 M 6170.567413063476,881.4728041723056 M 6180.567413063437,881.4728041721878 M 6160.567413063519,881.472804172422 M 6160.5674130635225,884.4728041724024 M 6150.567413063564,884.4728041725202 M 6150.567413063562,881.4728041725393 M 6140.567413063602,881.4728041726594 M 6140.567413063605,884.4728041726357 M 6130.567413063646,884.4728041727567 M 6130.5674130636435,881.4728041727763 "
  />
  <path id="face17-interior"
 style="fill:none;stroke:#00FF00;stroke-width:1;stroke-miterlimit:4;stroke-dasharray:none;stroke-linejoin:round;stroke-linecap:round"
        d="M 6241.410818014685,859.2368301949723 M 6241.564151796383,858.0721444920164 M 6241.410818014683,856.9074587890636 M 6240.961266113412,855.8221444920387 M 6240.246132311724,854.8901639767123 M 6239.314151796386,854.1750301750399 M 6238.228837499352,853.7254782737823 M 6237.064151796396,853.5721444920996 M 6129.56415179684,853.5721444933661 M 6129.564151796849,862.572144493302 M 6237.064151796406,862.5721444920387 M 6238.228837499362,862.4188107103269 M 6239.314151796396,861.9692588090456 M 6240.24613231173,861.25412500735 M 6240.961266113418,860.3221444920086 M 6238.564151796398,859.5721444920391 M 6235.5641517964095,859.5721444920755 M 6235.564151796406,856.5721444920964 M 6238.564151796394,856.5721444920614 M 6192.564151796587,859.5721444925771 M 6192.564151796583,856.572144492598 M 6202.5641517965405,856.5721444924811 M 6202.564151796545,859.5721444924593 M 6222.564151796459,856.5721444922469 M 6222.564151796463,859.5721444922269 M 6212.564151796503,859.5721444923438 M 6212.5641517965,856.5721444923647 M 6182.5641517966305,859.5721444926926 M 6172.564151796669,859.5721444928131 M 6172.564151796665,856.572144492834 M 6182.564151796625,856.5721444927171 M 6162.564151796707,856.5721444929518 M 6162.564151796711,859.5721444929313 M 6152.564151796752,859.5721444930487 M 6152.564151796749,856.5721444930691 M 6142.564151796791,856.5721444931883 M 6142.564151796793,859.5721444931669 M 6132.564151796834,859.5721444932883 M 6132.5641517968315,856.5721444933083 "
  />
</svg>
