<?xml version="1.0" standalone="no"?>
<!DOCTYPE svg PUBLIC "-//W3C//DTD SVG 1.1//EN" "http://www.w3.org/Graphics/SVG/1.1/DTD/svg11.dtd">
<svg width="6533.521361661522mm" height="919.9999999759234mm"
 viewBox="0 0 6533.521361661522 919.9999999759234"
 xmlns="http://www.w3.org/2000/svg" version="1.1"
 xmlns:xlink="http://www.w3.org/1999/xlink">
<desc>Output from Flights of Ideas SVG Sketchup Plugin</desc>

  <path id="face0-cut"
 style="fill:none;stroke:#0000FF;stroke-width:1;stroke-miterlimit:4;stroke-dasharray:none;stroke-linejoin:round;stroke-linecap:round"
        d="M 5933.419629967035,414.3897102191654 M 5933.419629967906,514.3897102160636 M 5966.419629967817,514.3897102163769 M 5966.419629967842,517.3897102162887 M 5996.419629967759,517.3897102165729 M 5996.419629967732,514.3897102166629 M 6026.4196299676505,514.3897102169512 M 6026.419629967679,517.3897102168603 M 6056.419629967593,517.3897102171495 M 6056.419629967568,514.3897102172396 M 6086.419629967486,514.389710217532 M 6086.419629967511,517.3897102174392 M 6116.419629967428,517.3897102177334 M 6116.4196299674,514.3897102178248 M 6146.4196299673185,514.3897102181186 M 6146.419629967344,517.3897102180267 M 6176.419629967262,517.3897102183228 M 6176.419629967237,514.3897102184151 M 6206.419629967155,514.3897102187143 M 6206.419629967179,517.3897102186215 M 6235.2142803796405,517.3897102189085 M 6237.999696931305,518.503906333216 M 6250.650365629427,486.87890633487814 M 6247.864949077763,485.764710220054 M 6260.515617775885,454.1397102212313 M 6263.3010358813835,455.253906944984 M 6275.951704579508,423.62890694657744 M 6273.166286474008,422.51471022243913 M 6285.81695517213,390.88971022367514 M 6288.602374354259,392.00390736599 M 6301.253043052382,360.37890736751433 M 6298.467623870254,359.26471022494707 M 6311.118292568375,327.6397102262504 M 6313.903712349926,328.75390759624406 M 6326.554381048047,297.12890759769243 M 6323.768961266496,296.0147102275905 M 6336.419629964619,264.3897102289661 M 6323.771271832007,232.7647102300666 M 6326.556726033228,231.65060083821572 M 6313.908367900616,200.0256008391234 M 6311.122913699399,201.13971023119439 M 6298.474555566789,169.51471023234535 M 6301.2600061789235,168.4006022552121 M 6288.6116480463115,136.77560225589923 M 6285.826197434178,137.88971023352633 M 6273.177839301567,106.26471023473505 M 6275.963283447661,105.1506048258102 M 6263.31492531505,73.52560482629951 M 6260.529481168955,74.63971023597333 M 6247.881123036343,43.01471023724571 M 6250.666560403939,41.900614892676 M 6238.463782522808,11.389710190069309 M 6235.232764903735,11.389710238546286 M 6206.419629962776,11.389710238139287 M 6206.419629962802,14.389710237996951 M 6176.419629962884,14.389710237577674 M 6176.4196299628575,11.3897102377191 M 6146.419629962941,11.389710237302097 M 6146.4196299629675,14.389710237159761 M 6116.41962996305,14.389710236745032 M 6116.419629963024,11.389710236884639 M 6086.419629963106,11.389710236471274 M 6086.419629963132,14.389710236331666 M 6056.419629963215,14.389710235922394 M 6056.419629963188,11.389710236057454 M 6026.419629963271,11.389710235650455 M 6026.419629963299,14.389710235511757 M 5996.41962996338,14.389710235104758 M 5996.419629963355,11.389710235240727 M 5966.419629963437,11.389710234835547 M 5966.419629963464,14.389710234699123 M 5933.419629963552,14.389710234258018 M 5933.419629964423,114.38971023001477 M 5936.419629964417,114.3897102300516 M 5936.419629965287,214.38971022614396 M 5933.419629965294,214.38971022610986 M 5933.419629966164,314.3897102225051 M 5936.419629966156,314.3897102225378 M 5936.419629967028,414.3897102191959 "
  />
  <path id="face1-cut"
 style="fill:none;stroke:#0000FF;stroke-width:1;stroke-miterlimit:4;stroke-dasharray:none;stroke-linejoin:round;stroke-linecap:round"
        d="M 6300.751279033197,372.4389631618201 M 6248.751279034452,502.4389631568365 M 6254.7512790344335,502.43896315689744 M 6254.751279034457,505.4389631567883 M 6284.751279034379,505.43896315709753 M 6284.751279034404,508.43896315701477 M 6254.751279034483,508.43896315670554 M 6254.7512790345245,513.4389631565323 M 6314.7512790343635,513.4389631571476 M 6314.751279033157,372.4389631619779 M 6305.751279033182,372.4389631618765 M 6305.751279033338,390.4389631612353 M 6302.751279033346,390.4389631612021 M 6302.751279033191,372.4389631618419 M 6266.751279034324,493.438963157314 L 6266.751279034152,473.43896315797065 L 6269.751279034144,473.4389631580025 L 6269.751279034314,493.43896315734537 L 6266.751279034324,493.438963157314 M 6287.7512790338,438.438963159369 L 6284.751279033804,438.43896315933625 L 6284.751279033779,435.438963159439 L 6287.751279033773,435.43896315947177 L 6287.7512790338,438.438963159369 M 6290.751279033747,433.4389631595718 L 6290.751279033575,413.4389631602612 L 6293.751279033568,413.43896316029304 L 6293.751279033737,433.43896315960365 L 6290.751279033747,433.4389631595718 M 6296.7512790334895,405.4389631606059 L 6299.751279033484,405.43896316063956 L 6299.7512790335095,408.43896316053315 L 6296.751279033515,408.43896316049995 L 6296.7512790334895,405.4389631606059 M 6278.751279034039,463.4389631584281 L 6278.751279033866,443.4389631591025 L 6281.751279033857,443.43896315913435 L 6281.751279034028,463.4389631584613 L 6278.751279034039,463.4389631584281 M 6275.751279034085,468.4389631582312 L 6272.751279034092,468.43896315819893 L 6272.751279034066,465.4389631582999 L 6275.751279034059,465.4389631583299 L 6275.751279034085,468.4389631582312 M 6257.751279034391,498.4389631570589 L 6257.751279034364,495.43896315715574 L 6263.751279034346,495.4389631572185 L 6263.751279034372,498.4389631571212 L 6257.751279034391,498.4389631570589 M 6311.751279033215,378.43896316173004 L 6308.751279033224,378.43896316169594 L 6308.7512790332,375.4389631618019 L 6311.75127903319,375.43896316183645 L 6311.751279033215,378.43896316173004 "
  />
  <path id="face2-cut"
 style="fill:none;stroke:#0000FF;stroke-width:1;stroke-miterlimit:4;stroke-dasharray:none;stroke-linejoin:round;stroke-linecap:round"
        d="M 6337.343244959335,350.3628889918173 M 6324.343244959371,350.36288899166993 M 6324.343244959493,364.3628889911588 M 6321.3432449595,364.3628889911265 M 6321.343244959544,369.36288899094416 M 6340.343244959493,369.36288899115834 M 6340.343244959449,364.36288899133933 M 6337.343244959457,364.3628889913057 M 6329.3432449594,355.3628889915449 L 6329.782584787627,355.0257716844676 L 6330.294206853727,354.8138508858933 L 6330.843244959398,354.74156864801944 L 6331.392283065072,354.81385088590923 L 6331.903905131172,355.02577168449716 L 6332.343244959393,355.3628889915776 L 6332.680362266481,355.802228819784 L 6332.892283065072,356.31385088586967 L 6332.9645653029565,356.8628889915253 L 6332.892283065077,357.411927097181 L 6332.68036226649,357.92354916325985 L 6332.343244959418,358.36288899146757 L 6331.903905131192,358.7000062985244 L 6331.392283065094,358.9119270970973 L 6330.84324495942,358.9842093349703 L 6330.294206853749,358.91192709708 L 6329.782584787648,358.7000062984944 L 6329.3432449594275,358.3628889914344 L 6329.006127652341,357.9235491632053 L 6328.79420685375,357.41192709711913 L 6328.721924615864,356.8628889914644 L 6328.794206853745,356.31385088580964 L 6329.00612765233,355.8022288197317 L 6329.3432449594,355.3628889915449 "
  />
  <path id="face3-cut"
 style="fill:none;stroke:#0000FF;stroke-width:1;stroke-miterlimit:4;stroke-dasharray:none;stroke-linejoin:round;stroke-linecap:round"
        d="M 5936.314932379848,845.0774794407748 M 5936.314932379924,855.0774794405402 M 5933.31493237992,855.0774794405124 M 5933.314932379997,865.0774794402746 M 5936.314932380002,865.0774794403005 M 5936.314932380077,875.0774794400681 M 5933.3149323800735,875.0774794400413 M 5933.31493238015,885.0774794398044 M 5936.314932380155,885.077479439829 M 5936.314932380232,895.0774794395984 M 5933.314932380226,895.0774794395725 M 5933.314932380303,905.0774794393415 M 6516.3149323786965,905.0774794444542 M 6516.31493237862,895.0774713499795 M 6513.314932378629,895.0774713499522 M 6513.314932378553,885.0774713502142 M 6516.314932378544,885.0774713502424 M 6516.314932378467,875.077471350507 M 6513.314932378476,875.077471350477 M 6513.314932378398,865.0774713507421 M 6516.314932378393,865.0774713507712 M 6516.314932378315,855.0774713510395 M 6513.314932378322,855.0774713510114 M 6513.314932378245,845.0774794460158 M 6400.3149199326,845.0774794449426 M 6400.314919932576,842.0774794450235 M 6299.063909408592,842.0774794440808 M 6299.063909408615,845.0774794440003 M 6199.689414671019,845.0774794430936 M 6199.6894146709965,842.0774794431727 M 6100.314919933402,842.07747944228 M 6100.314919933424,845.0774794422059 "
  />
  <path id="face4-cut"
 style="fill:none;stroke:#0000FF;stroke-width:1;stroke-miterlimit:4;stroke-dasharray:none;stroke-linejoin:round;stroke-linecap:round"
        d="M 6337.451661761796,320.82410766655084 M 6324.45166176183,320.8241076664003 M 6324.451661761952,334.8241076658783 M 6321.451661761959,334.8241076658437 M 6321.451661762003,339.82410766565727 M 6340.451661761952,339.8241076658769 M 6340.451661761908,334.8241076660611 M 6337.451661761916,334.82410766602743 M 6329.451661761859,325.8241076662721 L 6329.891001590086,325.4869903591939 L 6330.402623656186,325.2750695606205 L 6330.951661761857,325.20278732274755 L 6331.500699867533,325.27506956063735 L 6332.012321933631,325.48699035922436 L 6332.451661761852,325.8241076663053 L 6332.78877906894,326.26344749451073 L 6333.000699867531,326.7750695605978 L 6333.072982105416,327.3241076662516 L 6333.000699867536,327.87314577190546 L 6332.788779068951,328.3847678379848 L 6332.451661761877,328.82410766619296 L 6332.012321933651,329.1612249732498 L 6331.500699867554,329.37314577182224 L 6330.951661761881,329.44542800969384 L 6330.402623656208,329.3731457718054 L 6329.891001590107,329.1612249732175 L 6329.4516617618865,328.82410766615794 L 6329.1145444548,328.3847678379302 L 6328.9026236562095,327.8731457718445 L 6328.830341418323,327.3241076661898 L 6328.902623656204,326.7750695605346 L 6329.114544454789,326.263447494458 L 6329.451661761859,325.8241076662721 "
  />
  <path id="face5-cut"
 style="fill:none;stroke:#0000FF;stroke-width:1;stroke-miterlimit:4;stroke-dasharray:none;stroke-linejoin:round;stroke-linecap:round"
        d="M 6193.419629967236,519.7441059696089 M 6173.419629967292,519.744105969412 M 6173.419629969232,742.7441059629323 M 6073.419629969509,742.7441059620901 M 6073.419629967568,519.7441059684365 M 6033.419629967678,519.7441059680482 M 6033.419629967704,522.7441059679577 M 5993.419629967814,522.7441059675775 M 5993.419629967788,519.7441059676662 M 5953.419629967897,519.7441059672888 M 5953.419629967926,522.7441059671978 M 5933.419629967978,522.7441059670105 M 5933.419629968326,562.7441059658368 M 5930.419629968335,562.7441059658099 M 5930.419629968508,582.7441059652365 M 5933.419629968501,582.7441059652629 M 5933.419629969198,662.7441059630437 M 5930.419629969205,662.7441059630196 M 5930.419629969378,682.7188117387668 M 5933.419629969371,682.7188117387918 M 5933.419629970064,762.54410596044 M 5930.4196299700725,762.5441059604182 M 5930.419629970248,782.5441059599148 M 5933.419629970242,782.5441059599393 M 5933.41962997058,821.5441059589793 M 6433.419629969205,821.5441059630211 M 6433.419629968868,782.5441059640898 M 6436.419629968857,782.5441059641139 M 6436.419629968683,762.5441059646719 M 6433.419629968694,762.5441059646469 M 6433.419629967997,682.7188117432261 M 6436.41962996799,682.7188117432565 M 6436.419629967813,662.7441059675671 M 6433.419629967824,662.7441059675425 M 6433.419629967126,582.7441059700054 M 6436.419629967118,582.7441059700354 M 6436.419629966946,562.7441059706716 M 6433.419629966951,562.7441059706443 M 6433.419629966607,522.7441059719472 M 6413.419629966658,522.7441059717394 M 6413.419629966633,519.7441059718371 M 6373.419629966744,519.744105971426 M 6373.419629966769,522.7441059713265 M 6333.419629966878,522.7441059709176 M 6333.419629966853,519.7441059710163 M 6293.419629966964,519.7441059706102 M 6293.419629968904,742.7441059639659 M 6193.419629969178,742.7441059631046 M 6186.419629967804,582.7441059676053 L 6183.419629967813,582.744105967573 L 6183.41962996764,562.7441059681796 L 6186.419629967629,562.7441059682078 L 6186.419629967804,582.7441059676053 M 6186.4196299686755,682.718811740976 L 6183.419629968682,682.7188117409501 L 6183.41962996851,662.7441059652338 L 6186.419629968503,662.744105965262 L 6186.4196299686755,682.718811740976 M 6186.419629969361,761.5441059625387 L 6186.419629969536,781.544105962008 L 6183.419629969542,781.5441059619848 L 6183.41962996937,761.5441059625114 L 6186.419629969361,761.5441059625387 "
  />
  <path id="face6-cut"
 style="fill:none;stroke:#0000FF;stroke-width:1;stroke-miterlimit:4;stroke-dasharray:none;stroke-linejoin:round;stroke-linecap:round"
        d="M 6337.728756790559,407.0873717361924 M 6324.728756790595,407.0873717360496 M 6324.728756790719,421.0873717355598 M 6321.728756790726,421.08737173552754 M 6321.72875679077,426.0873717353543 M 6340.728756790719,426.0873717355603 M 6340.728756790675,421.087371735734 M 6337.728756790682,421.08737173570216 M 6329.728756790626,412.0873717359282 L 6330.168096618852,411.7502544288509 L 6330.679718684953,411.53833363027707 L 6331.228756790624,411.46605139240455 L 6331.777794896298,411.53833363029344 L 6332.289416962398,411.7502544288818 L 6332.728756790619,412.0873717359609 L 6333.065874097707,412.5267115641673 L 6333.277794896296,413.0383336302566 L 6333.3500771341805,413.5873717359127 L 6333.277794896303,414.136409841567 L 6333.065874097718,414.64803190764815 L 6332.728756790644,415.0873717358563 L 6332.28941696242,415.4244890429145 L 6331.777794896319,415.63640984148833 L 6331.228756790648,415.7086920793595 L 6330.679718684974,415.63640984147105 L 6330.168096618872,415.42448904288267 L 6329.7287567906515,415.0873717358231 L 6329.391639483567,414.64803190759494 L 6329.179718684976,414.13640984150925 L 6329.10743644709,413.5873717358527 L 6329.179718684971,413.0383336301966 L 6329.391639483554,412.5267115641177 L 6329.728756790626,412.0873717359282 "
  />
  <path id="face7-cut"
 style="fill:none;stroke:#0000FF;stroke-width:1;stroke-miterlimit:4;stroke-dasharray:none;stroke-linejoin:round;stroke-linecap:round"
        d="M 6247.396827113651,22.893281584914348 M 6299.396827114542,152.8932815798412 M 6301.396827114537,152.89328157986938 M 6301.396827114393,134.89328158064154 M 6304.396827114384,134.89328158068201 M 6304.396827114529,152.8932815799094 M 6313.3968271145,152.89328158003354 M 6313.396827113382,11.893281586435478 M 6253.396827113542,11.893281585537352 M 6253.396827113583,16.893281585285422 M 6283.396827113505,16.893281585733348 M 6283.396827113528,19.893281585603745 M 6253.3968271136055,19.893281585157638 M 6253.396827113633,22.893281585003024 M 6265.396827113829,51.89328158383114 L 6265.396827113671,31.893281584757915 L 6268.396827113662,31.89328158480339 L 6268.396827113822,51.893281583874796 L 6265.396827113829,51.89328158383114 M 6283.396827114061,86.89328158250191 L 6286.396827114055,86.89328158254466 L 6286.396827114078,89.89328158241005 L 6283.396827114084,89.89328158236776 L 6283.396827114061,86.89328158250191 M 6289.396827114244,111.89328158147691 L 6289.396827114086,91.89328158236322 L 6292.396827114077,91.89328158240596 L 6292.396827114235,111.8932815815192 L 6289.396827114244,111.89328158147691 M 6298.396827114284,119.8932815812509 L 6295.396827114289,119.89328158120952 L 6295.396827114266,116.89328158134049 L 6298.39682711426,116.89328158138278 L 6298.396827114284,119.8932815812509 M 6277.396827114039,81.89328158264107 L 6277.39682711388,61.893281583545104 L 6280.396827113871,61.89328158358967 L 6280.39682711403,81.89328158268381 L 6277.396827114039,81.89328158264107 M 6271.396827113853,56.893281583688804 L 6274.396827113846,56.89328158373428 L 6274.396827113869,59.89328158359649 L 6271.3968271138765,59.89328158355056 L 6271.396827113853,56.893281583688804 M 6256.396827113678,29.893281584719716 L 6256.396827113656,26.893281584862052 L 6262.396827113636,26.893281584950273 L 6262.396827113662,29.893281584809756 L 6256.396827113678,29.893281584719716 M 6307.396827114471,146.89328158020862 L 6310.396827114464,146.8932815802491 L 6310.396827114487,149.8932815801204 L 6307.396827114495,149.89328158007993 L 6307.396827114471,146.89328158020862 "
  />
  <path id="face8-cut"
 style="fill:none;stroke:#0000FF;stroke-width:1;stroke-miterlimit:4;stroke-dasharray:none;stroke-linejoin:round;stroke-linecap:round"
        d="M 6455.547495801384,677.4382862312718 M 6455.54748770753,843.4382862265852 M 6465.547487707503,843.4382862267025 M 6465.547487707487,840.438286226783 M 6475.547487707459,840.4382862269031 M 6475.547487707476,843.4382862268199 M 6485.54748770745,843.4382862269385 M 6485.547487707432,840.4382862270609 M 6495.547487707405,840.43828622718 M 6495.547487707421,843.4382862270945 M 6505.547487707394,843.4382862272137 M 6505.5474877073775,840.4382862272992 M 6515.547487707347,840.4382862274174 M 6515.547487702945,14.438286257807704 M 6505.547487702977,14.438286257625805 M 6505.547487702963,11.43828625776905 M 6495.547487702988,11.438286257589425 M 6495.547487703005,14.438286257443906 M 6485.547487703032,14.438286257264735 M 6485.547487703016,11.438286257411619 M 6475.547487703041,11.438286257231539 M 6475.547487703057,14.4382862570842 M 6465.547487703085,14.438286256902757 M 6465.547487703068,11.438286257052823 M 6455.547487703097,11.438286256872743 M 6455.547495798719,177.4382862492007 M 6452.547495798726,177.43828624915204 M 6452.547495799257,277.438286245012 M 6455.547495799252,277.4382862450575 M 6455.547495799787,377.43828624122307 M 6452.54749579979,377.43828624117987 M 6452.5474958003215,477.438286237621 M 6455.547495800318,477.43828623766103 M 6455.547495800851,577.4382862343564 M 6452.547495800856,577.4382862343168 M 6452.547495801387,677.4382862312355 "
  />
  <path id="face9-cut"
 style="fill:none;stroke:#0000FF;stroke-width:1;stroke-miterlimit:4;stroke-dasharray:none;stroke-linejoin:round;stroke-linecap:round"
        d="M 6338.173741703527,432.1532078827727 M 6325.173741703566,432.15320788263125 M 6325.173741703686,446.1532078821497 M 6338.173741703651,446.1532078822879 M 6332.734401875374,437.8160905754289 L 6333.173741703595,438.1532078825094 L 6333.510859010685,438.5925477107194 L 6333.722779809277,439.1041697768055 L 6333.795062047166,439.65320788246436 L 6333.722779809288,440.20224598812 L 6333.510859010705,440.7138680542057 L 6333.17374170362,441.15320788240706 L 6332.734401875405,441.4903251894784 L 6332.2227798093045,441.7022459880541 L 6331.673741703629,441.7745282259293 L 6331.124703597954,441.7022459880436 L 6330.61308153185,441.4903251894548 L 6330.173741703631,441.1532078823743 L 6329.836624396537,440.7138680541657 L 6329.624703597945,440.2022459880791 L 6329.5524213600565,439.65320788242025 L 6329.624703597936,439.10416977676095 L 6329.836624396519,438.592547710678 L 6330.173741703604,438.1532078824753 L 6330.613081531817,437.81609057540527 L 6331.1247035979195,437.60416977682917 L 6331.673741703593,437.5318875389539 L 6332.22277980927,437.6041697768419 L 6332.734401875374,437.8160905754289 "
  />
  <path id="face10-cut"
 style="fill:none;stroke:#0000FF;stroke-width:1;stroke-miterlimit:4;stroke-dasharray:none;stroke-linejoin:round;stroke-linecap:round"
        d="M 6337.762001721778,379.42234972584447 M 6324.762001721814,379.4223497256994 M 6324.762001721936,393.422349725201 M 6321.762001721943,393.4223497251678 M 6321.762001721989,398.42234972499 M 6340.762001721936,398.4223497251992 M 6340.762001721892,393.422349725377 M 6337.7620017219,393.42234972534334 M 6329.762001721843,384.4223497255766 L 6330.20134155007,384.08523241850025 L 6330.71296361617,383.87331161992597 L 6331.262001721841,383.8010293820521 L 6331.811039827515,383.873311619941 L 6332.322661893617,384.085232418528 L 6332.762001721836,384.4223497256112 L 6333.099119028924,384.86168955381754 L 6333.311039827515,385.37331161990323 L 6333.3833220654,385.9223497255575 L 6333.31103982752,386.4713878312132 L 6333.099119028935,386.9830098972934 L 6332.762001721863,387.4223497255016 L 6332.322661893637,387.75946703255886 L 6331.8110398275385,387.9713878311327 L 6331.262001721867,388.0436700690034 L 6330.712963616192,387.9713878311168 L 6330.20134155009,387.7594670325302 L 6329.762001721869,387.4223497254693 L 6329.424884414784,386.9830098972402 L 6329.2129636161935,386.4713878311545 L 6329.140681378309,385.92234972549795 L 6329.212963616188,385.37331161984184 L 6329.424884414771,384.86168955376434 L 6329.762001721843,384.4223497255766 "
  />
  <path id="face11-cut"
 style="fill:none;stroke:#0000FF;stroke-width:1;stroke-miterlimit:4;stroke-dasharray:none;stroke-linejoin:round;stroke-linecap:round"
        d="M 6523.521361661522,909.9999999759234 L 6523.521361653689,10.000000008464212 L 5923.521361655339,10.0 L 5923.521361663174,909.9999999713059 L 6523.521361661522,909.9999999759234 M 5933.419629967906,514.3897102160636 M 5933.419629967035,414.3897102191654 M 5936.419629967028,414.3897102191959 M 5936.419629966156,314.3897102225378 M 5933.419629966164,314.3897102225051 M 5933.419629965294,214.38971022610986 M 5936.419629965287,214.38971022614396 M 5936.419629964417,114.3897102300516 M 5933.419629964423,114.38971023001477 M 5933.419629963552,14.389710234258018 M 5966.419629963464,14.389710234699123 M 5966.419629963437,11.389710234835547 M 5996.419629963355,11.389710235240727 M 5996.41962996338,14.389710235104758 M 6026.419629963299,14.389710235511757 M 6026.419629963271,11.389710235650455 M 6056.419629963188,11.389710236057454 M 6056.419629963215,14.389710235922394 M 6086.419629963132,14.389710236331666 M 6086.419629963106,11.389710236471274 M 6116.419629963024,11.389710236884639 M 6116.41962996305,14.389710236745032 M 6146.4196299629675,14.389710237159761 M 6146.419629962941,11.389710237302097 M 6176.4196299628575,11.3897102377191 M 6176.419629962884,14.389710237577674 M 6206.419629962802,14.389710237996951 M 6206.419629962776,11.389710238139287 M 6235.232764903735,11.389710238546286 M 6238.463782522808,11.389710190069309 M 6250.666560403939,41.900614892676 M 6247.881123036343,43.01471023724571 M 6260.529481168955,74.63971023597333 M 6263.31492531505,73.52560482629951 M 6275.963283447661,105.1506048258102 M 6273.177839301567,106.26471023473505 M 6285.826197434178,137.88971023352633 M 6288.6116480463115,136.77560225589923 M 6301.2600061789235,168.4006022552121 M 6298.474555566789,169.51471023234535 M 6311.122913699399,201.13971023119439 M 6313.908367900616,200.0256008391234 M 6326.556726033228,231.65060083821572 M 6323.771271832007,232.7647102300666 M 6336.419629964619,264.3897102289661 M 6323.768961266496,296.0147102275905 M 6326.554381048047,297.12890759769243 M 6313.903712349926,328.75390759624406 M 6311.118292568375,327.6397102262504 M 6298.467623870254,359.26471022494707 M 6301.253043052382,360.37890736751433 M 6288.602374354259,392.00390736599 M 6285.81695517213,390.88971022367514 M 6273.166286474008,422.51471022243913 M 6275.951704579508,423.62890694657744 M 6263.3010358813835,455.253906944984 M 6260.515617775885,454.1397102212313 M 6247.864949077763,485.764710220054 M 6250.650365629427,486.87890633487814 M 6237.999696931305,518.503906333216 M 6235.2142803796405,517.3897102189085 M 6206.419629967179,517.3897102186215 M 6206.419629967155,514.3897102187143 M 6176.419629967237,514.3897102184151 M 6176.419629967262,517.3897102183228 M 6146.419629967344,517.3897102180267 M 6146.4196299673185,514.3897102181186 M 6116.4196299674,514.3897102178248 M 6116.419629967428,517.3897102177334 M 6086.419629967511,517.3897102174392 M 6086.419629967486,514.389710217532 M 6056.419629967568,514.3897102172396 M 6056.419629967593,517.3897102171495 M 6026.419629967679,517.3897102168603 M 6026.4196299676505,514.3897102169512 M 5996.419629967732,514.3897102166629 M 5996.419629967759,517.3897102165729 M 5966.419629967842,517.3897102162887 M 5966.419629967817,514.3897102163769 M 6455.54748770753,843.4382862265852 M 6455.547495801384,677.4382862312718 M 6452.547495801387,677.4382862312355 M 6452.547495800856,577.4382862343168 M 6455.547495800851,577.4382862343564 M 6455.547495800318,477.43828623766103 M 6452.5474958003215,477.438286237621 M 6452.54749579979,377.43828624117987 M 6455.547495799787,377.43828624122307 M 6455.547495799252,277.4382862450575 M 6452.547495799257,277.438286245012 M 6452.547495798726,177.43828624915204 M 6455.547495798719,177.4382862492007 M 6455.547487703097,11.438286256872743 M 6465.547487703068,11.438286257052823 M 6465.547487703085,14.438286256902757 M 6475.547487703057,14.4382862570842 M 6475.547487703041,11.438286257231539 M 6485.547487703016,11.438286257411619 M 6485.547487703032,14.438286257264735 M 6495.547487703005,14.438286257443906 M 6495.547487702988,11.438286257589425 M 6505.547487702963,11.43828625776905 M 6505.547487702977,14.438286257625805 M 6515.547487702945,14.438286257807704 M 6515.547487707347,840.4382862274174 M 6505.5474877073775,840.4382862272992 M 6505.547487707394,843.4382862272137 M 6495.547487707421,843.4382862270945 M 6495.547487707405,840.43828622718 M 6485.547487707432,840.4382862270609 M 6485.54748770745,843.4382862269385 M 6475.547487707476,843.4382862268199 M 6475.547487707459,840.4382862269031 M 6465.547487707487,840.438286226783 M 6465.547487707503,843.4382862267025 M 6325.173741703566,432.15320788263125 M 6338.173741703527,432.1532078827727 M 6338.173741703651,446.1532078822879 M 6325.173741703686,446.1532078821497 M 6248.751279034452,502.4389631568365 M 6300.751279033197,372.4389631618201 M 6302.751279033191,372.4389631618419 M 6302.751279033346,390.4389631612021 M 6305.751279033338,390.4389631612353 M 6305.751279033182,372.4389631618765 M 6314.751279033157,372.4389631619779 M 6314.7512790343635,513.4389631571476 M 6254.7512790345245,513.4389631565323 M 6254.751279034483,508.43896315670554 M 6284.751279034404,508.43896315701477 M 6284.751279034379,505.43896315709753 M 6254.751279034457,505.4389631567883 M 6254.7512790344335,502.43896315689744 M 6324.762001721814,379.4223497256994 M 6337.762001721778,379.42234972584447 M 6337.7620017219,393.42234972534334 M 6340.762001721892,393.422349725377 M 6340.762001721936,398.4223497251992 M 6321.762001721989,398.42234972499 M 6321.762001721943,393.4223497251678 M 6324.762001721936,393.422349725201 M 6324.343244959371,350.36288899166993 M 6337.343244959335,350.3628889918173 M 6337.343244959457,364.3628889913057 M 6340.343244959449,364.36288899133933 M 6340.343244959493,369.36288899115834 M 6321.343244959544,369.36288899094416 M 6321.3432449595,364.3628889911265 M 6324.343244959493,364.3628889911588 M 5936.314932379924,855.0774794405402 M 5936.314932379848,845.0774794407748 M 6100.314919933424,845.0774794422059 M 6100.314919933402,842.07747944228 M 6199.6894146709965,842.0774794431727 M 6199.689414671019,845.0774794430936 M 6299.063909408615,845.0774794440003 M 6299.063909408592,842.0774794440808 M 6400.314919932576,842.0774794450235 M 6400.3149199326,845.0774794449426 M 6513.314932378245,845.0774794460158 M 6513.314932378322,855.0774713510114 M 6516.314932378315,855.0774713510395 M 6516.314932378393,865.0774713507712 M 6513.314932378398,865.0774713507421 M 6513.314932378476,875.077471350477 M 6516.314932378467,875.077471350507 M 6516.314932378544,885.0774713502424 M 6513.314932378553,885.0774713502142 M 6513.314932378629,895.0774713499522 M 6516.31493237862,895.0774713499795 M 6516.3149323786965,905.0774794444542 M 5933.314932380303,905.0774794393415 M 5933.314932380226,895.0774794395725 M 5936.314932380232,895.0774794395984 M 5936.314932380155,885.077479439829 M 5933.31493238015,885.0774794398044 M 5933.3149323800735,875.0774794400413 M 5936.314932380077,875.0774794400681 M 5936.314932380002,865.0774794403005 M 5933.314932379997,865.0774794402746 M 5933.31493237992,855.0774794405124 M 6324.45166176183,320.8241076664003 M 6337.451661761796,320.82410766655084 M 6337.451661761916,334.82410766602743 M 6340.451661761908,334.8241076660611 M 6340.451661761952,339.8241076658769 M 6321.451661762003,339.82410766565727 M 6321.451661761959,334.8241076658437 M 6324.451661761952,334.8241076658783 M 6173.419629967292,519.744105969412 M 6193.419629967236,519.7441059696089 M 6193.419629969178,742.7441059631046 M 6293.419629968904,742.7441059639659 M 6293.419629966964,519.7441059706102 M 6333.419629966853,519.7441059710163 M 6333.419629966878,522.7441059709176 M 6373.419629966769,522.7441059713265 M 6373.419629966744,519.744105971426 M 6413.419629966633,519.7441059718371 M 6413.419629966658,522.7441059717394 M 6433.419629966607,522.7441059719472 M 6433.419629966951,562.7441059706443 M 6436.419629966946,562.7441059706716 M 6436.419629967118,582.7441059700354 M 6433.419629967126,582.7441059700054 M 6433.419629967824,662.7441059675425 M 6436.419629967813,662.7441059675671 M 6436.41962996799,682.7188117432565 M 6433.419629967997,682.7188117432261 M 6433.419629968694,762.5441059646469 M 6436.419629968683,762.5441059646719 M 6436.419629968857,782.5441059641139 M 6433.419629968868,782.5441059640898 M 6433.419629969205,821.5441059630211 M 5933.41962997058,821.5441059589793 M 5933.419629970242,782.5441059599393 M 5930.419629970248,782.5441059599148 M 5930.4196299700725,762.5441059604182 M 5933.419629970064,762.54410596044 M 5933.419629969371,682.7188117387918 M 5930.419629969378,682.7188117387668 M 5930.419629969205,662.7441059630196 M 5933.419629969198,662.7441059630437 M 5933.419629968501,582.7441059652629 M 5930.419629968508,582.7441059652365 M 5930.419629968335,562.7441059658099 M 5933.419629968326,562.7441059658368 M 5933.419629967978,522.7441059670105 M 5953.419629967926,522.7441059671978 M 5953.419629967897,519.7441059672888 M 5993.419629967788,519.7441059676662 M 5993.419629967814,522.7441059675775 M 6033.419629967704,522.7441059679577 M 6033.419629967678,519.7441059680482 M 6073.419629967568,519.7441059684365 M 6073.419629969509,742.7441059620901 M 6173.419629969232,742.7441059629323 M 6324.728756790595,407.0873717360496 M 6337.728756790559,407.0873717361924 M 6337.728756790682,421.08737173570216 M 6340.728756790675,421.087371735734 M 6340.728756790719,426.0873717355603 M 6321.72875679077,426.0873717353543 M 6321.728756790726,421.08737173552754 M 6324.728756790719,421.0873717355598 M 6299.396827114542,152.8932815798412 M 6247.396827113651,22.893281584914348 M 6253.396827113633,22.893281585003024 M 6253.3968271136055,19.893281585157638 M 6283.396827113528,19.893281585603745 M 6283.396827113505,16.893281585733348 M 6253.396827113583,16.893281585285422 M 6253.396827113542,11.893281585537352 M 6313.396827113382,11.893281586435478 M 6313.3968271145,152.89328158003354 M 6304.396827114529,152.8932815799094 M 6304.396827114384,134.89328158068201 M 6301.396827114393,134.89328158064154 M 6301.396827114537,152.89328157986938 "
  />
  <path id="face0-interior"
 style="fill:none;stroke:#FF0000;stroke-width:1;stroke-miterlimit:4;stroke-dasharray:none;stroke-linejoin:round;stroke-linecap:round"
        d="M 5933.419629967035,414.3897102191654 L 5933.419629967906,514.3897102160636 L 5966.419629967817,514.3897102163769 L 5966.419629967842,517.3897102162887 L 5996.419629967759,517.3897102165729 L 5996.419629967732,514.3897102166629 L 6026.4196299676505,514.3897102169512 L 6026.419629967679,517.3897102168603 L 6056.419629967593,517.3897102171495 L 6056.419629967568,514.3897102172396 L 6086.419629967486,514.389710217532 L 6086.419629967511,517.3897102174392 L 6116.419629967428,517.3897102177334 L 6116.4196299674,514.3897102178248 L 6146.4196299673185,514.3897102181186 L 6146.419629967344,517.3897102180267 L 6176.419629967262,517.3897102183228 L 6176.419629967237,514.3897102184151 L 6206.419629967155,514.3897102187143 L 6206.419629967179,517.3897102186215 L 6235.2142803796405,517.3897102189085 L 6237.999696931305,518.503906333216 L 6250.650365629427,486.87890633487814 L 6247.864949077763,485.764710220054 L 6260.515617775885,454.1397102212313 L 6263.3010358813835,455.253906944984 L 6275.951704579508,423.62890694657744 L 6273.166286474008,422.51471022243913 L 6285.81695517213,390.88971022367514 L 6288.602374354259,392.00390736599 L 6301.253043052382,360.37890736751433 L 6298.467623870254,359.26471022494707 L 6311.118292568375,327.6397102262504 L 6313.903712349926,328.75390759624406 L 6326.554381048047,297.12890759769243 L 6323.768961266496,296.0147102275905 L 6336.419629964619,264.3897102289661 L 6323.771271832007,232.7647102300666 L 6326.556726033228,231.65060083821572 L 6313.908367900616,200.0256008391234 L 6311.122913699399,201.13971023119439 L 6298.474555566789,169.51471023234535 L 6301.2600061789235,168.4006022552121 L 6288.6116480463115,136.77560225589923 L 6285.826197434178,137.88971023352633 L 6273.177839301567,106.26471023473505 L 6275.963283447661,105.1506048258102 L 6263.31492531505,73.52560482629951 L 6260.529481168955,74.63971023597333 L 6247.881123036343,43.01471023724571 L 6250.666560403939,41.900614892676 L 6238.463782522808,11.389710190069309 L 6235.232764903735,11.389710238546286 L 6206.419629962776,11.389710238139287 L 6206.419629962802,14.389710237996951 L 6176.419629962884,14.389710237577674 L 6176.4196299628575,11.3897102377191 L 6146.419629962941,11.389710237302097 L 6146.4196299629675,14.389710237159761 L 6116.41962996305,14.389710236745032 L 6116.419629963024,11.389710236884639 L 6086.419629963106,11.389710236471274 L 6086.419629963132,14.389710236331666 L 6056.419629963215,14.389710235922394 L 6056.419629963188,11.389710236057454 L 6026.419629963271,11.389710235650455 L 6026.419629963299,14.389710235511757 L 5996.41962996338,14.389710235104758 L 5996.419629963355,11.389710235240727 L 5966.419629963437,11.389710234835547 L 5966.419629963464,14.389710234699123 L 5933.419629963552,14.389710234258018 L 5933.419629964423,114.38971023001477 L 5936.419629964417,114.3897102300516 L 5936.419629965287,214.38971022614396 L 5933.419629965294,214.38971022610986 L 5933.419629966164,314.3897102225051 L 5936.419629966156,314.3897102225378 L 5936.419629967028,414.3897102191959 L 5933.419629967035,414.3897102191654 "
  />
  <path id="face1-interior"
 style="fill:none;stroke:#FF0000;stroke-width:1;stroke-miterlimit:4;stroke-dasharray:none;stroke-linejoin:round;stroke-linecap:round"
        d="M 6300.751279033197,372.4389631618201 L 6248.751279034452,502.4389631568365 L 6254.7512790344335,502.43896315689744 L 6254.751279034457,505.4389631567883 L 6284.751279034379,505.43896315709753 L 6284.751279034404,508.43896315701477 L 6254.751279034483,508.43896315670554 L 6254.7512790345245,513.4389631565323 L 6314.7512790343635,513.4389631571476 L 6314.751279033157,372.4389631619779 L 6305.751279033182,372.4389631618765 L 6305.751279033338,390.4389631612353 L 6302.751279033346,390.4389631612021 L 6302.751279033191,372.4389631618419 L 6300.751279033197,372.4389631618201 M 6266.751279034324,493.438963157314 M 6266.751279034152,473.43896315797065 M 6269.751279034144,473.4389631580025 M 6269.751279034314,493.43896315734537 M 6287.7512790338,438.438963159369 M 6284.751279033804,438.43896315933625 M 6284.751279033779,435.438963159439 M 6287.751279033773,435.43896315947177 M 6290.751279033747,433.4389631595718 M 6290.751279033575,413.4389631602612 M 6293.751279033568,413.43896316029304 M 6293.751279033737,433.43896315960365 M 6296.7512790334895,405.4389631606059 M 6299.751279033484,405.43896316063956 M 6299.7512790335095,408.43896316053315 M 6296.751279033515,408.43896316049995 M 6278.751279034039,463.4389631584281 M 6278.751279033866,443.4389631591025 M 6281.751279033857,443.43896315913435 M 6281.751279034028,463.4389631584613 M 6275.751279034085,468.4389631582312 M 6272.751279034092,468.43896315819893 M 6272.751279034066,465.4389631582999 M 6275.751279034059,465.4389631583299 M 6257.751279034391,498.4389631570589 M 6257.751279034364,495.43896315715574 M 6263.751279034346,495.4389631572185 M 6263.751279034372,498.4389631571212 M 6311.751279033215,378.43896316173004 M 6308.751279033224,378.43896316169594 M 6308.7512790332,375.4389631618019 M 6311.75127903319,375.43896316183645 "
  />
  <path id="face2-interior"
 style="fill:none;stroke:#FF0000;stroke-width:1;stroke-miterlimit:4;stroke-dasharray:none;stroke-linejoin:round;stroke-linecap:round"
        d="M 6337.343244959335,350.3628889918173 L 6324.343244959371,350.36288899166993 L 6324.343244959493,364.3628889911588 L 6321.3432449595,364.3628889911265 L 6321.343244959544,369.36288899094416 L 6340.343244959493,369.36288899115834 L 6340.343244959449,364.36288899133933 L 6337.343244959457,364.3628889913057 L 6337.343244959335,350.3628889918173 M 6329.3432449594,355.3628889915449 M 6329.782584787627,355.0257716844676 M 6330.294206853727,354.8138508858933 M 6330.843244959398,354.74156864801944 M 6331.392283065072,354.81385088590923 M 6331.903905131172,355.02577168449716 M 6332.343244959393,355.3628889915776 M 6332.680362266481,355.802228819784 M 6332.892283065072,356.31385088586967 M 6332.9645653029565,356.8628889915253 M 6332.892283065077,357.411927097181 M 6332.68036226649,357.92354916325985 M 6332.343244959418,358.36288899146757 M 6331.903905131192,358.7000062985244 M 6331.392283065094,358.9119270970973 M 6330.84324495942,358.9842093349703 M 6330.294206853749,358.91192709708 M 6329.782584787648,358.7000062984944 M 6329.3432449594275,358.3628889914344 M 6329.006127652341,357.9235491632053 M 6328.79420685375,357.41192709711913 M 6328.721924615864,356.8628889914644 M 6328.794206853745,356.31385088580964 M 6329.00612765233,355.8022288197317 "
  />
  <path id="face3-interior"
 style="fill:none;stroke:#FF0000;stroke-width:1;stroke-miterlimit:4;stroke-dasharray:none;stroke-linejoin:round;stroke-linecap:round"
        d="M 5936.314932379848,845.0774794407748 L 5936.314932379924,855.0774794405402 L 5933.31493237992,855.0774794405124 L 5933.314932379997,865.0774794402746 L 5936.314932380002,865.0774794403005 L 5936.314932380077,875.0774794400681 L 5933.3149323800735,875.0774794400413 L 5933.31493238015,885.0774794398044 L 5936.314932380155,885.077479439829 L 5936.314932380232,895.0774794395984 L 5933.314932380226,895.0774794395725 L 5933.314932380303,905.0774794393415 L 6516.3149323786965,905.0774794444542 L 6516.31493237862,895.0774713499795 L 6513.314932378629,895.0774713499522 L 6513.314932378553,885.0774713502142 L 6516.314932378544,885.0774713502424 L 6516.314932378467,875.077471350507 L 6513.314932378476,875.077471350477 L 6513.314932378398,865.0774713507421 L 6516.314932378393,865.0774713507712 L 6516.314932378315,855.0774713510395 L 6513.314932378322,855.0774713510114 L 6513.314932378245,845.0774794460158 L 6400.3149199326,845.0774794449426 L 6400.314919932576,842.0774794450235 L 6299.063909408592,842.0774794440808 L 6299.063909408615,845.0774794440003 L 6199.689414671019,845.0774794430936 L 6199.6894146709965,842.0774794431727 L 6100.314919933402,842.07747944228 L 6100.314919933424,845.0774794422059 L 5936.314932379848,845.0774794407748 "
  />
  <path id="face4-interior"
 style="fill:none;stroke:#FF0000;stroke-width:1;stroke-miterlimit:4;stroke-dasharray:none;stroke-linejoin:round;stroke-linecap:round"
        d="M 6337.451661761796,320.82410766655084 L 6324.45166176183,320.8241076664003 L 6324.451661761952,334.8241076658783 L 6321.451661761959,334.8241076658437 L 6321.451661762003,339.82410766565727 L 6340.451661761952,339.8241076658769 L 6340.451661761908,334.8241076660611 L 6337.451661761916,334.82410766602743 L 6337.451661761796,320.82410766655084 M 6329.451661761859,325.8241076662721 M 6329.891001590086,325.4869903591939 M 6330.402623656186,325.2750695606205 M 6330.951661761857,325.20278732274755 M 6331.500699867533,325.27506956063735 M 6332.012321933631,325.48699035922436 M 6332.451661761852,325.8241076663053 M 6332.78877906894,326.26344749451073 M 6333.000699867531,326.7750695605978 M 6333.072982105416,327.3241076662516 M 6333.000699867536,327.87314577190546 M 6332.788779068951,328.3847678379848 M 6332.451661761877,328.82410766619296 M 6332.012321933651,329.1612249732498 M 6331.500699867554,329.37314577182224 M 6330.951661761881,329.44542800969384 M 6330.402623656208,329.3731457718054 M 6329.891001590107,329.1612249732175 M 6329.4516617618865,328.82410766615794 M 6329.1145444548,328.3847678379302 M 6328.9026236562095,327.8731457718445 M 6328.830341418323,327.3241076661898 M 6328.902623656204,326.7750695605346 M 6329.114544454789,326.263447494458 "
  />
  <path id="face5-interior"
 style="fill:none;stroke:#FF0000;stroke-width:1;stroke-miterlimit:4;stroke-dasharray:none;stroke-linejoin:round;stroke-linecap:round"
        d="M 6193.419629967236,519.7441059696089 L 6173.419629967292,519.744105969412 L 6173.419629969232,742.7441059629323 L 6073.419629969509,742.7441059620901 L 6073.419629967568,519.7441059684365 L 6033.419629967678,519.7441059680482 L 6033.419629967704,522.7441059679577 L 5993.419629967814,522.7441059675775 L 5993.419629967788,519.7441059676662 L 5953.419629967897,519.7441059672888 L 5953.419629967926,522.7441059671978 L 5933.419629967978,522.7441059670105 L 5933.419629968326,562.7441059658368 L 5930.419629968335,562.7441059658099 L 5930.419629968508,582.7441059652365 L 5933.419629968501,582.7441059652629 L 5933.419629969198,662.7441059630437 L 5930.419629969205,662.7441059630196 L 5930.419629969378,682.7188117387668 L 5933.419629969371,682.7188117387918 L 5933.419629970064,762.54410596044 L 5930.4196299700725,762.5441059604182 L 5930.419629970248,782.5441059599148 L 5933.419629970242,782.5441059599393 L 5933.41962997058,821.5441059589793 L 6433.419629969205,821.5441059630211 L 6433.419629968868,782.5441059640898 L 6436.419629968857,782.5441059641139 L 6436.419629968683,762.5441059646719 L 6433.419629968694,762.5441059646469 L 6433.419629967997,682.7188117432261 L 6436.41962996799,682.7188117432565 L 6436.419629967813,662.7441059675671 L 6433.419629967824,662.7441059675425 L 6433.419629967126,582.7441059700054 L 6436.419629967118,582.7441059700354 L 6436.419629966946,562.7441059706716 L 6433.419629966951,562.7441059706443 L 6433.419629966607,522.7441059719472 L 6413.419629966658,522.7441059717394 L 6413.419629966633,519.7441059718371 L 6373.419629966744,519.744105971426 L 6373.419629966769,522.7441059713265 L 6333.419629966878,522.7441059709176 L 6333.419629966853,519.7441059710163 L 6293.419629966964,519.7441059706102 L 6293.419629968904,742.7441059639659 L 6193.419629969178,742.7441059631046 L 6193.419629967236,519.7441059696089 M 6186.419629967804,582.7441059676053 M 6183.419629967813,582.744105967573 M 6183.41962996764,562.7441059681796 M 6186.419629967629,562.7441059682078 M 6186.4196299686755,682.718811740976 M 6183.419629968682,682.7188117409501 M 6183.41962996851,662.7441059652338 M 6186.419629968503,662.744105965262 M 6186.419629969361,761.5441059625387 M 6186.419629969536,781.544105962008 M 6183.419629969542,781.5441059619848 M 6183.41962996937,761.5441059625114 "
  />
  <path id="face6-interior"
 style="fill:none;stroke:#FF0000;stroke-width:1;stroke-miterlimit:4;stroke-dasharray:none;stroke-linejoin:round;stroke-linecap:round"
        d="M 6337.728756790559,407.0873717361924 L 6324.728756790595,407.0873717360496 L 6324.728756790719,421.0873717355598 L 6321.728756790726,421.08737173552754 L 6321.72875679077,426.0873717353543 L 6340.728756790719,426.0873717355603 L 6340.728756790675,421.087371735734 L 6337.728756790682,421.08737173570216 L 6337.728756790559,407.0873717361924 M 6329.728756790626,412.0873717359282 M 6330.168096618852,411.7502544288509 M 6330.679718684953,411.53833363027707 M 6331.228756790624,411.46605139240455 M 6331.777794896298,411.53833363029344 M 6332.289416962398,411.7502544288818 M 6332.728756790619,412.0873717359609 M 6333.065874097707,412.5267115641673 M 6333.277794896296,413.0383336302566 M 6333.3500771341805,413.5873717359127 M 6333.277794896303,414.136409841567 M 6333.065874097718,414.64803190764815 M 6332.728756790644,415.0873717358563 M 6332.28941696242,415.4244890429145 M 6331.777794896319,415.63640984148833 M 6331.228756790648,415.7086920793595 M 6330.679718684974,415.63640984147105 M 6330.168096618872,415.42448904288267 M 6329.7287567906515,415.0873717358231 M 6329.391639483567,414.64803190759494 M 6329.179718684976,414.13640984150925 M 6329.10743644709,413.5873717358527 M 6329.179718684971,413.0383336301966 M 6329.391639483554,412.5267115641177 "
  />
  <path id="face7-interior"
 style="fill:none;stroke:#FF0000;stroke-width:1;stroke-miterlimit:4;stroke-dasharray:none;stroke-linejoin:round;stroke-linecap:round"
        d="M 6247.396827113651,22.893281584914348 L 6299.396827114542,152.8932815798412 L 6301.396827114537,152.89328157986938 L 6301.396827114393,134.89328158064154 L 6304.396827114384,134.89328158068201 L 6304.396827114529,152.8932815799094 L 6313.3968271145,152.89328158003354 L 6313.396827113382,11.893281586435478 L 6253.396827113542,11.893281585537352 L 6253.396827113583,16.893281585285422 L 6283.396827113505,16.893281585733348 L 6283.396827113528,19.893281585603745 L 6253.3968271136055,19.893281585157638 L 6253.396827113633,22.893281585003024 L 6247.396827113651,22.893281584914348 M 6265.396827113829,51.89328158383114 M 6265.396827113671,31.893281584757915 M 6268.396827113662,31.89328158480339 M 6268.396827113822,51.893281583874796 M 6283.396827114061,86.89328158250191 M 6286.396827114055,86.89328158254466 M 6286.396827114078,89.89328158241005 M 6283.396827114084,89.89328158236776 M 6289.396827114244,111.89328158147691 M 6289.396827114086,91.89328158236322 M 6292.396827114077,91.89328158240596 M 6292.396827114235,111.8932815815192 M 6298.396827114284,119.8932815812509 M 6295.396827114289,119.89328158120952 M 6295.396827114266,116.89328158134049 M 6298.39682711426,116.89328158138278 M 6277.396827114039,81.89328158264107 M 6277.39682711388,61.893281583545104 M 6280.396827113871,61.89328158358967 M 6280.39682711403,81.89328158268381 M 6271.396827113853,56.893281583688804 M 6274.396827113846,56.89328158373428 M 6274.396827113869,59.89328158359649 M 6271.3968271138765,59.89328158355056 M 6256.396827113678,29.893281584719716 M 6256.396827113656,26.893281584862052 M 6262.396827113636,26.893281584950273 M 6262.396827113662,29.893281584809756 M 6307.396827114471,146.89328158020862 M 6310.396827114464,146.8932815802491 M 6310.396827114487,149.8932815801204 M 6307.396827114495,149.89328158007993 "
  />
  <path id="face8-interior"
 style="fill:none;stroke:#FF0000;stroke-width:1;stroke-miterlimit:4;stroke-dasharray:none;stroke-linejoin:round;stroke-linecap:round"
        d="M 6455.547495801384,677.4382862312718 L 6455.54748770753,843.4382862265852 L 6465.547487707503,843.4382862267025 L 6465.547487707487,840.438286226783 L 6475.547487707459,840.4382862269031 L 6475.547487707476,843.4382862268199 L 6485.54748770745,843.4382862269385 L 6485.547487707432,840.4382862270609 L 6495.547487707405,840.43828622718 L 6495.547487707421,843.4382862270945 L 6505.547487707394,843.4382862272137 L 6505.5474877073775,840.4382862272992 L 6515.547487707347,840.4382862274174 L 6515.547487702945,14.438286257807704 L 6505.547487702977,14.438286257625805 L 6505.547487702963,11.43828625776905 L 6495.547487702988,11.438286257589425 L 6495.547487703005,14.438286257443906 L 6485.547487703032,14.438286257264735 L 6485.547487703016,11.438286257411619 L 6475.547487703041,11.438286257231539 L 6475.547487703057,14.4382862570842 L 6465.547487703085,14.438286256902757 L 6465.547487703068,11.438286257052823 L 6455.547487703097,11.438286256872743 L 6455.547495798719,177.4382862492007 L 6452.547495798726,177.43828624915204 L 6452.547495799257,277.438286245012 L 6455.547495799252,277.4382862450575 L 6455.547495799787,377.43828624122307 L 6452.54749579979,377.43828624117987 L 6452.5474958003215,477.438286237621 L 6455.547495800318,477.43828623766103 L 6455.547495800851,577.4382862343564 L 6452.547495800856,577.4382862343168 L 6452.547495801387,677.4382862312355 L 6455.547495801384,677.4382862312718 "
  />
  <path id="face9-interior"
 style="fill:none;stroke:#FF0000;stroke-width:1;stroke-miterlimit:4;stroke-dasharray:none;stroke-linejoin:round;stroke-linecap:round"
        d="M 6338.173741703527,432.1532078827727 L 6325.173741703566,432.15320788263125 L 6325.173741703686,446.1532078821497 L 6338.173741703651,446.1532078822879 L 6338.173741703527,432.1532078827727 M 6332.734401875374,437.8160905754289 M 6333.173741703595,438.1532078825094 M 6333.510859010685,438.5925477107194 M 6333.722779809277,439.1041697768055 M 6333.795062047166,439.65320788246436 M 6333.722779809288,440.20224598812 M 6333.510859010705,440.7138680542057 M 6333.17374170362,441.15320788240706 M 6332.734401875405,441.4903251894784 M 6332.2227798093045,441.7022459880541 M 6331.673741703629,441.7745282259293 M 6331.124703597954,441.7022459880436 M 6330.61308153185,441.4903251894548 M 6330.173741703631,441.1532078823743 M 6329.836624396537,440.7138680541657 M 6329.624703597945,440.2022459880791 M 6329.5524213600565,439.65320788242025 M 6329.624703597936,439.10416977676095 M 6329.836624396519,438.592547710678 M 6330.173741703604,438.1532078824753 M 6330.613081531817,437.81609057540527 M 6331.1247035979195,437.60416977682917 M 6331.673741703593,437.5318875389539 M 6332.22277980927,437.6041697768419 "
  />
  <path id="face10-interior"
 style="fill:none;stroke:#FF0000;stroke-width:1;stroke-miterlimit:4;stroke-dasharray:none;stroke-linejoin:round;stroke-linecap:round"
        d="M 6337.762001721778,379.42234972584447 L 6324.762001721814,379.4223497256994 L 6324.762001721936,393.422349725201 L 6321.762001721943,393.4223497251678 L 6321.762001721989,398.42234972499 L 6340.762001721936,398.4223497251992 L 6340.762001721892,393.422349725377 L 6337.7620017219,393.42234972534334 L 6337.762001721778,379.42234972584447 M 6329.762001721843,384.4223497255766 M 6330.20134155007,384.08523241850025 M 6330.71296361617,383.87331161992597 M 6331.262001721841,383.8010293820521 M 6331.811039827515,383.873311619941 M 6332.322661893617,384.085232418528 M 6332.762001721836,384.4223497256112 M 6333.099119028924,384.86168955381754 M 6333.311039827515,385.37331161990323 M 6333.3833220654,385.9223497255575 M 6333.31103982752,386.4713878312132 M 6333.099119028935,386.9830098972934 M 6332.762001721863,387.4223497255016 M 6332.322661893637,387.75946703255886 M 6331.8110398275385,387.9713878311327 M 6331.262001721867,388.0436700690034 M 6330.712963616192,387.9713878311168 M 6330.20134155009,387.7594670325302 M 6329.762001721869,387.4223497254693 M 6329.424884414784,386.9830098972402 M 6329.2129636161935,386.4713878311545 M 6329.140681378309,385.92234972549795 M 6329.212963616188,385.37331161984184 M 6329.424884414771,384.86168955376434 "
  />
  <path id="face11-interior"
 style="fill:none;stroke:#FF0000;stroke-width:1;stroke-miterlimit:4;stroke-dasharray:none;stroke-linejoin:round;stroke-linecap:round"
        d="M 6523.521361661522,909.9999999759234 M 6523.521361653689,10.000000008464212 M 5923.521361655339,10.0 M 5923.521361663174,909.9999999713059 M 5933.419629967906,514.3897102160636 M 5933.419629967035,414.3897102191654 M 5936.419629967028,414.3897102191959 M 5936.419629966156,314.3897102225378 M 5933.419629966164,314.3897102225051 M 5933.419629965294,214.38971022610986 M 5936.419629965287,214.38971022614396 M 5936.419629964417,114.3897102300516 M 5933.419629964423,114.38971023001477 M 5933.419629963552,14.389710234258018 M 5966.419629963464,14.389710234699123 M 5966.419629963437,11.389710234835547 M 5996.419629963355,11.389710235240727 M 5996.41962996338,14.389710235104758 M 6026.419629963299,14.389710235511757 M 6026.419629963271,11.389710235650455 M 6056.419629963188,11.389710236057454 M 6056.419629963215,14.389710235922394 M 6086.419629963132,14.389710236331666 M 6086.419629963106,11.389710236471274 M 6116.419629963024,11.389710236884639 M 6116.41962996305,14.389710236745032 M 6146.4196299629675,14.389710237159761 M 6146.419629962941,11.389710237302097 M 6176.4196299628575,11.3897102377191 M 6176.419629962884,14.389710237577674 M 6206.419629962802,14.389710237996951 M 6206.419629962776,11.389710238139287 M 6235.232764903735,11.389710238546286 M 6238.463782522808,11.389710190069309 M 6250.666560403939,41.900614892676 M 6247.881123036343,43.01471023724571 M 6260.529481168955,74.63971023597333 M 6263.31492531505,73.52560482629951 M 6275.963283447661,105.1506048258102 M 6273.177839301567,106.26471023473505 M 6285.826197434178,137.88971023352633 M 6288.6116480463115,136.77560225589923 M 6301.2600061789235,168.4006022552121 M 6298.474555566789,169.51471023234535 M 6311.122913699399,201.13971023119439 M 6313.908367900616,200.0256008391234 M 6326.556726033228,231.65060083821572 M 6323.771271832007,232.7647102300666 M 6336.419629964619,264.3897102289661 M 6323.768961266496,296.0147102275905 M 6326.554381048047,297.12890759769243 M 6313.903712349926,328.75390759624406 M 6311.118292568375,327.6397102262504 M 6298.467623870254,359.26471022494707 M 6301.253043052382,360.37890736751433 M 6288.602374354259,392.00390736599 M 6285.81695517213,390.88971022367514 M 6273.166286474008,422.51471022243913 M 6275.951704579508,423.62890694657744 M 6263.3010358813835,455.253906944984 M 6260.515617775885,454.1397102212313 M 6247.864949077763,485.764710220054 M 6250.650365629427,486.87890633487814 M 6237.999696931305,518.503906333216 M 6235.2142803796405,517.3897102189085 M 6206.419629967179,517.3897102186215 M 6206.419629967155,514.3897102187143 M 6176.419629967237,514.3897102184151 M 6176.419629967262,517.3897102183228 M 6146.419629967344,517.3897102180267 M 6146.4196299673185,514.3897102181186 M 6116.4196299674,514.3897102178248 M 6116.419629967428,517.3897102177334 M 6086.419629967511,517.3897102174392 M 6086.419629967486,514.389710217532 M 6056.419629967568,514.3897102172396 M 6056.419629967593,517.3897102171495 M 6026.419629967679,517.3897102168603 M 6026.4196299676505,514.3897102169512 M 5996.419629967732,514.3897102166629 M 5996.419629967759,517.3897102165729 M 5966.419629967842,517.3897102162887 M 5966.419629967817,514.3897102163769 M 6455.54748770753,843.4382862265852 M 6455.547495801384,677.4382862312718 M 6452.547495801387,677.4382862312355 M 6452.547495800856,577.4382862343168 M 6455.547495800851,577.4382862343564 M 6455.547495800318,477.43828623766103 M 6452.5474958003215,477.438286237621 M 6452.54749579979,377.43828624117987 M 6455.547495799787,377.43828624122307 M 6455.547495799252,277.4382862450575 M 6452.547495799257,277.438286245012 M 6452.547495798726,177.43828624915204 M 6455.547495798719,177.4382862492007 M 6455.547487703097,11.438286256872743 M 6465.547487703068,11.438286257052823 M 6465.547487703085,14.438286256902757 M 6475.547487703057,14.4382862570842 M 6475.547487703041,11.438286257231539 M 6485.547487703016,11.438286257411619 M 6485.547487703032,14.438286257264735 M 6495.547487703005,14.438286257443906 M 6495.547487702988,11.438286257589425 M 6505.547487702963,11.43828625776905 M 6505.547487702977,14.438286257625805 M 6515.547487702945,14.438286257807704 M 6515.547487707347,840.4382862274174 M 6505.5474877073775,840.4382862272992 M 6505.547487707394,843.4382862272137 M 6495.547487707421,843.4382862270945 M 6495.547487707405,840.43828622718 M 6485.547487707432,840.4382862270609 M 6485.54748770745,843.4382862269385 M 6475.547487707476,843.4382862268199 M 6475.547487707459,840.4382862269031 M 6465.547487707487,840.438286226783 M 6465.547487707503,843.4382862267025 M 6325.173741703566,432.15320788263125 M 6338.173741703527,432.1532078827727 M 6338.173741703651,446.1532078822879 M 6325.173741703686,446.1532078821497 M 6248.751279034452,502.4389631568365 M 6300.751279033197,372.4389631618201 M 6302.751279033191,372.4389631618419 M 6302.751279033346,390.4389631612021 M 6305.751279033338,390.4389631612353 M 6305.751279033182,372.4389631618765 M 6314.751279033157,372.4389631619779 M 6314.7512790343635,513.4389631571476 M 6254.7512790345245,513.4389631565323 M 6254.751279034483,508.43896315670554 M 6284.751279034404,508.43896315701477 M 6284.751279034379,505.43896315709753 M 6254.751279034457,505.4389631567883 M 6254.7512790344335,502.43896315689744 M 6324.762001721814,379.4223497256994 M 6337.762001721778,379.42234972584447 M 6337.7620017219,393.42234972534334 M 6340.762001721892,393.422349725377 M 6340.762001721936,398.4223497251992 M 6321.762001721989,398.42234972499 M 6321.762001721943,393.4223497251678 M 6324.762001721936,393.422349725201 M 6324.343244959371,350.36288899166993 M 6337.343244959335,350.3628889918173 M 6337.343244959457,364.3628889913057 M 6340.343244959449,364.36288899133933 M 6340.343244959493,369.36288899115834 M 6321.343244959544,369.36288899094416 M 6321.3432449595,364.3628889911265 M 6324.343244959493,364.3628889911588 M 5936.314932379924,855.0774794405402 M 5936.314932379848,845.0774794407748 M 6100.314919933424,845.0774794422059 M 6100.314919933402,842.07747944228 M 6199.6894146709965,842.0774794431727 M 6199.689414671019,845.0774794430936 M 6299.063909408615,845.0774794440003 M 6299.063909408592,842.0774794440808 M 6400.314919932576,842.0774794450235 M 6400.3149199326,845.0774794449426 M 6513.314932378245,845.0774794460158 M 6513.314932378322,855.0774713510114 M 6516.314932378315,855.0774713510395 M 6516.314932378393,865.0774713507712 M 6513.314932378398,865.0774713507421 M 6513.314932378476,875.077471350477 M 6516.314932378467,875.077471350507 M 6516.314932378544,885.0774713502424 M 6513.314932378553,885.0774713502142 M 6513.314932378629,895.0774713499522 M 6516.31493237862,895.0774713499795 M 6516.3149323786965,905.0774794444542 M 5933.314932380303,905.0774794393415 M 5933.314932380226,895.0774794395725 M 5936.314932380232,895.0774794395984 M 5936.314932380155,885.077479439829 M 5933.31493238015,885.0774794398044 M 5933.3149323800735,875.0774794400413 M 5936.314932380077,875.0774794400681 M 5936.314932380002,865.0774794403005 M 5933.314932379997,865.0774794402746 M 5933.31493237992,855.0774794405124 M 6324.45166176183,320.8241076664003 M 6337.451661761796,320.82410766655084 M 6337.451661761916,334.82410766602743 M 6340.451661761908,334.8241076660611 M 6340.451661761952,339.8241076658769 M 6321.451661762003,339.82410766565727 M 6321.451661761959,334.8241076658437 M 6324.451661761952,334.8241076658783 M 6173.419629967292,519.744105969412 M 6193.419629967236,519.7441059696089 M 6193.419629969178,742.7441059631046 M 6293.419629968904,742.7441059639659 M 6293.419629966964,519.7441059706102 M 6333.419629966853,519.7441059710163 M 6333.419629966878,522.7441059709176 M 6373.419629966769,522.7441059713265 M 6373.419629966744,519.744105971426 M 6413.419629966633,519.7441059718371 M 6413.419629966658,522.7441059717394 M 6433.419629966607,522.7441059719472 M 6433.419629966951,562.7441059706443 M 6436.419629966946,562.7441059706716 M 6436.419629967118,582.7441059700354 M 6433.419629967126,582.7441059700054 M 6433.419629967824,662.7441059675425 M 6436.419629967813,662.7441059675671 M 6436.41962996799,682.7188117432565 M 6433.419629967997,682.7188117432261 M 6433.419629968694,762.5441059646469 M 6436.419629968683,762.5441059646719 M 6436.419629968857,782.5441059641139 M 6433.419629968868,782.5441059640898 M 6433.419629969205,821.5441059630211 M 5933.41962997058,821.5441059589793 M 5933.419629970242,782.5441059599393 M 5930.419629970248,782.5441059599148 M 5930.4196299700725,762.5441059604182 M 5933.419629970064,762.54410596044 M 5933.419629969371,682.7188117387918 M 5930.419629969378,682.7188117387668 M 5930.419629969205,662.7441059630196 M 5933.419629969198,662.7441059630437 M 5933.419629968501,582.7441059652629 M 5930.419629968508,582.7441059652365 M 5930.419629968335,562.7441059658099 M 5933.419629968326,562.7441059658368 M 5933.419629967978,522.7441059670105 M 5953.419629967926,522.7441059671978 M 5953.419629967897,519.7441059672888 M 5993.419629967788,519.7441059676662 M 5993.419629967814,522.7441059675775 M 6033.419629967704,522.7441059679577 M 6033.419629967678,519.7441059680482 M 6073.419629967568,519.7441059684365 M 6073.419629969509,742.7441059620901 M 6173.419629969232,742.7441059629323 M 6324.728756790595,407.0873717360496 M 6337.728756790559,407.0873717361924 M 6337.728756790682,421.08737173570216 M 6340.728756790675,421.087371735734 M 6340.728756790719,426.0873717355603 M 6321.72875679077,426.0873717353543 M 6321.728756790726,421.08737173552754 M 6324.728756790719,421.0873717355598 M 6299.396827114542,152.8932815798412 M 6247.396827113651,22.893281584914348 M 6253.396827113633,22.893281585003024 M 6253.3968271136055,19.893281585157638 M 6283.396827113528,19.893281585603745 M 6283.396827113505,16.893281585733348 M 6253.396827113583,16.893281585285422 M 6253.396827113542,11.893281585537352 M 6313.396827113382,11.893281586435478 M 6313.3968271145,152.89328158003354 M 6304.396827114529,152.8932815799094 M 6304.396827114384,134.89328158068201 M 6301.396827114393,134.89328158064154 M 6301.396827114537,152.89328157986938 "
  />
  <path id="face0-interior"
 style="fill:none;stroke:#00FF00;stroke-width:1;stroke-miterlimit:4;stroke-dasharray:none;stroke-linejoin:round;stroke-linecap:round"
        d="M 5933.419629967035,414.3897102191654 M 5933.419629967906,514.3897102160636 M 5966.419629967817,514.3897102163769 M 5966.419629967842,517.3897102162887 M 5996.419629967759,517.3897102165729 M 5996.419629967732,514.3897102166629 M 6026.4196299676505,514.3897102169512 M 6026.419629967679,517.3897102168603 M 6056.419629967593,517.3897102171495 M 6056.419629967568,514.3897102172396 M 6086.419629967486,514.389710217532 M 6086.419629967511,517.3897102174392 M 6116.419629967428,517.3897102177334 M 6116.4196299674,514.3897102178248 M 6146.4196299673185,514.3897102181186 M 6146.419629967344,517.3897102180267 M 6176.419629967262,517.3897102183228 M 6176.419629967237,514.3897102184151 M 6206.419629967155,514.3897102187143 M 6206.419629967179,517.3897102186215 M 6235.2142803796405,517.3897102189085 M 6237.999696931305,518.503906333216 M 6250.650365629427,486.87890633487814 M 6247.864949077763,485.764710220054 M 6260.515617775885,454.1397102212313 M 6263.3010358813835,455.253906944984 M 6275.951704579508,423.62890694657744 M 6273.166286474008,422.51471022243913 M 6285.81695517213,390.88971022367514 M 6288.602374354259,392.00390736599 M 6301.253043052382,360.37890736751433 M 6298.467623870254,359.26471022494707 M 6311.118292568375,327.6397102262504 M 6313.903712349926,328.75390759624406 M 6326.554381048047,297.12890759769243 M 6323.768961266496,296.0147102275905 M 6336.419629964619,264.3897102289661 M 6323.771271832007,232.7647102300666 M 6326.556726033228,231.65060083821572 M 6313.908367900616,200.0256008391234 M 6311.122913699399,201.13971023119439 M 6298.474555566789,169.51471023234535 M 6301.2600061789235,168.4006022552121 M 6288.6116480463115,136.77560225589923 M 6285.826197434178,137.88971023352633 M 6273.177839301567,106.26471023473505 M 6275.963283447661,105.1506048258102 M 6263.31492531505,73.52560482629951 M 6260.529481168955,74.63971023597333 M 6247.881123036343,43.01471023724571 M 6250.666560403939,41.900614892676 M 6238.463782522808,11.389710190069309 M 6235.232764903735,11.389710238546286 M 6206.419629962776,11.389710238139287 M 6206.419629962802,14.389710237996951 M 6176.419629962884,14.389710237577674 M 6176.4196299628575,11.3897102377191 M 6146.419629962941,11.389710237302097 M 6146.4196299629675,14.389710237159761 M 6116.41962996305,14.389710236745032 M 6116.419629963024,11.389710236884639 M 6086.419629963106,11.389710236471274 M 6086.419629963132,14.389710236331666 M 6056.419629963215,14.389710235922394 M 6056.419629963188,11.389710236057454 M 6026.419629963271,11.389710235650455 M 6026.419629963299,14.389710235511757 M 5996.41962996338,14.389710235104758 M 5996.419629963355,11.389710235240727 M 5966.419629963437,11.389710234835547 M 5966.419629963464,14.389710234699123 M 5933.419629963552,14.389710234258018 M 5933.419629964423,114.38971023001477 M 5936.419629964417,114.3897102300516 M 5936.419629965287,214.38971022614396 M 5933.419629965294,214.38971022610986 M 5933.419629966164,314.3897102225051 M 5936.419629966156,314.3897102225378 M 5936.419629967028,414.3897102191959 "
  />
  <path id="face1-interior"
 style="fill:none;stroke:#00FF00;stroke-width:1;stroke-miterlimit:4;stroke-dasharray:none;stroke-linejoin:round;stroke-linecap:round"
        d="M 6300.751279033197,372.4389631618201 M 6248.751279034452,502.4389631568365 M 6254.7512790344335,502.43896315689744 M 6254.751279034457,505.4389631567883 M 6284.751279034379,505.43896315709753 M 6284.751279034404,508.43896315701477 M 6254.751279034483,508.43896315670554 M 6254.7512790345245,513.4389631565323 M 6314.7512790343635,513.4389631571476 M 6314.751279033157,372.4389631619779 M 6305.751279033182,372.4389631618765 M 6305.751279033338,390.4389631612353 M 6302.751279033346,390.4389631612021 M 6302.751279033191,372.4389631618419 M 6266.751279034324,493.438963157314 M 6266.751279034152,473.43896315797065 M 6269.751279034144,473.4389631580025 M 6269.751279034314,493.43896315734537 M 6287.7512790338,438.438963159369 M 6284.751279033804,438.43896315933625 M 6284.751279033779,435.438963159439 M 6287.751279033773,435.43896315947177 M 6290.751279033747,433.4389631595718 M 6290.751279033575,413.4389631602612 M 6293.751279033568,413.43896316029304 M 6293.751279033737,433.43896315960365 M 6296.7512790334895,405.4389631606059 M 6299.751279033484,405.43896316063956 M 6299.7512790335095,408.43896316053315 M 6296.751279033515,408.43896316049995 M 6278.751279034039,463.4389631584281 M 6278.751279033866,443.4389631591025 M 6281.751279033857,443.43896315913435 M 6281.751279034028,463.4389631584613 M 6275.751279034085,468.4389631582312 M 6272.751279034092,468.43896315819893 M 6272.751279034066,465.4389631582999 M 6275.751279034059,465.4389631583299 M 6257.751279034391,498.4389631570589 M 6257.751279034364,495.43896315715574 M 6263.751279034346,495.4389631572185 M 6263.751279034372,498.4389631571212 M 6311.751279033215,378.43896316173004 M 6308.751279033224,378.43896316169594 M 6308.7512790332,375.4389631618019 M 6311.75127903319,375.43896316183645 "
  />
  <path id="face2-interior"
 style="fill:none;stroke:#00FF00;stroke-width:1;stroke-miterlimit:4;stroke-dasharray:none;stroke-linejoin:round;stroke-linecap:round"
        d="M 6337.343244959335,350.3628889918173 M 6324.343244959371,350.36288899166993 M 6324.343244959493,364.3628889911588 M 6321.3432449595,364.3628889911265 M 6321.343244959544,369.36288899094416 M 6340.343244959493,369.36288899115834 M 6340.343244959449,364.36288899133933 M 6337.343244959457,364.3628889913057 M 6329.3432449594,355.3628889915449 M 6329.782584787627,355.0257716844676 M 6330.294206853727,354.8138508858933 M 6330.843244959398,354.74156864801944 M 6331.392283065072,354.81385088590923 M 6331.903905131172,355.02577168449716 M 6332.343244959393,355.3628889915776 M 6332.680362266481,355.802228819784 M 6332.892283065072,356.31385088586967 M 6332.9645653029565,356.8628889915253 M 6332.892283065077,357.411927097181 M 6332.68036226649,357.92354916325985 M 6332.343244959418,358.36288899146757 M 6331.903905131192,358.7000062985244 M 6331.392283065094,358.9119270970973 M 6330.84324495942,358.9842093349703 M 6330.294206853749,358.91192709708 M 6329.782584787648,358.7000062984944 M 6329.3432449594275,358.3628889914344 M 6329.006127652341,357.9235491632053 M 6328.79420685375,357.41192709711913 M 6328.721924615864,356.8628889914644 M 6328.794206853745,356.31385088580964 M 6329.00612765233,355.8022288197317 "
  />
  <path id="face3-interior"
 style="fill:none;stroke:#00FF00;stroke-width:1;stroke-miterlimit:4;stroke-dasharray:none;stroke-linejoin:round;stroke-linecap:round"
        d="M 5936.314932379848,845.0774794407748 M 5936.314932379924,855.0774794405402 M 5933.31493237992,855.0774794405124 M 5933.314932379997,865.0774794402746 M 5936.314932380002,865.0774794403005 M 5936.314932380077,875.0774794400681 M 5933.3149323800735,875.0774794400413 M 5933.31493238015,885.0774794398044 M 5936.314932380155,885.077479439829 M 5936.314932380232,895.0774794395984 M 5933.314932380226,895.0774794395725 M 5933.314932380303,905.0774794393415 M 6516.3149323786965,905.0774794444542 M 6516.31493237862,895.0774713499795 M 6513.314932378629,895.0774713499522 M 6513.314932378553,885.0774713502142 M 6516.314932378544,885.0774713502424 M 6516.314932378467,875.077471350507 M 6513.314932378476,875.077471350477 M 6513.314932378398,865.0774713507421 M 6516.314932378393,865.0774713507712 M 6516.314932378315,855.0774713510395 M 6513.314932378322,855.0774713510114 M 6513.314932378245,845.0774794460158 M 6400.3149199326,845.0774794449426 M 6400.314919932576,842.0774794450235 M 6299.063909408592,842.0774794440808 M 6299.063909408615,845.0774794440003 M 6199.689414671019,845.0774794430936 M 6199.6894146709965,842.0774794431727 M 6100.314919933402,842.07747944228 M 6100.314919933424,845.0774794422059 "
  />
  <path id="face4-interior"
 style="fill:none;stroke:#00FF00;stroke-width:1;stroke-miterlimit:4;stroke-dasharray:none;stroke-linejoin:round;stroke-linecap:round"
        d="M 6337.451661761796,320.82410766655084 M 6324.45166176183,320.8241076664003 M 6324.451661761952,334.8241076658783 M 6321.451661761959,334.8241076658437 M 6321.451661762003,339.82410766565727 M 6340.451661761952,339.8241076658769 M 6340.451661761908,334.8241076660611 M 6337.451661761916,334.82410766602743 M 6329.451661761859,325.8241076662721 M 6329.891001590086,325.4869903591939 M 6330.402623656186,325.2750695606205 M 6330.951661761857,325.20278732274755 M 6331.500699867533,325.27506956063735 M 6332.012321933631,325.48699035922436 M 6332.451661761852,325.8241076663053 M 6332.78877906894,326.26344749451073 M 6333.000699867531,326.7750695605978 M 6333.072982105416,327.3241076662516 M 6333.000699867536,327.87314577190546 M 6332.788779068951,328.3847678379848 M 6332.451661761877,328.82410766619296 M 6332.012321933651,329.1612249732498 M 6331.500699867554,329.37314577182224 M 6330.951661761881,329.44542800969384 M 6330.402623656208,329.3731457718054 M 6329.891001590107,329.1612249732175 M 6329.4516617618865,328.82410766615794 M 6329.1145444548,328.3847678379302 M 6328.9026236562095,327.8731457718445 M 6328.830341418323,327.3241076661898 M 6328.902623656204,326.7750695605346 M 6329.114544454789,326.263447494458 "
  />
  <path id="face5-interior"
 style="fill:none;stroke:#00FF00;stroke-width:1;stroke-miterlimit:4;stroke-dasharray:none;stroke-linejoin:round;stroke-linecap:round"
        d="M 6193.419629967236,519.7441059696089 M 6173.419629967292,519.744105969412 M 6173.419629969232,742.7441059629323 M 6073.419629969509,742.7441059620901 M 6073.419629967568,519.7441059684365 M 6033.419629967678,519.7441059680482 M 6033.419629967704,522.7441059679577 M 5993.419629967814,522.7441059675775 M 5993.419629967788,519.7441059676662 M 5953.419629967897,519.7441059672888 M 5953.419629967926,522.7441059671978 M 5933.419629967978,522.7441059670105 M 5933.419629968326,562.7441059658368 M 5930.419629968335,562.7441059658099 M 5930.419629968508,582.7441059652365 M 5933.419629968501,582.7441059652629 M 5933.419629969198,662.7441059630437 M 5930.419629969205,662.7441059630196 M 5930.419629969378,682.7188117387668 M 5933.419629969371,682.7188117387918 M 5933.419629970064,762.54410596044 M 5930.4196299700725,762.5441059604182 M 5930.419629970248,782.5441059599148 M 5933.419629970242,782.5441059599393 M 5933.41962997058,821.5441059589793 M 6433.419629969205,821.5441059630211 M 6433.419629968868,782.5441059640898 M 6436.419629968857,782.5441059641139 M 6436.419629968683,762.5441059646719 M 6433.419629968694,762.5441059646469 M 6433.419629967997,682.7188117432261 M 6436.41962996799,682.7188117432565 M 6436.419629967813,662.7441059675671 M 6433.419629967824,662.7441059675425 M 6433.419629967126,582.7441059700054 M 6436.419629967118,582.7441059700354 M 6436.419629966946,562.7441059706716 M 6433.419629966951,562.7441059706443 M 6433.419629966607,522.7441059719472 M 6413.419629966658,522.7441059717394 M 6413.419629966633,519.7441059718371 M 6373.419629966744,519.744105971426 M 6373.419629966769,522.7441059713265 M 6333.419629966878,522.7441059709176 M 6333.419629966853,519.7441059710163 M 6293.419629966964,519.7441059706102 M 6293.419629968904,742.7441059639659 M 6193.419629969178,742.7441059631046 M 6186.419629967804,582.7441059676053 M 6183.419629967813,582.744105967573 M 6183.41962996764,562.7441059681796 M 6186.419629967629,562.7441059682078 M 6186.4196299686755,682.718811740976 M 6183.419629968682,682.7188117409501 M 6183.41962996851,662.7441059652338 M 6186.419629968503,662.744105965262 M 6186.419629969361,761.5441059625387 M 6186.419629969536,781.544105962008 M 6183.419629969542,781.5441059619848 M 6183.41962996937,761.5441059625114 "
  />
  <path id="face6-interior"
 style="fill:none;stroke:#00FF00;stroke-width:1;stroke-miterlimit:4;stroke-dasharray:none;stroke-linejoin:round;stroke-linecap:round"
        d="M 6337.728756790559,407.0873717361924 M 6324.728756790595,407.0873717360496 M 6324.728756790719,421.0873717355598 M 6321.728756790726,421.08737173552754 M 6321.72875679077,426.0873717353543 M 6340.728756790719,426.0873717355603 M 6340.728756790675,421.087371735734 M 6337.728756790682,421.08737173570216 M 6329.728756790626,412.0873717359282 M 6330.168096618852,411.7502544288509 M 6330.679718684953,411.53833363027707 M 6331.228756790624,411.46605139240455 M 6331.777794896298,411.53833363029344 M 6332.289416962398,411.7502544288818 M 6332.728756790619,412.0873717359609 M 6333.065874097707,412.5267115641673 M 6333.277794896296,413.0383336302566 M 6333.3500771341805,413.5873717359127 M 6333.277794896303,414.136409841567 M 6333.065874097718,414.64803190764815 M 6332.728756790644,415.0873717358563 M 6332.28941696242,415.4244890429145 M 6331.777794896319,415.63640984148833 M 6331.228756790648,415.7086920793595 M 6330.679718684974,415.63640984147105 M 6330.168096618872,415.42448904288267 M 6329.7287567906515,415.0873717358231 M 6329.391639483567,414.64803190759494 M 6329.179718684976,414.13640984150925 M 6329.10743644709,413.5873717358527 M 6329.179718684971,413.0383336301966 M 6329.391639483554,412.5267115641177 "
  />
  <path id="face7-interior"
 style="fill:none;stroke:#00FF00;stroke-width:1;stroke-miterlimit:4;stroke-dasharray:none;stroke-linejoin:round;stroke-linecap:round"
        d="M 6247.396827113651,22.893281584914348 M 6299.396827114542,152.8932815798412 M 6301.396827114537,152.89328157986938 M 6301.396827114393,134.89328158064154 M 6304.396827114384,134.89328158068201 M 6304.396827114529,152.8932815799094 M 6313.3968271145,152.89328158003354 M 6313.396827113382,11.893281586435478 M 6253.396827113542,11.893281585537352 M 6253.396827113583,16.893281585285422 M 6283.396827113505,16.893281585733348 M 6283.396827113528,19.893281585603745 M 6253.3968271136055,19.893281585157638 M 6253.396827113633,22.893281585003024 M 6265.396827113829,51.89328158383114 M 6265.396827113671,31.893281584757915 M 6268.396827113662,31.89328158480339 M 6268.396827113822,51.893281583874796 M 6283.396827114061,86.89328158250191 M 6286.396827114055,86.89328158254466 M 6286.396827114078,89.89328158241005 M 6283.396827114084,89.89328158236776 M 6289.396827114244,111.89328158147691 M 6289.396827114086,91.89328158236322 M 6292.396827114077,91.89328158240596 M 6292.396827114235,111.8932815815192 M 6298.396827114284,119.8932815812509 M 6295.396827114289,119.89328158120952 M 6295.396827114266,116.89328158134049 M 6298.39682711426,116.89328158138278 M 6277.396827114039,81.89328158264107 M 6277.39682711388,61.893281583545104 M 6280.396827113871,61.89328158358967 M 6280.39682711403,81.89328158268381 M 6271.396827113853,56.893281583688804 M 6274.396827113846,56.89328158373428 M 6274.396827113869,59.89328158359649 M 6271.3968271138765,59.89328158355056 M 6256.396827113678,29.893281584719716 M 6256.396827113656,26.893281584862052 M 6262.396827113636,26.893281584950273 M 6262.396827113662,29.893281584809756 M 6307.396827114471,146.89328158020862 M 6310.396827114464,146.8932815802491 M 6310.396827114487,149.8932815801204 M 6307.396827114495,149.89328158007993 "
  />
  <path id="face8-interior"
 style="fill:none;stroke:#00FF00;stroke-width:1;stroke-miterlimit:4;stroke-dasharray:none;stroke-linejoin:round;stroke-linecap:round"
        d="M 6455.547495801384,677.4382862312718 M 6455.54748770753,843.4382862265852 M 6465.547487707503,843.4382862267025 M 6465.547487707487,840.438286226783 M 6475.547487707459,840.4382862269031 M 6475.547487707476,843.4382862268199 M 6485.54748770745,843.4382862269385 M 6485.547487707432,840.4382862270609 M 6495.547487707405,840.43828622718 M 6495.547487707421,843.4382862270945 M 6505.547487707394,843.4382862272137 M 6505.5474877073775,840.4382862272992 M 6515.547487707347,840.4382862274174 M 6515.547487702945,14.438286257807704 M 6505.547487702977,14.438286257625805 M 6505.547487702963,11.43828625776905 M 6495.547487702988,11.438286257589425 M 6495.547487703005,14.438286257443906 M 6485.547487703032,14.438286257264735 M 6485.547487703016,11.438286257411619 M 6475.547487703041,11.438286257231539 M 6475.547487703057,14.4382862570842 M 6465.547487703085,14.438286256902757 M 6465.547487703068,11.438286257052823 M 6455.547487703097,11.438286256872743 M 6455.547495798719,177.4382862492007 M 6452.547495798726,177.43828624915204 M 6452.547495799257,277.438286245012 M 6455.547495799252,277.4382862450575 M 6455.547495799787,377.43828624122307 M 6452.54749579979,377.43828624117987 M 6452.5474958003215,477.438286237621 M 6455.547495800318,477.43828623766103 M 6455.547495800851,577.4382862343564 M 6452.547495800856,577.4382862343168 M 6452.547495801387,677.4382862312355 "
  />
  <path id="face9-interior"
 style="fill:none;stroke:#00FF00;stroke-width:1;stroke-miterlimit:4;stroke-dasharray:none;stroke-linejoin:round;stroke-linecap:round"
        d="M 6338.173741703527,432.1532078827727 M 6325.173741703566,432.15320788263125 M 6325.173741703686,446.1532078821497 M 6338.173741703651,446.1532078822879 M 6332.734401875374,437.8160905754289 M 6333.173741703595,438.1532078825094 M 6333.510859010685,438.5925477107194 M 6333.722779809277,439.1041697768055 M 6333.795062047166,439.65320788246436 M 6333.722779809288,440.20224598812 M 6333.510859010705,440.7138680542057 M 6333.17374170362,441.15320788240706 M 6332.734401875405,441.4903251894784 M 6332.2227798093045,441.7022459880541 M 6331.673741703629,441.7745282259293 M 6331.124703597954,441.7022459880436 M 6330.61308153185,441.4903251894548 M 6330.173741703631,441.1532078823743 M 6329.836624396537,440.7138680541657 M 6329.624703597945,440.2022459880791 M 6329.5524213600565,439.65320788242025 M 6329.624703597936,439.10416977676095 M 6329.836624396519,438.592547710678 M 6330.173741703604,438.1532078824753 M 6330.613081531817,437.81609057540527 M 6331.1247035979195,437.60416977682917 M 6331.673741703593,437.5318875389539 M 6332.22277980927,437.6041697768419 "
  />
  <path id="face10-interior"
 style="fill:none;stroke:#00FF00;stroke-width:1;stroke-miterlimit:4;stroke-dasharray:none;stroke-linejoin:round;stroke-linecap:round"
        d="M 6337.762001721778,379.42234972584447 M 6324.762001721814,379.4223497256994 M 6324.762001721936,393.422349725201 M 6321.762001721943,393.4223497251678 M 6321.762001721989,398.42234972499 M 6340.762001721936,398.4223497251992 M 6340.762001721892,393.422349725377 M 6337.7620017219,393.42234972534334 M 6329.762001721843,384.4223497255766 M 6330.20134155007,384.08523241850025 M 6330.71296361617,383.87331161992597 M 6331.262001721841,383.8010293820521 M 6331.811039827515,383.873311619941 M 6332.322661893617,384.085232418528 M 6332.762001721836,384.4223497256112 M 6333.099119028924,384.86168955381754 M 6333.311039827515,385.37331161990323 M 6333.3833220654,385.9223497255575 M 6333.31103982752,386.4713878312132 M 6333.099119028935,386.9830098972934 M 6332.762001721863,387.4223497255016 M 6332.322661893637,387.75946703255886 M 6331.8110398275385,387.9713878311327 M 6331.262001721867,388.0436700690034 M 6330.712963616192,387.9713878311168 M 6330.20134155009,387.7594670325302 M 6329.762001721869,387.4223497254693 M 6329.424884414784,386.9830098972402 M 6329.2129636161935,386.4713878311545 M 6329.140681378309,385.92234972549795 M 6329.212963616188,385.37331161984184 M 6329.424884414771,384.86168955376434 "
  />
  <path id="face11-interior"
 style="fill:none;stroke:#00FF00;stroke-width:1;stroke-miterlimit:4;stroke-dasharray:none;stroke-linejoin:round;stroke-linecap:round"
        d="M 6523.521361661522,909.9999999759234 M 6523.521361653689,10.000000008464212 M 5923.521361655339,10.0 M 5923.521361663174,909.9999999713059 M 5933.419629967906,514.3897102160636 M 5933.419629967035,414.3897102191654 M 5936.419629967028,414.3897102191959 M 5936.419629966156,314.3897102225378 M 5933.419629966164,314.3897102225051 M 5933.419629965294,214.38971022610986 M 5936.419629965287,214.38971022614396 M 5936.419629964417,114.3897102300516 M 5933.419629964423,114.38971023001477 M 5933.419629963552,14.389710234258018 M 5966.419629963464,14.389710234699123 M 5966.419629963437,11.389710234835547 M 5996.419629963355,11.389710235240727 M 5996.41962996338,14.389710235104758 M 6026.419629963299,14.389710235511757 M 6026.419629963271,11.389710235650455 M 6056.419629963188,11.389710236057454 M 6056.419629963215,14.389710235922394 M 6086.419629963132,14.389710236331666 M 6086.419629963106,11.389710236471274 M 6116.419629963024,11.389710236884639 M 6116.41962996305,14.389710236745032 M 6146.4196299629675,14.389710237159761 M 6146.419629962941,11.389710237302097 M 6176.4196299628575,11.3897102377191 M 6176.419629962884,14.389710237577674 M 6206.419629962802,14.389710237996951 M 6206.419629962776,11.389710238139287 M 6235.232764903735,11.389710238546286 M 6238.463782522808,11.389710190069309 M 6250.666560403939,41.900614892676 M 6247.881123036343,43.01471023724571 M 6260.529481168955,74.63971023597333 M 6263.31492531505,73.52560482629951 M 6275.963283447661,105.1506048258102 M 6273.177839301567,106.26471023473505 M 6285.826197434178,137.88971023352633 M 6288.6116480463115,136.77560225589923 M 6301.2600061789235,168.4006022552121 M 6298.474555566789,169.51471023234535 M 6311.122913699399,201.13971023119439 M 6313.908367900616,200.0256008391234 M 6326.556726033228,231.65060083821572 M 6323.771271832007,232.7647102300666 M 6336.419629964619,264.3897102289661 M 6323.768961266496,296.0147102275905 M 6326.554381048047,297.12890759769243 M 6313.903712349926,328.75390759624406 M 6311.118292568375,327.6397102262504 M 6298.467623870254,359.26471022494707 M 6301.253043052382,360.37890736751433 M 6288.602374354259,392.00390736599 M 6285.81695517213,390.88971022367514 M 6273.166286474008,422.51471022243913 M 6275.951704579508,423.62890694657744 M 6263.3010358813835,455.253906944984 M 6260.515617775885,454.1397102212313 M 6247.864949077763,485.764710220054 M 6250.650365629427,486.87890633487814 M 6237.999696931305,518.503906333216 M 6235.2142803796405,517.3897102189085 M 6206.419629967179,517.3897102186215 M 6206.419629967155,514.3897102187143 M 6176.419629967237,514.3897102184151 M 6176.419629967262,517.3897102183228 M 6146.419629967344,517.3897102180267 M 6146.4196299673185,514.3897102181186 M 6116.4196299674,514.3897102178248 M 6116.419629967428,517.3897102177334 M 6086.419629967511,517.3897102174392 M 6086.419629967486,514.389710217532 M 6056.419629967568,514.3897102172396 M 6056.419629967593,517.3897102171495 M 6026.419629967679,517.3897102168603 M 6026.4196299676505,514.3897102169512 M 5996.419629967732,514.3897102166629 M 5996.419629967759,517.3897102165729 M 5966.419629967842,517.3897102162887 M 5966.419629967817,514.3897102163769 M 6455.54748770753,843.4382862265852 M 6455.547495801384,677.4382862312718 M 6452.547495801387,677.4382862312355 M 6452.547495800856,577.4382862343168 M 6455.547495800851,577.4382862343564 M 6455.547495800318,477.43828623766103 M 6452.5474958003215,477.438286237621 M 6452.54749579979,377.43828624117987 M 6455.547495799787,377.43828624122307 M 6455.547495799252,277.4382862450575 M 6452.547495799257,277.438286245012 M 6452.547495798726,177.43828624915204 M 6455.547495798719,177.4382862492007 M 6455.547487703097,11.438286256872743 M 6465.547487703068,11.438286257052823 M 6465.547487703085,14.438286256902757 M 6475.547487703057,14.4382862570842 M 6475.547487703041,11.438286257231539 M 6485.547487703016,11.438286257411619 M 6485.547487703032,14.438286257264735 M 6495.547487703005,14.438286257443906 M 6495.547487702988,11.438286257589425 M 6505.547487702963,11.43828625776905 M 6505.547487702977,14.438286257625805 M 6515.547487702945,14.438286257807704 M 6515.547487707347,840.4382862274174 M 6505.5474877073775,840.4382862272992 M 6505.547487707394,843.4382862272137 M 6495.547487707421,843.4382862270945 M 6495.547487707405,840.43828622718 M 6485.547487707432,840.4382862270609 M 6485.54748770745,843.4382862269385 M 6475.547487707476,843.4382862268199 M 6475.547487707459,840.4382862269031 M 6465.547487707487,840.438286226783 M 6465.547487707503,843.4382862267025 M 6325.173741703566,432.15320788263125 M 6338.173741703527,432.1532078827727 M 6338.173741703651,446.1532078822879 M 6325.173741703686,446.1532078821497 M 6248.751279034452,502.4389631568365 M 6300.751279033197,372.4389631618201 M 6302.751279033191,372.4389631618419 M 6302.751279033346,390.4389631612021 M 6305.751279033338,390.4389631612353 M 6305.751279033182,372.4389631618765 M 6314.751279033157,372.4389631619779 M 6314.7512790343635,513.4389631571476 M 6254.7512790345245,513.4389631565323 M 6254.751279034483,508.43896315670554 M 6284.751279034404,508.43896315701477 M 6284.751279034379,505.43896315709753 M 6254.751279034457,505.4389631567883 M 6254.7512790344335,502.43896315689744 M 6324.762001721814,379.4223497256994 M 6337.762001721778,379.42234972584447 M 6337.7620017219,393.42234972534334 M 6340.762001721892,393.422349725377 M 6340.762001721936,398.4223497251992 M 6321.762001721989,398.42234972499 M 6321.762001721943,393.4223497251678 M 6324.762001721936,393.422349725201 M 6324.343244959371,350.36288899166993 M 6337.343244959335,350.3628889918173 M 6337.343244959457,364.3628889913057 M 6340.343244959449,364.36288899133933 M 6340.343244959493,369.36288899115834 M 6321.343244959544,369.36288899094416 M 6321.3432449595,364.3628889911265 M 6324.343244959493,364.3628889911588 M 5936.314932379924,855.0774794405402 M 5936.314932379848,845.0774794407748 M 6100.314919933424,845.0774794422059 M 6100.314919933402,842.07747944228 M 6199.6894146709965,842.0774794431727 M 6199.689414671019,845.0774794430936 M 6299.063909408615,845.0774794440003 M 6299.063909408592,842.0774794440808 M 6400.314919932576,842.0774794450235 M 6400.3149199326,845.0774794449426 M 6513.314932378245,845.0774794460158 M 6513.314932378322,855.0774713510114 M 6516.314932378315,855.0774713510395 M 6516.314932378393,865.0774713507712 M 6513.314932378398,865.0774713507421 M 6513.314932378476,875.077471350477 M 6516.314932378467,875.077471350507 M 6516.314932378544,885.0774713502424 M 6513.314932378553,885.0774713502142 M 6513.314932378629,895.0774713499522 M 6516.31493237862,895.0774713499795 M 6516.3149323786965,905.0774794444542 M 5933.314932380303,905.0774794393415 M 5933.314932380226,895.0774794395725 M 5936.314932380232,895.0774794395984 M 5936.314932380155,885.077479439829 M 5933.31493238015,885.0774794398044 M 5933.3149323800735,875.0774794400413 M 5936.314932380077,875.0774794400681 M 5936.314932380002,865.0774794403005 M 5933.314932379997,865.0774794402746 M 5933.31493237992,855.0774794405124 M 6324.45166176183,320.8241076664003 M 6337.451661761796,320.82410766655084 M 6337.451661761916,334.82410766602743 M 6340.451661761908,334.8241076660611 M 6340.451661761952,339.8241076658769 M 6321.451661762003,339.82410766565727 M 6321.451661761959,334.8241076658437 M 6324.451661761952,334.8241076658783 M 6173.419629967292,519.744105969412 M 6193.419629967236,519.7441059696089 M 6193.419629969178,742.7441059631046 M 6293.419629968904,742.7441059639659 M 6293.419629966964,519.7441059706102 M 6333.419629966853,519.7441059710163 M 6333.419629966878,522.7441059709176 M 6373.419629966769,522.7441059713265 M 6373.419629966744,519.744105971426 M 6413.419629966633,519.7441059718371 M 6413.419629966658,522.7441059717394 M 6433.419629966607,522.7441059719472 M 6433.419629966951,562.7441059706443 M 6436.419629966946,562.7441059706716 M 6436.419629967118,582.7441059700354 M 6433.419629967126,582.7441059700054 M 6433.419629967824,662.7441059675425 M 6436.419629967813,662.7441059675671 M 6436.41962996799,682.7188117432565 M 6433.419629967997,682.7188117432261 M 6433.419629968694,762.5441059646469 M 6436.419629968683,762.5441059646719 M 6436.419629968857,782.5441059641139 M 6433.419629968868,782.5441059640898 M 6433.419629969205,821.5441059630211 M 5933.41962997058,821.5441059589793 M 5933.419629970242,782.5441059599393 M 5930.419629970248,782.5441059599148 M 5930.4196299700725,762.5441059604182 M 5933.419629970064,762.54410596044 M 5933.419629969371,682.7188117387918 M 5930.419629969378,682.7188117387668 M 5930.419629969205,662.7441059630196 M 5933.419629969198,662.7441059630437 M 5933.419629968501,582.7441059652629 M 5930.419629968508,582.7441059652365 M 5930.419629968335,562.7441059658099 M 5933.419629968326,562.7441059658368 M 5933.419629967978,522.7441059670105 M 5953.419629967926,522.7441059671978 M 5953.419629967897,519.7441059672888 M 5993.419629967788,519.7441059676662 M 5993.419629967814,522.7441059675775 M 6033.419629967704,522.7441059679577 M 6033.419629967678,519.7441059680482 M 6073.419629967568,519.7441059684365 M 6073.419629969509,742.7441059620901 M 6173.419629969232,742.7441059629323 M 6324.728756790595,407.0873717360496 M 6337.728756790559,407.0873717361924 M 6337.728756790682,421.08737173570216 M 6340.728756790675,421.087371735734 M 6340.728756790719,426.0873717355603 M 6321.72875679077,426.0873717353543 M 6321.728756790726,421.08737173552754 M 6324.728756790719,421.0873717355598 M 6299.396827114542,152.8932815798412 M 6247.396827113651,22.893281584914348 M 6253.396827113633,22.893281585003024 M 6253.3968271136055,19.893281585157638 M 6283.396827113528,19.893281585603745 M 6283.396827113505,16.893281585733348 M 6253.396827113583,16.893281585285422 M 6253.396827113542,11.893281585537352 M 6313.396827113382,11.893281586435478 M 6313.3968271145,152.89328158003354 M 6304.396827114529,152.8932815799094 M 6304.396827114384,134.89328158068201 M 6301.396827114393,134.89328158064154 M 6301.396827114537,152.89328157986938 "
  />
</svg>
