999
Inkscape export via "Better DXF Output" (bob@bobcookdev.com)
  0
SECTION
  2
HEADER
  9
$ACADVER
  1
AC1014
  9
$HANDSEED
  5
FFFF
  0
ENDSEC
  0
SECTION
  2
TABLES
  0
TABLE
  2
VPORT
  5
8
330
0
100
AcDbSymbolTable
 70
     4
  0
VPORT
  5
2E
330
8
100
AcDbSymbolTableRecord
100
AcDbViewportTableRecord
  2
*ACTIVE
 70
     0
 10
0.0
 20
0.0
 11
1.0
 21
1.0
 12
4.25
 22
5.5
 13
0.0
 23
0.0
 14
10.0
 24
10.0
 15
10.0
 25
10.0
 16
0.0
 26
0.0
 36
1.0
 17
0.0
 27
0.0
 37
0.0
 40
11
 41
1.24
 42
50.0
 43
0.0
 44
0.0
 50
0.0
 51
0.0
 71
     0
 72
   100
 73
     1
 74
     3
 75
     0
 76
     0
 77
     0
 78
     0
  0
ENDTAB
  0
TABLE
  2
LTYPE
  5
5
330
0
100
AcDbSymbolTable
 70
     1
  0
LTYPE
  5
14
330
5
100
AcDbSymbolTableRecord
100
AcDbLinetypeTableRecord
  2
BYBLOCK
 70
     0
  3

 72
    65
 73
     0
 40
0.0
  0
LTYPE
  5
15
330
5
100
AcDbSymbolTableRecord
100
AcDbLinetypeTableRecord
  2
BYLAYER
 70
     0
  3

 72
    65
 73
     0
 40
0.0
  0
LTYPE
  5
16
330
5
100
AcDbSymbolTableRecord
100
AcDbLinetypeTableRecord
  2
CONTINUOUS
 70
     0
  3
Solid line
 72
    65
 73
     0
 40
0.0
  0
ENDTAB
  0
TABLE
  2
LAYER
  5
2
330
0
100
AcDbSymbolTable
 70
1
  0
LAYER
  5
10
330
2
100
AcDbSymbolTableRecord
100
AcDbLayerTableRecord
  2
0
 70
     0
 62
     7
  6
CONTINUOUS
  0
ENDTAB
  0
TABLE
  2
STYLE
  5
3
330
0
100
AcDbSymbolTable
 70
     1
  0
STYLE
  5
11
330
3
100
AcDbSymbolTableRecord
100
AcDbTextStyleTableRecord
  2
STANDARD
 70
     0
 40
0.0
 41
1.0
 50
0.0
 71
     0
 42
2.5
  3
txt
  4

  0
ENDTAB
  0
TABLE
  2
VIEW
  5
6
330
0
100
AcDbSymbolTable
 70
     0
  0
ENDTAB
  0
TABLE
  2
UCS
  5
7
330
0
100
AcDbSymbolTable
 70
     0
  0
ENDTAB
  0
TABLE
  2
APPID
  5
9
330
0
100
AcDbSymbolTable
 70
     2
  0
APPID
  5
12
330
9
100
AcDbSymbolTableRecord
100
AcDbRegAppTableRecord
  2
ACAD
 70
     0
  0
ENDTAB
  0
TABLE
  2
DIMSTYLE
  5
A
330
0
100
AcDbSymbolTable
 70
     1
  0
DIMSTYLE
105
27
330
A
100
AcDbSymbolTableRecord
100
AcDbDimStyleTableRecord
  2
ISO-25
 70
     0
  3

  4

  5

  6

  7

 40
1.0
 41
2.5
 42
0.625
 43
3.75
 44
1.25
 45
0.0
 46
0.0
 47
0.0
 48
0.0
140
2.5
141
2.5
142
0.0
143
0.03937007874016
144
1.0
145
0.0
146
1.0
147
0.625
 71
     0
 72
     0
 73
     0
 74
     0
 75
     0
 76
     0
 77
     1
 78
     8
170
     0
171
     3
172
     1
173
     0
174
     0
175
     0
176
     0
177
     0
178
     0
270
     2
271
     2
272
     2
273
     2
274
     3
340
11
275
     0
280
     0
281
     0
282
     0
283
     0
284
     8
285
     0
286
     0
287
     3
288
     0
  0
ENDTAB
  0
TABLE
  2
BLOCK_RECORD
  5
1
330
0
100
AcDbSymbolTable
 70
     1
  0
BLOCK_RECORD
  5
1F
330
1
100
AcDbSymbolTableRecord
100
AcDbBlockTableRecord
  2
*MODEL_SPACE
  0
BLOCK_RECORD
  5
1B
330
1
100
AcDbSymbolTableRecord
100
AcDbBlockTableRecord
  2
*PAPER_SPACE
  0
ENDTAB
  0
ENDSEC
  0
SECTION
  2
BLOCKS
  0
BLOCK
  5
20
330
1F
100
AcDbEntity
  8
0
100
AcDbBlockBegin
  2
*MODEL_SPACE
 70
     0
 10
0.0
 20
0.0
 30
0.0
  3
*MODEL_SPACE
  1

  0
ENDBLK
  5
21
330
1F
100
AcDbEntity
  8
0
100
AcDbBlockEnd
  0
BLOCK
  5
1C
330
1B
100
AcDbEntity
 67
     1
  8
0
100
AcDbBlockBegin
  2
*PAPER_SPACE
  1

  0
ENDBLK
  5
1D
330
1B
100
AcDbEntity
 67
     1
  8
0
100
AcDbBlockEnd
  0
ENDSEC
  0
SECTION
  2
ENTITIES
0
LINE
8
Calque 1
62
4
5
100
100
AcDbEntity
100
AcDbLine
10
281.880872
20
-12.207013
30
0.0
11
281.880872
21
-352.193774
31
0.0
0
LINE
8
Calque 1
62
4
5
101
100
AcDbEntity
100
AcDbLine
10
281.880872
20
-352.193774
30
0.0
11
291.880854
21
-352.193774
31
0.0
0
LINE
8
Calque 1
62
4
5
102
100
AcDbEntity
100
AcDbLine
10
291.880854
20
-352.193774
30
0.0
11
291.880854
21
-355.193796
31
0.0
0
LINE
8
Calque 1
62
4
5
103
100
AcDbEntity
100
AcDbLine
10
291.880854
20
-355.193796
30
0.0
11
301.880863
21
-355.193796
31
0.0
0
LINE
8
Calque 1
62
4
5
104
100
AcDbEntity
100
AcDbLine
10
301.880863
20
-355.193796
30
0.0
11
301.880863
21
-352.193774
31
0.0
0
LINE
8
Calque 1
62
4
5
105
100
AcDbEntity
100
AcDbLine
10
301.880863
20
-352.193774
30
0.0
11
311.880871
21
-352.193774
31
0.0
0
LINE
8
Calque 1
62
4
5
106
100
AcDbEntity
100
AcDbLine
10
311.880871
20
-352.193774
30
0.0
11
311.880871
21
-355.193796
31
0.0
0
LINE
8
Calque 1
62
4
5
107
100
AcDbEntity
100
AcDbLine
10
311.880871
20
-355.193796
30
0.0
11
321.880851
21
-355.193796
31
0.0
0
LINE
8
Calque 1
62
4
5
108
100
AcDbEntity
100
AcDbLine
10
321.880851
20
-355.193796
30
0.0
11
321.880851
21
-352.193774
31
0.0
0
LINE
8
Calque 1
62
4
5
109
100
AcDbEntity
100
AcDbLine
10
321.880851
20
-352.193774
30
0.0
11
331.880859
21
-352.193774
31
0.0
0
LINE
8
Calque 1
62
4
5
10a
100
AcDbEntity
100
AcDbLine
10
331.880859
20
-352.193774
30
0.0
11
331.880859
21
-355.193796
31
0.0
0
LINE
8
Calque 1
62
4
5
10b
100
AcDbEntity
100
AcDbLine
10
331.880859
20
-355.193796
30
0.0
11
341.880867
21
-355.193796
31
0.0
0
LINE
8
Calque 1
62
4
5
10c
100
AcDbEntity
100
AcDbLine
10
341.880867
20
-355.193796
30
0.0
11
341.880867
21
-302.193789
31
0.0
0
LINE
8
Calque 1
62
4
5
10d
100
AcDbEntity
100
AcDbLine
10
341.880867
20
-302.193789
30
0.0
11
344.880861
21
-302.193789
31
0.0
0
LINE
8
Calque 1
62
4
5
10e
100
AcDbEntity
100
AcDbLine
10
344.880861
20
-302.193789
30
0.0
11
344.880861
21
-202.193792
31
0.0
0
LINE
8
Calque 1
62
4
5
10f
100
AcDbEntity
100
AcDbLine
10
344.880861
20
-202.193792
30
0.0
11
341.880867
21
-202.193792
31
0.0
0
LINE
8
Calque 1
62
4
5
110
100
AcDbEntity
100
AcDbLine
10
341.880867
20
-202.193792
30
0.0
11
341.880867
21
-102.193794
31
0.0
0
LINE
8
Calque 1
62
4
5
111
100
AcDbEntity
100
AcDbLine
10
341.880867
20
-102.193794
30
0.0
11
344.880861
21
-102.193794
31
0.0
0
LINE
8
Calque 1
62
4
5
112
100
AcDbEntity
100
AcDbLine
10
344.880861
20
-102.193794
30
0.0
11
344.880861
21
-2.193825
31
0.0
0
LINE
8
Calque 1
62
4
5
113
100
AcDbEntity
100
AcDbLine
10
344.880861
20
-2.193825
30
0.0
11
341.880867
21
-2.193825
31
0.0
0
LINE
8
Calque 1
62
4
5
114
100
AcDbEntity
100
AcDbLine
10
341.880867
20
-2.193825
30
0.0
11
341.880867
21
97.358771
31
0.0
0
LINE
8
Calque 1
62
4
5
115
100
AcDbEntity
100
AcDbLine
10
341.880867
20
97.358771
30
0.0
11
344.880861
21
97.358771
31
0.0
0
LINE
8
Calque 1
62
4
5
116
100
AcDbEntity
100
AcDbLine
10
344.880861
20
97.358771
30
0.0
11
344.880861
21
197.806176
31
0.0
0
LINE
8
Calque 1
62
4
5
117
100
AcDbEntity
100
AcDbLine
10
344.880861
20
197.806176
30
0.0
11
341.880867
21
197.806176
31
0.0
0
LINE
8
Calque 1
62
4
5
118
100
AcDbEntity
100
AcDbLine
10
341.880867
20
197.806176
30
0.0
11
341.880867
21
297.806169
31
0.0
0
LINE
8
Calque 1
62
4
5
119
100
AcDbEntity
100
AcDbLine
10
341.880867
20
297.806169
30
0.0
11
344.880861
21
297.806169
31
0.0
0
LINE
8
Calque 1
62
4
5
11a
100
AcDbEntity
100
AcDbLine
10
344.880861
20
297.806169
30
0.0
11
344.880861
21
397.806160
31
0.0
0
LINE
8
Calque 1
62
4
5
11b
100
AcDbEntity
100
AcDbLine
10
344.880861
20
397.806160
30
0.0
11
341.880867
21
397.806160
31
0.0
0
LINE
8
Calque 1
62
4
5
11c
100
AcDbEntity
100
AcDbLine
10
341.880867
20
397.806160
30
0.0
11
341.880867
21
476.806151
31
0.0
0
LINE
8
Calque 1
62
4
5
11d
100
AcDbEntity
100
AcDbLine
10
341.880867
20
476.806151
30
0.0
11
331.880859
21
476.806151
31
0.0
0
LINE
8
Calque 1
62
4
5
11e
100
AcDbEntity
100
AcDbLine
10
331.880859
20
476.806151
30
0.0
11
331.880859
21
473.806152
31
0.0
0
LINE
8
Calque 1
62
4
5
11f
100
AcDbEntity
100
AcDbLine
10
331.880859
20
473.806152
30
0.0
11
321.880851
21
473.806152
31
0.0
0
LINE
8
Calque 1
62
4
5
120
100
AcDbEntity
100
AcDbLine
10
321.880851
20
473.806152
30
0.0
11
321.880851
21
476.806151
31
0.0
0
LINE
8
Calque 1
62
4
5
121
100
AcDbEntity
100
AcDbLine
10
321.880851
20
476.806151
30
0.0
11
311.880871
21
476.806151
31
0.0
0
LINE
8
Calque 1
62
4
5
122
100
AcDbEntity
100
AcDbLine
10
311.880871
20
476.806151
30
0.0
11
311.880871
21
473.806152
31
0.0
0
LINE
8
Calque 1
62
4
5
123
100
AcDbEntity
100
AcDbLine
10
311.880871
20
473.806152
30
0.0
11
301.880863
21
473.806152
31
0.0
0
LINE
8
Calque 1
62
4
5
124
100
AcDbEntity
100
AcDbLine
10
301.880863
20
473.806152
30
0.0
11
301.880863
21
476.806151
31
0.0
0
LINE
8
Calque 1
62
4
5
125
100
AcDbEntity
100
AcDbLine
10
301.880863
20
476.806151
30
0.0
11
291.880854
21
476.806151
31
0.0
0
LINE
8
Calque 1
62
4
5
126
100
AcDbEntity
100
AcDbLine
10
291.880854
20
476.806151
30
0.0
11
291.880854
21
473.806152
31
0.0
0
LINE
8
Calque 1
62
4
5
127
100
AcDbEntity
100
AcDbLine
10
291.880854
20
473.806152
30
0.0
11
281.880872
21
473.806152
31
0.0
0
LINE
8
Calque 1
62
4
5
128
100
AcDbEntity
100
AcDbLine
10
281.880872
20
473.806152
30
0.0
11
281.880872
21
133.819371
31
0.0
0
LINE
8
Calque 1
62
4
5
129
100
AcDbEntity
100
AcDbLine
10
281.880872
20
133.819371
30
0.0
11
311.880871
21
133.819371
31
0.0
0
LINE
8
Calque 1
62
4
5
12a
100
AcDbEntity
100
AcDbLine
10
311.880871
20
133.819371
30
0.0
11
311.880871
21
130.806169
31
0.0
0
LINE
8
Calque 1
62
4
5
12b
100
AcDbEntity
100
AcDbLine
10
311.880871
20
130.806169
30
0.0
11
281.880872
21
130.806169
31
0.0
0
LINE
8
Calque 1
62
4
5
12c
100
AcDbEntity
100
AcDbLine
10
281.880872
20
130.806169
30
0.0
11
281.880872
21
-9.193811
31
0.0
0
LINE
8
Calque 1
62
4
5
12d
100
AcDbEntity
100
AcDbLine
10
281.880872
20
-9.193811
30
0.0
11
311.880871
21
-9.193811
31
0.0
0
LINE
8
Calque 1
62
4
5
12e
100
AcDbEntity
100
AcDbLine
10
311.880871
20
-9.193811
30
0.0
11
311.880871
21
-12.207013
31
0.0
0
LINE
8
Calque 1
62
4
5
12f
100
AcDbEntity
100
AcDbLine
10
311.880871
20
-12.207013
30
0.0
11
281.880872
21
-12.207013
31
0.0
0
LINE
8
Calque 1
62
4
5
130
100
AcDbEntity
100
AcDbLine
10
-244.019459
20
-256.521795
30
0.0
11
-241.019460
21
-256.521795
31
0.0
0
LINE
8
Calque 1
62
4
5
131
100
AcDbEntity
100
AcDbLine
10
-241.019460
20
-256.521795
30
0.0
11
-241.018895
21
-156.521798
31
0.0
0
LINE
8
Calque 1
62
4
5
132
100
AcDbEntity
100
AcDbLine
10
-241.018895
20
-156.521798
30
0.0
11
-244.018895
21
-156.521798
31
0.0
0
LINE
8
Calque 1
62
4
5
133
100
AcDbEntity
100
AcDbLine
10
-244.018613
20
-56.521800
30
0.0
11
-241.018613
21
-56.521800
31
0.0
0
LINE
8
Calque 1
62
4
5
134
100
AcDbEntity
100
AcDbLine
10
-241.018613
20
-56.521800
30
0.0
11
-241.018331
21
43.478175
31
0.0
0
LINE
8
Calque 1
62
4
5
135
100
AcDbEntity
100
AcDbLine
10
-241.018331
20
43.478175
30
0.0
11
-244.018331
21
43.478175
31
0.0
0
LINE
8
Calque 1
62
4
5
136
100
AcDbEntity
100
AcDbLine
10
-244.018048
20
143.478172
30
0.0
11
-211.018049
21
143.478088
31
0.0
0
LINE
8
Calque 1
62
4
5
137
100
AcDbEntity
100
AcDbLine
10
-211.018049
20
143.478088
30
0.0
11
-211.018049
21
146.478082
31
0.0
0
LINE
8
Calque 1
62
4
5
138
100
AcDbEntity
100
AcDbLine
10
-211.018049
20
146.478082
30
0.0
11
-181.018047
21
146.477969
31
0.0
0
LINE
8
Calque 1
62
4
5
139
100
AcDbEntity
100
AcDbLine
10
-181.018047
20
146.477969
30
0.0
11
-181.018047
21
143.477975
31
0.0
0
LINE
8
Calque 1
62
4
5
13a
100
AcDbEntity
100
AcDbLine
10
-181.018047
20
143.477975
30
0.0
11
-151.018048
21
143.477777
31
0.0
0
LINE
8
Calque 1
62
4
5
13b
100
AcDbEntity
100
AcDbLine
10
-151.018048
20
143.477777
30
0.0
11
-151.018048
21
146.477771
31
0.0
0
LINE
8
Calque 1
62
4
5
13c
100
AcDbEntity
100
AcDbLine
10
-151.018048
20
146.477771
30
0.0
11
-121.018049
21
146.477687
31
0.0
0
LINE
8
Calque 1
62
4
5
13d
100
AcDbEntity
100
AcDbLine
10
-121.018049
20
146.477687
30
0.0
11
-121.018049
21
143.477693
31
0.0
0
LINE
8
Calque 1
62
4
5
13e
100
AcDbEntity
100
AcDbLine
10
-121.018049
20
143.477693
30
0.0
11
-91.018050
21
143.477580
31
0.0
0
LINE
8
Calque 1
62
4
5
13f
100
AcDbEntity
100
AcDbLine
10
-91.018050
20
143.477580
30
0.0
11
-91.018050
21
146.477574
31
0.0
0
LINE
8
Calque 1
62
4
5
140
100
AcDbEntity
100
AcDbLine
10
-91.018050
20
146.477574
30
0.0
11
-61.018047
21
146.477489
31
0.0
0
LINE
8
Calque 1
62
4
5
141
100
AcDbEntity
100
AcDbLine
10
-61.018047
20
146.477489
30
0.0
11
-61.018047
21
143.477467
31
0.0
0
LINE
8
Calque 1
62
4
5
142
100
AcDbEntity
100
AcDbLine
10
-61.018047
20
143.477467
30
0.0
11
-31.018048
21
143.477269
31
0.0
0
LINE
8
Calque 1
62
4
5
143
100
AcDbEntity
100
AcDbLine
10
-31.018048
20
143.477269
30
0.0
11
-31.018048
21
146.477291
31
0.0
0
LINE
8
Calque 1
62
4
5
144
100
AcDbEntity
100
AcDbLine
10
-31.018048
20
146.477291
30
0.0
11
-1.018049
21
146.477179
31
0.0
0
LINE
8
Calque 1
62
4
5
145
100
AcDbEntity
100
AcDbLine
10
-1.018049
20
146.477179
30
0.0
11
-1.018049
21
143.477185
31
0.0
0
LINE
8
Calque 1
62
4
5
146
100
AcDbEntity
100
AcDbLine
10
-1.018049
20
143.477185
30
0.0
11
28.981953
21
143.477072
31
0.0
0
LINE
8
Calque 1
62
4
5
147
100
AcDbEntity
100
AcDbLine
10
28.981953
20
143.477072
30
0.0
11
28.981953
21
146.477066
31
0.0
0
LINE
8
Calque 1
62
4
5
148
100
AcDbEntity
100
AcDbLine
10
28.981953
20
146.477066
30
0.0
11
57.795056
21
146.476981
31
0.0
0
LINE
8
Calque 1
62
4
5
149
100
AcDbEntity
100
AcDbLine
10
57.795056
20
146.476981
30
0.0
11
60.580561
21
147.590969
31
0.0
0
LINE
8
Calque 1
62
4
5
14a
100
AcDbEntity
100
AcDbLine
10
60.580561
20
147.590969
30
0.0
11
73.228745
21
115.965993
31
0.0
0
LINE
8
Calque 1
62
4
5
14b
100
AcDbEntity
100
AcDbLine
10
73.228745
20
115.965993
30
0.0
11
70.443352
21
114.851893
31
0.0
0
LINE
8
Calque 1
62
4
5
14c
100
AcDbEntity
100
AcDbLine
10
70.443352
20
114.851893
30
0.0
11
83.091536
21
83.226889
31
0.0
0
LINE
8
Calque 1
62
4
5
14d
100
AcDbEntity
100
AcDbLine
10
83.091536
20
83.226889
30
0.0
11
85.877042
21
84.340989
31
0.0
0
LINE
8
Calque 1
62
4
5
14e
100
AcDbEntity
100
AcDbLine
10
85.877042
20
84.340989
30
0.0
11
98.525254
21
52.715901
31
0.0
0
LINE
8
Calque 1
62
4
5
14f
100
AcDbEntity
100
AcDbLine
10
98.525254
20
52.715901
30
0.0
11
95.739749
21
51.601800
31
0.0
0
LINE
8
Calque 1
62
4
5
150
100
AcDbEntity
100
AcDbLine
10
95.739749
20
51.601800
30
0.0
11
108.388046
21
19.976797
31
0.0
0
LINE
8
Calque 1
62
4
5
151
100
AcDbEntity
100
AcDbLine
10
108.388046
20
19.976797
30
0.0
11
111.173438
21
21.090784
31
0.0
0
LINE
8
Calque 1
62
4
5
152
100
AcDbEntity
100
AcDbLine
10
111.173438
20
21.090784
30
0.0
11
123.821650
21
-10.534225
31
0.0
0
LINE
8
Calque 1
62
4
5
153
100
AcDbEntity
100
AcDbLine
10
123.821650
20
-10.534225
30
0.0
11
121.036258
21
-11.648326
31
0.0
0
LINE
8
Calque 1
62
4
5
154
100
AcDbEntity
100
AcDbLine
10
121.036258
20
-11.648326
30
0.0
11
133.684442
21
-43.273414
31
0.0
0
LINE
8
Calque 1
62
4
5
155
100
AcDbEntity
100
AcDbLine
10
133.684442
20
-43.273414
30
0.0
11
136.469947
21
-42.159314
31
0.0
0
LINE
8
Calque 1
62
4
5
156
100
AcDbEntity
100
AcDbLine
10
136.469947
20
-42.159314
30
0.0
11
149.118159
21
-73.784318
31
0.0
0
LINE
8
Calque 1
62
4
5
157
100
AcDbEntity
100
AcDbLine
10
149.118159
20
-73.784318
30
0.0
11
146.332654
21
-74.898418
31
0.0
0
LINE
8
Calque 1
62
4
5
158
100
AcDbEntity
100
AcDbLine
10
146.332654
20
-74.898418
30
0.0
11
158.980951
21
-106.523506
31
0.0
0
LINE
8
Calque 1
62
4
5
159
100
AcDbEntity
100
AcDbLine
10
158.980951
20
-106.523506
30
0.0
11
146.330142
21
-138.148397
31
0.0
0
LINE
8
Calque 1
62
4
5
15a
100
AcDbEntity
100
AcDbLine
10
146.330142
20
-138.148397
30
0.0
11
149.115534
21
-139.262611
31
0.0
0
LINE
8
Calque 1
62
4
5
15b
100
AcDbEntity
100
AcDbLine
10
149.115534
20
-139.262611
30
0.0
11
136.464754
21
-170.887614
31
0.0
0
LINE
8
Calque 1
62
4
5
15c
100
AcDbEntity
100
AcDbLine
10
136.464754
20
-170.887614
30
0.0
11
133.679334
21
-169.773401
31
0.0
0
LINE
8
Calque 1
62
4
5
15d
100
AcDbEntity
100
AcDbLine
10
133.679334
20
-169.773401
30
0.0
11
121.028553
21
-201.398292
31
0.0
0
LINE
8
Calque 1
62
4
5
15e
100
AcDbEntity
100
AcDbLine
10
121.028553
20
-201.398292
30
0.0
11
123.813945
21
-202.512505
31
0.0
0
LINE
8
Calque 1
62
4
5
15f
100
AcDbEntity
100
AcDbLine
10
123.813945
20
-202.512505
30
0.0
11
111.163137
21
-234.137509
31
0.0
0
LINE
8
Calque 1
62
4
5
160
100
AcDbEntity
100
AcDbLine
10
111.163137
20
-234.137509
30
0.0
11
108.377744
21
-233.023183
31
0.0
0
LINE
8
Calque 1
62
4
5
161
100
AcDbEntity
100
AcDbLine
10
108.377744
20
-233.023183
30
0.0
11
95.726936
21
-264.648187
31
0.0
0
LINE
8
Calque 1
62
4
5
162
100
AcDbEntity
100
AcDbLine
10
95.726936
20
-264.648187
30
0.0
11
98.512356
21
-265.762400
31
0.0
0
LINE
8
Calque 1
62
4
5
163
100
AcDbEntity
100
AcDbLine
10
98.512356
20
-265.762400
30
0.0
11
85.861548
21
-297.387404
31
0.0
0
LINE
8
Calque 1
62
4
5
164
100
AcDbEntity
100
AcDbLine
10
85.861548
20
-297.387404
30
0.0
11
83.076155
21
-296.273078
31
0.0
0
LINE
8
Calque 1
62
4
5
165
100
AcDbEntity
100
AcDbLine
10
83.076155
20
-296.273078
30
0.0
11
70.425347
21
-327.898081
31
0.0
0
LINE
8
Calque 1
62
4
5
166
100
AcDbEntity
100
AcDbLine
10
70.425347
20
-327.898081
30
0.0
11
73.210739
21
-329.012295
31
0.0
0
LINE
8
Calque 1
62
4
5
167
100
AcDbEntity
100
AcDbLine
10
73.210739
20
-329.012295
30
0.0
11
60.559958
21
-360.637186
31
0.0
0
LINE
8
Calque 1
62
4
5
168
100
AcDbEntity
100
AcDbLine
10
60.559958
20
-360.637186
30
0.0
11
57.774538
21
-359.522972
31
0.0
0
LINE
8
Calque 1
62
4
5
169
100
AcDbEntity
100
AcDbLine
10
57.774538
20
-359.522972
30
0.0
11
28.979853
21
-359.522888
31
0.0
0
LINE
8
Calque 1
62
4
5
16a
100
AcDbEntity
100
AcDbLine
10
28.979853
20
-359.522888
30
0.0
11
28.979853
21
-356.522894
31
0.0
0
LINE
8
Calque 1
62
4
5
16b
100
AcDbEntity
100
AcDbLine
10
28.979853
20
-356.522894
30
0.0
11
-1.020148
21
-356.522781
31
0.0
0
LINE
8
Calque 1
62
4
5
16c
100
AcDbEntity
100
AcDbLine
10
-1.020148
20
-356.522781
30
0.0
11
-1.020148
21
-359.522775
31
0.0
0
LINE
8
Calque 1
62
4
5
16d
100
AcDbEntity
100
AcDbLine
10
-1.020148
20
-359.522775
30
0.0
11
-31.020148
21
-359.522690
31
0.0
0
LINE
8
Calque 1
62
4
5
16e
100
AcDbEntity
100
AcDbLine
10
-31.020148
20
-359.522690
30
0.0
11
-31.020148
21
-356.522696
31
0.0
0
LINE
8
Calque 1
62
4
5
16f
100
AcDbEntity
100
AcDbLine
10
-31.020148
20
-356.522696
30
0.0
11
-61.020147
21
-356.522498
31
0.0
0
LINE
8
Calque 1
62
4
5
170
100
AcDbEntity
100
AcDbLine
10
-61.020147
20
-356.522498
30
0.0
11
-61.020147
21
-359.522492
31
0.0
0
LINE
8
Calque 1
62
4
5
171
100
AcDbEntity
100
AcDbLine
10
-61.020147
20
-359.522492
30
0.0
11
-91.020149
21
-359.522380
31
0.0
0
LINE
8
Calque 1
62
4
5
172
100
AcDbEntity
100
AcDbLine
10
-91.020149
20
-359.522380
30
0.0
11
-91.020149
21
-356.522386
31
0.0
0
LINE
8
Calque 1
62
4
5
173
100
AcDbEntity
100
AcDbLine
10
-91.020149
20
-356.522386
30
0.0
11
-121.020149
21
-356.522273
31
0.0
0
LINE
8
Calque 1
62
4
5
174
100
AcDbEntity
100
AcDbLine
10
-121.020149
20
-356.522273
30
0.0
11
-121.020149
21
-359.522295
31
0.0
0
LINE
8
Calque 1
62
4
5
175
100
AcDbEntity
100
AcDbLine
10
-121.020149
20
-359.522295
30
0.0
11
-151.020148
21
-359.522182
31
0.0
0
LINE
8
Calque 1
62
4
5
176
100
AcDbEntity
100
AcDbLine
10
-151.020148
20
-359.522182
30
0.0
11
-151.020148
21
-356.522188
31
0.0
0
LINE
8
Calque 1
62
4
5
177
100
AcDbEntity
100
AcDbLine
10
-151.020148
20
-356.522188
30
0.0
11
-181.020150
21
-356.521990
31
0.0
0
LINE
8
Calque 1
62
4
5
178
100
AcDbEntity
100
AcDbLine
10
-181.020150
20
-356.521990
30
0.0
11
-181.020150
21
-359.521984
31
0.0
0
LINE
8
Calque 1
62
4
5
179
100
AcDbEntity
100
AcDbLine
10
-181.020150
20
-359.521984
30
0.0
11
-211.020149
21
-359.521872
31
0.0
0
LINE
8
Calque 1
62
4
5
17a
100
AcDbEntity
100
AcDbLine
10
-211.020149
20
-359.521872
30
0.0
11
-211.020149
21
-356.521878
31
0.0
0
LINE
8
Calque 1
62
4
5
17b
100
AcDbEntity
100
AcDbLine
10
-211.020149
20
-356.521878
30
0.0
11
-244.020148
21
-356.521793
31
0.0
0
LINE
8
Calque 1
62
4
5
17c
100
AcDbEntity
100
AcDbLine
10
60.181752
20
410.435757
30
0.0
11
60.181752
21
450.435756
31
0.0
0
LINE
8
Calque 1
62
4
5
17d
100
AcDbEntity
100
AcDbLine
10
60.181752
20
450.435756
30
0.0
11
20.181748
21
450.435756
31
0.0
0
LINE
8
Calque 1
62
4
5
17e
100
AcDbEntity
100
AcDbLine
10
20.181748
20
450.435756
30
0.0
11
20.181748
21
453.435755
31
0.0
0
LINE
8
Calque 1
62
4
5
17f
100
AcDbEntity
100
AcDbLine
10
20.181748
20
453.435755
30
0.0
11
3.181746
21
453.435755
31
0.0
0
LINE
8
Calque 1
62
4
5
180
100
AcDbEntity
100
AcDbLine
10
3.181746
20
453.435755
30
0.0
11
0.181746
21
453.435755
31
0.0
0
LINE
8
Calque 1
62
4
5
181
100
AcDbEntity
100
AcDbLine
10
0.181746
20
453.435755
30
0.0
11
0.181746
21
450.435756
31
0.0
0
LINE
8
Calque 1
62
4
5
182
100
AcDbEntity
100
AcDbLine
10
0.181746
20
450.435756
30
0.0
11
-79.818253
21
450.435756
31
0.0
0
LINE
8
Calque 1
62
4
5
183
100
AcDbEntity
100
AcDbLine
10
-79.818253
20
450.435756
30
0.0
11
-79.818253
21
453.435755
31
0.0
0
LINE
8
Calque 1
62
4
5
184
100
AcDbEntity
100
AcDbLine
10
-79.818253
20
453.435755
30
0.0
11
-86.818253
21
453.435755
31
0.0
0
LINE
8
Calque 1
62
4
5
185
100
AcDbEntity
100
AcDbLine
10
-86.818253
20
453.435755
30
0.0
11
-99.818255
21
453.435755
31
0.0
0
LINE
8
Calque 1
62
4
5
186
100
AcDbEntity
100
AcDbLine
10
-99.818255
20
453.435755
30
0.0
11
-99.818255
21
450.435756
31
0.0
0
LINE
8
Calque 1
62
4
5
187
100
AcDbEntity
100
AcDbLine
10
-99.818255
20
450.435756
30
0.0
11
-179.818253
21
450.435756
31
0.0
0
LINE
8
Calque 1
62
4
5
188
100
AcDbEntity
100
AcDbLine
10
-179.818253
20
450.435756
30
0.0
11
-179.818253
21
453.435755
31
0.0
0
LINE
8
Calque 1
62
4
5
189
100
AcDbEntity
100
AcDbLine
10
-179.818253
20
453.435755
30
0.0
11
-199.818255
21
453.435755
31
0.0
0
LINE
8
Calque 1
62
4
5
18a
100
AcDbEntity
100
AcDbLine
10
-199.818255
20
453.435755
30
0.0
11
-199.818255
21
450.435756
31
0.0
0
LINE
8
Calque 1
62
4
5
18b
100
AcDbEntity
100
AcDbLine
10
-199.818255
20
450.435756
30
0.0
11
-236.818255
21
450.435756
31
0.0
0
LINE
8
Calque 1
62
4
5
18c
100
AcDbEntity
100
AcDbLine
10
-236.818255
20
450.435756
30
0.0
11
-236.818255
21
410.435757
31
0.0
0
LINE
8
Calque 1
62
4
5
18d
100
AcDbEntity
100
AcDbLine
10
-236.818255
20
410.435757
30
0.0
11
-239.818254
21
410.435757
31
0.0
0
LINE
8
Calque 1
62
4
5
18e
100
AcDbEntity
100
AcDbLine
10
-239.818254
20
410.435757
30
0.0
11
-239.818254
21
390.435760
31
0.0
0
LINE
8
Calque 1
62
4
5
18f
100
AcDbEntity
100
AcDbLine
10
-239.818254
20
390.435760
30
0.0
11
-236.818255
21
390.435760
31
0.0
0
LINE
8
Calque 1
62
4
5
190
100
AcDbEntity
100
AcDbLine
10
-236.818255
20
390.435760
30
0.0
11
-236.818255
21
310.435765
31
0.0
0
LINE
8
Calque 1
62
4
5
191
100
AcDbEntity
100
AcDbLine
10
-236.818255
20
310.435765
30
0.0
11
-239.818254
21
310.435765
31
0.0
0
LINE
8
Calque 1
62
4
5
192
100
AcDbEntity
100
AcDbLine
10
-239.818254
20
310.435765
30
0.0
11
-239.818254
21
290.461067
31
0.0
0
LINE
8
Calque 1
62
4
5
193
100
AcDbEntity
100
AcDbLine
10
-239.818254
20
290.461067
30
0.0
11
-236.818255
21
290.461067
31
0.0
0
LINE
8
Calque 1
62
4
5
194
100
AcDbEntity
100
AcDbLine
10
-236.818255
20
290.461067
30
0.0
11
-236.818255
21
211.635770
31
0.0
0
LINE
8
Calque 1
62
4
5
195
100
AcDbEntity
100
AcDbLine
10
-236.818255
20
211.635770
30
0.0
11
-239.818254
21
211.635770
31
0.0
0
LINE
8
Calque 1
62
4
5
196
100
AcDbEntity
100
AcDbLine
10
-239.818254
20
211.635770
30
0.0
11
-239.818254
21
191.635782
31
0.0
0
LINE
8
Calque 1
62
4
5
197
100
AcDbEntity
100
AcDbLine
10
-239.818254
20
191.635782
30
0.0
11
-236.818255
21
191.635782
31
0.0
0
LINE
8
Calque 1
62
4
5
198
100
AcDbEntity
100
AcDbLine
10
-236.818255
20
191.635782
30
0.0
11
-236.818255
21
151.635777
31
0.0
0
LINE
8
Calque 1
62
4
5
199
100
AcDbEntity
100
AcDbLine
10
-236.818255
20
151.635777
30
0.0
11
60.181752
21
151.635777
31
0.0
0
LINE
8
Calque 1
62
4
5
19a
100
AcDbEntity
100
AcDbLine
10
60.181752
20
151.635777
30
0.0
11
60.181752
21
191.635782
31
0.0
0
LINE
8
Calque 1
62
4
5
19b
100
AcDbEntity
100
AcDbLine
10
60.181752
20
191.635782
30
0.0
11
63.181746
21
191.635782
31
0.0
0
LINE
8
Calque 1
62
4
5
19c
100
AcDbEntity
100
AcDbLine
10
63.181746
20
191.635782
30
0.0
11
63.181746
21
211.635770
31
0.0
0
LINE
8
Calque 1
62
4
5
19d
100
AcDbEntity
100
AcDbLine
10
63.181746
20
211.635770
30
0.0
11
60.181752
21
211.635770
31
0.0
0
LINE
8
Calque 1
62
4
5
19e
100
AcDbEntity
100
AcDbLine
10
60.181752
20
211.635770
30
0.0
11
60.181752
21
290.461067
31
0.0
0
LINE
8
Calque 1
62
4
5
19f
100
AcDbEntity
100
AcDbLine
10
60.181752
20
290.461067
30
0.0
11
63.181746
21
290.461067
31
0.0
0
LINE
8
Calque 1
62
4
5
1a0
100
AcDbEntity
100
AcDbLine
10
63.181746
20
290.461067
30
0.0
11
63.181746
21
310.435765
31
0.0
0
LINE
8
Calque 1
62
4
5
1a1
100
AcDbEntity
100
AcDbLine
10
63.181746
20
310.435765
30
0.0
11
60.181752
21
310.435765
31
0.0
0
LINE
8
Calque 1
62
4
5
1a2
100
AcDbEntity
100
AcDbLine
10
60.181752
20
310.435765
30
0.0
11
60.181752
21
390.435760
31
0.0
0
LINE
8
Calque 1
62
4
5
1a3
100
AcDbEntity
100
AcDbLine
10
60.181752
20
390.435760
30
0.0
11
63.181746
21
390.435760
31
0.0
0
LINE
8
Calque 1
62
4
5
1a4
100
AcDbEntity
100
AcDbLine
10
63.181746
20
390.435760
30
0.0
11
63.181746
21
410.435757
31
0.0
0
LINE
8
Calque 1
62
4
5
1a5
100
AcDbEntity
100
AcDbLine
10
63.181746
20
410.435757
30
0.0
11
60.181752
21
410.435757
31
0.0
0
LINE
8
Calque 1
62
4
5
1a6
100
AcDbEntity
100
AcDbLine
10
-244.018455
20
43.478175
30
0.0
11
-244.018737
21
-56.521800
31
0.0
0
LINE
8
Calque 1
62
4
5
1a7
100
AcDbEntity
100
AcDbLine
10
-244.019253
20
-156.521798
30
0.0
11
-244.019818
21
-256.521795
31
0.0
0
LINE
8
Calque 1
62
4
5
1a8
100
AcDbEntity
100
AcDbLine
10
-244.020157
20
531.183750
30
0.0
11
-244.020157
21
143.478172
31
0.0
0
LINE
8
Calque 1
62
4
5
1a9
100
AcDbEntity
100
AcDbLine
10
-244.022256
20
-356.521793
30
0.0
11
-244.022256
21
-368.816183
31
0.0
0
LINE
8
Calque 1
62
4
5
1aa
100
AcDbEntity
100
AcDbLine
10
-244.022256
20
-368.816183
30
0.0
11
355.977735
21
-368.816183
31
0.0
0
LINE
8
Calque 1
62
4
5
1ab
100
AcDbEntity
100
AcDbLine
10
355.977735
20
-368.816183
30
0.0
11
355.977735
21
531.183750
31
0.0
0
LINE
8
Calque 1
62
4
5
1ac
100
AcDbEntity
100
AcDbLine
10
355.977735
20
531.183750
30
0.0
11
-244.022256
21
531.183750
31
0.0
0
LINE
8
Calque 1
62
4
5
1ad
100
AcDbEntity
100
AcDbLine
10
-244.019742
20
-356.521793
30
0.0
11
-244.019459
21
-256.521795
31
0.0
0
LINE
8
Calque 1
62
4
5
1ae
100
AcDbEntity
100
AcDbLine
10
-244.018895
20
-156.521798
30
0.0
11
-244.018613
21
-56.521800
31
0.0
0
LINE
8
Calque 1
62
4
5
1af
100
AcDbEntity
100
AcDbLine
10
-244.018331
20
43.478175
30
0.0
11
-244.018048
21
143.478172
31
0.0
0
LINE
8
Calque 1
62
4
5
1b0
100
AcDbEntity
100
AcDbLine
10
-181.019154
20
-109.522118
30
0.0
11
-181.019055
21
-106.522095
31
0.0
0
LINE
8
Calque 1
62
4
5
1b1
100
AcDbEntity
100
AcDbLine
10
-181.019055
20
-106.522095
30
0.0
11
-201.019054
21
-106.522011
31
0.0
0
LINE
8
Calque 1
62
4
5
1b2
100
AcDbEntity
100
AcDbLine
10
-201.019054
20
-106.522011
30
0.0
11
-201.019153
21
-109.522005
31
0.0
0
LINE
8
Calque 1
62
4
5
1b3
100
AcDbEntity
100
AcDbLine
10
-201.019153
20
-109.522005
30
0.0
11
-181.019154
21
-109.522118
31
0.0
0
LINE
8
Calque 1
62
4
5
1b4
100
AcDbEntity
100
AcDbLine
10
-81.019055
20
-106.522519
30
0.0
11
-101.019054
21
-106.522406
31
0.0
0
LINE
8
Calque 1
62
4
5
1b5
100
AcDbEntity
100
AcDbLine
10
-101.019054
20
-106.522406
30
0.0
11
-101.019153
21
-109.522400
31
0.0
0
LINE
8
Calque 1
62
4
5
1b6
100
AcDbEntity
100
AcDbLine
10
-101.019153
20
-109.522400
30
0.0
11
-81.019153
21
-109.522513
31
0.0
0
LINE
8
Calque 1
62
4
5
1b7
100
AcDbEntity
100
AcDbLine
10
-81.019153
20
-109.522513
30
0.0
11
-81.019055
21
-106.522519
31
0.0
0
LINE
8
Calque 1
62
4
5
1b8
100
AcDbEntity
100
AcDbLine
10
-2.019054
20
-106.522519
30
0.0
11
-2.019153
21
-109.522513
31
0.0
0
LINE
8
Calque 1
62
4
5
1b9
100
AcDbEntity
100
AcDbLine
10
-2.019153
20
-109.522513
30
0.0
11
17.980847
21
-109.522626
31
0.0
0
LINE
8
Calque 1
62
4
5
1ba
100
AcDbEntity
100
AcDbLine
10
17.980847
20
-109.522626
30
0.0
11
17.980948
21
-106.522632
31
0.0
0
LINE
8
Calque 1
62
4
5
1bb
100
AcDbEntity
100
AcDbLine
10
17.980948
20
-106.522632
30
0.0
11
-2.019054
21
-106.522519
31
0.0
  0
ENDSEC
  0
SECTION
  2
OBJECTS
  0
DICTIONARY
  5
C
330
0
100
AcDbDictionary
  3
ACAD_GROUP
350
D
  3
ACAD_MLINESTYLE
350
17
  0
DICTIONARY
  5
D
330
C
100
AcDbDictionary
  0
DICTIONARY
  5
1A
330
C
100
AcDbDictionary
  0
DICTIONARY
  5
17
330
C
100
AcDbDictionary
  3
STANDARD
350
18
  0
DICTIONARY
  5
19
330
C
100
AcDbDictionary
  0
ENDSEC
  0
EOF
