999
Inkscape export via "Better DXF Output" (bob@bobcookdev.com)
  0
SECTION
  2
HEADER
  9
$ACADVER
  1
AC1014
  9
$HANDSEED
  5
FFFF
  0
ENDSEC
  0
SECTION
  2
TABLES
  0
TABLE
  2
VPORT
  5
8
330
0
100
AcDbSymbolTable
 70
     4
  0
VPORT
  5
2E
330
8
100
AcDbSymbolTableRecord
100
AcDbViewportTableRecord
  2
*ACTIVE
 70
     0
 10
0.0
 20
0.0
 11
1.0
 21
1.0
 12
4.25
 22
5.5
 13
0.0
 23
0.0
 14
10.0
 24
10.0
 15
10.0
 25
10.0
 16
0.0
 26
0.0
 36
1.0
 17
0.0
 27
0.0
 37
0.0
 40
11
 41
1.24
 42
50.0
 43
0.0
 44
0.0
 50
0.0
 51
0.0
 71
     0
 72
   100
 73
     1
 74
     3
 75
     0
 76
     0
 77
     0
 78
     0
  0
ENDTAB
  0
TABLE
  2
LTYPE
  5
5
330
0
100
AcDbSymbolTable
 70
     1
  0
LTYPE
  5
14
330
5
100
AcDbSymbolTableRecord
100
AcDbLinetypeTableRecord
  2
BYBLOCK
 70
     0
  3

 72
    65
 73
     0
 40
0.0
  0
LTYPE
  5
15
330
5
100
AcDbSymbolTableRecord
100
AcDbLinetypeTableRecord
  2
BYLAYER
 70
     0
  3

 72
    65
 73
     0
 40
0.0
  0
LTYPE
  5
16
330
5
100
AcDbSymbolTableRecord
100
AcDbLinetypeTableRecord
  2
CONTINUOUS
 70
     0
  3
Solid line
 72
    65
 73
     0
 40
0.0
  0
ENDTAB
  0
TABLE
  2
LAYER
  5
2
330
0
100
AcDbSymbolTable
 70
1
  0
LAYER
  5
10
330
2
100
AcDbSymbolTableRecord
100
AcDbLayerTableRecord
  2
0
 70
     0
 62
     7
  6
CONTINUOUS
  0
ENDTAB
  0
TABLE
  2
STYLE
  5
3
330
0
100
AcDbSymbolTable
 70
     1
  0
STYLE
  5
11
330
3
100
AcDbSymbolTableRecord
100
AcDbTextStyleTableRecord
  2
STANDARD
 70
     0
 40
0.0
 41
1.0
 50
0.0
 71
     0
 42
2.5
  3
txt
  4

  0
ENDTAB
  0
TABLE
  2
VIEW
  5
6
330
0
100
AcDbSymbolTable
 70
     0
  0
ENDTAB
  0
TABLE
  2
UCS
  5
7
330
0
100
AcDbSymbolTable
 70
     0
  0
ENDTAB
  0
TABLE
  2
APPID
  5
9
330
0
100
AcDbSymbolTable
 70
     2
  0
APPID
  5
12
330
9
100
AcDbSymbolTableRecord
100
AcDbRegAppTableRecord
  2
ACAD
 70
     0
  0
ENDTAB
  0
TABLE
  2
DIMSTYLE
  5
A
330
0
100
AcDbSymbolTable
 70
     1
  0
DIMSTYLE
105
27
330
A
100
AcDbSymbolTableRecord
100
AcDbDimStyleTableRecord
  2
ISO-25
 70
     0
  3

  4

  5

  6

  7

 40
1.0
 41
2.5
 42
0.625
 43
3.75
 44
1.25
 45
0.0
 46
0.0
 47
0.0
 48
0.0
140
2.5
141
2.5
142
0.0
143
0.03937007874016
144
1.0
145
0.0
146
1.0
147
0.625
 71
     0
 72
     0
 73
     0
 74
     0
 75
     0
 76
     0
 77
     1
 78
     8
170
     0
171
     3
172
     1
173
     0
174
     0
175
     0
176
     0
177
     0
178
     0
270
     2
271
     2
272
     2
273
     2
274
     3
340
11
275
     0
280
     0
281
     0
282
     0
283
     0
284
     8
285
     0
286
     0
287
     3
288
     0
  0
ENDTAB
  0
TABLE
  2
BLOCK_RECORD
  5
1
330
0
100
AcDbSymbolTable
 70
     1
  0
BLOCK_RECORD
  5
1F
330
1
100
AcDbSymbolTableRecord
100
AcDbBlockTableRecord
  2
*MODEL_SPACE
  0
BLOCK_RECORD
  5
1B
330
1
100
AcDbSymbolTableRecord
100
AcDbBlockTableRecord
  2
*PAPER_SPACE
  0
ENDTAB
  0
ENDSEC
  0
SECTION
  2
BLOCKS
  0
BLOCK
  5
20
330
1F
100
AcDbEntity
  8
0
100
AcDbBlockBegin
  2
*MODEL_SPACE
 70
     0
 10
0.0
 20
0.0
 30
0.0
  3
*MODEL_SPACE
  1

  0
ENDBLK
  5
21
330
1F
100
AcDbEntity
  8
0
100
AcDbBlockEnd
  0
BLOCK
  5
1C
330
1B
100
AcDbEntity
 67
     1
  8
0
100
AcDbBlockBegin
  2
*PAPER_SPACE
  1

  0
ENDBLK
  5
1D
330
1B
100
AcDbEntity
 67
     1
  8
0
100
AcDbBlockEnd
  0
ENDSEC
  0
SECTION
  2
ENTITIES
0
LINE
8
Calque 1
62
4
5
100
100
AcDbEntity
100
AcDbLine
10
193.372517
20
-84.005221
30
0.0
11
-99.116865
21
-84.005221
31
0.0
0
LINE
8
Calque 1
62
4
5
101
100
AcDbEntity
100
AcDbLine
10
-99.116865
20
-84.005221
30
0.0
11
-99.116865
21
731.991510
31
0.0
0
LINE
8
Calque 1
62
4
5
102
100
AcDbEntity
100
AcDbLine
10
-183.200779
20
363.861902
30
0.0
11
-401.200789
21
363.861902
31
0.0
0
LINE
8
Calque 1
62
4
5
103
100
AcDbEntity
100
AcDbLine
10
-401.200789
20
363.861902
30
0.0
11
-401.200789
21
265.861900
31
0.0
0
LINE
8
Calque 1
62
4
5
104
100
AcDbEntity
100
AcDbLine
10
181.619034
20
-161.062132
30
0.0
11
181.619034
21
-151.062124
31
0.0
0
LINE
8
Calque 1
62
4
5
105
100
AcDbEntity
100
AcDbLine
10
181.619034
20
-151.062124
30
0.0
11
184.619028
21
-151.062124
31
0.0
0
LINE
8
Calque 1
62
4
5
106
100
AcDbEntity
100
AcDbLine
10
184.619028
20
-151.062124
30
0.0
11
184.619028
21
-141.062116
31
0.0
0
LINE
8
Calque 1
62
4
5
107
100
AcDbEntity
100
AcDbLine
10
184.619028
20
-141.062116
30
0.0
11
181.619034
21
-141.062116
31
0.0
0
LINE
8
Calque 1
62
4
5
108
100
AcDbEntity
100
AcDbLine
10
181.619034
20
-141.062116
30
0.0
11
181.619034
21
-131.062108
31
0.0
0
LINE
8
Calque 1
62
4
5
109
100
AcDbEntity
100
AcDbLine
10
181.619034
20
-131.062108
30
0.0
11
184.619028
21
-131.062108
31
0.0
0
LINE
8
Calque 1
62
4
5
10a
100
AcDbEntity
100
AcDbLine
10
184.619028
20
-131.062108
30
0.0
11
184.619028
21
-121.062128
31
0.0
0
LINE
8
Calque 1
62
4
5
10b
100
AcDbEntity
100
AcDbLine
10
184.619028
20
-121.062128
30
0.0
11
181.619034
21
-121.062128
31
0.0
0
LINE
8
Calque 1
62
4
5
10c
100
AcDbEntity
100
AcDbLine
10
181.619034
20
-121.062128
30
0.0
11
181.619034
21
-111.062120
31
0.0
0
LINE
8
Calque 1
62
4
5
10d
100
AcDbEntity
100
AcDbLine
10
181.619034
20
-111.062120
30
0.0
11
184.619028
21
-111.062120
31
0.0
0
LINE
8
Calque 1
62
4
5
10e
100
AcDbEntity
100
AcDbLine
10
184.619028
20
-111.062120
30
0.0
11
184.619028
21
-101.062111
31
0.0
0
LINE
8
Calque 1
62
4
5
10f
100
AcDbEntity
100
AcDbLine
10
184.619028
20
-101.062111
30
0.0
11
-398.380994
21
-101.062111
31
0.0
0
LINE
8
Calque 1
62
4
5
110
100
AcDbEntity
100
AcDbLine
10
-398.380994
20
-101.062111
30
0.0
11
-398.380994
21
-111.062120
31
0.0
0
LINE
8
Calque 1
62
4
5
111
100
AcDbEntity
100
AcDbLine
10
-398.380994
20
-111.062120
30
0.0
11
-395.380972
21
-111.062120
31
0.0
0
LINE
8
Calque 1
62
4
5
112
100
AcDbEntity
100
AcDbLine
10
-395.380972
20
-111.062120
30
0.0
11
-395.380972
21
-121.062128
31
0.0
0
LINE
8
Calque 1
62
4
5
113
100
AcDbEntity
100
AcDbLine
10
-395.380972
20
-121.062128
30
0.0
11
-398.380994
21
-121.062128
31
0.0
0
LINE
8
Calque 1
62
4
5
114
100
AcDbEntity
100
AcDbLine
10
-398.380994
20
-121.062128
30
0.0
11
-398.380994
21
-131.062108
31
0.0
0
LINE
8
Calque 1
62
4
5
115
100
AcDbEntity
100
AcDbLine
10
-398.380994
20
-131.062108
30
0.0
11
-395.380972
21
-131.062108
31
0.0
0
LINE
8
Calque 1
62
4
5
116
100
AcDbEntity
100
AcDbLine
10
-395.380972
20
-131.062108
30
0.0
11
-395.380972
21
-141.062116
31
0.0
0
LINE
8
Calque 1
62
4
5
117
100
AcDbEntity
100
AcDbLine
10
-395.380972
20
-141.062116
30
0.0
11
-398.380994
21
-141.062116
31
0.0
0
LINE
8
Calque 1
62
4
5
118
100
AcDbEntity
100
AcDbLine
10
-398.380994
20
-141.062116
30
0.0
11
-398.380994
21
-151.062124
31
0.0
0
LINE
8
Calque 1
62
4
5
119
100
AcDbEntity
100
AcDbLine
10
-398.380994
20
-151.062124
30
0.0
11
-395.380972
21
-151.062124
31
0.0
0
LINE
8
Calque 1
62
4
5
11a
100
AcDbEntity
100
AcDbLine
10
-395.380972
20
-151.062124
30
0.0
11
-395.380972
21
-161.062132
31
0.0
0
LINE
8
Calque 1
62
4
5
11b
100
AcDbEntity
100
AcDbLine
10
-395.380972
20
-161.062132
30
0.0
11
-282.380972
21
-161.062132
31
0.0
0
LINE
8
Calque 1
62
4
5
11c
100
AcDbEntity
100
AcDbLine
10
-282.380972
20
-161.062132
30
0.0
11
-282.380972
21
-164.062126
31
0.0
0
LINE
8
Calque 1
62
4
5
11d
100
AcDbEntity
100
AcDbLine
10
-282.380972
20
-164.062126
30
0.0
11
-182.380977
21
-164.062126
31
0.0
0
LINE
8
Calque 1
62
4
5
11e
100
AcDbEntity
100
AcDbLine
10
-182.380977
20
-164.062126
30
0.0
11
-182.380977
21
-161.062132
31
0.0
0
LINE
8
Calque 1
62
4
5
11f
100
AcDbEntity
100
AcDbLine
10
-182.380977
20
-161.062132
30
0.0
11
-82.380974
21
-161.062132
31
0.0
0
LINE
8
Calque 1
62
4
5
120
100
AcDbEntity
100
AcDbLine
10
-82.380974
20
-161.062132
30
0.0
11
-82.380974
21
-164.062126
31
0.0
0
LINE
8
Calque 1
62
4
5
121
100
AcDbEntity
100
AcDbLine
10
-82.380974
20
-164.062126
30
0.0
11
17.619022
21
-164.062126
31
0.0
0
LINE
8
Calque 1
62
4
5
122
100
AcDbEntity
100
AcDbLine
10
17.619022
20
-164.062126
30
0.0
11
17.619022
21
-161.062132
31
0.0
0
LINE
8
Calque 1
62
4
5
123
100
AcDbEntity
100
AcDbLine
10
17.619022
20
-161.062132
30
0.0
11
181.619034
21
-161.062132
31
0.0
0
LINE
8
Calque 1
62
4
5
124
100
AcDbEntity
100
AcDbLine
10
-403.200785
20
245.861884
30
0.0
11
-403.200785
21
225.861895
31
0.0
0
LINE
8
Calque 1
62
4
5
125
100
AcDbEntity
100
AcDbLine
10
-403.200785
20
225.861895
30
0.0
11
-406.200779
21
225.861895
31
0.0
0
LINE
8
Calque 1
62
4
5
126
100
AcDbEntity
100
AcDbLine
10
-406.200779
20
225.861895
30
0.0
11
-406.200779
21
185.861891
31
0.0
0
LINE
8
Calque 1
62
4
5
127
100
AcDbEntity
100
AcDbLine
10
-406.200779
20
185.861891
30
0.0
11
-403.200785
21
185.861891
31
0.0
0
LINE
8
Calque 1
62
4
5
128
100
AcDbEntity
100
AcDbLine
10
-403.200785
20
185.861891
30
0.0
11
-403.200785
21
125.861898
31
0.0
0
LINE
8
Calque 1
62
4
5
129
100
AcDbEntity
100
AcDbLine
10
-403.200785
20
125.861898
30
0.0
11
-406.200779
21
125.861898
31
0.0
0
LINE
8
Calque 1
62
4
5
12a
100
AcDbEntity
100
AcDbLine
10
-406.200779
20
125.861898
30
0.0
11
-406.200779
21
85.861893
31
0.0
0
LINE
8
Calque 1
62
4
5
12b
100
AcDbEntity
100
AcDbLine
10
-406.200779
20
85.861893
30
0.0
11
-403.200785
21
85.861893
31
0.0
0
LINE
8
Calque 1
62
4
5
12c
100
AcDbEntity
100
AcDbLine
10
-403.200785
20
85.861893
30
0.0
11
-403.200785
21
54.361886
31
0.0
0
LINE
8
Calque 1
62
4
5
12d
100
AcDbEntity
100
AcDbLine
10
-403.200785
20
54.361886
30
0.0
11
-406.200779
21
54.361886
31
0.0
0
LINE
8
Calque 1
62
4
5
12e
100
AcDbEntity
100
AcDbLine
10
-406.200779
20
54.361886
30
0.0
11
-406.200779
21
24.361889
31
0.0
0
LINE
8
Calque 1
62
4
5
12f
100
AcDbEntity
100
AcDbLine
10
-406.200779
20
24.361889
30
0.0
11
-403.200785
21
24.361889
31
0.0
0
LINE
8
Calque 1
62
4
5
130
100
AcDbEntity
100
AcDbLine
10
-403.200785
20
24.361889
30
0.0
11
-403.200785
21
-14.138118
31
0.0
0
LINE
8
Calque 1
62
4
5
131
100
AcDbEntity
100
AcDbLine
10
-403.200785
20
-14.138118
30
0.0
11
-406.200779
21
-14.138118
31
0.0
0
LINE
8
Calque 1
62
4
5
132
100
AcDbEntity
100
AcDbLine
10
-406.200779
20
-14.138118
30
0.0
11
-406.200779
21
-54.138123
31
0.0
0
LINE
8
Calque 1
62
4
5
133
100
AcDbEntity
100
AcDbLine
10
-406.200779
20
-54.138123
30
0.0
11
-403.200785
21
-54.138123
31
0.0
0
LINE
8
Calque 1
62
4
5
134
100
AcDbEntity
100
AcDbLine
10
-403.200785
20
-54.138123
30
0.0
11
-403.200785
21
-87.138114
31
0.0
0
LINE
8
Calque 1
62
4
5
135
100
AcDbEntity
100
AcDbLine
10
-403.200785
20
-87.138114
30
0.0
11
-373.200789
21
-87.138114
31
0.0
0
LINE
8
Calque 1
62
4
5
136
100
AcDbEntity
100
AcDbLine
10
-373.200789
20
-87.138114
30
0.0
11
-373.200789
21
-84.138120
31
0.0
0
LINE
8
Calque 1
62
4
5
137
100
AcDbEntity
100
AcDbLine
10
-373.200789
20
-84.138120
30
0.0
11
-343.200792
21
-84.138120
31
0.0
0
LINE
8
Calque 1
62
4
5
138
100
AcDbEntity
100
AcDbLine
10
-343.200792
20
-84.138120
30
0.0
11
-343.200792
21
-87.138114
31
0.0
0
LINE
8
Calque 1
62
4
5
139
100
AcDbEntity
100
AcDbLine
10
-343.200792
20
-87.138114
30
0.0
11
-313.200768
21
-87.138114
31
0.0
0
LINE
8
Calque 1
62
4
5
13a
100
AcDbEntity
100
AcDbLine
10
-313.200768
20
-87.138114
30
0.0
11
-313.200768
21
-84.138120
31
0.0
0
LINE
8
Calque 1
62
4
5
13b
100
AcDbEntity
100
AcDbLine
10
-313.200768
20
-84.138120
30
0.0
11
-283.200771
21
-84.138120
31
0.0
0
LINE
8
Calque 1
62
4
5
13c
100
AcDbEntity
100
AcDbLine
10
-283.200771
20
-84.138120
30
0.0
11
-283.200771
21
-87.138114
31
0.0
0
LINE
8
Calque 1
62
4
5
13d
100
AcDbEntity
100
AcDbLine
10
-283.200771
20
-87.138114
30
0.0
11
-253.200778
21
-87.138114
31
0.0
0
LINE
8
Calque 1
62
4
5
13e
100
AcDbEntity
100
AcDbLine
10
-253.200778
20
-87.138114
30
0.0
11
-253.200778
21
-84.138120
31
0.0
0
LINE
8
Calque 1
62
4
5
13f
100
AcDbEntity
100
AcDbLine
10
-253.200778
20
-84.138120
30
0.0
11
-223.200778
21
-84.138120
31
0.0
0
LINE
8
Calque 1
62
4
5
140
100
AcDbEntity
100
AcDbLine
10
-223.200778
20
-84.138120
30
0.0
11
-223.200778
21
-87.138114
31
0.0
0
LINE
8
Calque 1
62
4
5
141
100
AcDbEntity
100
AcDbLine
10
-223.200778
20
-87.138114
30
0.0
11
-193.200779
21
-87.138114
31
0.0
0
LINE
8
Calque 1
62
4
5
142
100
AcDbEntity
100
AcDbLine
10
-193.200779
20
-87.138114
30
0.0
11
-193.200779
21
-84.138120
31
0.0
0
LINE
8
Calque 1
62
4
5
143
100
AcDbEntity
100
AcDbLine
10
-193.200779
20
-84.138120
30
0.0
11
-163.200780
21
-84.138120
31
0.0
0
LINE
8
Calque 1
62
4
5
144
100
AcDbEntity
100
AcDbLine
10
-163.200780
20
-84.138120
30
0.0
11
-163.200780
21
-87.138114
31
0.0
0
LINE
8
Calque 1
62
4
5
145
100
AcDbEntity
100
AcDbLine
10
-163.200780
20
-87.138114
30
0.0
11
-133.200778
21
-87.138114
31
0.0
0
LINE
8
Calque 1
62
4
5
146
100
AcDbEntity
100
AcDbLine
10
-133.200778
20
-87.138114
30
0.0
11
-133.200778
21
-84.138120
31
0.0
0
LINE
8
Calque 1
62
4
5
147
100
AcDbEntity
100
AcDbLine
10
-133.200778
20
-84.138120
30
0.0
11
-104.400771
21
-84.138120
31
0.0
0
LINE
8
Calque 1
62
4
5
148
100
AcDbEntity
100
AcDbLine
10
-104.400771
20
-84.138120
30
0.0
11
-104.400771
21
715.861889
31
0.0
0
LINE
8
Calque 1
62
4
5
149
100
AcDbEntity
100
AcDbLine
10
-104.400771
20
715.861889
30
0.0
11
-133.200778
21
715.861889
31
0.0
0
LINE
8
Calque 1
62
4
5
14a
100
AcDbEntity
100
AcDbLine
10
-133.200778
20
715.861889
30
0.0
11
-133.200778
21
718.861883
31
0.0
0
LINE
8
Calque 1
62
4
5
14b
100
AcDbEntity
100
AcDbLine
10
-133.200778
20
718.861883
30
0.0
11
-163.200780
21
718.861883
31
0.0
0
LINE
8
Calque 1
62
4
5
14c
100
AcDbEntity
100
AcDbLine
10
-163.200780
20
718.861883
30
0.0
11
-163.200780
21
715.861889
31
0.0
0
LINE
8
Calque 1
62
4
5
14d
100
AcDbEntity
100
AcDbLine
10
-163.200780
20
715.861889
30
0.0
11
-193.200779
21
715.861889
31
0.0
0
LINE
8
Calque 1
62
4
5
14e
100
AcDbEntity
100
AcDbLine
10
-193.200779
20
715.861889
30
0.0
11
-193.200779
21
718.861883
31
0.0
0
LINE
8
Calque 1
62
4
5
14f
100
AcDbEntity
100
AcDbLine
10
-193.200779
20
718.861883
30
0.0
11
-223.200778
21
718.861883
31
0.0
0
LINE
8
Calque 1
62
4
5
150
100
AcDbEntity
100
AcDbLine
10
-223.200778
20
718.861883
30
0.0
11
-223.200778
21
715.861889
31
0.0
0
LINE
8
Calque 1
62
4
5
151
100
AcDbEntity
100
AcDbLine
10
-223.200778
20
715.861889
30
0.0
11
-253.200778
21
715.861889
31
0.0
0
LINE
8
Calque 1
62
4
5
152
100
AcDbEntity
100
AcDbLine
10
-253.200778
20
715.861889
30
0.0
11
-253.200778
21
718.861883
31
0.0
0
LINE
8
Calque 1
62
4
5
153
100
AcDbEntity
100
AcDbLine
10
-253.200778
20
718.861883
30
0.0
11
-283.200771
21
718.861883
31
0.0
0
LINE
8
Calque 1
62
4
5
154
100
AcDbEntity
100
AcDbLine
10
-283.200771
20
718.861883
30
0.0
11
-283.200771
21
715.861889
31
0.0
0
LINE
8
Calque 1
62
4
5
155
100
AcDbEntity
100
AcDbLine
10
-283.200771
20
715.861889
30
0.0
11
-313.200768
21
715.861889
31
0.0
0
LINE
8
Calque 1
62
4
5
156
100
AcDbEntity
100
AcDbLine
10
-313.200768
20
715.861889
30
0.0
11
-313.200768
21
718.861883
31
0.0
0
LINE
8
Calque 1
62
4
5
157
100
AcDbEntity
100
AcDbLine
10
-313.200768
20
718.861883
30
0.0
11
-343.200792
21
718.861883
31
0.0
0
LINE
8
Calque 1
62
4
5
158
100
AcDbEntity
100
AcDbLine
10
-343.200792
20
718.861883
30
0.0
11
-343.200792
21
715.861889
31
0.0
0
LINE
8
Calque 1
62
4
5
159
100
AcDbEntity
100
AcDbLine
10
-343.200792
20
715.861889
30
0.0
11
-373.200789
21
715.861889
31
0.0
0
LINE
8
Calque 1
62
4
5
15a
100
AcDbEntity
100
AcDbLine
10
-373.200789
20
715.861889
30
0.0
11
-373.200789
21
718.861883
31
0.0
0
LINE
8
Calque 1
62
4
5
15b
100
AcDbEntity
100
AcDbLine
10
-373.200789
20
718.861883
30
0.0
11
-403.200785
21
718.861883
31
0.0
0
LINE
8
Calque 1
62
4
5
15c
100
AcDbEntity
100
AcDbLine
10
-403.200785
20
718.861883
30
0.0
11
-403.200785
21
686.861891
31
0.0
0
LINE
8
Calque 1
62
4
5
15d
100
AcDbEntity
100
AcDbLine
10
-403.200785
20
686.861891
30
0.0
11
-406.200779
21
686.861891
31
0.0
0
LINE
8
Calque 1
62
4
5
15e
100
AcDbEntity
100
AcDbLine
10
-406.200779
20
686.861891
30
0.0
11
-406.200779
21
646.861886
31
0.0
0
LINE
8
Calque 1
62
4
5
15f
100
AcDbEntity
100
AcDbLine
10
-406.200779
20
646.861886
30
0.0
11
-403.200785
21
646.861886
31
0.0
0
LINE
8
Calque 1
62
4
5
160
100
AcDbEntity
100
AcDbLine
10
-403.200785
20
646.861886
30
0.0
11
-403.200785
21
625.861900
31
0.0
0
LINE
8
Calque 1
62
4
5
161
100
AcDbEntity
100
AcDbLine
10
-403.200785
20
625.861900
30
0.0
11
-403.200785
21
606.861881
31
0.0
0
LINE
8
Calque 1
62
4
5
162
100
AcDbEntity
100
AcDbLine
10
-403.200785
20
606.861881
30
0.0
11
-406.200779
21
606.861881
31
0.0
0
LINE
8
Calque 1
62
4
5
163
100
AcDbEntity
100
AcDbLine
10
-406.200779
20
606.861881
30
0.0
11
-406.200779
21
576.861896
31
0.0
0
LINE
8
Calque 1
62
4
5
164
100
AcDbEntity
100
AcDbLine
10
-406.200779
20
576.861896
30
0.0
11
-403.200785
21
576.861896
31
0.0
0
LINE
8
Calque 1
62
4
5
165
100
AcDbEntity
100
AcDbLine
10
-403.200785
20
576.861896
30
0.0
11
-403.200785
21
565.861896
31
0.0
0
LINE
8
Calque 1
62
4
5
166
100
AcDbEntity
100
AcDbLine
10
-403.200785
20
565.861896
30
0.0
11
-403.200785
21
505.861897
31
0.0
0
LINE
8
Calque 1
62
4
5
167
100
AcDbEntity
100
AcDbLine
10
-403.200785
20
505.861897
30
0.0
11
-406.200779
21
505.861897
31
0.0
0
LINE
8
Calque 1
62
4
5
168
100
AcDbEntity
100
AcDbLine
10
-406.200779
20
505.861897
30
0.0
11
-406.200779
21
445.861907
31
0.0
0
LINE
8
Calque 1
62
4
5
169
100
AcDbEntity
100
AcDbLine
10
-406.200779
20
445.861907
30
0.0
11
-403.200785
21
445.861907
31
0.0
0
LINE
8
Calque 1
62
4
5
16a
100
AcDbEntity
100
AcDbLine
10
-403.200785
20
445.861907
30
0.0
11
-403.200785
21
385.861886
31
0.0
0
LINE
8
Calque 1
62
4
5
16b
100
AcDbEntity
100
AcDbLine
10
-403.200785
20
385.861886
30
0.0
11
-406.200779
21
385.861886
31
0.0
0
LINE
8
Calque 1
62
4
5
16c
100
AcDbEntity
100
AcDbLine
10
-406.200779
20
385.861886
30
0.0
11
-406.200779
21
365.861898
31
0.0
0
LINE
8
Calque 1
62
4
5
16d
100
AcDbEntity
100
AcDbLine
10
-406.200779
20
365.861898
30
0.0
11
-183.200779
21
365.861898
31
0.0
0
LINE
8
Calque 1
62
4
5
16e
100
AcDbEntity
100
AcDbLine
10
-183.200779
20
365.861898
30
0.0
11
-183.200779
21
363.861902
31
0.0
0
LINE
8
Calque 1
62
4
5
16f
100
AcDbEntity
100
AcDbLine
10
-183.200779
20
363.861902
30
0.0
11
-183.200779
21
265.861900
31
0.0
0
LINE
8
Calque 1
62
4
5
170
100
AcDbEntity
100
AcDbLine
10
-183.200779
20
265.861900
30
0.0
11
-401.200789
21
265.861900
31
0.0
0
LINE
8
Calque 1
62
4
5
171
100
AcDbEntity
100
AcDbLine
10
-401.200789
20
265.861900
30
0.0
11
-406.200779
21
265.861900
31
0.0
0
LINE
8
Calque 1
62
4
5
172
100
AcDbEntity
100
AcDbLine
10
-406.200779
20
265.861900
30
0.0
11
-406.200779
21
245.861884
31
0.0
0
LINE
8
Calque 1
62
4
5
173
100
AcDbEntity
100
AcDbLine
10
-406.200779
20
245.861884
30
0.0
11
-403.200785
21
245.861884
31
0.0
0
LINE
8
Calque 1
62
4
5
174
100
AcDbEntity
100
AcDbLine
10
-303.200788
20
491.861897
30
0.0
11
-303.200788
21
591.861883
31
0.0
0
LINE
8
Calque 1
62
4
5
175
100
AcDbEntity
100
AcDbLine
10
-303.200788
20
591.861883
30
0.0
11
-293.200780
21
591.861883
31
0.0
0
LINE
8
Calque 1
62
4
5
176
100
AcDbEntity
100
AcDbLine
10
-283.200771
20
591.861883
30
0.0
11
-273.200780
21
591.861883
31
0.0
0
LINE
8
Calque 1
62
4
5
177
100
AcDbEntity
100
AcDbLine
10
-263.200780
20
591.861883
30
0.0
11
-253.200778
21
591.861883
31
0.0
0
LINE
8
Calque 1
62
4
5
178
100
AcDbEntity
100
AcDbLine
10
-243.200778
20
591.861883
30
0.0
11
-233.200778
21
591.861883
31
0.0
0
LINE
8
Calque 1
62
4
5
179
100
AcDbEntity
100
AcDbLine
10
-223.200778
20
591.861883
30
0.0
11
-213.200779
21
591.861883
31
0.0
0
LINE
8
Calque 1
62
4
5
17a
100
AcDbEntity
100
AcDbLine
10
-203.200779
20
588.861889
30
0.0
11
-203.200779
21
494.861896
31
0.0
0
LINE
8
Calque 1
62
4
5
17b
100
AcDbEntity
100
AcDbLine
10
-213.200779
20
491.861897
30
0.0
11
-223.200778
21
491.861897
31
0.0
0
LINE
8
Calque 1
62
4
5
17c
100
AcDbEntity
100
AcDbLine
10
-233.200778
20
491.861897
30
0.0
11
-243.200778
21
491.861897
31
0.0
0
LINE
8
Calque 1
62
4
5
17d
100
AcDbEntity
100
AcDbLine
10
-253.200778
20
491.861897
30
0.0
11
-263.200780
21
491.861897
31
0.0
0
LINE
8
Calque 1
62
4
5
17e
100
AcDbEntity
100
AcDbLine
10
-273.200780
20
491.861897
30
0.0
11
-283.200771
21
491.861897
31
0.0
0
LINE
8
Calque 1
62
4
5
17f
100
AcDbEntity
100
AcDbLine
10
-293.200780
20
491.861897
30
0.0
11
-303.200788
21
491.861897
31
0.0
0
LINE
8
Calque 1
62
4
5
180
100
AcDbEntity
100
AcDbLine
10
-213.200779
20
39.361887
30
0.0
11
-223.200778
21
39.361887
31
0.0
0
LINE
8
Calque 1
62
4
5
181
100
AcDbEntity
100
AcDbLine
10
-233.200778
20
39.361887
30
0.0
11
-243.200778
21
39.361887
31
0.0
0
LINE
8
Calque 1
62
4
5
182
100
AcDbEntity
100
AcDbLine
10
-253.200778
20
39.361887
30
0.0
11
-263.200780
21
39.361887
31
0.0
0
LINE
8
Calque 1
62
4
5
183
100
AcDbEntity
100
AcDbLine
10
-273.200780
20
39.361887
30
0.0
11
-283.200771
21
39.361887
31
0.0
0
LINE
8
Calque 1
62
4
5
184
100
AcDbEntity
100
AcDbLine
10
-293.200780
20
39.361887
30
0.0
11
-303.200788
21
39.361887
31
0.0
0
LINE
8
Calque 1
62
4
5
185
100
AcDbEntity
100
AcDbLine
10
-303.200788
20
39.361887
30
0.0
11
-303.200788
21
139.361885
31
0.0
0
LINE
8
Calque 1
62
4
5
186
100
AcDbEntity
100
AcDbLine
10
-303.200788
20
139.361885
30
0.0
11
-293.200780
21
139.361885
31
0.0
0
LINE
8
Calque 1
62
4
5
187
100
AcDbEntity
100
AcDbLine
10
-283.200771
20
139.361885
30
0.0
11
-273.200780
21
139.361885
31
0.0
0
LINE
8
Calque 1
62
4
5
188
100
AcDbEntity
100
AcDbLine
10
-263.200780
20
139.361885
30
0.0
11
-253.200778
21
139.361885
31
0.0
0
LINE
8
Calque 1
62
4
5
189
100
AcDbEntity
100
AcDbLine
10
-243.200778
20
139.361885
30
0.0
11
-233.200778
21
139.361885
31
0.0
0
LINE
8
Calque 1
62
4
5
18a
100
AcDbEntity
100
AcDbLine
10
-223.200778
20
139.361885
30
0.0
11
-213.200779
21
139.361885
31
0.0
0
LINE
8
Calque 1
62
4
5
18b
100
AcDbEntity
100
AcDbLine
10
-203.200779
20
136.361891
30
0.0
11
-203.200779
21
42.361881
31
0.0
0
LINE
8
Calque 1
62
4
5
18c
100
AcDbEntity
100
AcDbLine
10
173.371513
20
731.990184
30
0.0
11
121.971932
21
731.990184
31
0.0
0
LINE
8
Calque 1
62
4
5
18d
100
AcDbEntity
100
AcDbLine
10
121.971932
20
731.990184
30
0.0
11
-99.116865
21
731.990184
31
0.0
0
LINE
8
Calque 1
62
4
5
18e
100
AcDbEntity
100
AcDbLine
10
193.372517
20
-84.006519
30
0.0
11
193.372517
21
731.993683
31
0.0
0
LINE
8
Calque 1
62
4
5
18f
100
AcDbEntity
100
AcDbLine
10
193.372517
20
731.993683
30
0.0
11
173.371513
21
731.993683
31
0.0
0
LINE
8
Calque 1
62
4
5
190
100
AcDbEntity
100
AcDbLine
10
-65.055973
20
-79.001534
30
0.0
11
-65.055973
21
-76.000524
31
0.0
0
LINE
8
Calque 1
62
4
5
191
100
AcDbEntity
100
AcDbLine
10
-65.055973
20
-76.000524
30
0.0
11
-30.994573
21
-76.000524
31
0.0
0
LINE
8
Calque 1
62
4
5
192
100
AcDbEntity
100
AcDbLine
10
-30.994573
20
-76.000524
30
0.0
11
-30.994686
21
-79.000913
31
0.0
0
LINE
8
Calque 1
62
4
5
193
100
AcDbEntity
100
AcDbLine
10
-30.994686
20
-79.000913
30
0.0
11
-65.055973
21
-79.000913
31
0.0
0
LINE
8
Calque 1
62
4
5
194
100
AcDbEntity
100
AcDbLine
10
37.128227
20
-79.000913
30
0.0
11
3.066911
21
-79.000998
31
0.0
0
LINE
8
Calque 1
62
4
5
195
100
AcDbEntity
100
AcDbLine
10
3.066911
20
-79.000998
30
0.0
11
3.066911
21
-75.998802
31
0.0
0
LINE
8
Calque 1
62
4
5
196
100
AcDbEntity
100
AcDbLine
10
3.066911
20
-75.998802
30
0.0
11
37.128312
21
-75.998690
31
0.0
0
LINE
8
Calque 1
62
4
5
197
100
AcDbEntity
100
AcDbLine
10
37.128312
20
-75.998690
30
0.0
11
37.128227
21
-79.000913
31
0.0
0
LINE
8
Calque 1
62
4
5
198
100
AcDbEntity
100
AcDbLine
10
105.251112
20
-79.000913
30
0.0
11
71.189712
21
-79.000998
31
0.0
0
LINE
8
Calque 1
62
4
5
199
100
AcDbEntity
100
AcDbLine
10
71.189712
20
-79.000998
30
0.0
11
71.189712
21
-75.997504
31
0.0
0
LINE
8
Calque 1
62
4
5
19a
100
AcDbEntity
100
AcDbLine
10
71.189712
20
-75.997504
30
0.0
11
105.251112
21
-75.997504
31
0.0
0
LINE
8
Calque 1
62
4
5
19b
100
AcDbEntity
100
AcDbLine
10
105.251112
20
-75.997504
30
0.0
11
105.251112
21
-79.000913
31
0.0
0
LINE
8
Calque 1
62
4
5
19c
100
AcDbEntity
100
AcDbLine
10
173.373912
20
-76.002189
30
0.0
11
173.373912
21
-79.005796
31
0.0
0
LINE
8
Calque 1
62
4
5
19d
100
AcDbEntity
100
AcDbLine
10
173.373912
20
-79.005796
30
0.0
11
139.311693
21
-79.005796
31
0.0
0
LINE
8
Calque 1
62
4
5
19e
100
AcDbEntity
100
AcDbLine
10
139.311693
20
-79.005796
30
0.0
11
139.311693
21
-76.001088
31
0.0
0
LINE
8
Calque 1
62
4
5
19f
100
AcDbEntity
100
AcDbLine
10
139.311693
20
-76.001088
30
0.0
11
173.373093
21
-76.001088
31
0.0
0
LINE
8
Calque 1
62
4
5
1a0
100
AcDbEntity
100
AcDbLine
10
-30.994178
20
727.001990
30
0.0
11
-30.994065
21
724.003097
31
0.0
0
LINE
8
Calque 1
62
4
5
1a1
100
AcDbEntity
100
AcDbLine
10
-30.994065
20
724.003097
30
0.0
11
-65.055465
21
724.003097
31
0.0
0
LINE
8
Calque 1
62
4
5
1a2
100
AcDbEntity
100
AcDbLine
10
-65.055465
20
724.003097
30
0.0
11
-65.055578
21
727.002103
31
0.0
0
LINE
8
Calque 1
62
4
5
1a3
100
AcDbEntity
100
AcDbLine
10
-65.055578
20
727.002103
30
0.0
11
-30.994178
21
727.001990
31
0.0
0
LINE
8
Calque 1
62
4
5
1a4
100
AcDbEntity
100
AcDbLine
10
37.128735
20
727.001990
30
0.0
11
37.128735
21
724.004282
31
0.0
0
LINE
8
Calque 1
62
4
5
1a5
100
AcDbEntity
100
AcDbLine
10
37.128735
20
724.004282
30
0.0
11
3.067334
21
724.004282
31
0.0
0
LINE
8
Calque 1
62
4
5
1a6
100
AcDbEntity
100
AcDbLine
10
3.067334
20
724.004282
30
0.0
11
3.067334
21
727.002188
31
0.0
0
LINE
8
Calque 1
62
4
5
1a7
100
AcDbEntity
100
AcDbLine
10
3.067334
20
727.002188
30
0.0
11
37.128735
21
727.001990
31
0.0
0
LINE
8
Calque 1
62
4
5
1a8
100
AcDbEntity
100
AcDbLine
10
105.251535
20
727.001990
30
0.0
11
105.251535
21
724.005496
31
0.0
0
LINE
8
Calque 1
62
4
5
1a9
100
AcDbEntity
100
AcDbLine
10
105.251535
20
724.005496
30
0.0
11
71.190135
21
724.005496
31
0.0
0
LINE
8
Calque 1
62
4
5
1aa
100
AcDbEntity
100
AcDbLine
10
71.190135
20
724.005496
30
0.0
11
71.190135
21
727.002103
31
0.0
0
LINE
8
Calque 1
62
4
5
1ab
100
AcDbEntity
100
AcDbLine
10
71.190135
20
727.002103
30
0.0
11
105.251535
21
727.001990
31
0.0
0
LINE
8
Calque 1
62
4
5
1ac
100
AcDbEntity
100
AcDbLine
10
173.374335
20
727.001990
30
0.0
11
173.374335
21
724.001996
31
0.0
0
LINE
8
Calque 1
62
4
5
1ad
100
AcDbEntity
100
AcDbLine
10
173.374335
20
724.001996
30
0.0
11
139.312935
21
724.001996
31
0.0
0
LINE
8
Calque 1
62
4
5
1ae
100
AcDbEntity
100
AcDbLine
10
139.312935
20
724.001996
30
0.0
11
139.312935
21
726.997306
31
0.0
0
LINE
8
Calque 1
62
4
5
1af
100
AcDbEntity
100
AcDbLine
10
139.312935
20
726.997306
30
0.0
11
173.374335
21
726.997306
31
0.0
0
LINE
8
Calque 1
62
4
5
1b0
100
AcDbEntity
100
AcDbLine
10
193.372517
20
-168.005025
30
0.0
11
193.372517
21
-84.005221
31
0.0
0
LINE
8
Calque 1
62
4
5
1b1
100
AcDbEntity
100
AcDbLine
10
-99.116865
20
731.991510
30
0.0
11
-407.627469
21
731.991510
31
0.0
0
LINE
8
Calque 1
62
4
5
1b2
100
AcDbEntity
100
AcDbLine
10
-407.627469
20
731.991510
30
0.0
11
-406.627471
21
-168.008524
31
0.0
0
LINE
8
Calque 1
62
4
5
1b3
100
AcDbEntity
100
AcDbLine
10
-406.627471
20
-168.008524
30
0.0
11
193.372517
21
-168.008524
31
0.0
0
LINE
8
Calque 1
62
4
5
1b4
100
AcDbEntity
100
AcDbLine
10
-235.200780
20
324.861894
30
0.0
11
-235.200780
21
344.861883
31
0.0
0
LINE
8
Calque 1
62
4
5
1b5
100
AcDbEntity
100
AcDbLine
10
-235.200780
20
344.861883
30
0.0
11
-232.200777
21
344.861883
31
0.0
0
LINE
8
Calque 1
62
4
5
1b6
100
AcDbEntity
100
AcDbLine
10
-232.200777
20
344.861883
30
0.0
11
-232.200777
21
324.861894
31
0.0
0
LINE
8
Calque 1
62
4
5
1b7
100
AcDbEntity
100
AcDbLine
10
-232.200777
20
324.861894
30
0.0
11
-235.200780
21
324.861894
31
0.0
0
LINE
8
Calque 1
62
4
5
1b8
100
AcDbEntity
100
AcDbLine
10
-352.200774
20
324.861894
30
0.0
11
-352.200774
21
344.861883
31
0.0
0
LINE
8
Calque 1
62
4
5
1b9
100
AcDbEntity
100
AcDbLine
10
-352.200774
20
344.861883
30
0.0
11
-349.200780
21
344.861883
31
0.0
0
LINE
8
Calque 1
62
4
5
1ba
100
AcDbEntity
100
AcDbLine
10
-349.200780
20
344.861883
30
0.0
11
-349.200780
21
324.861894
31
0.0
0
LINE
8
Calque 1
62
4
5
1bb
100
AcDbEntity
100
AcDbLine
10
-349.200780
20
324.861894
30
0.0
11
-352.200774
21
324.861894
31
0.0
0
LINE
8
Calque 1
62
4
5
1bc
100
AcDbEntity
100
AcDbLine
10
-349.200780
20
284.861890
30
0.0
11
-352.200774
21
284.861890
31
0.0
0
LINE
8
Calque 1
62
4
5
1bd
100
AcDbEntity
100
AcDbLine
10
-352.200774
20
284.861890
30
0.0
11
-352.200774
21
304.861906
31
0.0
0
LINE
8
Calque 1
62
4
5
1be
100
AcDbEntity
100
AcDbLine
10
-352.200774
20
304.861906
30
0.0
11
-349.200780
21
304.861906
31
0.0
0
LINE
8
Calque 1
62
4
5
1bf
100
AcDbEntity
100
AcDbLine
10
-349.200780
20
304.861906
30
0.0
11
-349.200780
21
284.861890
31
0.0
0
LINE
8
Calque 1
62
4
5
1c0
100
AcDbEntity
100
AcDbLine
10
-232.200777
20
284.861890
30
0.0
11
-235.200780
21
284.861890
31
0.0
0
LINE
8
Calque 1
62
4
5
1c1
100
AcDbEntity
100
AcDbLine
10
-235.200780
20
284.861890
30
0.0
11
-235.200780
21
304.861906
31
0.0
0
LINE
8
Calque 1
62
4
5
1c2
100
AcDbEntity
100
AcDbLine
10
-235.200780
20
304.861906
30
0.0
11
-232.200777
21
304.861906
31
0.0
0
LINE
8
Calque 1
62
4
5
1c3
100
AcDbEntity
100
AcDbLine
10
-232.200777
20
304.861906
30
0.0
11
-232.200777
21
284.861890
31
0.0
0
LINE
8
Calque 1
62
4
5
1c4
100
AcDbEntity
100
AcDbLine
10
-293.200780
20
39.361887
30
0.0
11
-293.200780
21
42.361881
31
0.0
0
LINE
8
Calque 1
62
4
5
1c5
100
AcDbEntity
100
AcDbLine
10
-293.200780
20
42.361881
30
0.0
11
-283.200771
21
42.361881
31
0.0
0
LINE
8
Calque 1
62
4
5
1c6
100
AcDbEntity
100
AcDbLine
10
-283.200771
20
42.361881
30
0.0
11
-283.200771
21
39.361887
31
0.0
0
LINE
8
Calque 1
62
4
5
1c7
100
AcDbEntity
100
AcDbLine
10
-273.200780
20
39.361887
30
0.0
11
-273.200780
21
42.361881
31
0.0
0
LINE
8
Calque 1
62
4
5
1c8
100
AcDbEntity
100
AcDbLine
10
-273.200780
20
42.361881
30
0.0
11
-263.200780
21
42.361881
31
0.0
0
LINE
8
Calque 1
62
4
5
1c9
100
AcDbEntity
100
AcDbLine
10
-263.200780
20
42.361881
30
0.0
11
-263.200780
21
39.361887
31
0.0
0
LINE
8
Calque 1
62
4
5
1ca
100
AcDbEntity
100
AcDbLine
10
-253.200778
20
39.361887
30
0.0
11
-253.200778
21
42.361881
31
0.0
0
LINE
8
Calque 1
62
4
5
1cb
100
AcDbEntity
100
AcDbLine
10
-253.200778
20
42.361881
30
0.0
11
-243.200778
21
42.361881
31
0.0
0
LINE
8
Calque 1
62
4
5
1cc
100
AcDbEntity
100
AcDbLine
10
-243.200778
20
42.361881
30
0.0
11
-243.200778
21
39.361887
31
0.0
0
LINE
8
Calque 1
62
4
5
1cd
100
AcDbEntity
100
AcDbLine
10
-233.200778
20
39.361887
30
0.0
11
-233.200778
21
42.361881
31
0.0
0
LINE
8
Calque 1
62
4
5
1ce
100
AcDbEntity
100
AcDbLine
10
-233.200778
20
42.361881
30
0.0
11
-223.200778
21
42.361881
31
0.0
0
LINE
8
Calque 1
62
4
5
1cf
100
AcDbEntity
100
AcDbLine
10
-223.200778
20
42.361881
30
0.0
11
-223.200778
21
39.361887
31
0.0
0
LINE
8
Calque 1
62
4
5
1d0
100
AcDbEntity
100
AcDbLine
10
-213.200779
20
39.361887
30
0.0
11
-213.200779
21
42.361881
31
0.0
0
LINE
8
Calque 1
62
4
5
1d1
100
AcDbEntity
100
AcDbLine
10
-213.200779
20
42.361881
30
0.0
11
-203.200779
21
42.361881
31
0.0
0
LINE
8
Calque 1
62
4
5
1d2
100
AcDbEntity
100
AcDbLine
10
-203.200779
20
136.361891
30
0.0
11
-213.200779
21
136.361891
31
0.0
0
LINE
8
Calque 1
62
4
5
1d3
100
AcDbEntity
100
AcDbLine
10
-213.200779
20
136.361891
30
0.0
11
-213.200779
21
139.361885
31
0.0
0
LINE
8
Calque 1
62
4
5
1d4
100
AcDbEntity
100
AcDbLine
10
-223.200778
20
139.361885
30
0.0
11
-223.200778
21
136.361891
31
0.0
0
LINE
8
Calque 1
62
4
5
1d5
100
AcDbEntity
100
AcDbLine
10
-223.200778
20
136.361891
30
0.0
11
-233.200778
21
136.361891
31
0.0
0
LINE
8
Calque 1
62
4
5
1d6
100
AcDbEntity
100
AcDbLine
10
-233.200778
20
136.361891
30
0.0
11
-233.200778
21
139.361885
31
0.0
0
LINE
8
Calque 1
62
4
5
1d7
100
AcDbEntity
100
AcDbLine
10
-243.200778
20
139.361885
30
0.0
11
-243.200778
21
136.361891
31
0.0
0
LINE
8
Calque 1
62
4
5
1d8
100
AcDbEntity
100
AcDbLine
10
-243.200778
20
136.361891
30
0.0
11
-253.200778
21
136.361891
31
0.0
0
LINE
8
Calque 1
62
4
5
1d9
100
AcDbEntity
100
AcDbLine
10
-253.200778
20
136.361891
30
0.0
11
-253.200778
21
139.361885
31
0.0
0
LINE
8
Calque 1
62
4
5
1da
100
AcDbEntity
100
AcDbLine
10
-263.200780
20
139.361885
30
0.0
11
-263.200780
21
136.361891
31
0.0
0
LINE
8
Calque 1
62
4
5
1db
100
AcDbEntity
100
AcDbLine
10
-263.200780
20
136.361891
30
0.0
11
-273.200780
21
136.361891
31
0.0
0
LINE
8
Calque 1
62
4
5
1dc
100
AcDbEntity
100
AcDbLine
10
-273.200780
20
136.361891
30
0.0
11
-273.200780
21
139.361885
31
0.0
0
LINE
8
Calque 1
62
4
5
1dd
100
AcDbEntity
100
AcDbLine
10
-283.200771
20
139.361885
30
0.0
11
-283.200771
21
136.361891
31
0.0
0
LINE
8
Calque 1
62
4
5
1de
100
AcDbEntity
100
AcDbLine
10
-283.200771
20
136.361891
30
0.0
11
-293.200780
21
136.361891
31
0.0
0
LINE
8
Calque 1
62
4
5
1df
100
AcDbEntity
100
AcDbLine
10
-293.200780
20
136.361891
30
0.0
11
-293.200780
21
139.361885
31
0.0
0
LINE
8
Calque 1
62
4
5
1e0
100
AcDbEntity
100
AcDbLine
10
-293.200780
20
491.861897
30
0.0
11
-293.200780
21
494.861896
31
0.0
0
LINE
8
Calque 1
62
4
5
1e1
100
AcDbEntity
100
AcDbLine
10
-293.200780
20
494.861896
30
0.0
11
-283.200771
21
494.861896
31
0.0
0
LINE
8
Calque 1
62
4
5
1e2
100
AcDbEntity
100
AcDbLine
10
-283.200771
20
494.861896
30
0.0
11
-283.200771
21
491.861897
31
0.0
0
LINE
8
Calque 1
62
4
5
1e3
100
AcDbEntity
100
AcDbLine
10
-273.200780
20
491.861897
30
0.0
11
-273.200780
21
494.861896
31
0.0
0
LINE
8
Calque 1
62
4
5
1e4
100
AcDbEntity
100
AcDbLine
10
-273.200780
20
494.861896
30
0.0
11
-263.200780
21
494.861896
31
0.0
0
LINE
8
Calque 1
62
4
5
1e5
100
AcDbEntity
100
AcDbLine
10
-263.200780
20
494.861896
30
0.0
11
-263.200780
21
491.861897
31
0.0
0
LINE
8
Calque 1
62
4
5
1e6
100
AcDbEntity
100
AcDbLine
10
-253.200778
20
491.861897
30
0.0
11
-253.200778
21
494.861896
31
0.0
0
LINE
8
Calque 1
62
4
5
1e7
100
AcDbEntity
100
AcDbLine
10
-253.200778
20
494.861896
30
0.0
11
-243.200778
21
494.861896
31
0.0
0
LINE
8
Calque 1
62
4
5
1e8
100
AcDbEntity
100
AcDbLine
10
-243.200778
20
494.861896
30
0.0
11
-243.200778
21
491.861897
31
0.0
0
LINE
8
Calque 1
62
4
5
1e9
100
AcDbEntity
100
AcDbLine
10
-233.200778
20
491.861897
30
0.0
11
-233.200778
21
494.861896
31
0.0
0
LINE
8
Calque 1
62
4
5
1ea
100
AcDbEntity
100
AcDbLine
10
-233.200778
20
494.861896
30
0.0
11
-223.200778
21
494.861896
31
0.0
0
LINE
8
Calque 1
62
4
5
1eb
100
AcDbEntity
100
AcDbLine
10
-223.200778
20
494.861896
30
0.0
11
-223.200778
21
491.861897
31
0.0
0
LINE
8
Calque 1
62
4
5
1ec
100
AcDbEntity
100
AcDbLine
10
-213.200779
20
491.861897
30
0.0
11
-213.200779
21
494.861896
31
0.0
0
LINE
8
Calque 1
62
4
5
1ed
100
AcDbEntity
100
AcDbLine
10
-213.200779
20
494.861896
30
0.0
11
-203.200779
21
494.861896
31
0.0
0
LINE
8
Calque 1
62
4
5
1ee
100
AcDbEntity
100
AcDbLine
10
-203.200779
20
588.861889
30
0.0
11
-213.200779
21
588.861889
31
0.0
0
LINE
8
Calque 1
62
4
5
1ef
100
AcDbEntity
100
AcDbLine
10
-213.200779
20
588.861889
30
0.0
11
-213.200779
21
591.861883
31
0.0
0
LINE
8
Calque 1
62
4
5
1f0
100
AcDbEntity
100
AcDbLine
10
-223.200778
20
591.861883
30
0.0
11
-223.200778
21
588.861889
31
0.0
0
LINE
8
Calque 1
62
4
5
1f1
100
AcDbEntity
100
AcDbLine
10
-223.200778
20
588.861889
30
0.0
11
-233.200778
21
588.861889
31
0.0
0
LINE
8
Calque 1
62
4
5
1f2
100
AcDbEntity
100
AcDbLine
10
-233.200778
20
588.861889
30
0.0
11
-233.200778
21
591.861883
31
0.0
0
LINE
8
Calque 1
62
4
5
1f3
100
AcDbEntity
100
AcDbLine
10
-243.200778
20
591.861883
30
0.0
11
-243.200778
21
588.861889
31
0.0
0
LINE
8
Calque 1
62
4
5
1f4
100
AcDbEntity
100
AcDbLine
10
-243.200778
20
588.861889
30
0.0
11
-253.200778
21
588.861889
31
0.0
0
LINE
8
Calque 1
62
4
5
1f5
100
AcDbEntity
100
AcDbLine
10
-253.200778
20
588.861889
30
0.0
11
-253.200778
21
591.861883
31
0.0
0
LINE
8
Calque 1
62
4
5
1f6
100
AcDbEntity
100
AcDbLine
10
-263.200780
20
591.861883
30
0.0
11
-263.200780
21
588.861889
31
0.0
0
LINE
8
Calque 1
62
4
5
1f7
100
AcDbEntity
100
AcDbLine
10
-263.200780
20
588.861889
30
0.0
11
-273.200780
21
588.861889
31
0.0
0
LINE
8
Calque 1
62
4
5
1f8
100
AcDbEntity
100
AcDbLine
10
-273.200780
20
588.861889
30
0.0
11
-273.200780
21
591.861883
31
0.0
0
LINE
8
Calque 1
62
4
5
1f9
100
AcDbEntity
100
AcDbLine
10
-283.200771
20
591.861883
30
0.0
11
-283.200771
21
588.861889
31
0.0
0
LINE
8
Calque 1
62
4
5
1fa
100
AcDbEntity
100
AcDbLine
10
-283.200771
20
588.861889
30
0.0
11
-293.200780
21
588.861889
31
0.0
0
LINE
8
Calque 1
62
4
5
1fb
100
AcDbEntity
100
AcDbLine
10
-293.200780
20
588.861889
30
0.0
11
-293.200780
21
591.861883
31
0.0
0
LINE
8
Calque 1
62
4
5
1fc
100
AcDbEntity
100
AcDbLine
10
-275.365879
20
379.733797
30
0.0
11
-274.968578
21
380.251590
31
0.0
0
LINE
8
Calque 1
62
4
5
1fd
100
AcDbEntity
100
AcDbLine
10
-274.968578
20
380.251590
30
0.0
11
-274.450779
21
380.648903
31
0.0
0
LINE
8
Calque 1
62
4
5
1fe
100
AcDbEntity
100
AcDbLine
10
-274.450779
20
380.648903
30
0.0
11
-273.847879
21
380.898698
31
0.0
0
LINE
8
Calque 1
62
4
5
1ff
100
AcDbEntity
100
AcDbLine
10
-273.847879
20
380.898698
30
0.0
11
-273.200780
21
380.983703
31
0.0
0
LINE
8
Calque 1
62
4
5
200
100
AcDbEntity
100
AcDbLine
10
-273.200780
20
380.983703
30
0.0
11
-272.553780
21
380.898698
31
0.0
0
LINE
8
Calque 1
62
4
5
201
100
AcDbEntity
100
AcDbLine
10
-272.553780
20
380.898698
30
0.0
11
-271.950778
21
380.648903
31
0.0
0
LINE
8
Calque 1
62
4
5
202
100
AcDbEntity
100
AcDbLine
10
-271.950778
20
380.648903
30
0.0
11
-271.433078
21
380.251590
31
0.0
0
LINE
8
Calque 1
62
4
5
203
100
AcDbEntity
100
AcDbLine
10
-271.433078
20
380.251590
30
0.0
11
-271.035780
21
379.733797
31
0.0
0
LINE
8
Calque 1
62
4
5
204
100
AcDbEntity
100
AcDbLine
10
-271.035780
20
379.733797
30
0.0
11
-270.785979
21
379.130886
31
0.0
0
LINE
8
Calque 1
62
4
5
205
100
AcDbEntity
100
AcDbLine
10
-270.785979
20
379.130886
30
0.0
11
-270.700980
21
378.483807
31
0.0
0
LINE
8
Calque 1
62
4
5
206
100
AcDbEntity
100
AcDbLine
10
-270.700980
20
378.483807
30
0.0
11
-270.785979
21
377.836784
31
0.0
0
LINE
8
Calque 1
62
4
5
207
100
AcDbEntity
100
AcDbLine
10
-270.785979
20
377.836784
30
0.0
11
-271.035780
21
377.233788
31
0.0
0
LINE
8
Calque 1
62
4
5
208
100
AcDbEntity
100
AcDbLine
10
-271.035780
20
377.233788
30
0.0
11
-271.433078
21
376.716108
31
0.0
0
LINE
8
Calque 1
62
4
5
209
100
AcDbEntity
100
AcDbLine
10
-271.433078
20
376.716108
30
0.0
11
-271.950778
21
376.318795
31
0.0
0
LINE
8
Calque 1
62
4
5
20a
100
AcDbEntity
100
AcDbLine
10
-271.950778
20
376.318795
30
0.0
11
-272.553780
21
376.069001
31
0.0
0
LINE
8
Calque 1
62
4
5
20b
100
AcDbEntity
100
AcDbLine
10
-272.553780
20
376.069001
30
0.0
11
-273.200780
21
375.983995
31
0.0
0
LINE
8
Calque 1
62
4
5
20c
100
AcDbEntity
100
AcDbLine
10
-273.200780
20
375.983995
30
0.0
11
-273.847879
21
376.069001
31
0.0
0
LINE
8
Calque 1
62
4
5
20d
100
AcDbEntity
100
AcDbLine
10
-273.847879
20
376.069001
30
0.0
11
-274.450779
21
376.318795
31
0.0
0
LINE
8
Calque 1
62
4
5
20e
100
AcDbEntity
100
AcDbLine
10
-274.450779
20
376.318795
30
0.0
11
-274.968578
21
376.716108
31
0.0
0
LINE
8
Calque 1
62
4
5
20f
100
AcDbEntity
100
AcDbLine
10
-274.968578
20
376.716108
30
0.0
11
-275.365879
21
377.233788
31
0.0
0
LINE
8
Calque 1
62
4
5
210
100
AcDbEntity
100
AcDbLine
10
-275.365879
20
377.233788
30
0.0
11
-275.615578
21
377.836784
31
0.0
0
LINE
8
Calque 1
62
4
5
211
100
AcDbEntity
100
AcDbLine
10
-275.615578
20
377.836784
30
0.0
11
-275.700580
21
378.483807
31
0.0
0
LINE
8
Calque 1
62
4
5
212
100
AcDbEntity
100
AcDbLine
10
-275.700580
20
378.483807
30
0.0
11
-275.615578
21
379.130886
31
0.0
0
LINE
8
Calque 1
62
4
5
213
100
AcDbEntity
100
AcDbLine
10
-275.615578
20
379.130886
30
0.0
11
-275.365879
21
379.733797
31
0.0
0
LINE
8
Calque 1
62
4
5
214
100
AcDbEntity
100
AcDbLine
10
-285.365867
20
377.233788
30
0.0
11
-285.615578
21
377.836784
31
0.0
0
LINE
8
Calque 1
62
4
5
215
100
AcDbEntity
100
AcDbLine
10
-285.615578
20
377.836784
30
0.0
11
-285.700583
21
378.483807
31
0.0
0
LINE
8
Calque 1
62
4
5
216
100
AcDbEntity
100
AcDbLine
10
-285.700583
20
378.483807
30
0.0
11
-285.615578
21
379.130886
31
0.0
0
LINE
8
Calque 1
62
4
5
217
100
AcDbEntity
100
AcDbLine
10
-285.615578
20
379.130886
30
0.0
11
-285.365867
21
379.733797
31
0.0
0
LINE
8
Calque 1
62
4
5
218
100
AcDbEntity
100
AcDbLine
10
-285.365867
20
379.733797
30
0.0
11
-284.968583
21
380.251590
31
0.0
0
LINE
8
Calque 1
62
4
5
219
100
AcDbEntity
100
AcDbLine
10
-284.968583
20
380.251590
30
0.0
11
-284.450790
21
380.648903
31
0.0
0
LINE
8
Calque 1
62
4
5
21a
100
AcDbEntity
100
AcDbLine
10
-284.450790
20
380.648903
30
0.0
11
-283.847879
21
380.898698
31
0.0
0
LINE
8
Calque 1
62
4
5
21b
100
AcDbEntity
100
AcDbLine
10
-283.847879
20
380.898698
30
0.0
11
-283.200771
21
380.983703
31
0.0
0
LINE
8
Calque 1
62
4
5
21c
100
AcDbEntity
100
AcDbLine
10
-283.200771
20
380.983703
30
0.0
11
-282.553777
21
380.898698
31
0.0
0
LINE
8
Calque 1
62
4
5
21d
100
AcDbEntity
100
AcDbLine
10
-282.553777
20
380.898698
30
0.0
11
-281.950778
21
380.648903
31
0.0
0
LINE
8
Calque 1
62
4
5
21e
100
AcDbEntity
100
AcDbLine
10
-281.950778
20
380.648903
30
0.0
11
-281.433078
21
380.251590
31
0.0
0
LINE
8
Calque 1
62
4
5
21f
100
AcDbEntity
100
AcDbLine
10
-281.433078
20
380.251590
30
0.0
11
-281.035780
21
379.733797
31
0.0
0
LINE
8
Calque 1
62
4
5
220
100
AcDbEntity
100
AcDbLine
10
-281.035780
20
379.733797
30
0.0
11
-280.785979
21
379.130886
31
0.0
0
LINE
8
Calque 1
62
4
5
221
100
AcDbEntity
100
AcDbLine
10
-280.785979
20
379.130886
30
0.0
11
-280.700980
21
378.483807
31
0.0
0
LINE
8
Calque 1
62
4
5
222
100
AcDbEntity
100
AcDbLine
10
-280.700980
20
378.483807
30
0.0
11
-280.785979
21
377.836784
31
0.0
0
LINE
8
Calque 1
62
4
5
223
100
AcDbEntity
100
AcDbLine
10
-280.785979
20
377.836784
30
0.0
11
-281.035780
21
377.233788
31
0.0
0
LINE
8
Calque 1
62
4
5
224
100
AcDbEntity
100
AcDbLine
10
-281.035780
20
377.233788
30
0.0
11
-281.433078
21
376.716108
31
0.0
0
LINE
8
Calque 1
62
4
5
225
100
AcDbEntity
100
AcDbLine
10
-281.433078
20
376.716108
30
0.0
11
-281.950778
21
376.318795
31
0.0
0
LINE
8
Calque 1
62
4
5
226
100
AcDbEntity
100
AcDbLine
10
-281.950778
20
376.318795
30
0.0
11
-282.553777
21
376.069001
31
0.0
0
LINE
8
Calque 1
62
4
5
227
100
AcDbEntity
100
AcDbLine
10
-282.553777
20
376.069001
30
0.0
11
-283.200771
21
375.983995
31
0.0
0
LINE
8
Calque 1
62
4
5
228
100
AcDbEntity
100
AcDbLine
10
-283.200771
20
375.983995
30
0.0
11
-283.847879
21
376.069001
31
0.0
0
LINE
8
Calque 1
62
4
5
229
100
AcDbEntity
100
AcDbLine
10
-283.847879
20
376.069001
30
0.0
11
-284.450790
21
376.318795
31
0.0
0
LINE
8
Calque 1
62
4
5
22a
100
AcDbEntity
100
AcDbLine
10
-284.450790
20
376.318795
30
0.0
11
-284.968583
21
376.716108
31
0.0
0
LINE
8
Calque 1
62
4
5
22b
100
AcDbEntity
100
AcDbLine
10
-284.968583
20
376.716108
30
0.0
11
-285.365867
21
377.233788
31
0.0
0
LINE
8
Calque 1
62
4
5
22c
100
AcDbEntity
100
AcDbLine
10
-293.200780
20
591.861883
30
0.0
11
-283.200771
21
591.861883
31
0.0
0
LINE
8
Calque 1
62
4
5
22d
100
AcDbEntity
100
AcDbLine
10
-273.200780
20
591.861883
30
0.0
11
-263.200780
21
591.861883
31
0.0
0
LINE
8
Calque 1
62
4
5
22e
100
AcDbEntity
100
AcDbLine
10
-253.200778
20
591.861883
30
0.0
11
-243.200778
21
591.861883
31
0.0
0
LINE
8
Calque 1
62
4
5
22f
100
AcDbEntity
100
AcDbLine
10
-233.200778
20
591.861883
30
0.0
11
-223.200778
21
591.861883
31
0.0
0
LINE
8
Calque 1
62
4
5
230
100
AcDbEntity
100
AcDbLine
10
-213.200779
20
591.861883
30
0.0
11
-203.200779
21
591.861883
31
0.0
0
LINE
8
Calque 1
62
4
5
231
100
AcDbEntity
100
AcDbLine
10
-203.200779
20
591.861883
30
0.0
11
-203.200779
21
588.861889
31
0.0
0
LINE
8
Calque 1
62
4
5
232
100
AcDbEntity
100
AcDbLine
10
-203.200779
20
494.861896
30
0.0
11
-203.200779
21
491.861897
31
0.0
0
LINE
8
Calque 1
62
4
5
233
100
AcDbEntity
100
AcDbLine
10
-203.200779
20
491.861897
30
0.0
11
-213.200779
21
491.861897
31
0.0
0
LINE
8
Calque 1
62
4
5
234
100
AcDbEntity
100
AcDbLine
10
-223.200778
20
491.861897
30
0.0
11
-233.200778
21
491.861897
31
0.0
0
LINE
8
Calque 1
62
4
5
235
100
AcDbEntity
100
AcDbLine
10
-243.200778
20
491.861897
30
0.0
11
-253.200778
21
491.861897
31
0.0
0
LINE
8
Calque 1
62
4
5
236
100
AcDbEntity
100
AcDbLine
10
-263.200780
20
491.861897
30
0.0
11
-273.200780
21
491.861897
31
0.0
0
LINE
8
Calque 1
62
4
5
237
100
AcDbEntity
100
AcDbLine
10
-283.200771
20
491.861897
30
0.0
11
-293.200780
21
491.861897
31
0.0
0
LINE
8
Calque 1
62
4
5
238
100
AcDbEntity
100
AcDbLine
10
-343.254471
20
215.861887
30
0.0
11
-343.254471
21
212.861893
31
0.0
0
LINE
8
Calque 1
62
4
5
239
100
AcDbEntity
100
AcDbLine
10
-343.254471
20
212.861893
30
0.0
11
-363.200781
21
212.861893
31
0.0
0
LINE
8
Calque 1
62
4
5
23a
100
AcDbEntity
100
AcDbLine
10
-363.200781
20
212.861893
30
0.0
11
-363.200781
21
215.861887
31
0.0
0
LINE
8
Calque 1
62
4
5
23b
100
AcDbEntity
100
AcDbLine
10
-363.200781
20
215.861887
30
0.0
11
-343.254471
21
215.861887
31
0.0
0
LINE
8
Calque 1
62
4
5
23c
100
AcDbEntity
100
AcDbLine
10
-243.200778
20
212.861893
30
0.0
11
-263.200780
21
212.861893
31
0.0
0
LINE
8
Calque 1
62
4
5
23d
100
AcDbEntity
100
AcDbLine
10
-263.200780
20
212.861893
30
0.0
11
-263.200780
21
215.861887
31
0.0
0
LINE
8
Calque 1
62
4
5
23e
100
AcDbEntity
100
AcDbLine
10
-263.200780
20
215.861887
30
0.0
11
-243.200778
21
215.861887
31
0.0
0
LINE
8
Calque 1
62
4
5
23f
100
AcDbEntity
100
AcDbLine
10
-243.200778
20
215.861887
30
0.0
11
-243.200778
21
212.861893
31
0.0
0
LINE
8
Calque 1
62
4
5
240
100
AcDbEntity
100
AcDbLine
10
-163.200780
20
212.861893
30
0.0
11
-163.200780
21
215.861887
31
0.0
0
LINE
8
Calque 1
62
4
5
241
100
AcDbEntity
100
AcDbLine
10
-163.200780
20
215.861887
30
0.0
11
-143.200778
21
215.861887
31
0.0
0
LINE
8
Calque 1
62
4
5
242
100
AcDbEntity
100
AcDbLine
10
-143.200778
20
215.861887
30
0.0
11
-143.200778
21
212.861893
31
0.0
0
LINE
8
Calque 1
62
4
5
243
100
AcDbEntity
100
AcDbLine
10
-143.200778
20
212.861893
30
0.0
11
-163.200780
21
212.861893
31
0.0
0
LINE
8
Calque 1
62
4
5
244
100
AcDbEntity
100
AcDbLine
10
-197.200780
20
602.861889
30
0.0
11
-197.200780
21
589.861887
31
0.0
0
LINE
8
Calque 1
62
4
5
245
100
AcDbEntity
100
AcDbLine
10
-197.200780
20
589.861887
30
0.0
11
-200.200779
21
589.861887
31
0.0
0
LINE
8
Calque 1
62
4
5
246
100
AcDbEntity
100
AcDbLine
10
-200.200779
20
589.861887
30
0.0
11
-200.200779
21
602.861889
31
0.0
0
LINE
8
Calque 1
62
4
5
247
100
AcDbEntity
100
AcDbLine
10
-200.200779
20
602.861889
30
0.0
11
-197.200780
21
602.861889
31
0.0
0
LINE
8
Calque 1
62
4
5
248
100
AcDbEntity
100
AcDbLine
10
-306.200782
20
602.861889
30
0.0
11
-306.200782
21
589.861887
31
0.0
0
LINE
8
Calque 1
62
4
5
249
100
AcDbEntity
100
AcDbLine
10
-306.200782
20
589.861887
30
0.0
11
-309.200776
21
589.861887
31
0.0
0
LINE
8
Calque 1
62
4
5
24a
100
AcDbEntity
100
AcDbLine
10
-309.200776
20
589.861887
30
0.0
11
-309.200776
21
602.861889
31
0.0
0
LINE
8
Calque 1
62
4
5
24b
100
AcDbEntity
100
AcDbLine
10
-309.200776
20
602.861889
30
0.0
11
-306.200782
21
602.861889
31
0.0
0
LINE
8
Calque 1
62
4
5
24c
100
AcDbEntity
100
AcDbLine
10
-309.200776
20
41.361883
30
0.0
11
-306.200782
21
41.361883
31
0.0
0
LINE
8
Calque 1
62
4
5
24d
100
AcDbEntity
100
AcDbLine
10
-306.200782
20
41.361883
30
0.0
11
-306.200782
21
28.361881
31
0.0
0
LINE
8
Calque 1
62
4
5
24e
100
AcDbEntity
100
AcDbLine
10
-306.200782
20
28.361881
30
0.0
11
-309.200776
21
28.361881
31
0.0
0
LINE
8
Calque 1
62
4
5
24f
100
AcDbEntity
100
AcDbLine
10
-309.200776
20
28.361881
30
0.0
11
-309.200776
21
41.361883
31
0.0
0
LINE
8
Calque 1
62
4
5
250
100
AcDbEntity
100
AcDbLine
10
-200.200779
20
28.361881
30
0.0
11
-200.200779
21
41.361883
31
0.0
0
LINE
8
Calque 1
62
4
5
251
100
AcDbEntity
100
AcDbLine
10
-200.200779
20
41.361883
30
0.0
11
-197.200780
21
41.361883
31
0.0
0
LINE
8
Calque 1
62
4
5
252
100
AcDbEntity
100
AcDbLine
10
-197.200780
20
41.361883
30
0.0
11
-197.200780
21
28.361881
31
0.0
0
LINE
8
Calque 1
62
4
5
253
100
AcDbEntity
100
AcDbLine
10
-197.200780
20
28.361881
30
0.0
11
-200.200779
21
28.361881
31
0.0
0
LINE
8
Calque 1
62
4
5
254
100
AcDbEntity
100
AcDbLine
10
-203.200779
20
39.361887
30
0.0
11
-213.200779
21
39.361887
31
0.0
0
LINE
8
Calque 1
62
4
5
255
100
AcDbEntity
100
AcDbLine
10
-223.200778
20
39.361887
30
0.0
11
-233.200778
21
39.361887
31
0.0
0
LINE
8
Calque 1
62
4
5
256
100
AcDbEntity
100
AcDbLine
10
-243.200778
20
39.361887
30
0.0
11
-253.200778
21
39.361887
31
0.0
0
LINE
8
Calque 1
62
4
5
257
100
AcDbEntity
100
AcDbLine
10
-263.200780
20
39.361887
30
0.0
11
-273.200780
21
39.361887
31
0.0
0
LINE
8
Calque 1
62
4
5
258
100
AcDbEntity
100
AcDbLine
10
-283.200771
20
39.361887
30
0.0
11
-293.200780
21
39.361887
31
0.0
0
LINE
8
Calque 1
62
4
5
259
100
AcDbEntity
100
AcDbLine
10
-293.200780
20
139.361885
30
0.0
11
-283.200771
21
139.361885
31
0.0
0
LINE
8
Calque 1
62
4
5
25a
100
AcDbEntity
100
AcDbLine
10
-273.200780
20
139.361885
30
0.0
11
-263.200780
21
139.361885
31
0.0
0
LINE
8
Calque 1
62
4
5
25b
100
AcDbEntity
100
AcDbLine
10
-253.200778
20
139.361885
30
0.0
11
-243.200778
21
139.361885
31
0.0
0
LINE
8
Calque 1
62
4
5
25c
100
AcDbEntity
100
AcDbLine
10
-233.200778
20
139.361885
30
0.0
11
-223.200778
21
139.361885
31
0.0
0
LINE
8
Calque 1
62
4
5
25d
100
AcDbEntity
100
AcDbLine
10
-213.200779
20
139.361885
30
0.0
11
-203.200779
21
139.361885
31
0.0
0
LINE
8
Calque 1
62
4
5
25e
100
AcDbEntity
100
AcDbLine
10
-203.200779
20
139.361885
30
0.0
11
-203.200779
21
136.361891
31
0.0
0
LINE
8
Calque 1
62
4
5
25f
100
AcDbEntity
100
AcDbLine
10
-203.200779
20
42.361881
30
0.0
11
-203.200779
21
39.361887
31
0.0
0
LINE
8
Calque 1
62
4
5
260
100
AcDbEntity
100
AcDbLine
10
-170.200777
20
254.861894
30
0.0
11
-173.200780
21
254.861894
31
0.0
0
LINE
8
Calque 1
62
4
5
261
100
AcDbEntity
100
AcDbLine
10
-173.200780
20
254.861894
30
0.0
11
-173.200780
21
267.861896
31
0.0
0
LINE
8
Calque 1
62
4
5
262
100
AcDbEntity
100
AcDbLine
10
-173.200780
20
267.861896
30
0.0
11
-170.200777
21
267.861896
31
0.0
0
LINE
8
Calque 1
62
4
5
263
100
AcDbEntity
100
AcDbLine
10
-170.200777
20
267.861896
30
0.0
11
-170.200777
21
254.861894
31
0.0
  0
ENDSEC
  0
SECTION
  2
OBJECTS
  0
DICTIONARY
  5
C
330
0
100
AcDbDictionary
  3
ACAD_GROUP
350
D
  3
ACAD_MLINESTYLE
350
17
  0
DICTIONARY
  5
D
330
C
100
AcDbDictionary
  0
DICTIONARY
  5
1A
330
C
100
AcDbDictionary
  0
DICTIONARY
  5
17
330
C
100
AcDbDictionary
  3
STANDARD
350
18
  0
DICTIONARY
  5
19
330
C
100
AcDbDictionary
  0
ENDSEC
  0
EOF
