999
Inkscape export via "Better DXF Output" (bob@bobcookdev.com)
  0
SECTION
  2
HEADER
  9
$ACADVER
  1
AC1014
  9
$HANDSEED
  5
FFFF
  0
ENDSEC
  0
SECTION
  2
TABLES
  0
TABLE
  2
VPORT
  5
8
330
0
100
AcDbSymbolTable
 70
     4
  0
VPORT
  5
2E
330
8
100
AcDbSymbolTableRecord
100
AcDbViewportTableRecord
  2
*ACTIVE
 70
     0
 10
0.0
 20
0.0
 11
1.0
 21
1.0
 12
4.25
 22
5.5
 13
0.0
 23
0.0
 14
10.0
 24
10.0
 15
10.0
 25
10.0
 16
0.0
 26
0.0
 36
1.0
 17
0.0
 27
0.0
 37
0.0
 40
11
 41
1.24
 42
50.0
 43
0.0
 44
0.0
 50
0.0
 51
0.0
 71
     0
 72
   100
 73
     1
 74
     3
 75
     0
 76
     0
 77
     0
 78
     0
  0
ENDTAB
  0
TABLE
  2
LTYPE
  5
5
330
0
100
AcDbSymbolTable
 70
     1
  0
LTYPE
  5
14
330
5
100
AcDbSymbolTableRecord
100
AcDbLinetypeTableRecord
  2
BYBLOCK
 70
     0
  3

 72
    65
 73
     0
 40
0.0
  0
LTYPE
  5
15
330
5
100
AcDbSymbolTableRecord
100
AcDbLinetypeTableRecord
  2
BYLAYER
 70
     0
  3

 72
    65
 73
     0
 40
0.0
  0
LTYPE
  5
16
330
5
100
AcDbSymbolTableRecord
100
AcDbLinetypeTableRecord
  2
CONTINUOUS
 70
     0
  3
Solid line
 72
    65
 73
     0
 40
0.0
  0
ENDTAB
  0
TABLE
  2
LAYER
  5
2
330
0
100
AcDbSymbolTable
 70
1
  0
LAYER
  5
10
330
2
100
AcDbSymbolTableRecord
100
AcDbLayerTableRecord
  2
0
 70
     0
 62
     7
  6
CONTINUOUS
  0
ENDTAB
  0
TABLE
  2
STYLE
  5
3
330
0
100
AcDbSymbolTable
 70
     1
  0
STYLE
  5
11
330
3
100
AcDbSymbolTableRecord
100
AcDbTextStyleTableRecord
  2
STANDARD
 70
     0
 40
0.0
 41
1.0
 50
0.0
 71
     0
 42
2.5
  3
txt
  4

  0
ENDTAB
  0
TABLE
  2
VIEW
  5
6
330
0
100
AcDbSymbolTable
 70
     0
  0
ENDTAB
  0
TABLE
  2
UCS
  5
7
330
0
100
AcDbSymbolTable
 70
     0
  0
ENDTAB
  0
TABLE
  2
APPID
  5
9
330
0
100
AcDbSymbolTable
 70
     2
  0
APPID
  5
12
330
9
100
AcDbSymbolTableRecord
100
AcDbRegAppTableRecord
  2
ACAD
 70
     0
  0
ENDTAB
  0
TABLE
  2
DIMSTYLE
  5
A
330
0
100
AcDbSymbolTable
 70
     1
  0
DIMSTYLE
105
27
330
A
100
AcDbSymbolTableRecord
100
AcDbDimStyleTableRecord
  2
ISO-25
 70
     0
  3

  4

  5

  6

  7

 40
1.0
 41
2.5
 42
0.625
 43
3.75
 44
1.25
 45
0.0
 46
0.0
 47
0.0
 48
0.0
140
2.5
141
2.5
142
0.0
143
0.03937007874016
144
1.0
145
0.0
146
1.0
147
0.625
 71
     0
 72
     0
 73
     0
 74
     0
 75
     0
 76
     0
 77
     1
 78
     8
170
     0
171
     3
172
     1
173
     0
174
     0
175
     0
176
     0
177
     0
178
     0
270
     2
271
     2
272
     2
273
     2
274
     3
340
11
275
     0
280
     0
281
     0
282
     0
283
     0
284
     8
285
     0
286
     0
287
     3
288
     0
  0
ENDTAB
  0
TABLE
  2
BLOCK_RECORD
  5
1
330
0
100
AcDbSymbolTable
 70
     1
  0
BLOCK_RECORD
  5
1F
330
1
100
AcDbSymbolTableRecord
100
AcDbBlockTableRecord
  2
*MODEL_SPACE
  0
BLOCK_RECORD
  5
1B
330
1
100
AcDbSymbolTableRecord
100
AcDbBlockTableRecord
  2
*PAPER_SPACE
  0
ENDTAB
  0
ENDSEC
  0
SECTION
  2
BLOCKS
  0
BLOCK
  5
20
330
1F
100
AcDbEntity
  8
0
100
AcDbBlockBegin
  2
*MODEL_SPACE
 70
     0
 10
0.0
 20
0.0
 30
0.0
  3
*MODEL_SPACE
  1

  0
ENDBLK
  5
21
330
1F
100
AcDbEntity
  8
0
100
AcDbBlockEnd
  0
BLOCK
  5
1C
330
1B
100
AcDbEntity
 67
     1
  8
0
100
AcDbBlockBegin
  2
*PAPER_SPACE
  1

  0
ENDBLK
  5
1D
330
1B
100
AcDbEntity
 67
     1
  8
0
100
AcDbBlockEnd
  0
ENDSEC
  0
SECTION
  2
ENTITIES
0
LINE
8
Calque 1
62
4
5
100
100
AcDbEntity
100
AcDbLine
10
-58.479097
20
325.361629
30
0.0
11
-58.479097
21
312.361629
31
0.0
0
LINE
8
Calque 1
62
4
5
101
100
AcDbEntity
100
AcDbLine
10
-58.479097
20
312.361629
30
0.0
11
-72.479098
21
312.361629
31
0.0
0
LINE
8
Calque 1
62
4
5
102
100
AcDbEntity
100
AcDbLine
10
-72.479098
20
312.361629
30
0.0
11
-72.479098
21
309.361630
31
0.0
0
LINE
8
Calque 1
62
4
5
103
100
AcDbEntity
100
AcDbLine
10
-72.479098
20
309.361630
30
0.0
11
-77.479088
21
309.361630
31
0.0
0
LINE
8
Calque 1
62
4
5
104
100
AcDbEntity
100
AcDbLine
10
-77.479088
20
309.361630
30
0.0
11
-77.479088
21
328.361628
31
0.0
0
LINE
8
Calque 1
62
4
5
105
100
AcDbEntity
100
AcDbLine
10
-77.479088
20
328.361628
30
0.0
11
-72.479098
21
328.361628
31
0.0
0
LINE
8
Calque 1
62
4
5
106
100
AcDbEntity
100
AcDbLine
10
-72.479098
20
328.361628
30
0.0
11
-72.479098
21
325.361629
31
0.0
0
LINE
8
Calque 1
62
4
5
107
100
AcDbEntity
100
AcDbLine
10
-72.479098
20
325.361629
30
0.0
11
-58.479097
21
325.361629
31
0.0
0
LINE
8
Calque 1
62
4
5
108
100
AcDbEntity
100
AcDbLine
10
-111.209949
20
325.773329
30
0.0
11
-111.209949
21
312.773329
31
0.0
0
LINE
8
Calque 1
62
4
5
109
100
AcDbEntity
100
AcDbLine
10
-111.209949
20
312.773329
30
0.0
11
-125.209949
21
312.773329
31
0.0
0
LINE
8
Calque 1
62
4
5
10a
100
AcDbEntity
100
AcDbLine
10
-125.209949
20
312.773329
30
0.0
11
-125.209949
21
325.773329
31
0.0
0
LINE
8
Calque 1
62
4
5
10b
100
AcDbEntity
100
AcDbLine
10
-125.209949
20
325.773329
30
0.0
11
-111.209949
21
325.773329
31
0.0
0
LINE
8
Calque 1
62
4
5
10c
100
AcDbEntity
100
AcDbLine
10
-356.495040
20
443.147130
30
0.0
11
-522.495018
21
443.147130
31
0.0
0
LINE
8
Calque 1
62
4
5
10d
100
AcDbEntity
100
AcDbLine
10
-522.495018
20
443.147130
30
0.0
11
-522.495018
21
453.147129
31
0.0
0
LINE
8
Calque 1
62
4
5
10e
100
AcDbEntity
100
AcDbLine
10
-522.495018
20
453.147129
30
0.0
11
-519.495024
21
453.147129
31
0.0
0
LINE
8
Calque 1
62
4
5
10f
100
AcDbEntity
100
AcDbLine
10
-519.495024
20
453.147129
30
0.0
11
-519.495024
21
463.147129
31
0.0
0
LINE
8
Calque 1
62
4
5
110
100
AcDbEntity
100
AcDbLine
10
-519.495024
20
463.147129
30
0.0
11
-522.495018
21
463.147129
31
0.0
0
LINE
8
Calque 1
62
4
5
111
100
AcDbEntity
100
AcDbLine
10
-522.495018
20
463.147129
30
0.0
11
-522.495018
21
473.147129
31
0.0
0
LINE
8
Calque 1
62
4
5
112
100
AcDbEntity
100
AcDbLine
10
-522.495018
20
473.147129
30
0.0
11
-519.495024
21
473.147129
31
0.0
0
LINE
8
Calque 1
62
4
5
113
100
AcDbEntity
100
AcDbLine
10
-519.495024
20
473.147129
30
0.0
11
-519.495024
21
483.147131
31
0.0
0
LINE
8
Calque 1
62
4
5
114
100
AcDbEntity
100
AcDbLine
10
-519.495024
20
483.147131
30
0.0
11
-522.495018
21
483.147131
31
0.0
0
LINE
8
Calque 1
62
4
5
115
100
AcDbEntity
100
AcDbLine
10
-522.495018
20
483.147131
30
0.0
11
-522.495018
21
493.147131
31
0.0
0
LINE
8
Calque 1
62
4
5
116
100
AcDbEntity
100
AcDbLine
10
-522.495018
20
493.147131
30
0.0
11
-519.495024
21
493.147131
31
0.0
0
LINE
8
Calque 1
62
4
5
117
100
AcDbEntity
100
AcDbLine
10
-519.495024
20
493.147131
30
0.0
11
-519.495024
21
503.147131
31
0.0
0
LINE
8
Calque 1
62
4
5
118
100
AcDbEntity
100
AcDbLine
10
-519.495024
20
503.147131
30
0.0
11
306.504989
21
503.147131
31
0.0
0
LINE
8
Calque 1
62
4
5
119
100
AcDbEntity
100
AcDbLine
10
306.504989
20
503.147131
30
0.0
11
306.504989
21
493.147131
31
0.0
0
LINE
8
Calque 1
62
4
5
11a
100
AcDbEntity
100
AcDbLine
10
306.504989
20
493.147131
30
0.0
11
309.504983
21
493.147131
31
0.0
0
LINE
8
Calque 1
62
4
5
11b
100
AcDbEntity
100
AcDbLine
10
309.504983
20
493.147131
30
0.0
11
309.504983
21
483.147131
31
0.0
0
LINE
8
Calque 1
62
4
5
11c
100
AcDbEntity
100
AcDbLine
10
309.504983
20
483.147131
30
0.0
11
306.504989
21
483.147131
31
0.0
0
LINE
8
Calque 1
62
4
5
11d
100
AcDbEntity
100
AcDbLine
10
306.504989
20
483.147131
30
0.0
11
306.504989
21
473.147129
31
0.0
0
LINE
8
Calque 1
62
4
5
11e
100
AcDbEntity
100
AcDbLine
10
306.504989
20
473.147129
30
0.0
11
309.504983
21
473.147129
31
0.0
0
LINE
8
Calque 1
62
4
5
11f
100
AcDbEntity
100
AcDbLine
10
309.504983
20
473.147129
30
0.0
11
309.504983
21
463.147129
31
0.0
0
LINE
8
Calque 1
62
4
5
120
100
AcDbEntity
100
AcDbLine
10
309.504983
20
463.147129
30
0.0
11
306.504989
21
463.147129
31
0.0
0
LINE
8
Calque 1
62
4
5
121
100
AcDbEntity
100
AcDbLine
10
306.504989
20
463.147129
30
0.0
11
306.504989
21
453.147129
31
0.0
0
LINE
8
Calque 1
62
4
5
122
100
AcDbEntity
100
AcDbLine
10
306.504989
20
453.147129
30
0.0
11
309.504983
21
453.147129
31
0.0
0
LINE
8
Calque 1
62
4
5
123
100
AcDbEntity
100
AcDbLine
10
309.504983
20
453.147129
30
0.0
11
309.504983
21
443.147130
31
0.0
0
LINE
8
Calque 1
62
4
5
124
100
AcDbEntity
100
AcDbLine
10
309.504983
20
443.147130
30
0.0
11
143.504976
21
443.147130
31
0.0
0
LINE
8
Calque 1
62
4
5
125
100
AcDbEntity
100
AcDbLine
10
143.504976
20
443.147130
30
0.0
11
143.504976
21
440.147130
31
0.0
0
LINE
8
Calque 1
62
4
5
126
100
AcDbEntity
100
AcDbLine
10
143.504976
20
440.147130
30
0.0
11
43.504979
21
440.147130
31
0.0
0
LINE
8
Calque 1
62
4
5
127
100
AcDbEntity
100
AcDbLine
10
43.504979
20
440.147130
30
0.0
11
43.504979
21
443.147130
31
0.0
0
LINE
8
Calque 1
62
4
5
128
100
AcDbEntity
100
AcDbLine
10
43.504979
20
443.147130
30
0.0
11
-56.495019
21
443.147130
31
0.0
0
LINE
8
Calque 1
62
4
5
129
100
AcDbEntity
100
AcDbLine
10
-56.495019
20
443.147130
30
0.0
11
-56.495019
21
440.147130
31
0.0
0
LINE
8
Calque 1
62
4
5
12a
100
AcDbEntity
100
AcDbLine
10
-56.495019
20
440.147130
30
0.0
11
-156.495016
21
440.147130
31
0.0
0
LINE
8
Calque 1
62
4
5
12b
100
AcDbEntity
100
AcDbLine
10
-156.495016
20
440.147130
30
0.0
11
-156.495016
21
443.147130
31
0.0
0
LINE
8
Calque 1
62
4
5
12c
100
AcDbEntity
100
AcDbLine
10
-156.495016
20
443.147130
30
0.0
11
-256.495014
21
443.147130
31
0.0
0
LINE
8
Calque 1
62
4
5
12d
100
AcDbEntity
100
AcDbLine
10
-256.495014
20
443.147130
30
0.0
11
-256.495014
21
440.147130
31
0.0
0
LINE
8
Calque 1
62
4
5
12e
100
AcDbEntity
100
AcDbLine
10
-256.495014
20
440.147130
30
0.0
11
-356.495040
21
440.147130
31
0.0
0
LINE
8
Calque 1
62
4
5
12f
100
AcDbEntity
100
AcDbLine
10
-356.495040
20
440.147130
30
0.0
11
-356.495040
21
443.147130
31
0.0
0
LINE
8
Calque 1
62
4
5
130
100
AcDbEntity
100
AcDbLine
10
298.049978
20
234.996430
30
0.0
11
168.049984
21
286.996430
31
0.0
0
LINE
8
Calque 1
62
4
5
131
100
AcDbEntity
100
AcDbLine
10
168.049984
20
286.996430
30
0.0
11
168.049984
21
288.996429
31
0.0
0
LINE
8
Calque 1
62
4
5
132
100
AcDbEntity
100
AcDbLine
10
168.049984
20
288.996429
30
0.0
11
186.049976
21
288.996429
31
0.0
0
LINE
8
Calque 1
62
4
5
133
100
AcDbEntity
100
AcDbLine
10
186.049976
20
288.996429
30
0.0
11
186.049976
21
291.996429
31
0.0
0
LINE
8
Calque 1
62
4
5
134
100
AcDbEntity
100
AcDbLine
10
186.049976
20
291.996429
30
0.0
11
168.049984
21
291.996429
31
0.0
0
LINE
8
Calque 1
62
4
5
135
100
AcDbEntity
100
AcDbLine
10
168.049984
20
291.996429
30
0.0
11
168.049984
21
300.996430
31
0.0
0
LINE
8
Calque 1
62
4
5
136
100
AcDbEntity
100
AcDbLine
10
168.049984
20
300.996430
30
0.0
11
309.049984
21
300.996430
31
0.0
0
LINE
8
Calque 1
62
4
5
137
100
AcDbEntity
100
AcDbLine
10
309.049984
20
300.996430
30
0.0
11
309.049984
21
240.996429
31
0.0
0
LINE
8
Calque 1
62
4
5
138
100
AcDbEntity
100
AcDbLine
10
309.049984
20
240.996429
30
0.0
11
304.049994
21
240.996429
31
0.0
0
LINE
8
Calque 1
62
4
5
139
100
AcDbEntity
100
AcDbLine
10
304.049994
20
240.996429
30
0.0
11
304.049994
21
270.996428
31
0.0
0
LINE
8
Calque 1
62
4
5
13a
100
AcDbEntity
100
AcDbLine
10
304.049994
20
270.996428
30
0.0
11
301.049972
21
270.996428
31
0.0
0
LINE
8
Calque 1
62
4
5
13b
100
AcDbEntity
100
AcDbLine
10
301.049972
20
270.996428
30
0.0
11
301.049972
21
240.996429
31
0.0
0
LINE
8
Calque 1
62
4
5
13c
100
AcDbEntity
100
AcDbLine
10
301.049972
20
240.996429
30
0.0
11
298.049978
21
240.996429
31
0.0
0
LINE
8
Calque 1
62
4
5
13d
100
AcDbEntity
100
AcDbLine
10
298.049978
20
240.996429
30
0.0
11
298.049978
21
234.996430
31
0.0
0
LINE
8
Calque 1
62
4
5
13e
100
AcDbEntity
100
AcDbLine
10
-86.144100
20
325.328428
30
0.0
11
-86.144100
21
312.328429
31
0.0
0
LINE
8
Calque 1
62
4
5
13f
100
AcDbEntity
100
AcDbLine
10
-86.144100
20
312.328429
30
0.0
11
-100.144100
21
312.328429
31
0.0
0
LINE
8
Calque 1
62
4
5
140
100
AcDbEntity
100
AcDbLine
10
-100.144100
20
312.328429
30
0.0
11
-100.144100
21
309.328429
31
0.0
0
LINE
8
Calque 1
62
4
5
141
100
AcDbEntity
100
AcDbLine
10
-100.144100
20
309.328429
30
0.0
11
-105.144118
21
309.328429
31
0.0
0
LINE
8
Calque 1
62
4
5
142
100
AcDbEntity
100
AcDbLine
10
-105.144118
20
309.328429
30
0.0
11
-105.144118
21
328.328431
31
0.0
0
LINE
8
Calque 1
62
4
5
143
100
AcDbEntity
100
AcDbLine
10
-105.144118
20
328.328431
30
0.0
11
-100.144100
21
328.328431
31
0.0
0
LINE
8
Calque 1
62
4
5
144
100
AcDbEntity
100
AcDbLine
10
-100.144100
20
328.328431
30
0.0
11
-100.144100
21
325.328428
31
0.0
0
LINE
8
Calque 1
62
4
5
145
100
AcDbEntity
100
AcDbLine
10
-100.144100
20
325.328428
30
0.0
11
-86.144100
21
325.328428
31
0.0
0
LINE
8
Calque 1
62
4
5
146
100
AcDbEntity
100
AcDbLine
10
-198.800833
20
181.019240
30
0.0
11
-198.800833
21
161.019223
31
0.0
0
LINE
8
Calque 1
62
4
5
147
100
AcDbEntity
100
AcDbLine
10
-198.800833
20
161.019223
30
0.0
11
-421.800838
21
161.019223
31
0.0
0
LINE
8
Calque 1
62
4
5
148
100
AcDbEntity
100
AcDbLine
10
-421.800838
20
161.019223
30
0.0
11
-421.800838
21
61.019226
31
0.0
0
LINE
8
Calque 1
62
4
5
149
100
AcDbEntity
100
AcDbLine
10
-421.800838
20
61.019226
30
0.0
11
-198.800833
21
61.019226
31
0.0
0
LINE
8
Calque 1
62
4
5
14a
100
AcDbEntity
100
AcDbLine
10
-198.800833
20
61.019226
30
0.0
11
-198.800833
21
21.019221
31
0.0
0
LINE
8
Calque 1
62
4
5
14b
100
AcDbEntity
100
AcDbLine
10
-198.800833
20
21.019221
30
0.0
11
-201.800855
21
21.019221
31
0.0
0
LINE
8
Calque 1
62
4
5
14c
100
AcDbEntity
100
AcDbLine
10
-201.800855
20
21.019221
30
0.0
11
-201.800855
21
-18.980770
31
0.0
0
LINE
8
Calque 1
62
4
5
14d
100
AcDbEntity
100
AcDbLine
10
-201.800855
20
-18.980770
30
0.0
11
-198.800833
21
-18.980770
31
0.0
0
LINE
8
Calque 1
62
4
5
14e
100
AcDbEntity
100
AcDbLine
10
-198.800833
20
-18.980770
30
0.0
11
-198.800833
21
-58.980746
31
0.0
0
LINE
8
Calque 1
62
4
5
14f
100
AcDbEntity
100
AcDbLine
10
-198.800833
20
-58.980746
30
0.0
11
-201.800855
21
-58.980746
31
0.0
0
LINE
8
Calque 1
62
4
5
150
100
AcDbEntity
100
AcDbLine
10
-201.800855
20
-58.980746
30
0.0
11
-201.800855
21
-78.980762
31
0.0
0
LINE
8
Calque 1
62
4
5
151
100
AcDbEntity
100
AcDbLine
10
-201.800855
20
-78.980762
30
0.0
11
-241.800860
21
-78.980762
31
0.0
0
LINE
8
Calque 1
62
4
5
152
100
AcDbEntity
100
AcDbLine
10
-241.800860
20
-78.980762
30
0.0
11
-241.800860
21
-81.980756
31
0.0
0
LINE
8
Calque 1
62
4
5
153
100
AcDbEntity
100
AcDbLine
10
-241.800860
20
-81.980756
30
0.0
11
-261.800848
21
-81.980756
31
0.0
0
LINE
8
Calque 1
62
4
5
154
100
AcDbEntity
100
AcDbLine
10
-261.800848
20
-81.980756
30
0.0
11
-261.800848
21
-78.980762
31
0.0
0
LINE
8
Calque 1
62
4
5
155
100
AcDbEntity
100
AcDbLine
10
-261.800848
20
-78.980762
30
0.0
11
-341.800857
21
-78.980762
31
0.0
0
LINE
8
Calque 1
62
4
5
156
100
AcDbEntity
100
AcDbLine
10
-341.800857
20
-78.980762
30
0.0
11
-341.800857
21
-81.980756
31
0.0
0
LINE
8
Calque 1
62
4
5
157
100
AcDbEntity
100
AcDbLine
10
-341.800857
20
-81.980756
30
0.0
11
-361.775558
21
-81.980756
31
0.0
0
LINE
8
Calque 1
62
4
5
158
100
AcDbEntity
100
AcDbLine
10
-361.775558
20
-81.980756
30
0.0
11
-361.775558
21
-78.980762
31
0.0
0
LINE
8
Calque 1
62
4
5
159
100
AcDbEntity
100
AcDbLine
10
-361.775558
20
-78.980762
30
0.0
11
-441.600844
21
-78.980762
31
0.0
0
LINE
8
Calque 1
62
4
5
15a
100
AcDbEntity
100
AcDbLine
10
-441.600844
20
-78.980762
30
0.0
11
-441.600844
21
-81.980756
31
0.0
0
LINE
8
Calque 1
62
4
5
15b
100
AcDbEntity
100
AcDbLine
10
-441.600844
20
-81.980756
30
0.0
11
-461.600832
21
-81.980756
31
0.0
0
LINE
8
Calque 1
62
4
5
15c
100
AcDbEntity
100
AcDbLine
10
-461.600832
20
-81.980756
30
0.0
11
-461.600832
21
-78.980762
31
0.0
0
LINE
8
Calque 1
62
4
5
15d
100
AcDbEntity
100
AcDbLine
10
-461.600832
20
-78.980762
30
0.0
11
-500.600839
21
-78.980762
31
0.0
0
LINE
8
Calque 1
62
4
5
15e
100
AcDbEntity
100
AcDbLine
10
-500.600839
20
-78.980762
30
0.0
11
-500.600839
21
421.019231
31
0.0
0
LINE
8
Calque 1
62
4
5
15f
100
AcDbEntity
100
AcDbLine
10
-500.600839
20
421.019231
30
0.0
11
-461.600832
21
421.019231
31
0.0
0
LINE
8
Calque 1
62
4
5
160
100
AcDbEntity
100
AcDbLine
10
-461.600832
20
421.019231
30
0.0
11
-461.600832
21
424.019231
31
0.0
0
LINE
8
Calque 1
62
4
5
161
100
AcDbEntity
100
AcDbLine
10
-461.600832
20
424.019231
30
0.0
11
-441.600844
21
424.019231
31
0.0
0
LINE
8
Calque 1
62
4
5
162
100
AcDbEntity
100
AcDbLine
10
-441.600844
20
424.019231
30
0.0
11
-441.600844
21
421.019231
31
0.0
0
LINE
8
Calque 1
62
4
5
163
100
AcDbEntity
100
AcDbLine
10
-441.600844
20
421.019231
30
0.0
11
-361.775558
21
421.019231
31
0.0
0
LINE
8
Calque 1
62
4
5
164
100
AcDbEntity
100
AcDbLine
10
-361.775558
20
421.019231
30
0.0
11
-361.775558
21
424.019231
31
0.0
0
LINE
8
Calque 1
62
4
5
165
100
AcDbEntity
100
AcDbLine
10
-361.775558
20
424.019231
30
0.0
11
-341.800857
21
424.019231
31
0.0
0
LINE
8
Calque 1
62
4
5
166
100
AcDbEntity
100
AcDbLine
10
-341.800857
20
424.019231
30
0.0
11
-341.800857
21
421.019231
31
0.0
0
LINE
8
Calque 1
62
4
5
167
100
AcDbEntity
100
AcDbLine
10
-341.800857
20
421.019231
30
0.0
11
-261.800848
21
421.019231
31
0.0
0
LINE
8
Calque 1
62
4
5
168
100
AcDbEntity
100
AcDbLine
10
-261.800848
20
421.019231
30
0.0
11
-261.800848
21
424.019231
31
0.0
0
LINE
8
Calque 1
62
4
5
169
100
AcDbEntity
100
AcDbLine
10
-261.800848
20
424.019231
30
0.0
11
-241.800860
21
424.019231
31
0.0
0
LINE
8
Calque 1
62
4
5
16a
100
AcDbEntity
100
AcDbLine
10
-241.800860
20
424.019231
30
0.0
11
-241.800860
21
421.019231
31
0.0
0
LINE
8
Calque 1
62
4
5
16b
100
AcDbEntity
100
AcDbLine
10
-241.800860
20
421.019231
30
0.0
11
-201.800855
21
421.019231
31
0.0
0
LINE
8
Calque 1
62
4
5
16c
100
AcDbEntity
100
AcDbLine
10
-201.800855
20
421.019231
30
0.0
11
-201.800855
21
401.019229
31
0.0
0
LINE
8
Calque 1
62
4
5
16d
100
AcDbEntity
100
AcDbLine
10
-201.800855
20
401.019229
30
0.0
11
-198.800833
21
401.019229
31
0.0
0
LINE
8
Calque 1
62
4
5
16e
100
AcDbEntity
100
AcDbLine
10
-198.800833
20
401.019229
30
0.0
11
-198.800833
21
361.019230
31
0.0
0
LINE
8
Calque 1
62
4
5
16f
100
AcDbEntity
100
AcDbLine
10
-198.800833
20
361.019230
30
0.0
11
-201.800855
21
361.019230
31
0.0
0
LINE
8
Calque 1
62
4
5
170
100
AcDbEntity
100
AcDbLine
10
-201.800855
20
361.019230
30
0.0
11
-201.800855
21
321.019231
31
0.0
0
LINE
8
Calque 1
62
4
5
171
100
AcDbEntity
100
AcDbLine
10
-201.800855
20
321.019231
30
0.0
11
-198.800833
21
321.019231
31
0.0
0
LINE
8
Calque 1
62
4
5
172
100
AcDbEntity
100
AcDbLine
10
-198.800833
20
321.019231
30
0.0
11
-198.800833
21
281.019229
31
0.0
0
LINE
8
Calque 1
62
4
5
173
100
AcDbEntity
100
AcDbLine
10
-198.800833
20
281.019229
30
0.0
11
-421.800838
21
281.019229
31
0.0
0
LINE
8
Calque 1
62
4
5
174
100
AcDbEntity
100
AcDbLine
10
-421.800838
20
281.019229
30
0.0
11
-421.800838
21
181.019240
31
0.0
0
LINE
8
Calque 1
62
4
5
175
100
AcDbEntity
100
AcDbLine
10
-421.800838
20
181.019240
30
0.0
11
-198.800833
21
181.019240
31
0.0
0
LINE
8
Calque 1
62
4
5
176
100
AcDbEntity
100
AcDbLine
10
0.119155
20
325.051328
30
0.0
11
0.119155
21
312.051329
31
0.0
0
LINE
8
Calque 1
62
4
5
177
100
AcDbEntity
100
AcDbLine
10
0.119155
20
312.051329
30
0.0
11
-13.880845
21
312.051329
31
0.0
0
LINE
8
Calque 1
62
4
5
178
100
AcDbEntity
100
AcDbLine
10
-13.880845
20
312.051329
30
0.0
11
-13.880845
21
309.051329
31
0.0
0
LINE
8
Calque 1
62
4
5
179
100
AcDbEntity
100
AcDbLine
10
-13.880845
20
309.051329
30
0.0
11
-18.880835
21
309.051329
31
0.0
0
LINE
8
Calque 1
62
4
5
17a
100
AcDbEntity
100
AcDbLine
10
-18.880835
20
309.051329
30
0.0
11
-18.880835
21
328.051331
31
0.0
0
LINE
8
Calque 1
62
4
5
17b
100
AcDbEntity
100
AcDbLine
10
-18.880835
20
328.051331
30
0.0
11
-13.880845
21
328.051331
31
0.0
0
LINE
8
Calque 1
62
4
5
17c
100
AcDbEntity
100
AcDbLine
10
-13.880845
20
328.051331
30
0.0
11
-13.880845
21
325.051328
31
0.0
0
LINE
8
Calque 1
62
4
5
17d
100
AcDbEntity
100
AcDbLine
10
-13.880845
20
325.051328
30
0.0
11
0.119155
21
325.051328
31
0.0
0
LINE
8
Calque 1
62
4
5
17e
100
AcDbEntity
100
AcDbLine
10
-524.134221
20
-76.085445
30
0.0
11
-534.134229
21
-76.085445
31
0.0
0
LINE
8
Calque 1
62
4
5
17f
100
AcDbEntity
100
AcDbLine
10
-534.134229
20
-76.085445
30
0.0
11
-534.134229
21
-79.085467
31
0.0
0
LINE
8
Calque 1
62
4
5
180
100
AcDbEntity
100
AcDbLine
10
-534.134229
20
-79.085467
30
0.0
11
-544.134209
21
-79.085467
31
0.0
0
LINE
8
Calque 1
62
4
5
181
100
AcDbEntity
100
AcDbLine
10
-544.134209
20
-79.085467
30
0.0
11
-544.134209
21
-76.085445
31
0.0
0
LINE
8
Calque 1
62
4
5
182
100
AcDbEntity
100
AcDbLine
10
-544.134209
20
-76.085445
30
0.0
11
-554.134218
21
-76.085445
31
0.0
0
LINE
8
Calque 1
62
4
5
183
100
AcDbEntity
100
AcDbLine
10
-554.134218
20
-76.085445
30
0.0
11
-554.134218
21
-79.085467
31
0.0
0
LINE
8
Calque 1
62
4
5
184
100
AcDbEntity
100
AcDbLine
10
-554.134218
20
-79.085467
30
0.0
11
-564.134226
21
-79.085467
31
0.0
0
LINE
8
Calque 1
62
4
5
185
100
AcDbEntity
100
AcDbLine
10
-564.134226
20
-79.085467
30
0.0
11
-564.134226
21
-76.085445
31
0.0
0
LINE
8
Calque 1
62
4
5
186
100
AcDbEntity
100
AcDbLine
10
-564.134226
20
-76.085445
30
0.0
11
-574.134206
21
-76.085445
31
0.0
0
LINE
8
Calque 1
62
4
5
187
100
AcDbEntity
100
AcDbLine
10
-574.134206
20
-76.085445
30
0.0
11
-574.134206
21
-79.085467
31
0.0
0
LINE
8
Calque 1
62
4
5
188
100
AcDbEntity
100
AcDbLine
10
-574.134206
20
-79.085467
30
0.0
11
-584.134214
21
-79.085467
31
0.0
0
LINE
8
Calque 1
62
4
5
189
100
AcDbEntity
100
AcDbLine
10
-584.134214
20
-79.085467
30
0.0
11
-584.134214
21
503.914530
31
0.0
0
LINE
8
Calque 1
62
4
5
18a
100
AcDbEntity
100
AcDbLine
10
-584.134214
20
503.914530
30
0.0
11
-574.134206
21
503.914530
31
0.0
0
LINE
8
Calque 1
62
4
5
18b
100
AcDbEntity
100
AcDbLine
10
-574.134206
20
503.914530
30
0.0
11
-574.134206
21
500.914530
31
0.0
0
LINE
8
Calque 1
62
4
5
18c
100
AcDbEntity
100
AcDbLine
10
-574.134206
20
500.914530
30
0.0
11
-564.134198
21
500.914530
31
0.0
0
LINE
8
Calque 1
62
4
5
18d
100
AcDbEntity
100
AcDbLine
10
-564.134198
20
500.914530
30
0.0
11
-564.134198
21
503.914530
31
0.0
0
LINE
8
Calque 1
62
4
5
18e
100
AcDbEntity
100
AcDbLine
10
-564.134198
20
503.914530
30
0.0
11
-554.134218
21
503.914530
31
0.0
0
LINE
8
Calque 1
62
4
5
18f
100
AcDbEntity
100
AcDbLine
10
-554.134218
20
503.914530
30
0.0
11
-554.134218
21
500.914530
31
0.0
0
LINE
8
Calque 1
62
4
5
190
100
AcDbEntity
100
AcDbLine
10
-554.134218
20
500.914530
30
0.0
11
-544.134209
21
500.914530
31
0.0
0
LINE
8
Calque 1
62
4
5
191
100
AcDbEntity
100
AcDbLine
10
-544.134209
20
500.914530
30
0.0
11
-544.134209
21
503.914530
31
0.0
0
LINE
8
Calque 1
62
4
5
192
100
AcDbEntity
100
AcDbLine
10
-544.134209
20
503.914530
30
0.0
11
-534.134201
21
503.914530
31
0.0
0
LINE
8
Calque 1
62
4
5
193
100
AcDbEntity
100
AcDbLine
10
-534.134201
20
503.914530
30
0.0
11
-534.134201
21
500.914530
31
0.0
0
LINE
8
Calque 1
62
4
5
194
100
AcDbEntity
100
AcDbLine
10
-534.134201
20
500.914530
30
0.0
11
-524.134221
21
500.914530
31
0.0
0
LINE
8
Calque 1
62
4
5
195
100
AcDbEntity
100
AcDbLine
10
-524.134221
20
500.914530
30
0.0
11
-524.134221
21
387.914530
31
0.0
0
LINE
8
Calque 1
62
4
5
196
100
AcDbEntity
100
AcDbLine
10
-524.134221
20
387.914530
30
0.0
11
-521.134227
21
387.914530
31
0.0
0
LINE
8
Calque 1
62
4
5
197
100
AcDbEntity
100
AcDbLine
10
-521.134227
20
387.914530
30
0.0
11
-521.134227
21
286.663529
31
0.0
0
LINE
8
Calque 1
62
4
5
198
100
AcDbEntity
100
AcDbLine
10
-521.134227
20
286.663529
30
0.0
11
-524.134221
21
286.663529
31
0.0
0
LINE
8
Calque 1
62
4
5
199
100
AcDbEntity
100
AcDbLine
10
-524.134221
20
286.663529
30
0.0
11
-524.134221
21
187.289032
31
0.0
0
LINE
8
Calque 1
62
4
5
19a
100
AcDbEntity
100
AcDbLine
10
-524.134221
20
187.289032
30
0.0
11
-521.134227
21
187.289032
31
0.0
0
LINE
8
Calque 1
62
4
5
19b
100
AcDbEntity
100
AcDbLine
10
-521.134227
20
187.289032
30
0.0
11
-521.134227
21
87.914524
31
0.0
0
LINE
8
Calque 1
62
4
5
19c
100
AcDbEntity
100
AcDbLine
10
-521.134227
20
87.914524
30
0.0
11
-524.134221
21
87.914524
31
0.0
0
LINE
8
Calque 1
62
4
5
19d
100
AcDbEntity
100
AcDbLine
10
-524.134221
20
87.914524
30
0.0
11
-524.134221
21
-76.085445
31
0.0
0
LINE
8
Calque 1
62
4
5
19e
100
AcDbEntity
100
AcDbLine
10
-29.419635
20
324.942831
30
0.0
11
-29.419635
21
311.942828
31
0.0
0
LINE
8
Calque 1
62
4
5
19f
100
AcDbEntity
100
AcDbLine
10
-29.419635
20
311.942828
30
0.0
11
-43.419635
21
311.942828
31
0.0
0
LINE
8
Calque 1
62
4
5
1a0
100
AcDbEntity
100
AcDbLine
10
-43.419635
20
311.942828
30
0.0
11
-43.419635
21
308.942829
31
0.0
0
LINE
8
Calque 1
62
4
5
1a1
100
AcDbEntity
100
AcDbLine
10
-43.419635
20
308.942829
30
0.0
11
-48.419625
21
308.942829
31
0.0
0
LINE
8
Calque 1
62
4
5
1a2
100
AcDbEntity
100
AcDbLine
10
-48.419625
20
308.942829
30
0.0
11
-48.419625
21
327.942830
31
0.0
0
LINE
8
Calque 1
62
4
5
1a3
100
AcDbEntity
100
AcDbLine
10
-48.419625
20
327.942830
30
0.0
11
-43.419635
21
327.942830
31
0.0
0
LINE
8
Calque 1
62
4
5
1a4
100
AcDbEntity
100
AcDbLine
10
-43.419635
20
327.942830
30
0.0
11
-43.419635
21
324.942831
31
0.0
0
LINE
8
Calque 1
62
4
5
1a5
100
AcDbEntity
100
AcDbLine
10
-43.419635
20
324.942831
30
0.0
11
-29.419635
21
324.942831
31
0.0
0
LINE
8
Calque 1
62
4
5
1a6
100
AcDbEntity
100
AcDbLine
10
-51.495706
20
288.350930
30
0.0
11
-181.495700
21
236.350930
31
0.0
0
LINE
8
Calque 1
62
4
5
1a7
100
AcDbEntity
100
AcDbLine
10
-181.495700
20
236.350930
30
0.0
11
-181.495700
21
242.350929
31
0.0
0
LINE
8
Calque 1
62
4
5
1a8
100
AcDbEntity
100
AcDbLine
10
-181.495700
20
242.350929
30
0.0
11
-184.495694
21
242.350929
31
0.0
0
LINE
8
Calque 1
62
4
5
1a9
100
AcDbEntity
100
AcDbLine
10
-184.495694
20
242.350929
30
0.0
11
-184.495694
21
272.350928
31
0.0
0
LINE
8
Calque 1
62
4
5
1aa
100
AcDbEntity
100
AcDbLine
10
-184.495694
20
272.350928
30
0.0
11
-187.495688
21
272.350928
31
0.0
0
LINE
8
Calque 1
62
4
5
1ab
100
AcDbEntity
100
AcDbLine
10
-187.495688
20
272.350928
30
0.0
11
-187.495688
21
242.350929
31
0.0
0
LINE
8
Calque 1
62
4
5
1ac
100
AcDbEntity
100
AcDbLine
10
-187.495688
20
242.350929
30
0.0
11
-192.495706
21
242.350929
31
0.0
0
LINE
8
Calque 1
62
4
5
1ad
100
AcDbEntity
100
AcDbLine
10
-192.495706
20
242.350929
30
0.0
11
-192.495706
21
302.350931
31
0.0
0
LINE
8
Calque 1
62
4
5
1ae
100
AcDbEntity
100
AcDbLine
10
-192.495706
20
302.350931
30
0.0
11
-51.495706
21
302.350931
31
0.0
0
LINE
8
Calque 1
62
4
5
1af
100
AcDbEntity
100
AcDbLine
10
-51.495706
20
302.350931
30
0.0
11
-51.495706
21
293.350929
31
0.0
0
LINE
8
Calque 1
62
4
5
1b0
100
AcDbEntity
100
AcDbLine
10
-51.495706
20
293.350929
30
0.0
11
-69.495698
21
293.350929
31
0.0
0
LINE
8
Calque 1
62
4
5
1b1
100
AcDbEntity
100
AcDbLine
10
-69.495698
20
293.350929
30
0.0
11
-69.495698
21
290.350929
31
0.0
0
LINE
8
Calque 1
62
4
5
1b2
100
AcDbEntity
100
AcDbLine
10
-69.495698
20
290.350929
30
0.0
11
-51.495706
21
290.350929
31
0.0
0
LINE
8
Calque 1
62
4
5
1b3
100
AcDbEntity
100
AcDbLine
10
-51.495706
20
290.350929
30
0.0
11
-51.495706
21
288.350930
31
0.0
0
LINE
8
Calque 1
62
4
5
1b4
100
AcDbEntity
100
AcDbLine
10
-93.446459
20
-78.980762
30
0.0
11
-193.446456
21
-78.980762
31
0.0
0
LINE
8
Calque 1
62
4
5
1b5
100
AcDbEntity
100
AcDbLine
10
-193.446456
20
-78.980762
30
0.0
11
-193.446456
21
-45.980744
31
0.0
0
LINE
8
Calque 1
62
4
5
1b6
100
AcDbEntity
100
AcDbLine
10
-193.446456
20
-45.980744
30
0.0
11
-196.446450
21
-45.980744
31
0.0
0
LINE
8
Calque 1
62
4
5
1b7
100
AcDbEntity
100
AcDbLine
10
-196.446450
20
-45.980744
30
0.0
11
-196.446450
21
-15.980747
31
0.0
0
LINE
8
Calque 1
62
4
5
1b8
100
AcDbEntity
100
AcDbLine
10
-196.446450
20
-15.980747
30
0.0
11
-193.446456
21
-15.980747
31
0.0
0
LINE
8
Calque 1
62
4
5
1b9
100
AcDbEntity
100
AcDbLine
10
-193.446456
20
-15.980747
30
0.0
11
-193.446456
21
14.019249
31
0.0
0
LINE
8
Calque 1
62
4
5
1ba
100
AcDbEntity
100
AcDbLine
10
-193.446456
20
14.019249
30
0.0
11
-196.446450
21
14.019249
31
0.0
0
LINE
8
Calque 1
62
4
5
1bb
100
AcDbEntity
100
AcDbLine
10
-196.446450
20
14.019249
30
0.0
11
-196.446450
21
44.019231
31
0.0
0
LINE
8
Calque 1
62
4
5
1bc
100
AcDbEntity
100
AcDbLine
10
-196.446450
20
44.019231
30
0.0
11
-193.446456
21
44.019231
31
0.0
0
LINE
8
Calque 1
62
4
5
1bd
100
AcDbEntity
100
AcDbLine
10
-193.446456
20
44.019231
30
0.0
11
-193.446456
21
74.019228
31
0.0
0
LINE
8
Calque 1
62
4
5
1be
100
AcDbEntity
100
AcDbLine
10
-193.446456
20
74.019228
30
0.0
11
-196.446450
21
74.019228
31
0.0
0
LINE
8
Calque 1
62
4
5
1bf
100
AcDbEntity
100
AcDbLine
10
-196.446450
20
74.019228
30
0.0
11
-196.446450
21
104.019224
31
0.0
0
LINE
8
Calque 1
62
4
5
1c0
100
AcDbEntity
100
AcDbLine
10
-196.446450
20
104.019224
30
0.0
11
-193.446456
21
104.019224
31
0.0
0
LINE
8
Calque 1
62
4
5
1c1
100
AcDbEntity
100
AcDbLine
10
-193.446456
20
104.019224
30
0.0
11
-193.446456
21
134.019221
31
0.0
0
LINE
8
Calque 1
62
4
5
1c2
100
AcDbEntity
100
AcDbLine
10
-193.446456
20
134.019221
30
0.0
11
-196.446450
21
134.019221
31
0.0
0
LINE
8
Calque 1
62
4
5
1c3
100
AcDbEntity
100
AcDbLine
10
-196.446450
20
134.019221
30
0.0
11
-196.446450
21
164.019217
31
0.0
0
LINE
8
Calque 1
62
4
5
1c4
100
AcDbEntity
100
AcDbLine
10
-196.446450
20
164.019217
30
0.0
11
-193.446456
21
164.019217
31
0.0
0
LINE
8
Calque 1
62
4
5
1c5
100
AcDbEntity
100
AcDbLine
10
-193.446456
20
164.019217
30
0.0
11
-193.446456
21
194.019242
31
0.0
0
LINE
8
Calque 1
62
4
5
1c6
100
AcDbEntity
100
AcDbLine
10
-193.446456
20
194.019242
30
0.0
11
-196.446450
21
194.019242
31
0.0
0
LINE
8
Calque 1
62
4
5
1c7
100
AcDbEntity
100
AcDbLine
10
-196.446450
20
194.019242
30
0.0
11
-196.446450
21
222.813924
31
0.0
0
LINE
8
Calque 1
62
4
5
1c8
100
AcDbEntity
100
AcDbLine
10
-196.446450
20
222.813924
30
0.0
11
-197.560636
21
225.599316
31
0.0
0
LINE
8
Calque 1
62
4
5
1c9
100
AcDbEntity
100
AcDbLine
10
-197.560636
20
225.599316
30
0.0
11
-165.935660
21
238.250029
31
0.0
0
LINE
8
Calque 1
62
4
5
1ca
100
AcDbEntity
100
AcDbLine
10
-165.935660
20
238.250029
30
0.0
11
-164.821447
21
235.464529
31
0.0
0
LINE
8
Calque 1
62
4
5
1cb
100
AcDbEntity
100
AcDbLine
10
-164.821447
20
235.464529
30
0.0
11
-133.196443
21
248.115231
31
0.0
0
LINE
8
Calque 1
62
4
5
1cc
100
AcDbEntity
100
AcDbLine
10
-133.196443
20
248.115231
30
0.0
11
-134.310656
21
250.900628
31
0.0
0
LINE
8
Calque 1
62
4
5
1cd
100
AcDbEntity
100
AcDbLine
10
-134.310656
20
250.900628
30
0.0
11
-102.685652
21
263.551330
31
0.0
0
LINE
8
Calque 1
62
4
5
1ce
100
AcDbEntity
100
AcDbLine
10
-102.685652
20
263.551330
30
0.0
11
-101.571439
21
260.765929
31
0.0
0
LINE
8
Calque 1
62
4
5
1cf
100
AcDbEntity
100
AcDbLine
10
-101.571439
20
260.765929
30
0.0
11
-69.946435
21
273.416631
31
0.0
0
LINE
8
Calque 1
62
4
5
1d0
100
AcDbEntity
100
AcDbLine
10
-69.946435
20
273.416631
30
0.0
11
-71.060649
21
276.202028
31
0.0
0
LINE
8
Calque 1
62
4
5
1d1
100
AcDbEntity
100
AcDbLine
10
-71.060649
20
276.202028
30
0.0
11
-39.435645
21
288.852628
31
0.0
0
LINE
8
Calque 1
62
4
5
1d2
100
AcDbEntity
100
AcDbLine
10
-39.435645
20
288.852628
30
0.0
11
-38.321460
21
286.067230
31
0.0
0
LINE
8
Calque 1
62
4
5
1d3
100
AcDbEntity
100
AcDbLine
10
-38.321460
20
286.067230
30
0.0
11
-6.696455
21
298.717929
31
0.0
0
LINE
8
Calque 1
62
4
5
1d4
100
AcDbEntity
100
AcDbLine
10
-6.696455
20
298.717929
30
0.0
11
-7.810640
21
301.503330
31
0.0
0
LINE
8
Calque 1
62
4
5
1d5
100
AcDbEntity
100
AcDbLine
10
-7.810640
20
301.503330
30
0.0
11
23.814364
21
314.154028
31
0.0
0
LINE
8
Calque 1
62
4
5
1d6
100
AcDbEntity
100
AcDbLine
10
23.814364
20
314.154028
30
0.0
11
24.928549
21
311.368630
31
0.0
0
LINE
8
Calque 1
62
4
5
1d7
100
AcDbEntity
100
AcDbLine
10
24.928549
20
311.368630
30
0.0
11
56.553552
21
324.019230
31
0.0
0
LINE
8
Calque 1
62
4
5
1d8
100
AcDbEntity
100
AcDbLine
10
56.553552
20
324.019230
30
0.0
11
88.178555
21
311.370931
31
0.0
0
LINE
8
Calque 1
62
4
5
1d9
100
AcDbEntity
100
AcDbLine
10
88.178555
20
311.370931
30
0.0
11
89.292656
21
314.156328
31
0.0
0
LINE
8
Calque 1
62
4
5
1da
100
AcDbEntity
100
AcDbLine
10
89.292656
20
314.156328
30
0.0
11
120.917660
21
301.508029
31
0.0
0
LINE
8
Calque 1
62
4
5
1db
100
AcDbEntity
100
AcDbLine
10
120.917660
20
301.508029
30
0.0
11
119.803559
21
298.722529
31
0.0
0
LINE
8
Calque 1
62
4
5
1dc
100
AcDbEntity
100
AcDbLine
10
119.803559
20
298.722529
30
0.0
11
151.428563
21
286.074230
31
0.0
0
LINE
8
Calque 1
62
4
5
1dd
100
AcDbEntity
100
AcDbLine
10
151.428563
20
286.074230
30
0.0
11
152.542663
21
288.859630
31
0.0
0
LINE
8
Calque 1
62
4
5
1de
100
AcDbEntity
100
AcDbLine
10
152.542663
20
288.859630
30
0.0
11
184.167667
21
276.211229
31
0.0
0
LINE
8
Calque 1
62
4
5
1df
100
AcDbEntity
100
AcDbLine
10
184.167667
20
276.211229
30
0.0
11
183.053567
21
273.425828
31
0.0
0
LINE
8
Calque 1
62
4
5
1e0
100
AcDbEntity
100
AcDbLine
10
183.053567
20
273.425828
30
0.0
11
214.678542
21
260.777430
31
0.0
0
LINE
8
Calque 1
62
4
5
1e1
100
AcDbEntity
100
AcDbLine
10
214.678542
20
260.777430
30
0.0
11
215.792671
21
263.562929
31
0.0
0
LINE
8
Calque 1
62
4
5
1e2
100
AcDbEntity
100
AcDbLine
10
215.792671
20
263.562929
30
0.0
11
247.417646
21
250.914528
31
0.0
0
LINE
8
Calque 1
62
4
5
1e3
100
AcDbEntity
100
AcDbLine
10
247.417646
20
250.914528
30
0.0
11
246.303546
21
248.129130
31
0.0
0
LINE
8
Calque 1
62
4
5
1e4
100
AcDbEntity
100
AcDbLine
10
246.303546
20
248.129130
30
0.0
11
277.928550
21
235.480729
31
0.0
0
LINE
8
Calque 1
62
4
5
1e5
100
AcDbEntity
100
AcDbLine
10
277.928550
20
235.480729
30
0.0
11
279.042650
21
238.266228
31
0.0
0
LINE
8
Calque 1
62
4
5
1e6
100
AcDbEntity
100
AcDbLine
10
279.042650
20
238.266228
30
0.0
11
309.553554
21
226.063430
31
0.0
0
LINE
8
Calque 1
62
4
5
1e7
100
AcDbEntity
100
AcDbLine
10
309.553554
20
226.063430
30
0.0
11
309.553554
21
222.832437
31
0.0
0
LINE
8
Calque 1
62
4
5
1e8
100
AcDbEntity
100
AcDbLine
10
309.553554
20
222.832437
30
0.0
11
309.553554
21
194.019242
31
0.0
0
LINE
8
Calque 1
62
4
5
1e9
100
AcDbEntity
100
AcDbLine
10
309.553554
20
194.019242
30
0.0
11
306.553560
21
194.019242
31
0.0
0
LINE
8
Calque 1
62
4
5
1ea
100
AcDbEntity
100
AcDbLine
10
306.553560
20
194.019242
30
0.0
11
306.553560
21
164.019217
31
0.0
0
LINE
8
Calque 1
62
4
5
1eb
100
AcDbEntity
100
AcDbLine
10
306.553560
20
164.019217
30
0.0
11
309.553554
21
164.019217
31
0.0
0
LINE
8
Calque 1
62
4
5
1ec
100
AcDbEntity
100
AcDbLine
10
309.553554
20
164.019217
30
0.0
11
309.553554
21
134.019221
31
0.0
0
LINE
8
Calque 1
62
4
5
1ed
100
AcDbEntity
100
AcDbLine
10
309.553554
20
134.019221
30
0.0
11
306.553560
21
134.019221
31
0.0
0
LINE
8
Calque 1
62
4
5
1ee
100
AcDbEntity
100
AcDbLine
10
306.553560
20
134.019221
30
0.0
11
306.553560
21
104.019224
31
0.0
0
LINE
8
Calque 1
62
4
5
1ef
100
AcDbEntity
100
AcDbLine
10
306.553560
20
104.019224
30
0.0
11
309.553554
21
104.019224
31
0.0
0
LINE
8
Calque 1
62
4
5
1f0
100
AcDbEntity
100
AcDbLine
10
309.553554
20
104.019224
30
0.0
11
309.553554
21
74.019228
31
0.0
0
LINE
8
Calque 1
62
4
5
1f1
100
AcDbEntity
100
AcDbLine
10
309.553554
20
74.019228
30
0.0
11
306.553560
21
74.019228
31
0.0
0
LINE
8
Calque 1
62
4
5
1f2
100
AcDbEntity
100
AcDbLine
10
306.553560
20
74.019228
30
0.0
11
306.553560
21
44.019231
31
0.0
0
LINE
8
Calque 1
62
4
5
1f3
100
AcDbEntity
100
AcDbLine
10
306.553560
20
44.019231
30
0.0
11
309.553554
21
44.019231
31
0.0
0
LINE
8
Calque 1
62
4
5
1f4
100
AcDbEntity
100
AcDbLine
10
309.553554
20
44.019231
30
0.0
11
309.553554
21
14.019249
31
0.0
0
LINE
8
Calque 1
62
4
5
1f5
100
AcDbEntity
100
AcDbLine
10
309.553554
20
14.019249
30
0.0
11
306.553560
21
14.019249
31
0.0
0
LINE
8
Calque 1
62
4
5
1f6
100
AcDbEntity
100
AcDbLine
10
306.553560
20
14.019249
30
0.0
11
306.553560
21
-15.980747
31
0.0
0
LINE
8
Calque 1
62
4
5
1f7
100
AcDbEntity
100
AcDbLine
10
306.553560
20
-15.980747
30
0.0
11
309.553554
21
-15.980747
31
0.0
0
LINE
8
Calque 1
62
4
5
1f8
100
AcDbEntity
100
AcDbLine
10
309.553554
20
-15.980747
30
0.0
11
309.553554
21
-45.980744
31
0.0
0
LINE
8
Calque 1
62
4
5
1f9
100
AcDbEntity
100
AcDbLine
10
309.553554
20
-45.980744
30
0.0
11
306.553560
21
-45.980744
31
0.0
0
LINE
8
Calque 1
62
4
5
1fa
100
AcDbEntity
100
AcDbLine
10
306.553560
20
-45.980744
30
0.0
11
306.553560
21
-78.980762
31
0.0
0
LINE
8
Calque 1
62
4
5
1fb
100
AcDbEntity
100
AcDbLine
10
306.553560
20
-78.980762
30
0.0
11
206.553562
21
-78.980762
31
0.0
0
LINE
8
Calque 1
62
4
5
1fc
100
AcDbEntity
100
AcDbLine
10
206.553562
20
-78.980762
30
0.0
11
206.553562
21
-75.980768
31
0.0
0
LINE
8
Calque 1
62
4
5
1fd
100
AcDbEntity
100
AcDbLine
10
206.553562
20
-75.980768
30
0.0
11
106.553564
21
-75.980768
31
0.0
0
LINE
8
Calque 1
62
4
5
1fe
100
AcDbEntity
100
AcDbLine
10
106.553564
20
-75.980768
30
0.0
11
106.553564
21
-78.980762
31
0.0
0
LINE
8
Calque 1
62
4
5
1ff
100
AcDbEntity
100
AcDbLine
10
106.553564
20
-78.980762
30
0.0
11
6.553568
21
-78.980762
31
0.0
0
LINE
8
Calque 1
62
4
5
200
100
AcDbEntity
100
AcDbLine
10
6.553568
20
-78.980762
30
0.0
11
6.553568
21
-75.980768
31
0.0
0
LINE
8
Calque 1
62
4
5
201
100
AcDbEntity
100
AcDbLine
10
6.553568
20
-75.980768
30
0.0
11
-93.446459
21
-75.980768
31
0.0
0
LINE
8
Calque 1
62
4
5
202
100
AcDbEntity
100
AcDbLine
10
-93.446459
20
-75.980768
30
0.0
11
-93.446459
21
-78.980762
31
0.0
0
LINE
8
Calque 1
62
4
5
203
100
AcDbEntity
100
AcDbLine
10
-589.056734
20
511.121029
30
0.0
11
310.943272
21
511.121029
31
0.0
0
LINE
8
Calque 1
62
4
5
204
100
AcDbEntity
100
AcDbLine
10
310.943272
20
511.121029
30
0.0
11
310.943272
21
-88.878945
31
0.0
0
LINE
8
Calque 1
62
4
5
205
100
AcDbEntity
100
AcDbLine
10
310.943272
20
-88.878945
30
0.0
11
-589.056734
21
-88.878945
31
0.0
0
LINE
8
Calque 1
62
4
5
206
100
AcDbEntity
100
AcDbLine
10
-589.056734
20
-88.878945
30
0.0
11
-589.056734
21
511.121029
31
0.0
0
LINE
8
Calque 1
62
4
5
207
100
AcDbEntity
100
AcDbLine
10
-63.479087
20
317.361631
30
0.0
11
-63.141973
21
317.800929
31
0.0
0
LINE
8
Calque 1
62
4
5
208
100
AcDbEntity
100
AcDbLine
10
-63.141973
20
317.800929
30
0.0
11
-62.930052
21
318.312629
31
0.0
0
LINE
8
Calque 1
62
4
5
209
100
AcDbEntity
100
AcDbLine
10
-62.930052
20
318.312629
30
0.0
11
-62.857747
21
318.861630
31
0.0
0
LINE
8
Calque 1
62
4
5
20a
100
AcDbEntity
100
AcDbLine
10
-62.857747
20
318.861630
30
0.0
11
-62.930052
21
319.410629
31
0.0
0
LINE
8
Calque 1
62
4
5
20b
100
AcDbEntity
100
AcDbLine
10
-62.930052
20
319.410629
30
0.0
11
-63.141973
21
319.922329
31
0.0
0
LINE
8
Calque 1
62
4
5
20c
100
AcDbEntity
100
AcDbLine
10
-63.141973
20
319.922329
30
0.0
11
-63.479087
21
320.361630
31
0.0
0
LINE
8
Calque 1
62
4
5
20d
100
AcDbEntity
100
AcDbLine
10
-63.479087
20
320.361630
30
0.0
11
-63.918423
21
320.698731
31
0.0
0
LINE
8
Calque 1
62
4
5
20e
100
AcDbEntity
100
AcDbLine
10
-63.918423
20
320.698731
30
0.0
11
-64.430035
21
320.910629
31
0.0
0
LINE
8
Calque 1
62
4
5
20f
100
AcDbEntity
100
AcDbLine
10
-64.430035
20
320.910629
30
0.0
11
-64.979098
21
320.982629
31
0.0
0
LINE
8
Calque 1
62
4
5
210
100
AcDbEntity
100
AcDbLine
10
-64.979098
20
320.982629
30
0.0
11
-65.528134
21
320.910629
31
0.0
0
LINE
8
Calque 1
62
4
5
211
100
AcDbEntity
100
AcDbLine
10
-65.528134
20
320.910629
30
0.0
11
-66.039746
21
320.698731
31
0.0
0
LINE
8
Calque 1
62
4
5
212
100
AcDbEntity
100
AcDbLine
10
-66.039746
20
320.698731
30
0.0
11
-66.479081
21
320.361630
31
0.0
0
LINE
8
Calque 1
62
4
5
213
100
AcDbEntity
100
AcDbLine
10
-66.479081
20
320.361630
30
0.0
11
-66.816196
21
319.922329
31
0.0
0
LINE
8
Calque 1
62
4
5
214
100
AcDbEntity
100
AcDbLine
10
-66.816196
20
319.922329
30
0.0
11
-67.028116
21
319.410629
31
0.0
0
LINE
8
Calque 1
62
4
5
215
100
AcDbEntity
100
AcDbLine
10
-67.028116
20
319.410629
30
0.0
11
-67.100422
21
318.861630
31
0.0
0
LINE
8
Calque 1
62
4
5
216
100
AcDbEntity
100
AcDbLine
10
-67.100422
20
318.861630
30
0.0
11
-67.028116
21
318.312629
31
0.0
0
LINE
8
Calque 1
62
4
5
217
100
AcDbEntity
100
AcDbLine
10
-67.028116
20
318.312629
30
0.0
11
-66.816196
21
317.800929
31
0.0
0
LINE
8
Calque 1
62
4
5
218
100
AcDbEntity
100
AcDbLine
10
-66.816196
20
317.800929
30
0.0
11
-66.479081
21
317.361631
31
0.0
0
LINE
8
Calque 1
62
4
5
219
100
AcDbEntity
100
AcDbLine
10
-66.479081
20
317.361631
30
0.0
11
-66.039746
21
317.024530
31
0.0
0
LINE
8
Calque 1
62
4
5
21a
100
AcDbEntity
100
AcDbLine
10
-66.039746
20
317.024530
30
0.0
11
-65.528134
21
316.812629
31
0.0
0
LINE
8
Calque 1
62
4
5
21b
100
AcDbEntity
100
AcDbLine
10
-65.528134
20
316.812629
30
0.0
11
-64.979098
21
316.740629
31
0.0
0
LINE
8
Calque 1
62
4
5
21c
100
AcDbEntity
100
AcDbLine
10
-64.979098
20
316.740629
30
0.0
11
-64.430035
21
316.812629
31
0.0
0
LINE
8
Calque 1
62
4
5
21d
100
AcDbEntity
100
AcDbLine
10
-64.430035
20
316.812629
30
0.0
11
-63.918423
21
317.024530
31
0.0
0
LINE
8
Calque 1
62
4
5
21e
100
AcDbEntity
100
AcDbLine
10
-63.918423
20
317.024530
30
0.0
11
-63.479087
21
317.361631
31
0.0
0
LINE
8
Calque 1
62
4
5
21f
100
AcDbEntity
100
AcDbLine
10
-116.872822
20
320.334029
30
0.0
11
-117.209937
21
320.773330
31
0.0
0
LINE
8
Calque 1
62
4
5
220
100
AcDbEntity
100
AcDbLine
10
-117.209937
20
320.773330
30
0.0
11
-117.649272
21
321.110529
31
0.0
0
LINE
8
Calque 1
62
4
5
221
100
AcDbEntity
100
AcDbLine
10
-117.649272
20
321.110529
30
0.0
11
-118.160913
21
321.322430
31
0.0
0
LINE
8
Calque 1
62
4
5
222
100
AcDbEntity
100
AcDbLine
10
-118.160913
20
321.322430
30
0.0
11
-118.709948
21
321.394428
31
0.0
0
LINE
8
Calque 1
62
4
5
223
100
AcDbEntity
100
AcDbLine
10
-118.709948
20
321.394428
30
0.0
11
-119.258983
21
321.322430
31
0.0
0
LINE
8
Calque 1
62
4
5
224
100
AcDbEntity
100
AcDbLine
10
-119.258983
20
321.322430
30
0.0
11
-119.770596
21
321.110529
31
0.0
0
LINE
8
Calque 1
62
4
5
225
100
AcDbEntity
100
AcDbLine
10
-119.770596
20
321.110529
30
0.0
11
-120.209959
21
320.773330
31
0.0
0
LINE
8
Calque 1
62
4
5
226
100
AcDbEntity
100
AcDbLine
10
-120.209959
20
320.773330
30
0.0
11
-120.547074
21
320.334029
31
0.0
0
LINE
8
Calque 1
62
4
5
227
100
AcDbEntity
100
AcDbLine
10
-120.547074
20
320.334029
30
0.0
11
-120.758994
21
319.822431
31
0.0
0
LINE
8
Calque 1
62
4
5
228
100
AcDbEntity
100
AcDbLine
10
-120.758994
20
319.822431
30
0.0
11
-120.831300
21
319.273331
31
0.0
0
LINE
8
Calque 1
62
4
5
229
100
AcDbEntity
100
AcDbLine
10
-120.831300
20
319.273331
30
0.0
11
-120.758994
21
318.724329
31
0.0
0
LINE
8
Calque 1
62
4
5
22a
100
AcDbEntity
100
AcDbLine
10
-120.758994
20
318.724329
30
0.0
11
-120.547074
21
318.212728
31
0.0
0
LINE
8
Calque 1
62
4
5
22b
100
AcDbEntity
100
AcDbLine
10
-120.547074
20
318.212728
30
0.0
11
-120.209959
21
317.773331
31
0.0
0
LINE
8
Calque 1
62
4
5
22c
100
AcDbEntity
100
AcDbLine
10
-120.209959
20
317.773331
30
0.0
11
-119.770596
21
317.436230
31
0.0
0
LINE
8
Calque 1
62
4
5
22d
100
AcDbEntity
100
AcDbLine
10
-119.770596
20
317.436230
30
0.0
11
-119.258983
21
317.224329
31
0.0
0
LINE
8
Calque 1
62
4
5
22e
100
AcDbEntity
100
AcDbLine
10
-119.258983
20
317.224329
30
0.0
11
-118.709948
21
317.152329
31
0.0
0
LINE
8
Calque 1
62
4
5
22f
100
AcDbEntity
100
AcDbLine
10
-118.709948
20
317.152329
30
0.0
11
-118.160913
21
317.224329
31
0.0
0
LINE
8
Calque 1
62
4
5
230
100
AcDbEntity
100
AcDbLine
10
-118.160913
20
317.224329
30
0.0
11
-117.649272
21
317.436230
31
0.0
0
LINE
8
Calque 1
62
4
5
231
100
AcDbEntity
100
AcDbLine
10
-117.649272
20
317.436230
30
0.0
11
-117.209937
21
317.773331
31
0.0
0
LINE
8
Calque 1
62
4
5
232
100
AcDbEntity
100
AcDbLine
10
-117.209937
20
317.773331
30
0.0
11
-116.872822
21
318.212728
31
0.0
0
LINE
8
Calque 1
62
4
5
233
100
AcDbEntity
100
AcDbLine
10
-116.872822
20
318.212728
30
0.0
11
-116.660902
21
318.724329
31
0.0
0
LINE
8
Calque 1
62
4
5
234
100
AcDbEntity
100
AcDbLine
10
-116.660902
20
318.724329
30
0.0
11
-116.588596
21
319.273331
31
0.0
0
LINE
8
Calque 1
62
4
5
235
100
AcDbEntity
100
AcDbLine
10
-116.588596
20
319.273331
30
0.0
11
-116.660902
21
319.822431
31
0.0
0
LINE
8
Calque 1
62
4
5
236
100
AcDbEntity
100
AcDbLine
10
-116.660902
20
319.822431
30
0.0
11
-116.872822
21
320.334029
31
0.0
0
LINE
8
Calque 1
62
4
5
237
100
AcDbEntity
100
AcDbLine
10
269.049980
20
252.996430
30
0.0
11
289.049996
21
252.996430
31
0.0
0
LINE
8
Calque 1
62
4
5
238
100
AcDbEntity
100
AcDbLine
10
289.049996
20
252.996430
30
0.0
11
289.049996
21
255.996430
31
0.0
0
LINE
8
Calque 1
62
4
5
239
100
AcDbEntity
100
AcDbLine
10
289.049996
20
255.996430
30
0.0
11
269.049980
21
255.996430
31
0.0
0
LINE
8
Calque 1
62
4
5
23a
100
AcDbEntity
100
AcDbLine
10
269.049980
20
255.996430
30
0.0
11
269.049980
21
252.996430
31
0.0
0
LINE
8
Calque 1
62
4
5
23b
100
AcDbEntity
100
AcDbLine
10
234.049993
20
270.996428
30
0.0
11
234.049993
21
273.996428
31
0.0
0
LINE
8
Calque 1
62
4
5
23c
100
AcDbEntity
100
AcDbLine
10
234.049993
20
273.996428
30
0.0
11
231.049971
21
273.996428
31
0.0
0
LINE
8
Calque 1
62
4
5
23d
100
AcDbEntity
100
AcDbLine
10
231.049971
20
273.996428
30
0.0
11
231.049971
21
270.996428
31
0.0
0
LINE
8
Calque 1
62
4
5
23e
100
AcDbEntity
100
AcDbLine
10
231.049971
20
270.996428
30
0.0
11
234.049993
21
270.996428
31
0.0
0
LINE
8
Calque 1
62
4
5
23f
100
AcDbEntity
100
AcDbLine
10
209.049987
20
276.996430
30
0.0
11
229.049975
21
276.996430
31
0.0
0
LINE
8
Calque 1
62
4
5
240
100
AcDbEntity
100
AcDbLine
10
229.049975
20
276.996430
30
0.0
11
229.049975
21
279.996430
31
0.0
0
LINE
8
Calque 1
62
4
5
241
100
AcDbEntity
100
AcDbLine
10
229.049975
20
279.996430
30
0.0
11
209.049987
21
279.996430
31
0.0
0
LINE
8
Calque 1
62
4
5
242
100
AcDbEntity
100
AcDbLine
10
209.049987
20
279.996430
30
0.0
11
209.049987
21
276.996430
31
0.0
0
LINE
8
Calque 1
62
4
5
243
100
AcDbEntity
100
AcDbLine
10
201.049975
20
285.996429
30
0.0
11
201.049975
21
282.996430
31
0.0
0
LINE
8
Calque 1
62
4
5
244
100
AcDbEntity
100
AcDbLine
10
201.049975
20
282.996430
30
0.0
11
204.049997
21
282.996430
31
0.0
0
LINE
8
Calque 1
62
4
5
245
100
AcDbEntity
100
AcDbLine
10
204.049997
20
282.996430
30
0.0
11
204.049997
21
285.996429
31
0.0
0
LINE
8
Calque 1
62
4
5
246
100
AcDbEntity
100
AcDbLine
10
204.049997
20
285.996429
30
0.0
11
201.049975
21
285.996429
31
0.0
0
LINE
8
Calque 1
62
4
5
247
100
AcDbEntity
100
AcDbLine
10
239.049983
20
264.996429
30
0.0
11
259.049972
21
264.996429
31
0.0
0
LINE
8
Calque 1
62
4
5
248
100
AcDbEntity
100
AcDbLine
10
259.049972
20
264.996429
30
0.0
11
259.049972
21
267.996429
31
0.0
0
LINE
8
Calque 1
62
4
5
249
100
AcDbEntity
100
AcDbLine
10
259.049972
20
267.996429
30
0.0
11
239.049983
21
267.996429
31
0.0
0
LINE
8
Calque 1
62
4
5
24a
100
AcDbEntity
100
AcDbLine
10
239.049983
20
267.996429
30
0.0
11
239.049983
21
264.996429
31
0.0
0
LINE
8
Calque 1
62
4
5
24b
100
AcDbEntity
100
AcDbLine
10
264.049990
20
258.996430
30
0.0
11
264.049990
21
261.996429
31
0.0
0
LINE
8
Calque 1
62
4
5
24c
100
AcDbEntity
100
AcDbLine
10
264.049990
20
261.996429
30
0.0
11
261.049996
21
261.996429
31
0.0
0
LINE
8
Calque 1
62
4
5
24d
100
AcDbEntity
100
AcDbLine
10
261.049996
20
261.996429
30
0.0
11
261.049996
21
258.996430
31
0.0
0
LINE
8
Calque 1
62
4
5
24e
100
AcDbEntity
100
AcDbLine
10
261.049996
20
258.996430
30
0.0
11
264.049990
21
258.996430
31
0.0
0
LINE
8
Calque 1
62
4
5
24f
100
AcDbEntity
100
AcDbLine
10
291.049992
20
243.996429
30
0.0
11
294.049986
21
243.996429
31
0.0
0
LINE
8
Calque 1
62
4
5
250
100
AcDbEntity
100
AcDbLine
10
294.049986
20
243.996429
30
0.0
11
294.049986
21
249.996428
31
0.0
0
LINE
8
Calque 1
62
4
5
251
100
AcDbEntity
100
AcDbLine
10
294.049986
20
249.996428
30
0.0
11
291.049992
21
249.996428
31
0.0
0
LINE
8
Calque 1
62
4
5
252
100
AcDbEntity
100
AcDbLine
10
291.049992
20
249.996428
30
0.0
11
291.049992
21
243.996429
31
0.0
0
LINE
8
Calque 1
62
4
5
253
100
AcDbEntity
100
AcDbLine
10
174.049972
20
294.996428
30
0.0
11
174.049972
21
297.996431
31
0.0
0
LINE
8
Calque 1
62
4
5
254
100
AcDbEntity
100
AcDbLine
10
174.049972
20
297.996431
30
0.0
11
171.049978
21
297.996431
31
0.0
0
LINE
8
Calque 1
62
4
5
255
100
AcDbEntity
100
AcDbLine
10
171.049978
20
297.996431
30
0.0
11
171.049978
21
294.996428
31
0.0
0
LINE
8
Calque 1
62
4
5
256
100
AcDbEntity
100
AcDbLine
10
171.049978
20
294.996428
30
0.0
11
174.049972
21
294.996428
31
0.0
0
LINE
8
Calque 1
62
4
5
257
100
AcDbEntity
100
AcDbLine
10
-91.144118
20
317.328430
30
0.0
11
-90.806976
21
317.767729
31
0.0
0
LINE
8
Calque 1
62
4
5
258
100
AcDbEntity
100
AcDbLine
10
-90.806976
20
317.767729
30
0.0
11
-90.595055
21
318.279330
31
0.0
0
LINE
8
Calque 1
62
4
5
259
100
AcDbEntity
100
AcDbLine
10
-90.595055
20
318.279330
30
0.0
11
-90.522778
21
318.828430
31
0.0
0
LINE
8
Calque 1
62
4
5
25a
100
AcDbEntity
100
AcDbLine
10
-90.522778
20
318.828430
30
0.0
11
-90.595055
21
319.377428
31
0.0
0
LINE
8
Calque 1
62
4
5
25b
100
AcDbEntity
100
AcDbLine
10
-90.595055
20
319.377428
30
0.0
11
-90.806976
21
319.889029
31
0.0
0
LINE
8
Calque 1
62
4
5
25c
100
AcDbEntity
100
AcDbLine
10
-90.806976
20
319.889029
30
0.0
11
-91.144118
21
320.328430
31
0.0
0
LINE
8
Calque 1
62
4
5
25d
100
AcDbEntity
100
AcDbLine
10
-91.144118
20
320.328430
30
0.0
11
-91.583454
21
320.665530
31
0.0
0
LINE
8
Calque 1
62
4
5
25e
100
AcDbEntity
100
AcDbLine
10
-91.583454
20
320.665530
30
0.0
11
-92.095066
21
320.877431
31
0.0
0
LINE
8
Calque 1
62
4
5
25f
100
AcDbEntity
100
AcDbLine
10
-92.095066
20
320.877431
30
0.0
11
-92.644101
21
320.949429
31
0.0
0
LINE
8
Calque 1
62
4
5
260
100
AcDbEntity
100
AcDbLine
10
-92.644101
20
320.949429
30
0.0
11
-93.193136
21
320.877431
31
0.0
0
LINE
8
Calque 1
62
4
5
261
100
AcDbEntity
100
AcDbLine
10
-93.193136
20
320.877431
30
0.0
11
-93.704777
21
320.665530
31
0.0
0
LINE
8
Calque 1
62
4
5
262
100
AcDbEntity
100
AcDbLine
10
-93.704777
20
320.665530
30
0.0
11
-94.144112
21
320.328430
31
0.0
0
LINE
8
Calque 1
62
4
5
263
100
AcDbEntity
100
AcDbLine
10
-94.144112
20
320.328430
30
0.0
11
-94.481227
21
319.889029
31
0.0
0
LINE
8
Calque 1
62
4
5
264
100
AcDbEntity
100
AcDbLine
10
-94.481227
20
319.889029
30
0.0
11
-94.693147
21
319.377428
31
0.0
0
LINE
8
Calque 1
62
4
5
265
100
AcDbEntity
100
AcDbLine
10
-94.693147
20
319.377428
30
0.0
11
-94.765453
21
318.828430
31
0.0
0
LINE
8
Calque 1
62
4
5
266
100
AcDbEntity
100
AcDbLine
10
-94.765453
20
318.828430
30
0.0
11
-94.693147
21
318.279330
31
0.0
0
LINE
8
Calque 1
62
4
5
267
100
AcDbEntity
100
AcDbLine
10
-94.693147
20
318.279330
30
0.0
11
-94.481227
21
317.767729
31
0.0
0
LINE
8
Calque 1
62
4
5
268
100
AcDbEntity
100
AcDbLine
10
-94.481227
20
317.767729
30
0.0
11
-94.144112
21
317.328430
31
0.0
0
LINE
8
Calque 1
62
4
5
269
100
AcDbEntity
100
AcDbLine
10
-94.144112
20
317.328430
30
0.0
11
-93.704777
21
316.991231
31
0.0
0
LINE
8
Calque 1
62
4
5
26a
100
AcDbEntity
100
AcDbLine
10
-93.704777
20
316.991231
30
0.0
11
-93.193136
21
316.779330
31
0.0
0
LINE
8
Calque 1
62
4
5
26b
100
AcDbEntity
100
AcDbLine
10
-93.193136
20
316.779330
30
0.0
11
-92.644101
21
316.707329
31
0.0
0
LINE
8
Calque 1
62
4
5
26c
100
AcDbEntity
100
AcDbLine
10
-92.644101
20
316.707329
30
0.0
11
-92.095066
21
316.779330
31
0.0
0
LINE
8
Calque 1
62
4
5
26d
100
AcDbEntity
100
AcDbLine
10
-92.095066
20
316.779330
30
0.0
11
-91.583454
21
316.991231
31
0.0
0
LINE
8
Calque 1
62
4
5
26e
100
AcDbEntity
100
AcDbLine
10
-91.583454
20
316.991231
30
0.0
11
-91.144118
21
317.328430
31
0.0
0
LINE
8
Calque 1
62
4
5
26f
100
AcDbEntity
100
AcDbLine
10
-261.800848
20
174.019225
30
0.0
11
-261.800848
21
171.019231
31
0.0
0
LINE
8
Calque 1
62
4
5
270
100
AcDbEntity
100
AcDbLine
10
-261.800848
20
171.019231
30
0.0
11
-241.800860
21
171.019231
31
0.0
0
LINE
8
Calque 1
62
4
5
271
100
AcDbEntity
100
AcDbLine
10
-241.800860
20
171.019231
30
0.0
11
-241.800860
21
174.019225
31
0.0
0
LINE
8
Calque 1
62
4
5
272
100
AcDbEntity
100
AcDbLine
10
-241.800860
20
174.019225
30
0.0
11
-261.800848
21
174.019225
31
0.0
0
LINE
8
Calque 1
62
4
5
273
100
AcDbEntity
100
AcDbLine
10
-361.775558
20
174.019225
30
0.0
11
-361.775558
21
171.019231
31
0.0
0
LINE
8
Calque 1
62
4
5
274
100
AcDbEntity
100
AcDbLine
10
-361.775558
20
171.019231
30
0.0
11
-341.800857
21
171.019231
31
0.0
0
LINE
8
Calque 1
62
4
5
275
100
AcDbEntity
100
AcDbLine
10
-341.800857
20
171.019231
30
0.0
11
-341.800857
21
174.019225
31
0.0
0
LINE
8
Calque 1
62
4
5
276
100
AcDbEntity
100
AcDbLine
10
-341.800857
20
174.019225
30
0.0
11
-361.775558
21
174.019225
31
0.0
0
LINE
8
Calque 1
62
4
5
277
100
AcDbEntity
100
AcDbLine
10
-440.600846
20
174.019225
30
0.0
11
-460.600834
21
174.019225
31
0.0
0
LINE
8
Calque 1
62
4
5
278
100
AcDbEntity
100
AcDbLine
10
-460.600834
20
174.019225
30
0.0
11
-460.600834
21
171.019231
31
0.0
0
LINE
8
Calque 1
62
4
5
279
100
AcDbEntity
100
AcDbLine
10
-460.600834
20
171.019231
30
0.0
11
-440.600846
21
171.019231
31
0.0
0
LINE
8
Calque 1
62
4
5
27a
100
AcDbEntity
100
AcDbLine
10
-440.600846
20
171.019231
30
0.0
11
-440.600846
21
174.019225
31
0.0
0
LINE
8
Calque 1
62
4
5
27b
100
AcDbEntity
100
AcDbLine
10
-4.880835
20
317.051330
30
0.0
11
-4.543720
21
317.490629
31
0.0
0
LINE
8
Calque 1
62
4
5
27c
100
AcDbEntity
100
AcDbLine
10
-4.543720
20
317.490629
30
0.0
11
-4.331800
21
318.002230
31
0.0
0
LINE
8
Calque 1
62
4
5
27d
100
AcDbEntity
100
AcDbLine
10
-4.331800
20
318.002230
30
0.0
11
-4.259494
21
318.551330
31
0.0
0
LINE
8
Calque 1
62
4
5
27e
100
AcDbEntity
100
AcDbLine
10
-4.259494
20
318.551330
30
0.0
11
-4.331800
21
319.100328
31
0.0
0
LINE
8
Calque 1
62
4
5
27f
100
AcDbEntity
100
AcDbLine
10
-4.331800
20
319.100328
30
0.0
11
-4.543720
21
319.611929
31
0.0
0
LINE
8
Calque 1
62
4
5
280
100
AcDbEntity
100
AcDbLine
10
-4.543720
20
319.611929
30
0.0
11
-4.880835
21
320.051330
31
0.0
0
LINE
8
Calque 1
62
4
5
281
100
AcDbEntity
100
AcDbLine
10
-4.880835
20
320.051330
30
0.0
11
-5.320198
21
320.388430
31
0.0
0
LINE
8
Calque 1
62
4
5
282
100
AcDbEntity
100
AcDbLine
10
-5.320198
20
320.388430
30
0.0
11
-5.831811
21
320.600328
31
0.0
0
LINE
8
Calque 1
62
4
5
283
100
AcDbEntity
100
AcDbLine
10
-5.831811
20
320.600328
30
0.0
11
-6.380846
21
320.672329
31
0.0
0
LINE
8
Calque 1
62
4
5
284
100
AcDbEntity
100
AcDbLine
10
-6.380846
20
320.672329
30
0.0
11
-6.929881
21
320.600328
31
0.0
0
LINE
8
Calque 1
62
4
5
285
100
AcDbEntity
100
AcDbLine
10
-6.929881
20
320.600328
30
0.0
11
-7.441493
21
320.388430
31
0.0
0
LINE
8
Calque 1
62
4
5
286
100
AcDbEntity
100
AcDbLine
10
-7.441493
20
320.388430
30
0.0
11
-7.880857
21
320.051330
31
0.0
0
LINE
8
Calque 1
62
4
5
287
100
AcDbEntity
100
AcDbLine
10
-7.880857
20
320.051330
30
0.0
11
-8.217943
21
319.611929
31
0.0
0
LINE
8
Calque 1
62
4
5
288
100
AcDbEntity
100
AcDbLine
10
-8.217943
20
319.611929
30
0.0
11
-8.429892
21
319.100328
31
0.0
0
LINE
8
Calque 1
62
4
5
289
100
AcDbEntity
100
AcDbLine
10
-8.429892
20
319.100328
30
0.0
11
-8.502197
21
318.551330
31
0.0
0
LINE
8
Calque 1
62
4
5
28a
100
AcDbEntity
100
AcDbLine
10
-8.502197
20
318.551330
30
0.0
11
-8.429892
21
318.002230
31
0.0
0
LINE
8
Calque 1
62
4
5
28b
100
AcDbEntity
100
AcDbLine
10
-8.429892
20
318.002230
30
0.0
11
-8.217943
21
317.490629
31
0.0
0
LINE
8
Calque 1
62
4
5
28c
100
AcDbEntity
100
AcDbLine
10
-8.217943
20
317.490629
30
0.0
11
-7.880857
21
317.051330
31
0.0
0
LINE
8
Calque 1
62
4
5
28d
100
AcDbEntity
100
AcDbLine
10
-7.880857
20
317.051330
30
0.0
11
-7.441493
21
316.714128
31
0.0
0
LINE
8
Calque 1
62
4
5
28e
100
AcDbEntity
100
AcDbLine
10
-7.441493
20
316.714128
30
0.0
11
-6.929881
21
316.502230
31
0.0
0
LINE
8
Calque 1
62
4
5
28f
100
AcDbEntity
100
AcDbLine
10
-6.929881
20
316.502230
30
0.0
11
-6.380846
21
316.430230
31
0.0
0
LINE
8
Calque 1
62
4
5
290
100
AcDbEntity
100
AcDbLine
10
-6.380846
20
316.430230
30
0.0
11
-5.831811
21
316.502230
31
0.0
0
LINE
8
Calque 1
62
4
5
291
100
AcDbEntity
100
AcDbLine
10
-5.831811
20
316.502230
30
0.0
11
-5.320198
21
316.714128
31
0.0
0
LINE
8
Calque 1
62
4
5
292
100
AcDbEntity
100
AcDbLine
10
-5.320198
20
316.714128
30
0.0
11
-4.880835
21
317.051330
31
0.0
0
LINE
8
Calque 1
62
4
5
293
100
AcDbEntity
100
AcDbLine
10
-34.419625
20
316.942830
30
0.0
11
-34.082510
21
317.382230
31
0.0
0
LINE
8
Calque 1
62
4
5
294
100
AcDbEntity
100
AcDbLine
10
-34.082510
20
317.382230
30
0.0
11
-33.870590
21
317.893828
31
0.0
0
LINE
8
Calque 1
62
4
5
295
100
AcDbEntity
100
AcDbLine
10
-33.870590
20
317.893828
30
0.0
11
-33.798284
21
318.442830
31
0.0
0
LINE
8
Calque 1
62
4
5
296
100
AcDbEntity
100
AcDbLine
10
-33.798284
20
318.442830
30
0.0
11
-33.870590
21
318.991930
31
0.0
0
LINE
8
Calque 1
62
4
5
297
100
AcDbEntity
100
AcDbLine
10
-33.870590
20
318.991930
30
0.0
11
-34.082510
21
319.503531
31
0.0
0
LINE
8
Calque 1
62
4
5
298
100
AcDbEntity
100
AcDbLine
10
-34.082510
20
319.503531
30
0.0
11
-34.419625
21
319.942829
31
0.0
0
LINE
8
Calque 1
62
4
5
299
100
AcDbEntity
100
AcDbLine
10
-34.419625
20
319.942829
30
0.0
11
-34.858960
21
320.280029
31
0.0
0
LINE
8
Calque 1
62
4
5
29a
100
AcDbEntity
100
AcDbLine
10
-34.858960
20
320.280029
30
0.0
11
-35.370572
21
320.491929
31
0.0
0
LINE
8
Calque 1
62
4
5
29b
100
AcDbEntity
100
AcDbLine
10
-35.370572
20
320.491929
30
0.0
11
-35.919636
21
320.563930
31
0.0
0
LINE
8
Calque 1
62
4
5
29c
100
AcDbEntity
100
AcDbLine
10
-35.919636
20
320.563930
30
0.0
11
-36.468671
21
320.491929
31
0.0
0
LINE
8
Calque 1
62
4
5
29d
100
AcDbEntity
100
AcDbLine
10
-36.468671
20
320.491929
30
0.0
11
-36.980283
21
320.280029
31
0.0
0
LINE
8
Calque 1
62
4
5
29e
100
AcDbEntity
100
AcDbLine
10
-36.980283
20
320.280029
30
0.0
11
-37.419619
21
319.942829
31
0.0
0
LINE
8
Calque 1
62
4
5
29f
100
AcDbEntity
100
AcDbLine
10
-37.419619
20
319.942829
30
0.0
11
-37.756733
21
319.503531
31
0.0
0
LINE
8
Calque 1
62
4
5
2a0
100
AcDbEntity
100
AcDbLine
10
-37.756733
20
319.503531
30
0.0
11
-37.968654
21
318.991930
31
0.0
0
LINE
8
Calque 1
62
4
5
2a1
100
AcDbEntity
100
AcDbLine
10
-37.968654
20
318.991930
30
0.0
11
-38.040959
21
318.442830
31
0.0
0
LINE
8
Calque 1
62
4
5
2a2
100
AcDbEntity
100
AcDbLine
10
-38.040959
20
318.442830
30
0.0
11
-37.968654
21
317.893828
31
0.0
0
LINE
8
Calque 1
62
4
5
2a3
100
AcDbEntity
100
AcDbLine
10
-37.968654
20
317.893828
30
0.0
11
-37.756733
21
317.382230
31
0.0
0
LINE
8
Calque 1
62
4
5
2a4
100
AcDbEntity
100
AcDbLine
10
-37.756733
20
317.382230
30
0.0
11
-37.419619
21
316.942830
31
0.0
0
LINE
8
Calque 1
62
4
5
2a5
100
AcDbEntity
100
AcDbLine
10
-37.419619
20
316.942830
30
0.0
11
-36.980283
21
316.605729
31
0.0
0
LINE
8
Calque 1
62
4
5
2a6
100
AcDbEntity
100
AcDbLine
10
-36.980283
20
316.605729
30
0.0
11
-36.468671
21
316.393829
31
0.0
0
LINE
8
Calque 1
62
4
5
2a7
100
AcDbEntity
100
AcDbLine
10
-36.468671
20
316.393829
30
0.0
11
-35.919636
21
316.321831
31
0.0
0
LINE
8
Calque 1
62
4
5
2a8
100
AcDbEntity
100
AcDbLine
10
-35.919636
20
316.321831
30
0.0
11
-35.370572
21
316.393829
31
0.0
0
LINE
8
Calque 1
62
4
5
2a9
100
AcDbEntity
100
AcDbLine
10
-35.370572
20
316.393829
30
0.0
11
-34.858960
21
316.605729
31
0.0
0
LINE
8
Calque 1
62
4
5
2aa
100
AcDbEntity
100
AcDbLine
10
-34.858960
20
316.605729
30
0.0
11
-34.419625
21
316.942830
31
0.0
0
LINE
8
Calque 1
62
4
5
2ab
100
AcDbEntity
100
AcDbLine
10
-172.495690
20
254.350931
30
0.0
11
-152.495702
21
254.350931
31
0.0
0
LINE
8
Calque 1
62
4
5
2ac
100
AcDbEntity
100
AcDbLine
10
-152.495702
20
254.350931
30
0.0
11
-152.495702
21
257.350930
31
0.0
0
LINE
8
Calque 1
62
4
5
2ad
100
AcDbEntity
100
AcDbLine
10
-152.495702
20
257.350930
30
0.0
11
-172.495690
21
257.350930
31
0.0
0
LINE
8
Calque 1
62
4
5
2ae
100
AcDbEntity
100
AcDbLine
10
-172.495690
20
257.350930
30
0.0
11
-172.495690
21
254.350931
31
0.0
0
LINE
8
Calque 1
62
4
5
2af
100
AcDbEntity
100
AcDbLine
10
-117.495687
20
275.350928
30
0.0
11
-117.495687
21
272.350928
31
0.0
0
LINE
8
Calque 1
62
4
5
2b0
100
AcDbEntity
100
AcDbLine
10
-117.495687
20
272.350928
30
0.0
11
-114.495693
21
272.350928
31
0.0
0
LINE
8
Calque 1
62
4
5
2b1
100
AcDbEntity
100
AcDbLine
10
-114.495693
20
272.350928
30
0.0
11
-114.495693
21
275.350928
31
0.0
0
LINE
8
Calque 1
62
4
5
2b2
100
AcDbEntity
100
AcDbLine
10
-114.495693
20
275.350928
30
0.0
11
-117.495687
21
275.350928
31
0.0
0
LINE
8
Calque 1
62
4
5
2b3
100
AcDbEntity
100
AcDbLine
10
-112.495697
20
278.350931
30
0.0
11
-92.495709
21
278.350931
31
0.0
0
LINE
8
Calque 1
62
4
5
2b4
100
AcDbEntity
100
AcDbLine
10
-92.495709
20
278.350931
30
0.0
11
-92.495709
21
281.350930
31
0.0
0
LINE
8
Calque 1
62
4
5
2b5
100
AcDbEntity
100
AcDbLine
10
-92.495709
20
281.350930
30
0.0
11
-112.495697
21
281.350930
31
0.0
0
LINE
8
Calque 1
62
4
5
2b6
100
AcDbEntity
100
AcDbLine
10
-112.495697
20
281.350930
30
0.0
11
-112.495697
21
278.350931
31
0.0
0
LINE
8
Calque 1
62
4
5
2b7
100
AcDbEntity
100
AcDbLine
10
-84.495696
20
284.350930
30
0.0
11
-84.495696
21
287.350929
31
0.0
0
LINE
8
Calque 1
62
4
5
2b8
100
AcDbEntity
100
AcDbLine
10
-84.495696
20
287.350929
30
0.0
11
-87.495690
21
287.350929
31
0.0
0
LINE
8
Calque 1
62
4
5
2b9
100
AcDbEntity
100
AcDbLine
10
-87.495690
20
287.350929
30
0.0
11
-87.495690
21
284.350930
31
0.0
0
LINE
8
Calque 1
62
4
5
2ba
100
AcDbEntity
100
AcDbLine
10
-87.495690
20
284.350930
30
0.0
11
-84.495696
21
284.350930
31
0.0
0
LINE
8
Calque 1
62
4
5
2bb
100
AcDbEntity
100
AcDbLine
10
-142.495693
20
266.350929
30
0.0
11
-122.495705
21
266.350929
31
0.0
0
LINE
8
Calque 1
62
4
5
2bc
100
AcDbEntity
100
AcDbLine
10
-122.495705
20
266.350929
30
0.0
11
-122.495705
21
269.350929
31
0.0
0
LINE
8
Calque 1
62
4
5
2bd
100
AcDbEntity
100
AcDbLine
10
-122.495705
20
269.350929
30
0.0
11
-142.495693
21
269.350929
31
0.0
0
LINE
8
Calque 1
62
4
5
2be
100
AcDbEntity
100
AcDbLine
10
-142.495693
20
269.350929
30
0.0
11
-142.495693
21
266.350929
31
0.0
0
LINE
8
Calque 1
62
4
5
2bf
100
AcDbEntity
100
AcDbLine
10
-147.495683
20
263.350929
30
0.0
11
-147.495683
21
260.350930
31
0.0
0
LINE
8
Calque 1
62
4
5
2c0
100
AcDbEntity
100
AcDbLine
10
-147.495683
20
260.350930
30
0.0
11
-144.495689
21
260.350930
31
0.0
0
LINE
8
Calque 1
62
4
5
2c1
100
AcDbEntity
100
AcDbLine
10
-144.495689
20
260.350930
30
0.0
11
-144.495689
21
263.350929
31
0.0
0
LINE
8
Calque 1
62
4
5
2c2
100
AcDbEntity
100
AcDbLine
10
-144.495689
20
263.350929
30
0.0
11
-147.495683
21
263.350929
31
0.0
0
LINE
8
Calque 1
62
4
5
2c3
100
AcDbEntity
100
AcDbLine
10
-177.495708
20
245.350929
30
0.0
11
-174.495686
21
245.350929
31
0.0
0
LINE
8
Calque 1
62
4
5
2c4
100
AcDbEntity
100
AcDbLine
10
-174.495686
20
245.350929
30
0.0
11
-174.495686
21
251.350928
31
0.0
0
LINE
8
Calque 1
62
4
5
2c5
100
AcDbEntity
100
AcDbLine
10
-174.495686
20
251.350928
30
0.0
11
-177.495708
21
251.350928
31
0.0
0
LINE
8
Calque 1
62
4
5
2c6
100
AcDbEntity
100
AcDbLine
10
-177.495708
20
251.350928
30
0.0
11
-177.495708
21
245.350929
31
0.0
0
LINE
8
Calque 1
62
4
5
2c7
100
AcDbEntity
100
AcDbLine
10
-57.495694
20
299.350928
30
0.0
11
-57.495694
21
296.350929
31
0.0
0
LINE
8
Calque 1
62
4
5
2c8
100
AcDbEntity
100
AcDbLine
10
-57.495694
20
296.350929
30
0.0
11
-54.495700
21
296.350929
31
0.0
0
LINE
8
Calque 1
62
4
5
2c9
100
AcDbEntity
100
AcDbLine
10
-54.495700
20
296.350929
30
0.0
11
-54.495700
21
299.350928
31
0.0
0
LINE
8
Calque 1
62
4
5
2ca
100
AcDbEntity
100
AcDbLine
10
-54.495700
20
299.350928
30
0.0
11
-57.495694
21
299.350928
31
0.0
  0
ENDSEC
  0
SECTION
  2
OBJECTS
  0
DICTIONARY
  5
C
330
0
100
AcDbDictionary
  3
ACAD_GROUP
350
D
  3
ACAD_MLINESTYLE
350
17
  0
DICTIONARY
  5
D
330
C
100
AcDbDictionary
  0
DICTIONARY
  5
1A
330
C
100
AcDbDictionary
  0
DICTIONARY
  5
17
330
C
100
AcDbDictionary
  3
STANDARD
350
18
  0
DICTIONARY
  5
19
330
C
100
AcDbDictionary
  0
ENDSEC
  0
EOF
