999
Inkscape export via "Better DXF Output" (bob@bobcookdev.com)
  0
SECTION
  2
HEADER
  9
$ACADVER
  1
AC1014
  9
$HANDSEED
  5
FFFF
  0
ENDSEC
  0
SECTION
  2
TABLES
  0
TABLE
  2
VPORT
  5
8
330
0
100
AcDbSymbolTable
 70
     4
  0
VPORT
  5
2E
330
8
100
AcDbSymbolTableRecord
100
AcDbViewportTableRecord
  2
*ACTIVE
 70
     0
 10
0.0
 20
0.0
 11
1.0
 21
1.0
 12
4.25
 22
5.5
 13
0.0
 23
0.0
 14
10.0
 24
10.0
 15
10.0
 25
10.0
 16
0.0
 26
0.0
 36
1.0
 17
0.0
 27
0.0
 37
0.0
 40
11
 41
1.24
 42
50.0
 43
0.0
 44
0.0
 50
0.0
 51
0.0
 71
     0
 72
   100
 73
     1
 74
     3
 75
     0
 76
     0
 77
     0
 78
     0
  0
ENDTAB
  0
TABLE
  2
LTYPE
  5
5
330
0
100
AcDbSymbolTable
 70
     1
  0
LTYPE
  5
14
330
5
100
AcDbSymbolTableRecord
100
AcDbLinetypeTableRecord
  2
BYBLOCK
 70
     0
  3

 72
    65
 73
     0
 40
0.0
  0
LTYPE
  5
15
330
5
100
AcDbSymbolTableRecord
100
AcDbLinetypeTableRecord
  2
BYLAYER
 70
     0
  3

 72
    65
 73
     0
 40
0.0
  0
LTYPE
  5
16
330
5
100
AcDbSymbolTableRecord
100
AcDbLinetypeTableRecord
  2
CONTINUOUS
 70
     0
  3
Solid line
 72
    65
 73
     0
 40
0.0
  0
ENDTAB
  0
TABLE
  2
LAYER
  5
2
330
0
100
AcDbSymbolTable
 70
1
  0
LAYER
  5
10
330
2
100
AcDbSymbolTableRecord
100
AcDbLayerTableRecord
  2
0
 70
     0
 62
     7
  6
CONTINUOUS
  0
ENDTAB
  0
TABLE
  2
STYLE
  5
3
330
0
100
AcDbSymbolTable
 70
     1
  0
STYLE
  5
11
330
3
100
AcDbSymbolTableRecord
100
AcDbTextStyleTableRecord
  2
STANDARD
 70
     0
 40
0.0
 41
1.0
 50
0.0
 71
     0
 42
2.5
  3
txt
  4

  0
ENDTAB
  0
TABLE
  2
VIEW
  5
6
330
0
100
AcDbSymbolTable
 70
     0
  0
ENDTAB
  0
TABLE
  2
UCS
  5
7
330
0
100
AcDbSymbolTable
 70
     0
  0
ENDTAB
  0
TABLE
  2
APPID
  5
9
330
0
100
AcDbSymbolTable
 70
     2
  0
APPID
  5
12
330
9
100
AcDbSymbolTableRecord
100
AcDbRegAppTableRecord
  2
ACAD
 70
     0
  0
ENDTAB
  0
TABLE
  2
DIMSTYLE
  5
A
330
0
100
AcDbSymbolTable
 70
     1
  0
DIMSTYLE
105
27
330
A
100
AcDbSymbolTableRecord
100
AcDbDimStyleTableRecord
  2
ISO-25
 70
     0
  3

  4

  5

  6

  7

 40
1.0
 41
2.5
 42
0.625
 43
3.75
 44
1.25
 45
0.0
 46
0.0
 47
0.0
 48
0.0
140
2.5
141
2.5
142
0.0
143
0.03937007874016
144
1.0
145
0.0
146
1.0
147
0.625
 71
     0
 72
     0
 73
     0
 74
     0
 75
     0
 76
     0
 77
     1
 78
     8
170
     0
171
     3
172
     1
173
     0
174
     0
175
     0
176
     0
177
     0
178
     0
270
     2
271
     2
272
     2
273
     2
274
     3
340
11
275
     0
280
     0
281
     0
282
     0
283
     0
284
     8
285
     0
286
     0
287
     3
288
     0
  0
ENDTAB
  0
TABLE
  2
BLOCK_RECORD
  5
1
330
0
100
AcDbSymbolTable
 70
     1
  0
BLOCK_RECORD
  5
1F
330
1
100
AcDbSymbolTableRecord
100
AcDbBlockTableRecord
  2
*MODEL_SPACE
  0
BLOCK_RECORD
  5
1B
330
1
100
AcDbSymbolTableRecord
100
AcDbBlockTableRecord
  2
*PAPER_SPACE
  0
ENDTAB
  0
ENDSEC
  0
SECTION
  2
BLOCKS
  0
BLOCK
  5
20
330
1F
100
AcDbEntity
  8
0
100
AcDbBlockBegin
  2
*MODEL_SPACE
 70
     0
 10
0.0
 20
0.0
 30
0.0
  3
*MODEL_SPACE
  1

  0
ENDBLK
  5
21
330
1F
100
AcDbEntity
  8
0
100
AcDbBlockEnd
  0
BLOCK
  5
1C
330
1B
100
AcDbEntity
 67
     1
  8
0
100
AcDbBlockBegin
  2
*PAPER_SPACE
  1

  0
ENDBLK
  5
1D
330
1B
100
AcDbEntity
 67
     1
  8
0
100
AcDbBlockEnd
  0
ENDSEC
  0
SECTION
  2
ENTITIES
0
LINE
8
Calque 1
62
4
5
100
100
AcDbEntity
100
AcDbLine
10
-722.861422
20
463.610879
30
0.0
11
-722.861422
21
171.121605
31
0.0
0
LINE
8
Calque 1
62
4
5
101
100
AcDbEntity
100
AcDbLine
10
-722.861422
20
171.121605
30
0.0
11
93.135323
21
171.121605
31
0.0
0
LINE
8
Calque 1
62
4
5
102
100
AcDbEntity
100
AcDbLine
10
86.227454
20
-136.389080
30
0.0
11
86.227624
21
-107.589065
31
0.0
0
LINE
8
Calque 1
62
4
5
103
100
AcDbEntity
100
AcDbLine
10
86.227624
20
-107.589065
30
0.0
11
89.227646
21
-107.589178
31
0.0
0
LINE
8
Calque 1
62
4
5
104
100
AcDbEntity
100
AcDbLine
10
89.227646
20
-107.589178
30
0.0
11
89.227843
21
-77.589181
31
0.0
0
LINE
8
Calque 1
62
4
5
105
100
AcDbEntity
100
AcDbLine
10
89.227843
20
-77.589181
30
0.0
11
86.227849
21
-77.589068
31
0.0
0
LINE
8
Calque 1
62
4
5
106
100
AcDbEntity
100
AcDbLine
10
86.227849
20
-77.589068
30
0.0
11
86.228047
21
-47.589072
31
0.0
0
LINE
8
Calque 1
62
4
5
107
100
AcDbEntity
100
AcDbLine
10
86.228047
20
-47.589072
30
0.0
11
89.228041
21
-47.589185
31
0.0
0
LINE
8
Calque 1
62
4
5
108
100
AcDbEntity
100
AcDbLine
10
89.228041
20
-47.589185
30
0.0
11
89.228267
21
-17.589188
31
0.0
0
LINE
8
Calque 1
62
4
5
109
100
AcDbEntity
100
AcDbLine
10
89.228267
20
-17.589188
30
0.0
11
86.228245
21
-17.589075
31
0.0
0
LINE
8
Calque 1
62
4
5
10a
100
AcDbEntity
100
AcDbLine
10
86.228245
20
-17.589075
30
0.0
11
86.228470
21
12.410921
31
0.0
0
LINE
8
Calque 1
62
4
5
10b
100
AcDbEntity
100
AcDbLine
10
86.228470
20
12.410921
30
0.0
11
89.228464
21
12.410808
31
0.0
0
LINE
8
Calque 1
62
4
5
10c
100
AcDbEntity
100
AcDbLine
10
89.228464
20
12.410808
30
0.0
11
89.228662
21
42.410802
31
0.0
0
LINE
8
Calque 1
62
4
5
10d
100
AcDbEntity
100
AcDbLine
10
89.228662
20
42.410802
30
0.0
11
86.228668
21
42.410915
31
0.0
0
LINE
8
Calque 1
62
4
5
10e
100
AcDbEntity
100
AcDbLine
10
86.228668
20
42.410915
30
0.0
11
86.228865
21
72.410911
31
0.0
0
LINE
8
Calque 1
62
4
5
10f
100
AcDbEntity
100
AcDbLine
10
86.228865
20
72.410911
30
0.0
11
89.228859
21
72.410798
31
0.0
0
LINE
8
Calque 1
62
4
5
110
100
AcDbEntity
100
AcDbLine
10
89.228859
20
72.410798
30
0.0
11
89.229085
21
102.410795
31
0.0
0
LINE
8
Calque 1
62
4
5
111
100
AcDbEntity
100
AcDbLine
10
89.229085
20
102.410795
30
0.0
11
86.229063
21
102.410908
31
0.0
0
LINE
8
Calque 1
62
4
5
112
100
AcDbEntity
100
AcDbLine
10
86.229063
20
102.410908
30
0.0
11
86.229289
21
132.410904
31
0.0
0
LINE
8
Calque 1
62
4
5
113
100
AcDbEntity
100
AcDbLine
10
86.229289
20
132.410904
30
0.0
11
89.229283
21
132.410791
31
0.0
0
LINE
8
Calque 1
62
4
5
114
100
AcDbEntity
100
AcDbLine
10
89.229283
20
132.410791
30
0.0
11
89.229480
21
162.410816
31
0.0
0
LINE
8
Calque 1
62
4
5
115
100
AcDbEntity
100
AcDbLine
10
89.229480
20
162.410816
30
0.0
11
86.229486
21
162.410901
31
0.0
0
LINE
8
Calque 1
62
4
5
116
100
AcDbEntity
100
AcDbLine
10
86.229486
20
162.410901
30
0.0
11
36.229473
21
162.410901
31
0.0
0
LINE
8
Calque 1
62
4
5
117
100
AcDbEntity
100
AcDbLine
10
36.229473
20
162.410901
30
0.0
11
36.229502
21
165.410895
31
0.0
0
LINE
8
Calque 1
62
4
5
118
100
AcDbEntity
100
AcDbLine
10
36.229502
20
165.410895
30
0.0
11
-63.770496
21
165.410895
31
0.0
0
LINE
8
Calque 1
62
4
5
119
100
AcDbEntity
100
AcDbLine
10
-63.770496
20
165.410895
30
0.0
11
-63.770524
21
162.410872
31
0.0
0
LINE
8
Calque 1
62
4
5
11a
100
AcDbEntity
100
AcDbLine
10
-63.770524
20
162.410872
30
0.0
11
-163.770522
21
162.410872
31
0.0
0
LINE
8
Calque 1
62
4
5
11b
100
AcDbEntity
100
AcDbLine
10
-163.770522
20
162.410872
30
0.0
11
-163.770493
21
165.410866
31
0.0
0
LINE
8
Calque 1
62
4
5
11c
100
AcDbEntity
100
AcDbLine
10
-163.770493
20
165.410866
30
0.0
11
-263.770491
21
165.410866
31
0.0
0
LINE
8
Calque 1
62
4
5
11d
100
AcDbEntity
100
AcDbLine
10
-263.770491
20
165.410866
30
0.0
11
-263.770519
21
162.410872
31
0.0
0
LINE
8
Calque 1
62
4
5
11e
100
AcDbEntity
100
AcDbLine
10
-263.770519
20
162.410872
30
0.0
11
-363.770531
21
162.410872
31
0.0
0
LINE
8
Calque 1
62
4
5
11f
100
AcDbEntity
100
AcDbLine
10
-363.770531
20
162.410872
30
0.0
11
-363.770503
21
165.410895
31
0.0
0
LINE
8
Calque 1
62
4
5
120
100
AcDbEntity
100
AcDbLine
10
-363.770503
20
165.410895
30
0.0
11
-463.770500
21
165.410895
31
0.0
0
LINE
8
Calque 1
62
4
5
121
100
AcDbEntity
100
AcDbLine
10
-463.770500
20
165.410895
30
0.0
11
-463.770528
21
162.410901
31
0.0
0
LINE
8
Calque 1
62
4
5
122
100
AcDbEntity
100
AcDbLine
10
-463.770528
20
162.410901
30
0.0
11
-563.770526
21
162.410901
31
0.0
0
LINE
8
Calque 1
62
4
5
123
100
AcDbEntity
100
AcDbLine
10
-563.770526
20
162.410901
30
0.0
11
-563.770498
21
165.410895
31
0.0
0
LINE
8
Calque 1
62
4
5
124
100
AcDbEntity
100
AcDbLine
10
-563.770498
20
165.410895
30
0.0
11
-663.770495
21
165.410895
31
0.0
0
LINE
8
Calque 1
62
4
5
125
100
AcDbEntity
100
AcDbLine
10
-663.770495
20
165.410895
30
0.0
11
-663.770524
21
162.410901
31
0.0
0
LINE
8
Calque 1
62
4
5
126
100
AcDbEntity
100
AcDbLine
10
-663.770524
20
162.410901
30
0.0
11
-713.770536
21
162.411183
31
0.0
0
LINE
8
Calque 1
62
4
5
127
100
AcDbEntity
100
AcDbLine
10
-713.770536
20
162.411183
30
0.0
11
-716.770530
21
162.411296
31
0.0
0
LINE
8
Calque 1
62
4
5
128
100
AcDbEntity
100
AcDbLine
10
-716.770530
20
162.411296
30
0.0
11
-716.770728
21
132.411299
31
0.0
0
LINE
8
Calque 1
62
4
5
129
100
AcDbEntity
100
AcDbLine
10
-716.770728
20
132.411299
30
0.0
11
-713.770734
21
132.411186
31
0.0
0
LINE
8
Calque 1
62
4
5
12a
100
AcDbEntity
100
AcDbLine
10
-713.770734
20
132.411186
30
0.0
11
-713.770932
21
102.411190
31
0.0
0
LINE
8
Calque 1
62
4
5
12b
100
AcDbEntity
100
AcDbLine
10
-713.770932
20
102.411190
30
0.0
11
-716.770926
21
102.411303
31
0.0
0
LINE
8
Calque 1
62
4
5
12c
100
AcDbEntity
100
AcDbLine
10
-716.770926
20
102.411303
30
0.0
11
-716.771151
21
72.411306
31
0.0
0
LINE
8
Calque 1
62
4
5
12d
100
AcDbEntity
100
AcDbLine
10
-716.771151
20
72.411306
30
0.0
11
-713.771157
21
72.411193
31
0.0
0
LINE
8
Calque 1
62
4
5
12e
100
AcDbEntity
100
AcDbLine
10
-713.771157
20
72.411193
30
0.0
11
-713.771355
21
42.411197
31
0.0
0
LINE
8
Calque 1
62
4
5
12f
100
AcDbEntity
100
AcDbLine
10
-713.771355
20
42.411197
30
0.0
11
-716.771349
21
42.411310
31
0.0
0
LINE
8
Calque 1
62
4
5
130
100
AcDbEntity
100
AcDbLine
10
-716.771349
20
42.411310
30
0.0
11
-716.771546
21
12.411316
31
0.0
0
LINE
8
Calque 1
62
4
5
131
100
AcDbEntity
100
AcDbLine
10
-716.771546
20
12.411316
30
0.0
11
-713.771552
21
12.411203
31
0.0
0
LINE
8
Calque 1
62
4
5
132
100
AcDbEntity
100
AcDbLine
10
-713.771552
20
12.411203
30
0.0
11
-713.771750
21
-17.588793
31
0.0
0
LINE
8
Calque 1
62
4
5
133
100
AcDbEntity
100
AcDbLine
10
-713.771750
20
-17.588793
30
0.0
11
-716.771772
21
-17.588680
31
0.0
0
LINE
8
Calque 1
62
4
5
134
100
AcDbEntity
100
AcDbLine
10
-716.771772
20
-17.588680
30
0.0
11
-716.771970
21
-47.588677
31
0.0
0
LINE
8
Calque 1
62
4
5
135
100
AcDbEntity
100
AcDbLine
10
-716.771970
20
-47.588677
30
0.0
11
-713.771976
21
-47.588790
31
0.0
0
LINE
8
Calque 1
62
4
5
136
100
AcDbEntity
100
AcDbLine
10
-713.771976
20
-47.588790
30
0.0
11
-713.772173
21
-77.588786
31
0.0
0
LINE
8
Calque 1
62
4
5
137
100
AcDbEntity
100
AcDbLine
10
-713.772173
20
-77.588786
30
0.0
11
-716.772167
21
-77.588673
31
0.0
0
LINE
8
Calque 1
62
4
5
138
100
AcDbEntity
100
AcDbLine
10
-716.772167
20
-77.588673
30
0.0
11
-716.772365
21
-107.588670
31
0.0
0
LINE
8
Calque 1
62
4
5
139
100
AcDbEntity
100
AcDbLine
10
-716.772365
20
-107.588670
30
0.0
11
-713.772371
21
-107.588782
31
0.0
0
LINE
8
Calque 1
62
4
5
13a
100
AcDbEntity
100
AcDbLine
10
-713.772371
20
-107.588782
30
0.0
11
-713.772568
21
-136.388770
31
0.0
0
LINE
8
Calque 1
62
4
5
13b
100
AcDbEntity
100
AcDbLine
10
-748.888774
20
-106.877328
30
0.0
11
-748.888774
21
-111.377334
31
0.0
0
LINE
8
Calque 1
62
4
5
13c
100
AcDbEntity
100
AcDbLine
10
-748.888774
20
-111.377334
30
0.0
11
-748.735443
21
-112.542036
31
0.0
0
LINE
8
Calque 1
62
4
5
13d
100
AcDbEntity
100
AcDbLine
10
-748.735443
20
-112.542036
30
0.0
11
-748.285891
21
-113.627322
31
0.0
0
LINE
8
Calque 1
62
4
5
13e
100
AcDbEntity
100
AcDbLine
10
-748.285891
20
-113.627322
30
0.0
11
-747.570768
21
-114.559333
31
0.0
0
LINE
8
Calque 1
62
4
5
13f
100
AcDbEntity
100
AcDbLine
10
-747.570768
20
-114.559333
30
0.0
11
-746.638786
21
-115.274427
31
0.0
0
LINE
8
Calque 1
62
4
5
140
100
AcDbEntity
100
AcDbLine
10
-746.638786
20
-115.274427
30
0.0
11
-745.553472
21
-115.724036
31
0.0
0
LINE
8
Calque 1
62
4
5
141
100
AcDbEntity
100
AcDbLine
10
-745.553472
20
-115.724036
30
0.0
11
-744.388797
21
-115.877310
31
0.0
0
LINE
8
Calque 1
62
4
5
142
100
AcDbEntity
100
AcDbLine
10
-744.388797
20
-115.877310
30
0.0
11
-743.224094
21
-115.724036
31
0.0
0
LINE
8
Calque 1
62
4
5
143
100
AcDbEntity
100
AcDbLine
10
-743.224094
20
-115.724036
30
0.0
11
-742.138780
21
-115.274427
31
0.0
0
LINE
8
Calque 1
62
4
5
144
100
AcDbEntity
100
AcDbLine
10
-742.138780
20
-115.274427
30
0.0
11
-741.206798
21
-114.559333
31
0.0
0
LINE
8
Calque 1
62
4
5
145
100
AcDbEntity
100
AcDbLine
10
-741.206798
20
-114.559333
30
0.0
11
-740.491675
21
-113.627322
31
0.0
0
LINE
8
Calque 1
62
4
5
146
100
AcDbEntity
100
AcDbLine
10
-740.491675
20
-113.627322
30
0.0
11
-740.042123
21
-112.542036
31
0.0
0
LINE
8
Calque 1
62
4
5
147
100
AcDbEntity
100
AcDbLine
10
-740.042123
20
-112.542036
30
0.0
11
-739.888792
21
-111.377334
31
0.0
0
LINE
8
Calque 1
62
4
5
148
100
AcDbEntity
100
AcDbLine
10
-739.888792
20
-111.377334
30
0.0
11
-739.888792
21
-86.877340
31
0.0
0
LINE
8
Calque 1
62
4
5
149
100
AcDbEntity
100
AcDbLine
10
-739.888792
20
-86.877340
30
0.0
11
-736.888770
21
-86.877340
31
0.0
0
LINE
8
Calque 1
62
4
5
14a
100
AcDbEntity
100
AcDbLine
10
-736.888770
20
-86.877340
30
0.0
11
-736.888770
21
-66.877324
31
0.0
0
LINE
8
Calque 1
62
4
5
14b
100
AcDbEntity
100
AcDbLine
10
-736.888770
20
-66.877324
30
0.0
11
-739.888792
21
-66.877324
31
0.0
0
LINE
8
Calque 1
62
4
5
14c
100
AcDbEntity
100
AcDbLine
10
-739.888792
20
-66.877324
30
0.0
11
-739.888792
21
-46.877336
31
0.0
0
LINE
8
Calque 1
62
4
5
14d
100
AcDbEntity
100
AcDbLine
10
-739.888792
20
-46.877336
30
0.0
11
-736.888770
21
-46.877336
31
0.0
0
LINE
8
Calque 1
62
4
5
14e
100
AcDbEntity
100
AcDbLine
10
-736.888770
20
-46.877336
30
0.0
11
-736.888770
21
-26.877319
31
0.0
0
LINE
8
Calque 1
62
4
5
14f
100
AcDbEntity
100
AcDbLine
10
-736.888770
20
-26.877319
30
0.0
11
-739.888792
21
-26.877319
31
0.0
0
LINE
8
Calque 1
62
4
5
150
100
AcDbEntity
100
AcDbLine
10
-739.888792
20
-26.877319
30
0.0
11
-739.888792
21
-6.877331
31
0.0
0
LINE
8
Calque 1
62
4
5
151
100
AcDbEntity
100
AcDbLine
10
-739.888792
20
-6.877331
30
0.0
11
-744.888782
21
-6.877331
31
0.0
0
LINE
8
Calque 1
62
4
5
152
100
AcDbEntity
100
AcDbLine
10
-744.888782
20
-6.877331
30
0.0
11
-744.888782
21
-106.877328
31
0.0
0
LINE
8
Calque 1
62
4
5
153
100
AcDbEntity
100
AcDbLine
10
-744.888782
20
-106.877328
30
0.0
11
-748.888774
21
-106.877328
31
0.0
0
LINE
8
Calque 1
62
4
5
154
100
AcDbEntity
100
AcDbLine
10
-734.270425
20
-105.067635
30
0.0
11
-734.270425
21
-109.567612
31
0.0
0
LINE
8
Calque 1
62
4
5
155
100
AcDbEntity
100
AcDbLine
10
-734.270425
20
-109.567612
30
0.0
11
-734.117094
21
-110.732315
31
0.0
0
LINE
8
Calque 1
62
4
5
156
100
AcDbEntity
100
AcDbLine
10
-734.117094
20
-110.732315
30
0.0
11
-733.667542
21
-111.817628
31
0.0
0
LINE
8
Calque 1
62
4
5
157
100
AcDbEntity
100
AcDbLine
10
-733.667542
20
-111.817628
30
0.0
11
-732.952419
21
-112.749611
31
0.0
0
LINE
8
Calque 1
62
4
5
158
100
AcDbEntity
100
AcDbLine
10
-732.952419
20
-112.749611
30
0.0
11
-732.020436
21
-113.464734
31
0.0
0
LINE
8
Calque 1
62
4
5
159
100
AcDbEntity
100
AcDbLine
10
-732.020436
20
-113.464734
30
0.0
11
-730.935123
21
-113.914314
31
0.0
0
LINE
8
Calque 1
62
4
5
15a
100
AcDbEntity
100
AcDbLine
10
-730.935123
20
-113.914314
30
0.0
11
-729.770420
21
-114.067617
31
0.0
0
LINE
8
Calque 1
62
4
5
15b
100
AcDbEntity
100
AcDbLine
10
-729.770420
20
-114.067617
30
0.0
11
-728.605745
21
-113.914314
31
0.0
0
LINE
8
Calque 1
62
4
5
15c
100
AcDbEntity
100
AcDbLine
10
-728.605745
20
-113.914314
30
0.0
11
-727.520431
21
-113.464734
31
0.0
0
LINE
8
Calque 1
62
4
5
15d
100
AcDbEntity
100
AcDbLine
10
-727.520431
20
-113.464734
30
0.0
11
-726.588449
21
-112.749611
31
0.0
0
LINE
8
Calque 1
62
4
5
15e
100
AcDbEntity
100
AcDbLine
10
-726.588449
20
-112.749611
30
0.0
11
-725.873326
21
-111.817628
31
0.0
0
LINE
8
Calque 1
62
4
5
15f
100
AcDbEntity
100
AcDbLine
10
-725.873326
20
-111.817628
30
0.0
11
-725.423774
21
-110.732315
31
0.0
0
LINE
8
Calque 1
62
4
5
160
100
AcDbEntity
100
AcDbLine
10
-725.423774
20
-110.732315
30
0.0
11
-725.270443
21
-109.567612
31
0.0
0
LINE
8
Calque 1
62
4
5
161
100
AcDbEntity
100
AcDbLine
10
-725.270443
20
-109.567612
30
0.0
11
-725.270443
21
-85.067618
31
0.0
0
LINE
8
Calque 1
62
4
5
162
100
AcDbEntity
100
AcDbLine
10
-725.270443
20
-85.067618
30
0.0
11
-722.270421
21
-85.067618
31
0.0
0
LINE
8
Calque 1
62
4
5
163
100
AcDbEntity
100
AcDbLine
10
-722.270421
20
-85.067618
30
0.0
11
-722.270421
21
-65.067630
31
0.0
0
LINE
8
Calque 1
62
4
5
164
100
AcDbEntity
100
AcDbLine
10
-722.270421
20
-65.067630
30
0.0
11
-725.270443
21
-65.067630
31
0.0
0
LINE
8
Calque 1
62
4
5
165
100
AcDbEntity
100
AcDbLine
10
-725.270443
20
-65.067630
30
0.0
11
-725.270443
21
-45.067642
31
0.0
0
LINE
8
Calque 1
62
4
5
166
100
AcDbEntity
100
AcDbLine
10
-725.270443
20
-45.067642
30
0.0
11
-722.270421
21
-45.067642
31
0.0
0
LINE
8
Calque 1
62
4
5
167
100
AcDbEntity
100
AcDbLine
10
-722.270421
20
-45.067642
30
0.0
11
-722.270421
21
-25.067626
31
0.0
0
LINE
8
Calque 1
62
4
5
168
100
AcDbEntity
100
AcDbLine
10
-722.270421
20
-25.067626
30
0.0
11
-725.270443
21
-25.067626
31
0.0
0
LINE
8
Calque 1
62
4
5
169
100
AcDbEntity
100
AcDbLine
10
-725.270443
20
-25.067626
30
0.0
11
-725.270443
21
-5.067637
31
0.0
0
LINE
8
Calque 1
62
4
5
16a
100
AcDbEntity
100
AcDbLine
10
-725.270443
20
-5.067637
30
0.0
11
-730.270433
21
-5.067637
31
0.0
0
LINE
8
Calque 1
62
4
5
16b
100
AcDbEntity
100
AcDbLine
10
-730.270433
20
-5.067637
30
0.0
11
-730.270433
21
-105.067635
31
0.0
0
LINE
8
Calque 1
62
4
5
16c
100
AcDbEntity
100
AcDbLine
10
-730.270433
20
-105.067635
30
0.0
11
-734.270425
21
-105.067635
31
0.0
0
LINE
8
Calque 1
62
4
5
16d
100
AcDbEntity
100
AcDbLine
10
-796.787614
20
139.731551
30
0.0
11
-797.952289
21
139.578163
31
0.0
0
LINE
8
Calque 1
62
4
5
16e
100
AcDbEntity
100
AcDbLine
10
-797.952289
20
139.578163
30
0.0
11
-799.037603
21
139.128640
31
0.0
0
LINE
8
Calque 1
62
4
5
16f
100
AcDbEntity
100
AcDbLine
10
-799.037603
20
139.128640
30
0.0
11
-799.969585
21
138.413545
31
0.0
0
LINE
8
Calque 1
62
4
5
170
100
AcDbEntity
100
AcDbLine
10
-799.969585
20
138.413545
30
0.0
11
-800.684708
21
137.481563
31
0.0
0
LINE
8
Calque 1
62
4
5
171
100
AcDbEntity
100
AcDbLine
10
-800.684708
20
137.481563
30
0.0
11
-801.134260
21
136.396249
31
0.0
0
LINE
8
Calque 1
62
4
5
172
100
AcDbEntity
100
AcDbLine
10
-801.134260
20
136.396249
30
0.0
11
-801.287591
21
135.231546
31
0.0
0
LINE
8
Calque 1
62
4
5
173
100
AcDbEntity
100
AcDbLine
10
-801.287591
20
135.231546
30
0.0
11
-801.287591
21
27.731549
31
0.0
0
LINE
8
Calque 1
62
4
5
174
100
AcDbEntity
100
AcDbLine
10
-801.287591
20
27.731549
30
0.0
11
-792.287609
21
27.731549
31
0.0
0
LINE
8
Calque 1
62
4
5
175
100
AcDbEntity
100
AcDbLine
10
-792.287609
20
27.731549
30
0.0
11
-792.287609
21
135.231546
31
0.0
0
LINE
8
Calque 1
62
4
5
176
100
AcDbEntity
100
AcDbLine
10
-792.287609
20
135.231546
30
0.0
11
-792.440940
21
136.396249
31
0.0
0
LINE
8
Calque 1
62
4
5
177
100
AcDbEntity
100
AcDbLine
10
-792.440940
20
136.396249
30
0.0
11
-792.890492
21
137.481563
31
0.0
0
LINE
8
Calque 1
62
4
5
178
100
AcDbEntity
100
AcDbLine
10
-792.890492
20
137.481563
30
0.0
11
-793.605615
21
138.413545
31
0.0
0
LINE
8
Calque 1
62
4
5
179
100
AcDbEntity
100
AcDbLine
10
-793.605615
20
138.413545
30
0.0
11
-794.537598
21
139.128640
31
0.0
0
LINE
8
Calque 1
62
4
5
17a
100
AcDbEntity
100
AcDbLine
10
-794.537598
20
139.128640
30
0.0
11
-795.622911
21
139.578163
31
0.0
0
LINE
8
Calque 1
62
4
5
17b
100
AcDbEntity
100
AcDbLine
10
-795.622911
20
139.578163
30
0.0
11
-796.787614
21
139.731551
31
0.0
0
LINE
8
Calque 1
62
4
5
17c
100
AcDbEntity
100
AcDbLine
10
-779.833255
20
-6.173243
30
0.0
11
-780.997958
21
-6.326546
31
0.0
0
LINE
8
Calque 1
62
4
5
17d
100
AcDbEntity
100
AcDbLine
10
-780.997958
20
-6.326546
30
0.0
11
-782.083272
21
-6.776126
31
0.0
0
LINE
8
Calque 1
62
4
5
17e
100
AcDbEntity
100
AcDbLine
10
-782.083272
20
-6.776126
30
0.0
11
-783.015254
21
-7.491221
31
0.0
0
LINE
8
Calque 1
62
4
5
17f
100
AcDbEntity
100
AcDbLine
10
-783.015254
20
-7.491221
30
0.0
11
-783.730377
21
-8.423231
31
0.0
0
LINE
8
Calque 1
62
4
5
180
100
AcDbEntity
100
AcDbLine
10
-783.730377
20
-8.423231
30
0.0
11
-784.179929
21
-9.508545
31
0.0
0
LINE
8
Calque 1
62
4
5
181
100
AcDbEntity
100
AcDbLine
10
-784.179929
20
-9.508545
30
0.0
11
-784.333260
21
-10.673220
31
0.0
0
LINE
8
Calque 1
62
4
5
182
100
AcDbEntity
100
AcDbLine
10
-784.333260
20
-10.673220
30
0.0
11
-784.333260
21
-118.173216
31
0.0
0
LINE
8
Calque 1
62
4
5
183
100
AcDbEntity
100
AcDbLine
10
-784.333260
20
-118.173216
30
0.0
11
-775.333250
21
-118.173216
31
0.0
0
LINE
8
Calque 1
62
4
5
184
100
AcDbEntity
100
AcDbLine
10
-775.333250
20
-118.173216
30
0.0
11
-775.333250
21
-10.673220
31
0.0
0
LINE
8
Calque 1
62
4
5
185
100
AcDbEntity
100
AcDbLine
10
-775.333250
20
-10.673220
30
0.0
11
-775.486610
21
-9.508545
31
0.0
0
LINE
8
Calque 1
62
4
5
186
100
AcDbEntity
100
AcDbLine
10
-775.486610
20
-9.508545
30
0.0
11
-775.936162
21
-8.423231
31
0.0
0
LINE
8
Calque 1
62
4
5
187
100
AcDbEntity
100
AcDbLine
10
-775.936162
20
-8.423231
30
0.0
11
-776.651284
21
-7.491221
31
0.0
0
LINE
8
Calque 1
62
4
5
188
100
AcDbEntity
100
AcDbLine
10
-776.651284
20
-7.491221
30
0.0
11
-777.583267
21
-6.776126
31
0.0
0
LINE
8
Calque 1
62
4
5
189
100
AcDbEntity
100
AcDbLine
10
-777.583267
20
-6.776126
30
0.0
11
-778.668581
21
-6.326546
31
0.0
0
LINE
8
Calque 1
62
4
5
18a
100
AcDbEntity
100
AcDbLine
10
-778.668581
20
-6.326546
30
0.0
11
-779.833255
21
-6.173243
31
0.0
0
LINE
8
Calque 1
62
4
5
18b
100
AcDbEntity
100
AcDbLine
10
-754.932591
20
-4.176436
30
0.0
11
-756.097294
21
-4.329824
31
0.0
0
LINE
8
Calque 1
62
4
5
18c
100
AcDbEntity
100
AcDbLine
10
-756.097294
20
-4.329824
30
0.0
11
-757.182608
21
-4.779347
31
0.0
0
LINE
8
Calque 1
62
4
5
18d
100
AcDbEntity
100
AcDbLine
10
-757.182608
20
-4.779347
30
0.0
11
-758.114590
21
-5.494527
31
0.0
0
LINE
8
Calque 1
62
4
5
18e
100
AcDbEntity
100
AcDbLine
10
-758.114590
20
-5.494527
30
0.0
11
-758.829713
21
-6.426424
31
0.0
0
LINE
8
Calque 1
62
4
5
18f
100
AcDbEntity
100
AcDbLine
10
-758.829713
20
-6.426424
30
0.0
11
-759.279265
21
-7.511823
31
0.0
0
LINE
8
Calque 1
62
4
5
190
100
AcDbEntity
100
AcDbLine
10
-759.279265
20
-7.511823
30
0.0
11
-759.432596
21
-8.676441
31
0.0
0
LINE
8
Calque 1
62
4
5
191
100
AcDbEntity
100
AcDbLine
10
-759.432596
20
-8.676441
30
0.0
11
-759.432596
21
-116.176438
31
0.0
0
LINE
8
Calque 1
62
4
5
192
100
AcDbEntity
100
AcDbLine
10
-759.432596
20
-116.176438
30
0.0
11
-750.432614
21
-116.176438
31
0.0
0
LINE
8
Calque 1
62
4
5
193
100
AcDbEntity
100
AcDbLine
10
-750.432614
20
-116.176438
30
0.0
11
-750.432614
21
-8.676441
31
0.0
0
LINE
8
Calque 1
62
4
5
194
100
AcDbEntity
100
AcDbLine
10
-750.432614
20
-8.676441
30
0.0
11
-750.585946
21
-7.511823
31
0.0
0
LINE
8
Calque 1
62
4
5
195
100
AcDbEntity
100
AcDbLine
10
-750.585946
20
-7.511823
30
0.0
11
-751.035497
21
-6.426424
31
0.0
0
LINE
8
Calque 1
62
4
5
196
100
AcDbEntity
100
AcDbLine
10
-751.035497
20
-6.426424
30
0.0
11
-751.750620
21
-5.494527
31
0.0
0
LINE
8
Calque 1
62
4
5
197
100
AcDbEntity
100
AcDbLine
10
-751.750620
20
-5.494527
30
0.0
11
-752.682603
21
-4.779347
31
0.0
0
LINE
8
Calque 1
62
4
5
198
100
AcDbEntity
100
AcDbLine
10
-752.682603
20
-4.779347
30
0.0
11
-753.767916
21
-4.329824
31
0.0
0
LINE
8
Calque 1
62
4
5
199
100
AcDbEntity
100
AcDbLine
10
-753.767916
20
-4.329824
30
0.0
11
-754.932591
21
-4.176436
31
0.0
0
LINE
8
Calque 1
62
4
5
19a
100
AcDbEntity
100
AcDbLine
10
-766.087707
20
10.092070
30
0.0
11
-766.087707
21
150.092042
31
0.0
0
LINE
8
Calque 1
62
4
5
19b
100
AcDbEntity
100
AcDbLine
10
-766.087707
20
150.092042
30
0.0
11
-769.087701
21
150.092042
31
0.0
0
LINE
8
Calque 1
62
4
5
19c
100
AcDbEntity
100
AcDbLine
10
-769.087701
20
150.092042
30
0.0
11
-769.087701
21
153.092064
31
0.0
0
LINE
8
Calque 1
62
4
5
19d
100
AcDbEntity
100
AcDbLine
10
-769.087701
20
153.092064
30
0.0
11
-772.087695
21
153.092064
31
0.0
0
LINE
8
Calque 1
62
4
5
19e
100
AcDbEntity
100
AcDbLine
10
-772.087695
20
153.092064
30
0.0
11
-772.087695
21
150.092042
31
0.0
0
LINE
8
Calque 1
62
4
5
19f
100
AcDbEntity
100
AcDbLine
10
-772.087695
20
150.092042
30
0.0
11
-775.087689
21
150.092042
31
0.0
0
LINE
8
Calque 1
62
4
5
1a0
100
AcDbEntity
100
AcDbLine
10
-775.087689
20
150.092042
30
0.0
11
-775.087689
21
10.092070
31
0.0
0
LINE
8
Calque 1
62
4
5
1a1
100
AcDbEntity
100
AcDbLine
10
-775.087689
20
10.092070
30
0.0
11
-772.087695
21
10.092070
31
0.0
0
LINE
8
Calque 1
62
4
5
1a2
100
AcDbEntity
100
AcDbLine
10
-772.087695
20
10.092070
30
0.0
11
-772.087695
21
7.092076
31
0.0
0
LINE
8
Calque 1
62
4
5
1a3
100
AcDbEntity
100
AcDbLine
10
-772.087695
20
7.092076
30
0.0
11
-769.087701
21
7.092076
31
0.0
0
LINE
8
Calque 1
62
4
5
1a4
100
AcDbEntity
100
AcDbLine
10
-769.087701
20
7.092076
30
0.0
11
-769.087701
21
10.092070
31
0.0
0
LINE
8
Calque 1
62
4
5
1a5
100
AcDbEntity
100
AcDbLine
10
-769.087701
20
10.092070
30
0.0
11
-766.087707
21
10.092070
31
0.0
0
LINE
8
Calque 1
62
4
5
1a6
100
AcDbEntity
100
AcDbLine
10
-721.066037
20
10.550258
30
0.0
11
-721.066037
21
150.550258
31
0.0
0
LINE
8
Calque 1
62
4
5
1a7
100
AcDbEntity
100
AcDbLine
10
-721.066037
20
150.550258
30
0.0
11
-724.066031
21
150.550258
31
0.0
0
LINE
8
Calque 1
62
4
5
1a8
100
AcDbEntity
100
AcDbLine
10
-724.066031
20
150.550258
30
0.0
11
-724.066031
21
153.550252
31
0.0
0
LINE
8
Calque 1
62
4
5
1a9
100
AcDbEntity
100
AcDbLine
10
-724.066031
20
153.550252
30
0.0
11
-727.066025
21
153.550252
31
0.0
0
LINE
8
Calque 1
62
4
5
1aa
100
AcDbEntity
100
AcDbLine
10
-727.066025
20
153.550252
30
0.0
11
-727.066025
21
150.550258
31
0.0
0
LINE
8
Calque 1
62
4
5
1ab
100
AcDbEntity
100
AcDbLine
10
-727.066025
20
150.550258
30
0.0
11
-730.066019
21
150.550258
31
0.0
0
LINE
8
Calque 1
62
4
5
1ac
100
AcDbEntity
100
AcDbLine
10
-730.066019
20
150.550258
30
0.0
11
-730.066019
21
10.550258
31
0.0
0
LINE
8
Calque 1
62
4
5
1ad
100
AcDbEntity
100
AcDbLine
10
-730.066019
20
10.550258
30
0.0
11
-727.066025
21
10.550258
31
0.0
0
LINE
8
Calque 1
62
4
5
1ae
100
AcDbEntity
100
AcDbLine
10
-727.066025
20
10.550258
30
0.0
11
-727.066025
21
7.550264
31
0.0
0
LINE
8
Calque 1
62
4
5
1af
100
AcDbEntity
100
AcDbLine
10
-727.066025
20
7.550264
30
0.0
11
-724.066031
21
7.550264
31
0.0
0
LINE
8
Calque 1
62
4
5
1b0
100
AcDbEntity
100
AcDbLine
10
-724.066031
20
7.550264
30
0.0
11
-724.066031
21
10.550258
31
0.0
0
LINE
8
Calque 1
62
4
5
1b1
100
AcDbEntity
100
AcDbLine
10
-724.066031
20
10.550258
30
0.0
11
-721.066037
21
10.550258
31
0.0
0
LINE
8
Calque 1
62
4
5
1b2
100
AcDbEntity
100
AcDbLine
10
-737.810705
20
12.049874
30
0.0
11
-734.810711
21
12.049874
31
0.0
0
LINE
8
Calque 1
62
4
5
1b3
100
AcDbEntity
100
AcDbLine
10
-734.810711
20
12.049874
30
0.0
11
-734.810711
21
152.049845
31
0.0
0
LINE
8
Calque 1
62
4
5
1b4
100
AcDbEntity
100
AcDbLine
10
-734.810711
20
152.049845
30
0.0
11
-737.810705
21
152.049845
31
0.0
0
LINE
8
Calque 1
62
4
5
1b5
100
AcDbEntity
100
AcDbLine
10
-737.810705
20
152.049845
30
0.0
11
-737.810705
21
155.049839
31
0.0
0
LINE
8
Calque 1
62
4
5
1b6
100
AcDbEntity
100
AcDbLine
10
-737.810705
20
155.049839
30
0.0
11
-743.810693
21
155.049839
31
0.0
0
LINE
8
Calque 1
62
4
5
1b7
100
AcDbEntity
100
AcDbLine
10
-743.810693
20
155.049839
30
0.0
11
-743.810693
21
152.049845
31
0.0
0
LINE
8
Calque 1
62
4
5
1b8
100
AcDbEntity
100
AcDbLine
10
-743.810693
20
152.049845
30
0.0
11
-749.810709
21
152.049845
31
0.0
0
LINE
8
Calque 1
62
4
5
1b9
100
AcDbEntity
100
AcDbLine
10
-749.810709
20
152.049845
30
0.0
11
-749.810709
21
12.049874
31
0.0
0
LINE
8
Calque 1
62
4
5
1ba
100
AcDbEntity
100
AcDbLine
10
-749.810709
20
12.049874
30
0.0
11
-743.810693
21
12.049874
31
0.0
0
LINE
8
Calque 1
62
4
5
1bb
100
AcDbEntity
100
AcDbLine
10
-743.810693
20
12.049874
30
0.0
11
-743.810693
21
9.049852
31
0.0
0
LINE
8
Calque 1
62
4
5
1bc
100
AcDbEntity
100
AcDbLine
10
-743.810693
20
9.049852
30
0.0
11
-737.810705
21
9.049852
31
0.0
0
LINE
8
Calque 1
62
4
5
1bd
100
AcDbEntity
100
AcDbLine
10
-737.810705
20
9.049852
30
0.0
11
-737.810705
21
12.049874
31
0.0
0
LINE
8
Calque 1
62
4
5
1be
100
AcDbEntity
100
AcDbLine
10
-779.769530
20
10.569675
30
0.0
11
-779.769530
21
150.569646
31
0.0
0
LINE
8
Calque 1
62
4
5
1bf
100
AcDbEntity
100
AcDbLine
10
-779.769530
20
150.569646
30
0.0
11
-782.769524
21
150.569646
31
0.0
0
LINE
8
Calque 1
62
4
5
1c0
100
AcDbEntity
100
AcDbLine
10
-782.769524
20
150.569646
30
0.0
11
-782.769524
21
153.569640
31
0.0
0
LINE
8
Calque 1
62
4
5
1c1
100
AcDbEntity
100
AcDbLine
10
-782.769524
20
153.569640
30
0.0
11
-785.769546
21
153.569640
31
0.0
0
LINE
8
Calque 1
62
4
5
1c2
100
AcDbEntity
100
AcDbLine
10
-785.769546
20
153.569640
30
0.0
11
-785.769546
21
150.569646
31
0.0
0
LINE
8
Calque 1
62
4
5
1c3
100
AcDbEntity
100
AcDbLine
10
-785.769546
20
150.569646
30
0.0
11
-788.769540
21
150.569646
31
0.0
0
LINE
8
Calque 1
62
4
5
1c4
100
AcDbEntity
100
AcDbLine
10
-788.769540
20
150.569646
30
0.0
11
-788.769540
21
10.569675
31
0.0
0
LINE
8
Calque 1
62
4
5
1c5
100
AcDbEntity
100
AcDbLine
10
-788.769540
20
10.569675
30
0.0
11
-785.769546
21
10.569675
31
0.0
0
LINE
8
Calque 1
62
4
5
1c6
100
AcDbEntity
100
AcDbLine
10
-785.769546
20
10.569675
30
0.0
11
-785.769546
21
7.569653
31
0.0
0
LINE
8
Calque 1
62
4
5
1c7
100
AcDbEntity
100
AcDbLine
10
-785.769546
20
7.569653
30
0.0
11
-782.769524
21
7.569653
31
0.0
0
LINE
8
Calque 1
62
4
5
1c8
100
AcDbEntity
100
AcDbLine
10
-782.769524
20
7.569653
30
0.0
11
-782.769524
21
10.569675
31
0.0
0
LINE
8
Calque 1
62
4
5
1c9
100
AcDbEntity
100
AcDbLine
10
-782.769524
20
10.569675
30
0.0
11
-779.769530
21
10.569675
31
0.0
0
LINE
8
Calque 1
62
4
5
1ca
100
AcDbEntity
100
AcDbLine
10
-770.688832
20
314.554240
30
0.0
11
-770.688832
21
454.554227
31
0.0
0
LINE
8
Calque 1
62
4
5
1cb
100
AcDbEntity
100
AcDbLine
10
-770.688832
20
454.554227
30
0.0
11
-778.688816
21
454.554227
31
0.0
0
LINE
8
Calque 1
62
4
5
1cc
100
AcDbEntity
100
AcDbLine
10
-778.688816
20
454.554227
30
0.0
11
-778.688816
21
457.554227
31
0.0
0
LINE
8
Calque 1
62
4
5
1cd
100
AcDbEntity
100
AcDbLine
10
-778.688816
20
457.554227
30
0.0
11
-798.688832
21
457.554227
31
0.0
0
LINE
8
Calque 1
62
4
5
1ce
100
AcDbEntity
100
AcDbLine
10
-798.688832
20
457.554227
30
0.0
11
-798.688832
21
454.554227
31
0.0
0
LINE
8
Calque 1
62
4
5
1cf
100
AcDbEntity
100
AcDbLine
10
-798.688832
20
454.554227
30
0.0
11
-803.688822
21
454.554227
31
0.0
0
LINE
8
Calque 1
62
4
5
1d0
100
AcDbEntity
100
AcDbLine
10
-803.688822
20
454.554227
30
0.0
11
-803.688822
21
314.554240
31
0.0
0
LINE
8
Calque 1
62
4
5
1d1
100
AcDbEntity
100
AcDbLine
10
-803.688822
20
314.554240
30
0.0
11
-798.688832
21
314.554240
31
0.0
0
LINE
8
Calque 1
62
4
5
1d2
100
AcDbEntity
100
AcDbLine
10
-798.688832
20
314.554240
30
0.0
11
-798.688832
21
311.554240
31
0.0
0
LINE
8
Calque 1
62
4
5
1d3
100
AcDbEntity
100
AcDbLine
10
-798.688832
20
311.554240
30
0.0
11
-778.688816
21
311.554240
31
0.0
0
LINE
8
Calque 1
62
4
5
1d4
100
AcDbEntity
100
AcDbLine
10
-778.688816
20
311.554240
30
0.0
11
-778.688816
21
314.554240
31
0.0
0
LINE
8
Calque 1
62
4
5
1d5
100
AcDbEntity
100
AcDbLine
10
-778.688816
20
314.554240
30
0.0
11
-770.688832
21
314.554240
31
0.0
0
LINE
8
Calque 1
62
4
5
1d6
100
AcDbEntity
100
AcDbLine
10
-767.660870
20
-3.935221
30
0.0
11
-768.825544
21
-4.088637
31
0.0
0
LINE
8
Calque 1
62
4
5
1d7
100
AcDbEntity
100
AcDbLine
10
-768.825544
20
-4.088637
30
0.0
11
-769.910858
21
-4.538132
31
0.0
0
LINE
8
Calque 1
62
4
5
1d8
100
AcDbEntity
100
AcDbLine
10
-769.910858
20
-4.538132
30
0.0
11
-770.842841
21
-5.253340
31
0.0
0
LINE
8
Calque 1
62
4
5
1d9
100
AcDbEntity
100
AcDbLine
10
-770.842841
20
-5.253340
30
0.0
11
-771.557992
21
-6.185237
31
0.0
0
LINE
8
Calque 1
62
4
5
1da
100
AcDbEntity
100
AcDbLine
10
-771.557992
20
-6.185237
30
0.0
11
-772.007544
21
-7.270636
31
0.0
0
LINE
8
Calque 1
62
4
5
1db
100
AcDbEntity
100
AcDbLine
10
-772.007544
20
-7.270636
30
0.0
11
-772.160875
21
-8.435226
31
0.0
0
LINE
8
Calque 1
62
4
5
1dc
100
AcDbEntity
100
AcDbLine
10
-772.160875
20
-8.435226
30
0.0
11
-772.160875
21
-115.935222
31
0.0
0
LINE
8
Calque 1
62
4
5
1dd
100
AcDbEntity
100
AcDbLine
10
-772.160875
20
-115.935222
30
0.0
11
-763.160865
21
-115.935222
31
0.0
0
LINE
8
Calque 1
62
4
5
1de
100
AcDbEntity
100
AcDbLine
10
-763.160865
20
-115.935222
30
0.0
11
-763.160865
21
-8.435226
31
0.0
0
LINE
8
Calque 1
62
4
5
1df
100
AcDbEntity
100
AcDbLine
10
-763.160865
20
-8.435226
30
0.0
11
-763.314196
21
-7.270636
31
0.0
0
LINE
8
Calque 1
62
4
5
1e0
100
AcDbEntity
100
AcDbLine
10
-763.314196
20
-7.270636
30
0.0
11
-763.763748
21
-6.185237
31
0.0
0
LINE
8
Calque 1
62
4
5
1e1
100
AcDbEntity
100
AcDbLine
10
-763.763748
20
-6.185237
30
0.0
11
-764.478871
21
-5.253340
31
0.0
0
LINE
8
Calque 1
62
4
5
1e2
100
AcDbEntity
100
AcDbLine
10
-764.478871
20
-5.253340
30
0.0
11
-765.410853
21
-4.538132
31
0.0
0
LINE
8
Calque 1
62
4
5
1e3
100
AcDbEntity
100
AcDbLine
10
-765.410853
20
-4.538132
30
0.0
11
-766.496195
21
-4.088637
31
0.0
0
LINE
8
Calque 1
62
4
5
1e4
100
AcDbEntity
100
AcDbLine
10
-766.496195
20
-4.088637
30
0.0
11
-767.660870
21
-3.935221
31
0.0
0
LINE
8
Calque 1
62
4
5
1e5
100
AcDbEntity
100
AcDbLine
10
-731.115576
20
315.127340
30
0.0
11
-731.115576
21
455.127327
31
0.0
0
LINE
8
Calque 1
62
4
5
1e6
100
AcDbEntity
100
AcDbLine
10
-731.115576
20
455.127327
30
0.0
11
-739.115560
21
455.127327
31
0.0
0
LINE
8
Calque 1
62
4
5
1e7
100
AcDbEntity
100
AcDbLine
10
-739.115560
20
455.127327
30
0.0
11
-739.115560
21
458.127327
31
0.0
0
LINE
8
Calque 1
62
4
5
1e8
100
AcDbEntity
100
AcDbLine
10
-739.115560
20
458.127327
30
0.0
11
-759.115576
21
458.127327
31
0.0
0
LINE
8
Calque 1
62
4
5
1e9
100
AcDbEntity
100
AcDbLine
10
-759.115576
20
458.127327
30
0.0
11
-759.115576
21
455.127327
31
0.0
0
LINE
8
Calque 1
62
4
5
1ea
100
AcDbEntity
100
AcDbLine
10
-759.115576
20
455.127327
30
0.0
11
-764.115566
21
455.127327
31
0.0
0
LINE
8
Calque 1
62
4
5
1eb
100
AcDbEntity
100
AcDbLine
10
-764.115566
20
455.127327
30
0.0
11
-764.115566
21
315.127340
31
0.0
0
LINE
8
Calque 1
62
4
5
1ec
100
AcDbEntity
100
AcDbLine
10
-764.115566
20
315.127340
30
0.0
11
-759.115576
21
315.127340
31
0.0
0
LINE
8
Calque 1
62
4
5
1ed
100
AcDbEntity
100
AcDbLine
10
-759.115576
20
315.127340
30
0.0
11
-759.115576
21
312.127338
31
0.0
0
LINE
8
Calque 1
62
4
5
1ee
100
AcDbEntity
100
AcDbLine
10
-759.115576
20
312.127338
30
0.0
11
-739.115560
21
312.127338
31
0.0
0
LINE
8
Calque 1
62
4
5
1ef
100
AcDbEntity
100
AcDbLine
10
-739.115560
20
312.127338
30
0.0
11
-739.115560
21
315.127340
31
0.0
0
LINE
8
Calque 1
62
4
5
1f0
100
AcDbEntity
100
AcDbLine
10
-739.115560
20
315.127340
30
0.0
11
-731.115576
21
315.127340
31
0.0
0
LINE
8
Calque 1
62
4
5
1f1
100
AcDbEntity
100
AcDbLine
10
-766.332901
20
156.720962
30
0.0
11
-766.332901
21
308.720938
31
0.0
0
LINE
8
Calque 1
62
4
5
1f2
100
AcDbEntity
100
AcDbLine
10
-766.332901
20
308.720938
30
0.0
11
-799.332892
21
308.720938
31
0.0
0
LINE
8
Calque 1
62
4
5
1f3
100
AcDbEntity
100
AcDbLine
10
-799.332892
20
308.720938
30
0.0
11
-799.332892
21
305.720938
31
0.0
0
LINE
8
Calque 1
62
4
5
1f4
100
AcDbEntity
100
AcDbLine
10
-799.332892
20
305.720938
30
0.0
11
-784.332894
21
305.720938
31
0.0
0
LINE
8
Calque 1
62
4
5
1f5
100
AcDbEntity
100
AcDbLine
10
-784.332894
20
305.720938
30
0.0
11
-784.332894
21
302.720939
31
0.0
0
LINE
8
Calque 1
62
4
5
1f6
100
AcDbEntity
100
AcDbLine
10
-784.332894
20
302.720939
30
0.0
11
-802.332886
21
302.720939
31
0.0
0
LINE
8
Calque 1
62
4
5
1f7
100
AcDbEntity
100
AcDbLine
10
-802.332886
20
302.720939
30
0.0
11
-802.332886
21
162.720950
31
0.0
0
LINE
8
Calque 1
62
4
5
1f8
100
AcDbEntity
100
AcDbLine
10
-802.332886
20
162.720950
30
0.0
11
-784.332894
21
162.720950
31
0.0
0
LINE
8
Calque 1
62
4
5
1f9
100
AcDbEntity
100
AcDbLine
10
-784.332894
20
162.720950
30
0.0
11
-784.332894
21
159.720956
31
0.0
0
LINE
8
Calque 1
62
4
5
1fa
100
AcDbEntity
100
AcDbLine
10
-784.332894
20
159.720956
30
0.0
11
-799.332892
21
159.720956
31
0.0
0
LINE
8
Calque 1
62
4
5
1fb
100
AcDbEntity
100
AcDbLine
10
-799.332892
20
159.720956
30
0.0
11
-799.332892
21
156.720962
31
0.0
0
LINE
8
Calque 1
62
4
5
1fc
100
AcDbEntity
100
AcDbLine
10
-799.332892
20
156.720962
30
0.0
11
-766.332901
21
156.720962
31
0.0
0
LINE
8
Calque 1
62
4
5
1fd
100
AcDbEntity
100
AcDbLine
10
-752.988362
20
11.809477
30
0.0
11
-752.988362
21
151.809449
31
0.0
0
LINE
8
Calque 1
62
4
5
1fe
100
AcDbEntity
100
AcDbLine
10
-752.988362
20
151.809449
30
0.0
11
-755.988356
21
151.809449
31
0.0
0
LINE
8
Calque 1
62
4
5
1ff
100
AcDbEntity
100
AcDbLine
10
-755.988356
20
151.809449
30
0.0
11
-755.988356
21
154.809443
31
0.0
0
LINE
8
Calque 1
62
4
5
200
100
AcDbEntity
100
AcDbLine
10
-755.988356
20
154.809443
30
0.0
11
-758.988350
21
154.809443
31
0.0
0
LINE
8
Calque 1
62
4
5
201
100
AcDbEntity
100
AcDbLine
10
-758.988350
20
154.809443
30
0.0
11
-758.988350
21
151.809449
31
0.0
0
LINE
8
Calque 1
62
4
5
202
100
AcDbEntity
100
AcDbLine
10
-758.988350
20
151.809449
30
0.0
11
-761.988344
21
151.809449
31
0.0
0
LINE
8
Calque 1
62
4
5
203
100
AcDbEntity
100
AcDbLine
10
-761.988344
20
151.809449
30
0.0
11
-761.988344
21
11.809477
31
0.0
0
LINE
8
Calque 1
62
4
5
204
100
AcDbEntity
100
AcDbLine
10
-761.988344
20
11.809477
30
0.0
11
-758.988350
21
11.809477
31
0.0
0
LINE
8
Calque 1
62
4
5
205
100
AcDbEntity
100
AcDbLine
10
-758.988350
20
11.809477
30
0.0
11
-758.988350
21
8.809455
31
0.0
0
LINE
8
Calque 1
62
4
5
206
100
AcDbEntity
100
AcDbLine
10
-758.988350
20
8.809455
30
0.0
11
-755.988356
21
8.809455
31
0.0
0
LINE
8
Calque 1
62
4
5
207
100
AcDbEntity
100
AcDbLine
10
-755.988356
20
8.809455
30
0.0
11
-755.988356
21
11.809477
31
0.0
0
LINE
8
Calque 1
62
4
5
208
100
AcDbEntity
100
AcDbLine
10
-755.988356
20
11.809477
30
0.0
11
-752.988362
21
11.809477
31
0.0
0
LINE
8
Calque 1
62
4
5
209
100
AcDbEntity
100
AcDbLine
10
-730.338590
20
164.843148
30
0.0
11
-730.338590
21
304.843140
31
0.0
0
LINE
8
Calque 1
62
4
5
20a
100
AcDbEntity
100
AcDbLine
10
-730.338590
20
304.843140
30
0.0
11
-738.338574
21
304.843140
31
0.0
0
LINE
8
Calque 1
62
4
5
20b
100
AcDbEntity
100
AcDbLine
10
-738.338574
20
304.843140
30
0.0
11
-738.338574
21
307.843139
31
0.0
0
LINE
8
Calque 1
62
4
5
20c
100
AcDbEntity
100
AcDbLine
10
-738.338574
20
307.843139
30
0.0
11
-758.338590
21
307.843139
31
0.0
0
LINE
8
Calque 1
62
4
5
20d
100
AcDbEntity
100
AcDbLine
10
-758.338590
20
307.843139
30
0.0
11
-758.338590
21
304.843140
31
0.0
0
LINE
8
Calque 1
62
4
5
20e
100
AcDbEntity
100
AcDbLine
10
-758.338590
20
304.843140
30
0.0
11
-763.338580
21
304.843140
31
0.0
0
LINE
8
Calque 1
62
4
5
20f
100
AcDbEntity
100
AcDbLine
10
-763.338580
20
304.843140
30
0.0
11
-763.338580
21
164.843148
31
0.0
0
LINE
8
Calque 1
62
4
5
210
100
AcDbEntity
100
AcDbLine
10
-763.338580
20
164.843148
30
0.0
11
-758.338590
21
164.843148
31
0.0
0
LINE
8
Calque 1
62
4
5
211
100
AcDbEntity
100
AcDbLine
10
-758.338590
20
164.843148
30
0.0
11
-758.338590
21
161.843154
31
0.0
0
LINE
8
Calque 1
62
4
5
212
100
AcDbEntity
100
AcDbLine
10
-758.338590
20
161.843154
30
0.0
11
-738.338574
21
161.843154
31
0.0
0
LINE
8
Calque 1
62
4
5
213
100
AcDbEntity
100
AcDbLine
10
-738.338574
20
161.843154
30
0.0
11
-738.338574
21
164.843148
31
0.0
0
LINE
8
Calque 1
62
4
5
214
100
AcDbEntity
100
AcDbLine
10
-738.338574
20
164.843148
30
0.0
11
-730.338590
21
164.843148
31
0.0
0
LINE
8
Calque 1
62
4
5
215
100
AcDbEntity
100
AcDbLine
10
-756.432602
20
-7.176430
30
0.0
11
-756.432602
21
-10.176424
31
0.0
0
LINE
8
Calque 1
62
4
5
216
100
AcDbEntity
100
AcDbLine
10
-756.432602
20
-10.176424
30
0.0
11
-753.432608
21
-10.176424
31
0.0
0
LINE
8
Calque 1
62
4
5
217
100
AcDbEntity
100
AcDbLine
10
-753.432608
20
-10.176424
30
0.0
11
-753.432608
21
-7.176430
31
0.0
0
LINE
8
Calque 1
62
4
5
218
100
AcDbEntity
100
AcDbLine
10
-753.432608
20
-7.176430
30
0.0
11
-756.432602
21
-7.176430
31
0.0
0
LINE
8
Calque 1
62
4
5
219
100
AcDbEntity
100
AcDbLine
10
-756.432602
20
-53.176423
30
0.0
11
-753.432608
21
-53.176423
31
0.0
0
LINE
8
Calque 1
62
4
5
21a
100
AcDbEntity
100
AcDbLine
10
-753.432608
20
-53.176423
30
0.0
11
-753.432608
21
-43.176443
31
0.0
0
LINE
8
Calque 1
62
4
5
21b
100
AcDbEntity
100
AcDbLine
10
-753.432608
20
-43.176443
30
0.0
11
-756.432602
21
-43.176443
31
0.0
0
LINE
8
Calque 1
62
4
5
21c
100
AcDbEntity
100
AcDbLine
10
-756.432602
20
-43.176443
30
0.0
11
-756.432602
21
-53.176423
31
0.0
0
LINE
8
Calque 1
62
4
5
21d
100
AcDbEntity
100
AcDbLine
10
-753.432608
20
-23.176426
30
0.0
11
-756.432602
21
-23.176426
31
0.0
0
LINE
8
Calque 1
62
4
5
21e
100
AcDbEntity
100
AcDbLine
10
-756.432602
20
-23.176426
30
0.0
11
-756.432602
21
-33.176434
31
0.0
0
LINE
8
Calque 1
62
4
5
21f
100
AcDbEntity
100
AcDbLine
10
-756.432602
20
-33.176434
30
0.0
11
-753.432608
21
-33.176434
31
0.0
0
LINE
8
Calque 1
62
4
5
220
100
AcDbEntity
100
AcDbLine
10
-753.432608
20
-33.176434
30
0.0
11
-753.432608
21
-23.176426
31
0.0
0
LINE
8
Calque 1
62
4
5
221
100
AcDbEntity
100
AcDbLine
10
-756.432602
20
-63.176431
30
0.0
11
-756.432602
21
-73.176439
31
0.0
0
LINE
8
Calque 1
62
4
5
222
100
AcDbEntity
100
AcDbLine
10
-756.432602
20
-73.176439
30
0.0
11
-753.432608
21
-73.176439
31
0.0
0
LINE
8
Calque 1
62
4
5
223
100
AcDbEntity
100
AcDbLine
10
-753.432608
20
-73.176439
30
0.0
11
-753.432608
21
-63.176431
31
0.0
0
LINE
8
Calque 1
62
4
5
224
100
AcDbEntity
100
AcDbLine
10
-753.432608
20
-63.176431
30
0.0
11
-756.432602
21
-63.176431
31
0.0
0
LINE
8
Calque 1
62
4
5
225
100
AcDbEntity
100
AcDbLine
10
-753.432608
20
-83.176419
30
0.0
11
-756.432602
21
-83.176419
31
0.0
0
LINE
8
Calque 1
62
4
5
226
100
AcDbEntity
100
AcDbLine
10
-756.432602
20
-83.176419
30
0.0
11
-756.432602
21
-93.176427
31
0.0
0
LINE
8
Calque 1
62
4
5
227
100
AcDbEntity
100
AcDbLine
10
-756.432602
20
-93.176427
30
0.0
11
-753.432608
21
-93.176427
31
0.0
0
LINE
8
Calque 1
62
4
5
228
100
AcDbEntity
100
AcDbLine
10
-753.432608
20
-93.176427
30
0.0
11
-753.432608
21
-83.176419
31
0.0
0
LINE
8
Calque 1
62
4
5
229
100
AcDbEntity
100
AcDbLine
10
-753.432608
20
-103.176436
30
0.0
11
-756.432602
21
-103.176436
31
0.0
0
LINE
8
Calque 1
62
4
5
22a
100
AcDbEntity
100
AcDbLine
10
-756.432602
20
-103.176436
30
0.0
11
-756.432602
21
-113.176416
31
0.0
0
LINE
8
Calque 1
62
4
5
22b
100
AcDbEntity
100
AcDbLine
10
-756.432602
20
-113.176416
30
0.0
11
-753.432608
21
-113.176416
31
0.0
0
LINE
8
Calque 1
62
4
5
22c
100
AcDbEntity
100
AcDbLine
10
-753.432608
20
-113.176416
30
0.0
11
-753.432608
21
-103.176436
31
0.0
0
LINE
8
Calque 1
62
4
5
22d
100
AcDbEntity
100
AcDbLine
10
-781.333238
20
-9.168185
30
0.0
11
-781.333238
21
-12.168179
31
0.0
0
LINE
8
Calque 1
62
4
5
22e
100
AcDbEntity
100
AcDbLine
10
-781.333238
20
-12.168179
30
0.0
11
-778.333216
21
-12.168179
31
0.0
0
LINE
8
Calque 1
62
4
5
22f
100
AcDbEntity
100
AcDbLine
10
-778.333216
20
-12.168179
30
0.0
11
-778.333216
21
-9.168185
31
0.0
0
LINE
8
Calque 1
62
4
5
230
100
AcDbEntity
100
AcDbLine
10
-778.333216
20
-9.168185
30
0.0
11
-781.333238
21
-9.168185
31
0.0
0
LINE
8
Calque 1
62
4
5
231
100
AcDbEntity
100
AcDbLine
10
-781.333238
20
-55.168178
30
0.0
11
-778.333216
21
-55.168178
31
0.0
0
LINE
8
Calque 1
62
4
5
232
100
AcDbEntity
100
AcDbLine
10
-778.333216
20
-55.168178
30
0.0
11
-778.333216
21
-45.168170
31
0.0
0
LINE
8
Calque 1
62
4
5
233
100
AcDbEntity
100
AcDbLine
10
-778.333216
20
-45.168170
30
0.0
11
-781.333238
21
-45.168170
31
0.0
0
LINE
8
Calque 1
62
4
5
234
100
AcDbEntity
100
AcDbLine
10
-781.333238
20
-45.168170
30
0.0
11
-781.333238
21
-55.168178
31
0.0
0
LINE
8
Calque 1
62
4
5
235
100
AcDbEntity
100
AcDbLine
10
-778.333216
20
-25.168181
30
0.0
11
-781.333238
21
-25.168181
31
0.0
0
LINE
8
Calque 1
62
4
5
236
100
AcDbEntity
100
AcDbLine
10
-781.333238
20
-25.168181
30
0.0
11
-781.333238
21
-35.168190
31
0.0
0
LINE
8
Calque 1
62
4
5
237
100
AcDbEntity
100
AcDbLine
10
-781.333238
20
-35.168190
30
0.0
11
-778.333216
21
-35.168190
31
0.0
0
LINE
8
Calque 1
62
4
5
238
100
AcDbEntity
100
AcDbLine
10
-778.333216
20
-35.168190
30
0.0
11
-778.333216
21
-25.168181
31
0.0
0
LINE
8
Calque 1
62
4
5
239
100
AcDbEntity
100
AcDbLine
10
-781.333238
20
-65.168186
30
0.0
11
-781.333238
21
-75.168166
31
0.0
0
LINE
8
Calque 1
62
4
5
23a
100
AcDbEntity
100
AcDbLine
10
-781.333238
20
-75.168166
30
0.0
11
-778.333216
21
-75.168166
31
0.0
0
LINE
8
Calque 1
62
4
5
23b
100
AcDbEntity
100
AcDbLine
10
-778.333216
20
-75.168166
30
0.0
11
-778.333216
21
-65.168186
31
0.0
0
LINE
8
Calque 1
62
4
5
23c
100
AcDbEntity
100
AcDbLine
10
-778.333216
20
-65.168186
30
0.0
11
-781.333238
21
-65.168186
31
0.0
0
LINE
8
Calque 1
62
4
5
23d
100
AcDbEntity
100
AcDbLine
10
-778.333216
20
-85.168174
30
0.0
11
-781.333238
21
-85.168174
31
0.0
0
LINE
8
Calque 1
62
4
5
23e
100
AcDbEntity
100
AcDbLine
10
-781.333238
20
-85.168174
30
0.0
11
-781.333238
21
-95.168182
31
0.0
0
LINE
8
Calque 1
62
4
5
23f
100
AcDbEntity
100
AcDbLine
10
-781.333238
20
-95.168182
30
0.0
11
-778.333216
21
-95.168182
31
0.0
0
LINE
8
Calque 1
62
4
5
240
100
AcDbEntity
100
AcDbLine
10
-778.333216
20
-95.168182
30
0.0
11
-778.333216
21
-85.168174
31
0.0
0
LINE
8
Calque 1
62
4
5
241
100
AcDbEntity
100
AcDbLine
10
-778.333216
20
-105.168162
30
0.0
11
-781.333238
21
-105.168162
31
0.0
0
LINE
8
Calque 1
62
4
5
242
100
AcDbEntity
100
AcDbLine
10
-781.333238
20
-105.168162
30
0.0
11
-781.333238
21
-115.168171
31
0.0
0
LINE
8
Calque 1
62
4
5
243
100
AcDbEntity
100
AcDbLine
10
-781.333238
20
-115.168171
30
0.0
11
-778.333216
21
-115.168171
31
0.0
0
LINE
8
Calque 1
62
4
5
244
100
AcDbEntity
100
AcDbLine
10
-778.333216
20
-115.168171
30
0.0
11
-778.333216
21
-105.168162
31
0.0
0
LINE
8
Calque 1
62
4
5
245
100
AcDbEntity
100
AcDbLine
10
86.226636
20
-136.389080
30
0.0
11
-713.773387
21
-136.379203
31
0.0
0
LINE
8
Calque 1
62
4
5
246
100
AcDbEntity
100
AcDbLine
10
-416.773134
20
-97.576102
30
0.0
11
-413.773112
21
-97.576102
31
0.0
0
LINE
8
Calque 1
62
4
5
247
100
AcDbEntity
100
AcDbLine
10
-413.773112
20
-97.576102
30
0.0
11
-413.772999
21
-77.576114
31
0.0
0
LINE
8
Calque 1
62
4
5
248
100
AcDbEntity
100
AcDbLine
10
-413.772999
20
-77.576114
30
0.0
11
-416.772993
21
-77.576114
31
0.0
0
LINE
8
Calque 1
62
4
5
249
100
AcDbEntity
100
AcDbLine
10
-416.772993
20
-77.576114
30
0.0
11
-416.773134
21
-97.576102
31
0.0
0
LINE
8
Calque 1
62
4
5
24a
100
AcDbEntity
100
AcDbLine
10
-416.773134
20
22.423881
30
0.0
11
-416.773275
21
2.423895
31
0.0
0
LINE
8
Calque 1
62
4
5
24b
100
AcDbEntity
100
AcDbLine
10
-416.773275
20
2.423895
30
0.0
11
-413.773253
21
2.423895
31
0.0
0
LINE
8
Calque 1
62
4
5
24c
100
AcDbEntity
100
AcDbLine
10
-413.773253
20
2.423895
30
0.0
11
-413.773112
21
22.423881
31
0.0
0
LINE
8
Calque 1
62
4
5
24d
100
AcDbEntity
100
AcDbLine
10
-413.773112
20
22.423881
30
0.0
11
-416.773134
21
22.423881
31
0.0
0
LINE
8
Calque 1
62
4
5
24e
100
AcDbEntity
100
AcDbLine
10
-416.773134
20
102.423862
30
0.0
11
-413.773140
21
102.423862
31
0.0
0
LINE
8
Calque 1
62
4
5
24f
100
AcDbEntity
100
AcDbLine
10
-413.773140
20
102.423862
30
0.0
11
-413.772999
21
122.423878
31
0.0
0
LINE
8
Calque 1
62
4
5
250
100
AcDbEntity
100
AcDbLine
10
-413.772999
20
122.423878
30
0.0
11
-416.773021
21
122.423878
31
0.0
0
LINE
8
Calque 1
62
4
5
251
100
AcDbEntity
100
AcDbLine
10
-416.773021
20
122.423878
30
0.0
11
-416.773134
21
102.423862
31
0.0
0
LINE
8
Calque 1
62
4
5
252
100
AcDbEntity
100
AcDbLine
10
93.136395
20
392.210184
30
0.0
11
93.133573
21
443.609779
31
0.0
0
LINE
8
Calque 1
62
4
5
253
100
AcDbEntity
100
AcDbLine
10
93.133573
20
443.609779
30
0.0
11
93.138371
21
463.610879
31
0.0
0
LINE
8
Calque 1
62
4
5
254
100
AcDbEntity
100
AcDbLine
10
93.138371
20
463.610879
30
0.0
11
-722.861789
21
463.610879
31
0.0
0
LINE
8
Calque 1
62
4
5
255
100
AcDbEntity
100
AcDbLine
10
93.134928
20
171.121605
30
0.0
11
93.137750
21
392.210384
31
0.0
0
LINE
8
Calque 1
62
4
5
256
100
AcDbEntity
100
AcDbLine
10
-714.859801
20
205.182598
30
0.0
11
-717.860755
21
205.182598
31
0.0
0
LINE
8
Calque 1
62
4
5
257
100
AcDbEntity
100
AcDbLine
10
-717.860755
20
205.182598
30
0.0
11
-717.860755
21
239.243897
31
0.0
0
LINE
8
Calque 1
62
4
5
258
100
AcDbEntity
100
AcDbLine
10
-717.860755
20
239.243897
30
0.0
11
-714.860394
21
239.243996
31
0.0
0
LINE
8
Calque 1
62
4
5
259
100
AcDbEntity
100
AcDbLine
10
-714.860394
20
239.243996
30
0.0
11
-714.860422
21
205.182598
31
0.0
0
LINE
8
Calque 1
62
4
5
25a
100
AcDbEntity
100
AcDbLine
10
-717.862674
20
273.305394
30
0.0
11
-717.862646
21
307.366791
31
0.0
0
LINE
8
Calque 1
62
4
5
25b
100
AcDbEntity
100
AcDbLine
10
-717.862646
20
307.366791
30
0.0
11
-714.860450
21
307.366791
31
0.0
0
LINE
8
Calque 1
62
4
5
25c
100
AcDbEntity
100
AcDbLine
10
-714.860450
20
307.366791
30
0.0
11
-714.860450
21
273.305394
31
0.0
0
LINE
8
Calque 1
62
4
5
25d
100
AcDbEntity
100
AcDbLine
10
-714.860450
20
273.305394
30
0.0
11
-717.862674
21
273.305394
31
0.0
0
LINE
8
Calque 1
62
4
5
25e
100
AcDbEntity
100
AcDbLine
10
-717.862674
20
341.428187
30
0.0
11
-717.862646
21
375.489584
31
0.0
0
LINE
8
Calque 1
62
4
5
25f
100
AcDbEntity
100
AcDbLine
10
-717.862646
20
375.489584
30
0.0
11
-714.859209
21
375.489686
31
0.0
0
LINE
8
Calque 1
62
4
5
260
100
AcDbEntity
100
AcDbLine
10
-714.859209
20
375.489686
30
0.0
11
-714.859209
21
341.428289
31
0.0
0
LINE
8
Calque 1
62
4
5
261
100
AcDbEntity
100
AcDbLine
10
-714.859209
20
341.428289
30
0.0
11
-717.862674
21
341.428187
31
0.0
0
LINE
8
Calque 1
62
4
5
262
100
AcDbEntity
100
AcDbLine
10
-717.867754
20
443.613180
30
0.0
11
-714.864260
21
443.612333
31
0.0
0
LINE
8
Calque 1
62
4
5
263
100
AcDbEntity
100
AcDbLine
10
-714.864260
20
443.612333
30
0.0
11
-714.859180
21
409.550936
31
0.0
0
LINE
8
Calque 1
62
4
5
264
100
AcDbEntity
100
AcDbLine
10
-714.859180
20
409.550936
30
0.0
11
-717.863859
21
409.550936
31
0.0
0
LINE
8
Calque 1
62
4
5
265
100
AcDbEntity
100
AcDbLine
10
-717.863859
20
409.550936
30
0.0
11
-717.867810
21
443.613033
31
0.0
0
LINE
8
Calque 1
62
4
5
266
100
AcDbEntity
100
AcDbLine
10
85.140560
20
239.244250
30
0.0
11
88.139453
21
239.244250
31
0.0
0
LINE
8
Calque 1
62
4
5
267
100
AcDbEntity
100
AcDbLine
10
88.139453
20
239.244250
30
0.0
11
88.139595
21
205.182852
31
0.0
0
LINE
8
Calque 1
62
4
5
268
100
AcDbEntity
100
AcDbLine
10
88.139595
20
205.182852
30
0.0
11
85.140532
21
205.182852
31
0.0
0
LINE
8
Calque 1
62
4
5
269
100
AcDbEntity
100
AcDbLine
10
85.140532
20
205.182852
30
0.0
11
85.140560
21
239.244250
31
0.0
0
LINE
8
Calque 1
62
4
5
26a
100
AcDbEntity
100
AcDbLine
10
85.140504
20
307.367143
30
0.0
11
88.138183
21
307.367045
31
0.0
0
LINE
8
Calque 1
62
4
5
26b
100
AcDbEntity
100
AcDbLine
10
88.138183
20
307.367045
30
0.0
11
88.138325
21
273.305648
31
0.0
0
LINE
8
Calque 1
62
4
5
26c
100
AcDbEntity
100
AcDbLine
10
88.138325
20
273.305648
30
0.0
11
85.140504
21
273.305648
31
0.0
0
LINE
8
Calque 1
62
4
5
26d
100
AcDbEntity
100
AcDbLine
10
85.140504
20
273.305648
30
0.0
11
85.140504
21
307.367143
31
0.0
0
LINE
8
Calque 1
62
4
5
26e
100
AcDbEntity
100
AcDbLine
10
85.140447
20
375.489937
30
0.0
11
88.136913
21
375.489937
31
0.0
0
LINE
8
Calque 1
62
4
5
26f
100
AcDbEntity
100
AcDbLine
10
88.136913
20
375.489937
30
0.0
11
88.137055
21
341.428441
31
0.0
0
LINE
8
Calque 1
62
4
5
270
100
AcDbEntity
100
AcDbLine
10
88.137055
20
341.428441
30
0.0
11
85.140447
21
341.428540
31
0.0
0
LINE
8
Calque 1
62
4
5
271
100
AcDbEntity
100
AcDbLine
10
85.140447
20
341.428540
30
0.0
11
85.140447
21
375.489937
31
0.0
0
LINE
8
Calque 1
62
4
5
272
100
AcDbEntity
100
AcDbLine
10
85.135649
20
443.612734
30
0.0
11
88.135643
21
443.612734
31
0.0
0
LINE
8
Calque 1
62
4
5
273
100
AcDbEntity
100
AcDbLine
10
88.135643
20
443.612734
30
0.0
11
88.135672
21
409.551334
31
0.0
0
LINE
8
Calque 1
62
4
5
274
100
AcDbEntity
100
AcDbLine
10
88.135672
20
409.551334
30
0.0
11
85.140334
21
409.551334
31
0.0
0
LINE
8
Calque 1
62
4
5
275
100
AcDbEntity
100
AcDbLine
10
85.140334
20
409.551334
30
0.0
11
85.135537
21
443.612734
31
0.0
0
LINE
8
Calque 1
62
4
5
276
100
AcDbEntity
100
AcDbLine
10
-731.271249
20
-111.062571
30
0.0
11
-728.271255
21
-111.062571
31
0.0
0
LINE
8
Calque 1
62
4
5
277
100
AcDbEntity
100
AcDbLine
10
-728.271255
20
-111.062571
30
0.0
11
-728.271255
21
-108.062577
31
0.0
0
LINE
8
Calque 1
62
4
5
278
100
AcDbEntity
100
AcDbLine
10
-728.271255
20
-108.062577
30
0.0
11
-731.271249
21
-108.062577
31
0.0
0
LINE
8
Calque 1
62
4
5
279
100
AcDbEntity
100
AcDbLine
10
-731.271249
20
-108.062577
30
0.0
11
-731.271249
21
-111.062571
31
0.0
0
LINE
8
Calque 1
62
4
5
27a
100
AcDbEntity
100
AcDbLine
10
-798.288416
20
136.736609
30
0.0
11
-798.288416
21
133.736615
31
0.0
0
LINE
8
Calque 1
62
4
5
27b
100
AcDbEntity
100
AcDbLine
10
-798.288416
20
133.736615
30
0.0
11
-795.288422
21
133.736615
31
0.0
0
LINE
8
Calque 1
62
4
5
27c
100
AcDbEntity
100
AcDbLine
10
-795.288422
20
133.736615
30
0.0
11
-795.288422
21
136.736609
31
0.0
0
LINE
8
Calque 1
62
4
5
27d
100
AcDbEntity
100
AcDbLine
10
-795.288422
20
136.736609
30
0.0
11
-798.288416
21
136.736609
31
0.0
0
LINE
8
Calque 1
62
4
5
27e
100
AcDbEntity
100
AcDbLine
10
-798.288416
20
90.736616
30
0.0
11
-795.288422
21
90.736616
31
0.0
0
LINE
8
Calque 1
62
4
5
27f
100
AcDbEntity
100
AcDbLine
10
-795.288422
20
90.736616
30
0.0
11
-795.288422
21
100.736596
31
0.0
0
LINE
8
Calque 1
62
4
5
280
100
AcDbEntity
100
AcDbLine
10
-795.288422
20
100.736596
30
0.0
11
-798.288416
21
100.736596
31
0.0
0
LINE
8
Calque 1
62
4
5
281
100
AcDbEntity
100
AcDbLine
10
-798.288416
20
100.736596
30
0.0
11
-798.288416
21
90.736616
31
0.0
0
LINE
8
Calque 1
62
4
5
282
100
AcDbEntity
100
AcDbLine
10
-795.288422
20
120.736613
30
0.0
11
-798.288416
21
120.736613
31
0.0
0
LINE
8
Calque 1
62
4
5
283
100
AcDbEntity
100
AcDbLine
10
-798.288416
20
120.736613
30
0.0
11
-798.288416
21
110.736604
31
0.0
0
LINE
8
Calque 1
62
4
5
284
100
AcDbEntity
100
AcDbLine
10
-798.288416
20
110.736604
30
0.0
11
-795.288422
21
110.736604
31
0.0
0
LINE
8
Calque 1
62
4
5
285
100
AcDbEntity
100
AcDbLine
10
-795.288422
20
110.736604
30
0.0
11
-795.288422
21
120.736613
31
0.0
0
LINE
8
Calque 1
62
4
5
286
100
AcDbEntity
100
AcDbLine
10
-798.288416
20
80.736608
30
0.0
11
-798.288416
21
70.736600
31
0.0
0
LINE
8
Calque 1
62
4
5
287
100
AcDbEntity
100
AcDbLine
10
-798.288416
20
70.736600
30
0.0
11
-795.288422
21
70.736600
31
0.0
0
LINE
8
Calque 1
62
4
5
288
100
AcDbEntity
100
AcDbLine
10
-795.288422
20
70.736600
30
0.0
11
-795.288422
21
80.736608
31
0.0
0
LINE
8
Calque 1
62
4
5
289
100
AcDbEntity
100
AcDbLine
10
-795.288422
20
80.736608
30
0.0
11
-798.288416
21
80.736608
31
0.0
0
LINE
8
Calque 1
62
4
5
28a
100
AcDbEntity
100
AcDbLine
10
-795.288422
20
60.736620
30
0.0
11
-798.288416
21
60.736620
31
0.0
0
LINE
8
Calque 1
62
4
5
28b
100
AcDbEntity
100
AcDbLine
10
-798.288416
20
60.736620
30
0.0
11
-798.288416
21
50.736611
31
0.0
0
LINE
8
Calque 1
62
4
5
28c
100
AcDbEntity
100
AcDbLine
10
-798.288416
20
50.736611
30
0.0
11
-795.288422
21
50.736611
31
0.0
0
LINE
8
Calque 1
62
4
5
28d
100
AcDbEntity
100
AcDbLine
10
-795.288422
20
50.736611
30
0.0
11
-795.288422
21
60.736620
31
0.0
0
LINE
8
Calque 1
62
4
5
28e
100
AcDbEntity
100
AcDbLine
10
-795.288422
20
40.736603
30
0.0
11
-798.288416
21
40.736603
31
0.0
0
LINE
8
Calque 1
62
4
5
28f
100
AcDbEntity
100
AcDbLine
10
-798.288416
20
40.736603
30
0.0
11
-798.288416
21
30.736623
31
0.0
0
LINE
8
Calque 1
62
4
5
290
100
AcDbEntity
100
AcDbLine
10
-798.288416
20
30.736623
30
0.0
11
-795.288422
21
30.736623
31
0.0
0
LINE
8
Calque 1
62
4
5
291
100
AcDbEntity
100
AcDbLine
10
-795.288422
20
30.736623
30
0.0
11
-795.288422
21
40.736603
31
0.0
0
LINE
8
Calque 1
62
4
5
292
100
AcDbEntity
100
AcDbLine
10
-769.161671
20
-6.930191
30
0.0
11
-769.161671
21
-9.930185
31
0.0
0
LINE
8
Calque 1
62
4
5
293
100
AcDbEntity
100
AcDbLine
10
-769.161671
20
-9.930185
30
0.0
11
-766.161677
21
-9.930185
31
0.0
0
LINE
8
Calque 1
62
4
5
294
100
AcDbEntity
100
AcDbLine
10
-766.161677
20
-9.930185
30
0.0
11
-766.161677
21
-6.930191
31
0.0
0
LINE
8
Calque 1
62
4
5
295
100
AcDbEntity
100
AcDbLine
10
-766.161677
20
-6.930191
30
0.0
11
-769.161671
21
-6.930191
31
0.0
0
LINE
8
Calque 1
62
4
5
296
100
AcDbEntity
100
AcDbLine
10
-769.161671
20
-52.930184
30
0.0
11
-766.161677
21
-52.930184
31
0.0
0
LINE
8
Calque 1
62
4
5
297
100
AcDbEntity
100
AcDbLine
10
-766.161677
20
-52.930184
30
0.0
11
-766.161677
21
-42.930176
31
0.0
0
LINE
8
Calque 1
62
4
5
298
100
AcDbEntity
100
AcDbLine
10
-766.161677
20
-42.930176
30
0.0
11
-769.161671
21
-42.930176
31
0.0
0
LINE
8
Calque 1
62
4
5
299
100
AcDbEntity
100
AcDbLine
10
-769.161671
20
-42.930176
30
0.0
11
-769.161671
21
-52.930184
31
0.0
0
LINE
8
Calque 1
62
4
5
29a
100
AcDbEntity
100
AcDbLine
10
-766.161677
20
-22.930187
30
0.0
11
-769.161671
21
-22.930187
31
0.0
0
LINE
8
Calque 1
62
4
5
29b
100
AcDbEntity
100
AcDbLine
10
-769.161671
20
-22.930187
30
0.0
11
-769.161671
21
-32.930167
31
0.0
0
LINE
8
Calque 1
62
4
5
29c
100
AcDbEntity
100
AcDbLine
10
-769.161671
20
-32.930167
30
0.0
11
-766.161677
21
-32.930167
31
0.0
0
LINE
8
Calque 1
62
4
5
29d
100
AcDbEntity
100
AcDbLine
10
-766.161677
20
-32.930167
30
0.0
11
-766.161677
21
-22.930187
31
0.0
0
LINE
8
Calque 1
62
4
5
29e
100
AcDbEntity
100
AcDbLine
10
-769.161671
20
-62.930164
30
0.0
11
-769.161671
21
-72.930172
31
0.0
0
LINE
8
Calque 1
62
4
5
29f
100
AcDbEntity
100
AcDbLine
10
-769.161671
20
-72.930172
30
0.0
11
-766.161677
21
-72.930172
31
0.0
0
LINE
8
Calque 1
62
4
5
2a0
100
AcDbEntity
100
AcDbLine
10
-766.161677
20
-72.930172
30
0.0
11
-766.161677
21
-62.930164
31
0.0
0
LINE
8
Calque 1
62
4
5
2a1
100
AcDbEntity
100
AcDbLine
10
-766.161677
20
-62.930164
30
0.0
11
-769.161671
21
-62.930164
31
0.0
0
LINE
8
Calque 1
62
4
5
2a2
100
AcDbEntity
100
AcDbLine
10
-766.161677
20
-82.930180
30
0.0
11
-769.161671
21
-82.930180
31
0.0
0
LINE
8
Calque 1
62
4
5
2a3
100
AcDbEntity
100
AcDbLine
10
-769.161671
20
-82.930180
30
0.0
11
-769.161671
21
-92.930188
31
0.0
0
LINE
8
Calque 1
62
4
5
2a4
100
AcDbEntity
100
AcDbLine
10
-769.161671
20
-92.930188
30
0.0
11
-766.161677
21
-92.930188
31
0.0
0
LINE
8
Calque 1
62
4
5
2a5
100
AcDbEntity
100
AcDbLine
10
-766.161677
20
-92.930188
30
0.0
11
-766.161677
21
-82.930180
31
0.0
0
LINE
8
Calque 1
62
4
5
2a6
100
AcDbEntity
100
AcDbLine
10
-766.161677
20
-102.930168
30
0.0
11
-769.161671
21
-102.930168
31
0.0
0
LINE
8
Calque 1
62
4
5
2a7
100
AcDbEntity
100
AcDbLine
10
-769.161671
20
-102.930168
30
0.0
11
-769.161671
21
-112.930177
31
0.0
0
LINE
8
Calque 1
62
4
5
2a8
100
AcDbEntity
100
AcDbLine
10
-769.161671
20
-112.930177
30
0.0
11
-766.161677
21
-112.930177
31
0.0
0
LINE
8
Calque 1
62
4
5
2a9
100
AcDbEntity
100
AcDbLine
10
-766.161677
20
-112.930177
30
0.0
11
-766.161677
21
-102.930168
31
0.0
0
LINE
8
Calque 1
62
4
5
2aa
100
AcDbEntity
100
AcDbLine
10
-745.889598
20
-112.872265
30
0.0
11
-742.889604
21
-112.872265
31
0.0
0
LINE
8
Calque 1
62
4
5
2ab
100
AcDbEntity
100
AcDbLine
10
-742.889604
20
-112.872265
30
0.0
11
-742.889604
21
-109.872271
31
0.0
0
LINE
8
Calque 1
62
4
5
2ac
100
AcDbEntity
100
AcDbLine
10
-742.889604
20
-109.872271
30
0.0
11
-745.889598
21
-109.872271
31
0.0
0
LINE
8
Calque 1
62
4
5
2ad
100
AcDbEntity
100
AcDbLine
10
-745.889598
20
-109.872271
30
0.0
11
-745.889598
21
-112.872265
31
0.0
0
LINE
8
Calque 1
62
4
5
2ae
100
AcDbEntity
100
AcDbLine
10
-806.861282
20
463.610879
30
0.0
11
-722.861422
21
463.610879
31
0.0
0
LINE
8
Calque 1
62
4
5
2af
100
AcDbEntity
100
AcDbLine
10
93.135323
20
171.121605
30
0.0
11
93.139556
21
-136.389080
31
0.0
0
LINE
8
Calque 1
62
4
5
2b0
100
AcDbEntity
100
AcDbLine
10
93.139556
20
-136.389080
30
0.0
11
86.227454
21
-136.389080
31
0.0
0
LINE
8
Calque 1
62
4
5
2b1
100
AcDbEntity
100
AcDbLine
10
-713.772568
20
-136.388770
30
0.0
11
-806.860464
21
-136.398648
31
0.0
0
LINE
8
Calque 1
62
4
5
2b2
100
AcDbEntity
100
AcDbLine
10
-806.860464
20
-136.398648
30
0.0
11
-806.860464
21
463.601312
31
0.0
  0
ENDSEC
  0
SECTION
  2
OBJECTS
  0
DICTIONARY
  5
C
330
0
100
AcDbDictionary
  3
ACAD_GROUP
350
D
  3
ACAD_MLINESTYLE
350
17
  0
DICTIONARY
  5
D
330
C
100
AcDbDictionary
  0
DICTIONARY
  5
1A
330
C
100
AcDbDictionary
  0
DICTIONARY
  5
17
330
C
100
AcDbDictionary
  3
STANDARD
350
18
  0
DICTIONARY
  5
19
330
C
100
AcDbDictionary
  0
ENDSEC
  0
EOF
