<?xml version="1.0" standalone="no"?>
<!DOCTYPE svg PUBLIC "-//W3C//DTD SVG 1.1//EN" "http://www.w3.org/Graphics/SVG/1.1/DTD/svg11.dtd">
<svg width="287.99999999999955mm" height="600.0mm"
 viewBox="0 0 287.99999999999955 600.0"
 xmlns="http://www.w3.org/2000/svg" version="1.1"
 xmlns:xlink="http://www.w3.org/1999/xlink">
<desc>Output from Flights of Ideas SVG Sketchup Plugin</desc>

  <path id="face0-cut"
 style="fill:none;stroke:#0000FF;stroke-width:1;stroke-miterlimit:4;stroke-dasharray:none;stroke-linejoin:round;stroke-linecap:round"
        d="M 171.92904313290046,98.50928824724178 M 171.92904313289864,78.50928824724247 M 168.92904313289978,78.50928824724201 M 168.92904313290046,58.50928824724224 M 171.92904313289932,58.50928824724315 M 171.9290431329,38.509288247241784 M 168.92904313289932,38.5092882472411 M 168.9290431329,20.509288247241557 M 16.929043132900233,20.50928824723428 M 16.929043132899324,38.50928824723428 M 13.929043132898869,38.509288247233826 M 13.929043132898869,58.50928824723428 M 16.929043132899324,58.50928824723337 M 16.92904313289887,78.50928824723337 M 13.929043132898187,78.50928824723292 M 13.929043132900915,98.50928824724178 M 16.929043132898187,98.50928824724178 M 16.929043132897505,118.50928824723451 M 168.92904313289932,118.50928824724247 M 168.92904313290114,98.50928824724178 M 46.429043132900915,68.50928824723746 L 46.4801543934675,68.1210596795836 L 46.630005027224115,67.75928824723724 L 46.86838296112114,67.44862807545837 L 47.17904313290069,67.21025014155862 L 47.540814565247274,67.06039950780314 L 47.92904313290114,67.00928824723701 L 48.31727170055433,67.06039950780314 L 48.679043132900915,67.21025014155862 L 48.98970330468069,67.44862807545815 L 49.22808123857749,67.75928824723701 L 49.3779318723341,68.1210596795836 L 49.429043132900915,68.50928824723792 L 49.37793187233456,68.89751681489065 L 49.22808123857749,69.25928824723724 L 48.98970330468069,69.56994841901769 L 48.679043132900915,69.80832635291313 L 48.31727170055433,69.95817698667156 L 47.929043132900915,70.00928824723792 L 47.540814565247274,69.95817698667202 L 47.17904313290069,69.80832635291358 L 46.86838296112114,69.5699484190186 L 46.630005027224115,69.25928824723769 L 46.4801543934675,68.8975168148911 L 46.429043132900915,68.50928824723746 M 79.22808123857772,67.75928824723951 L 79.37793187233456,68.12105967958541 L 79.42904313290092,68.50928824723974 L 79.37793187233456,68.89751681489315 L 79.22808123857772,69.25928824723883 L 78.98970330468069,69.56994841902019 L 78.67904313290069,69.8083263529154 L 78.31727170055478,69.95817698667338 L 77.92904313290092,70.00928824723928 L 77.54081456524705,69.9581769866727 L 77.17904313290114,69.80832635291495 L 76.86838296112114,69.56994841902019 L 76.63000502722412,69.25928824723837 L 76.48015439346727,68.89751681489315 L 76.42904313290092,68.50928824723974 L 76.48015439346727,68.12105967958496 L 76.63000502722412,67.75928824723906 L 76.86838296112114,67.44862807545951 L 77.17904313290114,67.21025014156112 L 77.54081456524705,67.06039950780519 L 77.92904313290092,67.00928824723928 L 78.31727170055478,67.06039950780519 L 78.67904313290069,67.21025014156112 L 78.98970330468069,67.44862807545951 L 79.22808123857772,67.75928824723951 M 109.22808123857726,67.75928824723951 L 109.37793187233456,68.12105967958587 L 109.42904313290092,68.50928824723997 L 109.37793187233456,68.89751681489383 L 109.22808123857772,69.25928824723906 L 108.98970330468069,69.56994841902065 L 108.67904313290114,69.80832635291654 L 108.31727170055478,69.95817698667474 L 107.92904313290092,70.00928824723974 L 107.54081456524727,69.95817698667383 L 107.17904313290114,69.80832635291677 L 106.86838296112114,69.56994841902133 L 106.63000502722412,69.25928824724019 L 106.48015439346727,68.89751681489497 L 106.42904313290092,68.5092882472411 L 106.48015439346727,68.1210596795861 L 106.63000502722412,67.75928824723951 L 106.86838296112114,67.44862807546087 L 107.17904313290069,67.21025014156226 L 107.54081456524705,67.0603995078061 L 107.92904313290092,67.00928824724042 L 108.31727170055433,67.0603995078061 L 108.67904313290069,67.2102501415618 L 108.98970330468069,67.44862807546065 L 109.22808123857726,67.75928824723951 M 137.5408145652466,67.06039950780769 L 137.92904313290023,67.00928824724156 L 138.3172717005541,67.06039950780769 L 138.6790431329007,67.21025014156339 L 138.98970330468,67.44862807546087 L 139.22808123857726,67.75928824724156 L 139.37793187233387,68.12105967958792 L 139.4290431329007,68.50928824724224 L 139.37793187233387,68.89751681489611 L 139.22808123857703,69.25928824724087 L 138.98970330468,69.56994841902156 L 138.67904313290046,69.80832635291745 L 138.3172717005541,69.9581769866752 L 137.9290431329007,70.0092882472411 L 137.5408145652466,69.9581769866752 L 137.17904313290046,69.80832635291745 L 136.86838296112046,69.56994841902156 L 136.6300050272239,69.25928824724065 L 136.48015439346682,68.89751681489565 L 136.42904313290046,68.50928824724224 L 136.48015439346682,68.12105967958723 L 136.6300050272239,67.75928824724087 L 136.86838296112046,67.44862807546133 L 137.1790431329007,67.21025014156339 L 137.5408145652466,67.06039950780769 M 138.67904313290182,49.808326352917675 L 138.31727170055524,49.95817698667497 L 137.92904313290137,50.00928824724065 L 137.54081456524773,49.95817698667497 L 137.17904313290182,49.808326352917675 L 136.8683829611216,49.56994841901974 L 136.6300050272248,49.259288247240875 L 136.48015439346796,48.897516814894516 L 136.42904313290137,48.50928824724133 L 136.4801543934675,48.12105967958746 L 136.6300050272248,47.75928824724042 L 136.86838296112182,47.44862807546042 L 137.17904313290182,47.2102501415643 L 137.54081456524773,47.06039950780769 L 137.9290431329016,47.00928824724065 L 138.31727170055547,47.06039950780769 L 138.67904313290182,47.2102501415643 L 138.98970330468137,47.448628075460874 L 139.22808123857817,47.759288247240875 L 139.377931872335,48.12105967958814 L 139.42904313290137,48.509288247242466 L 139.377931872335,48.897516814894516 L 139.22808123857817,49.259288247240875 L 138.98970330468114,49.56994841901974 L 138.67904313290182,49.808326352917675 M 108.98970330468183,49.56994841901928 L 108.67904313290228,49.80832635291631 L 108.31727170055592,49.95817698667406 L 107.92904313290205,50.00928824723951 L 107.54081456524818,49.95817698667406 L 107.17904313290205,49.80832635291631 L 106.86838296112228,49.56994841901928 L 106.63000502722525,49.25928824724019 L 106.48015439346864,48.89751681489338 L 106.42904313290205,48.50928824724019 L 106.48015439346841,48.121059679586324 L 106.63000502722548,47.75928824724042 L 106.86838296112228,47.44862807545974 L 107.17904313290205,47.210250141563165 L 107.54081456524841,47.060399507807006 L 107.92904313290205,47.00928824723951 L 108.31727170055592,47.060399507807006 L 108.67904313290228,47.210250141563165 L 108.98970330468183,47.44862807545974 L 109.22808123857885,47.75928824724042 L 109.3779318723357,48.121059679586324 L 109.42904313290205,48.50928824724019 L 109.3779318723357,48.897516814893834 L 109.22808123857885,49.25928824724019 L 108.98970330468183,49.56994841901928 M 79.22808123857862,49.259288247239056 L 78.98970330468183,49.5699484190186 L 78.67904313290205,49.80832635291563 L 78.31727170055592,49.958176986672925 L 77.92904313290205,50.00928824723837 L 77.54081456524796,49.958176986672925 L 77.17904313290182,49.808326352915174 L 76.86838296112205,49.5699484190186 L 76.63000502722525,49.259288247239056 L 76.48015439346864,48.89751681489224 L 76.42904313290182,48.50928824723928 L 76.48015439346864,48.121059679584505 L 76.63000502722525,47.759288247239056 L 76.86838296112205,47.44862807545792 L 77.17904313290205,47.21025014156203 L 77.54081456524841,47.06039950780587 L 77.92904313290205,47.00928824723883 L 78.31727170055592,47.06039950780587 L 78.67904313290205,47.21025014156203 L 78.98970330468183,47.44862807545792 L 79.22808123857862,47.759288247239056 L 79.3779318723357,48.121059679584505 L 79.42904313290205,48.50928824724019 L 79.3779318723357,48.89751681489224 L 79.22808123857862,49.259288247239056 M 49.377931872335694,48.89751681489088 L 49.2280812385784,49.25928824723678 L 48.989703304681825,49.5699484190161 L 48.679043132901825,49.808326352913355 L 48.31727170055592,49.95817698667042 L 47.929043132901825,50.00928824723587 L 47.54081456524841,49.95817698667042 L 47.17904313290205,49.80832635291381 L 46.86838296112205,49.5699484190161 L 46.63000502722548,49.25928824723678 L 46.48015439346818,48.89751681489156 L 46.429043132901825,48.509288247237464 L 46.48015439346818,48.121059679582686 L 46.63000502722548,47.75928824723678 L 46.86838296112205,47.44862807545678 L 47.17904313290205,47.21025014155998 L 47.54081456524841,47.06039950780405 L 47.929043132901825,47.00928824723701 L 48.31727170055592,47.060399507803595 L 48.67904313290205,47.21025014155998 L 48.989703304681825,47.4486280754561 L 49.228081238578625,47.75928824723678 L 49.377931872335694,48.12105967958246 L 49.42904313290205,48.509288247237464 L 49.377931872335694,48.89751681489088 M 134.92904313290046,103.50928824723997 L 134.92904313290092,91.50928824723997 L 153.9290431329016,91.50928824724178 L 153.92904313290023,103.5092882472411 L 134.92904313290046,103.50928824723997 "
  />
  <path id="face1-cut"
 style="fill:none;stroke:#0000FF;stroke-width:1;stroke-miterlimit:4;stroke-dasharray:none;stroke-linejoin:round;stroke-linecap:round"
        d="M 171.92904313289932,574.9732851651179 M 171.92904313289978,549.9732851651177 M 168.92904313289978,549.9732851651177 M 168.92904313289978,524.9732851651177 M 171.92904313289932,524.9732851651177 M 171.92904313289978,499.9732851651179 M 168.92904313289978,499.9732851651179 M 168.92904313289932,474.9732851651179 M 171.92904313289978,474.9732851651179 M 171.92904313289932,449.97328516511766 M 168.92904313289978,449.97328516511766 M 168.92904313289932,424.9732851651181 M 171.92904313289932,424.9732851651181 M 171.92904313289932,399.9732851651179 M 168.92904313289932,399.9732851651179 M 168.92904313289978,374.9732851651179 M 16.92904313289955,374.9732851651179 M 16.929043132899324,399.9732851651179 M 13.929043132899551,399.9732851651179 M 13.929043132899551,424.9732851651181 M 16.92904313289955,424.9732851651181 M 16.92904313289955,449.97328516511766 M 13.929043132899096,449.97328516511766 M 13.929043132899551,474.9732851651179 M 16.92904313289955,474.9732851651179 M 16.929043132899324,499.9732851651179 M 13.929043132899551,499.9732851651179 M 13.929043132899096,524.9732851651177 M 16.92904313289955,524.9732851651177 M 16.92904313289955,549.9732851651177 M 13.929043132899551,549.9732851651177 M 13.929043132899096,574.9732851651179 "
  />
  <path id="face2-cut"
 style="fill:none;stroke:#0000FF;stroke-width:1;stroke-miterlimit:4;stroke-dasharray:none;stroke-linejoin:round;stroke-linecap:round"
        d="M 176.55892834716133,121.06690447799497 M 176.55892834716133,146.06690447799497 M 179.55892834716133,146.06690447799497 M 179.5589283471611,171.0669044779952 M 176.55892834716133,171.0669044779952 M 176.55892834716133,196.0669044779945 M 179.5589283471611,196.0669044779945 M 179.5589283471611,221.0669044779945 M 176.55892834716133,221.0669044779945 M 176.55892834716133,246.06690447799474 M 179.5589283471611,246.06690447799474 M 179.55892834716133,271.06690447799474 M 176.55892834716133,271.06690447799474 M 176.55892834716133,296.06690447799474 M 179.55892834716133,296.06690447799474 M 179.55892834716133,321.0669044779945 M 266.5589283471611,321.0669044779945 M 266.5589283471611,296.06690447799474 M 269.5589283471611,296.06690447799474 M 269.5589283471611,271.06690447799474 M 266.5589283471611,271.06690447799474 M 266.5589283471611,246.06690447799474 M 269.5589283471611,246.06690447799474 M 269.5589283471611,221.0669044779945 M 266.5589283471611,221.0669044779945 M 266.5589283471611,196.0669044779945 M 269.5589283471611,196.0669044779945 M 269.5589283471611,171.0669044779952 M 266.5589283471611,171.0669044779952 M 266.5589283471611,146.06690447799497 M 269.5589283471611,146.06690447799497 M 269.5589283471611,121.06690447799497 M 266.5589283471611,121.06690447799497 M 266.5589283471611,96.06690447799474 M 269.5589283471611,96.06690447799474 M 269.5589283471611,71.06690447799474 M 266.5589283471611,71.06690447799474 M 249.07578282473037,80.77976310156714 M 250.53271161826638,83.40223492993186 M 233.04956609583542,93.11509355350404 M 231.59263730229986,90.49262172513954 M 214.1094917798696,100.20548034871331 M 215.56642057340514,102.82795217707735 M 198.08327505097395,112.54081080064975 M 196.62634625743817,109.9183389722848 "
  />
  <path id="face3-cut"
 style="fill:none;stroke:#0000FF;stroke-width:1;stroke-miterlimit:4;stroke-dasharray:none;stroke-linejoin:round;stroke-linecap:round"
        d="M 269.1043409903832,399.97328516511834 M 269.1043409903832,374.9732851651181 M 249.03692308010636,363.8247196594077 M 247.57999428657058,366.44719148777267 M 230.0968487641394,356.7343328642005 M 231.5537775576754,354.111861035836 M 214.0706320352449,344.3990024122618 M 212.61370324170912,347.02147424062673 M 195.13055771927793,337.308615617055 M 196.58748651281394,334.6861437886903 M 179.1043409903832,324.9732851651172 M 176.10434099038343,324.9732851651172 M 176.10434099038298,349.9732851651179 M 179.1043409903832,349.9732851651179 M 179.10434099038343,374.9732851651181 M 176.10434099038298,374.9732851651181 M 176.10434099038298,399.97328516511834 M 179.1043409903832,399.97328516511834 M 179.10434099038343,424.9732851651181 M 176.10434099038343,424.9732851651181 M 176.10434099038298,449.97328516511743 M 179.1043409903832,449.97328516511743 M 179.1043409903832,474.97328516511766 M 176.10434099038298,474.97328516511766 M 176.10434099038343,499.9732851651181 M 179.10434099038343,499.9732851651181 M 179.10434099038343,524.9732851651181 M 176.10434099038298,524.9732851651181 M 176.10434099038298,549.9732851651181 M 179.10434099038343,549.9732851651181 M 179.10434099038343,574.9732851651179 M 266.1043409903832,574.9732851651179 M 266.1043409903832,549.9732851651177 M 269.1043409903832,549.9732851651181 M 269.1043409903832,524.9732851651181 M 266.1043409903832,524.9732851651181 M 266.1043409903832,499.9732851651181 M 269.1043409903832,499.9732851651181 M 269.1043409903832,474.97328516511766 M 266.1043409903832,474.97328516511766 M 266.1043409903832,449.97328516511743 M 269.1043409903832,449.97328516511743 M 269.1043409903832,424.9732851651181 M 266.1043409903832,424.9732851651181 M 266.1043409903832,399.97328516511834 "
  />
  <path id="face4-cut"
 style="fill:none;stroke:#0000FF;stroke-width:1;stroke-miterlimit:4;stroke-dasharray:none;stroke-linejoin:round;stroke-linecap:round"
        d="M 16.92904313289955,121.10281701302188 M 16.92904313289955,146.10281701302188 M 13.929043132899551,146.10281701302188 M 13.929043132899551,171.10281701302188 M 16.92904313289955,171.10281701302188 M 16.92904313289955,196.1028170130221 M 13.929043132899551,196.1028170130221 M 13.929043132899551,221.1028170130221 M 16.92904313289955,221.1028170130221 M 16.92904313289955,246.10281701302142 M 13.929043132899551,246.10281701302142 M 13.929043132899551,271.10281701302165 M 16.92904313289955,271.10281701302165 M 16.92904313289955,296.10281701302165 M 13.929043132899551,296.10281701302165 M 13.929043132899551,321.10281701302165 M 16.92904313289955,321.10281701302165 M 16.92904313289955,346.1028170130219 M 13.929043132899551,346.1028170130219 M 13.929043132899551,371.10281701302165 M 171.92904313289978,371.10281701302165 M 171.92904313289932,346.1028170130219 M 168.92904313289978,346.1028170130219 M 168.92904313289932,321.10281701302165 M 171.92904313289932,321.10281701302165 M 171.92904313289932,296.10281701302165 M 168.92904313289932,296.10281701302165 M 168.92904313289932,271.10281701302165 M 171.92904313289932,271.10281701302165 M 171.92904313289932,246.10281701302142 M 168.92904313289978,246.10281701302142 M 168.92904313289978,221.1028170130221 M 171.92904313289978,221.1028170130221 M 171.92904313289932,196.1028170130221 M 168.92904313289932,196.1028170130221 M 168.92904313289978,171.10281701302188 M 171.92904313289978,171.10281701302188 M 171.92904313289932,146.10281701302188 M 168.92904313289978,146.10281701302188 M 168.92904313289932,121.10281701302165 M 33.92904313289978,296.10281701302165 L 33.929043132899324,293.10281701302165 L 151.92904313289955,293.10281701302165 L 151.92904313289955,296.10281701302165 L 33.92904313289978,296.10281701302165 M 33.92904313289978,261.10281701302097 L 33.929043132899324,258.10281701302097 L 151.92904313289955,258.10281701302097 L 151.92904313289955,261.10281701302097 L 33.92904313289978,261.10281701302097 M 33.929043132899324,254.10281701302029 L 33.929043132899324,251.10281701302029 L 151.92904313289955,251.10281701302029 L 151.92904313289955,254.10281701302029 L 33.929043132899324,254.10281701302029 M 151.92904313289955,247.1028170130205 L 33.92904313289978,247.1028170130205 L 33.929043132899324,244.1028170130205 L 151.92904313289955,244.1028170130205 L 151.92904313289955,247.1028170130205 M 151.92904313289955,268.10281701302074 L 33.929043132899324,268.10281701302074 L 33.92904313289978,265.10281701302074 L 151.92904313289955,265.10281701302074 L 151.92904313289955,268.10281701302074 M 151.92904313289955,275.1028170130214 L 33.929043132899324,275.1028170130214 L 33.929043132899324,272.1028170130214 L 151.92904313289955,272.1028170130214 L 151.92904313289955,275.1028170130214 M 151.92904313289955,282.1028170130212 L 33.929043132899324,282.1028170130212 L 33.929043132899324,279.1028170130212 L 151.92904313289955,279.1028170130212 L 151.92904313289955,282.1028170130212 M 151.92904313289955,289.1028170130219 L 33.929043132899324,289.1028170130219 L 33.92904313289978,286.10281701302165 L 151.92904313289955,286.10281701302165 L 151.92904313289955,289.1028170130219 "
  />
  <path id="face5-cut"
 style="fill:none;stroke:#0000FF;stroke-width:1;stroke-miterlimit:4;stroke-dasharray:none;stroke-linejoin:round;stroke-linecap:round"
        d="M 10.0,10.0 L 10.0,589.9999999999998 L 277.99999999999955,590.0 L 277.99999999999955,10.0 L 10.0,10.0 M 171.92904313289864,78.50928824724247 M 171.92904313290046,98.50928824724178 M 168.92904313290114,98.50928824724178 M 168.92904313289932,118.50928824724247 M 16.929043132897505,118.50928824723451 M 16.929043132898187,98.50928824724178 M 13.929043132900915,98.50928824724178 M 13.929043132898187,78.50928824723292 M 16.92904313289887,78.50928824723337 M 16.929043132899324,58.50928824723337 M 13.929043132898869,58.50928824723428 M 13.929043132898869,38.509288247233826 M 16.929043132899324,38.50928824723428 M 16.929043132900233,20.50928824723428 M 168.9290431329,20.509288247241557 M 168.92904313289932,38.5092882472411 M 171.9290431329,38.509288247241784 M 171.92904313289932,58.50928824724315 M 168.92904313290046,58.50928824724224 M 168.92904313289978,78.50928824724201 M 171.92904313289978,549.9732851651177 M 171.92904313289932,574.9732851651179 M 13.929043132899096,574.9732851651179 M 13.929043132899551,549.9732851651177 M 16.92904313289955,549.9732851651177 M 16.92904313289955,524.9732851651177 M 13.929043132899096,524.9732851651177 M 13.929043132899551,499.9732851651179 M 16.929043132899324,499.9732851651179 M 16.92904313289955,474.9732851651179 M 13.929043132899551,474.9732851651179 M 13.929043132899096,449.97328516511766 M 16.92904313289955,449.97328516511766 M 16.92904313289955,424.9732851651181 M 13.929043132899551,424.9732851651181 M 13.929043132899551,399.9732851651179 M 16.929043132899324,399.9732851651179 M 16.92904313289955,374.9732851651179 M 168.92904313289978,374.9732851651179 M 168.92904313289932,399.9732851651179 M 171.92904313289932,399.9732851651179 M 171.92904313289932,424.9732851651181 M 168.92904313289932,424.9732851651181 M 168.92904313289978,449.97328516511766 M 171.92904313289932,449.97328516511766 M 171.92904313289978,474.9732851651179 M 168.92904313289932,474.9732851651179 M 168.92904313289978,499.9732851651179 M 171.92904313289978,499.9732851651179 M 171.92904313289932,524.9732851651177 M 168.92904313289978,524.9732851651177 M 168.92904313289978,549.9732851651177 M 176.55892834716133,146.06690447799497 M 176.55892834716133,121.06690447799497 M 196.62634625743817,109.9183389722848 M 198.08327505097395,112.54081080064975 M 215.56642057340514,102.82795217707735 M 214.1094917798696,100.20548034871331 M 231.59263730229986,90.49262172513954 M 233.04956609583542,93.11509355350404 M 250.53271161826638,83.40223492993186 M 249.07578282473037,80.77976310156714 M 266.5589283471611,71.06690447799474 M 269.5589283471611,71.06690447799474 M 269.5589283471611,96.06690447799474 M 266.5589283471611,96.06690447799474 M 266.5589283471611,121.06690447799497 M 269.5589283471611,121.06690447799497 M 269.5589283471611,146.06690447799497 M 266.5589283471611,146.06690447799497 M 266.5589283471611,171.0669044779952 M 269.5589283471611,171.0669044779952 M 269.5589283471611,196.0669044779945 M 266.5589283471611,196.0669044779945 M 266.5589283471611,221.0669044779945 M 269.5589283471611,221.0669044779945 M 269.5589283471611,246.06690447799474 M 266.5589283471611,246.06690447799474 M 266.5589283471611,271.06690447799474 M 269.5589283471611,271.06690447799474 M 269.5589283471611,296.06690447799474 M 266.5589283471611,296.06690447799474 M 266.5589283471611,321.0669044779945 M 179.55892834716133,321.0669044779945 M 179.55892834716133,296.06690447799474 M 176.55892834716133,296.06690447799474 M 176.55892834716133,271.06690447799474 M 179.55892834716133,271.06690447799474 M 179.5589283471611,246.06690447799474 M 176.55892834716133,246.06690447799474 M 176.55892834716133,221.0669044779945 M 179.5589283471611,221.0669044779945 M 179.5589283471611,196.0669044779945 M 176.55892834716133,196.0669044779945 M 176.55892834716133,171.0669044779952 M 179.5589283471611,171.0669044779952 M 179.55892834716133,146.06690447799497 M 269.1043409903832,374.9732851651181 M 269.1043409903832,399.97328516511834 M 266.1043409903832,399.97328516511834 M 266.1043409903832,424.9732851651181 M 269.1043409903832,424.9732851651181 M 269.1043409903832,449.97328516511743 M 266.1043409903832,449.97328516511743 M 266.1043409903832,474.97328516511766 M 269.1043409903832,474.97328516511766 M 269.1043409903832,499.9732851651181 M 266.1043409903832,499.9732851651181 M 266.1043409903832,524.9732851651181 M 269.1043409903832,524.9732851651181 M 269.1043409903832,549.9732851651181 M 266.1043409903832,549.9732851651177 M 266.1043409903832,574.9732851651179 M 179.10434099038343,574.9732851651179 M 179.10434099038343,549.9732851651181 M 176.10434099038298,549.9732851651181 M 176.10434099038298,524.9732851651181 M 179.10434099038343,524.9732851651181 M 179.10434099038343,499.9732851651181 M 176.10434099038343,499.9732851651181 M 176.10434099038298,474.97328516511766 M 179.1043409903832,474.97328516511766 M 179.1043409903832,449.97328516511743 M 176.10434099038298,449.97328516511743 M 176.10434099038343,424.9732851651181 M 179.10434099038343,424.9732851651181 M 179.1043409903832,399.97328516511834 M 176.10434099038298,399.97328516511834 M 176.10434099038298,374.9732851651181 M 179.10434099038343,374.9732851651181 M 179.1043409903832,349.9732851651179 M 176.10434099038298,349.9732851651179 M 176.10434099038343,324.9732851651172 M 179.1043409903832,324.9732851651172 M 196.58748651281394,334.6861437886903 M 195.13055771927793,337.308615617055 M 212.61370324170912,347.02147424062673 M 214.0706320352449,344.3990024122618 M 231.5537775576754,354.111861035836 M 230.0968487641394,356.7343328642005 M 247.57999428657058,366.44719148777267 M 249.03692308010636,363.8247196594077 M 16.92904313289955,146.10281701302188 M 16.92904313289955,121.10281701302188 M 168.92904313289932,121.10281701302165 M 168.92904313289978,146.10281701302188 M 171.92904313289932,146.10281701302188 M 171.92904313289978,171.10281701302188 M 168.92904313289978,171.10281701302188 M 168.92904313289932,196.1028170130221 M 171.92904313289932,196.1028170130221 M 171.92904313289978,221.1028170130221 M 168.92904313289978,221.1028170130221 M 168.92904313289978,246.10281701302142 M 171.92904313289932,246.10281701302142 M 171.92904313289932,271.10281701302165 M 168.92904313289932,271.10281701302165 M 168.92904313289932,296.10281701302165 M 171.92904313289932,296.10281701302165 M 171.92904313289932,321.10281701302165 M 168.92904313289932,321.10281701302165 M 168.92904313289978,346.1028170130219 M 171.92904313289932,346.1028170130219 M 171.92904313289978,371.10281701302165 M 13.929043132899551,371.10281701302165 M 13.929043132899551,346.1028170130219 M 16.92904313289955,346.1028170130219 M 16.92904313289955,321.10281701302165 M 13.929043132899551,321.10281701302165 M 13.929043132899551,296.10281701302165 M 16.92904313289955,296.10281701302165 M 16.92904313289955,271.10281701302165 M 13.929043132899551,271.10281701302165 M 13.929043132899551,246.10281701302142 M 16.92904313289955,246.10281701302142 M 16.92904313289955,221.1028170130221 M 13.929043132899551,221.1028170130221 M 13.929043132899551,196.1028170130221 M 16.92904313289955,196.1028170130221 M 16.92904313289955,171.10281701302188 M 13.929043132899551,171.10281701302188 M 13.929043132899551,146.10281701302188 "
  />
  <path id="face0-interior"
 style="fill:none;stroke:#FF0000;stroke-width:1;stroke-miterlimit:4;stroke-dasharray:none;stroke-linejoin:round;stroke-linecap:round"
        d="M 171.92904313290046,98.50928824724178 L 171.92904313289864,78.50928824724247 L 168.92904313289978,78.50928824724201 L 168.92904313290046,58.50928824724224 L 171.92904313289932,58.50928824724315 L 171.9290431329,38.509288247241784 L 168.92904313289932,38.5092882472411 L 168.9290431329,20.509288247241557 L 16.929043132900233,20.50928824723428 L 16.929043132899324,38.50928824723428 L 13.929043132898869,38.509288247233826 L 13.929043132898869,58.50928824723428 L 16.929043132899324,58.50928824723337 L 16.92904313289887,78.50928824723337 L 13.929043132898187,78.50928824723292 L 13.929043132900915,98.50928824724178 L 16.929043132898187,98.50928824724178 L 16.929043132897505,118.50928824723451 L 168.92904313289932,118.50928824724247 L 168.92904313290114,98.50928824724178 L 171.92904313290046,98.50928824724178 M 46.429043132900915,68.50928824723746 M 46.4801543934675,68.1210596795836 M 46.630005027224115,67.75928824723724 M 46.86838296112114,67.44862807545837 M 47.17904313290069,67.21025014155862 M 47.540814565247274,67.06039950780314 M 47.92904313290114,67.00928824723701 M 48.31727170055433,67.06039950780314 M 48.679043132900915,67.21025014155862 M 48.98970330468069,67.44862807545815 M 49.22808123857749,67.75928824723701 M 49.3779318723341,68.1210596795836 M 49.429043132900915,68.50928824723792 M 49.37793187233456,68.89751681489065 M 49.22808123857749,69.25928824723724 M 48.98970330468069,69.56994841901769 M 48.679043132900915,69.80832635291313 M 48.31727170055433,69.95817698667156 M 47.929043132900915,70.00928824723792 M 47.540814565247274,69.95817698667202 M 47.17904313290069,69.80832635291358 M 46.86838296112114,69.5699484190186 M 46.630005027224115,69.25928824723769 M 46.4801543934675,68.8975168148911 M 79.22808123857772,67.75928824723951 M 79.37793187233456,68.12105967958541 M 79.42904313290092,68.50928824723974 M 79.37793187233456,68.89751681489315 M 79.22808123857772,69.25928824723883 M 78.98970330468069,69.56994841902019 M 78.67904313290069,69.8083263529154 M 78.31727170055478,69.95817698667338 M 77.92904313290092,70.00928824723928 M 77.54081456524705,69.9581769866727 M 77.17904313290114,69.80832635291495 M 76.86838296112114,69.56994841902019 M 76.63000502722412,69.25928824723837 M 76.48015439346727,68.89751681489315 M 76.42904313290092,68.50928824723974 M 76.48015439346727,68.12105967958496 M 76.63000502722412,67.75928824723906 M 76.86838296112114,67.44862807545951 M 77.17904313290114,67.21025014156112 M 77.54081456524705,67.06039950780519 M 77.92904313290092,67.00928824723928 M 78.31727170055478,67.06039950780519 M 78.67904313290069,67.21025014156112 M 78.98970330468069,67.44862807545951 M 109.22808123857726,67.75928824723951 M 109.37793187233456,68.12105967958587 M 109.42904313290092,68.50928824723997 M 109.37793187233456,68.89751681489383 M 109.22808123857772,69.25928824723906 M 108.98970330468069,69.56994841902065 M 108.67904313290114,69.80832635291654 M 108.31727170055478,69.95817698667474 M 107.92904313290092,70.00928824723974 M 107.54081456524727,69.95817698667383 M 107.17904313290114,69.80832635291677 M 106.86838296112114,69.56994841902133 M 106.63000502722412,69.25928824724019 M 106.48015439346727,68.89751681489497 M 106.42904313290092,68.5092882472411 M 106.48015439346727,68.1210596795861 M 106.63000502722412,67.75928824723951 M 106.86838296112114,67.44862807546087 M 107.17904313290069,67.21025014156226 M 107.54081456524705,67.0603995078061 M 107.92904313290092,67.00928824724042 M 108.31727170055433,67.0603995078061 M 108.67904313290069,67.2102501415618 M 108.98970330468069,67.44862807546065 M 137.5408145652466,67.06039950780769 M 137.92904313290023,67.00928824724156 M 138.3172717005541,67.06039950780769 M 138.6790431329007,67.21025014156339 M 138.98970330468,67.44862807546087 M 139.22808123857726,67.75928824724156 M 139.37793187233387,68.12105967958792 M 139.4290431329007,68.50928824724224 M 139.37793187233387,68.89751681489611 M 139.22808123857703,69.25928824724087 M 138.98970330468,69.56994841902156 M 138.67904313290046,69.80832635291745 M 138.3172717005541,69.9581769866752 M 137.9290431329007,70.0092882472411 M 137.5408145652466,69.9581769866752 M 137.17904313290046,69.80832635291745 M 136.86838296112046,69.56994841902156 M 136.6300050272239,69.25928824724065 M 136.48015439346682,68.89751681489565 M 136.42904313290046,68.50928824724224 M 136.48015439346682,68.12105967958723 M 136.6300050272239,67.75928824724087 M 136.86838296112046,67.44862807546133 M 137.1790431329007,67.21025014156339 M 138.67904313290182,49.808326352917675 M 138.31727170055524,49.95817698667497 M 137.92904313290137,50.00928824724065 M 137.54081456524773,49.95817698667497 M 137.17904313290182,49.808326352917675 M 136.8683829611216,49.56994841901974 M 136.6300050272248,49.259288247240875 M 136.48015439346796,48.897516814894516 M 136.42904313290137,48.50928824724133 M 136.4801543934675,48.12105967958746 M 136.6300050272248,47.75928824724042 M 136.86838296112182,47.44862807546042 M 137.17904313290182,47.2102501415643 M 137.54081456524773,47.06039950780769 M 137.9290431329016,47.00928824724065 M 138.31727170055547,47.06039950780769 M 138.67904313290182,47.2102501415643 M 138.98970330468137,47.448628075460874 M 139.22808123857817,47.759288247240875 M 139.377931872335,48.12105967958814 M 139.42904313290137,48.509288247242466 M 139.377931872335,48.897516814894516 M 139.22808123857817,49.259288247240875 M 138.98970330468114,49.56994841901974 M 108.98970330468183,49.56994841901928 M 108.67904313290228,49.80832635291631 M 108.31727170055592,49.95817698667406 M 107.92904313290205,50.00928824723951 M 107.54081456524818,49.95817698667406 M 107.17904313290205,49.80832635291631 M 106.86838296112228,49.56994841901928 M 106.63000502722525,49.25928824724019 M 106.48015439346864,48.89751681489338 M 106.42904313290205,48.50928824724019 M 106.48015439346841,48.121059679586324 M 106.63000502722548,47.75928824724042 M 106.86838296112228,47.44862807545974 M 107.17904313290205,47.210250141563165 M 107.54081456524841,47.060399507807006 M 107.92904313290205,47.00928824723951 M 108.31727170055592,47.060399507807006 M 108.67904313290228,47.210250141563165 M 108.98970330468183,47.44862807545974 M 109.22808123857885,47.75928824724042 M 109.3779318723357,48.121059679586324 M 109.42904313290205,48.50928824724019 M 109.3779318723357,48.897516814893834 M 109.22808123857885,49.25928824724019 M 79.22808123857862,49.259288247239056 M 78.98970330468183,49.5699484190186 M 78.67904313290205,49.80832635291563 M 78.31727170055592,49.958176986672925 M 77.92904313290205,50.00928824723837 M 77.54081456524796,49.958176986672925 M 77.17904313290182,49.808326352915174 M 76.86838296112205,49.5699484190186 M 76.63000502722525,49.259288247239056 M 76.48015439346864,48.89751681489224 M 76.42904313290182,48.50928824723928 M 76.48015439346864,48.121059679584505 M 76.63000502722525,47.759288247239056 M 76.86838296112205,47.44862807545792 M 77.17904313290205,47.21025014156203 M 77.54081456524841,47.06039950780587 M 77.92904313290205,47.00928824723883 M 78.31727170055592,47.06039950780587 M 78.67904313290205,47.21025014156203 M 78.98970330468183,47.44862807545792 M 79.22808123857862,47.759288247239056 M 79.3779318723357,48.121059679584505 M 79.42904313290205,48.50928824724019 M 79.3779318723357,48.89751681489224 M 49.377931872335694,48.89751681489088 M 49.2280812385784,49.25928824723678 M 48.989703304681825,49.5699484190161 M 48.679043132901825,49.808326352913355 M 48.31727170055592,49.95817698667042 M 47.929043132901825,50.00928824723587 M 47.54081456524841,49.95817698667042 M 47.17904313290205,49.80832635291381 M 46.86838296112205,49.5699484190161 M 46.63000502722548,49.25928824723678 M 46.48015439346818,48.89751681489156 M 46.429043132901825,48.509288247237464 M 46.48015439346818,48.121059679582686 M 46.63000502722548,47.75928824723678 M 46.86838296112205,47.44862807545678 M 47.17904313290205,47.21025014155998 M 47.54081456524841,47.06039950780405 M 47.929043132901825,47.00928824723701 M 48.31727170055592,47.060399507803595 M 48.67904313290205,47.21025014155998 M 48.989703304681825,47.4486280754561 M 49.228081238578625,47.75928824723678 M 49.377931872335694,48.12105967958246 M 49.42904313290205,48.509288247237464 M 134.92904313290046,103.50928824723997 M 134.92904313290092,91.50928824723997 M 153.9290431329016,91.50928824724178 M 153.92904313290023,103.5092882472411 "
  />
  <path id="face1-interior"
 style="fill:none;stroke:#FF0000;stroke-width:1;stroke-miterlimit:4;stroke-dasharray:none;stroke-linejoin:round;stroke-linecap:round"
        d="M 171.92904313289932,574.9732851651179 L 171.92904313289978,549.9732851651177 L 168.92904313289978,549.9732851651177 L 168.92904313289978,524.9732851651177 L 171.92904313289932,524.9732851651177 L 171.92904313289978,499.9732851651179 L 168.92904313289978,499.9732851651179 L 168.92904313289932,474.9732851651179 L 171.92904313289978,474.9732851651179 L 171.92904313289932,449.97328516511766 L 168.92904313289978,449.97328516511766 L 168.92904313289932,424.9732851651181 L 171.92904313289932,424.9732851651181 L 171.92904313289932,399.9732851651179 L 168.92904313289932,399.9732851651179 L 168.92904313289978,374.9732851651179 L 16.92904313289955,374.9732851651179 L 16.929043132899324,399.9732851651179 L 13.929043132899551,399.9732851651179 L 13.929043132899551,424.9732851651181 L 16.92904313289955,424.9732851651181 L 16.92904313289955,449.97328516511766 L 13.929043132899096,449.97328516511766 L 13.929043132899551,474.9732851651179 L 16.92904313289955,474.9732851651179 L 16.929043132899324,499.9732851651179 L 13.929043132899551,499.9732851651179 L 13.929043132899096,524.9732851651177 L 16.92904313289955,524.9732851651177 L 16.92904313289955,549.9732851651177 L 13.929043132899551,549.9732851651177 L 13.929043132899096,574.9732851651179 L 171.92904313289932,574.9732851651179 "
  />
  <path id="face2-interior"
 style="fill:none;stroke:#FF0000;stroke-width:1;stroke-miterlimit:4;stroke-dasharray:none;stroke-linejoin:round;stroke-linecap:round"
        d="M 176.55892834716133,121.06690447799497 L 176.55892834716133,146.06690447799497 L 179.55892834716133,146.06690447799497 L 179.5589283471611,171.0669044779952 L 176.55892834716133,171.0669044779952 L 176.55892834716133,196.0669044779945 L 179.5589283471611,196.0669044779945 L 179.5589283471611,221.0669044779945 L 176.55892834716133,221.0669044779945 L 176.55892834716133,246.06690447799474 L 179.5589283471611,246.06690447799474 L 179.55892834716133,271.06690447799474 L 176.55892834716133,271.06690447799474 L 176.55892834716133,296.06690447799474 L 179.55892834716133,296.06690447799474 L 179.55892834716133,321.0669044779945 L 266.5589283471611,321.0669044779945 L 266.5589283471611,296.06690447799474 L 269.5589283471611,296.06690447799474 L 269.5589283471611,271.06690447799474 L 266.5589283471611,271.06690447799474 L 266.5589283471611,246.06690447799474 L 269.5589283471611,246.06690447799474 L 269.5589283471611,221.0669044779945 L 266.5589283471611,221.0669044779945 L 266.5589283471611,196.0669044779945 L 269.5589283471611,196.0669044779945 L 269.5589283471611,171.0669044779952 L 266.5589283471611,171.0669044779952 L 266.5589283471611,146.06690447799497 L 269.5589283471611,146.06690447799497 L 269.5589283471611,121.06690447799497 L 266.5589283471611,121.06690447799497 L 266.5589283471611,96.06690447799474 L 269.5589283471611,96.06690447799474 L 269.5589283471611,71.06690447799474 L 266.5589283471611,71.06690447799474 L 249.07578282473037,80.77976310156714 L 250.53271161826638,83.40223492993186 L 233.04956609583542,93.11509355350404 L 231.59263730229986,90.49262172513954 L 214.1094917798696,100.20548034871331 L 215.56642057340514,102.82795217707735 L 198.08327505097395,112.54081080064975 L 196.62634625743817,109.9183389722848 L 176.55892834716133,121.06690447799497 "
  />
  <path id="face3-interior"
 style="fill:none;stroke:#FF0000;stroke-width:1;stroke-miterlimit:4;stroke-dasharray:none;stroke-linejoin:round;stroke-linecap:round"
        d="M 269.1043409903832,399.97328516511834 L 269.1043409903832,374.9732851651181 L 249.03692308010636,363.8247196594077 L 247.57999428657058,366.44719148777267 L 230.0968487641394,356.7343328642005 L 231.5537775576754,354.111861035836 L 214.0706320352449,344.3990024122618 L 212.61370324170912,347.02147424062673 L 195.13055771927793,337.308615617055 L 196.58748651281394,334.6861437886903 L 179.1043409903832,324.9732851651172 L 176.10434099038343,324.9732851651172 L 176.10434099038298,349.9732851651179 L 179.1043409903832,349.9732851651179 L 179.10434099038343,374.9732851651181 L 176.10434099038298,374.9732851651181 L 176.10434099038298,399.97328516511834 L 179.1043409903832,399.97328516511834 L 179.10434099038343,424.9732851651181 L 176.10434099038343,424.9732851651181 L 176.10434099038298,449.97328516511743 L 179.1043409903832,449.97328516511743 L 179.1043409903832,474.97328516511766 L 176.10434099038298,474.97328516511766 L 176.10434099038343,499.9732851651181 L 179.10434099038343,499.9732851651181 L 179.10434099038343,524.9732851651181 L 176.10434099038298,524.9732851651181 L 176.10434099038298,549.9732851651181 L 179.10434099038343,549.9732851651181 L 179.10434099038343,574.9732851651179 L 266.1043409903832,574.9732851651179 L 266.1043409903832,549.9732851651177 L 269.1043409903832,549.9732851651181 L 269.1043409903832,524.9732851651181 L 266.1043409903832,524.9732851651181 L 266.1043409903832,499.9732851651181 L 269.1043409903832,499.9732851651181 L 269.1043409903832,474.97328516511766 L 266.1043409903832,474.97328516511766 L 266.1043409903832,449.97328516511743 L 269.1043409903832,449.97328516511743 L 269.1043409903832,424.9732851651181 L 266.1043409903832,424.9732851651181 L 266.1043409903832,399.97328516511834 L 269.1043409903832,399.97328516511834 "
  />
  <path id="face4-interior"
 style="fill:none;stroke:#FF0000;stroke-width:1;stroke-miterlimit:4;stroke-dasharray:none;stroke-linejoin:round;stroke-linecap:round"
        d="M 16.92904313289955,121.10281701302188 L 16.92904313289955,146.10281701302188 L 13.929043132899551,146.10281701302188 L 13.929043132899551,171.10281701302188 L 16.92904313289955,171.10281701302188 L 16.92904313289955,196.1028170130221 L 13.929043132899551,196.1028170130221 L 13.929043132899551,221.1028170130221 L 16.92904313289955,221.1028170130221 L 16.92904313289955,246.10281701302142 L 13.929043132899551,246.10281701302142 L 13.929043132899551,271.10281701302165 L 16.92904313289955,271.10281701302165 L 16.92904313289955,296.10281701302165 L 13.929043132899551,296.10281701302165 L 13.929043132899551,321.10281701302165 L 16.92904313289955,321.10281701302165 L 16.92904313289955,346.1028170130219 L 13.929043132899551,346.1028170130219 L 13.929043132899551,371.10281701302165 L 171.92904313289978,371.10281701302165 L 171.92904313289932,346.1028170130219 L 168.92904313289978,346.1028170130219 L 168.92904313289932,321.10281701302165 L 171.92904313289932,321.10281701302165 L 171.92904313289932,296.10281701302165 L 168.92904313289932,296.10281701302165 L 168.92904313289932,271.10281701302165 L 171.92904313289932,271.10281701302165 L 171.92904313289932,246.10281701302142 L 168.92904313289978,246.10281701302142 L 168.92904313289978,221.1028170130221 L 171.92904313289978,221.1028170130221 L 171.92904313289932,196.1028170130221 L 168.92904313289932,196.1028170130221 L 168.92904313289978,171.10281701302188 L 171.92904313289978,171.10281701302188 L 171.92904313289932,146.10281701302188 L 168.92904313289978,146.10281701302188 L 168.92904313289932,121.10281701302165 L 16.92904313289955,121.10281701302188 M 33.92904313289978,296.10281701302165 M 33.929043132899324,293.10281701302165 M 151.92904313289955,293.10281701302165 M 151.92904313289955,296.10281701302165 M 33.92904313289978,261.10281701302097 M 33.929043132899324,258.10281701302097 M 151.92904313289955,258.10281701302097 M 151.92904313289955,261.10281701302097 M 33.929043132899324,254.10281701302029 M 33.929043132899324,251.10281701302029 M 151.92904313289955,251.10281701302029 M 151.92904313289955,254.10281701302029 M 151.92904313289955,247.1028170130205 M 33.92904313289978,247.1028170130205 M 33.929043132899324,244.1028170130205 M 151.92904313289955,244.1028170130205 M 151.92904313289955,268.10281701302074 M 33.929043132899324,268.10281701302074 M 33.92904313289978,265.10281701302074 M 151.92904313289955,265.10281701302074 M 151.92904313289955,275.1028170130214 M 33.929043132899324,275.1028170130214 M 33.929043132899324,272.1028170130214 M 151.92904313289955,272.1028170130214 M 151.92904313289955,282.1028170130212 M 33.929043132899324,282.1028170130212 M 33.929043132899324,279.1028170130212 M 151.92904313289955,279.1028170130212 M 151.92904313289955,289.1028170130219 M 33.929043132899324,289.1028170130219 M 33.92904313289978,286.10281701302165 M 151.92904313289955,286.10281701302165 "
  />
  <path id="face5-interior"
 style="fill:none;stroke:#FF0000;stroke-width:1;stroke-miterlimit:4;stroke-dasharray:none;stroke-linejoin:round;stroke-linecap:round"
        d="M 10.0,10.0 M 10.0,589.9999999999998 M 277.99999999999955,590.0 M 277.99999999999955,10.0 M 171.92904313289864,78.50928824724247 M 171.92904313290046,98.50928824724178 M 168.92904313290114,98.50928824724178 M 168.92904313289932,118.50928824724247 M 16.929043132897505,118.50928824723451 M 16.929043132898187,98.50928824724178 M 13.929043132900915,98.50928824724178 M 13.929043132898187,78.50928824723292 M 16.92904313289887,78.50928824723337 M 16.929043132899324,58.50928824723337 M 13.929043132898869,58.50928824723428 M 13.929043132898869,38.509288247233826 M 16.929043132899324,38.50928824723428 M 16.929043132900233,20.50928824723428 M 168.9290431329,20.509288247241557 M 168.92904313289932,38.5092882472411 M 171.9290431329,38.509288247241784 M 171.92904313289932,58.50928824724315 M 168.92904313290046,58.50928824724224 M 168.92904313289978,78.50928824724201 M 171.92904313289978,549.9732851651177 M 171.92904313289932,574.9732851651179 M 13.929043132899096,574.9732851651179 M 13.929043132899551,549.9732851651177 M 16.92904313289955,549.9732851651177 M 16.92904313289955,524.9732851651177 M 13.929043132899096,524.9732851651177 M 13.929043132899551,499.9732851651179 M 16.929043132899324,499.9732851651179 M 16.92904313289955,474.9732851651179 M 13.929043132899551,474.9732851651179 M 13.929043132899096,449.97328516511766 M 16.92904313289955,449.97328516511766 M 16.92904313289955,424.9732851651181 M 13.929043132899551,424.9732851651181 M 13.929043132899551,399.9732851651179 M 16.929043132899324,399.9732851651179 M 16.92904313289955,374.9732851651179 M 168.92904313289978,374.9732851651179 M 168.92904313289932,399.9732851651179 M 171.92904313289932,399.9732851651179 M 171.92904313289932,424.9732851651181 M 168.92904313289932,424.9732851651181 M 168.92904313289978,449.97328516511766 M 171.92904313289932,449.97328516511766 M 171.92904313289978,474.9732851651179 M 168.92904313289932,474.9732851651179 M 168.92904313289978,499.9732851651179 M 171.92904313289978,499.9732851651179 M 171.92904313289932,524.9732851651177 M 168.92904313289978,524.9732851651177 M 168.92904313289978,549.9732851651177 M 176.55892834716133,146.06690447799497 M 176.55892834716133,121.06690447799497 M 196.62634625743817,109.9183389722848 M 198.08327505097395,112.54081080064975 M 215.56642057340514,102.82795217707735 M 214.1094917798696,100.20548034871331 M 231.59263730229986,90.49262172513954 M 233.04956609583542,93.11509355350404 M 250.53271161826638,83.40223492993186 M 249.07578282473037,80.77976310156714 M 266.5589283471611,71.06690447799474 M 269.5589283471611,71.06690447799474 M 269.5589283471611,96.06690447799474 M 266.5589283471611,96.06690447799474 M 266.5589283471611,121.06690447799497 M 269.5589283471611,121.06690447799497 M 269.5589283471611,146.06690447799497 M 266.5589283471611,146.06690447799497 M 266.5589283471611,171.0669044779952 M 269.5589283471611,171.0669044779952 M 269.5589283471611,196.0669044779945 M 266.5589283471611,196.0669044779945 M 266.5589283471611,221.0669044779945 M 269.5589283471611,221.0669044779945 M 269.5589283471611,246.06690447799474 M 266.5589283471611,246.06690447799474 M 266.5589283471611,271.06690447799474 M 269.5589283471611,271.06690447799474 M 269.5589283471611,296.06690447799474 M 266.5589283471611,296.06690447799474 M 266.5589283471611,321.0669044779945 M 179.55892834716133,321.0669044779945 M 179.55892834716133,296.06690447799474 M 176.55892834716133,296.06690447799474 M 176.55892834716133,271.06690447799474 M 179.55892834716133,271.06690447799474 M 179.5589283471611,246.06690447799474 M 176.55892834716133,246.06690447799474 M 176.55892834716133,221.0669044779945 M 179.5589283471611,221.0669044779945 M 179.5589283471611,196.0669044779945 M 176.55892834716133,196.0669044779945 M 176.55892834716133,171.0669044779952 M 179.5589283471611,171.0669044779952 M 179.55892834716133,146.06690447799497 M 269.1043409903832,374.9732851651181 M 269.1043409903832,399.97328516511834 M 266.1043409903832,399.97328516511834 M 266.1043409903832,424.9732851651181 M 269.1043409903832,424.9732851651181 M 269.1043409903832,449.97328516511743 M 266.1043409903832,449.97328516511743 M 266.1043409903832,474.97328516511766 M 269.1043409903832,474.97328516511766 M 269.1043409903832,499.9732851651181 M 266.1043409903832,499.9732851651181 M 266.1043409903832,524.9732851651181 M 269.1043409903832,524.9732851651181 M 269.1043409903832,549.9732851651181 M 266.1043409903832,549.9732851651177 M 266.1043409903832,574.9732851651179 M 179.10434099038343,574.9732851651179 M 179.10434099038343,549.9732851651181 M 176.10434099038298,549.9732851651181 M 176.10434099038298,524.9732851651181 M 179.10434099038343,524.9732851651181 M 179.10434099038343,499.9732851651181 M 176.10434099038343,499.9732851651181 M 176.10434099038298,474.97328516511766 M 179.1043409903832,474.97328516511766 M 179.1043409903832,449.97328516511743 M 176.10434099038298,449.97328516511743 M 176.10434099038343,424.9732851651181 M 179.10434099038343,424.9732851651181 M 179.1043409903832,399.97328516511834 M 176.10434099038298,399.97328516511834 M 176.10434099038298,374.9732851651181 M 179.10434099038343,374.9732851651181 M 179.1043409903832,349.9732851651179 M 176.10434099038298,349.9732851651179 M 176.10434099038343,324.9732851651172 M 179.1043409903832,324.9732851651172 M 196.58748651281394,334.6861437886903 M 195.13055771927793,337.308615617055 M 212.61370324170912,347.02147424062673 M 214.0706320352449,344.3990024122618 M 231.5537775576754,354.111861035836 M 230.0968487641394,356.7343328642005 M 247.57999428657058,366.44719148777267 M 249.03692308010636,363.8247196594077 M 16.92904313289955,146.10281701302188 M 16.92904313289955,121.10281701302188 M 168.92904313289932,121.10281701302165 M 168.92904313289978,146.10281701302188 M 171.92904313289932,146.10281701302188 M 171.92904313289978,171.10281701302188 M 168.92904313289978,171.10281701302188 M 168.92904313289932,196.1028170130221 M 171.92904313289932,196.1028170130221 M 171.92904313289978,221.1028170130221 M 168.92904313289978,221.1028170130221 M 168.92904313289978,246.10281701302142 M 171.92904313289932,246.10281701302142 M 171.92904313289932,271.10281701302165 M 168.92904313289932,271.10281701302165 M 168.92904313289932,296.10281701302165 M 171.92904313289932,296.10281701302165 M 171.92904313289932,321.10281701302165 M 168.92904313289932,321.10281701302165 M 168.92904313289978,346.1028170130219 M 171.92904313289932,346.1028170130219 M 171.92904313289978,371.10281701302165 M 13.929043132899551,371.10281701302165 M 13.929043132899551,346.1028170130219 M 16.92904313289955,346.1028170130219 M 16.92904313289955,321.10281701302165 M 13.929043132899551,321.10281701302165 M 13.929043132899551,296.10281701302165 M 16.92904313289955,296.10281701302165 M 16.92904313289955,271.10281701302165 M 13.929043132899551,271.10281701302165 M 13.929043132899551,246.10281701302142 M 16.92904313289955,246.10281701302142 M 16.92904313289955,221.1028170130221 M 13.929043132899551,221.1028170130221 M 13.929043132899551,196.1028170130221 M 16.92904313289955,196.1028170130221 M 16.92904313289955,171.10281701302188 M 13.929043132899551,171.10281701302188 M 13.929043132899551,146.10281701302188 "
  />
  <path id="face0-interior"
 style="fill:none;stroke:#00FF00;stroke-width:1;stroke-miterlimit:4;stroke-dasharray:none;stroke-linejoin:round;stroke-linecap:round"
        d="M 171.92904313290046,98.50928824724178 M 171.92904313289864,78.50928824724247 M 168.92904313289978,78.50928824724201 M 168.92904313290046,58.50928824724224 M 171.92904313289932,58.50928824724315 M 171.9290431329,38.509288247241784 M 168.92904313289932,38.5092882472411 M 168.9290431329,20.509288247241557 M 16.929043132900233,20.50928824723428 M 16.929043132899324,38.50928824723428 M 13.929043132898869,38.509288247233826 M 13.929043132898869,58.50928824723428 M 16.929043132899324,58.50928824723337 M 16.92904313289887,78.50928824723337 M 13.929043132898187,78.50928824723292 M 13.929043132900915,98.50928824724178 M 16.929043132898187,98.50928824724178 M 16.929043132897505,118.50928824723451 M 168.92904313289932,118.50928824724247 M 168.92904313290114,98.50928824724178 M 46.429043132900915,68.50928824723746 M 46.4801543934675,68.1210596795836 M 46.630005027224115,67.75928824723724 M 46.86838296112114,67.44862807545837 M 47.17904313290069,67.21025014155862 M 47.540814565247274,67.06039950780314 M 47.92904313290114,67.00928824723701 M 48.31727170055433,67.06039950780314 M 48.679043132900915,67.21025014155862 M 48.98970330468069,67.44862807545815 M 49.22808123857749,67.75928824723701 M 49.3779318723341,68.1210596795836 M 49.429043132900915,68.50928824723792 M 49.37793187233456,68.89751681489065 M 49.22808123857749,69.25928824723724 M 48.98970330468069,69.56994841901769 M 48.679043132900915,69.80832635291313 M 48.31727170055433,69.95817698667156 M 47.929043132900915,70.00928824723792 M 47.540814565247274,69.95817698667202 M 47.17904313290069,69.80832635291358 M 46.86838296112114,69.5699484190186 M 46.630005027224115,69.25928824723769 M 46.4801543934675,68.8975168148911 M 79.22808123857772,67.75928824723951 M 79.37793187233456,68.12105967958541 M 79.42904313290092,68.50928824723974 M 79.37793187233456,68.89751681489315 M 79.22808123857772,69.25928824723883 M 78.98970330468069,69.56994841902019 M 78.67904313290069,69.8083263529154 M 78.31727170055478,69.95817698667338 M 77.92904313290092,70.00928824723928 M 77.54081456524705,69.9581769866727 M 77.17904313290114,69.80832635291495 M 76.86838296112114,69.56994841902019 M 76.63000502722412,69.25928824723837 M 76.48015439346727,68.89751681489315 M 76.42904313290092,68.50928824723974 M 76.48015439346727,68.12105967958496 M 76.63000502722412,67.75928824723906 M 76.86838296112114,67.44862807545951 M 77.17904313290114,67.21025014156112 M 77.54081456524705,67.06039950780519 M 77.92904313290092,67.00928824723928 M 78.31727170055478,67.06039950780519 M 78.67904313290069,67.21025014156112 M 78.98970330468069,67.44862807545951 M 109.22808123857726,67.75928824723951 M 109.37793187233456,68.12105967958587 M 109.42904313290092,68.50928824723997 M 109.37793187233456,68.89751681489383 M 109.22808123857772,69.25928824723906 M 108.98970330468069,69.56994841902065 M 108.67904313290114,69.80832635291654 M 108.31727170055478,69.95817698667474 M 107.92904313290092,70.00928824723974 M 107.54081456524727,69.95817698667383 M 107.17904313290114,69.80832635291677 M 106.86838296112114,69.56994841902133 M 106.63000502722412,69.25928824724019 M 106.48015439346727,68.89751681489497 M 106.42904313290092,68.5092882472411 M 106.48015439346727,68.1210596795861 M 106.63000502722412,67.75928824723951 M 106.86838296112114,67.44862807546087 M 107.17904313290069,67.21025014156226 M 107.54081456524705,67.0603995078061 M 107.92904313290092,67.00928824724042 M 108.31727170055433,67.0603995078061 M 108.67904313290069,67.2102501415618 M 108.98970330468069,67.44862807546065 M 137.5408145652466,67.06039950780769 M 137.92904313290023,67.00928824724156 M 138.3172717005541,67.06039950780769 M 138.6790431329007,67.21025014156339 M 138.98970330468,67.44862807546087 M 139.22808123857726,67.75928824724156 M 139.37793187233387,68.12105967958792 M 139.4290431329007,68.50928824724224 M 139.37793187233387,68.89751681489611 M 139.22808123857703,69.25928824724087 M 138.98970330468,69.56994841902156 M 138.67904313290046,69.80832635291745 M 138.3172717005541,69.9581769866752 M 137.9290431329007,70.0092882472411 M 137.5408145652466,69.9581769866752 M 137.17904313290046,69.80832635291745 M 136.86838296112046,69.56994841902156 M 136.6300050272239,69.25928824724065 M 136.48015439346682,68.89751681489565 M 136.42904313290046,68.50928824724224 M 136.48015439346682,68.12105967958723 M 136.6300050272239,67.75928824724087 M 136.86838296112046,67.44862807546133 M 137.1790431329007,67.21025014156339 M 138.67904313290182,49.808326352917675 M 138.31727170055524,49.95817698667497 M 137.92904313290137,50.00928824724065 M 137.54081456524773,49.95817698667497 M 137.17904313290182,49.808326352917675 M 136.8683829611216,49.56994841901974 M 136.6300050272248,49.259288247240875 M 136.48015439346796,48.897516814894516 M 136.42904313290137,48.50928824724133 M 136.4801543934675,48.12105967958746 M 136.6300050272248,47.75928824724042 M 136.86838296112182,47.44862807546042 M 137.17904313290182,47.2102501415643 M 137.54081456524773,47.06039950780769 M 137.9290431329016,47.00928824724065 M 138.31727170055547,47.06039950780769 M 138.67904313290182,47.2102501415643 M 138.98970330468137,47.448628075460874 M 139.22808123857817,47.759288247240875 M 139.377931872335,48.12105967958814 M 139.42904313290137,48.509288247242466 M 139.377931872335,48.897516814894516 M 139.22808123857817,49.259288247240875 M 138.98970330468114,49.56994841901974 M 108.98970330468183,49.56994841901928 M 108.67904313290228,49.80832635291631 M 108.31727170055592,49.95817698667406 M 107.92904313290205,50.00928824723951 M 107.54081456524818,49.95817698667406 M 107.17904313290205,49.80832635291631 M 106.86838296112228,49.56994841901928 M 106.63000502722525,49.25928824724019 M 106.48015439346864,48.89751681489338 M 106.42904313290205,48.50928824724019 M 106.48015439346841,48.121059679586324 M 106.63000502722548,47.75928824724042 M 106.86838296112228,47.44862807545974 M 107.17904313290205,47.210250141563165 M 107.54081456524841,47.060399507807006 M 107.92904313290205,47.00928824723951 M 108.31727170055592,47.060399507807006 M 108.67904313290228,47.210250141563165 M 108.98970330468183,47.44862807545974 M 109.22808123857885,47.75928824724042 M 109.3779318723357,48.121059679586324 M 109.42904313290205,48.50928824724019 M 109.3779318723357,48.897516814893834 M 109.22808123857885,49.25928824724019 M 79.22808123857862,49.259288247239056 M 78.98970330468183,49.5699484190186 M 78.67904313290205,49.80832635291563 M 78.31727170055592,49.958176986672925 M 77.92904313290205,50.00928824723837 M 77.54081456524796,49.958176986672925 M 77.17904313290182,49.808326352915174 M 76.86838296112205,49.5699484190186 M 76.63000502722525,49.259288247239056 M 76.48015439346864,48.89751681489224 M 76.42904313290182,48.50928824723928 M 76.48015439346864,48.121059679584505 M 76.63000502722525,47.759288247239056 M 76.86838296112205,47.44862807545792 M 77.17904313290205,47.21025014156203 M 77.54081456524841,47.06039950780587 M 77.92904313290205,47.00928824723883 M 78.31727170055592,47.06039950780587 M 78.67904313290205,47.21025014156203 M 78.98970330468183,47.44862807545792 M 79.22808123857862,47.759288247239056 M 79.3779318723357,48.121059679584505 M 79.42904313290205,48.50928824724019 M 79.3779318723357,48.89751681489224 M 49.377931872335694,48.89751681489088 M 49.2280812385784,49.25928824723678 M 48.989703304681825,49.5699484190161 M 48.679043132901825,49.808326352913355 M 48.31727170055592,49.95817698667042 M 47.929043132901825,50.00928824723587 M 47.54081456524841,49.95817698667042 M 47.17904313290205,49.80832635291381 M 46.86838296112205,49.5699484190161 M 46.63000502722548,49.25928824723678 M 46.48015439346818,48.89751681489156 M 46.429043132901825,48.509288247237464 M 46.48015439346818,48.121059679582686 M 46.63000502722548,47.75928824723678 M 46.86838296112205,47.44862807545678 M 47.17904313290205,47.21025014155998 M 47.54081456524841,47.06039950780405 M 47.929043132901825,47.00928824723701 M 48.31727170055592,47.060399507803595 M 48.67904313290205,47.21025014155998 M 48.989703304681825,47.4486280754561 M 49.228081238578625,47.75928824723678 M 49.377931872335694,48.12105967958246 M 49.42904313290205,48.509288247237464 M 134.92904313290046,103.50928824723997 M 134.92904313290092,91.50928824723997 M 153.9290431329016,91.50928824724178 M 153.92904313290023,103.5092882472411 "
  />
  <path id="face1-interior"
 style="fill:none;stroke:#00FF00;stroke-width:1;stroke-miterlimit:4;stroke-dasharray:none;stroke-linejoin:round;stroke-linecap:round"
        d="M 171.92904313289932,574.9732851651179 M 171.92904313289978,549.9732851651177 M 168.92904313289978,549.9732851651177 M 168.92904313289978,524.9732851651177 M 171.92904313289932,524.9732851651177 M 171.92904313289978,499.9732851651179 M 168.92904313289978,499.9732851651179 M 168.92904313289932,474.9732851651179 M 171.92904313289978,474.9732851651179 M 171.92904313289932,449.97328516511766 M 168.92904313289978,449.97328516511766 M 168.92904313289932,424.9732851651181 M 171.92904313289932,424.9732851651181 M 171.92904313289932,399.9732851651179 M 168.92904313289932,399.9732851651179 M 168.92904313289978,374.9732851651179 M 16.92904313289955,374.9732851651179 M 16.929043132899324,399.9732851651179 M 13.929043132899551,399.9732851651179 M 13.929043132899551,424.9732851651181 M 16.92904313289955,424.9732851651181 M 16.92904313289955,449.97328516511766 M 13.929043132899096,449.97328516511766 M 13.929043132899551,474.9732851651179 M 16.92904313289955,474.9732851651179 M 16.929043132899324,499.9732851651179 M 13.929043132899551,499.9732851651179 M 13.929043132899096,524.9732851651177 M 16.92904313289955,524.9732851651177 M 16.92904313289955,549.9732851651177 M 13.929043132899551,549.9732851651177 M 13.929043132899096,574.9732851651179 "
  />
  <path id="face2-interior"
 style="fill:none;stroke:#00FF00;stroke-width:1;stroke-miterlimit:4;stroke-dasharray:none;stroke-linejoin:round;stroke-linecap:round"
        d="M 176.55892834716133,121.06690447799497 M 176.55892834716133,146.06690447799497 M 179.55892834716133,146.06690447799497 M 179.5589283471611,171.0669044779952 M 176.55892834716133,171.0669044779952 M 176.55892834716133,196.0669044779945 M 179.5589283471611,196.0669044779945 M 179.5589283471611,221.0669044779945 M 176.55892834716133,221.0669044779945 M 176.55892834716133,246.06690447799474 M 179.5589283471611,246.06690447799474 M 179.55892834716133,271.06690447799474 M 176.55892834716133,271.06690447799474 M 176.55892834716133,296.06690447799474 M 179.55892834716133,296.06690447799474 M 179.55892834716133,321.0669044779945 M 266.5589283471611,321.0669044779945 M 266.5589283471611,296.06690447799474 M 269.5589283471611,296.06690447799474 M 269.5589283471611,271.06690447799474 M 266.5589283471611,271.06690447799474 M 266.5589283471611,246.06690447799474 M 269.5589283471611,246.06690447799474 M 269.5589283471611,221.0669044779945 M 266.5589283471611,221.0669044779945 M 266.5589283471611,196.0669044779945 M 269.5589283471611,196.0669044779945 M 269.5589283471611,171.0669044779952 M 266.5589283471611,171.0669044779952 M 266.5589283471611,146.06690447799497 M 269.5589283471611,146.06690447799497 M 269.5589283471611,121.06690447799497 M 266.5589283471611,121.06690447799497 M 266.5589283471611,96.06690447799474 M 269.5589283471611,96.06690447799474 M 269.5589283471611,71.06690447799474 M 266.5589283471611,71.06690447799474 M 249.07578282473037,80.77976310156714 M 250.53271161826638,83.40223492993186 M 233.04956609583542,93.11509355350404 M 231.59263730229986,90.49262172513954 M 214.1094917798696,100.20548034871331 M 215.56642057340514,102.82795217707735 M 198.08327505097395,112.54081080064975 M 196.62634625743817,109.9183389722848 "
  />
  <path id="face3-interior"
 style="fill:none;stroke:#00FF00;stroke-width:1;stroke-miterlimit:4;stroke-dasharray:none;stroke-linejoin:round;stroke-linecap:round"
        d="M 269.1043409903832,399.97328516511834 M 269.1043409903832,374.9732851651181 M 249.03692308010636,363.8247196594077 M 247.57999428657058,366.44719148777267 M 230.0968487641394,356.7343328642005 M 231.5537775576754,354.111861035836 M 214.0706320352449,344.3990024122618 M 212.61370324170912,347.02147424062673 M 195.13055771927793,337.308615617055 M 196.58748651281394,334.6861437886903 M 179.1043409903832,324.9732851651172 M 176.10434099038343,324.9732851651172 M 176.10434099038298,349.9732851651179 M 179.1043409903832,349.9732851651179 M 179.10434099038343,374.9732851651181 M 176.10434099038298,374.9732851651181 M 176.10434099038298,399.97328516511834 M 179.1043409903832,399.97328516511834 M 179.10434099038343,424.9732851651181 M 176.10434099038343,424.9732851651181 M 176.10434099038298,449.97328516511743 M 179.1043409903832,449.97328516511743 M 179.1043409903832,474.97328516511766 M 176.10434099038298,474.97328516511766 M 176.10434099038343,499.9732851651181 M 179.10434099038343,499.9732851651181 M 179.10434099038343,524.9732851651181 M 176.10434099038298,524.9732851651181 M 176.10434099038298,549.9732851651181 M 179.10434099038343,549.9732851651181 M 179.10434099038343,574.9732851651179 M 266.1043409903832,574.9732851651179 M 266.1043409903832,549.9732851651177 M 269.1043409903832,549.9732851651181 M 269.1043409903832,524.9732851651181 M 266.1043409903832,524.9732851651181 M 266.1043409903832,499.9732851651181 M 269.1043409903832,499.9732851651181 M 269.1043409903832,474.97328516511766 M 266.1043409903832,474.97328516511766 M 266.1043409903832,449.97328516511743 M 269.1043409903832,449.97328516511743 M 269.1043409903832,424.9732851651181 M 266.1043409903832,424.9732851651181 M 266.1043409903832,399.97328516511834 "
  />
  <path id="face4-interior"
 style="fill:none;stroke:#00FF00;stroke-width:1;stroke-miterlimit:4;stroke-dasharray:none;stroke-linejoin:round;stroke-linecap:round"
        d="M 16.92904313289955,121.10281701302188 M 16.92904313289955,146.10281701302188 M 13.929043132899551,146.10281701302188 M 13.929043132899551,171.10281701302188 M 16.92904313289955,171.10281701302188 M 16.92904313289955,196.1028170130221 M 13.929043132899551,196.1028170130221 M 13.929043132899551,221.1028170130221 M 16.92904313289955,221.1028170130221 M 16.92904313289955,246.10281701302142 M 13.929043132899551,246.10281701302142 M 13.929043132899551,271.10281701302165 M 16.92904313289955,271.10281701302165 M 16.92904313289955,296.10281701302165 M 13.929043132899551,296.10281701302165 M 13.929043132899551,321.10281701302165 M 16.92904313289955,321.10281701302165 M 16.92904313289955,346.1028170130219 M 13.929043132899551,346.1028170130219 M 13.929043132899551,371.10281701302165 M 171.92904313289978,371.10281701302165 M 171.92904313289932,346.1028170130219 M 168.92904313289978,346.1028170130219 M 168.92904313289932,321.10281701302165 M 171.92904313289932,321.10281701302165 M 171.92904313289932,296.10281701302165 M 168.92904313289932,296.10281701302165 M 168.92904313289932,271.10281701302165 M 171.92904313289932,271.10281701302165 M 171.92904313289932,246.10281701302142 M 168.92904313289978,246.10281701302142 M 168.92904313289978,221.1028170130221 M 171.92904313289978,221.1028170130221 M 171.92904313289932,196.1028170130221 M 168.92904313289932,196.1028170130221 M 168.92904313289978,171.10281701302188 M 171.92904313289978,171.10281701302188 M 171.92904313289932,146.10281701302188 M 168.92904313289978,146.10281701302188 M 168.92904313289932,121.10281701302165 M 33.92904313289978,296.10281701302165 M 33.929043132899324,293.10281701302165 M 151.92904313289955,293.10281701302165 M 151.92904313289955,296.10281701302165 M 33.92904313289978,261.10281701302097 M 33.929043132899324,258.10281701302097 M 151.92904313289955,258.10281701302097 M 151.92904313289955,261.10281701302097 M 33.929043132899324,254.10281701302029 M 33.929043132899324,251.10281701302029 M 151.92904313289955,251.10281701302029 M 151.92904313289955,254.10281701302029 M 151.92904313289955,247.1028170130205 M 33.92904313289978,247.1028170130205 M 33.929043132899324,244.1028170130205 M 151.92904313289955,244.1028170130205 M 151.92904313289955,268.10281701302074 M 33.929043132899324,268.10281701302074 M 33.92904313289978,265.10281701302074 M 151.92904313289955,265.10281701302074 M 151.92904313289955,275.1028170130214 M 33.929043132899324,275.1028170130214 M 33.929043132899324,272.1028170130214 M 151.92904313289955,272.1028170130214 M 151.92904313289955,282.1028170130212 M 33.929043132899324,282.1028170130212 M 33.929043132899324,279.1028170130212 M 151.92904313289955,279.1028170130212 M 151.92904313289955,289.1028170130219 M 33.929043132899324,289.1028170130219 M 33.92904313289978,286.10281701302165 M 151.92904313289955,286.10281701302165 "
  />
  <path id="face5-interior"
 style="fill:none;stroke:#00FF00;stroke-width:1;stroke-miterlimit:4;stroke-dasharray:none;stroke-linejoin:round;stroke-linecap:round"
        d="M 10.0,10.0 M 10.0,589.9999999999998 M 277.99999999999955,590.0 M 277.99999999999955,10.0 M 171.92904313289864,78.50928824724247 M 171.92904313290046,98.50928824724178 M 168.92904313290114,98.50928824724178 M 168.92904313289932,118.50928824724247 M 16.929043132897505,118.50928824723451 M 16.929043132898187,98.50928824724178 M 13.929043132900915,98.50928824724178 M 13.929043132898187,78.50928824723292 M 16.92904313289887,78.50928824723337 M 16.929043132899324,58.50928824723337 M 13.929043132898869,58.50928824723428 M 13.929043132898869,38.509288247233826 M 16.929043132899324,38.50928824723428 M 16.929043132900233,20.50928824723428 M 168.9290431329,20.509288247241557 M 168.92904313289932,38.5092882472411 M 171.9290431329,38.509288247241784 M 171.92904313289932,58.50928824724315 M 168.92904313290046,58.50928824724224 M 168.92904313289978,78.50928824724201 M 171.92904313289978,549.9732851651177 M 171.92904313289932,574.9732851651179 M 13.929043132899096,574.9732851651179 M 13.929043132899551,549.9732851651177 M 16.92904313289955,549.9732851651177 M 16.92904313289955,524.9732851651177 M 13.929043132899096,524.9732851651177 M 13.929043132899551,499.9732851651179 M 16.929043132899324,499.9732851651179 M 16.92904313289955,474.9732851651179 M 13.929043132899551,474.9732851651179 M 13.929043132899096,449.97328516511766 M 16.92904313289955,449.97328516511766 M 16.92904313289955,424.9732851651181 M 13.929043132899551,424.9732851651181 M 13.929043132899551,399.9732851651179 M 16.929043132899324,399.9732851651179 M 16.92904313289955,374.9732851651179 M 168.92904313289978,374.9732851651179 M 168.92904313289932,399.9732851651179 M 171.92904313289932,399.9732851651179 M 171.92904313289932,424.9732851651181 M 168.92904313289932,424.9732851651181 M 168.92904313289978,449.97328516511766 M 171.92904313289932,449.97328516511766 M 171.92904313289978,474.9732851651179 M 168.92904313289932,474.9732851651179 M 168.92904313289978,499.9732851651179 M 171.92904313289978,499.9732851651179 M 171.92904313289932,524.9732851651177 M 168.92904313289978,524.9732851651177 M 168.92904313289978,549.9732851651177 M 176.55892834716133,146.06690447799497 M 176.55892834716133,121.06690447799497 M 196.62634625743817,109.9183389722848 M 198.08327505097395,112.54081080064975 M 215.56642057340514,102.82795217707735 M 214.1094917798696,100.20548034871331 M 231.59263730229986,90.49262172513954 M 233.04956609583542,93.11509355350404 M 250.53271161826638,83.40223492993186 M 249.07578282473037,80.77976310156714 M 266.5589283471611,71.06690447799474 M 269.5589283471611,71.06690447799474 M 269.5589283471611,96.06690447799474 M 266.5589283471611,96.06690447799474 M 266.5589283471611,121.06690447799497 M 269.5589283471611,121.06690447799497 M 269.5589283471611,146.06690447799497 M 266.5589283471611,146.06690447799497 M 266.5589283471611,171.0669044779952 M 269.5589283471611,171.0669044779952 M 269.5589283471611,196.0669044779945 M 266.5589283471611,196.0669044779945 M 266.5589283471611,221.0669044779945 M 269.5589283471611,221.0669044779945 M 269.5589283471611,246.06690447799474 M 266.5589283471611,246.06690447799474 M 266.5589283471611,271.06690447799474 M 269.5589283471611,271.06690447799474 M 269.5589283471611,296.06690447799474 M 266.5589283471611,296.06690447799474 M 266.5589283471611,321.0669044779945 M 179.55892834716133,321.0669044779945 M 179.55892834716133,296.06690447799474 M 176.55892834716133,296.06690447799474 M 176.55892834716133,271.06690447799474 M 179.55892834716133,271.06690447799474 M 179.5589283471611,246.06690447799474 M 176.55892834716133,246.06690447799474 M 176.55892834716133,221.0669044779945 M 179.5589283471611,221.0669044779945 M 179.5589283471611,196.0669044779945 M 176.55892834716133,196.0669044779945 M 176.55892834716133,171.0669044779952 M 179.5589283471611,171.0669044779952 M 179.55892834716133,146.06690447799497 M 269.1043409903832,374.9732851651181 M 269.1043409903832,399.97328516511834 M 266.1043409903832,399.97328516511834 M 266.1043409903832,424.9732851651181 M 269.1043409903832,424.9732851651181 M 269.1043409903832,449.97328516511743 M 266.1043409903832,449.97328516511743 M 266.1043409903832,474.97328516511766 M 269.1043409903832,474.97328516511766 M 269.1043409903832,499.9732851651181 M 266.1043409903832,499.9732851651181 M 266.1043409903832,524.9732851651181 M 269.1043409903832,524.9732851651181 M 269.1043409903832,549.9732851651181 M 266.1043409903832,549.9732851651177 M 266.1043409903832,574.9732851651179 M 179.10434099038343,574.9732851651179 M 179.10434099038343,549.9732851651181 M 176.10434099038298,549.9732851651181 M 176.10434099038298,524.9732851651181 M 179.10434099038343,524.9732851651181 M 179.10434099038343,499.9732851651181 M 176.10434099038343,499.9732851651181 M 176.10434099038298,474.97328516511766 M 179.1043409903832,474.97328516511766 M 179.1043409903832,449.97328516511743 M 176.10434099038298,449.97328516511743 M 176.10434099038343,424.9732851651181 M 179.10434099038343,424.9732851651181 M 179.1043409903832,399.97328516511834 M 176.10434099038298,399.97328516511834 M 176.10434099038298,374.9732851651181 M 179.10434099038343,374.9732851651181 M 179.1043409903832,349.9732851651179 M 176.10434099038298,349.9732851651179 M 176.10434099038343,324.9732851651172 M 179.1043409903832,324.9732851651172 M 196.58748651281394,334.6861437886903 M 195.13055771927793,337.308615617055 M 212.61370324170912,347.02147424062673 M 214.0706320352449,344.3990024122618 M 231.5537775576754,354.111861035836 M 230.0968487641394,356.7343328642005 M 247.57999428657058,366.44719148777267 M 249.03692308010636,363.8247196594077 M 16.92904313289955,146.10281701302188 M 16.92904313289955,121.10281701302188 M 168.92904313289932,121.10281701302165 M 168.92904313289978,146.10281701302188 M 171.92904313289932,146.10281701302188 M 171.92904313289978,171.10281701302188 M 168.92904313289978,171.10281701302188 M 168.92904313289932,196.1028170130221 M 171.92904313289932,196.1028170130221 M 171.92904313289978,221.1028170130221 M 168.92904313289978,221.1028170130221 M 168.92904313289978,246.10281701302142 M 171.92904313289932,246.10281701302142 M 171.92904313289932,271.10281701302165 M 168.92904313289932,271.10281701302165 M 168.92904313289932,296.10281701302165 M 171.92904313289932,296.10281701302165 M 171.92904313289932,321.10281701302165 M 168.92904313289932,321.10281701302165 M 168.92904313289978,346.1028170130219 M 171.92904313289932,346.1028170130219 M 171.92904313289978,371.10281701302165 M 13.929043132899551,371.10281701302165 M 13.929043132899551,346.1028170130219 M 16.92904313289955,346.1028170130219 M 16.92904313289955,321.10281701302165 M 13.929043132899551,321.10281701302165 M 13.929043132899551,296.10281701302165 M 16.92904313289955,296.10281701302165 M 16.92904313289955,271.10281701302165 M 13.929043132899551,271.10281701302165 M 13.929043132899551,246.10281701302142 M 16.92904313289955,246.10281701302142 M 16.92904313289955,221.1028170130221 M 13.929043132899551,221.1028170130221 M 13.929043132899551,196.1028170130221 M 16.92904313289955,196.1028170130221 M 16.92904313289955,171.10281701302188 M 13.929043132899551,171.10281701302188 M 13.929043132899551,146.10281701302188 "
  />
</svg>
