999
Inkscape export via "Better DXF Output" (bob@bobcookdev.com)
  0
SECTION
  2
HEADER
  9
$ACADVER
  1
AC1014
  9
$HANDSEED
  5
FFFF
  0
ENDSEC
  0
SECTION
  2
TABLES
  0
TABLE
  2
VPORT
  5
8
330
0
100
AcDbSymbolTable
 70
     4
  0
VPORT
  5
2E
330
8
100
AcDbSymbolTableRecord
100
AcDbViewportTableRecord
  2
*ACTIVE
 70
     0
 10
0.0
 20
0.0
 11
1.0
 21
1.0
 12
4.25
 22
5.5
 13
0.0
 23
0.0
 14
10.0
 24
10.0
 15
10.0
 25
10.0
 16
0.0
 26
0.0
 36
1.0
 17
0.0
 27
0.0
 37
0.0
 40
11
 41
1.24
 42
50.0
 43
0.0
 44
0.0
 50
0.0
 51
0.0
 71
     0
 72
   100
 73
     1
 74
     3
 75
     0
 76
     0
 77
     0
 78
     0
  0
ENDTAB
  0
TABLE
  2
LTYPE
  5
5
330
0
100
AcDbSymbolTable
 70
     1
  0
LTYPE
  5
14
330
5
100
AcDbSymbolTableRecord
100
AcDbLinetypeTableRecord
  2
BYBLOCK
 70
     0
  3

 72
    65
 73
     0
 40
0.0
  0
LTYPE
  5
15
330
5
100
AcDbSymbolTableRecord
100
AcDbLinetypeTableRecord
  2
BYLAYER
 70
     0
  3

 72
    65
 73
     0
 40
0.0
  0
LTYPE
  5
16
330
5
100
AcDbSymbolTableRecord
100
AcDbLinetypeTableRecord
  2
CONTINUOUS
 70
     0
  3
Solid line
 72
    65
 73
     0
 40
0.0
  0
ENDTAB
  0
TABLE
  2
LAYER
  5
2
330
0
100
AcDbSymbolTable
 70
1
  0
LAYER
  5
10
330
2
100
AcDbSymbolTableRecord
100
AcDbLayerTableRecord
  2
0
 70
     0
 62
     7
  6
CONTINUOUS
  0
ENDTAB
  0
TABLE
  2
STYLE
  5
3
330
0
100
AcDbSymbolTable
 70
     1
  0
STYLE
  5
11
330
3
100
AcDbSymbolTableRecord
100
AcDbTextStyleTableRecord
  2
STANDARD
 70
     0
 40
0.0
 41
1.0
 50
0.0
 71
     0
 42
2.5
  3
txt
  4

  0
ENDTAB
  0
TABLE
  2
VIEW
  5
6
330
0
100
AcDbSymbolTable
 70
     0
  0
ENDTAB
  0
TABLE
  2
UCS
  5
7
330
0
100
AcDbSymbolTable
 70
     0
  0
ENDTAB
  0
TABLE
  2
APPID
  5
9
330
0
100
AcDbSymbolTable
 70
     2
  0
APPID
  5
12
330
9
100
AcDbSymbolTableRecord
100
AcDbRegAppTableRecord
  2
ACAD
 70
     0
  0
ENDTAB
  0
TABLE
  2
DIMSTYLE
  5
A
330
0
100
AcDbSymbolTable
 70
     1
  0
DIMSTYLE
105
27
330
A
100
AcDbSymbolTableRecord
100
AcDbDimStyleTableRecord
  2
ISO-25
 70
     0
  3

  4

  5

  6

  7

 40
1.0
 41
2.5
 42
0.625
 43
3.75
 44
1.25
 45
0.0
 46
0.0
 47
0.0
 48
0.0
140
2.5
141
2.5
142
0.0
143
0.03937007874016
144
1.0
145
0.0
146
1.0
147
0.625
 71
     0
 72
     0
 73
     0
 74
     0
 75
     0
 76
     0
 77
     1
 78
     8
170
     0
171
     3
172
     1
173
     0
174
     0
175
     0
176
     0
177
     0
178
     0
270
     2
271
     2
272
     2
273
     2
274
     3
340
11
275
     0
280
     0
281
     0
282
     0
283
     0
284
     8
285
     0
286
     0
287
     3
288
     0
  0
ENDTAB
  0
TABLE
  2
BLOCK_RECORD
  5
1
330
0
100
AcDbSymbolTable
 70
     1
  0
BLOCK_RECORD
  5
1F
330
1
100
AcDbSymbolTableRecord
100
AcDbBlockTableRecord
  2
*MODEL_SPACE
  0
BLOCK_RECORD
  5
1B
330
1
100
AcDbSymbolTableRecord
100
AcDbBlockTableRecord
  2
*PAPER_SPACE
  0
ENDTAB
  0
ENDSEC
  0
SECTION
  2
BLOCKS
  0
BLOCK
  5
20
330
1F
100
AcDbEntity
  8
0
100
AcDbBlockBegin
  2
*MODEL_SPACE
 70
     0
 10
0.0
 20
0.0
 30
0.0
  3
*MODEL_SPACE
  1

  0
ENDBLK
  5
21
330
1F
100
AcDbEntity
  8
0
100
AcDbBlockEnd
  0
BLOCK
  5
1C
330
1B
100
AcDbEntity
 67
     1
  8
0
100
AcDbBlockBegin
  2
*PAPER_SPACE
  1

  0
ENDBLK
  5
1D
330
1B
100
AcDbEntity
 67
     1
  8
0
100
AcDbBlockEnd
  0
ENDSEC
  0
SECTION
  2
ENTITIES
0
LINE
8
Calque 1
62
4
5
100
100
AcDbEntity
100
AcDbLine
10
-208.705492
20
-31.350739
30
0.0
11
-208.705492
21
-6.350732
31
0.0
0
LINE
8
Calque 1
62
4
5
101
100
AcDbEntity
100
AcDbLine
10
-208.705492
20
-6.350732
30
0.0
11
-211.705492
21
-6.350732
31
0.0
0
LINE
8
Calque 1
62
4
5
102
100
AcDbEntity
100
AcDbLine
10
-211.705492
20
-6.350732
30
0.0
11
-211.705492
21
18.649257
31
0.0
0
LINE
8
Calque 1
62
4
5
103
100
AcDbEntity
100
AcDbLine
10
-211.705492
20
18.649257
30
0.0
11
-208.705492
21
18.649257
31
0.0
0
LINE
8
Calque 1
62
4
5
104
100
AcDbEntity
100
AcDbLine
10
-208.705492
20
18.649257
30
0.0
11
-208.705492
21
43.649264
31
0.0
0
LINE
8
Calque 1
62
4
5
105
100
AcDbEntity
100
AcDbLine
10
-208.705492
20
43.649264
30
0.0
11
-211.705492
21
43.649264
31
0.0
0
LINE
8
Calque 1
62
4
5
106
100
AcDbEntity
100
AcDbLine
10
-211.705492
20
43.649264
30
0.0
11
-211.705492
21
68.649270
31
0.0
0
LINE
8
Calque 1
62
4
5
107
100
AcDbEntity
100
AcDbLine
10
-211.705492
20
68.649270
30
0.0
11
-208.705492
21
68.649270
31
0.0
0
LINE
8
Calque 1
62
4
5
108
100
AcDbEntity
100
AcDbLine
10
-208.705492
20
68.649270
30
0.0
11
-208.705492
21
93.649248
31
0.0
0
LINE
8
Calque 1
62
4
5
109
100
AcDbEntity
100
AcDbLine
10
-208.705492
20
93.649248
30
0.0
11
-211.705492
21
93.649248
31
0.0
0
LINE
8
Calque 1
62
4
5
10a
100
AcDbEntity
100
AcDbLine
10
-211.705492
20
93.649248
30
0.0
11
-211.705492
21
118.649255
31
0.0
0
LINE
8
Calque 1
62
4
5
10b
100
AcDbEntity
100
AcDbLine
10
-211.705492
20
118.649255
30
0.0
11
-208.705492
21
118.649255
31
0.0
0
LINE
8
Calque 1
62
4
5
10c
100
AcDbEntity
100
AcDbLine
10
-208.705492
20
118.649255
30
0.0
11
-208.705492
21
143.649261
31
0.0
0
LINE
8
Calque 1
62
4
5
10d
100
AcDbEntity
100
AcDbLine
10
-208.705492
20
143.649261
30
0.0
11
-211.705492
21
143.649261
31
0.0
0
LINE
8
Calque 1
62
4
5
10e
100
AcDbEntity
100
AcDbLine
10
-211.705492
20
143.649261
30
0.0
11
-211.705492
21
168.649251
31
0.0
0
LINE
8
Calque 1
62
4
5
10f
100
AcDbEntity
100
AcDbLine
10
-211.705492
20
168.649251
30
0.0
11
-208.705492
21
168.649251
31
0.0
0
LINE
8
Calque 1
62
4
5
110
100
AcDbEntity
100
AcDbLine
10
-208.705492
20
168.649251
30
0.0
11
-208.705492
21
193.649249
31
0.0
0
LINE
8
Calque 1
62
4
5
111
100
AcDbEntity
100
AcDbLine
10
-208.705492
20
193.649249
30
0.0
11
-211.705492
21
193.649249
31
0.0
0
LINE
8
Calque 1
62
4
5
112
100
AcDbEntity
100
AcDbLine
10
-211.705492
20
193.649249
30
0.0
11
-211.705492
21
218.649247
31
0.0
0
LINE
8
Calque 1
62
4
5
113
100
AcDbEntity
100
AcDbLine
10
-211.705492
20
218.649247
30
0.0
11
-53.705495
21
218.649247
31
0.0
0
LINE
8
Calque 1
62
4
5
114
100
AcDbEntity
100
AcDbLine
10
-53.705495
20
218.649247
30
0.0
11
-53.705495
21
193.649249
31
0.0
0
LINE
8
Calque 1
62
4
5
115
100
AcDbEntity
100
AcDbLine
10
-53.705495
20
193.649249
30
0.0
11
-56.705494
21
193.649249
31
0.0
0
LINE
8
Calque 1
62
4
5
116
100
AcDbEntity
100
AcDbLine
10
-56.705494
20
193.649249
30
0.0
11
-56.705494
21
168.649251
31
0.0
0
LINE
8
Calque 1
62
4
5
117
100
AcDbEntity
100
AcDbLine
10
-56.705494
20
168.649251
30
0.0
11
-53.705495
21
168.649251
31
0.0
0
LINE
8
Calque 1
62
4
5
118
100
AcDbEntity
100
AcDbLine
10
-53.705495
20
168.649251
30
0.0
11
-53.705495
21
143.649261
31
0.0
0
LINE
8
Calque 1
62
4
5
119
100
AcDbEntity
100
AcDbLine
10
-53.705495
20
143.649261
30
0.0
11
-56.705494
21
143.649261
31
0.0
0
LINE
8
Calque 1
62
4
5
11a
100
AcDbEntity
100
AcDbLine
10
-56.705494
20
143.649261
30
0.0
11
-56.705494
21
118.649255
31
0.0
0
LINE
8
Calque 1
62
4
5
11b
100
AcDbEntity
100
AcDbLine
10
-56.705494
20
118.649255
30
0.0
11
-53.705495
21
118.649255
31
0.0
0
LINE
8
Calque 1
62
4
5
11c
100
AcDbEntity
100
AcDbLine
10
-53.705495
20
118.649255
30
0.0
11
-53.705495
21
93.649248
31
0.0
0
LINE
8
Calque 1
62
4
5
11d
100
AcDbEntity
100
AcDbLine
10
-53.705495
20
93.649248
30
0.0
11
-56.705494
21
93.649248
31
0.0
0
LINE
8
Calque 1
62
4
5
11e
100
AcDbEntity
100
AcDbLine
10
-56.705494
20
93.649248
30
0.0
11
-56.705494
21
68.649270
31
0.0
0
LINE
8
Calque 1
62
4
5
11f
100
AcDbEntity
100
AcDbLine
10
-56.705494
20
68.649270
30
0.0
11
-53.705495
21
68.649270
31
0.0
0
LINE
8
Calque 1
62
4
5
120
100
AcDbEntity
100
AcDbLine
10
-53.705495
20
68.649270
30
0.0
11
-53.705495
21
43.649264
31
0.0
0
LINE
8
Calque 1
62
4
5
121
100
AcDbEntity
100
AcDbLine
10
-53.705495
20
43.649264
30
0.0
11
-56.705494
21
43.649264
31
0.0
0
LINE
8
Calque 1
62
4
5
122
100
AcDbEntity
100
AcDbLine
10
-56.705494
20
43.649264
30
0.0
11
-56.705494
21
18.649257
31
0.0
0
LINE
8
Calque 1
62
4
5
123
100
AcDbEntity
100
AcDbLine
10
-56.705494
20
18.649257
30
0.0
11
-53.705495
21
18.649257
31
0.0
0
LINE
8
Calque 1
62
4
5
124
100
AcDbEntity
100
AcDbLine
10
-53.705495
20
18.649257
30
0.0
11
-53.705495
21
-6.350732
31
0.0
0
LINE
8
Calque 1
62
4
5
125
100
AcDbEntity
100
AcDbLine
10
-53.705495
20
-6.350732
30
0.0
11
-56.705494
21
-6.350732
31
0.0
0
LINE
8
Calque 1
62
4
5
126
100
AcDbEntity
100
AcDbLine
10
-56.705494
20
-6.350732
30
0.0
11
-56.705494
21
-31.350739
31
0.0
0
LINE
8
Calque 1
62
4
5
127
100
AcDbEntity
100
AcDbLine
10
-56.705494
20
-31.350739
30
0.0
11
-208.705492
21
-31.350739
31
0.0
0
LINE
8
Calque 1
62
4
5
128
100
AcDbEntity
100
AcDbLine
10
43.469806
20
247.519713
30
0.0
11
43.469806
21
222.519715
31
0.0
0
LINE
8
Calque 1
62
4
5
129
100
AcDbEntity
100
AcDbLine
10
43.469806
20
222.519715
30
0.0
11
23.402386
21
211.371147
31
0.0
0
LINE
8
Calque 1
62
4
5
12a
100
AcDbEntity
100
AcDbLine
10
23.402386
20
211.371147
30
0.0
11
21.945456
21
213.993616
31
0.0
0
LINE
8
Calque 1
62
4
5
12b
100
AcDbEntity
100
AcDbLine
10
21.945456
20
213.993616
30
0.0
11
4.462317
21
204.280757
31
0.0
0
LINE
8
Calque 1
62
4
5
12c
100
AcDbEntity
100
AcDbLine
10
4.462317
20
204.280757
30
0.0
11
5.919247
21
201.658289
31
0.0
0
LINE
8
Calque 1
62
4
5
12d
100
AcDbEntity
100
AcDbLine
10
5.919247
20
201.658289
30
0.0
11
-11.563903
21
191.945428
31
0.0
0
LINE
8
Calque 1
62
4
5
12e
100
AcDbEntity
100
AcDbLine
10
-11.563903
20
191.945428
30
0.0
11
-13.020833
21
194.567899
31
0.0
0
LINE
8
Calque 1
62
4
5
12f
100
AcDbEntity
100
AcDbLine
10
-13.020833
20
194.567899
30
0.0
11
-30.503975
21
184.855049
31
0.0
0
LINE
8
Calque 1
62
4
5
130
100
AcDbEntity
100
AcDbLine
10
-30.503975
20
184.855049
30
0.0
11
-29.047045
21
182.232569
31
0.0
0
LINE
8
Calque 1
62
4
5
131
100
AcDbEntity
100
AcDbLine
10
-29.047045
20
182.232569
30
0.0
11
-46.530195
21
172.519720
31
0.0
0
LINE
8
Calque 1
62
4
5
132
100
AcDbEntity
100
AcDbLine
10
-46.530195
20
172.519720
30
0.0
11
-49.530195
21
172.519720
31
0.0
0
LINE
8
Calque 1
62
4
5
133
100
AcDbEntity
100
AcDbLine
10
-49.530195
20
172.519720
30
0.0
11
-49.530195
21
197.519717
31
0.0
0
LINE
8
Calque 1
62
4
5
134
100
AcDbEntity
100
AcDbLine
10
-49.530195
20
197.519717
30
0.0
11
-46.530195
21
197.519717
31
0.0
0
LINE
8
Calque 1
62
4
5
135
100
AcDbEntity
100
AcDbLine
10
-46.530195
20
197.519717
30
0.0
11
-46.530195
21
222.519715
31
0.0
0
LINE
8
Calque 1
62
4
5
136
100
AcDbEntity
100
AcDbLine
10
-46.530195
20
222.519715
30
0.0
11
-49.530195
21
222.519715
31
0.0
0
LINE
8
Calque 1
62
4
5
137
100
AcDbEntity
100
AcDbLine
10
-49.530195
20
222.519715
30
0.0
11
-49.530195
21
247.519713
31
0.0
0
LINE
8
Calque 1
62
4
5
138
100
AcDbEntity
100
AcDbLine
10
-49.530195
20
247.519713
30
0.0
11
-46.530195
21
247.519713
31
0.0
0
LINE
8
Calque 1
62
4
5
139
100
AcDbEntity
100
AcDbLine
10
-46.530195
20
247.519713
30
0.0
11
-46.530195
21
272.519710
31
0.0
0
LINE
8
Calque 1
62
4
5
13a
100
AcDbEntity
100
AcDbLine
10
-46.530195
20
272.519710
30
0.0
11
-49.530195
21
272.519710
31
0.0
0
LINE
8
Calque 1
62
4
5
13b
100
AcDbEntity
100
AcDbLine
10
-49.530195
20
272.519710
30
0.0
11
-49.530195
21
297.519708
31
0.0
0
LINE
8
Calque 1
62
4
5
13c
100
AcDbEntity
100
AcDbLine
10
-49.530195
20
297.519708
30
0.0
11
-46.530195
21
297.519708
31
0.0
0
LINE
8
Calque 1
62
4
5
13d
100
AcDbEntity
100
AcDbLine
10
-46.530195
20
297.519708
30
0.0
11
-46.530195
21
322.519706
31
0.0
0
LINE
8
Calque 1
62
4
5
13e
100
AcDbEntity
100
AcDbLine
10
-46.530195
20
322.519706
30
0.0
11
-49.530195
21
322.519706
31
0.0
0
LINE
8
Calque 1
62
4
5
13f
100
AcDbEntity
100
AcDbLine
10
-49.530195
20
322.519706
30
0.0
11
-49.530195
21
347.519705
31
0.0
0
LINE
8
Calque 1
62
4
5
140
100
AcDbEntity
100
AcDbLine
10
-49.530195
20
347.519705
30
0.0
11
-46.530195
21
347.519705
31
0.0
0
LINE
8
Calque 1
62
4
5
141
100
AcDbEntity
100
AcDbLine
10
-46.530195
20
347.519705
30
0.0
11
-46.530195
21
372.519703
31
0.0
0
LINE
8
Calque 1
62
4
5
142
100
AcDbEntity
100
AcDbLine
10
-46.530195
20
372.519703
30
0.0
11
-49.530195
21
372.519703
31
0.0
0
LINE
8
Calque 1
62
4
5
143
100
AcDbEntity
100
AcDbLine
10
-49.530195
20
372.519703
30
0.0
11
-49.530195
21
397.519701
31
0.0
0
LINE
8
Calque 1
62
4
5
144
100
AcDbEntity
100
AcDbLine
10
-49.530195
20
397.519701
30
0.0
11
-46.530195
21
397.519701
31
0.0
0
LINE
8
Calque 1
62
4
5
145
100
AcDbEntity
100
AcDbLine
10
-46.530195
20
397.519701
30
0.0
11
-46.530195
21
422.519699
31
0.0
0
LINE
8
Calque 1
62
4
5
146
100
AcDbEntity
100
AcDbLine
10
-46.530195
20
422.519699
30
0.0
11
40.469806
21
422.519699
31
0.0
0
LINE
8
Calque 1
62
4
5
147
100
AcDbEntity
100
AcDbLine
10
40.469806
20
422.519699
30
0.0
11
40.469806
21
397.519701
31
0.0
0
LINE
8
Calque 1
62
4
5
148
100
AcDbEntity
100
AcDbLine
10
40.469806
20
397.519701
30
0.0
11
43.469806
21
397.519701
31
0.0
0
LINE
8
Calque 1
62
4
5
149
100
AcDbEntity
100
AcDbLine
10
43.469806
20
397.519701
30
0.0
11
43.469806
21
372.519703
31
0.0
0
LINE
8
Calque 1
62
4
5
14a
100
AcDbEntity
100
AcDbLine
10
43.469806
20
372.519703
30
0.0
11
40.469806
21
372.519703
31
0.0
0
LINE
8
Calque 1
62
4
5
14b
100
AcDbEntity
100
AcDbLine
10
40.469806
20
372.519703
30
0.0
11
40.469806
21
347.519705
31
0.0
0
LINE
8
Calque 1
62
4
5
14c
100
AcDbEntity
100
AcDbLine
10
40.469806
20
347.519705
30
0.0
11
43.469806
21
347.519705
31
0.0
0
LINE
8
Calque 1
62
4
5
14d
100
AcDbEntity
100
AcDbLine
10
43.469806
20
347.519705
30
0.0
11
43.469806
21
322.519706
31
0.0
0
LINE
8
Calque 1
62
4
5
14e
100
AcDbEntity
100
AcDbLine
10
43.469806
20
322.519706
30
0.0
11
40.469806
21
322.519706
31
0.0
0
LINE
8
Calque 1
62
4
5
14f
100
AcDbEntity
100
AcDbLine
10
40.469806
20
322.519706
30
0.0
11
40.469806
21
297.519708
31
0.0
0
LINE
8
Calque 1
62
4
5
150
100
AcDbEntity
100
AcDbLine
10
40.469806
20
297.519708
30
0.0
11
43.469806
21
297.519708
31
0.0
0
LINE
8
Calque 1
62
4
5
151
100
AcDbEntity
100
AcDbLine
10
43.469806
20
297.519708
30
0.0
11
43.469806
21
272.519710
31
0.0
0
LINE
8
Calque 1
62
4
5
152
100
AcDbEntity
100
AcDbLine
10
43.469806
20
272.519710
30
0.0
11
40.469806
21
272.519710
31
0.0
0
LINE
8
Calque 1
62
4
5
153
100
AcDbEntity
100
AcDbLine
10
40.469806
20
272.519710
30
0.0
11
40.469806
21
247.519713
31
0.0
0
LINE
8
Calque 1
62
4
5
154
100
AcDbEntity
100
AcDbLine
10
40.469806
20
247.519713
30
0.0
11
43.469806
21
247.519713
31
0.0
0
LINE
8
Calque 1
62
4
5
155
100
AcDbEntity
100
AcDbLine
10
-49.075602
20
-31.386666
30
0.0
11
-49.075602
21
-6.386659
31
0.0
0
LINE
8
Calque 1
62
4
5
156
100
AcDbEntity
100
AcDbLine
10
-49.075602
20
-6.386659
30
0.0
11
-46.075603
21
-6.386659
31
0.0
0
LINE
8
Calque 1
62
4
5
157
100
AcDbEntity
100
AcDbLine
10
-46.075603
20
-6.386659
30
0.0
11
-46.075603
21
18.613330
31
0.0
0
LINE
8
Calque 1
62
4
5
158
100
AcDbEntity
100
AcDbLine
10
-46.075603
20
18.613330
30
0.0
11
-49.075602
21
18.613330
31
0.0
0
LINE
8
Calque 1
62
4
5
159
100
AcDbEntity
100
AcDbLine
10
-49.075602
20
18.613330
30
0.0
11
-49.075602
21
43.613337
31
0.0
0
LINE
8
Calque 1
62
4
5
15a
100
AcDbEntity
100
AcDbLine
10
-49.075602
20
43.613337
30
0.0
11
-46.075603
21
43.613337
31
0.0
0
LINE
8
Calque 1
62
4
5
15b
100
AcDbEntity
100
AcDbLine
10
-46.075603
20
43.613337
30
0.0
11
-46.075603
21
68.613343
31
0.0
0
LINE
8
Calque 1
62
4
5
15c
100
AcDbEntity
100
AcDbLine
10
-46.075603
20
68.613343
30
0.0
11
-49.075602
21
68.613343
31
0.0
0
LINE
8
Calque 1
62
4
5
15d
100
AcDbEntity
100
AcDbLine
10
-49.075602
20
68.613343
30
0.0
11
-49.075602
21
93.613350
31
0.0
0
LINE
8
Calque 1
62
4
5
15e
100
AcDbEntity
100
AcDbLine
10
-49.075602
20
93.613350
30
0.0
11
-46.075603
21
93.613350
31
0.0
0
LINE
8
Calque 1
62
4
5
15f
100
AcDbEntity
100
AcDbLine
10
-46.075603
20
93.613350
30
0.0
11
-46.075603
21
118.613328
31
0.0
0
LINE
8
Calque 1
62
4
5
160
100
AcDbEntity
100
AcDbLine
10
-46.075603
20
118.613328
30
0.0
11
-49.075602
21
118.613328
31
0.0
0
LINE
8
Calque 1
62
4
5
161
100
AcDbEntity
100
AcDbLine
10
-49.075602
20
118.613328
30
0.0
11
-49.075602
21
143.613334
31
0.0
0
LINE
8
Calque 1
62
4
5
162
100
AcDbEntity
100
AcDbLine
10
-49.075602
20
143.613334
30
0.0
11
-46.075603
21
143.613334
31
0.0
0
LINE
8
Calque 1
62
4
5
163
100
AcDbEntity
100
AcDbLine
10
-46.075603
20
143.613334
30
0.0
11
-46.075603
21
168.613329
31
0.0
0
LINE
8
Calque 1
62
4
5
164
100
AcDbEntity
100
AcDbLine
10
-46.075603
20
168.613329
30
0.0
11
40.924395
21
168.613329
31
0.0
0
LINE
8
Calque 1
62
4
5
165
100
AcDbEntity
100
AcDbLine
10
40.924395
20
168.613329
30
0.0
11
40.924395
21
143.613334
31
0.0
0
LINE
8
Calque 1
62
4
5
166
100
AcDbEntity
100
AcDbLine
10
40.924395
20
143.613334
30
0.0
11
43.924398
21
143.613334
31
0.0
0
LINE
8
Calque 1
62
4
5
167
100
AcDbEntity
100
AcDbLine
10
43.924398
20
143.613334
30
0.0
11
43.924398
21
118.613328
31
0.0
0
LINE
8
Calque 1
62
4
5
168
100
AcDbEntity
100
AcDbLine
10
43.924398
20
118.613328
30
0.0
11
40.924395
21
118.613328
31
0.0
0
LINE
8
Calque 1
62
4
5
169
100
AcDbEntity
100
AcDbLine
10
40.924395
20
118.613328
30
0.0
11
40.924395
21
93.613350
31
0.0
0
LINE
8
Calque 1
62
4
5
16a
100
AcDbEntity
100
AcDbLine
10
40.924395
20
93.613350
30
0.0
11
43.924398
21
93.613350
31
0.0
0
LINE
8
Calque 1
62
4
5
16b
100
AcDbEntity
100
AcDbLine
10
43.924398
20
93.613350
30
0.0
11
43.924398
21
68.613343
31
0.0
0
LINE
8
Calque 1
62
4
5
16c
100
AcDbEntity
100
AcDbLine
10
43.924398
20
68.613343
30
0.0
11
40.924395
21
68.613343
31
0.0
0
LINE
8
Calque 1
62
4
5
16d
100
AcDbEntity
100
AcDbLine
10
40.924395
20
68.613343
30
0.0
11
40.924395
21
43.613337
31
0.0
0
LINE
8
Calque 1
62
4
5
16e
100
AcDbEntity
100
AcDbLine
10
40.924395
20
43.613337
30
0.0
11
43.924398
21
43.613337
31
0.0
0
LINE
8
Calque 1
62
4
5
16f
100
AcDbEntity
100
AcDbLine
10
43.924398
20
43.613337
30
0.0
11
43.924398
21
18.613330
31
0.0
0
LINE
8
Calque 1
62
4
5
170
100
AcDbEntity
100
AcDbLine
10
43.924398
20
18.613330
30
0.0
11
40.924395
21
18.613330
31
0.0
0
LINE
8
Calque 1
62
4
5
171
100
AcDbEntity
100
AcDbLine
10
40.924395
20
18.613330
30
0.0
11
40.924395
21
-6.386659
31
0.0
0
LINE
8
Calque 1
62
4
5
172
100
AcDbEntity
100
AcDbLine
10
40.924395
20
-6.386659
30
0.0
11
43.924398
21
-6.386659
31
0.0
0
LINE
8
Calque 1
62
4
5
173
100
AcDbEntity
100
AcDbLine
10
43.924398
20
-6.386659
30
0.0
11
43.924398
21
-31.386666
31
0.0
0
LINE
8
Calque 1
62
4
5
174
100
AcDbEntity
100
AcDbLine
10
43.924398
20
-31.386666
30
0.0
11
40.924395
21
-31.386666
31
0.0
0
LINE
8
Calque 1
62
4
5
175
100
AcDbEntity
100
AcDbLine
10
40.924395
20
-31.386666
30
0.0
11
40.924395
21
-56.386672
31
0.0
0
LINE
8
Calque 1
62
4
5
176
100
AcDbEntity
100
AcDbLine
10
40.924395
20
-56.386672
30
0.0
11
43.924398
21
-56.386672
31
0.0
0
LINE
8
Calque 1
62
4
5
177
100
AcDbEntity
100
AcDbLine
10
43.924398
20
-56.386672
30
0.0
11
43.924398
21
-81.386650
31
0.0
0
LINE
8
Calque 1
62
4
5
178
100
AcDbEntity
100
AcDbLine
10
43.924398
20
-81.386650
30
0.0
11
40.924395
21
-81.386650
31
0.0
0
LINE
8
Calque 1
62
4
5
179
100
AcDbEntity
100
AcDbLine
10
40.924395
20
-81.386650
30
0.0
11
23.441248
21
-71.673803
31
0.0
0
LINE
8
Calque 1
62
4
5
17a
100
AcDbEntity
100
AcDbLine
10
23.441248
20
-71.673803
30
0.0
11
24.898178
21
-69.051338
31
0.0
0
LINE
8
Calque 1
62
4
5
17b
100
AcDbEntity
100
AcDbLine
10
24.898178
20
-69.051338
30
0.0
11
7.415036
21
-59.338463
31
0.0
0
LINE
8
Calque 1
62
4
5
17c
100
AcDbEntity
100
AcDbLine
10
7.415036
20
-59.338463
30
0.0
11
5.958106
21
-61.960928
31
0.0
0
LINE
8
Calque 1
62
4
5
17d
100
AcDbEntity
100
AcDbLine
10
5.958106
20
-61.960928
30
0.0
11
-11.525044
21
-52.248081
31
0.0
0
LINE
8
Calque 1
62
4
5
17e
100
AcDbEntity
100
AcDbLine
10
-11.525044
20
-52.248081
30
0.0
11
-10.068114
21
-49.625616
31
0.0
0
LINE
8
Calque 1
62
4
5
17f
100
AcDbEntity
100
AcDbLine
10
-10.068114
20
-49.625616
30
0.0
11
-27.551253
21
-39.912740
31
0.0
0
LINE
8
Calque 1
62
4
5
180
100
AcDbEntity
100
AcDbLine
10
-27.551253
20
-39.912740
30
0.0
11
-29.008183
21
-42.535234
31
0.0
0
LINE
8
Calque 1
62
4
5
181
100
AcDbEntity
100
AcDbLine
10
-29.008183
20
-42.535234
30
0.0
11
-49.075602
21
-31.386666
31
0.0
0
LINE
8
Calque 1
62
4
5
182
100
AcDbEntity
100
AcDbLine
10
-53.705495
20
422.519699
30
0.0
11
-53.705495
21
397.519701
31
0.0
0
LINE
8
Calque 1
62
4
5
183
100
AcDbEntity
100
AcDbLine
10
-53.705495
20
397.519701
30
0.0
11
-56.705494
21
397.519701
31
0.0
0
LINE
8
Calque 1
62
4
5
184
100
AcDbEntity
100
AcDbLine
10
-56.705494
20
397.519701
30
0.0
11
-56.705494
21
372.519703
31
0.0
0
LINE
8
Calque 1
62
4
5
185
100
AcDbEntity
100
AcDbLine
10
-56.705494
20
372.519703
30
0.0
11
-53.705495
21
372.519703
31
0.0
0
LINE
8
Calque 1
62
4
5
186
100
AcDbEntity
100
AcDbLine
10
-53.705495
20
372.519703
30
0.0
11
-53.705495
21
347.519705
31
0.0
0
LINE
8
Calque 1
62
4
5
187
100
AcDbEntity
100
AcDbLine
10
-53.705495
20
347.519705
30
0.0
11
-56.705494
21
347.519705
31
0.0
0
LINE
8
Calque 1
62
4
5
188
100
AcDbEntity
100
AcDbLine
10
-56.705494
20
347.519705
30
0.0
11
-56.705494
21
322.519706
31
0.0
0
LINE
8
Calque 1
62
4
5
189
100
AcDbEntity
100
AcDbLine
10
-56.705494
20
322.519706
30
0.0
11
-53.705495
21
322.519706
31
0.0
0
LINE
8
Calque 1
62
4
5
18a
100
AcDbEntity
100
AcDbLine
10
-53.705495
20
322.519706
30
0.0
11
-53.705495
21
297.519708
31
0.0
0
LINE
8
Calque 1
62
4
5
18b
100
AcDbEntity
100
AcDbLine
10
-53.705495
20
297.519708
30
0.0
11
-56.705494
21
297.519708
31
0.0
0
LINE
8
Calque 1
62
4
5
18c
100
AcDbEntity
100
AcDbLine
10
-56.705494
20
297.519708
30
0.0
11
-56.705494
21
272.519710
31
0.0
0
LINE
8
Calque 1
62
4
5
18d
100
AcDbEntity
100
AcDbLine
10
-56.705494
20
272.519710
30
0.0
11
-53.705495
21
272.519710
31
0.0
0
LINE
8
Calque 1
62
4
5
18e
100
AcDbEntity
100
AcDbLine
10
-53.705495
20
272.519710
30
0.0
11
-53.705495
21
247.519713
31
0.0
0
LINE
8
Calque 1
62
4
5
18f
100
AcDbEntity
100
AcDbLine
10
-53.705495
20
247.519713
30
0.0
11
-56.705494
21
247.519713
31
0.0
0
LINE
8
Calque 1
62
4
5
190
100
AcDbEntity
100
AcDbLine
10
-56.705494
20
247.519713
30
0.0
11
-56.705494
21
222.519715
31
0.0
0
LINE
8
Calque 1
62
4
5
191
100
AcDbEntity
100
AcDbLine
10
-56.705494
20
222.519715
30
0.0
11
-208.705492
21
222.519715
31
0.0
0
LINE
8
Calque 1
62
4
5
192
100
AcDbEntity
100
AcDbLine
10
-208.705492
20
222.519715
30
0.0
11
-208.705492
21
247.519713
31
0.0
0
LINE
8
Calque 1
62
4
5
193
100
AcDbEntity
100
AcDbLine
10
-208.705492
20
247.519713
30
0.0
11
-211.705492
21
247.519713
31
0.0
0
LINE
8
Calque 1
62
4
5
194
100
AcDbEntity
100
AcDbLine
10
-211.705492
20
247.519713
30
0.0
11
-211.705492
21
272.519710
31
0.0
0
LINE
8
Calque 1
62
4
5
195
100
AcDbEntity
100
AcDbLine
10
-211.705492
20
272.519710
30
0.0
11
-208.705492
21
272.519710
31
0.0
0
LINE
8
Calque 1
62
4
5
196
100
AcDbEntity
100
AcDbLine
10
-208.705492
20
272.519710
30
0.0
11
-208.705492
21
297.519708
31
0.0
0
LINE
8
Calque 1
62
4
5
197
100
AcDbEntity
100
AcDbLine
10
-208.705492
20
297.519708
30
0.0
11
-211.705492
21
297.519708
31
0.0
0
LINE
8
Calque 1
62
4
5
198
100
AcDbEntity
100
AcDbLine
10
-211.705492
20
297.519708
30
0.0
11
-211.705492
21
322.519706
31
0.0
0
LINE
8
Calque 1
62
4
5
199
100
AcDbEntity
100
AcDbLine
10
-211.705492
20
322.519706
30
0.0
11
-208.705492
21
322.519706
31
0.0
0
LINE
8
Calque 1
62
4
5
19a
100
AcDbEntity
100
AcDbLine
10
-208.705492
20
322.519706
30
0.0
11
-208.705492
21
347.519705
31
0.0
0
LINE
8
Calque 1
62
4
5
19b
100
AcDbEntity
100
AcDbLine
10
-208.705492
20
347.519705
30
0.0
11
-211.705492
21
347.519705
31
0.0
0
LINE
8
Calque 1
62
4
5
19c
100
AcDbEntity
100
AcDbLine
10
-211.705492
20
347.519705
30
0.0
11
-211.705492
21
372.519703
31
0.0
0
LINE
8
Calque 1
62
4
5
19d
100
AcDbEntity
100
AcDbLine
10
-211.705492
20
372.519703
30
0.0
11
-208.705492
21
372.519703
31
0.0
0
LINE
8
Calque 1
62
4
5
19e
100
AcDbEntity
100
AcDbLine
10
-208.705492
20
372.519703
30
0.0
11
-208.705492
21
397.519701
31
0.0
0
LINE
8
Calque 1
62
4
5
19f
100
AcDbEntity
100
AcDbLine
10
-208.705492
20
397.519701
30
0.0
11
-211.705492
21
397.519701
31
0.0
0
LINE
8
Calque 1
62
4
5
1a0
100
AcDbEntity
100
AcDbLine
10
-211.705492
20
397.519701
30
0.0
11
-211.705492
21
422.519699
31
0.0
0
LINE
8
Calque 1
62
4
5
1a1
100
AcDbEntity
100
AcDbLine
10
-211.705492
20
422.519699
30
0.0
11
-53.705495
21
422.519699
31
0.0
0
LINE
8
Calque 1
62
4
5
1a2
100
AcDbEntity
100
AcDbLine
10
-53.705495
20
-53.944265
30
0.0
11
-53.705495
21
-73.944281
31
0.0
0
LINE
8
Calque 1
62
4
5
1a3
100
AcDbEntity
100
AcDbLine
10
-53.705495
20
-73.944281
30
0.0
11
-56.705494
21
-73.944281
31
0.0
0
LINE
8
Calque 1
62
4
5
1a4
100
AcDbEntity
100
AcDbLine
10
-56.705494
20
-73.944281
30
0.0
11
-56.705494
21
-93.944269
31
0.0
0
LINE
8
Calque 1
62
4
5
1a5
100
AcDbEntity
100
AcDbLine
10
-56.705494
20
-93.944269
30
0.0
11
-53.705495
21
-93.944269
31
0.0
0
LINE
8
Calque 1
62
4
5
1a6
100
AcDbEntity
100
AcDbLine
10
-53.705495
20
-93.944269
30
0.0
11
-53.705495
21
-113.944258
31
0.0
0
LINE
8
Calque 1
62
4
5
1a7
100
AcDbEntity
100
AcDbLine
10
-53.705495
20
-113.944258
30
0.0
11
-56.705494
21
-113.944258
31
0.0
0
LINE
8
Calque 1
62
4
5
1a8
100
AcDbEntity
100
AcDbLine
10
-56.705494
20
-113.944258
30
0.0
11
-56.705494
21
-131.944278
31
0.0
0
LINE
8
Calque 1
62
4
5
1a9
100
AcDbEntity
100
AcDbLine
10
-56.705494
20
-131.944278
30
0.0
11
-208.705492
21
-131.944278
31
0.0
0
LINE
8
Calque 1
62
4
5
1aa
100
AcDbEntity
100
AcDbLine
10
-208.705492
20
-131.944278
30
0.0
11
-208.705492
21
-113.944258
31
0.0
0
LINE
8
Calque 1
62
4
5
1ab
100
AcDbEntity
100
AcDbLine
10
-208.705492
20
-113.944258
30
0.0
11
-211.705492
21
-113.944258
31
0.0
0
LINE
8
Calque 1
62
4
5
1ac
100
AcDbEntity
100
AcDbLine
10
-211.705492
20
-113.944258
30
0.0
11
-211.705492
21
-93.944269
31
0.0
0
LINE
8
Calque 1
62
4
5
1ad
100
AcDbEntity
100
AcDbLine
10
-211.705492
20
-93.944269
30
0.0
11
-208.705492
21
-93.944269
31
0.0
0
LINE
8
Calque 1
62
4
5
1ae
100
AcDbEntity
100
AcDbLine
10
-208.705492
20
-93.944269
30
0.0
11
-208.705492
21
-73.944281
31
0.0
0
LINE
8
Calque 1
62
4
5
1af
100
AcDbEntity
100
AcDbLine
10
-208.705492
20
-73.944281
30
0.0
11
-211.705492
21
-73.944281
31
0.0
0
LINE
8
Calque 1
62
4
5
1b0
100
AcDbEntity
100
AcDbLine
10
-211.705492
20
-73.944281
30
0.0
11
-211.705492
21
-53.944265
31
0.0
0
LINE
8
Calque 1
62
4
5
1b1
100
AcDbEntity
100
AcDbLine
10
-211.705492
20
-53.944265
30
0.0
11
-208.705492
21
-53.944265
31
0.0
0
LINE
8
Calque 1
62
4
5
1b2
100
AcDbEntity
100
AcDbLine
10
-208.705492
20
-53.944265
30
0.0
11
-208.705492
21
-33.944276
31
0.0
0
LINE
8
Calque 1
62
4
5
1b3
100
AcDbEntity
100
AcDbLine
10
-208.705492
20
-33.944276
30
0.0
11
-56.705494
21
-33.944276
31
0.0
0
LINE
8
Calque 1
62
4
5
1b4
100
AcDbEntity
100
AcDbLine
10
-56.705494
20
-33.944276
30
0.0
11
-56.705494
21
-53.944265
31
0.0
0
LINE
8
Calque 1
62
4
5
1b5
100
AcDbEntity
100
AcDbLine
10
-56.705494
20
-53.944265
30
0.0
11
-53.705495
21
-53.944265
31
0.0
0
LINE
8
Calque 1
62
4
5
1b6
100
AcDbEntity
100
AcDbLine
10
-215.634533
20
-142.453556
30
0.0
11
-215.634533
21
437.546407
31
0.0
0
LINE
8
Calque 1
62
4
5
1b7
100
AcDbEntity
100
AcDbLine
10
-215.634533
20
437.546407
30
0.0
11
52.365467
21
437.546407
31
0.0
0
LINE
8
Calque 1
62
4
5
1b8
100
AcDbEntity
100
AcDbLine
10
52.365467
20
437.546407
30
0.0
11
52.365467
21
-142.453556
31
0.0
0
LINE
8
Calque 1
62
4
5
1b9
100
AcDbEntity
100
AcDbLine
10
52.365467
20
-142.453556
30
0.0
11
-215.634533
21
-142.453556
31
0.0
0
LINE
8
Calque 1
62
4
5
1ba
100
AcDbEntity
100
AcDbLine
10
-191.705492
20
143.649261
30
0.0
11
-191.705492
21
140.649239
31
0.0
0
LINE
8
Calque 1
62
4
5
1bb
100
AcDbEntity
100
AcDbLine
10
-191.705492
20
140.649239
30
0.0
11
-73.705494
21
140.649239
31
0.0
0
LINE
8
Calque 1
62
4
5
1bc
100
AcDbEntity
100
AcDbLine
10
-73.705494
20
140.649239
30
0.0
11
-73.705494
21
143.649261
31
0.0
0
LINE
8
Calque 1
62
4
5
1bd
100
AcDbEntity
100
AcDbLine
10
-73.705494
20
143.649261
30
0.0
11
-191.705492
21
143.649261
31
0.0
0
LINE
8
Calque 1
62
4
5
1be
100
AcDbEntity
100
AcDbLine
10
-191.705492
20
108.649246
30
0.0
11
-191.705492
21
105.649252
31
0.0
0
LINE
8
Calque 1
62
4
5
1bf
100
AcDbEntity
100
AcDbLine
10
-191.705492
20
105.649252
30
0.0
11
-73.705494
21
105.649252
31
0.0
0
LINE
8
Calque 1
62
4
5
1c0
100
AcDbEntity
100
AcDbLine
10
-73.705494
20
105.649252
30
0.0
11
-73.705494
21
108.649246
31
0.0
0
LINE
8
Calque 1
62
4
5
1c1
100
AcDbEntity
100
AcDbLine
10
-73.705494
20
108.649246
30
0.0
11
-191.705492
21
108.649246
31
0.0
0
LINE
8
Calque 1
62
4
5
1c2
100
AcDbEntity
100
AcDbLine
10
-191.705492
20
101.649260
30
0.0
11
-191.705492
21
98.649266
31
0.0
0
LINE
8
Calque 1
62
4
5
1c3
100
AcDbEntity
100
AcDbLine
10
-191.705492
20
98.649266
30
0.0
11
-73.705494
21
98.649266
31
0.0
0
LINE
8
Calque 1
62
4
5
1c4
100
AcDbEntity
100
AcDbLine
10
-73.705494
20
98.649266
30
0.0
11
-73.705494
21
101.649260
31
0.0
0
LINE
8
Calque 1
62
4
5
1c5
100
AcDbEntity
100
AcDbLine
10
-73.705494
20
101.649260
30
0.0
11
-191.705492
21
101.649260
31
0.0
0
LINE
8
Calque 1
62
4
5
1c6
100
AcDbEntity
100
AcDbLine
10
-73.705494
20
94.649246
30
0.0
11
-191.705492
21
94.649246
31
0.0
0
LINE
8
Calque 1
62
4
5
1c7
100
AcDbEntity
100
AcDbLine
10
-191.705492
20
94.649246
30
0.0
11
-191.705492
21
91.649252
31
0.0
0
LINE
8
Calque 1
62
4
5
1c8
100
AcDbEntity
100
AcDbLine
10
-191.705492
20
91.649252
30
0.0
11
-73.705494
21
91.649252
31
0.0
0
LINE
8
Calque 1
62
4
5
1c9
100
AcDbEntity
100
AcDbLine
10
-73.705494
20
91.649252
30
0.0
11
-73.705494
21
94.649246
31
0.0
0
LINE
8
Calque 1
62
4
5
1ca
100
AcDbEntity
100
AcDbLine
10
-73.705494
20
115.649261
30
0.0
11
-191.705492
21
115.649261
31
0.0
0
LINE
8
Calque 1
62
4
5
1cb
100
AcDbEntity
100
AcDbLine
10
-191.705492
20
115.649261
30
0.0
11
-191.705492
21
112.649267
31
0.0
0
LINE
8
Calque 1
62
4
5
1cc
100
AcDbEntity
100
AcDbLine
10
-191.705492
20
112.649267
30
0.0
11
-73.705494
21
112.649267
31
0.0
0
LINE
8
Calque 1
62
4
5
1cd
100
AcDbEntity
100
AcDbLine
10
-73.705494
20
112.649267
30
0.0
11
-73.705494
21
115.649261
31
0.0
0
LINE
8
Calque 1
62
4
5
1ce
100
AcDbEntity
100
AcDbLine
10
-73.705494
20
122.649247
30
0.0
11
-191.705492
21
122.649247
31
0.0
0
LINE
8
Calque 1
62
4
5
1cf
100
AcDbEntity
100
AcDbLine
10
-191.705492
20
122.649247
30
0.0
11
-191.705492
21
119.649253
31
0.0
0
LINE
8
Calque 1
62
4
5
1d0
100
AcDbEntity
100
AcDbLine
10
-191.705492
20
119.649253
30
0.0
11
-73.705494
21
119.649253
31
0.0
0
LINE
8
Calque 1
62
4
5
1d1
100
AcDbEntity
100
AcDbLine
10
-73.705494
20
119.649253
30
0.0
11
-73.705494
21
122.649247
31
0.0
0
LINE
8
Calque 1
62
4
5
1d2
100
AcDbEntity
100
AcDbLine
10
-73.705494
20
129.649261
30
0.0
11
-191.705492
21
129.649261
31
0.0
0
LINE
8
Calque 1
62
4
5
1d3
100
AcDbEntity
100
AcDbLine
10
-191.705492
20
129.649261
30
0.0
11
-191.705492
21
126.649267
31
0.0
0
LINE
8
Calque 1
62
4
5
1d4
100
AcDbEntity
100
AcDbLine
10
-191.705492
20
126.649267
30
0.0
11
-73.705494
21
126.649267
31
0.0
0
LINE
8
Calque 1
62
4
5
1d5
100
AcDbEntity
100
AcDbLine
10
-73.705494
20
126.649267
30
0.0
11
-73.705494
21
129.649261
31
0.0
0
LINE
8
Calque 1
62
4
5
1d6
100
AcDbEntity
100
AcDbLine
10
-73.705494
20
136.649247
30
0.0
11
-191.705492
21
136.649247
31
0.0
0
LINE
8
Calque 1
62
4
5
1d7
100
AcDbEntity
100
AcDbLine
10
-191.705492
20
136.649247
30
0.0
11
-191.705492
21
133.649253
31
0.0
0
LINE
8
Calque 1
62
4
5
1d8
100
AcDbEntity
100
AcDbLine
10
-191.705492
20
133.649253
30
0.0
11
-73.705494
21
133.649253
31
0.0
0
LINE
8
Calque 1
62
4
5
1d9
100
AcDbEntity
100
AcDbLine
10
-73.705494
20
133.649253
30
0.0
11
-73.705494
21
136.649247
31
0.0
0
LINE
8
Calque 1
62
4
5
1da
100
AcDbEntity
100
AcDbLine
10
-179.205492
20
-83.944261
30
0.0
11
-179.154382
21
-84.332514
31
0.0
0
LINE
8
Calque 1
62
4
5
1db
100
AcDbEntity
100
AcDbLine
10
-179.154382
20
-84.332514
30
0.0
11
-179.004530
21
-84.694267
31
0.0
0
LINE
8
Calque 1
62
4
5
1dc
100
AcDbEntity
100
AcDbLine
10
-179.004530
20
-84.694267
30
0.0
11
-178.766151
21
-85.004937
31
0.0
0
LINE
8
Calque 1
62
4
5
1dd
100
AcDbEntity
100
AcDbLine
10
-178.766151
20
-85.004937
30
0.0
11
-178.455492
21
-85.243302
31
0.0
0
LINE
8
Calque 1
62
4
5
1de
100
AcDbEntity
100
AcDbLine
10
-178.455492
20
-85.243302
30
0.0
11
-178.093720
21
-85.393162
31
0.0
0
LINE
8
Calque 1
62
4
5
1df
100
AcDbEntity
100
AcDbLine
10
-178.093720
20
-85.393162
30
0.0
11
-177.705492
21
-85.444272
31
0.0
0
LINE
8
Calque 1
62
4
5
1e0
100
AcDbEntity
100
AcDbLine
10
-177.705492
20
-85.444272
30
0.0
11
-177.317265
21
-85.393162
31
0.0
0
LINE
8
Calque 1
62
4
5
1e1
100
AcDbEntity
100
AcDbLine
10
-177.317265
20
-85.393162
30
0.0
11
-176.955492
21
-85.243302
31
0.0
0
LINE
8
Calque 1
62
4
5
1e2
100
AcDbEntity
100
AcDbLine
10
-176.955492
20
-85.243302
30
0.0
11
-176.644833
21
-85.004937
31
0.0
0
LINE
8
Calque 1
62
4
5
1e3
100
AcDbEntity
100
AcDbLine
10
-176.644833
20
-85.004937
30
0.0
11
-176.406454
21
-84.694267
31
0.0
0
LINE
8
Calque 1
62
4
5
1e4
100
AcDbEntity
100
AcDbLine
10
-176.406454
20
-84.694267
30
0.0
11
-176.256603
21
-84.332514
31
0.0
0
LINE
8
Calque 1
62
4
5
1e5
100
AcDbEntity
100
AcDbLine
10
-176.256603
20
-84.332514
30
0.0
11
-176.205492
21
-83.944261
31
0.0
0
LINE
8
Calque 1
62
4
5
1e6
100
AcDbEntity
100
AcDbLine
10
-176.205492
20
-83.944261
30
0.0
11
-176.256603
21
-83.556036
31
0.0
0
LINE
8
Calque 1
62
4
5
1e7
100
AcDbEntity
100
AcDbLine
10
-176.256603
20
-83.556036
30
0.0
11
-176.406454
21
-83.194284
31
0.0
0
LINE
8
Calque 1
62
4
5
1e8
100
AcDbEntity
100
AcDbLine
10
-176.406454
20
-83.194284
30
0.0
11
-176.644833
21
-82.883614
31
0.0
0
LINE
8
Calque 1
62
4
5
1e9
100
AcDbEntity
100
AcDbLine
10
-176.644833
20
-82.883614
30
0.0
11
-176.955492
21
-82.645220
31
0.0
0
LINE
8
Calque 1
62
4
5
1ea
100
AcDbEntity
100
AcDbLine
10
-176.955492
20
-82.645220
30
0.0
11
-177.317265
21
-82.495389
31
0.0
0
LINE
8
Calque 1
62
4
5
1eb
100
AcDbEntity
100
AcDbLine
10
-177.317265
20
-82.495389
30
0.0
11
-177.705492
21
-82.444278
31
0.0
0
LINE
8
Calque 1
62
4
5
1ec
100
AcDbEntity
100
AcDbLine
10
-177.705492
20
-82.444278
30
0.0
11
-178.093720
21
-82.495389
31
0.0
0
LINE
8
Calque 1
62
4
5
1ed
100
AcDbEntity
100
AcDbLine
10
-178.093720
20
-82.495389
30
0.0
11
-178.455492
21
-82.645220
31
0.0
0
LINE
8
Calque 1
62
4
5
1ee
100
AcDbEntity
100
AcDbLine
10
-178.455492
20
-82.645220
30
0.0
11
-178.766151
21
-82.883614
31
0.0
0
LINE
8
Calque 1
62
4
5
1ef
100
AcDbEntity
100
AcDbLine
10
-178.766151
20
-82.883614
30
0.0
11
-179.004530
21
-83.194284
31
0.0
0
LINE
8
Calque 1
62
4
5
1f0
100
AcDbEntity
100
AcDbLine
10
-179.004530
20
-83.194284
30
0.0
11
-179.154382
21
-83.556036
31
0.0
0
LINE
8
Calque 1
62
4
5
1f1
100
AcDbEntity
100
AcDbLine
10
-179.154382
20
-83.556036
30
0.0
11
-179.205492
21
-83.944261
31
0.0
0
LINE
8
Calque 1
62
4
5
1f2
100
AcDbEntity
100
AcDbLine
10
-146.406452
20
-84.694267
30
0.0
11
-146.256601
21
-84.332514
31
0.0
0
LINE
8
Calque 1
62
4
5
1f3
100
AcDbEntity
100
AcDbLine
10
-146.256601
20
-84.332514
30
0.0
11
-146.205493
21
-83.944261
31
0.0
0
LINE
8
Calque 1
62
4
5
1f4
100
AcDbEntity
100
AcDbLine
10
-146.205493
20
-83.944261
30
0.0
11
-146.256601
21
-83.556036
31
0.0
0
LINE
8
Calque 1
62
4
5
1f5
100
AcDbEntity
100
AcDbLine
10
-146.256601
20
-83.556036
30
0.0
11
-146.406452
21
-83.194284
31
0.0
0
LINE
8
Calque 1
62
4
5
1f6
100
AcDbEntity
100
AcDbLine
10
-146.406452
20
-83.194284
30
0.0
11
-146.644831
21
-82.883614
31
0.0
0
LINE
8
Calque 1
62
4
5
1f7
100
AcDbEntity
100
AcDbLine
10
-146.644831
20
-82.883614
30
0.0
11
-146.955490
21
-82.645220
31
0.0
0
LINE
8
Calque 1
62
4
5
1f8
100
AcDbEntity
100
AcDbLine
10
-146.955490
20
-82.645220
30
0.0
11
-147.317262
21
-82.495389
31
0.0
0
LINE
8
Calque 1
62
4
5
1f9
100
AcDbEntity
100
AcDbLine
10
-147.317262
20
-82.495389
30
0.0
11
-147.705490
21
-82.444278
31
0.0
0
LINE
8
Calque 1
62
4
5
1fa
100
AcDbEntity
100
AcDbLine
10
-147.705490
20
-82.444278
30
0.0
11
-148.093718
21
-82.495389
31
0.0
0
LINE
8
Calque 1
62
4
5
1fb
100
AcDbEntity
100
AcDbLine
10
-148.093718
20
-82.495389
30
0.0
11
-148.455490
21
-82.645220
31
0.0
0
LINE
8
Calque 1
62
4
5
1fc
100
AcDbEntity
100
AcDbLine
10
-148.455490
20
-82.645220
30
0.0
11
-148.766152
21
-82.883614
31
0.0
0
LINE
8
Calque 1
62
4
5
1fd
100
AcDbEntity
100
AcDbLine
10
-148.766152
20
-82.883614
30
0.0
11
-149.004528
21
-83.194284
31
0.0
0
LINE
8
Calque 1
62
4
5
1fe
100
AcDbEntity
100
AcDbLine
10
-149.004528
20
-83.194284
30
0.0
11
-149.154380
21
-83.556036
31
0.0
0
LINE
8
Calque 1
62
4
5
1ff
100
AcDbEntity
100
AcDbLine
10
-149.154380
20
-83.556036
30
0.0
11
-149.205490
21
-83.944261
31
0.0
0
LINE
8
Calque 1
62
4
5
200
100
AcDbEntity
100
AcDbLine
10
-149.205490
20
-83.944261
30
0.0
11
-149.154380
21
-84.332514
31
0.0
0
LINE
8
Calque 1
62
4
5
201
100
AcDbEntity
100
AcDbLine
10
-149.154380
20
-84.332514
30
0.0
11
-149.004528
21
-84.694267
31
0.0
0
LINE
8
Calque 1
62
4
5
202
100
AcDbEntity
100
AcDbLine
10
-149.004528
20
-84.694267
30
0.0
11
-148.766152
21
-85.004937
31
0.0
0
LINE
8
Calque 1
62
4
5
203
100
AcDbEntity
100
AcDbLine
10
-148.766152
20
-85.004937
30
0.0
11
-148.455490
21
-85.243302
31
0.0
0
LINE
8
Calque 1
62
4
5
204
100
AcDbEntity
100
AcDbLine
10
-148.455490
20
-85.243302
30
0.0
11
-148.093718
21
-85.393162
31
0.0
0
LINE
8
Calque 1
62
4
5
205
100
AcDbEntity
100
AcDbLine
10
-148.093718
20
-85.393162
30
0.0
11
-147.705490
21
-85.444272
31
0.0
0
LINE
8
Calque 1
62
4
5
206
100
AcDbEntity
100
AcDbLine
10
-147.705490
20
-85.444272
30
0.0
11
-147.317262
21
-85.393162
31
0.0
0
LINE
8
Calque 1
62
4
5
207
100
AcDbEntity
100
AcDbLine
10
-147.317262
20
-85.393162
30
0.0
11
-146.955490
21
-85.243302
31
0.0
0
LINE
8
Calque 1
62
4
5
208
100
AcDbEntity
100
AcDbLine
10
-146.955490
20
-85.243302
30
0.0
11
-146.644831
21
-85.004937
31
0.0
0
LINE
8
Calque 1
62
4
5
209
100
AcDbEntity
100
AcDbLine
10
-146.644831
20
-85.004937
30
0.0
11
-146.406452
21
-84.694267
31
0.0
0
LINE
8
Calque 1
62
4
5
20a
100
AcDbEntity
100
AcDbLine
10
-116.406453
20
-84.694267
30
0.0
11
-116.256604
21
-84.332514
31
0.0
0
LINE
8
Calque 1
62
4
5
20b
100
AcDbEntity
100
AcDbLine
10
-116.256604
20
-84.332514
30
0.0
11
-116.205505
21
-83.944261
31
0.0
0
LINE
8
Calque 1
62
4
5
20c
100
AcDbEntity
100
AcDbLine
10
-116.205505
20
-83.944261
30
0.0
11
-116.256604
21
-83.556036
31
0.0
0
LINE
8
Calque 1
62
4
5
20d
100
AcDbEntity
100
AcDbLine
10
-116.256604
20
-83.556036
30
0.0
11
-116.406453
21
-83.194284
31
0.0
0
LINE
8
Calque 1
62
4
5
20e
100
AcDbEntity
100
AcDbLine
10
-116.406453
20
-83.194284
30
0.0
11
-116.644835
21
-82.883614
31
0.0
0
LINE
8
Calque 1
62
4
5
20f
100
AcDbEntity
100
AcDbLine
10
-116.644835
20
-82.883614
30
0.0
11
-116.955494
21
-82.645220
31
0.0
0
LINE
8
Calque 1
62
4
5
210
100
AcDbEntity
100
AcDbLine
10
-116.955494
20
-82.645220
30
0.0
11
-117.317263
21
-82.495389
31
0.0
0
LINE
8
Calque 1
62
4
5
211
100
AcDbEntity
100
AcDbLine
10
-117.317263
20
-82.495389
30
0.0
11
-117.705494
21
-82.444278
31
0.0
0
LINE
8
Calque 1
62
4
5
212
100
AcDbEntity
100
AcDbLine
10
-117.705494
20
-82.444278
30
0.0
11
-118.093724
21
-82.495389
31
0.0
0
LINE
8
Calque 1
62
4
5
213
100
AcDbEntity
100
AcDbLine
10
-118.093724
20
-82.495389
30
0.0
11
-118.455494
21
-82.645220
31
0.0
0
LINE
8
Calque 1
62
4
5
214
100
AcDbEntity
100
AcDbLine
10
-118.455494
20
-82.645220
30
0.0
11
-118.766155
21
-82.883614
31
0.0
0
LINE
8
Calque 1
62
4
5
215
100
AcDbEntity
100
AcDbLine
10
-118.766155
20
-82.883614
30
0.0
11
-119.004523
21
-83.194284
31
0.0
0
LINE
8
Calque 1
62
4
5
216
100
AcDbEntity
100
AcDbLine
10
-119.004523
20
-83.194284
30
0.0
11
-119.154383
21
-83.556036
31
0.0
0
LINE
8
Calque 1
62
4
5
217
100
AcDbEntity
100
AcDbLine
10
-119.154383
20
-83.556036
30
0.0
11
-119.205485
21
-83.944261
31
0.0
0
LINE
8
Calque 1
62
4
5
218
100
AcDbEntity
100
AcDbLine
10
-119.205485
20
-83.944261
30
0.0
11
-119.154383
21
-84.332514
31
0.0
0
LINE
8
Calque 1
62
4
5
219
100
AcDbEntity
100
AcDbLine
10
-119.154383
20
-84.332514
30
0.0
11
-119.004523
21
-84.694267
31
0.0
0
LINE
8
Calque 1
62
4
5
21a
100
AcDbEntity
100
AcDbLine
10
-119.004523
20
-84.694267
30
0.0
11
-118.766155
21
-85.004937
31
0.0
0
LINE
8
Calque 1
62
4
5
21b
100
AcDbEntity
100
AcDbLine
10
-118.766155
20
-85.004937
30
0.0
11
-118.455494
21
-85.243302
31
0.0
0
LINE
8
Calque 1
62
4
5
21c
100
AcDbEntity
100
AcDbLine
10
-118.455494
20
-85.243302
30
0.0
11
-118.093724
21
-85.393162
31
0.0
0
LINE
8
Calque 1
62
4
5
21d
100
AcDbEntity
100
AcDbLine
10
-118.093724
20
-85.393162
30
0.0
11
-117.705494
21
-85.444272
31
0.0
0
LINE
8
Calque 1
62
4
5
21e
100
AcDbEntity
100
AcDbLine
10
-117.705494
20
-85.444272
30
0.0
11
-117.317263
21
-85.393162
31
0.0
0
LINE
8
Calque 1
62
4
5
21f
100
AcDbEntity
100
AcDbLine
10
-117.317263
20
-85.393162
30
0.0
11
-116.955494
21
-85.243302
31
0.0
0
LINE
8
Calque 1
62
4
5
220
100
AcDbEntity
100
AcDbLine
10
-116.955494
20
-85.243302
30
0.0
11
-116.644835
21
-85.004937
31
0.0
0
LINE
8
Calque 1
62
4
5
221
100
AcDbEntity
100
AcDbLine
10
-116.644835
20
-85.004937
30
0.0
11
-116.406453
21
-84.694267
31
0.0
0
LINE
8
Calque 1
62
4
5
222
100
AcDbEntity
100
AcDbLine
10
-88.093725
20
-85.393162
30
0.0
11
-87.705494
21
-85.444272
31
0.0
0
LINE
8
Calque 1
62
4
5
223
100
AcDbEntity
100
AcDbLine
10
-87.705494
20
-85.444272
30
0.0
11
-87.317264
21
-85.393162
31
0.0
0
LINE
8
Calque 1
62
4
5
224
100
AcDbEntity
100
AcDbLine
10
-87.317264
20
-85.393162
30
0.0
11
-86.955495
21
-85.243302
31
0.0
0
LINE
8
Calque 1
62
4
5
225
100
AcDbEntity
100
AcDbLine
10
-86.955495
20
-85.243302
30
0.0
11
-86.644833
21
-85.004937
31
0.0
0
LINE
8
Calque 1
62
4
5
226
100
AcDbEntity
100
AcDbLine
10
-86.644833
20
-85.004937
30
0.0
11
-86.406454
21
-84.694267
31
0.0
0
LINE
8
Calque 1
62
4
5
227
100
AcDbEntity
100
AcDbLine
10
-86.406454
20
-84.694267
30
0.0
11
-86.256605
21
-84.332514
31
0.0
0
LINE
8
Calque 1
62
4
5
228
100
AcDbEntity
100
AcDbLine
10
-86.256605
20
-84.332514
30
0.0
11
-86.205503
21
-83.944261
31
0.0
0
LINE
8
Calque 1
62
4
5
229
100
AcDbEntity
100
AcDbLine
10
-86.205503
20
-83.944261
30
0.0
11
-86.256605
21
-83.556036
31
0.0
0
LINE
8
Calque 1
62
4
5
22a
100
AcDbEntity
100
AcDbLine
10
-86.256605
20
-83.556036
30
0.0
11
-86.406454
21
-83.194284
31
0.0
0
LINE
8
Calque 1
62
4
5
22b
100
AcDbEntity
100
AcDbLine
10
-86.406454
20
-83.194284
30
0.0
11
-86.644833
21
-82.883614
31
0.0
0
LINE
8
Calque 1
62
4
5
22c
100
AcDbEntity
100
AcDbLine
10
-86.644833
20
-82.883614
30
0.0
11
-86.955495
21
-82.645220
31
0.0
0
LINE
8
Calque 1
62
4
5
22d
100
AcDbEntity
100
AcDbLine
10
-86.955495
20
-82.645220
30
0.0
11
-87.317264
21
-82.495389
31
0.0
0
LINE
8
Calque 1
62
4
5
22e
100
AcDbEntity
100
AcDbLine
10
-87.317264
20
-82.495389
30
0.0
11
-87.705494
21
-82.444278
31
0.0
0
LINE
8
Calque 1
62
4
5
22f
100
AcDbEntity
100
AcDbLine
10
-87.705494
20
-82.444278
30
0.0
11
-88.093725
21
-82.495389
31
0.0
0
LINE
8
Calque 1
62
4
5
230
100
AcDbEntity
100
AcDbLine
10
-88.093725
20
-82.495389
30
0.0
11
-88.455494
21
-82.645220
31
0.0
0
LINE
8
Calque 1
62
4
5
231
100
AcDbEntity
100
AcDbLine
10
-88.455494
20
-82.645220
30
0.0
11
-88.766153
21
-82.883614
31
0.0
0
LINE
8
Calque 1
62
4
5
232
100
AcDbEntity
100
AcDbLine
10
-88.766153
20
-82.883614
30
0.0
11
-89.004524
21
-83.194284
31
0.0
0
LINE
8
Calque 1
62
4
5
233
100
AcDbEntity
100
AcDbLine
10
-89.004524
20
-83.194284
30
0.0
11
-89.154384
21
-83.556036
31
0.0
0
LINE
8
Calque 1
62
4
5
234
100
AcDbEntity
100
AcDbLine
10
-89.154384
20
-83.556036
30
0.0
11
-89.205483
21
-83.944261
31
0.0
0
LINE
8
Calque 1
62
4
5
235
100
AcDbEntity
100
AcDbLine
10
-89.205483
20
-83.944261
30
0.0
11
-89.154384
21
-84.332514
31
0.0
0
LINE
8
Calque 1
62
4
5
236
100
AcDbEntity
100
AcDbLine
10
-89.154384
20
-84.332514
30
0.0
11
-89.004524
21
-84.694267
31
0.0
0
LINE
8
Calque 1
62
4
5
237
100
AcDbEntity
100
AcDbLine
10
-89.004524
20
-84.694267
30
0.0
11
-88.766153
21
-85.004937
31
0.0
0
LINE
8
Calque 1
62
4
5
238
100
AcDbEntity
100
AcDbLine
10
-88.766153
20
-85.004937
30
0.0
11
-88.455494
21
-85.243302
31
0.0
0
LINE
8
Calque 1
62
4
5
239
100
AcDbEntity
100
AcDbLine
10
-88.455494
20
-85.243302
30
0.0
11
-88.093725
21
-85.393162
31
0.0
0
LINE
8
Calque 1
62
4
5
23a
100
AcDbEntity
100
AcDbLine
10
-86.955495
20
-102.645237
30
0.0
11
-87.317264
21
-102.495377
31
0.0
0
LINE
8
Calque 1
62
4
5
23b
100
AcDbEntity
100
AcDbLine
10
-87.317264
20
-102.495377
30
0.0
11
-87.705494
21
-102.444266
31
0.0
0
LINE
8
Calque 1
62
4
5
23c
100
AcDbEntity
100
AcDbLine
10
-87.705494
20
-102.444266
30
0.0
11
-88.093725
21
-102.495377
31
0.0
0
LINE
8
Calque 1
62
4
5
23d
100
AcDbEntity
100
AcDbLine
10
-88.093725
20
-102.495377
30
0.0
11
-88.455494
21
-102.645237
31
0.0
0
LINE
8
Calque 1
62
4
5
23e
100
AcDbEntity
100
AcDbLine
10
-88.455494
20
-102.645237
30
0.0
11
-88.766153
21
-102.883602
31
0.0
0
LINE
8
Calque 1
62
4
5
23f
100
AcDbEntity
100
AcDbLine
10
-88.766153
20
-102.883602
30
0.0
11
-89.004524
21
-103.194272
31
0.0
0
LINE
8
Calque 1
62
4
5
240
100
AcDbEntity
100
AcDbLine
10
-89.004524
20
-103.194272
30
0.0
11
-89.154384
21
-103.556053
31
0.0
0
LINE
8
Calque 1
62
4
5
241
100
AcDbEntity
100
AcDbLine
10
-89.154384
20
-103.556053
30
0.0
11
-89.205483
21
-103.944278
31
0.0
0
LINE
8
Calque 1
62
4
5
242
100
AcDbEntity
100
AcDbLine
10
-89.205483
20
-103.944278
30
0.0
11
-89.154384
21
-104.332502
31
0.0
0
LINE
8
Calque 1
62
4
5
243
100
AcDbEntity
100
AcDbLine
10
-89.154384
20
-104.332502
30
0.0
11
-89.004524
21
-104.694283
31
0.0
0
LINE
8
Calque 1
62
4
5
244
100
AcDbEntity
100
AcDbLine
10
-89.004524
20
-104.694283
30
0.0
11
-88.766153
21
-105.004925
31
0.0
0
LINE
8
Calque 1
62
4
5
245
100
AcDbEntity
100
AcDbLine
10
-88.766153
20
-105.004925
30
0.0
11
-88.455494
21
-105.243318
31
0.0
0
LINE
8
Calque 1
62
4
5
246
100
AcDbEntity
100
AcDbLine
10
-88.455494
20
-105.243318
30
0.0
11
-88.093725
21
-105.393150
31
0.0
0
LINE
8
Calque 1
62
4
5
247
100
AcDbEntity
100
AcDbLine
10
-88.093725
20
-105.393150
30
0.0
11
-87.705494
21
-105.444260
31
0.0
0
LINE
8
Calque 1
62
4
5
248
100
AcDbEntity
100
AcDbLine
10
-87.705494
20
-105.444260
30
0.0
11
-87.317264
21
-105.393150
31
0.0
0
LINE
8
Calque 1
62
4
5
249
100
AcDbEntity
100
AcDbLine
10
-87.317264
20
-105.393150
30
0.0
11
-86.955495
21
-105.243318
31
0.0
0
LINE
8
Calque 1
62
4
5
24a
100
AcDbEntity
100
AcDbLine
10
-86.955495
20
-105.243318
30
0.0
11
-86.644833
21
-105.004925
31
0.0
0
LINE
8
Calque 1
62
4
5
24b
100
AcDbEntity
100
AcDbLine
10
-86.644833
20
-105.004925
30
0.0
11
-86.406454
21
-104.694283
31
0.0
0
LINE
8
Calque 1
62
4
5
24c
100
AcDbEntity
100
AcDbLine
10
-86.406454
20
-104.694283
30
0.0
11
-86.256605
21
-104.332502
31
0.0
0
LINE
8
Calque 1
62
4
5
24d
100
AcDbEntity
100
AcDbLine
10
-86.256605
20
-104.332502
30
0.0
11
-86.205503
21
-103.944278
31
0.0
0
LINE
8
Calque 1
62
4
5
24e
100
AcDbEntity
100
AcDbLine
10
-86.205503
20
-103.944278
30
0.0
11
-86.256605
21
-103.556053
31
0.0
0
LINE
8
Calque 1
62
4
5
24f
100
AcDbEntity
100
AcDbLine
10
-86.256605
20
-103.556053
30
0.0
11
-86.406454
21
-103.194272
31
0.0
0
LINE
8
Calque 1
62
4
5
250
100
AcDbEntity
100
AcDbLine
10
-86.406454
20
-103.194272
30
0.0
11
-86.644833
21
-102.883602
31
0.0
0
LINE
8
Calque 1
62
4
5
251
100
AcDbEntity
100
AcDbLine
10
-86.644833
20
-102.883602
30
0.0
11
-86.955495
21
-102.645237
31
0.0
0
LINE
8
Calque 1
62
4
5
252
100
AcDbEntity
100
AcDbLine
10
-116.644835
20
-102.883602
30
0.0
11
-116.955494
21
-102.645237
31
0.0
0
LINE
8
Calque 1
62
4
5
253
100
AcDbEntity
100
AcDbLine
10
-116.955494
20
-102.645237
30
0.0
11
-117.317263
21
-102.495377
31
0.0
0
LINE
8
Calque 1
62
4
5
254
100
AcDbEntity
100
AcDbLine
10
-117.317263
20
-102.495377
30
0.0
11
-117.705494
21
-102.444266
31
0.0
0
LINE
8
Calque 1
62
4
5
255
100
AcDbEntity
100
AcDbLine
10
-117.705494
20
-102.444266
30
0.0
11
-118.093724
21
-102.495377
31
0.0
0
LINE
8
Calque 1
62
4
5
256
100
AcDbEntity
100
AcDbLine
10
-118.093724
20
-102.495377
30
0.0
11
-118.455494
21
-102.645237
31
0.0
0
LINE
8
Calque 1
62
4
5
257
100
AcDbEntity
100
AcDbLine
10
-118.455494
20
-102.645237
30
0.0
11
-118.766155
21
-102.883602
31
0.0
0
LINE
8
Calque 1
62
4
5
258
100
AcDbEntity
100
AcDbLine
10
-118.766155
20
-102.883602
30
0.0
11
-119.004523
21
-103.194272
31
0.0
0
LINE
8
Calque 1
62
4
5
259
100
AcDbEntity
100
AcDbLine
10
-119.004523
20
-103.194272
30
0.0
11
-119.154383
21
-103.556053
31
0.0
0
LINE
8
Calque 1
62
4
5
25a
100
AcDbEntity
100
AcDbLine
10
-119.154383
20
-103.556053
30
0.0
11
-119.205485
21
-103.944278
31
0.0
0
LINE
8
Calque 1
62
4
5
25b
100
AcDbEntity
100
AcDbLine
10
-119.205485
20
-103.944278
30
0.0
11
-119.154383
21
-104.332502
31
0.0
0
LINE
8
Calque 1
62
4
5
25c
100
AcDbEntity
100
AcDbLine
10
-119.154383
20
-104.332502
30
0.0
11
-119.004523
21
-104.694283
31
0.0
0
LINE
8
Calque 1
62
4
5
25d
100
AcDbEntity
100
AcDbLine
10
-119.004523
20
-104.694283
30
0.0
11
-118.766155
21
-105.004925
31
0.0
0
LINE
8
Calque 1
62
4
5
25e
100
AcDbEntity
100
AcDbLine
10
-118.766155
20
-105.004925
30
0.0
11
-118.455494
21
-105.243318
31
0.0
0
LINE
8
Calque 1
62
4
5
25f
100
AcDbEntity
100
AcDbLine
10
-118.455494
20
-105.243318
30
0.0
11
-118.093724
21
-105.393150
31
0.0
0
LINE
8
Calque 1
62
4
5
260
100
AcDbEntity
100
AcDbLine
10
-118.093724
20
-105.393150
30
0.0
11
-117.705494
21
-105.444260
31
0.0
0
LINE
8
Calque 1
62
4
5
261
100
AcDbEntity
100
AcDbLine
10
-117.705494
20
-105.444260
30
0.0
11
-117.317263
21
-105.393150
31
0.0
0
LINE
8
Calque 1
62
4
5
262
100
AcDbEntity
100
AcDbLine
10
-117.317263
20
-105.393150
30
0.0
11
-116.955494
21
-105.243318
31
0.0
0
LINE
8
Calque 1
62
4
5
263
100
AcDbEntity
100
AcDbLine
10
-116.955494
20
-105.243318
30
0.0
11
-116.644835
21
-105.004925
31
0.0
0
LINE
8
Calque 1
62
4
5
264
100
AcDbEntity
100
AcDbLine
10
-116.644835
20
-105.004925
30
0.0
11
-116.406453
21
-104.694283
31
0.0
0
LINE
8
Calque 1
62
4
5
265
100
AcDbEntity
100
AcDbLine
10
-116.406453
20
-104.694283
30
0.0
11
-116.256604
21
-104.332502
31
0.0
0
LINE
8
Calque 1
62
4
5
266
100
AcDbEntity
100
AcDbLine
10
-116.256604
20
-104.332502
30
0.0
11
-116.205505
21
-103.944278
31
0.0
0
LINE
8
Calque 1
62
4
5
267
100
AcDbEntity
100
AcDbLine
10
-116.205505
20
-103.944278
30
0.0
11
-116.256604
21
-103.556053
31
0.0
0
LINE
8
Calque 1
62
4
5
268
100
AcDbEntity
100
AcDbLine
10
-116.256604
20
-103.556053
30
0.0
11
-116.406453
21
-103.194272
31
0.0
0
LINE
8
Calque 1
62
4
5
269
100
AcDbEntity
100
AcDbLine
10
-116.406453
20
-103.194272
30
0.0
11
-116.644835
21
-102.883602
31
0.0
0
LINE
8
Calque 1
62
4
5
26a
100
AcDbEntity
100
AcDbLine
10
-146.406452
20
-103.194272
30
0.0
11
-146.644831
21
-102.883602
31
0.0
0
LINE
8
Calque 1
62
4
5
26b
100
AcDbEntity
100
AcDbLine
10
-146.644831
20
-102.883602
30
0.0
11
-146.955490
21
-102.645237
31
0.0
0
LINE
8
Calque 1
62
4
5
26c
100
AcDbEntity
100
AcDbLine
10
-146.955490
20
-102.645237
30
0.0
11
-147.317262
21
-102.495377
31
0.0
0
LINE
8
Calque 1
62
4
5
26d
100
AcDbEntity
100
AcDbLine
10
-147.317262
20
-102.495377
30
0.0
11
-147.705490
21
-102.444266
31
0.0
0
LINE
8
Calque 1
62
4
5
26e
100
AcDbEntity
100
AcDbLine
10
-147.705490
20
-102.444266
30
0.0
11
-148.093718
21
-102.495377
31
0.0
0
LINE
8
Calque 1
62
4
5
26f
100
AcDbEntity
100
AcDbLine
10
-148.093718
20
-102.495377
30
0.0
11
-148.455490
21
-102.645237
31
0.0
0
LINE
8
Calque 1
62
4
5
270
100
AcDbEntity
100
AcDbLine
10
-148.455490
20
-102.645237
30
0.0
11
-148.766152
21
-102.883602
31
0.0
0
LINE
8
Calque 1
62
4
5
271
100
AcDbEntity
100
AcDbLine
10
-148.766152
20
-102.883602
30
0.0
11
-149.004528
21
-103.194272
31
0.0
0
LINE
8
Calque 1
62
4
5
272
100
AcDbEntity
100
AcDbLine
10
-149.004528
20
-103.194272
30
0.0
11
-149.154380
21
-103.556053
31
0.0
0
LINE
8
Calque 1
62
4
5
273
100
AcDbEntity
100
AcDbLine
10
-149.154380
20
-103.556053
30
0.0
11
-149.205490
21
-103.944278
31
0.0
0
LINE
8
Calque 1
62
4
5
274
100
AcDbEntity
100
AcDbLine
10
-149.205490
20
-103.944278
30
0.0
11
-149.154380
21
-104.332502
31
0.0
0
LINE
8
Calque 1
62
4
5
275
100
AcDbEntity
100
AcDbLine
10
-149.154380
20
-104.332502
30
0.0
11
-149.004528
21
-104.694283
31
0.0
0
LINE
8
Calque 1
62
4
5
276
100
AcDbEntity
100
AcDbLine
10
-149.004528
20
-104.694283
30
0.0
11
-148.766152
21
-105.004925
31
0.0
0
LINE
8
Calque 1
62
4
5
277
100
AcDbEntity
100
AcDbLine
10
-148.766152
20
-105.004925
30
0.0
11
-148.455490
21
-105.243318
31
0.0
0
LINE
8
Calque 1
62
4
5
278
100
AcDbEntity
100
AcDbLine
10
-148.455490
20
-105.243318
30
0.0
11
-148.093718
21
-105.393150
31
0.0
0
LINE
8
Calque 1
62
4
5
279
100
AcDbEntity
100
AcDbLine
10
-148.093718
20
-105.393150
30
0.0
11
-147.705490
21
-105.444260
31
0.0
0
LINE
8
Calque 1
62
4
5
27a
100
AcDbEntity
100
AcDbLine
10
-147.705490
20
-105.444260
30
0.0
11
-147.317262
21
-105.393150
31
0.0
0
LINE
8
Calque 1
62
4
5
27b
100
AcDbEntity
100
AcDbLine
10
-147.317262
20
-105.393150
30
0.0
11
-146.955490
21
-105.243318
31
0.0
0
LINE
8
Calque 1
62
4
5
27c
100
AcDbEntity
100
AcDbLine
10
-146.955490
20
-105.243318
30
0.0
11
-146.644831
21
-105.004925
31
0.0
0
LINE
8
Calque 1
62
4
5
27d
100
AcDbEntity
100
AcDbLine
10
-146.644831
20
-105.004925
30
0.0
11
-146.406452
21
-104.694283
31
0.0
0
LINE
8
Calque 1
62
4
5
27e
100
AcDbEntity
100
AcDbLine
10
-146.406452
20
-104.694283
30
0.0
11
-146.256601
21
-104.332502
31
0.0
0
LINE
8
Calque 1
62
4
5
27f
100
AcDbEntity
100
AcDbLine
10
-146.256601
20
-104.332502
30
0.0
11
-146.205493
21
-103.944278
31
0.0
0
LINE
8
Calque 1
62
4
5
280
100
AcDbEntity
100
AcDbLine
10
-146.205493
20
-103.944278
30
0.0
11
-146.256601
21
-103.556053
31
0.0
0
LINE
8
Calque 1
62
4
5
281
100
AcDbEntity
100
AcDbLine
10
-146.256601
20
-103.556053
30
0.0
11
-146.406452
21
-103.194272
31
0.0
0
LINE
8
Calque 1
62
4
5
282
100
AcDbEntity
100
AcDbLine
10
-176.256603
20
-103.556053
30
0.0
11
-176.406454
21
-103.194272
31
0.0
0
LINE
8
Calque 1
62
4
5
283
100
AcDbEntity
100
AcDbLine
10
-176.406454
20
-103.194272
30
0.0
11
-176.644831
21
-102.883602
31
0.0
0
LINE
8
Calque 1
62
4
5
284
100
AcDbEntity
100
AcDbLine
10
-176.644831
20
-102.883602
30
0.0
11
-176.955492
21
-102.645237
31
0.0
0
LINE
8
Calque 1
62
4
5
285
100
AcDbEntity
100
AcDbLine
10
-176.955492
20
-102.645237
30
0.0
11
-177.317262
21
-102.495377
31
0.0
0
LINE
8
Calque 1
62
4
5
286
100
AcDbEntity
100
AcDbLine
10
-177.317262
20
-102.495377
30
0.0
11
-177.705492
21
-102.444266
31
0.0
0
LINE
8
Calque 1
62
4
5
287
100
AcDbEntity
100
AcDbLine
10
-177.705492
20
-102.444266
30
0.0
11
-178.093720
21
-102.495377
31
0.0
0
LINE
8
Calque 1
62
4
5
288
100
AcDbEntity
100
AcDbLine
10
-178.093720
20
-102.495377
30
0.0
11
-178.455492
21
-102.645237
31
0.0
0
LINE
8
Calque 1
62
4
5
289
100
AcDbEntity
100
AcDbLine
10
-178.455492
20
-102.645237
30
0.0
11
-178.766151
21
-102.883602
31
0.0
0
LINE
8
Calque 1
62
4
5
28a
100
AcDbEntity
100
AcDbLine
10
-178.766151
20
-102.883602
30
0.0
11
-179.004530
21
-103.194272
31
0.0
0
LINE
8
Calque 1
62
4
5
28b
100
AcDbEntity
100
AcDbLine
10
-179.004530
20
-103.194272
30
0.0
11
-179.154382
21
-103.556053
31
0.0
0
LINE
8
Calque 1
62
4
5
28c
100
AcDbEntity
100
AcDbLine
10
-179.154382
20
-103.556053
30
0.0
11
-179.205489
21
-103.944278
31
0.0
0
LINE
8
Calque 1
62
4
5
28d
100
AcDbEntity
100
AcDbLine
10
-179.205489
20
-103.944278
30
0.0
11
-179.154382
21
-104.332502
31
0.0
0
LINE
8
Calque 1
62
4
5
28e
100
AcDbEntity
100
AcDbLine
10
-179.154382
20
-104.332502
30
0.0
11
-179.004530
21
-104.694283
31
0.0
0
LINE
8
Calque 1
62
4
5
28f
100
AcDbEntity
100
AcDbLine
10
-179.004530
20
-104.694283
30
0.0
11
-178.766151
21
-105.004925
31
0.0
0
LINE
8
Calque 1
62
4
5
290
100
AcDbEntity
100
AcDbLine
10
-178.766151
20
-105.004925
30
0.0
11
-178.455492
21
-105.243318
31
0.0
0
LINE
8
Calque 1
62
4
5
291
100
AcDbEntity
100
AcDbLine
10
-178.455492
20
-105.243318
30
0.0
11
-178.093720
21
-105.393150
31
0.0
0
LINE
8
Calque 1
62
4
5
292
100
AcDbEntity
100
AcDbLine
10
-178.093720
20
-105.393150
30
0.0
11
-177.705492
21
-105.444260
31
0.0
0
LINE
8
Calque 1
62
4
5
293
100
AcDbEntity
100
AcDbLine
10
-177.705492
20
-105.444260
30
0.0
11
-177.317262
21
-105.393150
31
0.0
0
LINE
8
Calque 1
62
4
5
294
100
AcDbEntity
100
AcDbLine
10
-177.317262
20
-105.393150
30
0.0
11
-176.955492
21
-105.243318
31
0.0
0
LINE
8
Calque 1
62
4
5
295
100
AcDbEntity
100
AcDbLine
10
-176.955492
20
-105.243318
30
0.0
11
-176.644831
21
-105.004925
31
0.0
0
LINE
8
Calque 1
62
4
5
296
100
AcDbEntity
100
AcDbLine
10
-176.644831
20
-105.004925
30
0.0
11
-176.406454
21
-104.694283
31
0.0
0
LINE
8
Calque 1
62
4
5
297
100
AcDbEntity
100
AcDbLine
10
-176.406454
20
-104.694283
30
0.0
11
-176.256603
21
-104.332502
31
0.0
0
LINE
8
Calque 1
62
4
5
298
100
AcDbEntity
100
AcDbLine
10
-176.256603
20
-104.332502
30
0.0
11
-176.205492
21
-103.944278
31
0.0
0
LINE
8
Calque 1
62
4
5
299
100
AcDbEntity
100
AcDbLine
10
-176.205492
20
-103.944278
30
0.0
11
-176.256603
21
-103.556053
31
0.0
0
LINE
8
Calque 1
62
4
5
29a
100
AcDbEntity
100
AcDbLine
10
-90.705494
20
-48.944275
30
0.0
11
-90.705494
21
-60.944279
31
0.0
0
LINE
8
Calque 1
62
4
5
29b
100
AcDbEntity
100
AcDbLine
10
-90.705494
20
-60.944279
30
0.0
11
-71.705493
21
-60.944279
31
0.0
0
LINE
8
Calque 1
62
4
5
29c
100
AcDbEntity
100
AcDbLine
10
-71.705493
20
-60.944279
30
0.0
11
-71.705493
21
-48.944275
31
0.0
0
LINE
8
Calque 1
62
4
5
29d
100
AcDbEntity
100
AcDbLine
10
-71.705493
20
-48.944275
30
0.0
11
-90.705494
21
-48.944275
31
0.0
  0
ENDSEC
  0
SECTION
  2
OBJECTS
  0
DICTIONARY
  5
C
330
0
100
AcDbDictionary
  3
ACAD_GROUP
350
D
  3
ACAD_MLINESTYLE
350
17
  0
DICTIONARY
  5
D
330
C
100
AcDbDictionary
  0
DICTIONARY
  5
1A
330
C
100
AcDbDictionary
  0
DICTIONARY
  5
17
330
C
100
AcDbDictionary
  3
STANDARD
350
18
  0
DICTIONARY
  5
19
330
C
100
AcDbDictionary
  0
ENDSEC
  0
EOF
