<?xml version="1.0" standalone="no"?>
<!DOCTYPE svg PUBLIC "-//W3C//DTD SVG 1.1//EN" "http://www.w3.org/Graphics/SVG/1.1/DTD/svg11.dtd">
<svg width="160.00000000000136mm" height="7146.633320981955mm"
 viewBox="0 0 160.00000000000136 7146.633320981955"
 xmlns="http://www.w3.org/2000/svg" version="1.1"
 xmlns:xlink="http://www.w3.org/1999/xlink">
<desc>Output from Flights of Ideas SVG Sketchup Plugin</desc>

  <path id="face0-cut"
 style="fill:none;stroke:#0000FF;stroke-width:1;stroke-miterlimit:4;stroke-dasharray:none;stroke-linejoin:round;stroke-linecap:round"
        d="M 150.00000000000136,95.00000000000364 L 150.00000000000136,25.000000000003638 L 147.00000000000136,25.000000000005457 L 147.0000000000009,15.000000000004547 L 150.0,15.000000000002728 L 150.00000000000136,13.000000000001819 L 150.0000000000009,10.000000000001819 L 134.99999999999864,10.000000000001819 L 135.0,13.000000000001819 L 124.99999999999909,13.000000000001819 L 124.99999999999909,10.000000000001819 L 114.99999999999955,10.000000000001819 L 114.99999999999955,13.000000000001819 L 104.99999999999909,13.000000000001819 L 104.99999999999909,10.000000000001819 L 94.99999999999955,10.000000000001819 L 95.0,13.000000000001819 L 84.99999999999955,13.000000000001819 L 84.99999999999909,10.000000000001819 L 75.0,10.000000000001819 L 75.00000000000045,13.000000000001819 L 64.99999999999909,13.000000000001819 L 64.99999999999909,10.0 L 55.000000000000455,10.000000000001819 L 54.999999999999545,13.00000000000091 L 44.999999999999545,13.000000000001819 L 44.999999999999545,10.000000000001819 L 35.000000000000455,10.000000000001819 L 35.000000000000455,13.000000000001819 L 25.0,13.000000000001819 L 25.000000000000455,10.000000000001819 L 10.00000000000091,10.000000000001819 L 10.000000000001364,15.000000000004547 L 13.000000000000455,15.000000000004547 L 13.000000000000455,25.000000000003638 L 10.000000000000455,25.000000000003638 L 10.00000000000091,35.00000000000455 L 13.0,35.00000000000273 L 13.0,45.00000000000546 L 10.00000000000091,45.00000000000364 L 10.0,55.00000000000273 L 13.0,55.00000000000455 L 13.0,65.00000000000364 L 10.0,65.00000000000364 L 10.0,75.00000000000364 L 13.000000000000455,75.00000000000364 L 13.000000000000455,85.00000000000273 L 10.000000000000455,85.00000000000273 L 10.000000000000455,95.00000000000273 L 13.0,95.00000000000364 L 13.000000000000455,105.00000000000455 L 10.0,105.00000000000273 L 10.00000000000091,115.00000000000364 L 13.000000000001364,115.00000000000364 L 13.000000000000455,125.00000000000455 L 10.000000000000455,125.00000000000273 L 10.000000000000455,135.00000000000182 L 13.00000000000091,135.00000000000364 L 13.000000000001364,145.00000000000273 L 10.00000000000091,145.00000000000364 L 10.0,155.00000000000273 L 13.00000000000091,155.00000000000273 L 13.0,165.00000000000182 L 10.0,165.00000000000182 L 10.0,175.00000000000273 L 13.000000000000455,175.00000000000273 L 13.000000000001364,185.00000000000364 L 10.000000000000455,185.00000000000182 L 10.000000000000455,195.00000000000273 L 13.0,195.00000000000273 L 13.00000000000091,205.00000000000364 L 10.000000000000455,205.00000000000182 L 10.0,215.00000000000273 L 13.000000000000455,215.00000000000273 L 13.0,225.00000000000273 L 10.0,225.00000000000182 L 10.000000000000455,235.00000000000182 L 13.000000000000455,235.00000000000182 L 13.00000000000091,245.00000000000182 L 10.00000000000091,245.00000000000182 L 10.0,255.0000000000009 L 13.000000000000455,255.00000000000182 L 13.0,265.0000000000009 L 10.000000000000455,265.0000000000009 L 10.00000000000091,275.0000000000018 L 13.000000000000455,275.0000000000018 L 13.000000000000455,285.00000000000273 L 10.00000000000091,285.0000000000009 L 10.000000000000455,295.0000000000018 L 13.0,295.0 L 13.00000000000091,305.0000000000009 L 10.000000000000455,305.0000000000009 L 10.000000000000455,315.0000000000009 L 13.0,315.0 L 13.000000000000455,325.0000000000009 L 10.000000000000455,325.0000000000018 L 10.00000000000091,330.0000000000009 L 25.0,330.00000000000273 L 25.00000000000091,327.0000000000018 L 35.000000000000455,327.0000000000018 L 35.000000000000455,330.0000000000009 L 45.00000000000091,330.00000000000273 L 45.000000000000455,327.0000000000018 L 55.00000000000091,327.0000000000018 L 55.0,330.0000000000009 L 65.0,330.00000000000273 L 64.99999999999909,327.0000000000018 L 74.99999999999955,327.0000000000018 L 75.0,330.0000000000009 L 84.99999999999955,330.0000000000009 L 84.99999999999955,327.0000000000018 L 94.99999999999909,327.0000000000018 L 94.99999999999955,330.0000000000009 L 104.99999999999909,330.0000000000009 L 104.99999999999909,327.0000000000018 L 114.99999999999955,327.0000000000018 L 114.99999999999864,330.0000000000009 L 124.99999999999955,330.00000000000273 L 124.99999999999909,327.0000000000018 L 134.9999999999991,327.0000000000018 L 135.0,330.0000000000009 L 150.0000000000009,330.00000000000273 L 150.0000000000009,327.0000000000018 L 150.0,325.0000000000009 L 147.00000000000136,325.0000000000009 L 147.00000000000136,315.0 L 150.00000000000136,315.0000000000009 L 150.00000000000136,305.0000000000009 L 147.0000000000009,305.0000000000009 L 147.00000000000045,295.0000000000018 L 150.00000000000045,295.0 L 150.00000000000136,285.0000000000009 L 147.00000000000136,285.00000000000273 L 147.00000000000136,275.0000000000018 L 150.00000000000136,275.0000000000018 L 150.00000000000136,265.0000000000009 L 147.0,265.0000000000009 L 147.00000000000045,255.0000000000009 L 150.00000000000045,255.00000000000182 L 150.0000000000009,245.00000000000182 L 147.00000000000136,245.00000000000182 L 147.0000000000009,235.00000000000182 L 150.0000000000009,235.00000000000182 L 150.00000000000136,225.00000000000273 L 147.00000000000136,225.00000000000182 L 147.00000000000136,215.00000000000273 L 150.00000000000136,215.00000000000273 L 150.00000000000045,205.00000000000182 L 147.0000000000009,205.00000000000182 L 147.00000000000136,195.00000000000273 L 150.00000000000136,195.00000000000273 L 150.0000000000009,185.00000000000182 L 147.0000000000009,185.00000000000182 L 147.0000000000009,175.00000000000273 L 150.00000000000045,175.00000000000273 L 150.0,165.00000000000182 L 147.00000000000045,165.00000000000182 L 147.00000000000136,155.00000000000182 L 150.00000000000045,155.00000000000182 L 150.00000000000136,145.00000000000364 L 147.00000000000136,145.00000000000273 L 147.0000000000009,135.00000000000364 L 150.0000000000009,135.00000000000364 L 150.0000000000009,125.00000000000273 L 147.00000000000136,125.00000000000273 L 147.0000000000009,115.00000000000182 L 150.0000000000009,115.00000000000364 L 150.00000000000136,105.00000000000455 L 147.00000000000045,105.00000000000273 L 147.00000000000136,95.00000000000364 L 150.00000000000136,95.00000000000364 M 83.90889008453178,52.10582854123095 L 83.69747874638142,50.50000000000091 L 86.69747874638097,50.50000000000091 L 86.8066675633986,51.32937140592276 L 87.70577136594056,53.50000000000182 L 89.13603896932136,55.36396103068 L 91.00000000000091,56.794228634061255 L 93.17062859407815,57.69333243660367 L 94.00000000000091,57.80252125361949 L 94.00000000000045,60.8025212536204 L 92.39417145876996,60.59110991546913 L 89.5,59.39230484541349 L 87.01471862576136,57.485281374238184 L 86.26735796316098,56.5113019960736 L 85.10769515458742,55.00000000000091 L 83.90889008453178,52.10582854123095 M 119.30252125361858,47.50000000000182 L 116.30252125361903,47.5 L 115.78444235207144,43.56480005284811 L 113.68653347947384,38.49999999999909 L 111.65712356447102,35.85522150687302 L 110.34924240491864,34.15075759508363 L 106.00000000000091,30.813466520527072 L 100.93519994715416,28.715557647930837 L 97.00000000000045,28.19747874638324 L 97.0,25.19747874638233 L 101.71165708246053,25.817780169063553 L 107.5,28.215390309174836 L 112.47056274847728,32.02943725152454 L 113.96528407368032,33.97739600785644 L 116.28460969082653,37.00000000000091 L 118.68221983093781,42.78834291754083 L 119.30252125361858,47.50000000000182 M 115.78444235207098,54.435199947154615 L 116.30252125361949,50.49999999999909 L 119.30252125361949,50.50000000000091 L 118.68221983093827,55.21165708246099 L 116.28460969082653,61.0 L 113.96528407367941,64.02260399214629 L 112.47056274847773,65.97056274847819 L 107.50000000000091,69.78460969082789 L 101.71165708246144,72.18221983093736 L 97.00000000000091,72.80252125361858 L 97.00000000000091,69.80252125361949 L 100.93519994715416,69.28444235207189 L 106.00000000000045,67.18653347947384 L 110.34924240491819,63.849242404918186 L 111.65712356447057,62.1447784931288 L 113.68653347947338,59.5 L 115.78444235207098,54.435199947154615 M 94.00000000000091,25.19747874638324 L 94.00000000000091,28.19747874638142 L 90.06480005284811,28.715557647929927 L 85.00000000000091,30.813466520527072 L 80.65075759508272,34.15075759508272 L 79.34287643553034,35.85522150687302 L 77.31346652052616,38.50000000000091 L 75.21555764792993,43.56480005284811 L 74.69747874638188,47.5 L 71.69747874638188,47.5 L 72.3177801690631,42.78834291754083 L 74.71539030917484,37.00000000000091 L 77.0347159263215,33.97739600785462 L 78.52943725152363,32.02943725152454 L 83.50000000000045,28.215390309174836 L 89.28834291753992,25.817780169065372 L 94.00000000000091,25.19747874638324 M 94.0,31.19747874638233 L 94.0,34.19747874638142 L 91.61771432346222,34.51111260566449 L 88.00000000000045,36.00961894323427 L 84.89339828220272,38.393398282203634 L 83.95919745395031,39.61087250490982 L 82.50961894323336,41.50000000000182 L 81.01111260566495,45.11771432346268 L 80.69747874638142,47.50000000000182 L 77.69747874638097,47.5 L 78.11333512679766,44.341257188156305 L 79.91154273188067,40.0 L 81.6510369447401,37.73304700589142 L 82.77207793864227,36.272077938641814 L 86.50000000000091,33.41154273188022 L 90.84125718815449,31.61333512679721 L 94.0,31.19747874638233 M 90.0648000528472,69.28444235207189 L 94.00000000000091,69.80252125362131 L 94.00000000000045,72.80252125361858 L 89.28834291753992,72.18221983093736 L 83.50000000000091,69.78460969082698 L 78.52943725152409,65.97056274847819 L 77.03471592632104,64.0226039921481 L 74.71539030917438,61.00000000000182 L 72.31778016906264,55.21165708246099 L 71.69747874638233,50.49999999999909 L 74.69747874638142,50.50000000000091 L 75.21555764793038,54.435199947154615 L 77.31346652052662,59.5 L 79.34287643553034,62.1447784931288 L 80.65075759508227,63.849242404918186 L 85.00000000000045,67.18653347947475 L 90.0648000528472,69.28444235207189 M 77.69747874638097,50.49999999999909 L 80.69747874638188,50.50000000000091 L 81.01111260566495,52.88228567653914 L 82.50961894323291,56.50000000000091 L 83.95919745395076,58.389127495092 L 84.89339828220182,59.606601717798185 L 88.0,61.990381056768456 L 91.61771432346359,63.488887394338235 L 94.0,63.80252125361949 L 94.00000000000045,66.80252125361858 L 90.84125718815494,66.3866648732037 L 86.50000000000091,64.58845726812069 L 82.77207793864272,61.727922061359095 L 81.6510369447401,60.2669529941104 L 79.91154273188022,58.00000000000091 L 78.11333512679721,53.658742811844604 L 77.69747874638097,50.49999999999909 M 92.39417145876996,37.40889008453178 L 94.00000000000045,37.19747874638233 L 94.0,40.19747874638142 L 93.1706285940777,40.30666756339906 L 91.0,41.20577136594147 L 89.13603896932182,42.636038969322726 L 87.70577136594102,44.50000000000182 L 86.8066675633986,46.67062859407815 L 86.69747874638142,47.5 L 83.69747874638142,47.5 L 83.90889008453223,45.89417145876996 L 85.10769515458742,43.00000000000091 L 86.26735796316052,41.48869800392731 L 87.01471862576227,40.514718625762725 L 89.50000000000091,38.60769515458742 L 92.39417145876996,37.40889008453178 M 109.98888739433642,52.88228567653914 L 110.3025212536204,50.50000000000091 L 113.30252125361994,50.50000000000091 L 112.88666487320506,53.65874281184642 L 111.08845726812024,58.00000000000091 L 109.34896305526127,60.2669529941104 L 108.22792206135864,61.727922061359095 L 104.50000000000091,64.58845726812069 L 100.15874281184597,66.38666487320552 L 97.00000000000045,66.8025212536204 L 97.00000000000045,63.80252125361949 L 99.38228567653823,63.488887394336416 L 103.00000000000045,61.990381056768456 L 106.10660171779818,59.606601717798185 L 107.04080254605105,58.389127495092 L 108.49038105676709,56.50000000000091 L 109.98888739433642,52.88228567653914 M 113.30252125361994,47.50000000000182 L 110.30252125361903,47.5 L 109.98888739433733,45.11771432346268 L 108.490381056768,41.5 L 107.04080254605151,39.61087250490982 L 106.10660171779864,38.393398282203634 L 103.00000000000091,36.00961894323427 L 99.38228567653823,34.51111260566449 L 97.00000000000091,34.19747874638142 L 97.00000000000045,31.19747874638233 L 100.15874281184597,31.61333512679721 L 104.50000000000136,33.41154273188022 L 108.2279220613591,36.272077938641814 L 109.34896305526127,37.73304700589142 L 111.0884572681216,40.0 L 112.8866648732037,44.341257188156305 L 113.30252125361994,47.50000000000182 M 104.30252125361903,50.50000000000091 L 107.30252125361903,50.50000000000091 L 107.09110991546959,52.10582854123095 L 105.89230484541395,55.0 L 104.73264203684084,56.5113019960736 L 103.98528137423955,57.485281374238184 L 101.50000000000091,59.39230484541349 L 98.60582854123095,60.59110991546913 L 97.00000000000045,60.8025212536204 L 97.00000000000136,57.80252125362131 L 97.82937140592321,57.69333243660185 L 100.00000000000045,56.794228634059436 L 101.86396103067955,55.36396103068 L 103.29422863406035,53.5 L 104.19333243660321,51.329371405924576 L 104.30252125361903,50.50000000000091 M 107.09110991546913,45.89417145876996 L 107.30252125361994,47.50000000000182 L 104.3025212536204,47.50000000000182 L 104.19333243660185,46.67062859407815 L 103.29422863406035,44.50000000000091 L 101.86396103068,42.636038969322726 L 100.0,41.20577136594147 L 97.82937140592321,40.30666756339906 L 97.00000000000045,40.19747874638142 L 97.00000000000045,37.19747874638233 L 98.6058285412305,37.40889008453178 L 101.5,38.60769515458833 L 103.9852813742391,40.514718625762725 L 104.7326420368413,41.48869800392913 L 105.89230484541395,43.00000000000091 L 107.09110991546913,45.89417145876996 M 48.823085463760435,187.00000000000182 L 52.08809824775426,182.74495249725078 L 49.594408408977415,180.25126265847302 L 55.25126265847166,174.5944084089815 L 57.74495249724578,177.08809824775835 L 62.000000000000455,173.82308546376225 L 70.68251437630943,170.22667025359442 L 80.00000000000045,169.0000000000009 L 89.31748562369103,170.22667025359442 L 98.0,173.82308546376225 L 104.25554539023051,178.62313426621313 L 106.51650429449683,176.36217536194636 L 108.63782463805546,178.48349570550636 L 106.37686573379051,180.74445460977313 L 111.17691453623956,187.00000000000182 L 114.77332974640694,195.6825143763117 L 116.0,205.00000000000182 L 114.77332974640649,214.31748562369194 L 111.17691453624047,223.0000000000009 L 106.3768657337896,229.25554539023233 L 108.63782463805592,231.51650429449728 L 106.51650429449546,233.63782463805546 L 104.25554539023051,231.37686573379142 L 98.00000000000045,236.17691453624138 L 89.31748562369148,239.7733297464074 L 80.0,241.0000000000009 L 70.68251437630988,239.7733297464074 L 62.000000000000455,236.17691453624138 L 55.74445460976949,231.37686573379142 L 53.483495705503174,233.63782463805728 L 51.36217536194499,231.51650429449637 L 53.62313426620949,229.2555453902305 L 48.823085463761345,223.00000000000182 L 45.226670253594875,214.31748562369194 L 44.00000000000091,205.00000000000182 L 45.226670253593966,195.6825143763117 L 48.823085463760435,187.00000000000182 "
  />
  <path id="face1-cut"
 style="fill:none;stroke:#0000FF;stroke-width:1;stroke-miterlimit:4;stroke-dasharray:none;stroke-linejoin:round;stroke-linecap:round"
        d="M 150.00000000000068,7133.633320981955 L 150.00000000000023,7123.633320981955 L 147.00000000000068,7123.633320981955 L 147.00000000000023,7113.633320981956 L 150.00000000000023,7113.633320981955 L 150.00000000000136,7103.633320981954 L 139.99999999999886,7103.633320981956 L 139.99999999999932,7100.633320981956 L 129.9999999999991,7100.633320981955 L 129.9999999999991,7103.633320981956 L 119.99999999999955,7103.633320981956 L 119.99999999999955,7100.633320981955 L 109.99999999999955,7100.633320981955 L 109.99999999999886,7103.633320981956 L 99.99999999999977,7103.633320981956 L 100.00000000000023,7100.633320981956 L 90.00000000000023,7100.633320981955 L 90.00000000000023,7103.633320981956 L 80.0,7103.633320981956 L 80.0,7100.633320981955 L 70.00000000000091,7100.633320981956 L 70.00000000000045,7103.633320981954 L 60.000000000000455,7103.633320981956 L 59.99999999999977,7100.633320981955 L 50.0,7100.633320981955 L 50.00000000000023,7103.633320981956 L 40.0,7103.633320981956 L 40.0,7100.633320981956 L 30.000000000000455,7100.633320981956 L 30.00000000000091,7103.633320981954 L 10.000000000000455,7103.633320981956 L 10.000000000001137,7113.633320981956 L 13.000000000000455,7113.633320981955 L 13.000000000000682,7123.633320981955 L 10.000000000001364,7123.633320981957 L 10.0,7133.633320981955 L 25.000000000000227,7133.633320981955 L 25.000000000000227,7136.633320981955 L 35.000000000000455,7136.633320981955 L 35.00000000000091,7133.633320981955 L 45.0,7133.633320981955 L 45.000000000000455,7136.633320981955 L 55.0,7136.633320981955 L 55.00000000000068,7133.633320981955 L 65.00000000000045,7133.633320981956 L 65.00000000000091,7136.633320981955 L 75.00000000000068,7136.633320981955 L 74.99999999999977,7133.633320981955 L 85.00000000000023,7133.633320981955 L 84.99999999999955,7136.633320981955 L 94.99999999999977,7136.633320981955 L 94.99999999999977,7133.633320981955 L 105.00000000000045,7133.633320981955 L 104.99999999999909,7136.633320981954 L 115.0,7136.633320981955 L 115.00000000000023,7133.633320981956 L 124.99999999999909,7133.633320981955 L 124.99999999999841,7136.633320981955 L 134.9999999999991,7136.633320981955 L 134.99999999999864,7133.633320981955 L 150.00000000000068,7133.633320981955 M 137.00000000000182,7126.133320981956 L 23.000000000001137,7126.133320981955 L 23.000000000001364,7123.133320981956 L 137.00000000000068,7123.133320981956 L 137.00000000000182,7126.133320981956 M 23.000000000001137,7117.133320981957 L 137.00000000000045,7117.133320981956 L 137.00000000000045,7120.133320981955 L 23.000000000000682,7120.133320981956 L 23.000000000001137,7117.133320981957 M 137.00000000000114,7114.133320981956 L 23.0,7114.133320981956 L 23.000000000001364,7111.133320981957 L 137.00000000000114,7111.133320981955 L 137.00000000000114,7114.133320981956 "
  />
  <path id="face0-interior"
 style="fill:none;stroke:#FF0000;stroke-width:1;stroke-miterlimit:4;stroke-dasharray:none;stroke-linejoin:round;stroke-linecap:round"
        d="M 150.00000000000136,95.00000000000364 M 150.00000000000136,25.000000000003638 M 147.00000000000136,25.000000000005457 M 147.0000000000009,15.000000000004547 M 150.0,15.000000000002728 M 150.00000000000136,13.000000000001819 M 150.0000000000009,10.000000000001819 M 134.99999999999864,10.000000000001819 M 135.0,13.000000000001819 M 124.99999999999909,13.000000000001819 M 124.99999999999909,10.000000000001819 M 114.99999999999955,10.000000000001819 M 114.99999999999955,13.000000000001819 M 104.99999999999909,13.000000000001819 M 104.99999999999909,10.000000000001819 M 94.99999999999955,10.000000000001819 M 95.0,13.000000000001819 M 84.99999999999955,13.000000000001819 M 84.99999999999909,10.000000000001819 M 75.0,10.000000000001819 M 75.00000000000045,13.000000000001819 M 64.99999999999909,13.000000000001819 M 64.99999999999909,10.0 M 55.000000000000455,10.000000000001819 M 54.999999999999545,13.00000000000091 M 44.999999999999545,13.000000000001819 M 44.999999999999545,10.000000000001819 M 35.000000000000455,10.000000000001819 M 35.000000000000455,13.000000000001819 M 25.0,13.000000000001819 M 25.000000000000455,10.000000000001819 M 10.00000000000091,10.000000000001819 M 10.000000000001364,15.000000000004547 M 13.000000000000455,15.000000000004547 M 13.000000000000455,25.000000000003638 M 10.000000000000455,25.000000000003638 M 10.00000000000091,35.00000000000455 M 13.0,35.00000000000273 M 13.0,45.00000000000546 M 10.00000000000091,45.00000000000364 M 10.0,55.00000000000273 M 13.0,55.00000000000455 M 13.0,65.00000000000364 M 10.0,65.00000000000364 M 10.0,75.00000000000364 M 13.000000000000455,75.00000000000364 M 13.000000000000455,85.00000000000273 M 10.000000000000455,85.00000000000273 M 10.000000000000455,95.00000000000273 M 13.0,95.00000000000364 M 13.000000000000455,105.00000000000455 M 10.0,105.00000000000273 M 10.00000000000091,115.00000000000364 M 13.000000000001364,115.00000000000364 M 13.000000000000455,125.00000000000455 M 10.000000000000455,125.00000000000273 M 10.000000000000455,135.00000000000182 M 13.00000000000091,135.00000000000364 M 13.000000000001364,145.00000000000273 M 10.00000000000091,145.00000000000364 M 10.0,155.00000000000273 M 13.00000000000091,155.00000000000273 M 13.0,165.00000000000182 M 10.0,165.00000000000182 M 10.0,175.00000000000273 M 13.000000000000455,175.00000000000273 M 13.000000000001364,185.00000000000364 M 10.000000000000455,185.00000000000182 M 10.000000000000455,195.00000000000273 M 13.0,195.00000000000273 M 13.00000000000091,205.00000000000364 M 10.000000000000455,205.00000000000182 M 10.0,215.00000000000273 M 13.000000000000455,215.00000000000273 M 13.0,225.00000000000273 M 10.0,225.00000000000182 M 10.000000000000455,235.00000000000182 M 13.000000000000455,235.00000000000182 M 13.00000000000091,245.00000000000182 M 10.00000000000091,245.00000000000182 M 10.0,255.0000000000009 M 13.000000000000455,255.00000000000182 M 13.0,265.0000000000009 M 10.000000000000455,265.0000000000009 M 10.00000000000091,275.0000000000018 M 13.000000000000455,275.0000000000018 M 13.000000000000455,285.00000000000273 M 10.00000000000091,285.0000000000009 M 10.000000000000455,295.0000000000018 M 13.0,295.0 M 13.00000000000091,305.0000000000009 M 10.000000000000455,305.0000000000009 M 10.000000000000455,315.0000000000009 M 13.0,315.0 M 13.000000000000455,325.0000000000009 M 10.000000000000455,325.0000000000018 M 10.00000000000091,330.0000000000009 M 25.0,330.00000000000273 M 25.00000000000091,327.0000000000018 M 35.000000000000455,327.0000000000018 M 35.000000000000455,330.0000000000009 M 45.00000000000091,330.00000000000273 M 45.000000000000455,327.0000000000018 M 55.00000000000091,327.0000000000018 M 55.0,330.0000000000009 M 65.0,330.00000000000273 M 64.99999999999909,327.0000000000018 M 74.99999999999955,327.0000000000018 M 75.0,330.0000000000009 M 84.99999999999955,330.0000000000009 M 84.99999999999955,327.0000000000018 M 94.99999999999909,327.0000000000018 M 94.99999999999955,330.0000000000009 M 104.99999999999909,330.0000000000009 M 104.99999999999909,327.0000000000018 M 114.99999999999955,327.0000000000018 M 114.99999999999864,330.0000000000009 M 124.99999999999955,330.00000000000273 M 124.99999999999909,327.0000000000018 M 134.9999999999991,327.0000000000018 M 135.0,330.0000000000009 M 150.0000000000009,330.00000000000273 M 150.0000000000009,327.0000000000018 M 150.0,325.0000000000009 M 147.00000000000136,325.0000000000009 M 147.00000000000136,315.0 M 150.00000000000136,315.0000000000009 M 150.00000000000136,305.0000000000009 M 147.0000000000009,305.0000000000009 M 147.00000000000045,295.0000000000018 M 150.00000000000045,295.0 M 150.00000000000136,285.0000000000009 M 147.00000000000136,285.00000000000273 M 147.00000000000136,275.0000000000018 M 150.00000000000136,275.0000000000018 M 150.00000000000136,265.0000000000009 M 147.0,265.0000000000009 M 147.00000000000045,255.0000000000009 M 150.00000000000045,255.00000000000182 M 150.0000000000009,245.00000000000182 M 147.00000000000136,245.00000000000182 M 147.0000000000009,235.00000000000182 M 150.0000000000009,235.00000000000182 M 150.00000000000136,225.00000000000273 M 147.00000000000136,225.00000000000182 M 147.00000000000136,215.00000000000273 M 150.00000000000136,215.00000000000273 M 150.00000000000045,205.00000000000182 M 147.0000000000009,205.00000000000182 M 147.00000000000136,195.00000000000273 M 150.00000000000136,195.00000000000273 M 150.0000000000009,185.00000000000182 M 147.0000000000009,185.00000000000182 M 147.0000000000009,175.00000000000273 M 150.00000000000045,175.00000000000273 M 150.0,165.00000000000182 M 147.00000000000045,165.00000000000182 M 147.00000000000136,155.00000000000182 M 150.00000000000045,155.00000000000182 M 150.00000000000136,145.00000000000364 M 147.00000000000136,145.00000000000273 M 147.0000000000009,135.00000000000364 M 150.0000000000009,135.00000000000364 M 150.0000000000009,125.00000000000273 M 147.00000000000136,125.00000000000273 M 147.0000000000009,115.00000000000182 M 150.0000000000009,115.00000000000364 M 150.00000000000136,105.00000000000455 M 147.00000000000045,105.00000000000273 M 147.00000000000136,95.00000000000364 M 83.90889008453178,52.10582854123095 M 83.69747874638142,50.50000000000091 M 86.69747874638097,50.50000000000091 M 86.8066675633986,51.32937140592276 M 87.70577136594056,53.50000000000182 M 89.13603896932136,55.36396103068 M 91.00000000000091,56.794228634061255 M 93.17062859407815,57.69333243660367 M 94.00000000000091,57.80252125361949 M 94.00000000000045,60.8025212536204 M 92.39417145876996,60.59110991546913 M 89.5,59.39230484541349 M 87.01471862576136,57.485281374238184 M 86.26735796316098,56.5113019960736 M 85.10769515458742,55.00000000000091 M 119.30252125361858,47.50000000000182 M 116.30252125361903,47.5 M 115.78444235207144,43.56480005284811 M 113.68653347947384,38.49999999999909 M 111.65712356447102,35.85522150687302 M 110.34924240491864,34.15075759508363 M 106.00000000000091,30.813466520527072 M 100.93519994715416,28.715557647930837 M 97.00000000000045,28.19747874638324 M 97.0,25.19747874638233 M 101.71165708246053,25.817780169063553 M 107.5,28.215390309174836 M 112.47056274847728,32.02943725152454 M 113.96528407368032,33.97739600785644 M 116.28460969082653,37.00000000000091 M 118.68221983093781,42.78834291754083 M 115.78444235207098,54.435199947154615 M 116.30252125361949,50.49999999999909 M 119.30252125361949,50.50000000000091 M 118.68221983093827,55.21165708246099 M 116.28460969082653,61.0 M 113.96528407367941,64.02260399214629 M 112.47056274847773,65.97056274847819 M 107.50000000000091,69.78460969082789 M 101.71165708246144,72.18221983093736 M 97.00000000000091,72.80252125361858 M 97.00000000000091,69.80252125361949 M 100.93519994715416,69.28444235207189 M 106.00000000000045,67.18653347947384 M 110.34924240491819,63.849242404918186 M 111.65712356447057,62.1447784931288 M 113.68653347947338,59.5 M 94.00000000000091,25.19747874638324 M 94.00000000000091,28.19747874638142 M 90.06480005284811,28.715557647929927 M 85.00000000000091,30.813466520527072 M 80.65075759508272,34.15075759508272 M 79.34287643553034,35.85522150687302 M 77.31346652052616,38.50000000000091 M 75.21555764792993,43.56480005284811 M 74.69747874638188,47.5 M 71.69747874638188,47.5 M 72.3177801690631,42.78834291754083 M 74.71539030917484,37.00000000000091 M 77.0347159263215,33.97739600785462 M 78.52943725152363,32.02943725152454 M 83.50000000000045,28.215390309174836 M 89.28834291753992,25.817780169065372 M 94.0,31.19747874638233 M 94.0,34.19747874638142 M 91.61771432346222,34.51111260566449 M 88.00000000000045,36.00961894323427 M 84.89339828220272,38.393398282203634 M 83.95919745395031,39.61087250490982 M 82.50961894323336,41.50000000000182 M 81.01111260566495,45.11771432346268 M 80.69747874638142,47.50000000000182 M 77.69747874638097,47.5 M 78.11333512679766,44.341257188156305 M 79.91154273188067,40.0 M 81.6510369447401,37.73304700589142 M 82.77207793864227,36.272077938641814 M 86.50000000000091,33.41154273188022 M 90.84125718815449,31.61333512679721 M 90.0648000528472,69.28444235207189 M 94.00000000000091,69.80252125362131 M 94.00000000000045,72.80252125361858 M 89.28834291753992,72.18221983093736 M 83.50000000000091,69.78460969082698 M 78.52943725152409,65.97056274847819 M 77.03471592632104,64.0226039921481 M 74.71539030917438,61.00000000000182 M 72.31778016906264,55.21165708246099 M 71.69747874638233,50.49999999999909 M 74.69747874638142,50.50000000000091 M 75.21555764793038,54.435199947154615 M 77.31346652052662,59.5 M 79.34287643553034,62.1447784931288 M 80.65075759508227,63.849242404918186 M 85.00000000000045,67.18653347947475 M 77.69747874638097,50.49999999999909 M 80.69747874638188,50.50000000000091 M 81.01111260566495,52.88228567653914 M 82.50961894323291,56.50000000000091 M 83.95919745395076,58.389127495092 M 84.89339828220182,59.606601717798185 M 88.0,61.990381056768456 M 91.61771432346359,63.488887394338235 M 94.0,63.80252125361949 M 94.00000000000045,66.80252125361858 M 90.84125718815494,66.3866648732037 M 86.50000000000091,64.58845726812069 M 82.77207793864272,61.727922061359095 M 81.6510369447401,60.2669529941104 M 79.91154273188022,58.00000000000091 M 78.11333512679721,53.658742811844604 M 92.39417145876996,37.40889008453178 M 94.00000000000045,37.19747874638233 M 94.0,40.19747874638142 M 93.1706285940777,40.30666756339906 M 91.0,41.20577136594147 M 89.13603896932182,42.636038969322726 M 87.70577136594102,44.50000000000182 M 86.8066675633986,46.67062859407815 M 86.69747874638142,47.5 M 83.69747874638142,47.5 M 83.90889008453223,45.89417145876996 M 85.10769515458742,43.00000000000091 M 86.26735796316052,41.48869800392731 M 87.01471862576227,40.514718625762725 M 89.50000000000091,38.60769515458742 M 109.98888739433642,52.88228567653914 M 110.3025212536204,50.50000000000091 M 113.30252125361994,50.50000000000091 M 112.88666487320506,53.65874281184642 M 111.08845726812024,58.00000000000091 M 109.34896305526127,60.2669529941104 M 108.22792206135864,61.727922061359095 M 104.50000000000091,64.58845726812069 M 100.15874281184597,66.38666487320552 M 97.00000000000045,66.8025212536204 M 97.00000000000045,63.80252125361949 M 99.38228567653823,63.488887394336416 M 103.00000000000045,61.990381056768456 M 106.10660171779818,59.606601717798185 M 107.04080254605105,58.389127495092 M 108.49038105676709,56.50000000000091 M 113.30252125361994,47.50000000000182 M 110.30252125361903,47.5 M 109.98888739433733,45.11771432346268 M 108.490381056768,41.5 M 107.04080254605151,39.61087250490982 M 106.10660171779864,38.393398282203634 M 103.00000000000091,36.00961894323427 M 99.38228567653823,34.51111260566449 M 97.00000000000091,34.19747874638142 M 97.00000000000045,31.19747874638233 M 100.15874281184597,31.61333512679721 M 104.50000000000136,33.41154273188022 M 108.2279220613591,36.272077938641814 M 109.34896305526127,37.73304700589142 M 111.0884572681216,40.0 M 112.8866648732037,44.341257188156305 M 104.30252125361903,50.50000000000091 M 107.30252125361903,50.50000000000091 M 107.09110991546959,52.10582854123095 M 105.89230484541395,55.0 M 104.73264203684084,56.5113019960736 M 103.98528137423955,57.485281374238184 M 101.50000000000091,59.39230484541349 M 98.60582854123095,60.59110991546913 M 97.00000000000045,60.8025212536204 M 97.00000000000136,57.80252125362131 M 97.82937140592321,57.69333243660185 M 100.00000000000045,56.794228634059436 M 101.86396103067955,55.36396103068 M 103.29422863406035,53.5 M 104.19333243660321,51.329371405924576 M 107.09110991546913,45.89417145876996 M 107.30252125361994,47.50000000000182 M 104.3025212536204,47.50000000000182 M 104.19333243660185,46.67062859407815 M 103.29422863406035,44.50000000000091 M 101.86396103068,42.636038969322726 M 100.0,41.20577136594147 M 97.82937140592321,40.30666756339906 M 97.00000000000045,40.19747874638142 M 97.00000000000045,37.19747874638233 M 98.6058285412305,37.40889008453178 M 101.5,38.60769515458833 M 103.9852813742391,40.514718625762725 M 104.7326420368413,41.48869800392913 M 105.89230484541395,43.00000000000091 M 48.823085463760435,187.00000000000182 M 52.08809824775426,182.74495249725078 M 49.594408408977415,180.25126265847302 M 55.25126265847166,174.5944084089815 M 57.74495249724578,177.08809824775835 M 62.000000000000455,173.82308546376225 M 70.68251437630943,170.22667025359442 M 80.00000000000045,169.0000000000009 M 89.31748562369103,170.22667025359442 M 98.0,173.82308546376225 M 104.25554539023051,178.62313426621313 M 106.51650429449683,176.36217536194636 M 108.63782463805546,178.48349570550636 M 106.37686573379051,180.74445460977313 M 111.17691453623956,187.00000000000182 M 114.77332974640694,195.6825143763117 M 116.0,205.00000000000182 M 114.77332974640649,214.31748562369194 M 111.17691453624047,223.0000000000009 M 106.3768657337896,229.25554539023233 M 108.63782463805592,231.51650429449728 M 106.51650429449546,233.63782463805546 M 104.25554539023051,231.37686573379142 M 98.00000000000045,236.17691453624138 M 89.31748562369148,239.7733297464074 M 80.0,241.0000000000009 M 70.68251437630988,239.7733297464074 M 62.000000000000455,236.17691453624138 M 55.74445460976949,231.37686573379142 M 53.483495705503174,233.63782463805728 M 51.36217536194499,231.51650429449637 M 53.62313426620949,229.2555453902305 M 48.823085463761345,223.00000000000182 M 45.226670253594875,214.31748562369194 M 44.00000000000091,205.00000000000182 M 45.226670253593966,195.6825143763117 "
  />
  <path id="face1-interior"
 style="fill:none;stroke:#FF0000;stroke-width:1;stroke-miterlimit:4;stroke-dasharray:none;stroke-linejoin:round;stroke-linecap:round"
        d="M 150.00000000000068,7133.633320981955 M 150.00000000000023,7123.633320981955 M 147.00000000000068,7123.633320981955 M 147.00000000000023,7113.633320981956 M 150.00000000000023,7113.633320981955 M 150.00000000000136,7103.633320981954 M 139.99999999999886,7103.633320981956 M 139.99999999999932,7100.633320981956 M 129.9999999999991,7100.633320981955 M 129.9999999999991,7103.633320981956 M 119.99999999999955,7103.633320981956 M 119.99999999999955,7100.633320981955 M 109.99999999999955,7100.633320981955 M 109.99999999999886,7103.633320981956 M 99.99999999999977,7103.633320981956 M 100.00000000000023,7100.633320981956 M 90.00000000000023,7100.633320981955 M 90.00000000000023,7103.633320981956 M 80.0,7103.633320981956 M 80.0,7100.633320981955 M 70.00000000000091,7100.633320981956 M 70.00000000000045,7103.633320981954 M 60.000000000000455,7103.633320981956 M 59.99999999999977,7100.633320981955 M 50.0,7100.633320981955 M 50.00000000000023,7103.633320981956 M 40.0,7103.633320981956 M 40.0,7100.633320981956 M 30.000000000000455,7100.633320981956 M 30.00000000000091,7103.633320981954 M 10.000000000000455,7103.633320981956 M 10.000000000001137,7113.633320981956 M 13.000000000000455,7113.633320981955 M 13.000000000000682,7123.633320981955 M 10.000000000001364,7123.633320981957 M 10.0,7133.633320981955 M 25.000000000000227,7133.633320981955 M 25.000000000000227,7136.633320981955 M 35.000000000000455,7136.633320981955 M 35.00000000000091,7133.633320981955 M 45.0,7133.633320981955 M 45.000000000000455,7136.633320981955 M 55.0,7136.633320981955 M 55.00000000000068,7133.633320981955 M 65.00000000000045,7133.633320981956 M 65.00000000000091,7136.633320981955 M 75.00000000000068,7136.633320981955 M 74.99999999999977,7133.633320981955 M 85.00000000000023,7133.633320981955 M 84.99999999999955,7136.633320981955 M 94.99999999999977,7136.633320981955 M 94.99999999999977,7133.633320981955 M 105.00000000000045,7133.633320981955 M 104.99999999999909,7136.633320981954 M 115.0,7136.633320981955 M 115.00000000000023,7133.633320981956 M 124.99999999999909,7133.633320981955 M 124.99999999999841,7136.633320981955 M 134.9999999999991,7136.633320981955 M 134.99999999999864,7133.633320981955 M 137.00000000000182,7126.133320981956 M 23.000000000001137,7126.133320981955 M 23.000000000001364,7123.133320981956 M 137.00000000000068,7123.133320981956 M 23.000000000001137,7117.133320981957 M 137.00000000000045,7117.133320981956 M 137.00000000000045,7120.133320981955 M 23.000000000000682,7120.133320981956 M 137.00000000000114,7114.133320981956 M 23.0,7114.133320981956 M 23.000000000001364,7111.133320981957 M 137.00000000000114,7111.133320981955 "
  />
  <path id="face0-interior"
 style="fill:none;stroke:#00FF00;stroke-width:1;stroke-miterlimit:4;stroke-dasharray:none;stroke-linejoin:round;stroke-linecap:round"
        d="M 150.00000000000136,95.00000000000364 M 150.00000000000136,25.000000000003638 M 147.00000000000136,25.000000000005457 M 147.0000000000009,15.000000000004547 M 150.0,15.000000000002728 M 150.00000000000136,13.000000000001819 M 150.0000000000009,10.000000000001819 M 134.99999999999864,10.000000000001819 M 135.0,13.000000000001819 M 124.99999999999909,13.000000000001819 M 124.99999999999909,10.000000000001819 M 114.99999999999955,10.000000000001819 M 114.99999999999955,13.000000000001819 M 104.99999999999909,13.000000000001819 M 104.99999999999909,10.000000000001819 M 94.99999999999955,10.000000000001819 M 95.0,13.000000000001819 M 84.99999999999955,13.000000000001819 M 84.99999999999909,10.000000000001819 M 75.0,10.000000000001819 M 75.00000000000045,13.000000000001819 M 64.99999999999909,13.000000000001819 M 64.99999999999909,10.0 M 55.000000000000455,10.000000000001819 M 54.999999999999545,13.00000000000091 M 44.999999999999545,13.000000000001819 M 44.999999999999545,10.000000000001819 M 35.000000000000455,10.000000000001819 M 35.000000000000455,13.000000000001819 M 25.0,13.000000000001819 M 25.000000000000455,10.000000000001819 M 10.00000000000091,10.000000000001819 M 10.000000000001364,15.000000000004547 M 13.000000000000455,15.000000000004547 M 13.000000000000455,25.000000000003638 M 10.000000000000455,25.000000000003638 M 10.00000000000091,35.00000000000455 M 13.0,35.00000000000273 M 13.0,45.00000000000546 M 10.00000000000091,45.00000000000364 M 10.0,55.00000000000273 M 13.0,55.00000000000455 M 13.0,65.00000000000364 M 10.0,65.00000000000364 M 10.0,75.00000000000364 M 13.000000000000455,75.00000000000364 M 13.000000000000455,85.00000000000273 M 10.000000000000455,85.00000000000273 M 10.000000000000455,95.00000000000273 M 13.0,95.00000000000364 M 13.000000000000455,105.00000000000455 M 10.0,105.00000000000273 M 10.00000000000091,115.00000000000364 M 13.000000000001364,115.00000000000364 M 13.000000000000455,125.00000000000455 M 10.000000000000455,125.00000000000273 M 10.000000000000455,135.00000000000182 M 13.00000000000091,135.00000000000364 M 13.000000000001364,145.00000000000273 M 10.00000000000091,145.00000000000364 M 10.0,155.00000000000273 M 13.00000000000091,155.00000000000273 M 13.0,165.00000000000182 M 10.0,165.00000000000182 M 10.0,175.00000000000273 M 13.000000000000455,175.00000000000273 M 13.000000000001364,185.00000000000364 M 10.000000000000455,185.00000000000182 M 10.000000000000455,195.00000000000273 M 13.0,195.00000000000273 M 13.00000000000091,205.00000000000364 M 10.000000000000455,205.00000000000182 M 10.0,215.00000000000273 M 13.000000000000455,215.00000000000273 M 13.0,225.00000000000273 M 10.0,225.00000000000182 M 10.000000000000455,235.00000000000182 M 13.000000000000455,235.00000000000182 M 13.00000000000091,245.00000000000182 M 10.00000000000091,245.00000000000182 M 10.0,255.0000000000009 M 13.000000000000455,255.00000000000182 M 13.0,265.0000000000009 M 10.000000000000455,265.0000000000009 M 10.00000000000091,275.0000000000018 M 13.000000000000455,275.0000000000018 M 13.000000000000455,285.00000000000273 M 10.00000000000091,285.0000000000009 M 10.000000000000455,295.0000000000018 M 13.0,295.0 M 13.00000000000091,305.0000000000009 M 10.000000000000455,305.0000000000009 M 10.000000000000455,315.0000000000009 M 13.0,315.0 M 13.000000000000455,325.0000000000009 M 10.000000000000455,325.0000000000018 M 10.00000000000091,330.0000000000009 M 25.0,330.00000000000273 M 25.00000000000091,327.0000000000018 M 35.000000000000455,327.0000000000018 M 35.000000000000455,330.0000000000009 M 45.00000000000091,330.00000000000273 M 45.000000000000455,327.0000000000018 M 55.00000000000091,327.0000000000018 M 55.0,330.0000000000009 M 65.0,330.00000000000273 M 64.99999999999909,327.0000000000018 M 74.99999999999955,327.0000000000018 M 75.0,330.0000000000009 M 84.99999999999955,330.0000000000009 M 84.99999999999955,327.0000000000018 M 94.99999999999909,327.0000000000018 M 94.99999999999955,330.0000000000009 M 104.99999999999909,330.0000000000009 M 104.99999999999909,327.0000000000018 M 114.99999999999955,327.0000000000018 M 114.99999999999864,330.0000000000009 M 124.99999999999955,330.00000000000273 M 124.99999999999909,327.0000000000018 M 134.9999999999991,327.0000000000018 M 135.0,330.0000000000009 M 150.0000000000009,330.00000000000273 M 150.0000000000009,327.0000000000018 M 150.0,325.0000000000009 M 147.00000000000136,325.0000000000009 M 147.00000000000136,315.0 M 150.00000000000136,315.0000000000009 M 150.00000000000136,305.0000000000009 M 147.0000000000009,305.0000000000009 M 147.00000000000045,295.0000000000018 M 150.00000000000045,295.0 M 150.00000000000136,285.0000000000009 M 147.00000000000136,285.00000000000273 M 147.00000000000136,275.0000000000018 M 150.00000000000136,275.0000000000018 M 150.00000000000136,265.0000000000009 M 147.0,265.0000000000009 M 147.00000000000045,255.0000000000009 M 150.00000000000045,255.00000000000182 M 150.0000000000009,245.00000000000182 M 147.00000000000136,245.00000000000182 M 147.0000000000009,235.00000000000182 M 150.0000000000009,235.00000000000182 M 150.00000000000136,225.00000000000273 M 147.00000000000136,225.00000000000182 M 147.00000000000136,215.00000000000273 M 150.00000000000136,215.00000000000273 M 150.00000000000045,205.00000000000182 M 147.0000000000009,205.00000000000182 M 147.00000000000136,195.00000000000273 M 150.00000000000136,195.00000000000273 M 150.0000000000009,185.00000000000182 M 147.0000000000009,185.00000000000182 M 147.0000000000009,175.00000000000273 M 150.00000000000045,175.00000000000273 M 150.0,165.00000000000182 M 147.00000000000045,165.00000000000182 M 147.00000000000136,155.00000000000182 M 150.00000000000045,155.00000000000182 M 150.00000000000136,145.00000000000364 M 147.00000000000136,145.00000000000273 M 147.0000000000009,135.00000000000364 M 150.0000000000009,135.00000000000364 M 150.0000000000009,125.00000000000273 M 147.00000000000136,125.00000000000273 M 147.0000000000009,115.00000000000182 M 150.0000000000009,115.00000000000364 M 150.00000000000136,105.00000000000455 M 147.00000000000045,105.00000000000273 M 147.00000000000136,95.00000000000364 M 83.90889008453178,52.10582854123095 M 83.69747874638142,50.50000000000091 M 86.69747874638097,50.50000000000091 M 86.8066675633986,51.32937140592276 M 87.70577136594056,53.50000000000182 M 89.13603896932136,55.36396103068 M 91.00000000000091,56.794228634061255 M 93.17062859407815,57.69333243660367 M 94.00000000000091,57.80252125361949 M 94.00000000000045,60.8025212536204 M 92.39417145876996,60.59110991546913 M 89.5,59.39230484541349 M 87.01471862576136,57.485281374238184 M 86.26735796316098,56.5113019960736 M 85.10769515458742,55.00000000000091 M 119.30252125361858,47.50000000000182 M 116.30252125361903,47.5 M 115.78444235207144,43.56480005284811 M 113.68653347947384,38.49999999999909 M 111.65712356447102,35.85522150687302 M 110.34924240491864,34.15075759508363 M 106.00000000000091,30.813466520527072 M 100.93519994715416,28.715557647930837 M 97.00000000000045,28.19747874638324 M 97.0,25.19747874638233 M 101.71165708246053,25.817780169063553 M 107.5,28.215390309174836 M 112.47056274847728,32.02943725152454 M 113.96528407368032,33.97739600785644 M 116.28460969082653,37.00000000000091 M 118.68221983093781,42.78834291754083 M 115.78444235207098,54.435199947154615 M 116.30252125361949,50.49999999999909 M 119.30252125361949,50.50000000000091 M 118.68221983093827,55.21165708246099 M 116.28460969082653,61.0 M 113.96528407367941,64.02260399214629 M 112.47056274847773,65.97056274847819 M 107.50000000000091,69.78460969082789 M 101.71165708246144,72.18221983093736 M 97.00000000000091,72.80252125361858 M 97.00000000000091,69.80252125361949 M 100.93519994715416,69.28444235207189 M 106.00000000000045,67.18653347947384 M 110.34924240491819,63.849242404918186 M 111.65712356447057,62.1447784931288 M 113.68653347947338,59.5 M 94.00000000000091,25.19747874638324 M 94.00000000000091,28.19747874638142 M 90.06480005284811,28.715557647929927 M 85.00000000000091,30.813466520527072 M 80.65075759508272,34.15075759508272 M 79.34287643553034,35.85522150687302 M 77.31346652052616,38.50000000000091 M 75.21555764792993,43.56480005284811 M 74.69747874638188,47.5 M 71.69747874638188,47.5 M 72.3177801690631,42.78834291754083 M 74.71539030917484,37.00000000000091 M 77.0347159263215,33.97739600785462 M 78.52943725152363,32.02943725152454 M 83.50000000000045,28.215390309174836 M 89.28834291753992,25.817780169065372 M 94.0,31.19747874638233 M 94.0,34.19747874638142 M 91.61771432346222,34.51111260566449 M 88.00000000000045,36.00961894323427 M 84.89339828220272,38.393398282203634 M 83.95919745395031,39.61087250490982 M 82.50961894323336,41.50000000000182 M 81.01111260566495,45.11771432346268 M 80.69747874638142,47.50000000000182 M 77.69747874638097,47.5 M 78.11333512679766,44.341257188156305 M 79.91154273188067,40.0 M 81.6510369447401,37.73304700589142 M 82.77207793864227,36.272077938641814 M 86.50000000000091,33.41154273188022 M 90.84125718815449,31.61333512679721 M 90.0648000528472,69.28444235207189 M 94.00000000000091,69.80252125362131 M 94.00000000000045,72.80252125361858 M 89.28834291753992,72.18221983093736 M 83.50000000000091,69.78460969082698 M 78.52943725152409,65.97056274847819 M 77.03471592632104,64.0226039921481 M 74.71539030917438,61.00000000000182 M 72.31778016906264,55.21165708246099 M 71.69747874638233,50.49999999999909 M 74.69747874638142,50.50000000000091 M 75.21555764793038,54.435199947154615 M 77.31346652052662,59.5 M 79.34287643553034,62.1447784931288 M 80.65075759508227,63.849242404918186 M 85.00000000000045,67.18653347947475 M 77.69747874638097,50.49999999999909 M 80.69747874638188,50.50000000000091 M 81.01111260566495,52.88228567653914 M 82.50961894323291,56.50000000000091 M 83.95919745395076,58.389127495092 M 84.89339828220182,59.606601717798185 M 88.0,61.990381056768456 M 91.61771432346359,63.488887394338235 M 94.0,63.80252125361949 M 94.00000000000045,66.80252125361858 M 90.84125718815494,66.3866648732037 M 86.50000000000091,64.58845726812069 M 82.77207793864272,61.727922061359095 M 81.6510369447401,60.2669529941104 M 79.91154273188022,58.00000000000091 M 78.11333512679721,53.658742811844604 M 92.39417145876996,37.40889008453178 M 94.00000000000045,37.19747874638233 M 94.0,40.19747874638142 M 93.1706285940777,40.30666756339906 M 91.0,41.20577136594147 M 89.13603896932182,42.636038969322726 M 87.70577136594102,44.50000000000182 M 86.8066675633986,46.67062859407815 M 86.69747874638142,47.5 M 83.69747874638142,47.5 M 83.90889008453223,45.89417145876996 M 85.10769515458742,43.00000000000091 M 86.26735796316052,41.48869800392731 M 87.01471862576227,40.514718625762725 M 89.50000000000091,38.60769515458742 M 109.98888739433642,52.88228567653914 M 110.3025212536204,50.50000000000091 M 113.30252125361994,50.50000000000091 M 112.88666487320506,53.65874281184642 M 111.08845726812024,58.00000000000091 M 109.34896305526127,60.2669529941104 M 108.22792206135864,61.727922061359095 M 104.50000000000091,64.58845726812069 M 100.15874281184597,66.38666487320552 M 97.00000000000045,66.8025212536204 M 97.00000000000045,63.80252125361949 M 99.38228567653823,63.488887394336416 M 103.00000000000045,61.990381056768456 M 106.10660171779818,59.606601717798185 M 107.04080254605105,58.389127495092 M 108.49038105676709,56.50000000000091 M 113.30252125361994,47.50000000000182 M 110.30252125361903,47.5 M 109.98888739433733,45.11771432346268 M 108.490381056768,41.5 M 107.04080254605151,39.61087250490982 M 106.10660171779864,38.393398282203634 M 103.00000000000091,36.00961894323427 M 99.38228567653823,34.51111260566449 M 97.00000000000091,34.19747874638142 M 97.00000000000045,31.19747874638233 M 100.15874281184597,31.61333512679721 M 104.50000000000136,33.41154273188022 M 108.2279220613591,36.272077938641814 M 109.34896305526127,37.73304700589142 M 111.0884572681216,40.0 M 112.8866648732037,44.341257188156305 M 104.30252125361903,50.50000000000091 M 107.30252125361903,50.50000000000091 M 107.09110991546959,52.10582854123095 M 105.89230484541395,55.0 M 104.73264203684084,56.5113019960736 M 103.98528137423955,57.485281374238184 M 101.50000000000091,59.39230484541349 M 98.60582854123095,60.59110991546913 M 97.00000000000045,60.8025212536204 M 97.00000000000136,57.80252125362131 M 97.82937140592321,57.69333243660185 M 100.00000000000045,56.794228634059436 M 101.86396103067955,55.36396103068 M 103.29422863406035,53.5 M 104.19333243660321,51.329371405924576 M 107.09110991546913,45.89417145876996 M 107.30252125361994,47.50000000000182 M 104.3025212536204,47.50000000000182 M 104.19333243660185,46.67062859407815 M 103.29422863406035,44.50000000000091 M 101.86396103068,42.636038969322726 M 100.0,41.20577136594147 M 97.82937140592321,40.30666756339906 M 97.00000000000045,40.19747874638142 M 97.00000000000045,37.19747874638233 M 98.6058285412305,37.40889008453178 M 101.5,38.60769515458833 M 103.9852813742391,40.514718625762725 M 104.7326420368413,41.48869800392913 M 105.89230484541395,43.00000000000091 M 48.823085463760435,187.00000000000182 M 52.08809824775426,182.74495249725078 M 49.594408408977415,180.25126265847302 M 55.25126265847166,174.5944084089815 M 57.74495249724578,177.08809824775835 M 62.000000000000455,173.82308546376225 M 70.68251437630943,170.22667025359442 M 80.00000000000045,169.0000000000009 M 89.31748562369103,170.22667025359442 M 98.0,173.82308546376225 M 104.25554539023051,178.62313426621313 M 106.51650429449683,176.36217536194636 M 108.63782463805546,178.48349570550636 M 106.37686573379051,180.74445460977313 M 111.17691453623956,187.00000000000182 M 114.77332974640694,195.6825143763117 M 116.0,205.00000000000182 M 114.77332974640649,214.31748562369194 M 111.17691453624047,223.0000000000009 M 106.3768657337896,229.25554539023233 M 108.63782463805592,231.51650429449728 M 106.51650429449546,233.63782463805546 M 104.25554539023051,231.37686573379142 M 98.00000000000045,236.17691453624138 M 89.31748562369148,239.7733297464074 M 80.0,241.0000000000009 M 70.68251437630988,239.7733297464074 M 62.000000000000455,236.17691453624138 M 55.74445460976949,231.37686573379142 M 53.483495705503174,233.63782463805728 M 51.36217536194499,231.51650429449637 M 53.62313426620949,229.2555453902305 M 48.823085463761345,223.00000000000182 M 45.226670253594875,214.31748562369194 M 44.00000000000091,205.00000000000182 M 45.226670253593966,195.6825143763117 "
  />
  <path id="face1-interior"
 style="fill:none;stroke:#00FF00;stroke-width:1;stroke-miterlimit:4;stroke-dasharray:none;stroke-linejoin:round;stroke-linecap:round"
        d="M 150.00000000000068,7133.633320981955 M 150.00000000000023,7123.633320981955 M 147.00000000000068,7123.633320981955 M 147.00000000000023,7113.633320981956 M 150.00000000000023,7113.633320981955 M 150.00000000000136,7103.633320981954 M 139.99999999999886,7103.633320981956 M 139.99999999999932,7100.633320981956 M 129.9999999999991,7100.633320981955 M 129.9999999999991,7103.633320981956 M 119.99999999999955,7103.633320981956 M 119.99999999999955,7100.633320981955 M 109.99999999999955,7100.633320981955 M 109.99999999999886,7103.633320981956 M 99.99999999999977,7103.633320981956 M 100.00000000000023,7100.633320981956 M 90.00000000000023,7100.633320981955 M 90.00000000000023,7103.633320981956 M 80.0,7103.633320981956 M 80.0,7100.633320981955 M 70.00000000000091,7100.633320981956 M 70.00000000000045,7103.633320981954 M 60.000000000000455,7103.633320981956 M 59.99999999999977,7100.633320981955 M 50.0,7100.633320981955 M 50.00000000000023,7103.633320981956 M 40.0,7103.633320981956 M 40.0,7100.633320981956 M 30.000000000000455,7100.633320981956 M 30.00000000000091,7103.633320981954 M 10.000000000000455,7103.633320981956 M 10.000000000001137,7113.633320981956 M 13.000000000000455,7113.633320981955 M 13.000000000000682,7123.633320981955 M 10.000000000001364,7123.633320981957 M 10.0,7133.633320981955 M 25.000000000000227,7133.633320981955 M 25.000000000000227,7136.633320981955 M 35.000000000000455,7136.633320981955 M 35.00000000000091,7133.633320981955 M 45.0,7133.633320981955 M 45.000000000000455,7136.633320981955 M 55.0,7136.633320981955 M 55.00000000000068,7133.633320981955 M 65.00000000000045,7133.633320981956 M 65.00000000000091,7136.633320981955 M 75.00000000000068,7136.633320981955 M 74.99999999999977,7133.633320981955 M 85.00000000000023,7133.633320981955 M 84.99999999999955,7136.633320981955 M 94.99999999999977,7136.633320981955 M 94.99999999999977,7133.633320981955 M 105.00000000000045,7133.633320981955 M 104.99999999999909,7136.633320981954 M 115.0,7136.633320981955 M 115.00000000000023,7133.633320981956 M 124.99999999999909,7133.633320981955 M 124.99999999999841,7136.633320981955 M 134.9999999999991,7136.633320981955 M 134.99999999999864,7133.633320981955 M 137.00000000000182,7126.133320981956 M 23.000000000001137,7126.133320981955 M 23.000000000001364,7123.133320981956 M 137.00000000000068,7123.133320981956 M 23.000000000001137,7117.133320981957 M 137.00000000000045,7117.133320981956 M 137.00000000000045,7120.133320981955 M 23.000000000000682,7120.133320981956 M 137.00000000000114,7114.133320981956 M 23.0,7114.133320981956 M 23.000000000001364,7111.133320981957 M 137.00000000000114,7111.133320981955 "
  />
</svg>
