999
Inkscape export via "Better DXF Output" (bob@bobcookdev.com)
  0
SECTION
  2
HEADER
  9
$ACADVER
  1
AC1014
  9
$HANDSEED
  5
FFFF
  0
ENDSEC
  0
SECTION
  2
TABLES
  0
TABLE
  2
VPORT
  5
8
330
0
100
AcDbSymbolTable
 70
     4
  0
VPORT
  5
2E
330
8
100
AcDbSymbolTableRecord
100
AcDbViewportTableRecord
  2
*ACTIVE
 70
     0
 10
0.0
 20
0.0
 11
1.0
 21
1.0
 12
4.25
 22
5.5
 13
0.0
 23
0.0
 14
10.0
 24
10.0
 15
10.0
 25
10.0
 16
0.0
 26
0.0
 36
1.0
 17
0.0
 27
0.0
 37
0.0
 40
11
 41
1.24
 42
50.0
 43
0.0
 44
0.0
 50
0.0
 51
0.0
 71
     0
 72
   100
 73
     1
 74
     3
 75
     0
 76
     0
 77
     0
 78
     0
  0
ENDTAB
  0
TABLE
  2
LTYPE
  5
5
330
0
100
AcDbSymbolTable
 70
     1
  0
LTYPE
  5
14
330
5
100
AcDbSymbolTableRecord
100
AcDbLinetypeTableRecord
  2
BYBLOCK
 70
     0
  3

 72
    65
 73
     0
 40
0.0
  0
LTYPE
  5
15
330
5
100
AcDbSymbolTableRecord
100
AcDbLinetypeTableRecord
  2
BYLAYER
 70
     0
  3

 72
    65
 73
     0
 40
0.0
  0
LTYPE
  5
16
330
5
100
AcDbSymbolTableRecord
100
AcDbLinetypeTableRecord
  2
CONTINUOUS
 70
     0
  3
Solid line
 72
    65
 73
     0
 40
0.0
  0
ENDTAB
  0
TABLE
  2
LAYER
  5
2
330
0
100
AcDbSymbolTable
 70
1
  0
LAYER
  5
10
330
2
100
AcDbSymbolTableRecord
100
AcDbLayerTableRecord
  2
0
 70
     0
 62
     7
  6
CONTINUOUS
  0
ENDTAB
  0
TABLE
  2
STYLE
  5
3
330
0
100
AcDbSymbolTable
 70
     1
  0
STYLE
  5
11
330
3
100
AcDbSymbolTableRecord
100
AcDbTextStyleTableRecord
  2
STANDARD
 70
     0
 40
0.0
 41
1.0
 50
0.0
 71
     0
 42
2.5
  3
txt
  4

  0
ENDTAB
  0
TABLE
  2
VIEW
  5
6
330
0
100
AcDbSymbolTable
 70
     0
  0
ENDTAB
  0
TABLE
  2
UCS
  5
7
330
0
100
AcDbSymbolTable
 70
     0
  0
ENDTAB
  0
TABLE
  2
APPID
  5
9
330
0
100
AcDbSymbolTable
 70
     2
  0
APPID
  5
12
330
9
100
AcDbSymbolTableRecord
100
AcDbRegAppTableRecord
  2
ACAD
 70
     0
  0
ENDTAB
  0
TABLE
  2
DIMSTYLE
  5
A
330
0
100
AcDbSymbolTable
 70
     1
  0
DIMSTYLE
105
27
330
A
100
AcDbSymbolTableRecord
100
AcDbDimStyleTableRecord
  2
ISO-25
 70
     0
  3

  4

  5

  6

  7

 40
1.0
 41
2.5
 42
0.625
 43
3.75
 44
1.25
 45
0.0
 46
0.0
 47
0.0
 48
0.0
140
2.5
141
2.5
142
0.0
143
0.03937007874016
144
1.0
145
0.0
146
1.0
147
0.625
 71
     0
 72
     0
 73
     0
 74
     0
 75
     0
 76
     0
 77
     1
 78
     8
170
     0
171
     3
172
     1
173
     0
174
     0
175
     0
176
     0
177
     0
178
     0
270
     2
271
     2
272
     2
273
     2
274
     3
340
11
275
     0
280
     0
281
     0
282
     0
283
     0
284
     8
285
     0
286
     0
287
     3
288
     0
  0
ENDTAB
  0
TABLE
  2
BLOCK_RECORD
  5
1
330
0
100
AcDbSymbolTable
 70
     1
  0
BLOCK_RECORD
  5
1F
330
1
100
AcDbSymbolTableRecord
100
AcDbBlockTableRecord
  2
*MODEL_SPACE
  0
BLOCK_RECORD
  5
1B
330
1
100
AcDbSymbolTableRecord
100
AcDbBlockTableRecord
  2
*PAPER_SPACE
  0
ENDTAB
  0
ENDSEC
  0
SECTION
  2
BLOCKS
  0
BLOCK
  5
20
330
1F
100
AcDbEntity
  8
0
100
AcDbBlockBegin
  2
*MODEL_SPACE
 70
     0
 10
0.0
 20
0.0
 30
0.0
  3
*MODEL_SPACE
  1

  0
ENDBLK
  5
21
330
1F
100
AcDbEntity
  8
0
100
AcDbBlockEnd
  0
BLOCK
  5
1C
330
1B
100
AcDbEntity
 67
     1
  8
0
100
AcDbBlockBegin
  2
*PAPER_SPACE
  1

  0
ENDBLK
  5
1D
330
1B
100
AcDbEntity
 67
     1
  8
0
100
AcDbBlockEnd
  0
ENDSEC
  0
SECTION
  2
ENTITIES
0
LINE
8
Calque 1
62
4
5
100
100
AcDbEntity
100
AcDbLine
10
248.364700
20
198.311740
30
0.0
11
248.364700
21
208.311740
31
0.0
0
LINE
8
Calque 1
62
4
5
101
100
AcDbEntity
100
AcDbLine
10
248.364700
20
208.311740
30
0.0
11
245.364677
21
208.311740
31
0.0
0
LINE
8
Calque 1
62
4
5
102
100
AcDbEntity
100
AcDbLine
10
245.364677
20
208.311740
30
0.0
11
245.364677
21
218.311740
31
0.0
0
LINE
8
Calque 1
62
4
5
103
100
AcDbEntity
100
AcDbLine
10
245.364677
20
218.311740
30
0.0
11
248.364700
21
218.311740
31
0.0
0
LINE
8
Calque 1
62
4
5
104
100
AcDbEntity
100
AcDbLine
10
248.364700
20
218.311740
30
0.0
11
248.364700
21
228.311740
31
0.0
0
LINE
8
Calque 1
62
4
5
105
100
AcDbEntity
100
AcDbLine
10
248.364700
20
228.311740
30
0.0
11
238.364691
21
228.311740
31
0.0
0
LINE
8
Calque 1
62
4
5
106
100
AcDbEntity
100
AcDbLine
10
238.364691
20
228.311740
30
0.0
11
238.364691
21
231.311739
31
0.0
0
LINE
8
Calque 1
62
4
5
107
100
AcDbEntity
100
AcDbLine
10
238.364691
20
231.311739
30
0.0
11
228.364683
21
231.311739
31
0.0
0
LINE
8
Calque 1
62
4
5
108
100
AcDbEntity
100
AcDbLine
10
228.364683
20
231.311739
30
0.0
11
228.364683
21
228.311740
31
0.0
0
LINE
8
Calque 1
62
4
5
109
100
AcDbEntity
100
AcDbLine
10
228.364683
20
228.311740
30
0.0
11
218.364675
21
228.311740
31
0.0
0
LINE
8
Calque 1
62
4
5
10a
100
AcDbEntity
100
AcDbLine
10
218.364675
20
228.311740
30
0.0
11
218.364675
21
231.311739
31
0.0
0
LINE
8
Calque 1
62
4
5
10b
100
AcDbEntity
100
AcDbLine
10
218.364675
20
231.311739
30
0.0
11
208.364695
21
231.311739
31
0.0
0
LINE
8
Calque 1
62
4
5
10c
100
AcDbEntity
100
AcDbLine
10
208.364695
20
231.311739
30
0.0
11
208.364695
21
228.311740
31
0.0
0
LINE
8
Calque 1
62
4
5
10d
100
AcDbEntity
100
AcDbLine
10
208.364695
20
228.311740
30
0.0
11
198.364681
21
228.311740
31
0.0
0
LINE
8
Calque 1
62
4
5
10e
100
AcDbEntity
100
AcDbLine
10
198.364681
20
228.311740
30
0.0
11
198.364681
21
231.311739
31
0.0
0
LINE
8
Calque 1
62
4
5
10f
100
AcDbEntity
100
AcDbLine
10
198.364681
20
231.311739
30
0.0
11
188.364681
21
231.311739
31
0.0
0
LINE
8
Calque 1
62
4
5
110
100
AcDbEntity
100
AcDbLine
10
188.364681
20
231.311739
30
0.0
11
188.364681
21
228.311740
31
0.0
0
LINE
8
Calque 1
62
4
5
111
100
AcDbEntity
100
AcDbLine
10
188.364681
20
228.311740
30
0.0
11
178.364682
21
228.311740
31
0.0
0
LINE
8
Calque 1
62
4
5
112
100
AcDbEntity
100
AcDbLine
10
178.364682
20
228.311740
30
0.0
11
178.364682
21
231.311739
31
0.0
0
LINE
8
Calque 1
62
4
5
113
100
AcDbEntity
100
AcDbLine
10
178.364682
20
231.311739
30
0.0
11
168.364690
21
231.311739
31
0.0
0
LINE
8
Calque 1
62
4
5
114
100
AcDbEntity
100
AcDbLine
10
168.364690
20
231.311739
30
0.0
11
168.364690
21
228.311740
31
0.0
0
LINE
8
Calque 1
62
4
5
115
100
AcDbEntity
100
AcDbLine
10
168.364690
20
228.311740
30
0.0
11
158.364690
21
228.311740
31
0.0
0
LINE
8
Calque 1
62
4
5
116
100
AcDbEntity
100
AcDbLine
10
158.364690
20
228.311740
30
0.0
11
158.364690
21
231.311739
31
0.0
0
LINE
8
Calque 1
62
4
5
117
100
AcDbEntity
100
AcDbLine
10
158.364690
20
231.311739
30
0.0
11
148.364691
21
231.311739
31
0.0
0
LINE
8
Calque 1
62
4
5
118
100
AcDbEntity
100
AcDbLine
10
148.364691
20
231.311739
30
0.0
11
148.364691
21
228.311740
31
0.0
0
LINE
8
Calque 1
62
4
5
119
100
AcDbEntity
100
AcDbLine
10
148.364691
20
228.311740
30
0.0
11
138.364691
21
228.311740
31
0.0
0
LINE
8
Calque 1
62
4
5
11a
100
AcDbEntity
100
AcDbLine
10
138.364691
20
228.311740
30
0.0
11
138.364691
21
231.311739
31
0.0
0
LINE
8
Calque 1
62
4
5
11b
100
AcDbEntity
100
AcDbLine
10
138.364691
20
231.311739
30
0.0
11
128.364691
21
231.311739
31
0.0
0
LINE
8
Calque 1
62
4
5
11c
100
AcDbEntity
100
AcDbLine
10
128.364691
20
231.311739
30
0.0
11
128.364691
21
228.311740
31
0.0
0
LINE
8
Calque 1
62
4
5
11d
100
AcDbEntity
100
AcDbLine
10
128.364691
20
228.311740
30
0.0
11
108.364680
21
228.311740
31
0.0
0
LINE
8
Calque 1
62
4
5
11e
100
AcDbEntity
100
AcDbLine
10
108.364680
20
228.311740
30
0.0
11
108.364680
21
218.311740
31
0.0
0
LINE
8
Calque 1
62
4
5
11f
100
AcDbEntity
100
AcDbLine
10
108.364680
20
218.311740
30
0.0
11
111.364691
21
218.311740
31
0.0
0
LINE
8
Calque 1
62
4
5
120
100
AcDbEntity
100
AcDbLine
10
111.364691
20
218.311740
30
0.0
11
111.364691
21
208.311740
31
0.0
0
LINE
8
Calque 1
62
4
5
121
100
AcDbEntity
100
AcDbLine
10
111.364691
20
208.311740
30
0.0
11
108.364680
21
208.311740
31
0.0
0
LINE
8
Calque 1
62
4
5
122
100
AcDbEntity
100
AcDbLine
10
108.364680
20
208.311740
30
0.0
11
108.364680
21
198.311740
31
0.0
0
LINE
8
Calque 1
62
4
5
123
100
AcDbEntity
100
AcDbLine
10
108.364680
20
198.311740
30
0.0
11
123.364681
21
198.311740
31
0.0
0
LINE
8
Calque 1
62
4
5
124
100
AcDbEntity
100
AcDbLine
10
123.364681
20
198.311740
30
0.0
11
123.364681
21
195.311741
31
0.0
0
LINE
8
Calque 1
62
4
5
125
100
AcDbEntity
100
AcDbLine
10
123.364681
20
195.311741
30
0.0
11
133.364681
21
195.311741
31
0.0
0
LINE
8
Calque 1
62
4
5
126
100
AcDbEntity
100
AcDbLine
10
133.364681
20
195.311741
30
0.0
11
133.364681
21
198.311740
31
0.0
0
LINE
8
Calque 1
62
4
5
127
100
AcDbEntity
100
AcDbLine
10
133.364681
20
198.311740
30
0.0
11
143.364681
21
198.311740
31
0.0
0
LINE
8
Calque 1
62
4
5
128
100
AcDbEntity
100
AcDbLine
10
143.364681
20
198.311740
30
0.0
11
143.364681
21
195.311741
31
0.0
0
LINE
8
Calque 1
62
4
5
129
100
AcDbEntity
100
AcDbLine
10
143.364681
20
195.311741
30
0.0
11
153.364681
21
195.311741
31
0.0
0
LINE
8
Calque 1
62
4
5
12a
100
AcDbEntity
100
AcDbLine
10
153.364681
20
195.311741
30
0.0
11
153.364681
21
198.311740
31
0.0
0
LINE
8
Calque 1
62
4
5
12b
100
AcDbEntity
100
AcDbLine
10
153.364681
20
198.311740
30
0.0
11
163.364680
21
198.311740
31
0.0
0
LINE
8
Calque 1
62
4
5
12c
100
AcDbEntity
100
AcDbLine
10
163.364680
20
198.311740
30
0.0
11
163.364680
21
195.311741
31
0.0
0
LINE
8
Calque 1
62
4
5
12d
100
AcDbEntity
100
AcDbLine
10
163.364680
20
195.311741
30
0.0
11
173.364692
21
195.311741
31
0.0
0
LINE
8
Calque 1
62
4
5
12e
100
AcDbEntity
100
AcDbLine
10
173.364692
20
195.311741
30
0.0
11
173.364692
21
198.311740
31
0.0
0
LINE
8
Calque 1
62
4
5
12f
100
AcDbEntity
100
AcDbLine
10
173.364692
20
198.311740
30
0.0
11
183.364691
21
198.311740
31
0.0
0
LINE
8
Calque 1
62
4
5
130
100
AcDbEntity
100
AcDbLine
10
183.364691
20
198.311740
30
0.0
11
183.364691
21
195.311741
31
0.0
0
LINE
8
Calque 1
62
4
5
131
100
AcDbEntity
100
AcDbLine
10
183.364691
20
195.311741
30
0.0
11
193.364691
21
195.311741
31
0.0
0
LINE
8
Calque 1
62
4
5
132
100
AcDbEntity
100
AcDbLine
10
193.364691
20
195.311741
30
0.0
11
193.364691
21
198.311740
31
0.0
0
LINE
8
Calque 1
62
4
5
133
100
AcDbEntity
100
AcDbLine
10
193.364691
20
198.311740
30
0.0
11
203.364691
21
198.311740
31
0.0
0
LINE
8
Calque 1
62
4
5
134
100
AcDbEntity
100
AcDbLine
10
203.364691
20
198.311740
30
0.0
11
203.364691
21
195.311741
31
0.0
0
LINE
8
Calque 1
62
4
5
135
100
AcDbEntity
100
AcDbLine
10
203.364691
20
195.311741
30
0.0
11
213.364685
21
195.311741
31
0.0
0
LINE
8
Calque 1
62
4
5
136
100
AcDbEntity
100
AcDbLine
10
213.364685
20
195.311741
30
0.0
11
213.364685
21
198.311740
31
0.0
0
LINE
8
Calque 1
62
4
5
137
100
AcDbEntity
100
AcDbLine
10
213.364685
20
198.311740
30
0.0
11
223.364693
21
198.311740
31
0.0
0
LINE
8
Calque 1
62
4
5
138
100
AcDbEntity
100
AcDbLine
10
223.364693
20
198.311740
30
0.0
11
223.364693
21
195.311741
31
0.0
0
LINE
8
Calque 1
62
4
5
139
100
AcDbEntity
100
AcDbLine
10
223.364693
20
195.311741
30
0.0
11
233.364673
21
195.311741
31
0.0
0
LINE
8
Calque 1
62
4
5
13a
100
AcDbEntity
100
AcDbLine
10
233.364673
20
195.311741
30
0.0
11
233.364673
21
198.311740
31
0.0
0
LINE
8
Calque 1
62
4
5
13b
100
AcDbEntity
100
AcDbLine
10
233.364673
20
198.311740
30
0.0
11
248.364700
21
198.311740
31
0.0
0
LINE
8
Calque 1
62
4
5
13c
100
AcDbEntity
100
AcDbLine
10
235.364697
20
205.811739
30
0.0
11
121.364691
21
205.811739
31
0.0
0
LINE
8
Calque 1
62
4
5
13d
100
AcDbEntity
100
AcDbLine
10
121.364691
20
205.811739
30
0.0
11
121.364691
21
208.811739
31
0.0
0
LINE
8
Calque 1
62
4
5
13e
100
AcDbEntity
100
AcDbLine
10
121.364691
20
208.811739
30
0.0
11
235.364697
21
208.811739
31
0.0
0
LINE
8
Calque 1
62
4
5
13f
100
AcDbEntity
100
AcDbLine
10
235.364697
20
208.811739
30
0.0
11
235.364697
21
205.811739
31
0.0
0
LINE
8
Calque 1
62
4
5
140
100
AcDbEntity
100
AcDbLine
10
121.364691
20
214.811738
30
0.0
11
235.364697
21
214.811738
31
0.0
0
LINE
8
Calque 1
62
4
5
141
100
AcDbEntity
100
AcDbLine
10
235.364697
20
214.811738
30
0.0
11
235.364697
21
211.811739
31
0.0
0
LINE
8
Calque 1
62
4
5
142
100
AcDbEntity
100
AcDbLine
10
235.364697
20
211.811739
30
0.0
11
121.364691
21
211.811739
31
0.0
0
LINE
8
Calque 1
62
4
5
143
100
AcDbEntity
100
AcDbLine
10
121.364691
20
211.811739
30
0.0
11
121.364691
21
214.811738
31
0.0
0
LINE
8
Calque 1
62
4
5
144
100
AcDbEntity
100
AcDbLine
10
235.364697
20
217.811741
30
0.0
11
121.364691
21
217.811741
31
0.0
0
LINE
8
Calque 1
62
4
5
145
100
AcDbEntity
100
AcDbLine
10
121.364691
20
217.811741
30
0.0
11
121.364691
21
220.811740
31
0.0
0
LINE
8
Calque 1
62
4
5
146
100
AcDbEntity
100
AcDbLine
10
121.364691
20
220.811740
30
0.0
11
235.364697
21
220.811740
31
0.0
0
LINE
8
Calque 1
62
4
5
147
100
AcDbEntity
100
AcDbLine
10
235.364697
20
220.811740
30
0.0
11
235.364697
21
217.811741
31
0.0
0
LINE
8
Calque 1
62
4
5
148
100
AcDbEntity
100
AcDbLine
10
161.009900
20
183.926041
30
0.0
11
231.009896
21
183.926041
31
0.0
0
LINE
8
Calque 1
62
4
5
149
100
AcDbEntity
100
AcDbLine
10
231.009896
20
183.926041
30
0.0
11
231.009896
21
180.926041
31
0.0
0
LINE
8
Calque 1
62
4
5
14a
100
AcDbEntity
100
AcDbLine
10
231.009896
20
180.926041
30
0.0
11
241.009904
21
180.926041
31
0.0
0
LINE
8
Calque 1
62
4
5
14b
100
AcDbEntity
100
AcDbLine
10
241.009904
20
180.926041
30
0.0
11
241.009904
21
183.926041
31
0.0
0
LINE
8
Calque 1
62
4
5
14c
100
AcDbEntity
100
AcDbLine
10
241.009904
20
183.926041
30
0.0
11
243.009900
21
183.926041
31
0.0
0
LINE
8
Calque 1
62
4
5
14d
100
AcDbEntity
100
AcDbLine
10
243.009900
20
183.926041
30
0.0
11
246.009894
21
183.926041
31
0.0
0
LINE
8
Calque 1
62
4
5
14e
100
AcDbEntity
100
AcDbLine
10
246.009894
20
183.926041
30
0.0
11
246.009894
21
168.926040
31
0.0
0
LINE
8
Calque 1
62
4
5
14f
100
AcDbEntity
100
AcDbLine
10
246.009894
20
168.926040
30
0.0
11
243.009900
21
168.926040
31
0.0
0
LINE
8
Calque 1
62
4
5
150
100
AcDbEntity
100
AcDbLine
10
243.009900
20
168.926040
30
0.0
11
243.009900
21
158.926040
31
0.0
0
LINE
8
Calque 1
62
4
5
151
100
AcDbEntity
100
AcDbLine
10
243.009900
20
158.926040
30
0.0
11
246.009894
21
158.926040
31
0.0
0
LINE
8
Calque 1
62
4
5
152
100
AcDbEntity
100
AcDbLine
10
246.009894
20
158.926040
30
0.0
11
246.009894
21
148.926041
31
0.0
0
LINE
8
Calque 1
62
4
5
153
100
AcDbEntity
100
AcDbLine
10
246.009894
20
148.926041
30
0.0
11
243.009900
21
148.926041
31
0.0
0
LINE
8
Calque 1
62
4
5
154
100
AcDbEntity
100
AcDbLine
10
243.009900
20
148.926041
30
0.0
11
243.009900
21
138.926041
31
0.0
0
LINE
8
Calque 1
62
4
5
155
100
AcDbEntity
100
AcDbLine
10
243.009900
20
138.926041
30
0.0
11
246.009894
21
138.926041
31
0.0
0
LINE
8
Calque 1
62
4
5
156
100
AcDbEntity
100
AcDbLine
10
246.009894
20
138.926041
30
0.0
11
246.009894
21
128.926041
31
0.0
0
LINE
8
Calque 1
62
4
5
157
100
AcDbEntity
100
AcDbLine
10
246.009894
20
128.926041
30
0.0
11
243.009900
21
128.926041
31
0.0
0
LINE
8
Calque 1
62
4
5
158
100
AcDbEntity
100
AcDbLine
10
243.009900
20
128.926041
30
0.0
11
243.009900
21
118.926041
31
0.0
0
LINE
8
Calque 1
62
4
5
159
100
AcDbEntity
100
AcDbLine
10
243.009900
20
118.926041
30
0.0
11
246.009894
21
118.926041
31
0.0
0
LINE
8
Calque 1
62
4
5
15a
100
AcDbEntity
100
AcDbLine
10
246.009894
20
118.926041
30
0.0
11
246.009894
21
108.926041
31
0.0
0
LINE
8
Calque 1
62
4
5
15b
100
AcDbEntity
100
AcDbLine
10
246.009894
20
108.926041
30
0.0
11
243.009900
21
108.926041
31
0.0
0
LINE
8
Calque 1
62
4
5
15c
100
AcDbEntity
100
AcDbLine
10
243.009900
20
108.926041
30
0.0
11
243.009900
21
98.926042
31
0.0
0
LINE
8
Calque 1
62
4
5
15d
100
AcDbEntity
100
AcDbLine
10
243.009900
20
98.926042
30
0.0
11
246.009894
21
98.926042
31
0.0
0
LINE
8
Calque 1
62
4
5
15e
100
AcDbEntity
100
AcDbLine
10
246.009894
20
98.926042
30
0.0
11
246.009894
21
88.926039
31
0.0
0
LINE
8
Calque 1
62
4
5
15f
100
AcDbEntity
100
AcDbLine
10
246.009894
20
88.926039
30
0.0
11
243.009900
21
88.926039
31
0.0
0
LINE
8
Calque 1
62
4
5
160
100
AcDbEntity
100
AcDbLine
10
243.009900
20
88.926039
30
0.0
11
243.009900
21
78.926039
31
0.0
0
LINE
8
Calque 1
62
4
5
161
100
AcDbEntity
100
AcDbLine
10
243.009900
20
78.926039
30
0.0
11
246.009894
21
78.926039
31
0.0
0
LINE
8
Calque 1
62
4
5
162
100
AcDbEntity
100
AcDbLine
10
246.009894
20
78.926039
30
0.0
11
246.009894
21
68.926040
31
0.0
0
LINE
8
Calque 1
62
4
5
163
100
AcDbEntity
100
AcDbLine
10
246.009894
20
68.926040
30
0.0
11
243.009900
21
68.926040
31
0.0
0
LINE
8
Calque 1
62
4
5
164
100
AcDbEntity
100
AcDbLine
10
243.009900
20
68.926040
30
0.0
11
243.009900
21
58.926040
31
0.0
0
LINE
8
Calque 1
62
4
5
165
100
AcDbEntity
100
AcDbLine
10
243.009900
20
58.926040
30
0.0
11
246.009894
21
58.926040
31
0.0
0
LINE
8
Calque 1
62
4
5
166
100
AcDbEntity
100
AcDbLine
10
246.009894
20
58.926040
30
0.0
11
246.009894
21
43.926042
31
0.0
0
LINE
8
Calque 1
62
4
5
167
100
AcDbEntity
100
AcDbLine
10
246.009894
20
43.926042
30
0.0
11
241.009904
21
43.926042
31
0.0
0
LINE
8
Calque 1
62
4
5
168
100
AcDbEntity
100
AcDbLine
10
241.009904
20
43.926042
30
0.0
11
241.009904
21
46.926041
31
0.0
0
LINE
8
Calque 1
62
4
5
169
100
AcDbEntity
100
AcDbLine
10
241.009904
20
46.926041
30
0.0
11
231.009896
21
46.926041
31
0.0
0
LINE
8
Calque 1
62
4
5
16a
100
AcDbEntity
100
AcDbLine
10
231.009896
20
46.926041
30
0.0
11
231.009896
21
43.926042
31
0.0
0
LINE
8
Calque 1
62
4
5
16b
100
AcDbEntity
100
AcDbLine
10
231.009896
20
43.926042
30
0.0
11
221.009887
21
43.926042
31
0.0
0
LINE
8
Calque 1
62
4
5
16c
100
AcDbEntity
100
AcDbLine
10
221.009887
20
43.926042
30
0.0
11
221.009887
21
46.926041
31
0.0
0
LINE
8
Calque 1
62
4
5
16d
100
AcDbEntity
100
AcDbLine
10
221.009887
20
46.926041
30
0.0
11
211.009907
21
46.926041
31
0.0
0
LINE
8
Calque 1
62
4
5
16e
100
AcDbEntity
100
AcDbLine
10
211.009907
20
46.926041
30
0.0
11
211.009907
21
43.926042
31
0.0
0
LINE
8
Calque 1
62
4
5
16f
100
AcDbEntity
100
AcDbLine
10
211.009907
20
43.926042
30
0.0
11
201.009902
21
43.926042
31
0.0
0
LINE
8
Calque 1
62
4
5
170
100
AcDbEntity
100
AcDbLine
10
201.009902
20
43.926042
30
0.0
11
201.009902
21
46.926041
31
0.0
0
LINE
8
Calque 1
62
4
5
171
100
AcDbEntity
100
AcDbLine
10
201.009902
20
46.926041
30
0.0
11
191.009902
21
46.926041
31
0.0
0
LINE
8
Calque 1
62
4
5
172
100
AcDbEntity
100
AcDbLine
10
191.009902
20
46.926041
30
0.0
11
191.009902
21
43.926042
31
0.0
0
LINE
8
Calque 1
62
4
5
173
100
AcDbEntity
100
AcDbLine
10
191.009902
20
43.926042
30
0.0
11
181.009900
21
43.926042
31
0.0
0
LINE
8
Calque 1
62
4
5
174
100
AcDbEntity
100
AcDbLine
10
181.009900
20
43.926042
30
0.0
11
181.009900
21
46.926041
31
0.0
0
LINE
8
Calque 1
62
4
5
175
100
AcDbEntity
100
AcDbLine
10
181.009900
20
46.926041
30
0.0
11
171.009900
21
46.926041
31
0.0
0
LINE
8
Calque 1
62
4
5
176
100
AcDbEntity
100
AcDbLine
10
171.009900
20
46.926041
30
0.0
11
171.009900
21
43.926042
31
0.0
0
LINE
8
Calque 1
62
4
5
177
100
AcDbEntity
100
AcDbLine
10
171.009900
20
43.926042
30
0.0
11
161.009900
21
43.926042
31
0.0
0
LINE
8
Calque 1
62
4
5
178
100
AcDbEntity
100
AcDbLine
10
161.009900
20
43.926042
30
0.0
11
161.009900
21
46.926041
31
0.0
0
LINE
8
Calque 1
62
4
5
179
100
AcDbEntity
100
AcDbLine
10
161.009900
20
46.926041
30
0.0
11
151.009900
21
46.926041
31
0.0
0
LINE
8
Calque 1
62
4
5
17a
100
AcDbEntity
100
AcDbLine
10
151.009900
20
46.926041
30
0.0
11
151.009900
21
43.926042
31
0.0
0
LINE
8
Calque 1
62
4
5
17b
100
AcDbEntity
100
AcDbLine
10
151.009900
20
43.926042
30
0.0
11
141.009901
21
43.926042
31
0.0
0
LINE
8
Calque 1
62
4
5
17c
100
AcDbEntity
100
AcDbLine
10
141.009901
20
43.926042
30
0.0
11
141.009901
21
46.926041
31
0.0
0
LINE
8
Calque 1
62
4
5
17d
100
AcDbEntity
100
AcDbLine
10
141.009901
20
46.926041
30
0.0
11
131.009901
21
46.926041
31
0.0
0
LINE
8
Calque 1
62
4
5
17e
100
AcDbEntity
100
AcDbLine
10
131.009901
20
46.926041
30
0.0
11
131.009901
21
43.926042
31
0.0
0
LINE
8
Calque 1
62
4
5
17f
100
AcDbEntity
100
AcDbLine
10
131.009901
20
43.926042
30
0.0
11
121.009901
21
43.926042
31
0.0
0
LINE
8
Calque 1
62
4
5
180
100
AcDbEntity
100
AcDbLine
10
121.009901
20
43.926042
30
0.0
11
121.009901
21
46.926041
31
0.0
0
LINE
8
Calque 1
62
4
5
181
100
AcDbEntity
100
AcDbLine
10
121.009901
20
46.926041
30
0.0
11
111.009901
21
46.926041
31
0.0
0
LINE
8
Calque 1
62
4
5
182
100
AcDbEntity
100
AcDbLine
10
111.009901
20
46.926041
30
0.0
11
111.009901
21
43.926042
31
0.0
0
LINE
8
Calque 1
62
4
5
183
100
AcDbEntity
100
AcDbLine
10
111.009901
20
43.926042
30
0.0
11
101.009902
21
43.926042
31
0.0
0
LINE
8
Calque 1
62
4
5
184
100
AcDbEntity
100
AcDbLine
10
101.009902
20
43.926042
30
0.0
11
101.009902
21
46.926041
31
0.0
0
LINE
8
Calque 1
62
4
5
185
100
AcDbEntity
100
AcDbLine
10
101.009902
20
46.926041
30
0.0
11
91.009902
21
46.926041
31
0.0
0
LINE
8
Calque 1
62
4
5
186
100
AcDbEntity
100
AcDbLine
10
91.009902
20
46.926041
30
0.0
11
91.009902
21
43.926042
31
0.0
0
LINE
8
Calque 1
62
4
5
187
100
AcDbEntity
100
AcDbLine
10
91.009902
20
43.926042
30
0.0
11
81.009899
21
43.926042
31
0.0
0
LINE
8
Calque 1
62
4
5
188
100
AcDbEntity
100
AcDbLine
10
81.009899
20
43.926042
30
0.0
11
81.009899
21
46.926041
31
0.0
0
LINE
8
Calque 1
62
4
5
189
100
AcDbEntity
100
AcDbLine
10
81.009899
20
46.926041
30
0.0
11
71.009899
21
46.926041
31
0.0
0
LINE
8
Calque 1
62
4
5
18a
100
AcDbEntity
100
AcDbLine
10
71.009899
20
46.926041
30
0.0
11
71.009899
21
43.926042
31
0.0
0
LINE
8
Calque 1
62
4
5
18b
100
AcDbEntity
100
AcDbLine
10
71.009899
20
43.926042
30
0.0
11
61.009900
21
43.926042
31
0.0
0
LINE
8
Calque 1
62
4
5
18c
100
AcDbEntity
100
AcDbLine
10
61.009900
20
43.926042
30
0.0
11
61.009900
21
46.926041
31
0.0
0
LINE
8
Calque 1
62
4
5
18d
100
AcDbEntity
100
AcDbLine
10
61.009900
20
46.926041
30
0.0
11
51.009900
21
46.926041
31
0.0
0
LINE
8
Calque 1
62
4
5
18e
100
AcDbEntity
100
AcDbLine
10
51.009900
20
46.926041
30
0.0
11
51.009900
21
43.926042
31
0.0
0
LINE
8
Calque 1
62
4
5
18f
100
AcDbEntity
100
AcDbLine
10
51.009900
20
43.926042
30
0.0
11
41.009900
21
43.926042
31
0.0
0
LINE
8
Calque 1
62
4
5
190
100
AcDbEntity
100
AcDbLine
10
41.009900
20
43.926042
30
0.0
11
41.009900
21
46.926041
31
0.0
0
LINE
8
Calque 1
62
4
5
191
100
AcDbEntity
100
AcDbLine
10
41.009900
20
46.926041
30
0.0
11
31.009900
21
46.926041
31
0.0
0
LINE
8
Calque 1
62
4
5
192
100
AcDbEntity
100
AcDbLine
10
31.009900
20
46.926041
30
0.0
11
31.009900
21
43.926042
31
0.0
0
LINE
8
Calque 1
62
4
5
193
100
AcDbEntity
100
AcDbLine
10
31.009900
20
43.926042
30
0.0
11
21.009902
21
43.926042
31
0.0
0
LINE
8
Calque 1
62
4
5
194
100
AcDbEntity
100
AcDbLine
10
21.009902
20
43.926042
30
0.0
11
21.009902
21
46.926041
31
0.0
0
LINE
8
Calque 1
62
4
5
195
100
AcDbEntity
100
AcDbLine
10
21.009902
20
46.926041
30
0.0
11
11.009902
21
46.926041
31
0.0
0
LINE
8
Calque 1
62
4
5
196
100
AcDbEntity
100
AcDbLine
10
11.009902
20
46.926041
30
0.0
11
11.009902
21
43.926042
31
0.0
0
LINE
8
Calque 1
62
4
5
197
100
AcDbEntity
100
AcDbLine
10
11.009902
20
43.926042
30
0.0
11
1.009902
21
43.926042
31
0.0
0
LINE
8
Calque 1
62
4
5
198
100
AcDbEntity
100
AcDbLine
10
1.009902
20
43.926042
30
0.0
11
1.009902
21
46.926041
31
0.0
0
LINE
8
Calque 1
62
4
5
199
100
AcDbEntity
100
AcDbLine
10
1.009902
20
46.926041
30
0.0
11
-8.990098
21
46.926041
31
0.0
0
LINE
8
Calque 1
62
4
5
19a
100
AcDbEntity
100
AcDbLine
10
-8.990098
20
46.926041
30
0.0
11
-8.990098
21
43.926042
31
0.0
0
LINE
8
Calque 1
62
4
5
19b
100
AcDbEntity
100
AcDbLine
10
-8.990098
20
43.926042
30
0.0
11
-18.990100
21
43.926042
31
0.0
0
LINE
8
Calque 1
62
4
5
19c
100
AcDbEntity
100
AcDbLine
10
-18.990100
20
43.926042
30
0.0
11
-18.990100
21
46.926041
31
0.0
0
LINE
8
Calque 1
62
4
5
19d
100
AcDbEntity
100
AcDbLine
10
-18.990100
20
46.926041
30
0.0
11
-28.990101
21
46.926041
31
0.0
0
LINE
8
Calque 1
62
4
5
19e
100
AcDbEntity
100
AcDbLine
10
-28.990101
20
46.926041
30
0.0
11
-28.990101
21
43.926042
31
0.0
0
LINE
8
Calque 1
62
4
5
19f
100
AcDbEntity
100
AcDbLine
10
-28.990101
20
43.926042
30
0.0
11
-38.990101
21
43.926042
31
0.0
0
LINE
8
Calque 1
62
4
5
1a0
100
AcDbEntity
100
AcDbLine
10
-38.990101
20
43.926042
30
0.0
11
-38.990101
21
46.926041
31
0.0
0
LINE
8
Calque 1
62
4
5
1a1
100
AcDbEntity
100
AcDbLine
10
-38.990101
20
46.926041
30
0.0
11
-48.990100
21
46.926041
31
0.0
0
LINE
8
Calque 1
62
4
5
1a2
100
AcDbEntity
100
AcDbLine
10
-48.990100
20
46.926041
30
0.0
11
-48.990100
21
43.926042
31
0.0
0
LINE
8
Calque 1
62
4
5
1a3
100
AcDbEntity
100
AcDbLine
10
-48.990100
20
43.926042
30
0.0
11
-58.990100
21
43.926042
31
0.0
0
LINE
8
Calque 1
62
4
5
1a4
100
AcDbEntity
100
AcDbLine
10
-58.990100
20
43.926042
30
0.0
11
-58.990100
21
46.926041
31
0.0
0
LINE
8
Calque 1
62
4
5
1a5
100
AcDbEntity
100
AcDbLine
10
-58.990100
20
46.926041
30
0.0
11
-68.990100
21
46.926041
31
0.0
0
LINE
8
Calque 1
62
4
5
1a6
100
AcDbEntity
100
AcDbLine
10
-68.990100
20
46.926041
30
0.0
11
-68.990100
21
43.926042
31
0.0
0
LINE
8
Calque 1
62
4
5
1a7
100
AcDbEntity
100
AcDbLine
10
-68.990100
20
43.926042
30
0.0
11
-73.990098
21
43.926042
31
0.0
0
LINE
8
Calque 1
62
4
5
1a8
100
AcDbEntity
100
AcDbLine
10
-73.990098
20
43.926042
30
0.0
11
-73.990098
21
58.926040
31
0.0
0
LINE
8
Calque 1
62
4
5
1a9
100
AcDbEntity
100
AcDbLine
10
-73.990098
20
58.926040
30
0.0
11
-70.990099
21
58.926040
31
0.0
0
LINE
8
Calque 1
62
4
5
1aa
100
AcDbEntity
100
AcDbLine
10
-70.990099
20
58.926040
30
0.0
11
-70.990099
21
68.926040
31
0.0
0
LINE
8
Calque 1
62
4
5
1ab
100
AcDbEntity
100
AcDbLine
10
-70.990099
20
68.926040
30
0.0
11
-73.990098
21
68.926040
31
0.0
0
LINE
8
Calque 1
62
4
5
1ac
100
AcDbEntity
100
AcDbLine
10
-73.990098
20
68.926040
30
0.0
11
-73.990098
21
78.926039
31
0.0
0
LINE
8
Calque 1
62
4
5
1ad
100
AcDbEntity
100
AcDbLine
10
-73.990098
20
78.926039
30
0.0
11
-70.990099
21
78.926039
31
0.0
0
LINE
8
Calque 1
62
4
5
1ae
100
AcDbEntity
100
AcDbLine
10
-70.990099
20
78.926039
30
0.0
11
-70.990099
21
88.926039
31
0.0
0
LINE
8
Calque 1
62
4
5
1af
100
AcDbEntity
100
AcDbLine
10
-70.990099
20
88.926039
30
0.0
11
-73.990098
21
88.926039
31
0.0
0
LINE
8
Calque 1
62
4
5
1b0
100
AcDbEntity
100
AcDbLine
10
-73.990098
20
88.926039
30
0.0
11
-73.990098
21
98.926042
31
0.0
0
LINE
8
Calque 1
62
4
5
1b1
100
AcDbEntity
100
AcDbLine
10
-73.990098
20
98.926042
30
0.0
11
-70.990099
21
98.926042
31
0.0
0
LINE
8
Calque 1
62
4
5
1b2
100
AcDbEntity
100
AcDbLine
10
-70.990099
20
98.926042
30
0.0
11
-70.990099
21
108.926041
31
0.0
0
LINE
8
Calque 1
62
4
5
1b3
100
AcDbEntity
100
AcDbLine
10
-70.990099
20
108.926041
30
0.0
11
-73.990098
21
108.926041
31
0.0
0
LINE
8
Calque 1
62
4
5
1b4
100
AcDbEntity
100
AcDbLine
10
-73.990098
20
108.926041
30
0.0
11
-73.990098
21
118.926041
31
0.0
0
LINE
8
Calque 1
62
4
5
1b5
100
AcDbEntity
100
AcDbLine
10
-73.990098
20
118.926041
30
0.0
11
-70.990099
21
118.926041
31
0.0
0
LINE
8
Calque 1
62
4
5
1b6
100
AcDbEntity
100
AcDbLine
10
-70.990099
20
118.926041
30
0.0
11
-70.990099
21
128.926041
31
0.0
0
LINE
8
Calque 1
62
4
5
1b7
100
AcDbEntity
100
AcDbLine
10
-70.990099
20
128.926041
30
0.0
11
-73.990098
21
128.926041
31
0.0
0
LINE
8
Calque 1
62
4
5
1b8
100
AcDbEntity
100
AcDbLine
10
-73.990098
20
128.926041
30
0.0
11
-73.990098
21
138.926041
31
0.0
0
LINE
8
Calque 1
62
4
5
1b9
100
AcDbEntity
100
AcDbLine
10
-73.990098
20
138.926041
30
0.0
11
-70.990099
21
138.926041
31
0.0
0
LINE
8
Calque 1
62
4
5
1ba
100
AcDbEntity
100
AcDbLine
10
-70.990099
20
138.926041
30
0.0
11
-70.990099
21
148.926041
31
0.0
0
LINE
8
Calque 1
62
4
5
1bb
100
AcDbEntity
100
AcDbLine
10
-70.990099
20
148.926041
30
0.0
11
-73.990098
21
148.926041
31
0.0
0
LINE
8
Calque 1
62
4
5
1bc
100
AcDbEntity
100
AcDbLine
10
-73.990098
20
148.926041
30
0.0
11
-73.990098
21
158.926040
31
0.0
0
LINE
8
Calque 1
62
4
5
1bd
100
AcDbEntity
100
AcDbLine
10
-73.990098
20
158.926040
30
0.0
11
-70.990099
21
158.926040
31
0.0
0
LINE
8
Calque 1
62
4
5
1be
100
AcDbEntity
100
AcDbLine
10
-70.990099
20
158.926040
30
0.0
11
-70.990099
21
168.926040
31
0.0
0
LINE
8
Calque 1
62
4
5
1bf
100
AcDbEntity
100
AcDbLine
10
-70.990099
20
168.926040
30
0.0
11
-73.990098
21
168.926040
31
0.0
0
LINE
8
Calque 1
62
4
5
1c0
100
AcDbEntity
100
AcDbLine
10
-73.990098
20
168.926040
30
0.0
11
-73.990098
21
183.926041
31
0.0
0
LINE
8
Calque 1
62
4
5
1c1
100
AcDbEntity
100
AcDbLine
10
-73.990098
20
183.926041
30
0.0
11
-70.990099
21
183.926041
31
0.0
0
LINE
8
Calque 1
62
4
5
1c2
100
AcDbEntity
100
AcDbLine
10
-70.990099
20
183.926041
30
0.0
11
-68.990100
21
183.926041
31
0.0
0
LINE
8
Calque 1
62
4
5
1c3
100
AcDbEntity
100
AcDbLine
10
-68.990100
20
183.926041
30
0.0
11
-68.990100
21
180.926041
31
0.0
0
LINE
8
Calque 1
62
4
5
1c4
100
AcDbEntity
100
AcDbLine
10
-68.990100
20
180.926041
30
0.0
11
-58.990100
21
180.926041
31
0.0
0
LINE
8
Calque 1
62
4
5
1c5
100
AcDbEntity
100
AcDbLine
10
-58.990100
20
180.926041
30
0.0
11
-58.990100
21
183.926041
31
0.0
0
LINE
8
Calque 1
62
4
5
1c6
100
AcDbEntity
100
AcDbLine
10
-58.990100
20
183.926041
30
0.0
11
-48.990100
21
183.926041
31
0.0
0
LINE
8
Calque 1
62
4
5
1c7
100
AcDbEntity
100
AcDbLine
10
-48.990100
20
183.926041
30
0.0
11
-48.990100
21
180.926041
31
0.0
0
LINE
8
Calque 1
62
4
5
1c8
100
AcDbEntity
100
AcDbLine
10
-48.990100
20
180.926041
30
0.0
11
-38.990101
21
180.926041
31
0.0
0
LINE
8
Calque 1
62
4
5
1c9
100
AcDbEntity
100
AcDbLine
10
-38.990101
20
180.926041
30
0.0
11
-38.990101
21
183.926041
31
0.0
0
LINE
8
Calque 1
62
4
5
1ca
100
AcDbEntity
100
AcDbLine
10
-38.990101
20
183.926041
30
0.0
11
-28.990101
21
183.926041
31
0.0
0
LINE
8
Calque 1
62
4
5
1cb
100
AcDbEntity
100
AcDbLine
10
-28.990101
20
183.926041
30
0.0
11
-28.990101
21
180.926041
31
0.0
0
LINE
8
Calque 1
62
4
5
1cc
100
AcDbEntity
100
AcDbLine
10
-28.990101
20
180.926041
30
0.0
11
-18.990100
21
180.926041
31
0.0
0
LINE
8
Calque 1
62
4
5
1cd
100
AcDbEntity
100
AcDbLine
10
-18.990100
20
180.926041
30
0.0
11
-18.990100
21
183.926041
31
0.0
0
LINE
8
Calque 1
62
4
5
1ce
100
AcDbEntity
100
AcDbLine
10
-18.990100
20
183.926041
30
0.0
11
-8.990098
21
183.926041
31
0.0
0
LINE
8
Calque 1
62
4
5
1cf
100
AcDbEntity
100
AcDbLine
10
-8.990098
20
183.926041
30
0.0
11
-8.990098
21
180.926041
31
0.0
0
LINE
8
Calque 1
62
4
5
1d0
100
AcDbEntity
100
AcDbLine
10
-8.990098
20
180.926041
30
0.0
11
1.009902
21
180.926041
31
0.0
0
LINE
8
Calque 1
62
4
5
1d1
100
AcDbEntity
100
AcDbLine
10
1.009902
20
180.926041
30
0.0
11
1.009902
21
183.926041
31
0.0
0
LINE
8
Calque 1
62
4
5
1d2
100
AcDbEntity
100
AcDbLine
10
1.009902
20
183.926041
30
0.0
11
11.009902
21
183.926041
31
0.0
0
LINE
8
Calque 1
62
4
5
1d3
100
AcDbEntity
100
AcDbLine
10
11.009902
20
183.926041
30
0.0
11
11.009902
21
180.926041
31
0.0
0
LINE
8
Calque 1
62
4
5
1d4
100
AcDbEntity
100
AcDbLine
10
11.009902
20
180.926041
30
0.0
11
21.009902
21
180.926041
31
0.0
0
LINE
8
Calque 1
62
4
5
1d5
100
AcDbEntity
100
AcDbLine
10
21.009902
20
180.926041
30
0.0
11
21.009902
21
183.926041
31
0.0
0
LINE
8
Calque 1
62
4
5
1d6
100
AcDbEntity
100
AcDbLine
10
21.009902
20
183.926041
30
0.0
11
31.009900
21
183.926041
31
0.0
0
LINE
8
Calque 1
62
4
5
1d7
100
AcDbEntity
100
AcDbLine
10
31.009900
20
183.926041
30
0.0
11
31.009900
21
180.926041
31
0.0
0
LINE
8
Calque 1
62
4
5
1d8
100
AcDbEntity
100
AcDbLine
10
31.009900
20
180.926041
30
0.0
11
41.009900
21
180.926041
31
0.0
0
LINE
8
Calque 1
62
4
5
1d9
100
AcDbEntity
100
AcDbLine
10
41.009900
20
180.926041
30
0.0
11
41.009900
21
183.926041
31
0.0
0
LINE
8
Calque 1
62
4
5
1da
100
AcDbEntity
100
AcDbLine
10
41.009900
20
183.926041
30
0.0
11
51.009900
21
183.926041
31
0.0
0
LINE
8
Calque 1
62
4
5
1db
100
AcDbEntity
100
AcDbLine
10
51.009900
20
183.926041
30
0.0
11
51.009900
21
180.926041
31
0.0
0
LINE
8
Calque 1
62
4
5
1dc
100
AcDbEntity
100
AcDbLine
10
51.009900
20
180.926041
30
0.0
11
61.009900
21
180.926041
31
0.0
0
LINE
8
Calque 1
62
4
5
1dd
100
AcDbEntity
100
AcDbLine
10
61.009900
20
180.926041
30
0.0
11
61.009900
21
183.926041
31
0.0
0
LINE
8
Calque 1
62
4
5
1de
100
AcDbEntity
100
AcDbLine
10
61.009900
20
183.926041
30
0.0
11
71.009899
21
183.926041
31
0.0
0
LINE
8
Calque 1
62
4
5
1df
100
AcDbEntity
100
AcDbLine
10
71.009899
20
183.926041
30
0.0
11
71.009899
21
180.926041
31
0.0
0
LINE
8
Calque 1
62
4
5
1e0
100
AcDbEntity
100
AcDbLine
10
71.009899
20
180.926041
30
0.0
11
81.009899
21
180.926041
31
0.0
0
LINE
8
Calque 1
62
4
5
1e1
100
AcDbEntity
100
AcDbLine
10
81.009899
20
180.926041
30
0.0
11
81.009899
21
183.926041
31
0.0
0
LINE
8
Calque 1
62
4
5
1e2
100
AcDbEntity
100
AcDbLine
10
81.009899
20
183.926041
30
0.0
11
91.009902
21
183.926041
31
0.0
0
LINE
8
Calque 1
62
4
5
1e3
100
AcDbEntity
100
AcDbLine
10
91.009902
20
183.926041
30
0.0
11
91.009902
21
180.926041
31
0.0
0
LINE
8
Calque 1
62
4
5
1e4
100
AcDbEntity
100
AcDbLine
10
91.009902
20
180.926041
30
0.0
11
101.009902
21
180.926041
31
0.0
0
LINE
8
Calque 1
62
4
5
1e5
100
AcDbEntity
100
AcDbLine
10
101.009902
20
180.926041
30
0.0
11
101.009902
21
183.926041
31
0.0
0
LINE
8
Calque 1
62
4
5
1e6
100
AcDbEntity
100
AcDbLine
10
101.009902
20
183.926041
30
0.0
11
111.009901
21
183.926041
31
0.0
0
LINE
8
Calque 1
62
4
5
1e7
100
AcDbEntity
100
AcDbLine
10
111.009901
20
183.926041
30
0.0
11
111.009901
21
180.926041
31
0.0
0
LINE
8
Calque 1
62
4
5
1e8
100
AcDbEntity
100
AcDbLine
10
111.009901
20
180.926041
30
0.0
11
121.009901
21
180.926041
31
0.0
0
LINE
8
Calque 1
62
4
5
1e9
100
AcDbEntity
100
AcDbLine
10
121.009901
20
180.926041
30
0.0
11
121.009901
21
183.926041
31
0.0
0
LINE
8
Calque 1
62
4
5
1ea
100
AcDbEntity
100
AcDbLine
10
121.009901
20
183.926041
30
0.0
11
131.009901
21
183.926041
31
0.0
0
LINE
8
Calque 1
62
4
5
1eb
100
AcDbEntity
100
AcDbLine
10
131.009901
20
183.926041
30
0.0
11
131.009901
21
180.926041
31
0.0
0
LINE
8
Calque 1
62
4
5
1ec
100
AcDbEntity
100
AcDbLine
10
131.009901
20
180.926041
30
0.0
11
141.009901
21
180.926041
31
0.0
0
LINE
8
Calque 1
62
4
5
1ed
100
AcDbEntity
100
AcDbLine
10
141.009901
20
180.926041
30
0.0
11
141.009901
21
183.926041
31
0.0
0
LINE
8
Calque 1
62
4
5
1ee
100
AcDbEntity
100
AcDbLine
10
141.009901
20
183.926041
30
0.0
11
151.009900
21
183.926041
31
0.0
0
LINE
8
Calque 1
62
4
5
1ef
100
AcDbEntity
100
AcDbLine
10
151.009900
20
183.926041
30
0.0
11
151.009900
21
180.926041
31
0.0
0
LINE
8
Calque 1
62
4
5
1f0
100
AcDbEntity
100
AcDbLine
10
151.009900
20
180.926041
30
0.0
11
161.009900
21
180.926041
31
0.0
0
LINE
8
Calque 1
62
4
5
1f1
100
AcDbEntity
100
AcDbLine
10
161.009900
20
180.926041
30
0.0
11
161.009900
21
183.926041
31
0.0
0
LINE
8
Calque 1
62
4
5
1f2
100
AcDbEntity
100
AcDbLine
10
203.904102
20
117.834942
30
0.0
11
205.509901
21
117.623541
31
0.0
0
LINE
8
Calque 1
62
4
5
1f3
100
AcDbEntity
100
AcDbLine
10
205.509901
20
117.623541
30
0.0
11
205.509901
21
120.623540
31
0.0
0
LINE
8
Calque 1
62
4
5
1f4
100
AcDbEntity
100
AcDbLine
10
205.509901
20
120.623540
30
0.0
11
204.680501
21
120.732740
31
0.0
0
LINE
8
Calque 1
62
4
5
1f5
100
AcDbEntity
100
AcDbLine
10
204.680501
20
120.732740
30
0.0
11
202.509902
21
121.631841
31
0.0
0
LINE
8
Calque 1
62
4
5
1f6
100
AcDbEntity
100
AcDbLine
10
202.509902
20
121.631841
30
0.0
11
200.645900
21
123.062042
31
0.0
0
LINE
8
Calque 1
62
4
5
1f7
100
AcDbEntity
100
AcDbLine
10
200.645900
20
123.062042
30
0.0
11
199.215700
21
124.926041
31
0.0
0
LINE
8
Calque 1
62
4
5
1f8
100
AcDbEntity
100
AcDbLine
10
199.215700
20
124.926041
30
0.0
11
198.316602
21
127.096640
31
0.0
0
LINE
8
Calque 1
62
4
5
1f9
100
AcDbEntity
100
AcDbLine
10
198.316602
20
127.096640
30
0.0
11
198.207401
21
127.926040
31
0.0
0
LINE
8
Calque 1
62
4
5
1fa
100
AcDbEntity
100
AcDbLine
10
198.207401
20
127.926040
30
0.0
11
195.207402
21
127.926040
31
0.0
0
LINE
8
Calque 1
62
4
5
1fb
100
AcDbEntity
100
AcDbLine
10
195.207402
20
127.926040
30
0.0
11
195.418800
21
126.320241
31
0.0
0
LINE
8
Calque 1
62
4
5
1fc
100
AcDbEntity
100
AcDbLine
10
195.418800
20
126.320241
30
0.0
11
196.617610
21
123.426041
31
0.0
0
LINE
8
Calque 1
62
4
5
1fd
100
AcDbEntity
100
AcDbLine
10
196.617610
20
123.426041
30
0.0
11
198.524611
21
120.940741
31
0.0
0
LINE
8
Calque 1
62
4
5
1fe
100
AcDbEntity
100
AcDbLine
10
198.524611
20
120.940741
30
0.0
11
199.498610
21
120.193442
31
0.0
0
LINE
8
Calque 1
62
4
5
1ff
100
AcDbEntity
100
AcDbLine
10
199.498610
20
120.193442
30
0.0
11
201.009910
21
119.033740
31
0.0
0
LINE
8
Calque 1
62
4
5
200
100
AcDbEntity
100
AcDbLine
10
201.009910
20
119.033740
30
0.0
11
203.904111
21
117.834942
31
0.0
0
LINE
8
Calque 1
62
4
5
201
100
AcDbEntity
100
AcDbLine
10
208.509898
20
153.228541
30
0.0
11
208.509898
21
150.228541
31
0.0
0
LINE
8
Calque 1
62
4
5
202
100
AcDbEntity
100
AcDbLine
10
208.509898
20
150.228541
30
0.0
11
212.445120
21
149.710440
31
0.0
0
LINE
8
Calque 1
62
4
5
203
100
AcDbEntity
100
AcDbLine
10
212.445120
20
149.710440
30
0.0
11
217.509908
21
147.612542
31
0.0
0
LINE
8
Calque 1
62
4
5
204
100
AcDbEntity
100
AcDbLine
10
217.509908
20
147.612542
30
0.0
11
220.154613
21
145.583141
31
0.0
0
LINE
8
Calque 1
62
4
5
205
100
AcDbEntity
100
AcDbLine
10
220.154613
20
145.583141
30
0.0
11
221.859122
21
144.275241
31
0.0
0
LINE
8
Calque 1
62
4
5
206
100
AcDbEntity
100
AcDbLine
10
221.859122
20
144.275241
30
0.0
11
225.196400
21
139.926042
31
0.0
0
LINE
8
Calque 1
62
4
5
207
100
AcDbEntity
100
AcDbLine
10
225.196400
20
139.926042
30
0.0
11
227.294299
21
134.861242
31
0.0
0
LINE
8
Calque 1
62
4
5
208
100
AcDbEntity
100
AcDbLine
10
227.294299
20
134.861242
30
0.0
11
227.812402
21
130.926040
31
0.0
0
LINE
8
Calque 1
62
4
5
209
100
AcDbEntity
100
AcDbLine
10
227.812402
20
130.926040
30
0.0
11
230.812425
21
130.926040
31
0.0
0
LINE
8
Calque 1
62
4
5
20a
100
AcDbEntity
100
AcDbLine
10
230.812425
20
130.926040
30
0.0
11
230.192100
21
135.637740
31
0.0
0
LINE
8
Calque 1
62
4
5
20b
100
AcDbEntity
100
AcDbLine
10
230.192100
20
135.637740
30
0.0
11
227.794510
21
141.426041
31
0.0
0
LINE
8
Calque 1
62
4
5
20c
100
AcDbEntity
100
AcDbLine
10
227.794510
20
141.426041
30
0.0
11
223.980417
21
146.396641
31
0.0
0
LINE
8
Calque 1
62
4
5
20d
100
AcDbEntity
100
AcDbLine
10
223.980417
20
146.396641
30
0.0
11
222.032520
21
147.891340
31
0.0
0
LINE
8
Calque 1
62
4
5
20e
100
AcDbEntity
100
AcDbLine
10
222.032520
20
147.891340
30
0.0
11
219.009920
21
150.210640
31
0.0
0
LINE
8
Calque 1
62
4
5
20f
100
AcDbEntity
100
AcDbLine
10
219.009920
20
150.210640
30
0.0
11
213.221598
21
152.608242
31
0.0
0
LINE
8
Calque 1
62
4
5
210
100
AcDbEntity
100
AcDbLine
10
213.221598
20
152.608242
30
0.0
11
208.509898
21
153.228541
31
0.0
0
LINE
8
Calque 1
62
4
5
211
100
AcDbEntity
100
AcDbLine
10
201.574710
20
149.710440
30
0.0
11
205.509910
21
150.228541
31
0.0
0
LINE
8
Calque 1
62
4
5
212
100
AcDbEntity
100
AcDbLine
10
205.509910
20
150.228541
30
0.0
11
205.509910
21
153.228541
31
0.0
0
LINE
8
Calque 1
62
4
5
213
100
AcDbEntity
100
AcDbLine
10
205.509910
20
153.228541
30
0.0
11
200.798210
21
152.608242
31
0.0
0
LINE
8
Calque 1
62
4
5
214
100
AcDbEntity
100
AcDbLine
10
200.798210
20
152.608242
30
0.0
11
195.009911
21
150.210640
31
0.0
0
LINE
8
Calque 1
62
4
5
215
100
AcDbEntity
100
AcDbLine
10
195.009911
20
150.210640
30
0.0
11
191.987311
21
147.891340
31
0.0
0
LINE
8
Calque 1
62
4
5
216
100
AcDbEntity
100
AcDbLine
10
191.987311
20
147.891340
30
0.0
11
190.039312
21
146.396641
31
0.0
0
LINE
8
Calque 1
62
4
5
217
100
AcDbEntity
100
AcDbLine
10
190.039312
20
146.396641
30
0.0
11
186.225310
21
141.426041
31
0.0
0
LINE
8
Calque 1
62
4
5
218
100
AcDbEntity
100
AcDbLine
10
186.225310
20
141.426041
30
0.0
11
183.827711
21
135.637740
31
0.0
0
LINE
8
Calque 1
62
4
5
219
100
AcDbEntity
100
AcDbLine
10
183.827711
20
135.637740
30
0.0
11
183.207412
21
130.926040
31
0.0
0
LINE
8
Calque 1
62
4
5
21a
100
AcDbEntity
100
AcDbLine
10
183.207412
20
130.926040
30
0.0
11
186.207411
21
130.926040
31
0.0
0
LINE
8
Calque 1
62
4
5
21b
100
AcDbEntity
100
AcDbLine
10
186.207411
20
130.926040
30
0.0
11
186.725512
21
134.861242
31
0.0
0
LINE
8
Calque 1
62
4
5
21c
100
AcDbEntity
100
AcDbLine
10
186.725512
20
134.861242
30
0.0
11
188.823411
21
139.926042
31
0.0
0
LINE
8
Calque 1
62
4
5
21d
100
AcDbEntity
100
AcDbLine
10
188.823411
20
139.926042
30
0.0
11
192.160711
21
144.275241
31
0.0
0
LINE
8
Calque 1
62
4
5
21e
100
AcDbEntity
100
AcDbLine
10
192.160711
20
144.275241
30
0.0
11
193.865111
21
145.583141
31
0.0
0
LINE
8
Calque 1
62
4
5
21f
100
AcDbEntity
100
AcDbLine
10
193.865111
20
145.583141
30
0.0
11
196.509911
21
147.612542
31
0.0
0
LINE
8
Calque 1
62
4
5
220
100
AcDbEntity
100
AcDbLine
10
196.509911
20
147.612542
30
0.0
11
201.574710
21
149.710440
31
0.0
0
LINE
8
Calque 1
62
4
5
221
100
AcDbEntity
100
AcDbLine
10
230.812425
20
127.926040
30
0.0
11
227.812402
21
127.926040
31
0.0
0
LINE
8
Calque 1
62
4
5
222
100
AcDbEntity
100
AcDbLine
10
227.812402
20
127.926040
30
0.0
11
227.294299
21
123.990841
31
0.0
0
LINE
8
Calque 1
62
4
5
223
100
AcDbEntity
100
AcDbLine
10
227.294299
20
123.990841
30
0.0
11
225.196400
21
118.926041
31
0.0
0
LINE
8
Calque 1
62
4
5
224
100
AcDbEntity
100
AcDbLine
10
225.196400
20
118.926041
30
0.0
11
221.859122
21
114.576842
31
0.0
0
LINE
8
Calque 1
62
4
5
225
100
AcDbEntity
100
AcDbLine
10
221.859122
20
114.576842
30
0.0
11
220.154613
21
113.268942
31
0.0
0
LINE
8
Calque 1
62
4
5
226
100
AcDbEntity
100
AcDbLine
10
220.154613
20
113.268942
30
0.0
11
217.509908
21
111.239541
31
0.0
0
LINE
8
Calque 1
62
4
5
227
100
AcDbEntity
100
AcDbLine
10
217.509908
20
111.239541
30
0.0
11
212.445120
21
109.141640
31
0.0
0
LINE
8
Calque 1
62
4
5
228
100
AcDbEntity
100
AcDbLine
10
212.445120
20
109.141640
30
0.0
11
208.509898
21
108.623542
31
0.0
0
LINE
8
Calque 1
62
4
5
229
100
AcDbEntity
100
AcDbLine
10
208.509898
20
108.623542
30
0.0
11
208.509898
21
105.623542
31
0.0
0
LINE
8
Calque 1
62
4
5
22a
100
AcDbEntity
100
AcDbLine
10
208.509898
20
105.623542
30
0.0
11
213.221598
21
106.243841
31
0.0
0
LINE
8
Calque 1
62
4
5
22b
100
AcDbEntity
100
AcDbLine
10
213.221598
20
106.243841
30
0.0
11
219.009920
21
108.641440
31
0.0
0
LINE
8
Calque 1
62
4
5
22c
100
AcDbEntity
100
AcDbLine
10
219.009920
20
108.641440
30
0.0
11
222.032520
21
110.960740
31
0.0
0
LINE
8
Calque 1
62
4
5
22d
100
AcDbEntity
100
AcDbLine
10
222.032520
20
110.960740
30
0.0
11
223.980417
21
112.455439
31
0.0
0
LINE
8
Calque 1
62
4
5
22e
100
AcDbEntity
100
AcDbLine
10
223.980417
20
112.455439
30
0.0
11
227.794510
21
117.426041
31
0.0
0
LINE
8
Calque 1
62
4
5
22f
100
AcDbEntity
100
AcDbLine
10
227.794510
20
117.426041
30
0.0
11
230.192100
21
123.214340
31
0.0
0
LINE
8
Calque 1
62
4
5
230
100
AcDbEntity
100
AcDbLine
10
230.192100
20
123.214340
30
0.0
11
230.812425
21
127.926040
31
0.0
0
LINE
8
Calque 1
62
4
5
231
100
AcDbEntity
100
AcDbLine
10
224.812408
20
127.926040
30
0.0
11
221.812414
21
127.926040
31
0.0
0
LINE
8
Calque 1
62
4
5
232
100
AcDbEntity
100
AcDbLine
10
221.812414
20
127.926040
30
0.0
11
221.498809
21
125.543740
31
0.0
0
LINE
8
Calque 1
62
4
5
233
100
AcDbEntity
100
AcDbLine
10
221.498809
20
125.543740
30
0.0
11
220.000209
21
121.926041
31
0.0
0
LINE
8
Calque 1
62
4
5
234
100
AcDbEntity
100
AcDbLine
10
220.000209
20
121.926041
30
0.0
11
217.616504
21
118.819440
31
0.0
0
LINE
8
Calque 1
62
4
5
235
100
AcDbEntity
100
AcDbLine
10
217.616504
20
118.819440
30
0.0
11
216.398997
21
117.885240
31
0.0
0
LINE
8
Calque 1
62
4
5
236
100
AcDbEntity
100
AcDbLine
10
216.398997
20
117.885240
30
0.0
11
214.509914
21
116.435642
31
0.0
0
LINE
8
Calque 1
62
4
5
237
100
AcDbEntity
100
AcDbLine
10
214.509914
20
116.435642
30
0.0
11
210.892221
21
114.937141
31
0.0
0
LINE
8
Calque 1
62
4
5
238
100
AcDbEntity
100
AcDbLine
10
210.892221
20
114.937141
30
0.0
11
208.509898
21
114.623541
31
0.0
0
LINE
8
Calque 1
62
4
5
239
100
AcDbEntity
100
AcDbLine
10
208.509898
20
114.623541
30
0.0
11
208.509898
21
111.623541
31
0.0
0
LINE
8
Calque 1
62
4
5
23a
100
AcDbEntity
100
AcDbLine
10
208.509898
20
111.623541
30
0.0
11
211.668614
21
112.039339
31
0.0
0
LINE
8
Calque 1
62
4
5
23b
100
AcDbEntity
100
AcDbLine
10
211.668614
20
112.039339
30
0.0
11
216.009897
21
113.837541
31
0.0
0
LINE
8
Calque 1
62
4
5
23c
100
AcDbEntity
100
AcDbLine
10
216.009897
20
113.837541
30
0.0
11
218.276904
21
115.577040
31
0.0
0
LINE
8
Calque 1
62
4
5
23d
100
AcDbEntity
100
AcDbLine
10
218.276904
20
115.577040
30
0.0
11
219.737799
21
116.698140
31
0.0
0
LINE
8
Calque 1
62
4
5
23e
100
AcDbEntity
100
AcDbLine
10
219.737799
20
116.698140
30
0.0
11
222.598319
21
120.426041
31
0.0
0
LINE
8
Calque 1
62
4
5
23f
100
AcDbEntity
100
AcDbLine
10
222.598319
20
120.426041
30
0.0
11
224.396498
21
124.767341
31
0.0
0
LINE
8
Calque 1
62
4
5
240
100
AcDbEntity
100
AcDbLine
10
224.396498
20
124.767341
30
0.0
11
224.812408
21
127.926040
31
0.0
0
LINE
8
Calque 1
62
4
5
241
100
AcDbEntity
100
AcDbLine
10
186.725512
20
123.990841
30
0.0
11
186.207411
21
127.926040
31
0.0
0
LINE
8
Calque 1
62
4
5
242
100
AcDbEntity
100
AcDbLine
10
186.207411
20
127.926040
30
0.0
11
183.207412
21
127.926040
31
0.0
0
LINE
8
Calque 1
62
4
5
243
100
AcDbEntity
100
AcDbLine
10
183.207412
20
127.926040
30
0.0
11
183.827711
21
123.214340
31
0.0
0
LINE
8
Calque 1
62
4
5
244
100
AcDbEntity
100
AcDbLine
10
183.827711
20
123.214340
30
0.0
11
186.225310
21
117.426041
31
0.0
0
LINE
8
Calque 1
62
4
5
245
100
AcDbEntity
100
AcDbLine
10
186.225310
20
117.426041
30
0.0
11
190.039312
21
112.455439
31
0.0
0
LINE
8
Calque 1
62
4
5
246
100
AcDbEntity
100
AcDbLine
10
190.039312
20
112.455439
30
0.0
11
191.987311
21
110.960740
31
0.0
0
LINE
8
Calque 1
62
4
5
247
100
AcDbEntity
100
AcDbLine
10
191.987311
20
110.960740
30
0.0
11
195.009911
21
108.641440
31
0.0
0
LINE
8
Calque 1
62
4
5
248
100
AcDbEntity
100
AcDbLine
10
195.009911
20
108.641440
30
0.0
11
200.798210
21
106.243841
31
0.0
0
LINE
8
Calque 1
62
4
5
249
100
AcDbEntity
100
AcDbLine
10
200.798210
20
106.243841
30
0.0
11
205.509910
21
105.623542
31
0.0
0
LINE
8
Calque 1
62
4
5
24a
100
AcDbEntity
100
AcDbLine
10
205.509910
20
105.623542
30
0.0
11
205.509910
21
108.623542
31
0.0
0
LINE
8
Calque 1
62
4
5
24b
100
AcDbEntity
100
AcDbLine
10
205.509910
20
108.623542
30
0.0
11
201.574710
21
109.141640
31
0.0
0
LINE
8
Calque 1
62
4
5
24c
100
AcDbEntity
100
AcDbLine
10
201.574710
20
109.141640
30
0.0
11
196.509911
21
111.239541
31
0.0
0
LINE
8
Calque 1
62
4
5
24d
100
AcDbEntity
100
AcDbLine
10
196.509911
20
111.239541
30
0.0
11
193.865111
21
113.268942
31
0.0
0
LINE
8
Calque 1
62
4
5
24e
100
AcDbEntity
100
AcDbLine
10
193.865111
20
113.268942
30
0.0
11
192.160711
21
114.576842
31
0.0
0
LINE
8
Calque 1
62
4
5
24f
100
AcDbEntity
100
AcDbLine
10
192.160711
20
114.576842
30
0.0
11
188.823411
21
118.926041
31
0.0
0
LINE
8
Calque 1
62
4
5
250
100
AcDbEntity
100
AcDbLine
10
188.823411
20
118.926041
30
0.0
11
186.725512
21
123.990841
31
0.0
0
LINE
8
Calque 1
62
4
5
251
100
AcDbEntity
100
AcDbLine
10
205.509910
20
111.623541
30
0.0
11
205.509910
21
114.623541
31
0.0
0
LINE
8
Calque 1
62
4
5
252
100
AcDbEntity
100
AcDbLine
10
205.509910
20
114.623541
30
0.0
11
203.127610
21
114.937141
31
0.0
0
LINE
8
Calque 1
62
4
5
253
100
AcDbEntity
100
AcDbLine
10
203.127610
20
114.937141
30
0.0
11
199.509911
21
116.435642
31
0.0
0
LINE
8
Calque 1
62
4
5
254
100
AcDbEntity
100
AcDbLine
10
199.509911
20
116.435642
30
0.0
11
197.620811
21
117.885240
31
0.0
0
LINE
8
Calque 1
62
4
5
255
100
AcDbEntity
100
AcDbLine
10
197.620811
20
117.885240
30
0.0
11
196.403310
21
118.819440
31
0.0
0
LINE
8
Calque 1
62
4
5
256
100
AcDbEntity
100
AcDbLine
10
196.403310
20
118.819440
30
0.0
11
194.019511
21
121.926041
31
0.0
0
LINE
8
Calque 1
62
4
5
257
100
AcDbEntity
100
AcDbLine
10
194.019511
20
121.926041
30
0.0
11
192.521010
21
125.543740
31
0.0
0
LINE
8
Calque 1
62
4
5
258
100
AcDbEntity
100
AcDbLine
10
192.521010
20
125.543740
30
0.0
11
192.207411
21
127.926040
31
0.0
0
LINE
8
Calque 1
62
4
5
259
100
AcDbEntity
100
AcDbLine
10
192.207411
20
127.926040
30
0.0
11
189.207411
21
127.926040
31
0.0
0
LINE
8
Calque 1
62
4
5
25a
100
AcDbEntity
100
AcDbLine
10
189.207411
20
127.926040
30
0.0
11
189.623212
21
124.767341
31
0.0
0
LINE
8
Calque 1
62
4
5
25b
100
AcDbEntity
100
AcDbLine
10
189.623212
20
124.767341
30
0.0
11
191.421410
21
120.426041
31
0.0
0
LINE
8
Calque 1
62
4
5
25c
100
AcDbEntity
100
AcDbLine
10
191.421410
20
120.426041
30
0.0
11
194.282012
21
116.698140
31
0.0
0
LINE
8
Calque 1
62
4
5
25d
100
AcDbEntity
100
AcDbLine
10
194.282012
20
116.698140
30
0.0
11
195.742910
21
115.577040
31
0.0
0
LINE
8
Calque 1
62
4
5
25e
100
AcDbEntity
100
AcDbLine
10
195.742910
20
115.577040
30
0.0
11
198.009911
21
113.837541
31
0.0
0
LINE
8
Calque 1
62
4
5
25f
100
AcDbEntity
100
AcDbLine
10
198.009911
20
113.837541
30
0.0
11
202.351211
21
112.039339
31
0.0
0
LINE
8
Calque 1
62
4
5
260
100
AcDbEntity
100
AcDbLine
10
202.351211
20
112.039339
30
0.0
11
205.509910
21
111.623541
31
0.0
0
LINE
8
Calque 1
62
4
5
261
100
AcDbEntity
100
AcDbLine
10
218.601008
20
126.320241
30
0.0
11
218.812420
21
127.926040
31
0.0
0
LINE
8
Calque 1
62
4
5
262
100
AcDbEntity
100
AcDbLine
10
218.812420
20
127.926040
30
0.0
11
215.812398
21
127.926040
31
0.0
0
LINE
8
Calque 1
62
4
5
263
100
AcDbEntity
100
AcDbLine
10
215.812398
20
127.926040
30
0.0
11
215.703206
21
127.096640
31
0.0
0
LINE
8
Calque 1
62
4
5
264
100
AcDbEntity
100
AcDbLine
10
215.703206
20
127.096640
30
0.0
11
214.804103
21
124.926041
31
0.0
0
LINE
8
Calque 1
62
4
5
265
100
AcDbEntity
100
AcDbLine
10
214.804103
20
124.926041
30
0.0
11
213.373914
21
123.062042
31
0.0
0
LINE
8
Calque 1
62
4
5
266
100
AcDbEntity
100
AcDbLine
10
213.373914
20
123.062042
30
0.0
11
211.509920
21
121.631841
31
0.0
0
LINE
8
Calque 1
62
4
5
267
100
AcDbEntity
100
AcDbLine
10
211.509920
20
121.631841
30
0.0
11
209.339321
21
120.732740
31
0.0
0
LINE
8
Calque 1
62
4
5
268
100
AcDbEntity
100
AcDbLine
10
209.339321
20
120.732740
30
0.0
11
208.509898
21
120.623540
31
0.0
0
LINE
8
Calque 1
62
4
5
269
100
AcDbEntity
100
AcDbLine
10
208.509898
20
120.623540
30
0.0
11
208.509898
21
117.623541
31
0.0
0
LINE
8
Calque 1
62
4
5
26a
100
AcDbEntity
100
AcDbLine
10
208.509898
20
117.623541
30
0.0
11
210.115714
21
117.834942
31
0.0
0
LINE
8
Calque 1
62
4
5
26b
100
AcDbEntity
100
AcDbLine
10
210.115714
20
117.834942
30
0.0
11
213.009903
21
119.033740
31
0.0
0
LINE
8
Calque 1
62
4
5
26c
100
AcDbEntity
100
AcDbLine
10
213.009903
20
119.033740
30
0.0
11
214.521203
21
120.193442
31
0.0
0
LINE
8
Calque 1
62
4
5
26d
100
AcDbEntity
100
AcDbLine
10
214.521203
20
120.193442
30
0.0
11
215.495209
21
120.940741
31
0.0
0
LINE
8
Calque 1
62
4
5
26e
100
AcDbEntity
100
AcDbLine
10
215.495209
20
120.940741
30
0.0
11
217.402212
21
123.426041
31
0.0
0
LINE
8
Calque 1
62
4
5
26f
100
AcDbEntity
100
AcDbLine
10
217.402212
20
123.426041
30
0.0
11
218.601008
21
126.320241
31
0.0
0
LINE
8
Calque 1
62
4
5
270
100
AcDbEntity
100
AcDbLine
10
203.127610
20
143.914939
30
0.0
11
205.509910
21
144.228542
31
0.0
0
LINE
8
Calque 1
62
4
5
271
100
AcDbEntity
100
AcDbLine
10
205.509910
20
144.228542
30
0.0
11
205.509910
21
147.228542
31
0.0
0
LINE
8
Calque 1
62
4
5
272
100
AcDbEntity
100
AcDbLine
10
205.509910
20
147.228542
30
0.0
11
202.351211
21
146.812741
31
0.0
0
LINE
8
Calque 1
62
4
5
273
100
AcDbEntity
100
AcDbLine
10
202.351211
20
146.812741
30
0.0
11
198.009911
21
145.014539
31
0.0
0
LINE
8
Calque 1
62
4
5
274
100
AcDbEntity
100
AcDbLine
10
198.009911
20
145.014539
30
0.0
11
195.742910
21
143.275040
31
0.0
0
LINE
8
Calque 1
62
4
5
275
100
AcDbEntity
100
AcDbLine
10
195.742910
20
143.275040
30
0.0
11
194.282012
21
142.153940
31
0.0
0
LINE
8
Calque 1
62
4
5
276
100
AcDbEntity
100
AcDbLine
10
194.282012
20
142.153940
30
0.0
11
191.421410
21
138.426042
31
0.0
0
LINE
8
Calque 1
62
4
5
277
100
AcDbEntity
100
AcDbLine
10
191.421410
20
138.426042
30
0.0
11
189.623212
21
134.084741
31
0.0
0
LINE
8
Calque 1
62
4
5
278
100
AcDbEntity
100
AcDbLine
10
189.623212
20
134.084741
30
0.0
11
189.207411
21
130.926040
31
0.0
0
LINE
8
Calque 1
62
4
5
279
100
AcDbEntity
100
AcDbLine
10
189.207411
20
130.926040
30
0.0
11
192.207411
21
130.926040
31
0.0
0
LINE
8
Calque 1
62
4
5
27a
100
AcDbEntity
100
AcDbLine
10
192.207411
20
130.926040
30
0.0
11
192.521010
21
133.308340
31
0.0
0
LINE
8
Calque 1
62
4
5
27b
100
AcDbEntity
100
AcDbLine
10
192.521010
20
133.308340
30
0.0
11
194.019511
21
136.926042
31
0.0
0
LINE
8
Calque 1
62
4
5
27c
100
AcDbEntity
100
AcDbLine
10
194.019511
20
136.926042
30
0.0
11
196.403310
21
140.032640
31
0.0
0
LINE
8
Calque 1
62
4
5
27d
100
AcDbEntity
100
AcDbLine
10
196.403310
20
140.032640
30
0.0
11
197.620811
21
140.966840
31
0.0
0
LINE
8
Calque 1
62
4
5
27e
100
AcDbEntity
100
AcDbLine
10
197.620811
20
140.966840
30
0.0
11
199.509911
21
142.416441
31
0.0
0
LINE
8
Calque 1
62
4
5
27f
100
AcDbEntity
100
AcDbLine
10
199.509911
20
142.416441
30
0.0
11
203.127610
21
143.914939
31
0.0
0
LINE
8
Calque 1
62
4
5
280
100
AcDbEntity
100
AcDbLine
10
208.509898
20
147.228542
30
0.0
11
208.509898
21
144.228542
31
0.0
0
LINE
8
Calque 1
62
4
5
281
100
AcDbEntity
100
AcDbLine
10
208.509898
20
144.228542
30
0.0
11
210.892221
21
143.914939
31
0.0
0
LINE
8
Calque 1
62
4
5
282
100
AcDbEntity
100
AcDbLine
10
210.892221
20
143.914939
30
0.0
11
214.509914
21
142.416441
31
0.0
0
LINE
8
Calque 1
62
4
5
283
100
AcDbEntity
100
AcDbLine
10
214.509914
20
142.416441
30
0.0
11
216.398997
21
140.966840
31
0.0
0
LINE
8
Calque 1
62
4
5
284
100
AcDbEntity
100
AcDbLine
10
216.398997
20
140.966840
30
0.0
11
217.616504
21
140.032640
31
0.0
0
LINE
8
Calque 1
62
4
5
285
100
AcDbEntity
100
AcDbLine
10
217.616504
20
140.032640
30
0.0
11
220.000209
21
136.926042
31
0.0
0
LINE
8
Calque 1
62
4
5
286
100
AcDbEntity
100
AcDbLine
10
220.000209
20
136.926042
30
0.0
11
221.498809
21
133.308340
31
0.0
0
LINE
8
Calque 1
62
4
5
287
100
AcDbEntity
100
AcDbLine
10
221.498809
20
133.308340
30
0.0
11
221.812414
21
130.926040
31
0.0
0
LINE
8
Calque 1
62
4
5
288
100
AcDbEntity
100
AcDbLine
10
221.812414
20
130.926040
30
0.0
11
224.812408
21
130.926040
31
0.0
0
LINE
8
Calque 1
62
4
5
289
100
AcDbEntity
100
AcDbLine
10
224.812408
20
130.926040
30
0.0
11
224.396498
21
134.084741
31
0.0
0
LINE
8
Calque 1
62
4
5
28a
100
AcDbEntity
100
AcDbLine
10
224.396498
20
134.084741
30
0.0
11
222.598319
21
138.426042
31
0.0
0
LINE
8
Calque 1
62
4
5
28b
100
AcDbEntity
100
AcDbLine
10
222.598319
20
138.426042
30
0.0
11
219.737799
21
142.153940
31
0.0
0
LINE
8
Calque 1
62
4
5
28c
100
AcDbEntity
100
AcDbLine
10
219.737799
20
142.153940
30
0.0
11
218.276904
21
143.275040
31
0.0
0
LINE
8
Calque 1
62
4
5
28d
100
AcDbEntity
100
AcDbLine
10
218.276904
20
143.275040
30
0.0
11
216.009897
21
145.014539
31
0.0
0
LINE
8
Calque 1
62
4
5
28e
100
AcDbEntity
100
AcDbLine
10
216.009897
20
145.014539
30
0.0
11
211.668614
21
146.812741
31
0.0
0
LINE
8
Calque 1
62
4
5
28f
100
AcDbEntity
100
AcDbLine
10
211.668614
20
146.812741
30
0.0
11
208.509898
21
147.228542
31
0.0
0
LINE
8
Calque 1
62
4
5
290
100
AcDbEntity
100
AcDbLine
10
205.509910
20
138.228540
30
0.0
11
205.509910
21
141.228539
31
0.0
0
LINE
8
Calque 1
62
4
5
291
100
AcDbEntity
100
AcDbLine
10
205.509910
20
141.228539
30
0.0
11
203.904111
21
141.017141
31
0.0
0
LINE
8
Calque 1
62
4
5
292
100
AcDbEntity
100
AcDbLine
10
203.904111
20
141.017141
30
0.0
11
201.009910
21
139.818340
31
0.0
0
LINE
8
Calque 1
62
4
5
293
100
AcDbEntity
100
AcDbLine
10
201.009910
20
139.818340
30
0.0
11
199.498610
21
138.658641
31
0.0
0
LINE
8
Calque 1
62
4
5
294
100
AcDbEntity
100
AcDbLine
10
199.498610
20
138.658641
30
0.0
11
198.524611
21
137.911342
31
0.0
0
LINE
8
Calque 1
62
4
5
295
100
AcDbEntity
100
AcDbLine
10
198.524611
20
137.911342
30
0.0
11
196.617610
21
135.426039
31
0.0
0
LINE
8
Calque 1
62
4
5
296
100
AcDbEntity
100
AcDbLine
10
196.617610
20
135.426039
30
0.0
11
195.418812
21
132.531842
31
0.0
0
LINE
8
Calque 1
62
4
5
297
100
AcDbEntity
100
AcDbLine
10
195.418812
20
132.531842
30
0.0
11
195.207410
21
130.926040
31
0.0
0
LINE
8
Calque 1
62
4
5
298
100
AcDbEntity
100
AcDbLine
10
195.207410
20
130.926040
30
0.0
11
198.207410
21
130.926040
31
0.0
0
LINE
8
Calque 1
62
4
5
299
100
AcDbEntity
100
AcDbLine
10
198.207410
20
130.926040
30
0.0
11
198.316610
21
131.755440
31
0.0
0
LINE
8
Calque 1
62
4
5
29a
100
AcDbEntity
100
AcDbLine
10
198.316610
20
131.755440
30
0.0
11
199.215711
21
133.926039
31
0.0
0
LINE
8
Calque 1
62
4
5
29b
100
AcDbEntity
100
AcDbLine
10
199.215711
20
133.926039
30
0.0
11
200.645911
21
135.790041
31
0.0
0
LINE
8
Calque 1
62
4
5
29c
100
AcDbEntity
100
AcDbLine
10
200.645911
20
135.790041
30
0.0
11
202.509910
21
137.220242
31
0.0
0
LINE
8
Calque 1
62
4
5
29d
100
AcDbEntity
100
AcDbLine
10
202.509910
20
137.220242
30
0.0
11
204.680510
21
138.119340
31
0.0
0
LINE
8
Calque 1
62
4
5
29e
100
AcDbEntity
100
AcDbLine
10
204.680510
20
138.119340
30
0.0
11
205.509910
21
138.228540
31
0.0
0
LINE
8
Calque 1
62
4
5
29f
100
AcDbEntity
100
AcDbLine
10
210.115714
20
141.017141
30
0.0
11
208.509898
21
141.228539
31
0.0
0
LINE
8
Calque 1
62
4
5
2a0
100
AcDbEntity
100
AcDbLine
10
208.509898
20
141.228539
30
0.0
11
208.509898
21
138.228540
31
0.0
0
LINE
8
Calque 1
62
4
5
2a1
100
AcDbEntity
100
AcDbLine
10
208.509898
20
138.228540
30
0.0
11
209.339321
21
138.119340
31
0.0
0
LINE
8
Calque 1
62
4
5
2a2
100
AcDbEntity
100
AcDbLine
10
209.339321
20
138.119340
30
0.0
11
211.509920
21
137.220242
31
0.0
0
LINE
8
Calque 1
62
4
5
2a3
100
AcDbEntity
100
AcDbLine
10
211.509920
20
137.220242
30
0.0
11
213.373914
21
135.790041
31
0.0
0
LINE
8
Calque 1
62
4
5
2a4
100
AcDbEntity
100
AcDbLine
10
213.373914
20
135.790041
30
0.0
11
214.804103
21
133.926039
31
0.0
0
LINE
8
Calque 1
62
4
5
2a5
100
AcDbEntity
100
AcDbLine
10
214.804103
20
133.926039
30
0.0
11
215.703206
21
131.755440
31
0.0
0
LINE
8
Calque 1
62
4
5
2a6
100
AcDbEntity
100
AcDbLine
10
215.703206
20
131.755440
30
0.0
11
215.812398
21
130.926040
31
0.0
0
LINE
8
Calque 1
62
4
5
2a7
100
AcDbEntity
100
AcDbLine
10
215.812398
20
130.926040
30
0.0
11
218.812420
21
130.926040
31
0.0
0
LINE
8
Calque 1
62
4
5
2a8
100
AcDbEntity
100
AcDbLine
10
218.812420
20
130.926040
30
0.0
11
218.601008
21
132.531842
31
0.0
0
LINE
8
Calque 1
62
4
5
2a9
100
AcDbEntity
100
AcDbLine
10
218.601008
20
132.531842
30
0.0
11
217.402212
21
135.426039
31
0.0
0
LINE
8
Calque 1
62
4
5
2aa
100
AcDbEntity
100
AcDbLine
10
217.402212
20
135.426039
30
0.0
11
215.495209
21
137.911342
31
0.0
0
LINE
8
Calque 1
62
4
5
2ab
100
AcDbEntity
100
AcDbLine
10
215.495209
20
137.911342
30
0.0
11
214.521203
21
138.658641
31
0.0
0
LINE
8
Calque 1
62
4
5
2ac
100
AcDbEntity
100
AcDbLine
10
214.521203
20
138.658641
30
0.0
11
213.009903
21
139.818340
31
0.0
0
LINE
8
Calque 1
62
4
5
2ad
100
AcDbEntity
100
AcDbLine
10
213.009903
20
139.818340
30
0.0
11
210.115714
21
141.017141
31
0.0
0
LINE
8
Calque 1
62
4
5
2ae
100
AcDbEntity
100
AcDbLine
10
69.009909
20
82.749140
30
0.0
11
73.265010
21
86.014141
31
0.0
0
LINE
8
Calque 1
62
4
5
2af
100
AcDbEntity
100
AcDbLine
10
73.265010
20
86.014141
30
0.0
11
75.758610
21
83.520439
31
0.0
0
LINE
8
Calque 1
62
4
5
2b0
100
AcDbEntity
100
AcDbLine
10
75.758610
20
83.520439
30
0.0
11
81.415509
21
89.177341
31
0.0
0
LINE
8
Calque 1
62
4
5
2b1
100
AcDbEntity
100
AcDbLine
10
81.415509
20
89.177341
30
0.0
11
78.921810
21
91.670941
31
0.0
0
LINE
8
Calque 1
62
4
5
2b2
100
AcDbEntity
100
AcDbLine
10
78.921810
20
91.670941
30
0.0
11
82.186811
21
95.926039
31
0.0
0
LINE
8
Calque 1
62
4
5
2b3
100
AcDbEntity
100
AcDbLine
10
82.186811
20
95.926039
30
0.0
11
85.783200
21
104.608541
31
0.0
0
LINE
8
Calque 1
62
4
5
2b4
100
AcDbEntity
100
AcDbLine
10
85.783200
20
104.608541
30
0.0
11
87.009910
21
113.926040
31
0.0
0
LINE
8
Calque 1
62
4
5
2b5
100
AcDbEntity
100
AcDbLine
10
87.009910
20
113.926040
30
0.0
11
85.783200
21
123.243542
31
0.0
0
LINE
8
Calque 1
62
4
5
2b6
100
AcDbEntity
100
AcDbLine
10
85.783200
20
123.243542
30
0.0
11
82.186811
21
131.926041
31
0.0
0
LINE
8
Calque 1
62
4
5
2b7
100
AcDbEntity
100
AcDbLine
10
82.186811
20
131.926041
30
0.0
11
77.386801
21
138.181541
31
0.0
0
LINE
8
Calque 1
62
4
5
2b8
100
AcDbEntity
100
AcDbLine
10
77.386801
20
138.181541
30
0.0
11
79.647711
21
140.442539
31
0.0
0
LINE
8
Calque 1
62
4
5
2b9
100
AcDbEntity
100
AcDbLine
10
79.647711
20
140.442539
30
0.0
11
77.526411
21
142.563840
31
0.0
0
LINE
8
Calque 1
62
4
5
2ba
100
AcDbEntity
100
AcDbLine
10
77.526411
20
142.563840
30
0.0
11
75.265511
21
140.302941
31
0.0
0
LINE
8
Calque 1
62
4
5
2bb
100
AcDbEntity
100
AcDbLine
10
75.265511
20
140.302941
30
0.0
11
69.009909
21
145.102940
31
0.0
0
LINE
8
Calque 1
62
4
5
2bc
100
AcDbEntity
100
AcDbLine
10
69.009909
20
145.102940
30
0.0
11
60.327410
21
148.699340
31
0.0
0
LINE
8
Calque 1
62
4
5
2bd
100
AcDbEntity
100
AcDbLine
10
60.327410
20
148.699340
30
0.0
11
51.009911
21
149.926041
31
0.0
0
LINE
8
Calque 1
62
4
5
2be
100
AcDbEntity
100
AcDbLine
10
51.009911
20
149.926041
30
0.0
11
41.692401
21
148.699340
31
0.0
0
LINE
8
Calque 1
62
4
5
2bf
100
AcDbEntity
100
AcDbLine
10
41.692401
20
148.699340
30
0.0
11
33.009911
21
145.102940
31
0.0
0
LINE
8
Calque 1
62
4
5
2c0
100
AcDbEntity
100
AcDbLine
10
33.009911
20
145.102940
30
0.0
11
26.754402
21
140.302941
31
0.0
0
LINE
8
Calque 1
62
4
5
2c1
100
AcDbEntity
100
AcDbLine
10
26.754402
20
140.302941
30
0.0
11
24.493401
21
142.563840
31
0.0
0
LINE
8
Calque 1
62
4
5
2c2
100
AcDbEntity
100
AcDbLine
10
24.493401
20
142.563840
30
0.0
11
22.372112
21
140.442539
31
0.0
0
LINE
8
Calque 1
62
4
5
2c3
100
AcDbEntity
100
AcDbLine
10
22.372112
20
140.442539
30
0.0
11
24.633011
21
138.181541
31
0.0
0
LINE
8
Calque 1
62
4
5
2c4
100
AcDbEntity
100
AcDbLine
10
24.633011
20
138.181541
30
0.0
11
19.833012
21
131.926041
31
0.0
0
LINE
8
Calque 1
62
4
5
2c5
100
AcDbEntity
100
AcDbLine
10
19.833012
20
131.926041
30
0.0
11
16.236612
21
123.243542
31
0.0
0
LINE
8
Calque 1
62
4
5
2c6
100
AcDbEntity
100
AcDbLine
10
16.236612
20
123.243542
30
0.0
11
15.009911
21
113.926040
31
0.0
0
LINE
8
Calque 1
62
4
5
2c7
100
AcDbEntity
100
AcDbLine
10
15.009911
20
113.926040
30
0.0
11
16.236612
21
104.608541
31
0.0
0
LINE
8
Calque 1
62
4
5
2c8
100
AcDbEntity
100
AcDbLine
10
16.236612
20
104.608541
30
0.0
11
19.833012
21
95.926039
31
0.0
0
LINE
8
Calque 1
62
4
5
2c9
100
AcDbEntity
100
AcDbLine
10
19.833012
20
95.926039
30
0.0
11
24.633011
21
89.670541
31
0.0
0
LINE
8
Calque 1
62
4
5
2ca
100
AcDbEntity
100
AcDbLine
10
24.633011
20
89.670541
30
0.0
11
22.372112
21
87.409541
31
0.0
0
LINE
8
Calque 1
62
4
5
2cb
100
AcDbEntity
100
AcDbLine
10
22.372112
20
87.409541
30
0.0
11
24.493401
21
85.288240
31
0.0
0
LINE
8
Calque 1
62
4
5
2cc
100
AcDbEntity
100
AcDbLine
10
24.493401
20
85.288240
30
0.0
11
26.754402
21
87.549142
31
0.0
0
LINE
8
Calque 1
62
4
5
2cd
100
AcDbEntity
100
AcDbLine
10
26.754402
20
87.549142
30
0.0
11
33.009911
21
82.749140
31
0.0
0
LINE
8
Calque 1
62
4
5
2ce
100
AcDbEntity
100
AcDbLine
10
33.009911
20
82.749140
30
0.0
11
41.692401
21
79.152740
31
0.0
0
LINE
8
Calque 1
62
4
5
2cf
100
AcDbEntity
100
AcDbLine
10
41.692401
20
79.152740
30
0.0
11
51.009911
21
77.926041
31
0.0
0
LINE
8
Calque 1
62
4
5
2d0
100
AcDbEntity
100
AcDbLine
10
51.009911
20
77.926041
30
0.0
11
60.327410
21
79.152740
31
0.0
0
LINE
8
Calque 1
62
4
5
2d1
100
AcDbEntity
100
AcDbLine
10
60.327410
20
79.152740
30
0.0
11
69.009909
21
82.749140
31
0.0
  0
ENDSEC
  0
SECTION
  2
OBJECTS
  0
DICTIONARY
  5
C
330
0
100
AcDbDictionary
  3
ACAD_GROUP
350
D
  3
ACAD_MLINESTYLE
350
17
  0
DICTIONARY
  5
D
330
C
100
AcDbDictionary
  0
DICTIONARY
  5
1A
330
C
100
AcDbDictionary
  0
DICTIONARY
  5
17
330
C
100
AcDbDictionary
  3
STANDARD
350
18
  0
DICTIONARY
  5
19
330
C
100
AcDbDictionary
  0
ENDSEC
  0
EOF
