<?xml version="1.0" standalone="no"?>
<!DOCTYPE svg PUBLIC "-//W3C//DTD SVG 1.1//EN" "http://www.w3.org/Graphics/SVG/1.1/DTD/svg11.dtd">
<svg width="175.9999999999875mm" height="13610.990078032057mm"
 viewBox="0 0 175.9999999999875 13610.990078032057"
 xmlns="http://www.w3.org/2000/svg" version="1.1"
 xmlns:xlink="http://www.w3.org/1999/xlink">
<desc>Output from Flights of Ideas SVG Sketchup Plugin</desc>

  <path id="face0-cut"
 style="fill:none;stroke:#0000FF;stroke-width:1;stroke-miterlimit:4;stroke-dasharray:none;stroke-linejoin:round;stroke-linecap:round"
        d="M 10.0,3358.940115587896 L 15.000000000002501,3358.940115587894 L 15.000000000002501,3343.940115587894 L 18.000000000005002,3343.940115587893 L 18.000000000002274,3358.940115587894 L 158.00000000000023,3358.940115587896 L 157.99999999999977,3343.940115587896 L 161.00000000000114,3343.940115587897 L 161.00000000000023,3358.940115587896 L 165.9999999999875,3358.940115587894 L 165.99999999998613,3328.940115587895 L 10.000000000001137,3328.940115587895 L 10.0,3358.940115587896 "
  />
  <path id="face1-cut"
 style="fill:none;stroke:#0000FF;stroke-width:1;stroke-miterlimit:4;stroke-dasharray:none;stroke-linejoin:round;stroke-linecap:round"
        d="M 10.0,6717.880231175792 L 10.0,6883.109846856261 L 20.007996060759524,6883.1098468562595 L 20.007996060759524,6867.1098468562595 L 23.007996060759524,6867.1098468562595 L 23.00799606075998,6883.109846856261 L 73.00799606075975,6883.1098468562595 L 73.00799606075907,6867.1098468562595 L 76.0079960607593,6867.1098468562595 L 76.00799606075907,6883.1098468562595 L 86.00799606075952,6883.1098468562595 L 86.0079960607593,6840.792361232565 L 81.00799606075884,6840.792361232565 L 81.0079960607593,6843.792361232565 L 46.234666314352125,6853.109846856265 L 10.0,6717.880231175792 "
  />
  <path id="face2-cut"
 style="fill:none;stroke:#0000FF;stroke-width:1;stroke-miterlimit:4;stroke-dasharray:none;stroke-linejoin:round;stroke-linecap:round"
        d="M 86.00799606075952,10242.049962444158 L 86.0079960607602,10076.820346763689 L 49.773329746406944,10212.049962444162 L 15.000000000001137,10202.73247682046 L 15.000000000001137,10199.732476820462 L 10.0,10199.732476820462 L 10.0,10242.049962444158 L 20.000000000001137,10242.049962444158 L 20.0,10226.049962444158 L 23.0,10226.049962444158 L 23.00000000000159,10242.049962444156 L 73.00000000000091,10242.049962444156 L 73.00000000000091,10226.049962444158 L 76.00000000000023,10226.049962444158 L 76.00000000000091,10242.049962444156 L 86.00799606075952,10242.049962444158 "
  />
  <path id="face3-cut"
 style="fill:none;stroke:#0000FF;stroke-width:1;stroke-miterlimit:4;stroke-dasharray:none;stroke-linejoin:round;stroke-linecap:round"
        d="M 10.0,13600.990078032053 L 15.000000000001364,13600.990078032053 L 15.000000000001364,13585.990078032053 L 18.0,13585.990078032055 L 17.999999999999545,13600.990078032057 L 158.00000000000023,13600.990078032053 L 157.9999999999991,13585.990078032053 L 160.9999999999984,13585.990078032055 L 160.99999999999977,13600.990078032055 L 165.99999999998522,13600.990078032055 L 165.99999999998568,13570.990078032051 L 10.000000000001819,13570.990078032053 L 10.0,13600.990078032053 "
  />
  <path id="face0-interior"
 style="fill:none;stroke:#FF0000;stroke-width:1;stroke-miterlimit:4;stroke-dasharray:none;stroke-linejoin:round;stroke-linecap:round"
        d="M 10.0,3358.940115587896 M 15.000000000002501,3358.940115587894 M 15.000000000002501,3343.940115587894 M 18.000000000005002,3343.940115587893 M 18.000000000002274,3358.940115587894 M 158.00000000000023,3358.940115587896 M 157.99999999999977,3343.940115587896 M 161.00000000000114,3343.940115587897 M 161.00000000000023,3358.940115587896 M 165.9999999999875,3358.940115587894 M 165.99999999998613,3328.940115587895 M 10.000000000001137,3328.940115587895 "
  />
  <path id="face1-interior"
 style="fill:none;stroke:#FF0000;stroke-width:1;stroke-miterlimit:4;stroke-dasharray:none;stroke-linejoin:round;stroke-linecap:round"
        d="M 10.0,6717.880231175792 M 10.0,6883.109846856261 M 20.007996060759524,6883.1098468562595 M 20.007996060759524,6867.1098468562595 M 23.007996060759524,6867.1098468562595 M 23.00799606075998,6883.109846856261 M 73.00799606075975,6883.1098468562595 M 73.00799606075907,6867.1098468562595 M 76.0079960607593,6867.1098468562595 M 76.00799606075907,6883.1098468562595 M 86.00799606075952,6883.1098468562595 M 86.0079960607593,6840.792361232565 M 81.00799606075884,6840.792361232565 M 81.0079960607593,6843.792361232565 M 46.234666314352125,6853.109846856265 "
  />
  <path id="face2-interior"
 style="fill:none;stroke:#FF0000;stroke-width:1;stroke-miterlimit:4;stroke-dasharray:none;stroke-linejoin:round;stroke-linecap:round"
        d="M 86.00799606075952,10242.049962444158 M 86.0079960607602,10076.820346763689 M 49.773329746406944,10212.049962444162 M 15.000000000001137,10202.73247682046 M 15.000000000001137,10199.732476820462 M 10.0,10199.732476820462 M 10.0,10242.049962444158 M 20.000000000001137,10242.049962444158 M 20.0,10226.049962444158 M 23.0,10226.049962444158 M 23.00000000000159,10242.049962444156 M 73.00000000000091,10242.049962444156 M 73.00000000000091,10226.049962444158 M 76.00000000000023,10226.049962444158 M 76.00000000000091,10242.049962444156 "
  />
  <path id="face3-interior"
 style="fill:none;stroke:#FF0000;stroke-width:1;stroke-miterlimit:4;stroke-dasharray:none;stroke-linejoin:round;stroke-linecap:round"
        d="M 10.0,13600.990078032053 M 15.000000000001364,13600.990078032053 M 15.000000000001364,13585.990078032053 M 18.0,13585.990078032055 M 17.999999999999545,13600.990078032057 M 158.00000000000023,13600.990078032053 M 157.9999999999991,13585.990078032053 M 160.9999999999984,13585.990078032055 M 160.99999999999977,13600.990078032055 M 165.99999999998522,13600.990078032055 M 165.99999999998568,13570.990078032051 M 10.000000000001819,13570.990078032053 "
  />
  <path id="face0-interior"
 style="fill:none;stroke:#00FF00;stroke-width:1;stroke-miterlimit:4;stroke-dasharray:none;stroke-linejoin:round;stroke-linecap:round"
        d="M 10.0,3358.940115587896 M 15.000000000002501,3358.940115587894 M 15.000000000002501,3343.940115587894 M 18.000000000005002,3343.940115587893 M 18.000000000002274,3358.940115587894 M 158.00000000000023,3358.940115587896 M 157.99999999999977,3343.940115587896 M 161.00000000000114,3343.940115587897 M 161.00000000000023,3358.940115587896 M 165.9999999999875,3358.940115587894 M 165.99999999998613,3328.940115587895 M 10.000000000001137,3328.940115587895 "
  />
  <path id="face1-interior"
 style="fill:none;stroke:#00FF00;stroke-width:1;stroke-miterlimit:4;stroke-dasharray:none;stroke-linejoin:round;stroke-linecap:round"
        d="M 10.0,6717.880231175792 M 10.0,6883.109846856261 M 20.007996060759524,6883.1098468562595 M 20.007996060759524,6867.1098468562595 M 23.007996060759524,6867.1098468562595 M 23.00799606075998,6883.109846856261 M 73.00799606075975,6883.1098468562595 M 73.00799606075907,6867.1098468562595 M 76.0079960607593,6867.1098468562595 M 76.00799606075907,6883.1098468562595 M 86.00799606075952,6883.1098468562595 M 86.0079960607593,6840.792361232565 M 81.00799606075884,6840.792361232565 M 81.0079960607593,6843.792361232565 M 46.234666314352125,6853.109846856265 "
  />
  <path id="face2-interior"
 style="fill:none;stroke:#00FF00;stroke-width:1;stroke-miterlimit:4;stroke-dasharray:none;stroke-linejoin:round;stroke-linecap:round"
        d="M 86.00799606075952,10242.049962444158 M 86.0079960607602,10076.820346763689 M 49.773329746406944,10212.049962444162 M 15.000000000001137,10202.73247682046 M 15.000000000001137,10199.732476820462 M 10.0,10199.732476820462 M 10.0,10242.049962444158 M 20.000000000001137,10242.049962444158 M 20.0,10226.049962444158 M 23.0,10226.049962444158 M 23.00000000000159,10242.049962444156 M 73.00000000000091,10242.049962444156 M 73.00000000000091,10226.049962444158 M 76.00000000000023,10226.049962444158 M 76.00000000000091,10242.049962444156 "
  />
  <path id="face3-interior"
 style="fill:none;stroke:#00FF00;stroke-width:1;stroke-miterlimit:4;stroke-dasharray:none;stroke-linejoin:round;stroke-linecap:round"
        d="M 10.0,13600.990078032053 M 15.000000000001364,13600.990078032053 M 15.000000000001364,13585.990078032053 M 18.0,13585.990078032055 M 17.999999999999545,13600.990078032057 M 158.00000000000023,13600.990078032053 M 157.9999999999991,13585.990078032053 M 160.9999999999984,13585.990078032055 M 160.99999999999977,13600.990078032055 M 165.99999999998522,13600.990078032055 M 165.99999999998568,13570.990078032051 M 10.000000000001819,13570.990078032053 "
  />
</svg>
