999
Inkscape export via "Better DXF Output" (bob@bobcookdev.com)
  0
SECTION
  2
HEADER
  9
$ACADVER
  1
AC1014
  9
$HANDSEED
  5
FFFF
  0
ENDSEC
  0
SECTION
  2
TABLES
  0
TABLE
  2
VPORT
  5
8
330
0
100
AcDbSymbolTable
 70
     4
  0
VPORT
  5
2E
330
8
100
AcDbSymbolTableRecord
100
AcDbViewportTableRecord
  2
*ACTIVE
 70
     0
 10
0.0
 20
0.0
 11
1.0
 21
1.0
 12
4.25
 22
5.5
 13
0.0
 23
0.0
 14
10.0
 24
10.0
 15
10.0
 25
10.0
 16
0.0
 26
0.0
 36
1.0
 17
0.0
 27
0.0
 37
0.0
 40
11
 41
1.24
 42
50.0
 43
0.0
 44
0.0
 50
0.0
 51
0.0
 71
     0
 72
   100
 73
     1
 74
     3
 75
     0
 76
     0
 77
     0
 78
     0
  0
ENDTAB
  0
TABLE
  2
LTYPE
  5
5
330
0
100
AcDbSymbolTable
 70
     1
  0
LTYPE
  5
14
330
5
100
AcDbSymbolTableRecord
100
AcDbLinetypeTableRecord
  2
BYBLOCK
 70
     0
  3

 72
    65
 73
     0
 40
0.0
  0
LTYPE
  5
15
330
5
100
AcDbSymbolTableRecord
100
AcDbLinetypeTableRecord
  2
BYLAYER
 70
     0
  3

 72
    65
 73
     0
 40
0.0
  0
LTYPE
  5
16
330
5
100
AcDbSymbolTableRecord
100
AcDbLinetypeTableRecord
  2
CONTINUOUS
 70
     0
  3
Solid line
 72
    65
 73
     0
 40
0.0
  0
ENDTAB
  0
TABLE
  2
LAYER
  5
2
330
0
100
AcDbSymbolTable
 70
1
  0
LAYER
  5
10
330
2
100
AcDbSymbolTableRecord
100
AcDbLayerTableRecord
  2
0
 70
     0
 62
     7
  6
CONTINUOUS
  0
ENDTAB
  0
TABLE
  2
STYLE
  5
3
330
0
100
AcDbSymbolTable
 70
     1
  0
STYLE
  5
11
330
3
100
AcDbSymbolTableRecord
100
AcDbTextStyleTableRecord
  2
STANDARD
 70
     0
 40
0.0
 41
1.0
 50
0.0
 71
     0
 42
2.5
  3
txt
  4

  0
ENDTAB
  0
TABLE
  2
VIEW
  5
6
330
0
100
AcDbSymbolTable
 70
     0
  0
ENDTAB
  0
TABLE
  2
UCS
  5
7
330
0
100
AcDbSymbolTable
 70
     0
  0
ENDTAB
  0
TABLE
  2
APPID
  5
9
330
0
100
AcDbSymbolTable
 70
     2
  0
APPID
  5
12
330
9
100
AcDbSymbolTableRecord
100
AcDbRegAppTableRecord
  2
ACAD
 70
     0
  0
ENDTAB
  0
TABLE
  2
DIMSTYLE
  5
A
330
0
100
AcDbSymbolTable
 70
     1
  0
DIMSTYLE
105
27
330
A
100
AcDbSymbolTableRecord
100
AcDbDimStyleTableRecord
  2
ISO-25
 70
     0
  3

  4

  5

  6

  7

 40
1.0
 41
2.5
 42
0.625
 43
3.75
 44
1.25
 45
0.0
 46
0.0
 47
0.0
 48
0.0
140
2.5
141
2.5
142
0.0
143
0.03937007874016
144
1.0
145
0.0
146
1.0
147
0.625
 71
     0
 72
     0
 73
     0
 74
     0
 75
     0
 76
     0
 77
     1
 78
     8
170
     0
171
     3
172
     1
173
     0
174
     0
175
     0
176
     0
177
     0
178
     0
270
     2
271
     2
272
     2
273
     2
274
     3
340
11
275
     0
280
     0
281
     0
282
     0
283
     0
284
     8
285
     0
286
     0
287
     3
288
     0
  0
ENDTAB
  0
TABLE
  2
BLOCK_RECORD
  5
1
330
0
100
AcDbSymbolTable
 70
     1
  0
BLOCK_RECORD
  5
1F
330
1
100
AcDbSymbolTableRecord
100
AcDbBlockTableRecord
  2
*MODEL_SPACE
  0
BLOCK_RECORD
  5
1B
330
1
100
AcDbSymbolTableRecord
100
AcDbBlockTableRecord
  2
*PAPER_SPACE
  0
ENDTAB
  0
ENDSEC
  0
SECTION
  2
BLOCKS
  0
BLOCK
  5
20
330
1F
100
AcDbEntity
  8
0
100
AcDbBlockBegin
  2
*MODEL_SPACE
 70
     0
 10
0.0
 20
0.0
 30
0.0
  3
*MODEL_SPACE
  1

  0
ENDBLK
  5
21
330
1F
100
AcDbEntity
  8
0
100
AcDbBlockEnd
  0
BLOCK
  5
1C
330
1B
100
AcDbEntity
 67
     1
  8
0
100
AcDbBlockBegin
  2
*PAPER_SPACE
  1

  0
ENDBLK
  5
1D
330
1B
100
AcDbEntity
 67
     1
  8
0
100
AcDbBlockEnd
  0
ENDSEC
  0
SECTION
  2
ENTITIES
0
LINE
8
Calque 1
62
4
5
100
100
AcDbEntity
100
AcDbLine
10
17.914669
20
250.987313
30
0.0
11
22.914669
21
250.987313
31
0.0
0
LINE
8
Calque 1
62
4
5
101
100
AcDbEntity
100
AcDbLine
10
22.914669
20
250.987313
30
0.0
11
22.914669
21
265.987314
31
0.0
0
LINE
8
Calque 1
62
4
5
102
100
AcDbEntity
100
AcDbLine
10
22.914669
20
265.987314
30
0.0
11
25.914669
21
265.987314
31
0.0
0
LINE
8
Calque 1
62
4
5
103
100
AcDbEntity
100
AcDbLine
10
25.914669
20
265.987314
30
0.0
11
25.914669
21
250.987313
31
0.0
0
LINE
8
Calque 1
62
4
5
104
100
AcDbEntity
100
AcDbLine
10
25.914669
20
250.987313
30
0.0
11
165.914680
21
250.987313
31
0.0
0
LINE
8
Calque 1
62
4
5
105
100
AcDbEntity
100
AcDbLine
10
165.914680
20
250.987313
30
0.0
11
165.914680
21
265.987314
31
0.0
0
LINE
8
Calque 1
62
4
5
106
100
AcDbEntity
100
AcDbLine
10
165.914680
20
265.987314
30
0.0
11
168.914679
21
265.987314
31
0.0
0
LINE
8
Calque 1
62
4
5
107
100
AcDbEntity
100
AcDbLine
10
168.914679
20
265.987314
30
0.0
11
168.914679
21
250.987313
31
0.0
0
LINE
8
Calque 1
62
4
5
108
100
AcDbEntity
100
AcDbLine
10
168.914679
20
250.987313
30
0.0
11
173.914681
21
250.987313
31
0.0
0
LINE
8
Calque 1
62
4
5
109
100
AcDbEntity
100
AcDbLine
10
173.914681
20
250.987313
30
0.0
11
173.914681
21
280.987314
31
0.0
0
LINE
8
Calque 1
62
4
5
10a
100
AcDbEntity
100
AcDbLine
10
173.914681
20
280.987314
30
0.0
11
17.914669
21
280.987314
31
0.0
0
LINE
8
Calque 1
62
4
5
10b
100
AcDbEntity
100
AcDbLine
10
17.914669
20
280.987314
30
0.0
11
17.914669
21
250.987313
31
0.0
0
LINE
8
Calque 1
62
4
5
10c
100
AcDbEntity
100
AcDbLine
10
14.308320
20
214.764714
30
0.0
11
14.308320
21
49.535112
31
0.0
0
LINE
8
Calque 1
62
4
5
10d
100
AcDbEntity
100
AcDbLine
10
14.308320
20
49.535112
30
0.0
11
24.316315
21
49.535112
31
0.0
0
LINE
8
Calque 1
62
4
5
10e
100
AcDbEntity
100
AcDbLine
10
24.316315
20
49.535112
30
0.0
11
24.316315
21
65.535114
31
0.0
0
LINE
8
Calque 1
62
4
5
10f
100
AcDbEntity
100
AcDbLine
10
24.316315
20
65.535114
30
0.0
11
27.316315
21
65.535114
31
0.0
0
LINE
8
Calque 1
62
4
5
110
100
AcDbEntity
100
AcDbLine
10
27.316315
20
65.535114
30
0.0
11
27.316315
21
49.535112
31
0.0
0
LINE
8
Calque 1
62
4
5
111
100
AcDbEntity
100
AcDbLine
10
27.316315
20
49.535112
30
0.0
11
77.316319
21
49.535112
31
0.0
0
LINE
8
Calque 1
62
4
5
112
100
AcDbEntity
100
AcDbLine
10
77.316319
20
49.535112
30
0.0
11
77.316319
21
65.535114
31
0.0
0
LINE
8
Calque 1
62
4
5
113
100
AcDbEntity
100
AcDbLine
10
77.316319
20
65.535114
30
0.0
11
80.316318
21
65.535114
31
0.0
0
LINE
8
Calque 1
62
4
5
114
100
AcDbEntity
100
AcDbLine
10
80.316318
20
65.535114
30
0.0
11
80.316318
21
49.535112
31
0.0
0
LINE
8
Calque 1
62
4
5
115
100
AcDbEntity
100
AcDbLine
10
80.316318
20
49.535112
30
0.0
11
90.316321
21
49.535112
31
0.0
0
LINE
8
Calque 1
62
4
5
116
100
AcDbEntity
100
AcDbLine
10
90.316321
20
49.535112
30
0.0
11
90.316321
21
91.852514
31
0.0
0
LINE
8
Calque 1
62
4
5
117
100
AcDbEntity
100
AcDbLine
10
90.316321
20
91.852514
30
0.0
11
85.316320
21
91.852514
31
0.0
0
LINE
8
Calque 1
62
4
5
118
100
AcDbEntity
100
AcDbLine
10
85.316320
20
91.852514
30
0.0
11
85.316320
21
88.852515
31
0.0
0
LINE
8
Calque 1
62
4
5
119
100
AcDbEntity
100
AcDbLine
10
85.316320
20
88.852515
30
0.0
11
50.542989
21
79.535114
31
0.0
0
LINE
8
Calque 1
62
4
5
11a
100
AcDbEntity
100
AcDbLine
10
50.542989
20
79.535114
30
0.0
11
14.308320
21
214.764714
31
0.0
0
LINE
8
Calque 1
62
4
5
11b
100
AcDbEntity
100
AcDbLine
10
177.573460
20
49.852014
30
0.0
11
177.573460
21
215.082014
31
0.0
0
LINE
8
Calque 1
62
4
5
11c
100
AcDbEntity
100
AcDbLine
10
177.573460
20
215.082014
30
0.0
11
141.338791
21
79.852013
31
0.0
0
LINE
8
Calque 1
62
4
5
11d
100
AcDbEntity
100
AcDbLine
10
141.338791
20
79.852013
30
0.0
11
106.565460
21
89.170015
31
0.0
0
LINE
8
Calque 1
62
4
5
11e
100
AcDbEntity
100
AcDbLine
10
106.565460
20
89.170015
30
0.0
11
106.565460
21
92.170014
31
0.0
0
LINE
8
Calque 1
62
4
5
11f
100
AcDbEntity
100
AcDbLine
10
106.565460
20
92.170014
30
0.0
11
101.565462
21
92.170014
31
0.0
0
LINE
8
Calque 1
62
4
5
120
100
AcDbEntity
100
AcDbLine
10
101.565462
20
92.170014
30
0.0
11
101.565462
21
49.852014
31
0.0
0
LINE
8
Calque 1
62
4
5
121
100
AcDbEntity
100
AcDbLine
10
101.565462
20
49.852014
30
0.0
11
111.565461
21
49.852014
31
0.0
0
LINE
8
Calque 1
62
4
5
122
100
AcDbEntity
100
AcDbLine
10
111.565461
20
49.852014
30
0.0
11
111.565461
21
65.852013
31
0.0
0
LINE
8
Calque 1
62
4
5
123
100
AcDbEntity
100
AcDbLine
10
111.565461
20
65.852013
30
0.0
11
114.565461
21
65.852013
31
0.0
0
LINE
8
Calque 1
62
4
5
124
100
AcDbEntity
100
AcDbLine
10
114.565461
20
65.852013
30
0.0
11
114.565461
21
49.852014
31
0.0
0
LINE
8
Calque 1
62
4
5
125
100
AcDbEntity
100
AcDbLine
10
114.565461
20
49.852014
30
0.0
11
164.565460
21
49.852014
31
0.0
0
LINE
8
Calque 1
62
4
5
126
100
AcDbEntity
100
AcDbLine
10
164.565460
20
49.852014
30
0.0
11
164.565460
21
65.852013
31
0.0
0
LINE
8
Calque 1
62
4
5
127
100
AcDbEntity
100
AcDbLine
10
164.565460
20
65.852013
30
0.0
11
167.565471
21
65.852013
31
0.0
0
LINE
8
Calque 1
62
4
5
128
100
AcDbEntity
100
AcDbLine
10
167.565471
20
65.852013
30
0.0
11
167.565471
21
49.852014
31
0.0
0
LINE
8
Calque 1
62
4
5
129
100
AcDbEntity
100
AcDbLine
10
167.565471
20
49.852014
30
0.0
11
177.573460
21
49.852014
31
0.0
0
LINE
8
Calque 1
62
4
5
12a
100
AcDbEntity
100
AcDbLine
10
17.660702
20
216.258113
30
0.0
11
22.660701
21
216.258113
31
0.0
0
LINE
8
Calque 1
62
4
5
12b
100
AcDbEntity
100
AcDbLine
10
22.660701
20
216.258113
30
0.0
11
22.660701
21
231.258114
31
0.0
0
LINE
8
Calque 1
62
4
5
12c
100
AcDbEntity
100
AcDbLine
10
22.660701
20
231.258114
30
0.0
11
25.660701
21
231.258114
31
0.0
0
LINE
8
Calque 1
62
4
5
12d
100
AcDbEntity
100
AcDbLine
10
25.660701
20
231.258114
30
0.0
11
25.660701
21
216.258113
31
0.0
0
LINE
8
Calque 1
62
4
5
12e
100
AcDbEntity
100
AcDbLine
10
25.660701
20
216.258113
30
0.0
11
165.660708
21
216.258113
31
0.0
0
LINE
8
Calque 1
62
4
5
12f
100
AcDbEntity
100
AcDbLine
10
165.660708
20
216.258113
30
0.0
11
165.660708
21
231.258114
31
0.0
0
LINE
8
Calque 1
62
4
5
130
100
AcDbEntity
100
AcDbLine
10
165.660708
20
231.258114
30
0.0
11
168.660707
21
231.258114
31
0.0
0
LINE
8
Calque 1
62
4
5
131
100
AcDbEntity
100
AcDbLine
10
168.660707
20
231.258114
30
0.0
11
168.660707
21
216.258113
31
0.0
0
LINE
8
Calque 1
62
4
5
132
100
AcDbEntity
100
AcDbLine
10
168.660707
20
216.258113
30
0.0
11
173.660717
21
216.258113
31
0.0
0
LINE
8
Calque 1
62
4
5
133
100
AcDbEntity
100
AcDbLine
10
173.660717
20
216.258113
30
0.0
11
173.660717
21
246.258115
31
0.0
0
LINE
8
Calque 1
62
4
5
134
100
AcDbEntity
100
AcDbLine
10
173.660717
20
246.258115
30
0.0
11
17.660702
21
246.258115
31
0.0
0
LINE
8
Calque 1
62
4
5
135
100
AcDbEntity
100
AcDbLine
10
17.660702
20
246.258115
30
0.0
11
17.660702
21
216.258113
31
0.0
  0
ENDSEC
  0
SECTION
  2
OBJECTS
  0
DICTIONARY
  5
C
330
0
100
AcDbDictionary
  3
ACAD_GROUP
350
D
  3
ACAD_MLINESTYLE
350
17
  0
DICTIONARY
  5
D
330
C
100
AcDbDictionary
  0
DICTIONARY
  5
1A
330
C
100
AcDbDictionary
  0
DICTIONARY
  5
17
330
C
100
AcDbDictionary
  3
STANDARD
350
18
  0
DICTIONARY
  5
19
330
C
100
AcDbDictionary
  0
ENDSEC
  0
EOF
