999
Inkscape export via "Better DXF Output" (bob@bobcookdev.com)
  0
SECTION
  2
HEADER
  9
$ACADVER
  1
AC1014
  9
$HANDSEED
  5
FFFF
  0
ENDSEC
  0
SECTION
  2
TABLES
  0
TABLE
  2
VPORT
  5
8
330
0
100
AcDbSymbolTable
 70
     4
  0
VPORT
  5
2E
330
8
100
AcDbSymbolTableRecord
100
AcDbViewportTableRecord
  2
*ACTIVE
 70
     0
 10
0.0
 20
0.0
 11
1.0
 21
1.0
 12
4.25
 22
5.5
 13
0.0
 23
0.0
 14
10.0
 24
10.0
 15
10.0
 25
10.0
 16
0.0
 26
0.0
 36
1.0
 17
0.0
 27
0.0
 37
0.0
 40
11
 41
1.24
 42
50.0
 43
0.0
 44
0.0
 50
0.0
 51
0.0
 71
     0
 72
   100
 73
     1
 74
     3
 75
     0
 76
     0
 77
     0
 78
     0
  0
ENDTAB
  0
TABLE
  2
LTYPE
  5
5
330
0
100
AcDbSymbolTable
 70
     1
  0
LTYPE
  5
14
330
5
100
AcDbSymbolTableRecord
100
AcDbLinetypeTableRecord
  2
BYBLOCK
 70
     0
  3

 72
    65
 73
     0
 40
0.0
  0
LTYPE
  5
15
330
5
100
AcDbSymbolTableRecord
100
AcDbLinetypeTableRecord
  2
BYLAYER
 70
     0
  3

 72
    65
 73
     0
 40
0.0
  0
LTYPE
  5
16
330
5
100
AcDbSymbolTableRecord
100
AcDbLinetypeTableRecord
  2
CONTINUOUS
 70
     0
  3
Solid line
 72
    65
 73
     0
 40
0.0
  0
ENDTAB
  0
TABLE
  2
LAYER
  5
2
330
0
100
AcDbSymbolTable
 70
1
  0
LAYER
  5
10
330
2
100
AcDbSymbolTableRecord
100
AcDbLayerTableRecord
  2
0
 70
     0
 62
     7
  6
CONTINUOUS
  0
ENDTAB
  0
TABLE
  2
STYLE
  5
3
330
0
100
AcDbSymbolTable
 70
     1
  0
STYLE
  5
11
330
3
100
AcDbSymbolTableRecord
100
AcDbTextStyleTableRecord
  2
STANDARD
 70
     0
 40
0.0
 41
1.0
 50
0.0
 71
     0
 42
2.5
  3
txt
  4

  0
ENDTAB
  0
TABLE
  2
VIEW
  5
6
330
0
100
AcDbSymbolTable
 70
     0
  0
ENDTAB
  0
TABLE
  2
UCS
  5
7
330
0
100
AcDbSymbolTable
 70
     0
  0
ENDTAB
  0
TABLE
  2
APPID
  5
9
330
0
100
AcDbSymbolTable
 70
     2
  0
APPID
  5
12
330
9
100
AcDbSymbolTableRecord
100
AcDbRegAppTableRecord
  2
ACAD
 70
     0
  0
ENDTAB
  0
TABLE
  2
DIMSTYLE
  5
A
330
0
100
AcDbSymbolTable
 70
     1
  0
DIMSTYLE
105
27
330
A
100
AcDbSymbolTableRecord
100
AcDbDimStyleTableRecord
  2
ISO-25
 70
     0
  3

  4

  5

  6

  7

 40
1.0
 41
2.5
 42
0.625
 43
3.75
 44
1.25
 45
0.0
 46
0.0
 47
0.0
 48
0.0
140
2.5
141
2.5
142
0.0
143
0.03937007874016
144
1.0
145
0.0
146
1.0
147
0.625
 71
     0
 72
     0
 73
     0
 74
     0
 75
     0
 76
     0
 77
     1
 78
     8
170
     0
171
     3
172
     1
173
     0
174
     0
175
     0
176
     0
177
     0
178
     0
270
     2
271
     2
272
     2
273
     2
274
     3
340
11
275
     0
280
     0
281
     0
282
     0
283
     0
284
     8
285
     0
286
     0
287
     3
288
     0
  0
ENDTAB
  0
TABLE
  2
BLOCK_RECORD
  5
1
330
0
100
AcDbSymbolTable
 70
     1
  0
BLOCK_RECORD
  5
1F
330
1
100
AcDbSymbolTableRecord
100
AcDbBlockTableRecord
  2
*MODEL_SPACE
  0
BLOCK_RECORD
  5
1B
330
1
100
AcDbSymbolTableRecord
100
AcDbBlockTableRecord
  2
*PAPER_SPACE
  0
ENDTAB
  0
ENDSEC
  0
SECTION
  2
BLOCKS
  0
BLOCK
  5
20
330
1F
100
AcDbEntity
  8
0
100
AcDbBlockBegin
  2
*MODEL_SPACE
 70
     0
 10
0.0
 20
0.0
 30
0.0
  3
*MODEL_SPACE
  1

  0
ENDBLK
  5
21
330
1F
100
AcDbEntity
  8
0
100
AcDbBlockEnd
  0
BLOCK
  5
1C
330
1B
100
AcDbEntity
 67
     1
  8
0
100
AcDbBlockBegin
  2
*PAPER_SPACE
  1

  0
ENDBLK
  5
1D
330
1B
100
AcDbEntity
 67
     1
  8
0
100
AcDbBlockEnd
  0
ENDSEC
  0
SECTION
  2
ENTITIES
0
LINE
8
Calque 1
62
4
5
100
100
AcDbEntity
100
AcDbLine
10
244.610729
20
102.847308
30
0.0
11
244.610729
21
112.847308
31
0.0
0
LINE
8
Calque 1
62
4
5
101
100
AcDbEntity
100
AcDbLine
10
244.610729
20
112.847308
30
0.0
11
241.610735
21
112.847308
31
0.0
0
LINE
8
Calque 1
62
4
5
102
100
AcDbEntity
100
AcDbLine
10
241.610735
20
112.847308
30
0.0
11
241.610735
21
122.847310
31
0.0
0
LINE
8
Calque 1
62
4
5
103
100
AcDbEntity
100
AcDbLine
10
241.610735
20
122.847310
30
0.0
11
97.610744
21
122.847310
31
0.0
0
LINE
8
Calque 1
62
4
5
104
100
AcDbEntity
100
AcDbLine
10
97.610744
20
122.847310
30
0.0
11
97.610744
21
112.847308
31
0.0
0
LINE
8
Calque 1
62
4
5
105
100
AcDbEntity
100
AcDbLine
10
97.610744
20
112.847308
30
0.0
11
94.610750
21
112.847308
31
0.0
0
LINE
8
Calque 1
62
4
5
106
100
AcDbEntity
100
AcDbLine
10
94.610750
20
112.847308
30
0.0
11
94.610750
21
102.847308
31
0.0
0
LINE
8
Calque 1
62
4
5
107
100
AcDbEntity
100
AcDbLine
10
94.610750
20
102.847308
30
0.0
11
97.610744
21
102.847308
31
0.0
0
LINE
8
Calque 1
62
4
5
108
100
AcDbEntity
100
AcDbLine
10
97.610744
20
102.847308
30
0.0
11
97.610744
21
92.847308
31
0.0
0
LINE
8
Calque 1
62
4
5
109
100
AcDbEntity
100
AcDbLine
10
97.610744
20
92.847308
30
0.0
11
104.610730
21
92.847308
31
0.0
0
LINE
8
Calque 1
62
4
5
10a
100
AcDbEntity
100
AcDbLine
10
104.610730
20
92.847308
30
0.0
11
104.610730
21
89.847306
31
0.0
0
LINE
8
Calque 1
62
4
5
10b
100
AcDbEntity
100
AcDbLine
10
104.610730
20
89.847306
30
0.0
11
114.610738
21
89.847306
31
0.0
0
LINE
8
Calque 1
62
4
5
10c
100
AcDbEntity
100
AcDbLine
10
114.610738
20
89.847306
30
0.0
11
114.610738
21
92.847308
31
0.0
0
LINE
8
Calque 1
62
4
5
10d
100
AcDbEntity
100
AcDbLine
10
114.610738
20
92.847308
30
0.0
11
124.610746
21
92.847308
31
0.0
0
LINE
8
Calque 1
62
4
5
10e
100
AcDbEntity
100
AcDbLine
10
124.610746
20
92.847308
30
0.0
11
124.610746
21
89.847306
31
0.0
0
LINE
8
Calque 1
62
4
5
10f
100
AcDbEntity
100
AcDbLine
10
124.610746
20
89.847306
30
0.0
11
134.610726
21
89.847306
31
0.0
0
LINE
8
Calque 1
62
4
5
110
100
AcDbEntity
100
AcDbLine
10
134.610726
20
89.847306
30
0.0
11
134.610726
21
92.847308
31
0.0
0
LINE
8
Calque 1
62
4
5
111
100
AcDbEntity
100
AcDbLine
10
134.610726
20
92.847308
30
0.0
11
144.610737
21
92.847308
31
0.0
0
LINE
8
Calque 1
62
4
5
112
100
AcDbEntity
100
AcDbLine
10
144.610737
20
92.847308
30
0.0
11
144.610737
21
89.847306
31
0.0
0
LINE
8
Calque 1
62
4
5
113
100
AcDbEntity
100
AcDbLine
10
144.610737
20
89.847306
30
0.0
11
154.610737
21
89.847306
31
0.0
0
LINE
8
Calque 1
62
4
5
114
100
AcDbEntity
100
AcDbLine
10
154.610737
20
89.847306
30
0.0
11
154.610737
21
92.847308
31
0.0
0
LINE
8
Calque 1
62
4
5
115
100
AcDbEntity
100
AcDbLine
10
154.610737
20
92.847308
30
0.0
11
164.610740
21
92.847308
31
0.0
0
LINE
8
Calque 1
62
4
5
116
100
AcDbEntity
100
AcDbLine
10
164.610740
20
92.847308
30
0.0
11
164.610740
21
89.847306
31
0.0
0
LINE
8
Calque 1
62
4
5
117
100
AcDbEntity
100
AcDbLine
10
164.610740
20
89.847306
30
0.0
11
174.610739
21
89.847306
31
0.0
0
LINE
8
Calque 1
62
4
5
118
100
AcDbEntity
100
AcDbLine
10
174.610739
20
89.847306
30
0.0
11
174.610739
21
92.847308
31
0.0
0
LINE
8
Calque 1
62
4
5
119
100
AcDbEntity
100
AcDbLine
10
174.610739
20
92.847308
30
0.0
11
184.610739
21
92.847308
31
0.0
0
LINE
8
Calque 1
62
4
5
11a
100
AcDbEntity
100
AcDbLine
10
184.610739
20
92.847308
30
0.0
11
184.610739
21
89.847306
31
0.0
0
LINE
8
Calque 1
62
4
5
11b
100
AcDbEntity
100
AcDbLine
10
184.610739
20
89.847306
30
0.0
11
194.610739
21
89.847306
31
0.0
0
LINE
8
Calque 1
62
4
5
11c
100
AcDbEntity
100
AcDbLine
10
194.610739
20
89.847306
30
0.0
11
194.610739
21
92.847308
31
0.0
0
LINE
8
Calque 1
62
4
5
11d
100
AcDbEntity
100
AcDbLine
10
194.610739
20
92.847308
30
0.0
11
204.610739
21
92.847308
31
0.0
0
LINE
8
Calque 1
62
4
5
11e
100
AcDbEntity
100
AcDbLine
10
204.610739
20
92.847308
30
0.0
11
204.610739
21
89.847306
31
0.0
0
LINE
8
Calque 1
62
4
5
11f
100
AcDbEntity
100
AcDbLine
10
204.610739
20
89.847306
30
0.0
11
214.610738
21
89.847306
31
0.0
0
LINE
8
Calque 1
62
4
5
120
100
AcDbEntity
100
AcDbLine
10
214.610738
20
89.847306
30
0.0
11
214.610738
21
92.847308
31
0.0
0
LINE
8
Calque 1
62
4
5
121
100
AcDbEntity
100
AcDbLine
10
214.610738
20
92.847308
30
0.0
11
224.610738
21
92.847308
31
0.0
0
LINE
8
Calque 1
62
4
5
122
100
AcDbEntity
100
AcDbLine
10
224.610738
20
92.847308
30
0.0
11
224.610738
21
89.847306
31
0.0
0
LINE
8
Calque 1
62
4
5
123
100
AcDbEntity
100
AcDbLine
10
224.610738
20
89.847306
30
0.0
11
234.610749
21
89.847306
31
0.0
0
LINE
8
Calque 1
62
4
5
124
100
AcDbEntity
100
AcDbLine
10
234.610749
20
89.847306
30
0.0
11
234.610749
21
92.847308
31
0.0
0
LINE
8
Calque 1
62
4
5
125
100
AcDbEntity
100
AcDbLine
10
234.610749
20
92.847308
30
0.0
11
241.610735
21
92.847308
31
0.0
0
LINE
8
Calque 1
62
4
5
126
100
AcDbEntity
100
AcDbLine
10
241.610735
20
92.847308
30
0.0
11
241.610735
21
102.847308
31
0.0
0
LINE
8
Calque 1
62
4
5
127
100
AcDbEntity
100
AcDbLine
10
241.610735
20
102.847308
30
0.0
11
244.610729
21
102.847308
31
0.0
0
LINE
8
Calque 1
62
4
5
128
100
AcDbEntity
100
AcDbLine
10
92.116554
20
58.351444
30
0.0
11
91.995227
21
58.444546
31
0.0
0
LINE
8
Calque 1
62
4
5
129
100
AcDbEntity
100
AcDbLine
10
91.995227
20
58.444546
30
0.0
11
91.995227
21
101.230138
31
0.0
0
LINE
8
Calque 1
62
4
5
12a
100
AcDbEntity
100
AcDbLine
10
91.995227
20
101.230138
30
0.0
11
88.995233
21
101.230138
31
0.0
0
LINE
8
Calque 1
62
4
5
12b
100
AcDbEntity
100
AcDbLine
10
88.995233
20
101.230138
30
0.0
11
88.995233
21
111.230138
31
0.0
0
LINE
8
Calque 1
62
4
5
12c
100
AcDbEntity
100
AcDbLine
10
88.995233
20
111.230138
30
0.0
11
91.995227
21
111.230138
31
0.0
0
LINE
8
Calque 1
62
4
5
12d
100
AcDbEntity
100
AcDbLine
10
91.995227
20
111.230138
30
0.0
11
91.995227
21
121.230140
31
0.0
0
LINE
8
Calque 1
62
4
5
12e
100
AcDbEntity
100
AcDbLine
10
91.995227
20
121.230140
30
0.0
11
86.995237
21
121.230140
31
0.0
0
LINE
8
Calque 1
62
4
5
12f
100
AcDbEntity
100
AcDbLine
10
86.995237
20
121.230140
30
0.0
11
86.995237
21
124.230140
31
0.0
0
LINE
8
Calque 1
62
4
5
130
100
AcDbEntity
100
AcDbLine
10
86.995237
20
124.230140
30
0.0
11
76.995229
21
124.230140
31
0.0
0
LINE
8
Calque 1
62
4
5
131
100
AcDbEntity
100
AcDbLine
10
76.995229
20
124.230140
30
0.0
11
76.995229
21
121.230140
31
0.0
0
LINE
8
Calque 1
62
4
5
132
100
AcDbEntity
100
AcDbLine
10
76.995229
20
121.230140
30
0.0
11
66.995249
21
121.230140
31
0.0
0
LINE
8
Calque 1
62
4
5
133
100
AcDbEntity
100
AcDbLine
10
66.995249
20
121.230140
30
0.0
11
66.995249
21
124.230140
31
0.0
0
LINE
8
Calque 1
62
4
5
134
100
AcDbEntity
100
AcDbLine
10
66.995249
20
124.230140
30
0.0
11
56.995241
21
124.230140
31
0.0
0
LINE
8
Calque 1
62
4
5
135
100
AcDbEntity
100
AcDbLine
10
56.995241
20
124.230140
30
0.0
11
56.995241
21
121.230140
31
0.0
0
LINE
8
Calque 1
62
4
5
136
100
AcDbEntity
100
AcDbLine
10
56.995241
20
121.230140
30
0.0
11
46.995232
21
121.230140
31
0.0
0
LINE
8
Calque 1
62
4
5
137
100
AcDbEntity
100
AcDbLine
10
46.995232
20
121.230140
30
0.0
11
46.995232
21
124.230140
31
0.0
0
LINE
8
Calque 1
62
4
5
138
100
AcDbEntity
100
AcDbLine
10
46.995232
20
124.230140
30
0.0
11
36.995252
21
124.230140
31
0.0
0
LINE
8
Calque 1
62
4
5
139
100
AcDbEntity
100
AcDbLine
10
36.995252
20
124.230140
30
0.0
11
36.995252
21
121.230140
31
0.0
0
LINE
8
Calque 1
62
4
5
13a
100
AcDbEntity
100
AcDbLine
10
36.995252
20
121.230140
30
0.0
11
26.995245
21
121.230140
31
0.0
0
LINE
8
Calque 1
62
4
5
13b
100
AcDbEntity
100
AcDbLine
10
26.995245
20
121.230140
30
0.0
11
26.995245
21
124.230140
31
0.0
0
LINE
8
Calque 1
62
4
5
13c
100
AcDbEntity
100
AcDbLine
10
26.995245
20
124.230140
30
0.0
11
16.995237
21
124.230140
31
0.0
0
LINE
8
Calque 1
62
4
5
13d
100
AcDbEntity
100
AcDbLine
10
16.995237
20
124.230140
30
0.0
11
16.995237
21
121.230140
31
0.0
0
LINE
8
Calque 1
62
4
5
13e
100
AcDbEntity
100
AcDbLine
10
16.995237
20
121.230140
30
0.0
11
6.995229
21
121.230140
31
0.0
0
LINE
8
Calque 1
62
4
5
13f
100
AcDbEntity
100
AcDbLine
10
6.995229
20
121.230140
30
0.0
11
6.995229
21
124.230140
31
0.0
0
LINE
8
Calque 1
62
4
5
140
100
AcDbEntity
100
AcDbLine
10
6.995229
20
124.230140
30
0.0
11
-3.004751
21
124.230140
31
0.0
0
LINE
8
Calque 1
62
4
5
141
100
AcDbEntity
100
AcDbLine
10
-3.004751
20
124.230140
30
0.0
11
-3.004751
21
121.230140
31
0.0
0
LINE
8
Calque 1
62
4
5
142
100
AcDbEntity
100
AcDbLine
10
-3.004751
20
121.230140
30
0.0
11
-8.004770
21
121.230140
31
0.0
0
LINE
8
Calque 1
62
4
5
143
100
AcDbEntity
100
AcDbLine
10
-8.004770
20
121.230140
30
0.0
11
-8.004770
21
111.230138
31
0.0
0
LINE
8
Calque 1
62
4
5
144
100
AcDbEntity
100
AcDbLine
10
-8.004770
20
111.230138
30
0.0
11
-5.004747
21
111.230138
31
0.0
0
LINE
8
Calque 1
62
4
5
145
100
AcDbEntity
100
AcDbLine
10
-5.004747
20
111.230138
30
0.0
11
-5.004747
21
101.230138
31
0.0
0
LINE
8
Calque 1
62
4
5
146
100
AcDbEntity
100
AcDbLine
10
-5.004747
20
101.230138
30
0.0
11
-8.004770
21
101.230138
31
0.0
0
LINE
8
Calque 1
62
4
5
147
100
AcDbEntity
100
AcDbLine
10
-8.004770
20
101.230138
30
0.0
11
-8.004770
21
58.444546
31
0.0
0
LINE
8
Calque 1
62
4
5
148
100
AcDbEntity
100
AcDbLine
10
-8.004770
20
58.444546
30
0.0
11
-8.126069
21
58.351444
31
0.0
0
LINE
8
Calque 1
62
4
5
149
100
AcDbEntity
100
AcDbLine
10
-8.126069
20
58.351444
30
0.0
11
-8.602827
21
57.730126
31
0.0
0
LINE
8
Calque 1
62
4
5
14a
100
AcDbEntity
100
AcDbLine
10
-8.602827
20
57.730126
30
0.0
11
-8.902547
21
57.006576
31
0.0
0
LINE
8
Calque 1
62
4
5
14b
100
AcDbEntity
100
AcDbLine
10
-8.902547
20
57.006576
30
0.0
11
-9.004768
21
56.230126
31
0.0
0
LINE
8
Calque 1
62
4
5
14c
100
AcDbEntity
100
AcDbLine
10
-9.004768
20
56.230126
30
0.0
11
-8.902547
21
55.453665
31
0.0
0
LINE
8
Calque 1
62
4
5
14d
100
AcDbEntity
100
AcDbLine
10
-8.902547
20
55.453665
30
0.0
11
-8.602827
21
54.730124
31
0.0
0
LINE
8
Calque 1
62
4
5
14e
100
AcDbEntity
100
AcDbLine
10
-8.602827
20
54.730124
30
0.0
11
-8.126069
21
54.108794
31
0.0
0
LINE
8
Calque 1
62
4
5
14f
100
AcDbEntity
100
AcDbLine
10
-8.126069
20
54.108794
30
0.0
11
-7.504757
21
53.632045
31
0.0
0
LINE
8
Calque 1
62
4
5
150
100
AcDbEntity
100
AcDbLine
10
-7.504757
20
53.632045
30
0.0
11
-6.781223
21
53.332345
31
0.0
0
LINE
8
Calque 1
62
4
5
151
100
AcDbEntity
100
AcDbLine
10
-6.781223
20
53.332345
30
0.0
11
-6.004774
21
53.230124
31
0.0
0
LINE
8
Calque 1
62
4
5
152
100
AcDbEntity
100
AcDbLine
10
-6.004774
20
53.230124
30
0.0
11
-5.228296
21
53.332345
31
0.0
0
LINE
8
Calque 1
62
4
5
153
100
AcDbEntity
100
AcDbLine
10
-5.228296
20
53.332345
30
0.0
11
-4.504763
21
53.632045
31
0.0
0
LINE
8
Calque 1
62
4
5
154
100
AcDbEntity
100
AcDbLine
10
-4.504763
20
53.632045
30
0.0
11
-3.883450
21
54.108794
31
0.0
0
LINE
8
Calque 1
62
4
5
155
100
AcDbEntity
100
AcDbLine
10
-3.883450
20
54.108794
30
0.0
11
-3.406692
21
54.730124
31
0.0
0
LINE
8
Calque 1
62
4
5
156
100
AcDbEntity
100
AcDbLine
10
-3.406692
20
54.730124
30
0.0
11
-3.106972
21
55.453665
31
0.0
0
LINE
8
Calque 1
62
4
5
157
100
AcDbEntity
100
AcDbLine
10
-3.106972
20
55.453665
30
0.0
11
-3.004751
21
56.230126
31
0.0
0
LINE
8
Calque 1
62
4
5
158
100
AcDbEntity
100
AcDbLine
10
-3.004751
20
56.230126
30
0.0
11
-3.106972
21
57.006576
31
0.0
0
LINE
8
Calque 1
62
4
5
159
100
AcDbEntity
100
AcDbLine
10
-3.106972
20
57.006576
30
0.0
11
-3.406692
21
57.730126
31
0.0
0
LINE
8
Calque 1
62
4
5
15a
100
AcDbEntity
100
AcDbLine
10
-3.406692
20
57.730126
30
0.0
11
-3.883450
21
58.351444
31
0.0
0
LINE
8
Calque 1
62
4
5
15b
100
AcDbEntity
100
AcDbLine
10
-3.883450
20
58.351444
30
0.0
11
-4.004749
21
58.444546
31
0.0
0
LINE
8
Calque 1
62
4
5
15c
100
AcDbEntity
100
AcDbLine
10
-4.004749
20
58.444546
30
0.0
11
-4.004749
21
66.230134
31
0.0
0
LINE
8
Calque 1
62
4
5
15d
100
AcDbEntity
100
AcDbLine
10
-4.004749
20
66.230134
30
0.0
11
41.995242
21
41.230134
31
0.0
0
LINE
8
Calque 1
62
4
5
15e
100
AcDbEntity
100
AcDbLine
10
41.995242
20
41.230134
30
0.0
11
87.995235
21
66.230134
31
0.0
0
LINE
8
Calque 1
62
4
5
15f
100
AcDbEntity
100
AcDbLine
10
87.995235
20
66.230134
30
0.0
11
87.995235
21
58.444546
31
0.0
0
LINE
8
Calque 1
62
4
5
160
100
AcDbEntity
100
AcDbLine
10
87.995235
20
58.444546
30
0.0
11
87.873908
21
58.351444
31
0.0
0
LINE
8
Calque 1
62
4
5
161
100
AcDbEntity
100
AcDbLine
10
87.873908
20
58.351444
30
0.0
11
87.397178
21
57.730126
31
0.0
0
LINE
8
Calque 1
62
4
5
162
100
AcDbEntity
100
AcDbLine
10
87.397178
20
57.730126
30
0.0
11
87.097458
21
57.006576
31
0.0
0
LINE
8
Calque 1
62
4
5
163
100
AcDbEntity
100
AcDbLine
10
87.097458
20
57.006576
30
0.0
11
86.995237
21
56.230126
31
0.0
0
LINE
8
Calque 1
62
4
5
164
100
AcDbEntity
100
AcDbLine
10
86.995237
20
56.230126
30
0.0
11
87.097458
21
55.453665
31
0.0
0
LINE
8
Calque 1
62
4
5
165
100
AcDbEntity
100
AcDbLine
10
87.097458
20
55.453665
30
0.0
11
87.397178
21
54.730124
31
0.0
0
LINE
8
Calque 1
62
4
5
166
100
AcDbEntity
100
AcDbLine
10
87.397178
20
54.730124
30
0.0
11
87.873908
21
54.108794
31
0.0
0
LINE
8
Calque 1
62
4
5
167
100
AcDbEntity
100
AcDbLine
10
87.873908
20
54.108794
30
0.0
11
88.495248
21
53.632045
31
0.0
0
LINE
8
Calque 1
62
4
5
168
100
AcDbEntity
100
AcDbLine
10
88.495248
20
53.632045
30
0.0
11
89.218781
21
53.332345
31
0.0
0
LINE
8
Calque 1
62
4
5
169
100
AcDbEntity
100
AcDbLine
10
89.218781
20
53.332345
30
0.0
11
89.995231
21
53.230124
31
0.0
0
LINE
8
Calque 1
62
4
5
16a
100
AcDbEntity
100
AcDbLine
10
89.995231
20
53.230124
30
0.0
11
90.771709
21
53.332345
31
0.0
0
LINE
8
Calque 1
62
4
5
16b
100
AcDbEntity
100
AcDbLine
10
90.771709
20
53.332345
30
0.0
11
91.495242
21
53.632045
31
0.0
0
LINE
8
Calque 1
62
4
5
16c
100
AcDbEntity
100
AcDbLine
10
91.495242
20
53.632045
30
0.0
11
92.116554
21
54.108794
31
0.0
0
LINE
8
Calque 1
62
4
5
16d
100
AcDbEntity
100
AcDbLine
10
92.116554
20
54.108794
30
0.0
11
92.593312
21
54.730124
31
0.0
0
LINE
8
Calque 1
62
4
5
16e
100
AcDbEntity
100
AcDbLine
10
92.593312
20
54.730124
30
0.0
11
92.893004
21
55.453665
31
0.0
0
LINE
8
Calque 1
62
4
5
16f
100
AcDbEntity
100
AcDbLine
10
92.893004
20
55.453665
30
0.0
11
92.995225
21
56.230126
31
0.0
0
LINE
8
Calque 1
62
4
5
170
100
AcDbEntity
100
AcDbLine
10
92.995225
20
56.230126
30
0.0
11
92.893004
21
57.006576
31
0.0
0
LINE
8
Calque 1
62
4
5
171
100
AcDbEntity
100
AcDbLine
10
92.893004
20
57.006576
30
0.0
11
92.593312
21
57.730126
31
0.0
0
LINE
8
Calque 1
62
4
5
172
100
AcDbEntity
100
AcDbLine
10
92.593312
20
57.730126
30
0.0
11
92.116554
21
58.351444
31
0.0
0
LINE
8
Calque 1
62
4
5
173
100
AcDbEntity
100
AcDbLine
10
193.354308
20
62.948906
30
0.0
11
196.354308
21
62.948906
31
0.0
0
LINE
8
Calque 1
62
4
5
174
100
AcDbEntity
100
AcDbLine
10
196.354308
20
62.948906
30
0.0
11
196.354308
21
87.948907
31
0.0
0
LINE
8
Calque 1
62
4
5
175
100
AcDbEntity
100
AcDbLine
10
196.354308
20
87.948907
30
0.0
11
191.354309
21
87.948907
31
0.0
0
LINE
8
Calque 1
62
4
5
176
100
AcDbEntity
100
AcDbLine
10
191.354309
20
87.948907
30
0.0
11
191.354309
21
82.948906
31
0.0
0
LINE
8
Calque 1
62
4
5
177
100
AcDbEntity
100
AcDbLine
10
191.354309
20
82.948906
30
0.0
11
101.354309
21
82.948906
31
0.0
0
LINE
8
Calque 1
62
4
5
178
100
AcDbEntity
100
AcDbLine
10
101.354309
20
82.948906
30
0.0
11
101.354309
21
87.948907
31
0.0
0
LINE
8
Calque 1
62
4
5
179
100
AcDbEntity
100
AcDbLine
10
101.354309
20
87.948907
30
0.0
11
96.354319
21
87.948907
31
0.0
0
LINE
8
Calque 1
62
4
5
17a
100
AcDbEntity
100
AcDbLine
10
96.354319
20
87.948907
30
0.0
11
96.354319
21
62.948906
31
0.0
0
LINE
8
Calque 1
62
4
5
17b
100
AcDbEntity
100
AcDbLine
10
96.354319
20
62.948906
30
0.0
11
99.354313
21
62.948906
31
0.0
0
LINE
8
Calque 1
62
4
5
17c
100
AcDbEntity
100
AcDbLine
10
99.354313
20
62.948906
30
0.0
11
99.354313
21
52.948903
31
0.0
0
LINE
8
Calque 1
62
4
5
17d
100
AcDbEntity
100
AcDbLine
10
99.354313
20
52.948903
30
0.0
11
96.354319
21
52.948903
31
0.0
0
LINE
8
Calque 1
62
4
5
17e
100
AcDbEntity
100
AcDbLine
10
96.354319
20
52.948903
30
0.0
11
96.354319
21
42.948904
31
0.0
0
LINE
8
Calque 1
62
4
5
17f
100
AcDbEntity
100
AcDbLine
10
96.354319
20
42.948904
30
0.0
11
101.354309
21
42.948904
31
0.0
0
LINE
8
Calque 1
62
4
5
180
100
AcDbEntity
100
AcDbLine
10
101.354309
20
42.948904
30
0.0
11
101.354309
21
39.948904
31
0.0
0
LINE
8
Calque 1
62
4
5
181
100
AcDbEntity
100
AcDbLine
10
101.354309
20
39.948904
30
0.0
11
111.354317
21
39.948904
31
0.0
0
LINE
8
Calque 1
62
4
5
182
100
AcDbEntity
100
AcDbLine
10
111.354317
20
39.948904
30
0.0
11
111.354317
21
42.948904
31
0.0
0
LINE
8
Calque 1
62
4
5
183
100
AcDbEntity
100
AcDbLine
10
111.354317
20
42.948904
30
0.0
11
121.354297
21
42.948904
31
0.0
0
LINE
8
Calque 1
62
4
5
184
100
AcDbEntity
100
AcDbLine
10
121.354297
20
42.948904
30
0.0
11
121.354297
21
39.948904
31
0.0
0
LINE
8
Calque 1
62
4
5
185
100
AcDbEntity
100
AcDbLine
10
121.354297
20
39.948904
30
0.0
11
131.354305
21
39.948904
31
0.0
0
LINE
8
Calque 1
62
4
5
186
100
AcDbEntity
100
AcDbLine
10
131.354305
20
39.948904
30
0.0
11
131.354305
21
42.948904
31
0.0
0
LINE
8
Calque 1
62
4
5
187
100
AcDbEntity
100
AcDbLine
10
131.354305
20
42.948904
30
0.0
11
141.354308
21
42.948904
31
0.0
0
LINE
8
Calque 1
62
4
5
188
100
AcDbEntity
100
AcDbLine
10
141.354308
20
42.948904
30
0.0
11
141.354308
21
39.948904
31
0.0
0
LINE
8
Calque 1
62
4
5
189
100
AcDbEntity
100
AcDbLine
10
141.354308
20
39.948904
30
0.0
11
151.354307
21
39.948904
31
0.0
0
LINE
8
Calque 1
62
4
5
18a
100
AcDbEntity
100
AcDbLine
10
151.354307
20
39.948904
30
0.0
11
151.354307
21
42.948904
31
0.0
0
LINE
8
Calque 1
62
4
5
18b
100
AcDbEntity
100
AcDbLine
10
151.354307
20
42.948904
30
0.0
11
161.354307
21
42.948904
31
0.0
0
LINE
8
Calque 1
62
4
5
18c
100
AcDbEntity
100
AcDbLine
10
161.354307
20
42.948904
30
0.0
11
161.354307
21
39.948904
31
0.0
0
LINE
8
Calque 1
62
4
5
18d
100
AcDbEntity
100
AcDbLine
10
161.354307
20
39.948904
30
0.0
11
171.354310
21
39.948904
31
0.0
0
LINE
8
Calque 1
62
4
5
18e
100
AcDbEntity
100
AcDbLine
10
171.354310
20
39.948904
30
0.0
11
171.354310
21
42.948904
31
0.0
0
LINE
8
Calque 1
62
4
5
18f
100
AcDbEntity
100
AcDbLine
10
171.354310
20
42.948904
30
0.0
11
181.354309
21
42.948904
31
0.0
0
LINE
8
Calque 1
62
4
5
190
100
AcDbEntity
100
AcDbLine
10
181.354309
20
42.948904
30
0.0
11
181.354309
21
39.948904
31
0.0
0
LINE
8
Calque 1
62
4
5
191
100
AcDbEntity
100
AcDbLine
10
181.354309
20
39.948904
30
0.0
11
191.354309
21
39.948904
31
0.0
0
LINE
8
Calque 1
62
4
5
192
100
AcDbEntity
100
AcDbLine
10
191.354309
20
39.948904
30
0.0
11
191.354309
21
42.948904
31
0.0
0
LINE
8
Calque 1
62
4
5
193
100
AcDbEntity
100
AcDbLine
10
191.354309
20
42.948904
30
0.0
11
196.354308
21
42.948904
31
0.0
0
LINE
8
Calque 1
62
4
5
194
100
AcDbEntity
100
AcDbLine
10
196.354308
20
42.948904
30
0.0
11
196.354308
21
52.948903
31
0.0
0
LINE
8
Calque 1
62
4
5
195
100
AcDbEntity
100
AcDbLine
10
196.354308
20
52.948903
30
0.0
11
193.354308
21
52.948903
31
0.0
0
LINE
8
Calque 1
62
4
5
196
100
AcDbEntity
100
AcDbLine
10
193.354308
20
52.948903
30
0.0
11
193.354308
21
62.948906
31
0.0
0
LINE
8
Calque 1
62
4
5
197
100
AcDbEntity
100
AcDbLine
10
76.995229
20
277.230133
30
0.0
11
66.995249
21
277.230133
31
0.0
0
LINE
8
Calque 1
62
4
5
198
100
AcDbEntity
100
AcDbLine
10
66.995249
20
277.230133
30
0.0
11
66.995249
21
274.230133
31
0.0
0
LINE
8
Calque 1
62
4
5
199
100
AcDbEntity
100
AcDbLine
10
66.995249
20
274.230133
30
0.0
11
56.995241
21
274.230133
31
0.0
0
LINE
8
Calque 1
62
4
5
19a
100
AcDbEntity
100
AcDbLine
10
56.995241
20
274.230133
30
0.0
11
56.995241
21
277.230133
31
0.0
0
LINE
8
Calque 1
62
4
5
19b
100
AcDbEntity
100
AcDbLine
10
56.995241
20
277.230133
30
0.0
11
46.995232
21
277.230133
31
0.0
0
LINE
8
Calque 1
62
4
5
19c
100
AcDbEntity
100
AcDbLine
10
46.995232
20
277.230133
30
0.0
11
46.995232
21
274.230133
31
0.0
0
LINE
8
Calque 1
62
4
5
19d
100
AcDbEntity
100
AcDbLine
10
46.995232
20
274.230133
30
0.0
11
36.995252
21
274.230133
31
0.0
0
LINE
8
Calque 1
62
4
5
19e
100
AcDbEntity
100
AcDbLine
10
36.995252
20
274.230133
30
0.0
11
36.995252
21
277.230133
31
0.0
0
LINE
8
Calque 1
62
4
5
19f
100
AcDbEntity
100
AcDbLine
10
36.995252
20
277.230133
30
0.0
11
26.995245
21
277.230133
31
0.0
0
LINE
8
Calque 1
62
4
5
1a0
100
AcDbEntity
100
AcDbLine
10
26.995245
20
277.230133
30
0.0
11
26.995245
21
274.230133
31
0.0
0
LINE
8
Calque 1
62
4
5
1a1
100
AcDbEntity
100
AcDbLine
10
26.995245
20
274.230133
30
0.0
11
16.995237
21
274.230133
31
0.0
0
LINE
8
Calque 1
62
4
5
1a2
100
AcDbEntity
100
AcDbLine
10
16.995237
20
274.230133
30
0.0
11
16.995237
21
277.230133
31
0.0
0
LINE
8
Calque 1
62
4
5
1a3
100
AcDbEntity
100
AcDbLine
10
16.995237
20
277.230133
30
0.0
11
6.995229
21
277.230133
31
0.0
0
LINE
8
Calque 1
62
4
5
1a4
100
AcDbEntity
100
AcDbLine
10
6.995229
20
277.230133
30
0.0
11
6.995229
21
274.230133
31
0.0
0
LINE
8
Calque 1
62
4
5
1a5
100
AcDbEntity
100
AcDbLine
10
6.995229
20
274.230133
30
0.0
11
-3.004751
21
274.230133
31
0.0
0
LINE
8
Calque 1
62
4
5
1a6
100
AcDbEntity
100
AcDbLine
10
-3.004751
20
274.230133
30
0.0
11
-3.004751
21
277.230133
31
0.0
0
LINE
8
Calque 1
62
4
5
1a7
100
AcDbEntity
100
AcDbLine
10
-3.004751
20
277.230133
30
0.0
11
-8.004770
21
277.230133
31
0.0
0
LINE
8
Calque 1
62
4
5
1a8
100
AcDbEntity
100
AcDbLine
10
-8.004770
20
277.230133
30
0.0
11
-8.004770
21
267.230133
31
0.0
0
LINE
8
Calque 1
62
4
5
1a9
100
AcDbEntity
100
AcDbLine
10
-8.004770
20
267.230133
30
0.0
11
-5.004747
21
267.230133
31
0.0
0
LINE
8
Calque 1
62
4
5
1aa
100
AcDbEntity
100
AcDbLine
10
-5.004747
20
267.230133
30
0.0
11
-5.004747
21
257.230131
31
0.0
0
LINE
8
Calque 1
62
4
5
1ab
100
AcDbEntity
100
AcDbLine
10
-5.004747
20
257.230131
30
0.0
11
-8.004770
21
257.230131
31
0.0
0
LINE
8
Calque 1
62
4
5
1ac
100
AcDbEntity
100
AcDbLine
10
-8.004770
20
257.230131
30
0.0
11
-8.004770
21
247.230131
31
0.0
0
LINE
8
Calque 1
62
4
5
1ad
100
AcDbEntity
100
AcDbLine
10
-8.004770
20
247.230131
30
0.0
11
-5.004747
21
247.230131
31
0.0
0
LINE
8
Calque 1
62
4
5
1ae
100
AcDbEntity
100
AcDbLine
10
-5.004747
20
247.230131
30
0.0
11
-5.004747
21
237.230131
31
0.0
0
LINE
8
Calque 1
62
4
5
1af
100
AcDbEntity
100
AcDbLine
10
-5.004747
20
237.230131
30
0.0
11
-8.004770
21
237.230131
31
0.0
0
LINE
8
Calque 1
62
4
5
1b0
100
AcDbEntity
100
AcDbLine
10
-8.004770
20
237.230131
30
0.0
11
-8.004770
21
227.230131
31
0.0
0
LINE
8
Calque 1
62
4
5
1b1
100
AcDbEntity
100
AcDbLine
10
-8.004770
20
227.230131
30
0.0
11
-5.004747
21
227.230131
31
0.0
0
LINE
8
Calque 1
62
4
5
1b2
100
AcDbEntity
100
AcDbLine
10
-5.004747
20
227.230131
30
0.0
11
-5.004747
21
217.230134
31
0.0
0
LINE
8
Calque 1
62
4
5
1b3
100
AcDbEntity
100
AcDbLine
10
-5.004747
20
217.230134
30
0.0
11
-8.004770
21
217.230134
31
0.0
0
LINE
8
Calque 1
62
4
5
1b4
100
AcDbEntity
100
AcDbLine
10
-8.004770
20
217.230134
30
0.0
11
-8.004770
21
207.230135
31
0.0
0
LINE
8
Calque 1
62
4
5
1b5
100
AcDbEntity
100
AcDbLine
10
-8.004770
20
207.230135
30
0.0
11
-5.004747
21
207.230135
31
0.0
0
LINE
8
Calque 1
62
4
5
1b6
100
AcDbEntity
100
AcDbLine
10
-5.004747
20
207.230135
30
0.0
11
-5.004747
21
197.230132
31
0.0
0
LINE
8
Calque 1
62
4
5
1b7
100
AcDbEntity
100
AcDbLine
10
-5.004747
20
197.230132
30
0.0
11
-8.004770
21
197.230132
31
0.0
0
LINE
8
Calque 1
62
4
5
1b8
100
AcDbEntity
100
AcDbLine
10
-8.004770
20
197.230132
30
0.0
11
-8.004770
21
187.230132
31
0.0
0
LINE
8
Calque 1
62
4
5
1b9
100
AcDbEntity
100
AcDbLine
10
-8.004770
20
187.230132
30
0.0
11
-5.004747
21
187.230132
31
0.0
0
LINE
8
Calque 1
62
4
5
1ba
100
AcDbEntity
100
AcDbLine
10
-5.004747
20
187.230132
30
0.0
11
-5.004747
21
177.230133
31
0.0
0
LINE
8
Calque 1
62
4
5
1bb
100
AcDbEntity
100
AcDbLine
10
-5.004747
20
177.230133
30
0.0
11
-8.004770
21
177.230133
31
0.0
0
LINE
8
Calque 1
62
4
5
1bc
100
AcDbEntity
100
AcDbLine
10
-8.004770
20
177.230133
30
0.0
11
-8.004770
21
167.230133
31
0.0
0
LINE
8
Calque 1
62
4
5
1bd
100
AcDbEntity
100
AcDbLine
10
-8.004770
20
167.230133
30
0.0
11
-5.004747
21
167.230133
31
0.0
0
LINE
8
Calque 1
62
4
5
1be
100
AcDbEntity
100
AcDbLine
10
-5.004747
20
167.230133
30
0.0
11
-5.004747
21
157.230130
31
0.0
0
LINE
8
Calque 1
62
4
5
1bf
100
AcDbEntity
100
AcDbLine
10
-5.004747
20
157.230130
30
0.0
11
-8.004770
21
157.230130
31
0.0
0
LINE
8
Calque 1
62
4
5
1c0
100
AcDbEntity
100
AcDbLine
10
-8.004770
20
157.230130
30
0.0
11
-8.004770
21
147.230130
31
0.0
0
LINE
8
Calque 1
62
4
5
1c1
100
AcDbEntity
100
AcDbLine
10
-8.004770
20
147.230130
30
0.0
11
-5.004747
21
147.230130
31
0.0
0
LINE
8
Calque 1
62
4
5
1c2
100
AcDbEntity
100
AcDbLine
10
-5.004747
20
147.230130
30
0.0
11
-5.004747
21
137.230131
31
0.0
0
LINE
8
Calque 1
62
4
5
1c3
100
AcDbEntity
100
AcDbLine
10
-5.004747
20
137.230131
30
0.0
11
-8.004770
21
137.230131
31
0.0
0
LINE
8
Calque 1
62
4
5
1c4
100
AcDbEntity
100
AcDbLine
10
-8.004770
20
137.230131
30
0.0
11
-8.004770
21
127.230128
31
0.0
0
LINE
8
Calque 1
62
4
5
1c5
100
AcDbEntity
100
AcDbLine
10
-8.004770
20
127.230128
30
0.0
11
-3.004751
21
127.230128
31
0.0
0
LINE
8
Calque 1
62
4
5
1c6
100
AcDbEntity
100
AcDbLine
10
-3.004751
20
127.230128
30
0.0
11
-3.004751
21
130.230131
31
0.0
0
LINE
8
Calque 1
62
4
5
1c7
100
AcDbEntity
100
AcDbLine
10
-3.004751
20
130.230131
30
0.0
11
6.995229
21
130.230131
31
0.0
0
LINE
8
Calque 1
62
4
5
1c8
100
AcDbEntity
100
AcDbLine
10
6.995229
20
130.230131
30
0.0
11
6.995229
21
127.230128
31
0.0
0
LINE
8
Calque 1
62
4
5
1c9
100
AcDbEntity
100
AcDbLine
10
6.995229
20
127.230128
30
0.0
11
16.995237
21
127.230128
31
0.0
0
LINE
8
Calque 1
62
4
5
1ca
100
AcDbEntity
100
AcDbLine
10
16.995237
20
127.230128
30
0.0
11
16.995237
21
130.230131
31
0.0
0
LINE
8
Calque 1
62
4
5
1cb
100
AcDbEntity
100
AcDbLine
10
16.995237
20
130.230131
30
0.0
11
26.995245
21
130.230131
31
0.0
0
LINE
8
Calque 1
62
4
5
1cc
100
AcDbEntity
100
AcDbLine
10
26.995245
20
130.230131
30
0.0
11
26.995245
21
127.230128
31
0.0
0
LINE
8
Calque 1
62
4
5
1cd
100
AcDbEntity
100
AcDbLine
10
26.995245
20
127.230128
30
0.0
11
36.995252
21
127.230128
31
0.0
0
LINE
8
Calque 1
62
4
5
1ce
100
AcDbEntity
100
AcDbLine
10
36.995252
20
127.230128
30
0.0
11
36.995252
21
130.230131
31
0.0
0
LINE
8
Calque 1
62
4
5
1cf
100
AcDbEntity
100
AcDbLine
10
36.995252
20
130.230131
30
0.0
11
46.995232
21
130.230131
31
0.0
0
LINE
8
Calque 1
62
4
5
1d0
100
AcDbEntity
100
AcDbLine
10
46.995232
20
130.230131
30
0.0
11
46.995232
21
127.230128
31
0.0
0
LINE
8
Calque 1
62
4
5
1d1
100
AcDbEntity
100
AcDbLine
10
46.995232
20
127.230128
30
0.0
11
56.995241
21
127.230128
31
0.0
0
LINE
8
Calque 1
62
4
5
1d2
100
AcDbEntity
100
AcDbLine
10
56.995241
20
127.230128
30
0.0
11
56.995241
21
130.230131
31
0.0
0
LINE
8
Calque 1
62
4
5
1d3
100
AcDbEntity
100
AcDbLine
10
56.995241
20
130.230131
30
0.0
11
66.995249
21
130.230131
31
0.0
0
LINE
8
Calque 1
62
4
5
1d4
100
AcDbEntity
100
AcDbLine
10
66.995249
20
130.230131
30
0.0
11
66.995249
21
127.230128
31
0.0
0
LINE
8
Calque 1
62
4
5
1d5
100
AcDbEntity
100
AcDbLine
10
66.995249
20
127.230128
30
0.0
11
76.995229
21
127.230128
31
0.0
0
LINE
8
Calque 1
62
4
5
1d6
100
AcDbEntity
100
AcDbLine
10
76.995229
20
127.230128
30
0.0
11
76.995229
21
130.230131
31
0.0
0
LINE
8
Calque 1
62
4
5
1d7
100
AcDbEntity
100
AcDbLine
10
76.995229
20
130.230131
30
0.0
11
86.995237
21
130.230131
31
0.0
0
LINE
8
Calque 1
62
4
5
1d8
100
AcDbEntity
100
AcDbLine
10
86.995237
20
130.230131
30
0.0
11
86.995237
21
127.230128
31
0.0
0
LINE
8
Calque 1
62
4
5
1d9
100
AcDbEntity
100
AcDbLine
10
86.995237
20
127.230128
30
0.0
11
91.995227
21
127.230128
31
0.0
0
LINE
8
Calque 1
62
4
5
1da
100
AcDbEntity
100
AcDbLine
10
91.995227
20
127.230128
30
0.0
11
91.995227
21
137.230131
31
0.0
0
LINE
8
Calque 1
62
4
5
1db
100
AcDbEntity
100
AcDbLine
10
91.995227
20
137.230131
30
0.0
11
88.995233
21
137.230131
31
0.0
0
LINE
8
Calque 1
62
4
5
1dc
100
AcDbEntity
100
AcDbLine
10
88.995233
20
137.230131
30
0.0
11
88.995233
21
147.230130
31
0.0
0
LINE
8
Calque 1
62
4
5
1dd
100
AcDbEntity
100
AcDbLine
10
88.995233
20
147.230130
30
0.0
11
91.995227
21
147.230130
31
0.0
0
LINE
8
Calque 1
62
4
5
1de
100
AcDbEntity
100
AcDbLine
10
91.995227
20
147.230130
30
0.0
11
91.995227
21
157.230130
31
0.0
0
LINE
8
Calque 1
62
4
5
1df
100
AcDbEntity
100
AcDbLine
10
91.995227
20
157.230130
30
0.0
11
88.995233
21
157.230130
31
0.0
0
LINE
8
Calque 1
62
4
5
1e0
100
AcDbEntity
100
AcDbLine
10
88.995233
20
157.230130
30
0.0
11
88.995233
21
167.230133
31
0.0
0
LINE
8
Calque 1
62
4
5
1e1
100
AcDbEntity
100
AcDbLine
10
88.995233
20
167.230133
30
0.0
11
91.995227
21
167.230133
31
0.0
0
LINE
8
Calque 1
62
4
5
1e2
100
AcDbEntity
100
AcDbLine
10
91.995227
20
167.230133
30
0.0
11
91.995227
21
177.230133
31
0.0
0
LINE
8
Calque 1
62
4
5
1e3
100
AcDbEntity
100
AcDbLine
10
91.995227
20
177.230133
30
0.0
11
88.995233
21
177.230133
31
0.0
0
LINE
8
Calque 1
62
4
5
1e4
100
AcDbEntity
100
AcDbLine
10
88.995233
20
177.230133
30
0.0
11
88.995233
21
187.230132
31
0.0
0
LINE
8
Calque 1
62
4
5
1e5
100
AcDbEntity
100
AcDbLine
10
88.995233
20
187.230132
30
0.0
11
91.995227
21
187.230132
31
0.0
0
LINE
8
Calque 1
62
4
5
1e6
100
AcDbEntity
100
AcDbLine
10
91.995227
20
187.230132
30
0.0
11
91.995227
21
197.230132
31
0.0
0
LINE
8
Calque 1
62
4
5
1e7
100
AcDbEntity
100
AcDbLine
10
91.995227
20
197.230132
30
0.0
11
88.995233
21
197.230132
31
0.0
0
LINE
8
Calque 1
62
4
5
1e8
100
AcDbEntity
100
AcDbLine
10
88.995233
20
197.230132
30
0.0
11
88.995233
21
207.230135
31
0.0
0
LINE
8
Calque 1
62
4
5
1e9
100
AcDbEntity
100
AcDbLine
10
88.995233
20
207.230135
30
0.0
11
91.995227
21
207.230135
31
0.0
0
LINE
8
Calque 1
62
4
5
1ea
100
AcDbEntity
100
AcDbLine
10
91.995227
20
207.230135
30
0.0
11
91.995227
21
217.230134
31
0.0
0
LINE
8
Calque 1
62
4
5
1eb
100
AcDbEntity
100
AcDbLine
10
91.995227
20
217.230134
30
0.0
11
88.995233
21
217.230134
31
0.0
0
LINE
8
Calque 1
62
4
5
1ec
100
AcDbEntity
100
AcDbLine
10
88.995233
20
217.230134
30
0.0
11
88.995233
21
227.230131
31
0.0
0
LINE
8
Calque 1
62
4
5
1ed
100
AcDbEntity
100
AcDbLine
10
88.995233
20
227.230131
30
0.0
11
91.995227
21
227.230131
31
0.0
0
LINE
8
Calque 1
62
4
5
1ee
100
AcDbEntity
100
AcDbLine
10
91.995227
20
227.230131
30
0.0
11
91.995227
21
237.230131
31
0.0
0
LINE
8
Calque 1
62
4
5
1ef
100
AcDbEntity
100
AcDbLine
10
91.995227
20
237.230131
30
0.0
11
88.995233
21
237.230131
31
0.0
0
LINE
8
Calque 1
62
4
5
1f0
100
AcDbEntity
100
AcDbLine
10
88.995233
20
237.230131
30
0.0
11
88.995233
21
247.230131
31
0.0
0
LINE
8
Calque 1
62
4
5
1f1
100
AcDbEntity
100
AcDbLine
10
88.995233
20
247.230131
30
0.0
11
91.995227
21
247.230131
31
0.0
0
LINE
8
Calque 1
62
4
5
1f2
100
AcDbEntity
100
AcDbLine
10
91.995227
20
247.230131
30
0.0
11
91.995227
21
257.230131
31
0.0
0
LINE
8
Calque 1
62
4
5
1f3
100
AcDbEntity
100
AcDbLine
10
91.995227
20
257.230131
30
0.0
11
88.995233
21
257.230131
31
0.0
0
LINE
8
Calque 1
62
4
5
1f4
100
AcDbEntity
100
AcDbLine
10
88.995233
20
257.230131
30
0.0
11
88.995233
21
267.230133
31
0.0
0
LINE
8
Calque 1
62
4
5
1f5
100
AcDbEntity
100
AcDbLine
10
88.995233
20
267.230133
30
0.0
11
91.995227
21
267.230133
31
0.0
0
LINE
8
Calque 1
62
4
5
1f6
100
AcDbEntity
100
AcDbLine
10
91.995227
20
267.230133
30
0.0
11
91.995227
21
277.230133
31
0.0
0
LINE
8
Calque 1
62
4
5
1f7
100
AcDbEntity
100
AcDbLine
10
91.995227
20
277.230133
30
0.0
11
86.995237
21
277.230133
31
0.0
0
LINE
8
Calque 1
62
4
5
1f8
100
AcDbEntity
100
AcDbLine
10
86.995237
20
277.230133
30
0.0
11
86.995237
21
274.230133
31
0.0
0
LINE
8
Calque 1
62
4
5
1f9
100
AcDbEntity
100
AcDbLine
10
86.995237
20
274.230133
30
0.0
11
76.995229
21
274.230133
31
0.0
0
LINE
8
Calque 1
62
4
5
1fa
100
AcDbEntity
100
AcDbLine
10
76.995229
20
274.230133
30
0.0
11
76.995229
21
277.230133
31
0.0
0
LINE
8
Calque 1
62
4
5
1fb
100
AcDbEntity
100
AcDbLine
10
224.995238
20
127.230128
30
0.0
11
224.995238
21
137.230131
31
0.0
0
LINE
8
Calque 1
62
4
5
1fc
100
AcDbEntity
100
AcDbLine
10
224.995238
20
137.230131
30
0.0
11
237.995243
21
137.230131
31
0.0
0
LINE
8
Calque 1
62
4
5
1fd
100
AcDbEntity
100
AcDbLine
10
237.995243
20
137.230131
30
0.0
11
237.995243
21
147.230130
31
0.0
0
LINE
8
Calque 1
62
4
5
1fe
100
AcDbEntity
100
AcDbLine
10
237.995243
20
147.230130
30
0.0
11
234.995249
21
147.230130
31
0.0
0
LINE
8
Calque 1
62
4
5
1ff
100
AcDbEntity
100
AcDbLine
10
234.995249
20
147.230130
30
0.0
11
234.995249
21
157.230130
31
0.0
0
LINE
8
Calque 1
62
4
5
200
100
AcDbEntity
100
AcDbLine
10
234.995249
20
157.230130
30
0.0
11
237.995243
21
157.230130
31
0.0
0
LINE
8
Calque 1
62
4
5
201
100
AcDbEntity
100
AcDbLine
10
237.995243
20
157.230130
30
0.0
11
237.995243
21
167.230133
31
0.0
0
LINE
8
Calque 1
62
4
5
202
100
AcDbEntity
100
AcDbLine
10
237.995243
20
167.230133
30
0.0
11
234.995249
21
167.230133
31
0.0
0
LINE
8
Calque 1
62
4
5
203
100
AcDbEntity
100
AcDbLine
10
234.995249
20
167.230133
30
0.0
11
234.995249
21
177.230133
31
0.0
0
LINE
8
Calque 1
62
4
5
204
100
AcDbEntity
100
AcDbLine
10
234.995249
20
177.230133
30
0.0
11
237.995243
21
177.230133
31
0.0
0
LINE
8
Calque 1
62
4
5
205
100
AcDbEntity
100
AcDbLine
10
237.995243
20
177.230133
30
0.0
11
237.995243
21
187.230132
31
0.0
0
LINE
8
Calque 1
62
4
5
206
100
AcDbEntity
100
AcDbLine
10
237.995243
20
187.230132
30
0.0
11
234.995249
21
187.230132
31
0.0
0
LINE
8
Calque 1
62
4
5
207
100
AcDbEntity
100
AcDbLine
10
234.995249
20
187.230132
30
0.0
11
234.995249
21
197.230132
31
0.0
0
LINE
8
Calque 1
62
4
5
208
100
AcDbEntity
100
AcDbLine
10
234.995249
20
197.230132
30
0.0
11
237.995243
21
197.230132
31
0.0
0
LINE
8
Calque 1
62
4
5
209
100
AcDbEntity
100
AcDbLine
10
237.995243
20
197.230132
30
0.0
11
237.995243
21
207.230135
31
0.0
0
LINE
8
Calque 1
62
4
5
20a
100
AcDbEntity
100
AcDbLine
10
237.995243
20
207.230135
30
0.0
11
234.995249
21
207.230135
31
0.0
0
LINE
8
Calque 1
62
4
5
20b
100
AcDbEntity
100
AcDbLine
10
234.995249
20
207.230135
30
0.0
11
234.995249
21
217.230134
31
0.0
0
LINE
8
Calque 1
62
4
5
20c
100
AcDbEntity
100
AcDbLine
10
234.995249
20
217.230134
30
0.0
11
237.995243
21
217.230134
31
0.0
0
LINE
8
Calque 1
62
4
5
20d
100
AcDbEntity
100
AcDbLine
10
237.995243
20
217.230134
30
0.0
11
237.995243
21
227.230131
31
0.0
0
LINE
8
Calque 1
62
4
5
20e
100
AcDbEntity
100
AcDbLine
10
237.995243
20
227.230131
30
0.0
11
234.995249
21
227.230131
31
0.0
0
LINE
8
Calque 1
62
4
5
20f
100
AcDbEntity
100
AcDbLine
10
234.995249
20
227.230131
30
0.0
11
234.995249
21
237.230131
31
0.0
0
LINE
8
Calque 1
62
4
5
210
100
AcDbEntity
100
AcDbLine
10
234.995249
20
237.230131
30
0.0
11
237.995243
21
237.230131
31
0.0
0
LINE
8
Calque 1
62
4
5
211
100
AcDbEntity
100
AcDbLine
10
237.995243
20
237.230131
30
0.0
11
237.995243
21
247.230131
31
0.0
0
LINE
8
Calque 1
62
4
5
212
100
AcDbEntity
100
AcDbLine
10
237.995243
20
247.230131
30
0.0
11
234.995249
21
247.230131
31
0.0
0
LINE
8
Calque 1
62
4
5
213
100
AcDbEntity
100
AcDbLine
10
234.995249
20
247.230131
30
0.0
11
234.995249
21
257.230131
31
0.0
0
LINE
8
Calque 1
62
4
5
214
100
AcDbEntity
100
AcDbLine
10
234.995249
20
257.230131
30
0.0
11
237.995243
21
257.230131
31
0.0
0
LINE
8
Calque 1
62
4
5
215
100
AcDbEntity
100
AcDbLine
10
237.995243
20
257.230131
30
0.0
11
237.995243
21
267.230133
31
0.0
0
LINE
8
Calque 1
62
4
5
216
100
AcDbEntity
100
AcDbLine
10
237.995243
20
267.230133
30
0.0
11
234.995249
21
267.230133
31
0.0
0
LINE
8
Calque 1
62
4
5
217
100
AcDbEntity
100
AcDbLine
10
234.995249
20
267.230133
30
0.0
11
234.995249
21
274.230133
31
0.0
0
LINE
8
Calque 1
62
4
5
218
100
AcDbEntity
100
AcDbLine
10
234.995249
20
274.230133
30
0.0
11
224.995238
21
274.230133
31
0.0
0
LINE
8
Calque 1
62
4
5
219
100
AcDbEntity
100
AcDbLine
10
224.995238
20
274.230133
30
0.0
11
224.995238
21
277.230133
31
0.0
0
LINE
8
Calque 1
62
4
5
21a
100
AcDbEntity
100
AcDbLine
10
224.995238
20
277.230133
30
0.0
11
214.995238
21
277.230133
31
0.0
0
LINE
8
Calque 1
62
4
5
21b
100
AcDbEntity
100
AcDbLine
10
214.995238
20
277.230133
30
0.0
11
214.995238
21
274.230133
31
0.0
0
LINE
8
Calque 1
62
4
5
21c
100
AcDbEntity
100
AcDbLine
10
214.995238
20
274.230133
30
0.0
11
204.995238
21
274.230133
31
0.0
0
LINE
8
Calque 1
62
4
5
21d
100
AcDbEntity
100
AcDbLine
10
204.995238
20
274.230133
30
0.0
11
204.995238
21
130.230131
31
0.0
0
LINE
8
Calque 1
62
4
5
21e
100
AcDbEntity
100
AcDbLine
10
204.995238
20
130.230131
30
0.0
11
214.995238
21
130.230131
31
0.0
0
LINE
8
Calque 1
62
4
5
21f
100
AcDbEntity
100
AcDbLine
10
214.995238
20
130.230131
30
0.0
11
214.995238
21
127.230128
31
0.0
0
LINE
8
Calque 1
62
4
5
220
100
AcDbEntity
100
AcDbLine
10
214.995238
20
127.230128
30
0.0
11
224.995238
21
127.230128
31
0.0
0
LINE
8
Calque 1
62
4
5
221
100
AcDbEntity
100
AcDbLine
10
98.081998
20
130.230131
30
0.0
11
198.081987
21
130.230131
31
0.0
0
LINE
8
Calque 1
62
4
5
222
100
AcDbEntity
100
AcDbLine
10
198.081987
20
130.230131
30
0.0
11
198.081987
21
274.230133
31
0.0
0
LINE
8
Calque 1
62
4
5
223
100
AcDbEntity
100
AcDbLine
10
198.081987
20
274.230133
30
0.0
11
98.081998
21
274.230133
31
0.0
0
LINE
8
Calque 1
62
4
5
224
100
AcDbEntity
100
AcDbLine
10
98.081998
20
274.230133
30
0.0
11
98.081998
21
130.230131
31
0.0
0
LINE
8
Calque 1
62
4
5
225
100
AcDbEntity
100
AcDbLine
10
288.809120
20
308.539299
30
0.0
11
-51.190895
21
308.539299
31
0.0
0
LINE
8
Calque 1
62
4
5
226
100
AcDbEntity
100
AcDbLine
10
-51.190895
20
308.539299
30
0.0
11
-51.190895
21
-1.460696
31
0.0
0
LINE
8
Calque 1
62
4
5
227
100
AcDbEntity
100
AcDbLine
10
-51.190895
20
-1.460696
30
0.0
11
288.809120
21
-1.460696
31
0.0
0
LINE
8
Calque 1
62
4
5
228
100
AcDbEntity
100
AcDbLine
10
288.809120
20
-1.460696
30
0.0
11
288.809120
21
308.539299
31
0.0
  0
ENDSEC
  0
SECTION
  2
OBJECTS
  0
DICTIONARY
  5
C
330
0
100
AcDbDictionary
  3
ACAD_GROUP
350
D
  3
ACAD_MLINESTYLE
350
17
  0
DICTIONARY
  5
D
330
C
100
AcDbDictionary
  0
DICTIONARY
  5
1A
330
C
100
AcDbDictionary
  0
DICTIONARY
  5
17
330
C
100
AcDbDictionary
  3
STANDARD
350
18
  0
DICTIONARY
  5
19
330
C
100
AcDbDictionary
  0
ENDSEC
  0
EOF
