<?xml version="1.0" standalone="no"?>
<!DOCTYPE svg PUBLIC "-//W3C//DTD SVG 1.1//EN" "http://www.w3.org/Graphics/SVG/1.1/DTD/svg11.dtd">
<svg width="359.9999999999999mm" height="330.0mm"
 viewBox="0 0 359.9999999999999 330.0"
 xmlns="http://www.w3.org/2000/svg" version="1.1"
 xmlns:xlink="http://www.w3.org/1999/xlink">
<desc>Output from Flights of Ideas SVG Sketchup Plugin</desc>

  <path id="face0-cut"
 style="fill:none;stroke:#0000FF;stroke-width:1;stroke-miterlimit:4;stroke-dasharray:none;stroke-linejoin:round;stroke-linecap:round"
        d="M 159.27287025256217,188.3091647967217 M 259.2728702525633,188.3091647967217 M 259.27287025256317,44.30916479672169 M 159.27287025256217,44.30916479672169 "
  />
  <path id="face1-cut"
 style="fill:none;stroke:#0000FF;stroke-width:1;stroke-miterlimit:4;stroke-dasharray:none;stroke-linejoin:round;stroke-linecap:round"
        d="M 286.18612193858473,191.3091647967217 M 286.18612193858473,181.3091647967217 M 299.1861219385846,181.30916479672078 M 299.18612193858473,171.3091647967217 M 296.1861219385854,171.3091647967217 M 296.1861219385854,161.3091647967217 M 299.1861219385847,161.3091647967217 M 299.1861219385847,151.30916479672123 M 296.18612193858536,151.30916479672123 M 296.18612193858536,141.30916479672123 M 299.1861219385846,141.30916479672123 M 299.1861219385847,131.3091647967217 M 296.18612193858536,131.3091647967217 M 296.1861219385853,121.30916479672169 M 299.1861219385846,121.30916479672169 M 299.1861219385847,111.30916479672169 M 296.1861219385853,111.30916479672169 M 296.18612193858536,101.30916479672169 M 299.1861219385847,101.30916479672169 M 299.1861219385847,91.30916479672123 M 296.18612193858536,91.30916479672123 M 296.18612193858536,81.30916479672123 M 299.18612193858473,81.30916479672123 M 299.1861219385847,71.30916479672123 M 296.18612193858536,71.30916479672123 M 296.18612193858536,61.30916479672169 M 299.1861219385847,61.30916479672169 M 299.1861219385847,51.30916479672169 M 296.18612193858536,51.30916479672169 M 296.18612193858536,44.30916479672169 M 286.18612193858473,44.30916479672169 M 286.1861219385848,41.30916479672169 M 276.18612193858485,41.30916479672169 M 276.18612193858485,44.30916479672169 M 266.18612193858496,44.30916479672169 M 266.18612193858496,188.3091647967217 M 276.18612193858485,188.3091647967217 M 276.18612193858485,191.30916479672078 "
  />
  <path id="face2-cut"
 style="fill:none;stroke:#0000FF;stroke-width:1;stroke-miterlimit:4;stroke-dasharray:none;stroke-linejoin:round;stroke-linecap:round"
        d="M 138.18612193858593,41.30916479672169 M 128.18612193858604,41.30916479672169 M 128.18612193858604,44.30916479672169 M 118.18612193858542,44.30916479672169 M 118.18612193858542,41.30916479672169 M 108.18612193858625,41.30916479672169 M 108.18612193858625,44.30916479672169 M 98.18612193858564,44.30916479672169 M 98.18612193858563,41.30916479672169 M 88.18612193858576,41.30916479672169 M 88.18612193858574,44.30916479672169 M 78.18612193858583,44.30916479672169 M 78.18612193858584,41.30916479672169 M 68.18612193858525,41.30916479672169 M 68.18612193858525,44.30916479672169 M 58.18612193858602,44.30916479672169 M 58.186121938586105,41.30916479672169 M 53.186121938585764,41.30916479672169 M 53.186121938585764,51.30916479672169 M 56.18612193858582,51.30916479672169 M 56.18612193858582,61.30916479672169 M 53.186121938585764,61.30916479672169 M 53.186121938585764,71.30916479672123 M 56.1861219385858,71.30916479672123 M 56.1861219385858,81.30916479672123 M 53.186121938585714,81.30916479672123 M 53.186121938585785,91.30916479672123 M 56.1861219385858,91.30916479672123 M 56.18612193858582,101.30916479672169 M 53.186121938585764,101.30916479672169 M 53.186121938585764,111.30916479672169 M 56.18612193858578,111.30916479672169 M 56.18612193858578,121.30916479672169 M 53.186121938585764,121.30916479672169 M 53.186121938585764,131.3091647967217 M 56.1861219385858,131.3091647967217 M 56.1861219385858,141.30916479672123 M 53.186121938585785,141.30916479672123 M 53.186121938585764,151.30916479672123 M 56.1861219385858,151.30916479672123 M 56.1861219385858,161.30916479672123 M 53.186121938585764,161.30916479672123 M 53.186121938585764,171.3091647967217 M 56.1861219385858,171.3091647967217 M 56.1861219385858,181.3091647967217 M 53.186121938585764,181.3091647967217 M 53.186121938585764,191.3091647967217 M 58.186121938586076,191.3091647967217 M 58.18612193858607,188.3091647967217 M 68.18612193858525,188.3091647967217 M 68.18612193858522,191.30916479672078 M 78.18612193858584,191.3091647967217 M 78.18612193858584,188.3091647967217 M 88.18612193858574,188.3091647967217 M 88.18612193858574,191.3091647967217 M 98.18612193858563,191.3091647967217 M 98.18612193858563,188.3091647967217 M 108.18612193858624,188.3091647967217 M 108.18612193858624,191.3091647967217 M 118.18612193858542,191.3091647967217 M 118.18612193858542,188.3091647967217 M 128.18612193858604,188.3091647967217 M 128.18612193858604,191.3091647967217 M 138.18612193858593,191.3091647967217 M 138.18612193858593,188.3091647967217 M 148.18612193858579,188.3091647967217 M 148.18612193858579,191.3091647967217 M 153.1861219385861,191.3091647967217 M 153.1861219385861,181.3091647967217 M 150.18612193858533,181.3091647967217 M 150.18612193858533,171.3091647967217 M 153.1861219385861,171.3091647967217 M 153.1861219385861,161.30916479672123 M 150.18612193858533,161.30916479672123 M 150.18612193858533,151.30916479672123 M 153.1861219385861,151.30916479672123 M 153.1861219385861,141.30916479672123 M 150.18612193858533,141.30916479672123 M 150.18612193858533,131.3091647967217 M 153.1861219385861,131.3091647967217 M 153.1861219385861,121.30916479672169 M 150.18612193858533,121.30916479672169 M 150.18612193858533,111.30916479672169 M 153.1861219385861,111.30916479672169 M 153.1861219385861,101.30916479672169 M 150.18612193858533,101.30916479672169 M 150.18612193858533,91.30916479672123 M 153.1861219385861,91.30916479672123 M 153.1861219385861,81.30916479672123 M 150.18612193858533,81.30916479672123 M 150.18612193858533,71.30916479672123 M 153.1861219385861,71.30916479672123 M 153.1861219385861,61.30916479672169 M 150.18612193858533,61.30916479672169 M 150.18612193858533,51.30916479672169 M 153.1861219385861,51.30916479672169 M 153.1861219385861,41.30916479672169 M 148.18612193858579,41.30916479672169 M 148.18612193858579,44.30916479672169 M 138.18612193858593,44.30916479672169 "
  />
  <path id="face3-cut"
 style="fill:none;stroke:#0000FF;stroke-width:1;stroke-miterlimit:4;stroke-dasharray:none;stroke-linejoin:round;stroke-linecap:round"
        d="M 254.54518949757767,255.59038201996236 M 257.545189497577,255.59038201996236 M 257.54518949757846,230.59038201996236 M 252.54518949757886,230.59038201996236 M 252.54518949757886,235.5903820199619 M 162.54518949757838,235.5903820199619 M 162.54518949757838,230.59038201996236 M 157.5451894975788,230.59038201996236 M 157.5451894975788,255.59038201996236 M 160.54518949757883,255.59038201996236 M 160.54518949757957,265.5903820199633 M 157.5451894975795,265.5903820199637 M 157.5451894975788,275.59038201996236 M 162.54518949757838,275.59038201996236 M 162.54518949757838,278.59038201996236 M 172.545189497579,278.59038201996236 M 172.545189497579,275.59038201996236 M 182.54518949757818,275.59038201996236 M 182.54518949757818,278.59038201996236 M 192.54518949757878,278.59038201996236 M 192.54518949757878,275.59038201996236 M 202.5451894975787,275.59038201996236 M 202.5451894975787,278.59038201996236 M 212.54518949757855,278.59038201996236 M 212.54518949757858,275.59038201996236 M 222.54518949757917,275.59038201996236 M 222.54518949757917,278.59038201996236 M 232.54518949757835,278.59038201996236 M 232.54518949757835,275.59038201996236 M 242.54518949757897,275.59038201996236 M 242.54518949757892,278.59038201996236 M 252.54518949757886,278.59038201996236 M 252.54518949757886,275.59038201996236 M 257.54518949757846,275.59038201996236 M 257.54518949757846,265.5903820199633 M 254.54518949757767,265.5903820199633 "
  />
  <path id="face4-cut"
 style="fill:none;stroke:#0000FF;stroke-width:1;stroke-miterlimit:4;stroke-dasharray:none;stroke-linejoin:round;stroke-linecap:round"
        d="M 153.3074422821447,260.1878444531617 M 153.18612193858465,260.0947520793575 M 153.1861219385854,217.30916479672123 M 150.18612193858533,217.30916479672123 M 150.18612193858533,207.3091647967217 M 153.1861219385854,207.3091647967217 M 153.1861219385854,197.3091647967217 M 148.18612193858579,197.3091647967217 M 148.18612193858579,194.3091647967217 M 138.1861219385852,194.3091647967217 M 138.1861219385852,197.3091647967217 M 128.1861219385853,197.3091647967217 M 128.1861219385853,194.3091647967217 M 118.18612193858542,194.3091647967217 M 118.18612193858542,197.3091647967217 M 108.18612193858553,197.3091647967217 M 108.18612193858553,194.3091647967217 M 98.18612193858563,194.3091647967217 M 98.18612193858563,197.3091647967217 M 88.18612193858502,197.3091647967217 M 88.18612193858502,194.3091647967217 M 78.18612193858513,194.3091647967217 M 78.18612193858513,197.3091647967217 M 68.18612193858522,197.3091647967217 M 68.18612193858525,194.3091647967217 M 58.186121938585345,194.3091647967217 M 58.186121938585345,197.3091647967217 M 53.186121938585764,197.3091647967217 M 53.186121938585764,207.3091647967217 M 56.18612193858508,207.3091647967217 M 56.18612193858508,217.30916479672123 M 53.186121938585764,217.30916479672123 M 53.186121938585764,260.0947520793575 M 53.064801595025706,260.1878444531617 M 52.58804572723178,260.8091647967217 M 52.28834445971792,261.5327076614144 M 52.186121938585266,262.30916479672123 M 52.2883444597179,263.08562193202897 M 52.58804572723178,263.8091647967217 M 53.064801595025706,264.4304851402808 M 53.68612193858565,264.90724100807483 M 54.40966480327752,265.2069422755885 M 55.18612193858531,265.30916479672123 M 55.96257907389309,265.2069422755885 M 56.68612193858494,264.90724100807483 M 57.30744228214491,264.4304851402808 M 57.784198149938845,263.8091647967217 M 58.08389941745269,263.08562193202897 M 58.186121938585345,262.30916479672123 M 58.083899417452706,261.5327076614144 M 57.784198149938824,260.8091647967217 M 57.30744228214493,260.1878444531617 M 57.18612193858557,260.0947520793584 M 57.18612193858557,252.30916479672123 M 103.18612193858522,277.3091647967217 M 149.18612193858485,252.30916479672123 M 149.18612193858485,260.0947520793584 M 149.0648015950255,260.1878444531617 M 148.5880457272316,260.8091647967217 M 148.28834445971773,261.5327076614144 M 148.18612193858507,262.30916479672123 M 148.28834445971773,263.08562193202897 M 148.5880457272316,263.8091647967217 M 149.0648015950255,264.4304851402808 M 149.68612193858544,264.90724100807483 M 150.40966480327734,265.2069422755885 M 151.1861219385851,265.30916479672123 M 151.9625790738929,265.2069422755885 M 152.68612193858476,264.90724100807483 M 153.3074422821447,264.4304851402808 M 153.78419814993865,263.8091647967217 M 154.0838994174525,263.08562193202897 M 154.18612193858516,262.30916479672123 M 154.0838994174525,261.5327076614144 M 153.78419814993865,260.8091647967217 "
  />
  <path id="face5-cut"
 style="fill:none;stroke:#0000FF;stroke-width:1;stroke-miterlimit:4;stroke-dasharray:none;stroke-linejoin:round;stroke-linecap:round"
        d="M 305.8016157791836,215.69198498934702 M 305.80161577918716,205.69198498934702 M 302.80161577918716,205.69198498934566 M 302.80161577919074,195.69198498934566 M 158.801615779191,195.69198498929427 M 158.8016157791874,205.69198498929427 M 155.80161577918733,205.69198498929336 M 155.80161577918372,215.69198498929336 M 158.80161577918378,215.69198498929472 M 158.80161577918017,225.69198498929381 M 165.80161577918,225.691984989297 M 165.8016157791793,228.691984989297 M 175.80161577917917,228.69198498930064 M 175.8016157791799,225.69198498930064 M 185.8016157791798,225.69198498930427 M 185.80161577917906,228.69198498930427 M 195.80161577917897,228.6919849893079 M 195.80161577917968,225.6919849893079 M 205.8016157791803,225.69198498931155 M 205.80161577917886,228.69198498931155 M 215.80161577917875,228.6919849893152 M 215.8016157791802,225.6919849893152 M 225.80161577918008,225.69198498931837 M 225.80161577917863,228.69198498931883 M 235.80161577917926,228.691984989322 M 235.80161577917997,225.691984989322 M 245.80161577917985,225.69198498932565 M 245.80161577917914,228.69198498932565 M 255.80161577917903,228.69198498932928 M 255.80161577917974,225.69198498932928 M 265.80161577918034,225.69198498933292 M 265.8016157791789,228.69198498933247 M 275.8016157791788,228.6919849893361 M 275.8016157791803,225.6919849893361 M 285.80161577918017,225.6919849893393 M 285.80161577917875,228.69198498933974 M 295.8016157791794,228.69198498934338 M 295.80161577918,225.69198498934293 M 302.80161577917994,225.6919849893461 M 302.8016157791835,215.6919849893461 "
  />
  <path id="face6-cut"
 style="fill:none;stroke:#0000FF;stroke-width:1;stroke-miterlimit:4;stroke-dasharray:none;stroke-linejoin:round;stroke-linecap:round"
        d="M 349.9999999999999,10.0 L 10.0,10.0 L 10.0,320.0 L 349.9999999999999,320.0 L 349.9999999999999,10.0 M 259.2728702525633,188.3091647967217 M 159.27287025256217,188.3091647967217 M 159.27287025256217,44.30916479672169 M 259.27287025256317,44.30916479672169 M 286.18612193858473,181.3091647967217 M 286.18612193858473,191.3091647967217 M 276.18612193858485,191.30916479672078 M 276.18612193858485,188.3091647967217 M 266.18612193858496,188.3091647967217 M 266.18612193858496,44.30916479672169 M 276.18612193858485,44.30916479672169 M 276.18612193858485,41.30916479672169 M 286.1861219385848,41.30916479672169 M 286.18612193858473,44.30916479672169 M 296.18612193858536,44.30916479672169 M 296.18612193858536,51.30916479672169 M 299.1861219385847,51.30916479672169 M 299.1861219385847,61.30916479672169 M 296.18612193858536,61.30916479672169 M 296.18612193858536,71.30916479672123 M 299.1861219385847,71.30916479672123 M 299.18612193858473,81.30916479672123 M 296.18612193858536,81.30916479672123 M 296.18612193858536,91.30916479672123 M 299.1861219385847,91.30916479672123 M 299.1861219385847,101.30916479672169 M 296.18612193858536,101.30916479672169 M 296.1861219385853,111.30916479672169 M 299.1861219385847,111.30916479672169 M 299.1861219385846,121.30916479672169 M 296.1861219385853,121.30916479672169 M 296.18612193858536,131.3091647967217 M 299.1861219385847,131.3091647967217 M 299.1861219385846,141.30916479672123 M 296.18612193858536,141.30916479672123 M 296.18612193858536,151.30916479672123 M 299.1861219385847,151.30916479672123 M 299.1861219385847,161.3091647967217 M 296.1861219385854,161.3091647967217 M 296.1861219385854,171.3091647967217 M 299.18612193858473,171.3091647967217 M 299.1861219385846,181.30916479672078 M 128.18612193858604,41.30916479672169 M 138.18612193858593,41.30916479672169 M 138.18612193858593,44.30916479672169 M 148.18612193858579,44.30916479672169 M 148.18612193858579,41.30916479672169 M 153.1861219385861,41.30916479672169 M 153.1861219385861,51.30916479672169 M 150.18612193858533,51.30916479672169 M 150.18612193858533,61.30916479672169 M 153.1861219385861,61.30916479672169 M 153.1861219385861,71.30916479672123 M 150.18612193858533,71.30916479672123 M 150.18612193858533,81.30916479672123 M 153.1861219385861,81.30916479672123 M 153.1861219385861,91.30916479672123 M 150.18612193858533,91.30916479672123 M 150.18612193858533,101.30916479672169 M 153.1861219385861,101.30916479672169 M 153.1861219385861,111.30916479672169 M 150.18612193858533,111.30916479672169 M 150.18612193858533,121.30916479672169 M 153.1861219385861,121.30916479672169 M 153.1861219385861,131.3091647967217 M 150.18612193858533,131.3091647967217 M 150.18612193858533,141.30916479672123 M 153.1861219385861,141.30916479672123 M 153.1861219385861,151.30916479672123 M 150.18612193858533,151.30916479672123 M 150.18612193858533,161.30916479672123 M 153.1861219385861,161.30916479672123 M 153.1861219385861,171.3091647967217 M 150.18612193858533,171.3091647967217 M 150.18612193858533,181.3091647967217 M 153.1861219385861,181.3091647967217 M 153.1861219385861,191.3091647967217 M 148.18612193858579,191.3091647967217 M 148.18612193858579,188.3091647967217 M 138.18612193858593,188.3091647967217 M 138.18612193858593,191.3091647967217 M 128.18612193858604,191.3091647967217 M 128.18612193858604,188.3091647967217 M 118.18612193858542,188.3091647967217 M 118.18612193858542,191.3091647967217 M 108.18612193858624,191.3091647967217 M 108.18612193858624,188.3091647967217 M 98.18612193858563,188.3091647967217 M 98.18612193858563,191.3091647967217 M 88.18612193858574,191.3091647967217 M 88.18612193858574,188.3091647967217 M 78.18612193858584,188.3091647967217 M 78.18612193858584,191.3091647967217 M 68.18612193858522,191.30916479672078 M 68.18612193858525,188.3091647967217 M 58.18612193858607,188.3091647967217 M 58.186121938586076,191.3091647967217 M 53.186121938585764,191.3091647967217 M 53.186121938585764,181.3091647967217 M 56.1861219385858,181.3091647967217 M 56.1861219385858,171.3091647967217 M 53.186121938585764,171.3091647967217 M 53.186121938585764,161.30916479672123 M 56.1861219385858,161.30916479672123 M 56.1861219385858,151.30916479672123 M 53.186121938585764,151.30916479672123 M 53.186121938585785,141.30916479672123 M 56.1861219385858,141.30916479672123 M 56.1861219385858,131.3091647967217 M 53.186121938585764,131.3091647967217 M 53.186121938585764,121.30916479672169 M 56.18612193858578,121.30916479672169 M 56.18612193858578,111.30916479672169 M 53.186121938585764,111.30916479672169 M 53.186121938585764,101.30916479672169 M 56.18612193858582,101.30916479672169 M 56.1861219385858,91.30916479672123 M 53.186121938585785,91.30916479672123 M 53.186121938585714,81.30916479672123 M 56.1861219385858,81.30916479672123 M 56.1861219385858,71.30916479672123 M 53.186121938585764,71.30916479672123 M 53.186121938585764,61.30916479672169 M 56.18612193858582,61.30916479672169 M 56.18612193858582,51.30916479672169 M 53.186121938585764,51.30916479672169 M 53.186121938585764,41.30916479672169 M 58.186121938586105,41.30916479672169 M 58.18612193858602,44.30916479672169 M 68.18612193858525,44.30916479672169 M 68.18612193858525,41.30916479672169 M 78.18612193858584,41.30916479672169 M 78.18612193858583,44.30916479672169 M 88.18612193858574,44.30916479672169 M 88.18612193858576,41.30916479672169 M 98.18612193858563,41.30916479672169 M 98.18612193858564,44.30916479672169 M 108.18612193858625,44.30916479672169 M 108.18612193858625,41.30916479672169 M 118.18612193858542,41.30916479672169 M 118.18612193858542,44.30916479672169 M 128.18612193858604,44.30916479672169 M 257.545189497577,255.59038201996236 M 254.54518949757767,255.59038201996236 M 254.54518949757767,265.5903820199633 M 257.54518949757846,265.5903820199633 M 257.54518949757846,275.59038201996236 M 252.54518949757886,275.59038201996236 M 252.54518949757886,278.59038201996236 M 242.54518949757892,278.59038201996236 M 242.54518949757897,275.59038201996236 M 232.54518949757835,275.59038201996236 M 232.54518949757835,278.59038201996236 M 222.54518949757917,278.59038201996236 M 222.54518949757917,275.59038201996236 M 212.54518949757858,275.59038201996236 M 212.54518949757855,278.59038201996236 M 202.5451894975787,278.59038201996236 M 202.5451894975787,275.59038201996236 M 192.54518949757878,275.59038201996236 M 192.54518949757878,278.59038201996236 M 182.54518949757818,278.59038201996236 M 182.54518949757818,275.59038201996236 M 172.545189497579,275.59038201996236 M 172.545189497579,278.59038201996236 M 162.54518949757838,278.59038201996236 M 162.54518949757838,275.59038201996236 M 157.5451894975788,275.59038201996236 M 157.5451894975795,265.5903820199637 M 160.54518949757957,265.5903820199633 M 160.54518949757883,255.59038201996236 M 157.5451894975788,255.59038201996236 M 157.5451894975788,230.59038201996236 M 162.54518949757838,230.59038201996236 M 162.54518949757838,235.5903820199619 M 252.54518949757886,235.5903820199619 M 252.54518949757886,230.59038201996236 M 257.54518949757846,230.59038201996236 M 153.18612193858465,260.0947520793575 M 153.3074422821447,260.1878444531617 M 153.78419814993865,260.8091647967217 M 154.0838994174525,261.5327076614144 M 154.18612193858516,262.30916479672123 M 154.0838994174525,263.08562193202897 M 153.78419814993865,263.8091647967217 M 153.3074422821447,264.4304851402808 M 152.68612193858476,264.90724100807483 M 151.9625790738929,265.2069422755885 M 151.1861219385851,265.30916479672123 M 150.40966480327734,265.2069422755885 M 149.68612193858544,264.90724100807483 M 149.0648015950255,264.4304851402808 M 148.5880457272316,263.8091647967217 M 148.28834445971773,263.08562193202897 M 148.18612193858507,262.30916479672123 M 148.28834445971773,261.5327076614144 M 148.5880457272316,260.8091647967217 M 149.0648015950255,260.1878444531617 M 149.18612193858485,260.0947520793584 M 149.18612193858485,252.30916479672123 M 103.18612193858522,277.3091647967217 M 57.18612193858557,252.30916479672123 M 57.18612193858557,260.0947520793584 M 57.30744228214493,260.1878444531617 M 57.784198149938824,260.8091647967217 M 58.083899417452706,261.5327076614144 M 58.186121938585345,262.30916479672123 M 58.08389941745269,263.08562193202897 M 57.784198149938845,263.8091647967217 M 57.30744228214491,264.4304851402808 M 56.68612193858494,264.90724100807483 M 55.96257907389309,265.2069422755885 M 55.18612193858531,265.30916479672123 M 54.40966480327752,265.2069422755885 M 53.68612193858565,264.90724100807483 M 53.064801595025706,264.4304851402808 M 52.58804572723178,263.8091647967217 M 52.2883444597179,263.08562193202897 M 52.186121938585266,262.30916479672123 M 52.28834445971792,261.5327076614144 M 52.58804572723178,260.8091647967217 M 53.064801595025706,260.1878444531617 M 53.186121938585764,260.0947520793575 M 53.186121938585764,217.30916479672123 M 56.18612193858508,217.30916479672123 M 56.18612193858508,207.3091647967217 M 53.186121938585764,207.3091647967217 M 53.186121938585764,197.3091647967217 M 58.186121938585345,197.3091647967217 M 58.186121938585345,194.3091647967217 M 68.18612193858525,194.3091647967217 M 68.18612193858522,197.3091647967217 M 78.18612193858513,197.3091647967217 M 78.18612193858513,194.3091647967217 M 88.18612193858502,194.3091647967217 M 88.18612193858502,197.3091647967217 M 98.18612193858563,197.3091647967217 M 98.18612193858563,194.3091647967217 M 108.18612193858553,194.3091647967217 M 108.18612193858553,197.3091647967217 M 118.18612193858542,197.3091647967217 M 118.18612193858542,194.3091647967217 M 128.1861219385853,194.3091647967217 M 128.1861219385853,197.3091647967217 M 138.1861219385852,197.3091647967217 M 138.1861219385852,194.3091647967217 M 148.18612193858579,194.3091647967217 M 148.18612193858579,197.3091647967217 M 153.1861219385854,197.3091647967217 M 153.1861219385854,207.3091647967217 M 150.18612193858533,207.3091647967217 M 150.18612193858533,217.30916479672123 M 153.1861219385854,217.30916479672123 M 305.80161577918716,205.69198498934702 M 305.8016157791836,215.69198498934702 M 302.8016157791835,215.6919849893461 M 302.80161577917994,225.6919849893461 M 295.80161577918,225.69198498934293 M 295.8016157791794,228.69198498934338 M 285.80161577917875,228.69198498933974 M 285.80161577918017,225.6919849893393 M 275.8016157791803,225.6919849893361 M 275.8016157791788,228.6919849893361 M 265.8016157791789,228.69198498933247 M 265.80161577918034,225.69198498933292 M 255.80161577917974,225.69198498932928 M 255.80161577917903,228.69198498932928 M 245.80161577917914,228.69198498932565 M 245.80161577917985,225.69198498932565 M 235.80161577917997,225.691984989322 M 235.80161577917926,228.691984989322 M 225.80161577917863,228.69198498931883 M 225.80161577918008,225.69198498931837 M 215.8016157791802,225.6919849893152 M 215.80161577917875,228.6919849893152 M 205.80161577917886,228.69198498931155 M 205.8016157791803,225.69198498931155 M 195.80161577917968,225.6919849893079 M 195.80161577917897,228.6919849893079 M 185.80161577917906,228.69198498930427 M 185.8016157791798,225.69198498930427 M 175.8016157791799,225.69198498930064 M 175.80161577917917,228.69198498930064 M 165.8016157791793,228.691984989297 M 165.80161577918,225.691984989297 M 158.80161577918017,225.69198498929381 M 158.80161577918378,215.69198498929472 M 155.80161577918372,215.69198498929336 M 155.80161577918733,205.69198498929336 M 158.8016157791874,205.69198498929427 M 158.801615779191,195.69198498929427 M 302.80161577919074,195.69198498934566 M 302.80161577918716,205.69198498934566 "
  />
  <path id="face0-interior"
 style="fill:none;stroke:#FF0000;stroke-width:1;stroke-miterlimit:4;stroke-dasharray:none;stroke-linejoin:round;stroke-linecap:round"
        d="M 159.27287025256217,188.3091647967217 L 259.2728702525633,188.3091647967217 L 259.27287025256317,44.30916479672169 L 159.27287025256217,44.30916479672169 L 159.27287025256217,188.3091647967217 "
  />
  <path id="face1-interior"
 style="fill:none;stroke:#FF0000;stroke-width:1;stroke-miterlimit:4;stroke-dasharray:none;stroke-linejoin:round;stroke-linecap:round"
        d="M 286.18612193858473,191.3091647967217 L 286.18612193858473,181.3091647967217 L 299.1861219385846,181.30916479672078 L 299.18612193858473,171.3091647967217 L 296.1861219385854,171.3091647967217 L 296.1861219385854,161.3091647967217 L 299.1861219385847,161.3091647967217 L 299.1861219385847,151.30916479672123 L 296.18612193858536,151.30916479672123 L 296.18612193858536,141.30916479672123 L 299.1861219385846,141.30916479672123 L 299.1861219385847,131.3091647967217 L 296.18612193858536,131.3091647967217 L 296.1861219385853,121.30916479672169 L 299.1861219385846,121.30916479672169 L 299.1861219385847,111.30916479672169 L 296.1861219385853,111.30916479672169 L 296.18612193858536,101.30916479672169 L 299.1861219385847,101.30916479672169 L 299.1861219385847,91.30916479672123 L 296.18612193858536,91.30916479672123 L 296.18612193858536,81.30916479672123 L 299.18612193858473,81.30916479672123 L 299.1861219385847,71.30916479672123 L 296.18612193858536,71.30916479672123 L 296.18612193858536,61.30916479672169 L 299.1861219385847,61.30916479672169 L 299.1861219385847,51.30916479672169 L 296.18612193858536,51.30916479672169 L 296.18612193858536,44.30916479672169 L 286.18612193858473,44.30916479672169 L 286.1861219385848,41.30916479672169 L 276.18612193858485,41.30916479672169 L 276.18612193858485,44.30916479672169 L 266.18612193858496,44.30916479672169 L 266.18612193858496,188.3091647967217 L 276.18612193858485,188.3091647967217 L 276.18612193858485,191.30916479672078 L 286.18612193858473,191.3091647967217 "
  />
  <path id="face2-interior"
 style="fill:none;stroke:#FF0000;stroke-width:1;stroke-miterlimit:4;stroke-dasharray:none;stroke-linejoin:round;stroke-linecap:round"
        d="M 138.18612193858593,41.30916479672169 L 128.18612193858604,41.30916479672169 L 128.18612193858604,44.30916479672169 L 118.18612193858542,44.30916479672169 L 118.18612193858542,41.30916479672169 L 108.18612193858625,41.30916479672169 L 108.18612193858625,44.30916479672169 L 98.18612193858564,44.30916479672169 L 98.18612193858563,41.30916479672169 L 88.18612193858576,41.30916479672169 L 88.18612193858574,44.30916479672169 L 78.18612193858583,44.30916479672169 L 78.18612193858584,41.30916479672169 L 68.18612193858525,41.30916479672169 L 68.18612193858525,44.30916479672169 L 58.18612193858602,44.30916479672169 L 58.186121938586105,41.30916479672169 L 53.186121938585764,41.30916479672169 L 53.186121938585764,51.30916479672169 L 56.18612193858582,51.30916479672169 L 56.18612193858582,61.30916479672169 L 53.186121938585764,61.30916479672169 L 53.186121938585764,71.30916479672123 L 56.1861219385858,71.30916479672123 L 56.1861219385858,81.30916479672123 L 53.186121938585714,81.30916479672123 L 53.186121938585785,91.30916479672123 L 56.1861219385858,91.30916479672123 L 56.18612193858582,101.30916479672169 L 53.186121938585764,101.30916479672169 L 53.186121938585764,111.30916479672169 L 56.18612193858578,111.30916479672169 L 56.18612193858578,121.30916479672169 L 53.186121938585764,121.30916479672169 L 53.186121938585764,131.3091647967217 L 56.1861219385858,131.3091647967217 L 56.1861219385858,141.30916479672123 L 53.186121938585785,141.30916479672123 L 53.186121938585764,151.30916479672123 L 56.1861219385858,151.30916479672123 L 56.1861219385858,161.30916479672123 L 53.186121938585764,161.30916479672123 L 53.186121938585764,171.3091647967217 L 56.1861219385858,171.3091647967217 L 56.1861219385858,181.3091647967217 L 53.186121938585764,181.3091647967217 L 53.186121938585764,191.3091647967217 L 58.186121938586076,191.3091647967217 L 58.18612193858607,188.3091647967217 L 68.18612193858525,188.3091647967217 L 68.18612193858522,191.30916479672078 L 78.18612193858584,191.3091647967217 L 78.18612193858584,188.3091647967217 L 88.18612193858574,188.3091647967217 L 88.18612193858574,191.3091647967217 L 98.18612193858563,191.3091647967217 L 98.18612193858563,188.3091647967217 L 108.18612193858624,188.3091647967217 L 108.18612193858624,191.3091647967217 L 118.18612193858542,191.3091647967217 L 118.18612193858542,188.3091647967217 L 128.18612193858604,188.3091647967217 L 128.18612193858604,191.3091647967217 L 138.18612193858593,191.3091647967217 L 138.18612193858593,188.3091647967217 L 148.18612193858579,188.3091647967217 L 148.18612193858579,191.3091647967217 L 153.1861219385861,191.3091647967217 L 153.1861219385861,181.3091647967217 L 150.18612193858533,181.3091647967217 L 150.18612193858533,171.3091647967217 L 153.1861219385861,171.3091647967217 L 153.1861219385861,161.30916479672123 L 150.18612193858533,161.30916479672123 L 150.18612193858533,151.30916479672123 L 153.1861219385861,151.30916479672123 L 153.1861219385861,141.30916479672123 L 150.18612193858533,141.30916479672123 L 150.18612193858533,131.3091647967217 L 153.1861219385861,131.3091647967217 L 153.1861219385861,121.30916479672169 L 150.18612193858533,121.30916479672169 L 150.18612193858533,111.30916479672169 L 153.1861219385861,111.30916479672169 L 153.1861219385861,101.30916479672169 L 150.18612193858533,101.30916479672169 L 150.18612193858533,91.30916479672123 L 153.1861219385861,91.30916479672123 L 153.1861219385861,81.30916479672123 L 150.18612193858533,81.30916479672123 L 150.18612193858533,71.30916479672123 L 153.1861219385861,71.30916479672123 L 153.1861219385861,61.30916479672169 L 150.18612193858533,61.30916479672169 L 150.18612193858533,51.30916479672169 L 153.1861219385861,51.30916479672169 L 153.1861219385861,41.30916479672169 L 148.18612193858579,41.30916479672169 L 148.18612193858579,44.30916479672169 L 138.18612193858593,44.30916479672169 L 138.18612193858593,41.30916479672169 "
  />
  <path id="face3-interior"
 style="fill:none;stroke:#FF0000;stroke-width:1;stroke-miterlimit:4;stroke-dasharray:none;stroke-linejoin:round;stroke-linecap:round"
        d="M 254.54518949757767,255.59038201996236 L 257.545189497577,255.59038201996236 L 257.54518949757846,230.59038201996236 L 252.54518949757886,230.59038201996236 L 252.54518949757886,235.5903820199619 L 162.54518949757838,235.5903820199619 L 162.54518949757838,230.59038201996236 L 157.5451894975788,230.59038201996236 L 157.5451894975788,255.59038201996236 L 160.54518949757883,255.59038201996236 L 160.54518949757957,265.5903820199633 L 157.5451894975795,265.5903820199637 L 157.5451894975788,275.59038201996236 L 162.54518949757838,275.59038201996236 L 162.54518949757838,278.59038201996236 L 172.545189497579,278.59038201996236 L 172.545189497579,275.59038201996236 L 182.54518949757818,275.59038201996236 L 182.54518949757818,278.59038201996236 L 192.54518949757878,278.59038201996236 L 192.54518949757878,275.59038201996236 L 202.5451894975787,275.59038201996236 L 202.5451894975787,278.59038201996236 L 212.54518949757855,278.59038201996236 L 212.54518949757858,275.59038201996236 L 222.54518949757917,275.59038201996236 L 222.54518949757917,278.59038201996236 L 232.54518949757835,278.59038201996236 L 232.54518949757835,275.59038201996236 L 242.54518949757897,275.59038201996236 L 242.54518949757892,278.59038201996236 L 252.54518949757886,278.59038201996236 L 252.54518949757886,275.59038201996236 L 257.54518949757846,275.59038201996236 L 257.54518949757846,265.5903820199633 L 254.54518949757767,265.5903820199633 L 254.54518949757767,255.59038201996236 "
  />
  <path id="face4-interior"
 style="fill:none;stroke:#FF0000;stroke-width:1;stroke-miterlimit:4;stroke-dasharray:none;stroke-linejoin:round;stroke-linecap:round"
        d="M 153.3074422821447,260.1878444531617 L 153.18612193858465,260.0947520793575 L 153.1861219385854,217.30916479672123 L 150.18612193858533,217.30916479672123 L 150.18612193858533,207.3091647967217 L 153.1861219385854,207.3091647967217 L 153.1861219385854,197.3091647967217 L 148.18612193858579,197.3091647967217 L 148.18612193858579,194.3091647967217 L 138.1861219385852,194.3091647967217 L 138.1861219385852,197.3091647967217 L 128.1861219385853,197.3091647967217 L 128.1861219385853,194.3091647967217 L 118.18612193858542,194.3091647967217 L 118.18612193858542,197.3091647967217 L 108.18612193858553,197.3091647967217 L 108.18612193858553,194.3091647967217 L 98.18612193858563,194.3091647967217 L 98.18612193858563,197.3091647967217 L 88.18612193858502,197.3091647967217 L 88.18612193858502,194.3091647967217 L 78.18612193858513,194.3091647967217 L 78.18612193858513,197.3091647967217 L 68.18612193858522,197.3091647967217 L 68.18612193858525,194.3091647967217 L 58.186121938585345,194.3091647967217 L 58.186121938585345,197.3091647967217 L 53.186121938585764,197.3091647967217 L 53.186121938585764,207.3091647967217 L 56.18612193858508,207.3091647967217 L 56.18612193858508,217.30916479672123 L 53.186121938585764,217.30916479672123 L 53.186121938585764,260.0947520793575 L 53.064801595025706,260.1878444531617 L 52.58804572723178,260.8091647967217 L 52.28834445971792,261.5327076614144 L 52.186121938585266,262.30916479672123 L 52.2883444597179,263.08562193202897 L 52.58804572723178,263.8091647967217 L 53.064801595025706,264.4304851402808 L 53.68612193858565,264.90724100807483 L 54.40966480327752,265.2069422755885 L 55.18612193858531,265.30916479672123 L 55.96257907389309,265.2069422755885 L 56.68612193858494,264.90724100807483 L 57.30744228214491,264.4304851402808 L 57.784198149938845,263.8091647967217 L 58.08389941745269,263.08562193202897 L 58.186121938585345,262.30916479672123 L 58.083899417452706,261.5327076614144 L 57.784198149938824,260.8091647967217 L 57.30744228214493,260.1878444531617 L 57.18612193858557,260.0947520793584 L 57.18612193858557,252.30916479672123 L 103.18612193858522,277.3091647967217 L 149.18612193858485,252.30916479672123 L 149.18612193858485,260.0947520793584 L 149.0648015950255,260.1878444531617 L 148.5880457272316,260.8091647967217 L 148.28834445971773,261.5327076614144 L 148.18612193858507,262.30916479672123 L 148.28834445971773,263.08562193202897 L 148.5880457272316,263.8091647967217 L 149.0648015950255,264.4304851402808 L 149.68612193858544,264.90724100807483 L 150.40966480327734,265.2069422755885 L 151.1861219385851,265.30916479672123 L 151.9625790738929,265.2069422755885 L 152.68612193858476,264.90724100807483 L 153.3074422821447,264.4304851402808 L 153.78419814993865,263.8091647967217 L 154.0838994174525,263.08562193202897 L 154.18612193858516,262.30916479672123 L 154.0838994174525,261.5327076614144 L 153.78419814993865,260.8091647967217 L 153.3074422821447,260.1878444531617 "
  />
  <path id="face5-interior"
 style="fill:none;stroke:#FF0000;stroke-width:1;stroke-miterlimit:4;stroke-dasharray:none;stroke-linejoin:round;stroke-linecap:round"
        d="M 305.8016157791836,215.69198498934702 L 305.80161577918716,205.69198498934702 L 302.80161577918716,205.69198498934566 L 302.80161577919074,195.69198498934566 L 158.801615779191,195.69198498929427 L 158.8016157791874,205.69198498929427 L 155.80161577918733,205.69198498929336 L 155.80161577918372,215.69198498929336 L 158.80161577918378,215.69198498929472 L 158.80161577918017,225.69198498929381 L 165.80161577918,225.691984989297 L 165.8016157791793,228.691984989297 L 175.80161577917917,228.69198498930064 L 175.8016157791799,225.69198498930064 L 185.8016157791798,225.69198498930427 L 185.80161577917906,228.69198498930427 L 195.80161577917897,228.6919849893079 L 195.80161577917968,225.6919849893079 L 205.8016157791803,225.69198498931155 L 205.80161577917886,228.69198498931155 L 215.80161577917875,228.6919849893152 L 215.8016157791802,225.6919849893152 L 225.80161577918008,225.69198498931837 L 225.80161577917863,228.69198498931883 L 235.80161577917926,228.691984989322 L 235.80161577917997,225.691984989322 L 245.80161577917985,225.69198498932565 L 245.80161577917914,228.69198498932565 L 255.80161577917903,228.69198498932928 L 255.80161577917974,225.69198498932928 L 265.80161577918034,225.69198498933292 L 265.8016157791789,228.69198498933247 L 275.8016157791788,228.6919849893361 L 275.8016157791803,225.6919849893361 L 285.80161577918017,225.6919849893393 L 285.80161577917875,228.69198498933974 L 295.8016157791794,228.69198498934338 L 295.80161577918,225.69198498934293 L 302.80161577917994,225.6919849893461 L 302.8016157791835,215.6919849893461 L 305.8016157791836,215.69198498934702 "
  />
  <path id="face6-interior"
 style="fill:none;stroke:#FF0000;stroke-width:1;stroke-miterlimit:4;stroke-dasharray:none;stroke-linejoin:round;stroke-linecap:round"
        d="M 349.9999999999999,10.0 M 10.0,10.0 M 10.0,320.0 M 349.9999999999999,320.0 M 259.2728702525633,188.3091647967217 M 159.27287025256217,188.3091647967217 M 159.27287025256217,44.30916479672169 M 259.27287025256317,44.30916479672169 M 286.18612193858473,181.3091647967217 M 286.18612193858473,191.3091647967217 M 276.18612193858485,191.30916479672078 M 276.18612193858485,188.3091647967217 M 266.18612193858496,188.3091647967217 M 266.18612193858496,44.30916479672169 M 276.18612193858485,44.30916479672169 M 276.18612193858485,41.30916479672169 M 286.1861219385848,41.30916479672169 M 286.18612193858473,44.30916479672169 M 296.18612193858536,44.30916479672169 M 296.18612193858536,51.30916479672169 M 299.1861219385847,51.30916479672169 M 299.1861219385847,61.30916479672169 M 296.18612193858536,61.30916479672169 M 296.18612193858536,71.30916479672123 M 299.1861219385847,71.30916479672123 M 299.18612193858473,81.30916479672123 M 296.18612193858536,81.30916479672123 M 296.18612193858536,91.30916479672123 M 299.1861219385847,91.30916479672123 M 299.1861219385847,101.30916479672169 M 296.18612193858536,101.30916479672169 M 296.1861219385853,111.30916479672169 M 299.1861219385847,111.30916479672169 M 299.1861219385846,121.30916479672169 M 296.1861219385853,121.30916479672169 M 296.18612193858536,131.3091647967217 M 299.1861219385847,131.3091647967217 M 299.1861219385846,141.30916479672123 M 296.18612193858536,141.30916479672123 M 296.18612193858536,151.30916479672123 M 299.1861219385847,151.30916479672123 M 299.1861219385847,161.3091647967217 M 296.1861219385854,161.3091647967217 M 296.1861219385854,171.3091647967217 M 299.18612193858473,171.3091647967217 M 299.1861219385846,181.30916479672078 M 128.18612193858604,41.30916479672169 M 138.18612193858593,41.30916479672169 M 138.18612193858593,44.30916479672169 M 148.18612193858579,44.30916479672169 M 148.18612193858579,41.30916479672169 M 153.1861219385861,41.30916479672169 M 153.1861219385861,51.30916479672169 M 150.18612193858533,51.30916479672169 M 150.18612193858533,61.30916479672169 M 153.1861219385861,61.30916479672169 M 153.1861219385861,71.30916479672123 M 150.18612193858533,71.30916479672123 M 150.18612193858533,81.30916479672123 M 153.1861219385861,81.30916479672123 M 153.1861219385861,91.30916479672123 M 150.18612193858533,91.30916479672123 M 150.18612193858533,101.30916479672169 M 153.1861219385861,101.30916479672169 M 153.1861219385861,111.30916479672169 M 150.18612193858533,111.30916479672169 M 150.18612193858533,121.30916479672169 M 153.1861219385861,121.30916479672169 M 153.1861219385861,131.3091647967217 M 150.18612193858533,131.3091647967217 M 150.18612193858533,141.30916479672123 M 153.1861219385861,141.30916479672123 M 153.1861219385861,151.30916479672123 M 150.18612193858533,151.30916479672123 M 150.18612193858533,161.30916479672123 M 153.1861219385861,161.30916479672123 M 153.1861219385861,171.3091647967217 M 150.18612193858533,171.3091647967217 M 150.18612193858533,181.3091647967217 M 153.1861219385861,181.3091647967217 M 153.1861219385861,191.3091647967217 M 148.18612193858579,191.3091647967217 M 148.18612193858579,188.3091647967217 M 138.18612193858593,188.3091647967217 M 138.18612193858593,191.3091647967217 M 128.18612193858604,191.3091647967217 M 128.18612193858604,188.3091647967217 M 118.18612193858542,188.3091647967217 M 118.18612193858542,191.3091647967217 M 108.18612193858624,191.3091647967217 M 108.18612193858624,188.3091647967217 M 98.18612193858563,188.3091647967217 M 98.18612193858563,191.3091647967217 M 88.18612193858574,191.3091647967217 M 88.18612193858574,188.3091647967217 M 78.18612193858584,188.3091647967217 M 78.18612193858584,191.3091647967217 M 68.18612193858522,191.30916479672078 M 68.18612193858525,188.3091647967217 M 58.18612193858607,188.3091647967217 M 58.186121938586076,191.3091647967217 M 53.186121938585764,191.3091647967217 M 53.186121938585764,181.3091647967217 M 56.1861219385858,181.3091647967217 M 56.1861219385858,171.3091647967217 M 53.186121938585764,171.3091647967217 M 53.186121938585764,161.30916479672123 M 56.1861219385858,161.30916479672123 M 56.1861219385858,151.30916479672123 M 53.186121938585764,151.30916479672123 M 53.186121938585785,141.30916479672123 M 56.1861219385858,141.30916479672123 M 56.1861219385858,131.3091647967217 M 53.186121938585764,131.3091647967217 M 53.186121938585764,121.30916479672169 M 56.18612193858578,121.30916479672169 M 56.18612193858578,111.30916479672169 M 53.186121938585764,111.30916479672169 M 53.186121938585764,101.30916479672169 M 56.18612193858582,101.30916479672169 M 56.1861219385858,91.30916479672123 M 53.186121938585785,91.30916479672123 M 53.186121938585714,81.30916479672123 M 56.1861219385858,81.30916479672123 M 56.1861219385858,71.30916479672123 M 53.186121938585764,71.30916479672123 M 53.186121938585764,61.30916479672169 M 56.18612193858582,61.30916479672169 M 56.18612193858582,51.30916479672169 M 53.186121938585764,51.30916479672169 M 53.186121938585764,41.30916479672169 M 58.186121938586105,41.30916479672169 M 58.18612193858602,44.30916479672169 M 68.18612193858525,44.30916479672169 M 68.18612193858525,41.30916479672169 M 78.18612193858584,41.30916479672169 M 78.18612193858583,44.30916479672169 M 88.18612193858574,44.30916479672169 M 88.18612193858576,41.30916479672169 M 98.18612193858563,41.30916479672169 M 98.18612193858564,44.30916479672169 M 108.18612193858625,44.30916479672169 M 108.18612193858625,41.30916479672169 M 118.18612193858542,41.30916479672169 M 118.18612193858542,44.30916479672169 M 128.18612193858604,44.30916479672169 M 257.545189497577,255.59038201996236 M 254.54518949757767,255.59038201996236 M 254.54518949757767,265.5903820199633 M 257.54518949757846,265.5903820199633 M 257.54518949757846,275.59038201996236 M 252.54518949757886,275.59038201996236 M 252.54518949757886,278.59038201996236 M 242.54518949757892,278.59038201996236 M 242.54518949757897,275.59038201996236 M 232.54518949757835,275.59038201996236 M 232.54518949757835,278.59038201996236 M 222.54518949757917,278.59038201996236 M 222.54518949757917,275.59038201996236 M 212.54518949757858,275.59038201996236 M 212.54518949757855,278.59038201996236 M 202.5451894975787,278.59038201996236 M 202.5451894975787,275.59038201996236 M 192.54518949757878,275.59038201996236 M 192.54518949757878,278.59038201996236 M 182.54518949757818,278.59038201996236 M 182.54518949757818,275.59038201996236 M 172.545189497579,275.59038201996236 M 172.545189497579,278.59038201996236 M 162.54518949757838,278.59038201996236 M 162.54518949757838,275.59038201996236 M 157.5451894975788,275.59038201996236 M 157.5451894975795,265.5903820199637 M 160.54518949757957,265.5903820199633 M 160.54518949757883,255.59038201996236 M 157.5451894975788,255.59038201996236 M 157.5451894975788,230.59038201996236 M 162.54518949757838,230.59038201996236 M 162.54518949757838,235.5903820199619 M 252.54518949757886,235.5903820199619 M 252.54518949757886,230.59038201996236 M 257.54518949757846,230.59038201996236 M 153.18612193858465,260.0947520793575 M 153.3074422821447,260.1878444531617 M 153.78419814993865,260.8091647967217 M 154.0838994174525,261.5327076614144 M 154.18612193858516,262.30916479672123 M 154.0838994174525,263.08562193202897 M 153.78419814993865,263.8091647967217 M 153.3074422821447,264.4304851402808 M 152.68612193858476,264.90724100807483 M 151.9625790738929,265.2069422755885 M 151.1861219385851,265.30916479672123 M 150.40966480327734,265.2069422755885 M 149.68612193858544,264.90724100807483 M 149.0648015950255,264.4304851402808 M 148.5880457272316,263.8091647967217 M 148.28834445971773,263.08562193202897 M 148.18612193858507,262.30916479672123 M 148.28834445971773,261.5327076614144 M 148.5880457272316,260.8091647967217 M 149.0648015950255,260.1878444531617 M 149.18612193858485,260.0947520793584 M 149.18612193858485,252.30916479672123 M 103.18612193858522,277.3091647967217 M 57.18612193858557,252.30916479672123 M 57.18612193858557,260.0947520793584 M 57.30744228214493,260.1878444531617 M 57.784198149938824,260.8091647967217 M 58.083899417452706,261.5327076614144 M 58.186121938585345,262.30916479672123 M 58.08389941745269,263.08562193202897 M 57.784198149938845,263.8091647967217 M 57.30744228214491,264.4304851402808 M 56.68612193858494,264.90724100807483 M 55.96257907389309,265.2069422755885 M 55.18612193858531,265.30916479672123 M 54.40966480327752,265.2069422755885 M 53.68612193858565,264.90724100807483 M 53.064801595025706,264.4304851402808 M 52.58804572723178,263.8091647967217 M 52.2883444597179,263.08562193202897 M 52.186121938585266,262.30916479672123 M 52.28834445971792,261.5327076614144 M 52.58804572723178,260.8091647967217 M 53.064801595025706,260.1878444531617 M 53.186121938585764,260.0947520793575 M 53.186121938585764,217.30916479672123 M 56.18612193858508,217.30916479672123 M 56.18612193858508,207.3091647967217 M 53.186121938585764,207.3091647967217 M 53.186121938585764,197.3091647967217 M 58.186121938585345,197.3091647967217 M 58.186121938585345,194.3091647967217 M 68.18612193858525,194.3091647967217 M 68.18612193858522,197.3091647967217 M 78.18612193858513,197.3091647967217 M 78.18612193858513,194.3091647967217 M 88.18612193858502,194.3091647967217 M 88.18612193858502,197.3091647967217 M 98.18612193858563,197.3091647967217 M 98.18612193858563,194.3091647967217 M 108.18612193858553,194.3091647967217 M 108.18612193858553,197.3091647967217 M 118.18612193858542,197.3091647967217 M 118.18612193858542,194.3091647967217 M 128.1861219385853,194.3091647967217 M 128.1861219385853,197.3091647967217 M 138.1861219385852,197.3091647967217 M 138.1861219385852,194.3091647967217 M 148.18612193858579,194.3091647967217 M 148.18612193858579,197.3091647967217 M 153.1861219385854,197.3091647967217 M 153.1861219385854,207.3091647967217 M 150.18612193858533,207.3091647967217 M 150.18612193858533,217.30916479672123 M 153.1861219385854,217.30916479672123 M 305.80161577918716,205.69198498934702 M 305.8016157791836,215.69198498934702 M 302.8016157791835,215.6919849893461 M 302.80161577917994,225.6919849893461 M 295.80161577918,225.69198498934293 M 295.8016157791794,228.69198498934338 M 285.80161577917875,228.69198498933974 M 285.80161577918017,225.6919849893393 M 275.8016157791803,225.6919849893361 M 275.8016157791788,228.6919849893361 M 265.8016157791789,228.69198498933247 M 265.80161577918034,225.69198498933292 M 255.80161577917974,225.69198498932928 M 255.80161577917903,228.69198498932928 M 245.80161577917914,228.69198498932565 M 245.80161577917985,225.69198498932565 M 235.80161577917997,225.691984989322 M 235.80161577917926,228.691984989322 M 225.80161577917863,228.69198498931883 M 225.80161577918008,225.69198498931837 M 215.8016157791802,225.6919849893152 M 215.80161577917875,228.6919849893152 M 205.80161577917886,228.69198498931155 M 205.8016157791803,225.69198498931155 M 195.80161577917968,225.6919849893079 M 195.80161577917897,228.6919849893079 M 185.80161577917906,228.69198498930427 M 185.8016157791798,225.69198498930427 M 175.8016157791799,225.69198498930064 M 175.80161577917917,228.69198498930064 M 165.8016157791793,228.691984989297 M 165.80161577918,225.691984989297 M 158.80161577918017,225.69198498929381 M 158.80161577918378,215.69198498929472 M 155.80161577918372,215.69198498929336 M 155.80161577918733,205.69198498929336 M 158.8016157791874,205.69198498929427 M 158.801615779191,195.69198498929427 M 302.80161577919074,195.69198498934566 M 302.80161577918716,205.69198498934566 "
  />
  <path id="face0-interior"
 style="fill:none;stroke:#00FF00;stroke-width:1;stroke-miterlimit:4;stroke-dasharray:none;stroke-linejoin:round;stroke-linecap:round"
        d="M 159.27287025256217,188.3091647967217 M 259.2728702525633,188.3091647967217 M 259.27287025256317,44.30916479672169 M 159.27287025256217,44.30916479672169 "
  />
  <path id="face1-interior"
 style="fill:none;stroke:#00FF00;stroke-width:1;stroke-miterlimit:4;stroke-dasharray:none;stroke-linejoin:round;stroke-linecap:round"
        d="M 286.18612193858473,191.3091647967217 M 286.18612193858473,181.3091647967217 M 299.1861219385846,181.30916479672078 M 299.18612193858473,171.3091647967217 M 296.1861219385854,171.3091647967217 M 296.1861219385854,161.3091647967217 M 299.1861219385847,161.3091647967217 M 299.1861219385847,151.30916479672123 M 296.18612193858536,151.30916479672123 M 296.18612193858536,141.30916479672123 M 299.1861219385846,141.30916479672123 M 299.1861219385847,131.3091647967217 M 296.18612193858536,131.3091647967217 M 296.1861219385853,121.30916479672169 M 299.1861219385846,121.30916479672169 M 299.1861219385847,111.30916479672169 M 296.1861219385853,111.30916479672169 M 296.18612193858536,101.30916479672169 M 299.1861219385847,101.30916479672169 M 299.1861219385847,91.30916479672123 M 296.18612193858536,91.30916479672123 M 296.18612193858536,81.30916479672123 M 299.18612193858473,81.30916479672123 M 299.1861219385847,71.30916479672123 M 296.18612193858536,71.30916479672123 M 296.18612193858536,61.30916479672169 M 299.1861219385847,61.30916479672169 M 299.1861219385847,51.30916479672169 M 296.18612193858536,51.30916479672169 M 296.18612193858536,44.30916479672169 M 286.18612193858473,44.30916479672169 M 286.1861219385848,41.30916479672169 M 276.18612193858485,41.30916479672169 M 276.18612193858485,44.30916479672169 M 266.18612193858496,44.30916479672169 M 266.18612193858496,188.3091647967217 M 276.18612193858485,188.3091647967217 M 276.18612193858485,191.30916479672078 "
  />
  <path id="face2-interior"
 style="fill:none;stroke:#00FF00;stroke-width:1;stroke-miterlimit:4;stroke-dasharray:none;stroke-linejoin:round;stroke-linecap:round"
        d="M 138.18612193858593,41.30916479672169 M 128.18612193858604,41.30916479672169 M 128.18612193858604,44.30916479672169 M 118.18612193858542,44.30916479672169 M 118.18612193858542,41.30916479672169 M 108.18612193858625,41.30916479672169 M 108.18612193858625,44.30916479672169 M 98.18612193858564,44.30916479672169 M 98.18612193858563,41.30916479672169 M 88.18612193858576,41.30916479672169 M 88.18612193858574,44.30916479672169 M 78.18612193858583,44.30916479672169 M 78.18612193858584,41.30916479672169 M 68.18612193858525,41.30916479672169 M 68.18612193858525,44.30916479672169 M 58.18612193858602,44.30916479672169 M 58.186121938586105,41.30916479672169 M 53.186121938585764,41.30916479672169 M 53.186121938585764,51.30916479672169 M 56.18612193858582,51.30916479672169 M 56.18612193858582,61.30916479672169 M 53.186121938585764,61.30916479672169 M 53.186121938585764,71.30916479672123 M 56.1861219385858,71.30916479672123 M 56.1861219385858,81.30916479672123 M 53.186121938585714,81.30916479672123 M 53.186121938585785,91.30916479672123 M 56.1861219385858,91.30916479672123 M 56.18612193858582,101.30916479672169 M 53.186121938585764,101.30916479672169 M 53.186121938585764,111.30916479672169 M 56.18612193858578,111.30916479672169 M 56.18612193858578,121.30916479672169 M 53.186121938585764,121.30916479672169 M 53.186121938585764,131.3091647967217 M 56.1861219385858,131.3091647967217 M 56.1861219385858,141.30916479672123 M 53.186121938585785,141.30916479672123 M 53.186121938585764,151.30916479672123 M 56.1861219385858,151.30916479672123 M 56.1861219385858,161.30916479672123 M 53.186121938585764,161.30916479672123 M 53.186121938585764,171.3091647967217 M 56.1861219385858,171.3091647967217 M 56.1861219385858,181.3091647967217 M 53.186121938585764,181.3091647967217 M 53.186121938585764,191.3091647967217 M 58.186121938586076,191.3091647967217 M 58.18612193858607,188.3091647967217 M 68.18612193858525,188.3091647967217 M 68.18612193858522,191.30916479672078 M 78.18612193858584,191.3091647967217 M 78.18612193858584,188.3091647967217 M 88.18612193858574,188.3091647967217 M 88.18612193858574,191.3091647967217 M 98.18612193858563,191.3091647967217 M 98.18612193858563,188.3091647967217 M 108.18612193858624,188.3091647967217 M 108.18612193858624,191.3091647967217 M 118.18612193858542,191.3091647967217 M 118.18612193858542,188.3091647967217 M 128.18612193858604,188.3091647967217 M 128.18612193858604,191.3091647967217 M 138.18612193858593,191.3091647967217 M 138.18612193858593,188.3091647967217 M 148.18612193858579,188.3091647967217 M 148.18612193858579,191.3091647967217 M 153.1861219385861,191.3091647967217 M 153.1861219385861,181.3091647967217 M 150.18612193858533,181.3091647967217 M 150.18612193858533,171.3091647967217 M 153.1861219385861,171.3091647967217 M 153.1861219385861,161.30916479672123 M 150.18612193858533,161.30916479672123 M 150.18612193858533,151.30916479672123 M 153.1861219385861,151.30916479672123 M 153.1861219385861,141.30916479672123 M 150.18612193858533,141.30916479672123 M 150.18612193858533,131.3091647967217 M 153.1861219385861,131.3091647967217 M 153.1861219385861,121.30916479672169 M 150.18612193858533,121.30916479672169 M 150.18612193858533,111.30916479672169 M 153.1861219385861,111.30916479672169 M 153.1861219385861,101.30916479672169 M 150.18612193858533,101.30916479672169 M 150.18612193858533,91.30916479672123 M 153.1861219385861,91.30916479672123 M 153.1861219385861,81.30916479672123 M 150.18612193858533,81.30916479672123 M 150.18612193858533,71.30916479672123 M 153.1861219385861,71.30916479672123 M 153.1861219385861,61.30916479672169 M 150.18612193858533,61.30916479672169 M 150.18612193858533,51.30916479672169 M 153.1861219385861,51.30916479672169 M 153.1861219385861,41.30916479672169 M 148.18612193858579,41.30916479672169 M 148.18612193858579,44.30916479672169 M 138.18612193858593,44.30916479672169 "
  />
  <path id="face3-interior"
 style="fill:none;stroke:#00FF00;stroke-width:1;stroke-miterlimit:4;stroke-dasharray:none;stroke-linejoin:round;stroke-linecap:round"
        d="M 254.54518949757767,255.59038201996236 M 257.545189497577,255.59038201996236 M 257.54518949757846,230.59038201996236 M 252.54518949757886,230.59038201996236 M 252.54518949757886,235.5903820199619 M 162.54518949757838,235.5903820199619 M 162.54518949757838,230.59038201996236 M 157.5451894975788,230.59038201996236 M 157.5451894975788,255.59038201996236 M 160.54518949757883,255.59038201996236 M 160.54518949757957,265.5903820199633 M 157.5451894975795,265.5903820199637 M 157.5451894975788,275.59038201996236 M 162.54518949757838,275.59038201996236 M 162.54518949757838,278.59038201996236 M 172.545189497579,278.59038201996236 M 172.545189497579,275.59038201996236 M 182.54518949757818,275.59038201996236 M 182.54518949757818,278.59038201996236 M 192.54518949757878,278.59038201996236 M 192.54518949757878,275.59038201996236 M 202.5451894975787,275.59038201996236 M 202.5451894975787,278.59038201996236 M 212.54518949757855,278.59038201996236 M 212.54518949757858,275.59038201996236 M 222.54518949757917,275.59038201996236 M 222.54518949757917,278.59038201996236 M 232.54518949757835,278.59038201996236 M 232.54518949757835,275.59038201996236 M 242.54518949757897,275.59038201996236 M 242.54518949757892,278.59038201996236 M 252.54518949757886,278.59038201996236 M 252.54518949757886,275.59038201996236 M 257.54518949757846,275.59038201996236 M 257.54518949757846,265.5903820199633 M 254.54518949757767,265.5903820199633 "
  />
  <path id="face4-interior"
 style="fill:none;stroke:#00FF00;stroke-width:1;stroke-miterlimit:4;stroke-dasharray:none;stroke-linejoin:round;stroke-linecap:round"
        d="M 153.3074422821447,260.1878444531617 M 153.18612193858465,260.0947520793575 M 153.1861219385854,217.30916479672123 M 150.18612193858533,217.30916479672123 M 150.18612193858533,207.3091647967217 M 153.1861219385854,207.3091647967217 M 153.1861219385854,197.3091647967217 M 148.18612193858579,197.3091647967217 M 148.18612193858579,194.3091647967217 M 138.1861219385852,194.3091647967217 M 138.1861219385852,197.3091647967217 M 128.1861219385853,197.3091647967217 M 128.1861219385853,194.3091647967217 M 118.18612193858542,194.3091647967217 M 118.18612193858542,197.3091647967217 M 108.18612193858553,197.3091647967217 M 108.18612193858553,194.3091647967217 M 98.18612193858563,194.3091647967217 M 98.18612193858563,197.3091647967217 M 88.18612193858502,197.3091647967217 M 88.18612193858502,194.3091647967217 M 78.18612193858513,194.3091647967217 M 78.18612193858513,197.3091647967217 M 68.18612193858522,197.3091647967217 M 68.18612193858525,194.3091647967217 M 58.186121938585345,194.3091647967217 M 58.186121938585345,197.3091647967217 M 53.186121938585764,197.3091647967217 M 53.186121938585764,207.3091647967217 M 56.18612193858508,207.3091647967217 M 56.18612193858508,217.30916479672123 M 53.186121938585764,217.30916479672123 M 53.186121938585764,260.0947520793575 M 53.064801595025706,260.1878444531617 M 52.58804572723178,260.8091647967217 M 52.28834445971792,261.5327076614144 M 52.186121938585266,262.30916479672123 M 52.2883444597179,263.08562193202897 M 52.58804572723178,263.8091647967217 M 53.064801595025706,264.4304851402808 M 53.68612193858565,264.90724100807483 M 54.40966480327752,265.2069422755885 M 55.18612193858531,265.30916479672123 M 55.96257907389309,265.2069422755885 M 56.68612193858494,264.90724100807483 M 57.30744228214491,264.4304851402808 M 57.784198149938845,263.8091647967217 M 58.08389941745269,263.08562193202897 M 58.186121938585345,262.30916479672123 M 58.083899417452706,261.5327076614144 M 57.784198149938824,260.8091647967217 M 57.30744228214493,260.1878444531617 M 57.18612193858557,260.0947520793584 M 57.18612193858557,252.30916479672123 M 103.18612193858522,277.3091647967217 M 149.18612193858485,252.30916479672123 M 149.18612193858485,260.0947520793584 M 149.0648015950255,260.1878444531617 M 148.5880457272316,260.8091647967217 M 148.28834445971773,261.5327076614144 M 148.18612193858507,262.30916479672123 M 148.28834445971773,263.08562193202897 M 148.5880457272316,263.8091647967217 M 149.0648015950255,264.4304851402808 M 149.68612193858544,264.90724100807483 M 150.40966480327734,265.2069422755885 M 151.1861219385851,265.30916479672123 M 151.9625790738929,265.2069422755885 M 152.68612193858476,264.90724100807483 M 153.3074422821447,264.4304851402808 M 153.78419814993865,263.8091647967217 M 154.0838994174525,263.08562193202897 M 154.18612193858516,262.30916479672123 M 154.0838994174525,261.5327076614144 M 153.78419814993865,260.8091647967217 "
  />
  <path id="face5-interior"
 style="fill:none;stroke:#00FF00;stroke-width:1;stroke-miterlimit:4;stroke-dasharray:none;stroke-linejoin:round;stroke-linecap:round"
        d="M 305.8016157791836,215.69198498934702 M 305.80161577918716,205.69198498934702 M 302.80161577918716,205.69198498934566 M 302.80161577919074,195.69198498934566 M 158.801615779191,195.69198498929427 M 158.8016157791874,205.69198498929427 M 155.80161577918733,205.69198498929336 M 155.80161577918372,215.69198498929336 M 158.80161577918378,215.69198498929472 M 158.80161577918017,225.69198498929381 M 165.80161577918,225.691984989297 M 165.8016157791793,228.691984989297 M 175.80161577917917,228.69198498930064 M 175.8016157791799,225.69198498930064 M 185.8016157791798,225.69198498930427 M 185.80161577917906,228.69198498930427 M 195.80161577917897,228.6919849893079 M 195.80161577917968,225.6919849893079 M 205.8016157791803,225.69198498931155 M 205.80161577917886,228.69198498931155 M 215.80161577917875,228.6919849893152 M 215.8016157791802,225.6919849893152 M 225.80161577918008,225.69198498931837 M 225.80161577917863,228.69198498931883 M 235.80161577917926,228.691984989322 M 235.80161577917997,225.691984989322 M 245.80161577917985,225.69198498932565 M 245.80161577917914,228.69198498932565 M 255.80161577917903,228.69198498932928 M 255.80161577917974,225.69198498932928 M 265.80161577918034,225.69198498933292 M 265.8016157791789,228.69198498933247 M 275.8016157791788,228.6919849893361 M 275.8016157791803,225.6919849893361 M 285.80161577918017,225.6919849893393 M 285.80161577917875,228.69198498933974 M 295.8016157791794,228.69198498934338 M 295.80161577918,225.69198498934293 M 302.80161577917994,225.6919849893461 M 302.8016157791835,215.6919849893461 "
  />
  <path id="face6-interior"
 style="fill:none;stroke:#00FF00;stroke-width:1;stroke-miterlimit:4;stroke-dasharray:none;stroke-linejoin:round;stroke-linecap:round"
        d="M 349.9999999999999,10.0 M 10.0,10.0 M 10.0,320.0 M 349.9999999999999,320.0 M 259.2728702525633,188.3091647967217 M 159.27287025256217,188.3091647967217 M 159.27287025256217,44.30916479672169 M 259.27287025256317,44.30916479672169 M 286.18612193858473,181.3091647967217 M 286.18612193858473,191.3091647967217 M 276.18612193858485,191.30916479672078 M 276.18612193858485,188.3091647967217 M 266.18612193858496,188.3091647967217 M 266.18612193858496,44.30916479672169 M 276.18612193858485,44.30916479672169 M 276.18612193858485,41.30916479672169 M 286.1861219385848,41.30916479672169 M 286.18612193858473,44.30916479672169 M 296.18612193858536,44.30916479672169 M 296.18612193858536,51.30916479672169 M 299.1861219385847,51.30916479672169 M 299.1861219385847,61.30916479672169 M 296.18612193858536,61.30916479672169 M 296.18612193858536,71.30916479672123 M 299.1861219385847,71.30916479672123 M 299.18612193858473,81.30916479672123 M 296.18612193858536,81.30916479672123 M 296.18612193858536,91.30916479672123 M 299.1861219385847,91.30916479672123 M 299.1861219385847,101.30916479672169 M 296.18612193858536,101.30916479672169 M 296.1861219385853,111.30916479672169 M 299.1861219385847,111.30916479672169 M 299.1861219385846,121.30916479672169 M 296.1861219385853,121.30916479672169 M 296.18612193858536,131.3091647967217 M 299.1861219385847,131.3091647967217 M 299.1861219385846,141.30916479672123 M 296.18612193858536,141.30916479672123 M 296.18612193858536,151.30916479672123 M 299.1861219385847,151.30916479672123 M 299.1861219385847,161.3091647967217 M 296.1861219385854,161.3091647967217 M 296.1861219385854,171.3091647967217 M 299.18612193858473,171.3091647967217 M 299.1861219385846,181.30916479672078 M 128.18612193858604,41.30916479672169 M 138.18612193858593,41.30916479672169 M 138.18612193858593,44.30916479672169 M 148.18612193858579,44.30916479672169 M 148.18612193858579,41.30916479672169 M 153.1861219385861,41.30916479672169 M 153.1861219385861,51.30916479672169 M 150.18612193858533,51.30916479672169 M 150.18612193858533,61.30916479672169 M 153.1861219385861,61.30916479672169 M 153.1861219385861,71.30916479672123 M 150.18612193858533,71.30916479672123 M 150.18612193858533,81.30916479672123 M 153.1861219385861,81.30916479672123 M 153.1861219385861,91.30916479672123 M 150.18612193858533,91.30916479672123 M 150.18612193858533,101.30916479672169 M 153.1861219385861,101.30916479672169 M 153.1861219385861,111.30916479672169 M 150.18612193858533,111.30916479672169 M 150.18612193858533,121.30916479672169 M 153.1861219385861,121.30916479672169 M 153.1861219385861,131.3091647967217 M 150.18612193858533,131.3091647967217 M 150.18612193858533,141.30916479672123 M 153.1861219385861,141.30916479672123 M 153.1861219385861,151.30916479672123 M 150.18612193858533,151.30916479672123 M 150.18612193858533,161.30916479672123 M 153.1861219385861,161.30916479672123 M 153.1861219385861,171.3091647967217 M 150.18612193858533,171.3091647967217 M 150.18612193858533,181.3091647967217 M 153.1861219385861,181.3091647967217 M 153.1861219385861,191.3091647967217 M 148.18612193858579,191.3091647967217 M 148.18612193858579,188.3091647967217 M 138.18612193858593,188.3091647967217 M 138.18612193858593,191.3091647967217 M 128.18612193858604,191.3091647967217 M 128.18612193858604,188.3091647967217 M 118.18612193858542,188.3091647967217 M 118.18612193858542,191.3091647967217 M 108.18612193858624,191.3091647967217 M 108.18612193858624,188.3091647967217 M 98.18612193858563,188.3091647967217 M 98.18612193858563,191.3091647967217 M 88.18612193858574,191.3091647967217 M 88.18612193858574,188.3091647967217 M 78.18612193858584,188.3091647967217 M 78.18612193858584,191.3091647967217 M 68.18612193858522,191.30916479672078 M 68.18612193858525,188.3091647967217 M 58.18612193858607,188.3091647967217 M 58.186121938586076,191.3091647967217 M 53.186121938585764,191.3091647967217 M 53.186121938585764,181.3091647967217 M 56.1861219385858,181.3091647967217 M 56.1861219385858,171.3091647967217 M 53.186121938585764,171.3091647967217 M 53.186121938585764,161.30916479672123 M 56.1861219385858,161.30916479672123 M 56.1861219385858,151.30916479672123 M 53.186121938585764,151.30916479672123 M 53.186121938585785,141.30916479672123 M 56.1861219385858,141.30916479672123 M 56.1861219385858,131.3091647967217 M 53.186121938585764,131.3091647967217 M 53.186121938585764,121.30916479672169 M 56.18612193858578,121.30916479672169 M 56.18612193858578,111.30916479672169 M 53.186121938585764,111.30916479672169 M 53.186121938585764,101.30916479672169 M 56.18612193858582,101.30916479672169 M 56.1861219385858,91.30916479672123 M 53.186121938585785,91.30916479672123 M 53.186121938585714,81.30916479672123 M 56.1861219385858,81.30916479672123 M 56.1861219385858,71.30916479672123 M 53.186121938585764,71.30916479672123 M 53.186121938585764,61.30916479672169 M 56.18612193858582,61.30916479672169 M 56.18612193858582,51.30916479672169 M 53.186121938585764,51.30916479672169 M 53.186121938585764,41.30916479672169 M 58.186121938586105,41.30916479672169 M 58.18612193858602,44.30916479672169 M 68.18612193858525,44.30916479672169 M 68.18612193858525,41.30916479672169 M 78.18612193858584,41.30916479672169 M 78.18612193858583,44.30916479672169 M 88.18612193858574,44.30916479672169 M 88.18612193858576,41.30916479672169 M 98.18612193858563,41.30916479672169 M 98.18612193858564,44.30916479672169 M 108.18612193858625,44.30916479672169 M 108.18612193858625,41.30916479672169 M 118.18612193858542,41.30916479672169 M 118.18612193858542,44.30916479672169 M 128.18612193858604,44.30916479672169 M 257.545189497577,255.59038201996236 M 254.54518949757767,255.59038201996236 M 254.54518949757767,265.5903820199633 M 257.54518949757846,265.5903820199633 M 257.54518949757846,275.59038201996236 M 252.54518949757886,275.59038201996236 M 252.54518949757886,278.59038201996236 M 242.54518949757892,278.59038201996236 M 242.54518949757897,275.59038201996236 M 232.54518949757835,275.59038201996236 M 232.54518949757835,278.59038201996236 M 222.54518949757917,278.59038201996236 M 222.54518949757917,275.59038201996236 M 212.54518949757858,275.59038201996236 M 212.54518949757855,278.59038201996236 M 202.5451894975787,278.59038201996236 M 202.5451894975787,275.59038201996236 M 192.54518949757878,275.59038201996236 M 192.54518949757878,278.59038201996236 M 182.54518949757818,278.59038201996236 M 182.54518949757818,275.59038201996236 M 172.545189497579,275.59038201996236 M 172.545189497579,278.59038201996236 M 162.54518949757838,278.59038201996236 M 162.54518949757838,275.59038201996236 M 157.5451894975788,275.59038201996236 M 157.5451894975795,265.5903820199637 M 160.54518949757957,265.5903820199633 M 160.54518949757883,255.59038201996236 M 157.5451894975788,255.59038201996236 M 157.5451894975788,230.59038201996236 M 162.54518949757838,230.59038201996236 M 162.54518949757838,235.5903820199619 M 252.54518949757886,235.5903820199619 M 252.54518949757886,230.59038201996236 M 257.54518949757846,230.59038201996236 M 153.18612193858465,260.0947520793575 M 153.3074422821447,260.1878444531617 M 153.78419814993865,260.8091647967217 M 154.0838994174525,261.5327076614144 M 154.18612193858516,262.30916479672123 M 154.0838994174525,263.08562193202897 M 153.78419814993865,263.8091647967217 M 153.3074422821447,264.4304851402808 M 152.68612193858476,264.90724100807483 M 151.9625790738929,265.2069422755885 M 151.1861219385851,265.30916479672123 M 150.40966480327734,265.2069422755885 M 149.68612193858544,264.90724100807483 M 149.0648015950255,264.4304851402808 M 148.5880457272316,263.8091647967217 M 148.28834445971773,263.08562193202897 M 148.18612193858507,262.30916479672123 M 148.28834445971773,261.5327076614144 M 148.5880457272316,260.8091647967217 M 149.0648015950255,260.1878444531617 M 149.18612193858485,260.0947520793584 M 149.18612193858485,252.30916479672123 M 103.18612193858522,277.3091647967217 M 57.18612193858557,252.30916479672123 M 57.18612193858557,260.0947520793584 M 57.30744228214493,260.1878444531617 M 57.784198149938824,260.8091647967217 M 58.083899417452706,261.5327076614144 M 58.186121938585345,262.30916479672123 M 58.08389941745269,263.08562193202897 M 57.784198149938845,263.8091647967217 M 57.30744228214491,264.4304851402808 M 56.68612193858494,264.90724100807483 M 55.96257907389309,265.2069422755885 M 55.18612193858531,265.30916479672123 M 54.40966480327752,265.2069422755885 M 53.68612193858565,264.90724100807483 M 53.064801595025706,264.4304851402808 M 52.58804572723178,263.8091647967217 M 52.2883444597179,263.08562193202897 M 52.186121938585266,262.30916479672123 M 52.28834445971792,261.5327076614144 M 52.58804572723178,260.8091647967217 M 53.064801595025706,260.1878444531617 M 53.186121938585764,260.0947520793575 M 53.186121938585764,217.30916479672123 M 56.18612193858508,217.30916479672123 M 56.18612193858508,207.3091647967217 M 53.186121938585764,207.3091647967217 M 53.186121938585764,197.3091647967217 M 58.186121938585345,197.3091647967217 M 58.186121938585345,194.3091647967217 M 68.18612193858525,194.3091647967217 M 68.18612193858522,197.3091647967217 M 78.18612193858513,197.3091647967217 M 78.18612193858513,194.3091647967217 M 88.18612193858502,194.3091647967217 M 88.18612193858502,197.3091647967217 M 98.18612193858563,197.3091647967217 M 98.18612193858563,194.3091647967217 M 108.18612193858553,194.3091647967217 M 108.18612193858553,197.3091647967217 M 118.18612193858542,197.3091647967217 M 118.18612193858542,194.3091647967217 M 128.1861219385853,194.3091647967217 M 128.1861219385853,197.3091647967217 M 138.1861219385852,197.3091647967217 M 138.1861219385852,194.3091647967217 M 148.18612193858579,194.3091647967217 M 148.18612193858579,197.3091647967217 M 153.1861219385854,197.3091647967217 M 153.1861219385854,207.3091647967217 M 150.18612193858533,207.3091647967217 M 150.18612193858533,217.30916479672123 M 153.1861219385854,217.30916479672123 M 305.80161577918716,205.69198498934702 M 305.8016157791836,215.69198498934702 M 302.8016157791835,215.6919849893461 M 302.80161577917994,225.6919849893461 M 295.80161577918,225.69198498934293 M 295.8016157791794,228.69198498934338 M 285.80161577917875,228.69198498933974 M 285.80161577918017,225.6919849893393 M 275.8016157791803,225.6919849893361 M 275.8016157791788,228.6919849893361 M 265.8016157791789,228.69198498933247 M 265.80161577918034,225.69198498933292 M 255.80161577917974,225.69198498932928 M 255.80161577917903,228.69198498932928 M 245.80161577917914,228.69198498932565 M 245.80161577917985,225.69198498932565 M 235.80161577917997,225.691984989322 M 235.80161577917926,228.691984989322 M 225.80161577917863,228.69198498931883 M 225.80161577918008,225.69198498931837 M 215.8016157791802,225.6919849893152 M 215.80161577917875,228.6919849893152 M 205.80161577917886,228.69198498931155 M 205.8016157791803,225.69198498931155 M 195.80161577917968,225.6919849893079 M 195.80161577917897,228.6919849893079 M 185.80161577917906,228.69198498930427 M 185.8016157791798,225.69198498930427 M 175.8016157791799,225.69198498930064 M 175.80161577917917,228.69198498930064 M 165.8016157791793,228.691984989297 M 165.80161577918,225.691984989297 M 158.80161577918017,225.69198498929381 M 158.80161577918378,215.69198498929472 M 155.80161577918372,215.69198498929336 M 155.80161577918733,205.69198498929336 M 158.8016157791874,205.69198498929427 M 158.801615779191,195.69198498929427 M 302.80161577919074,195.69198498934566 M 302.80161577918716,205.69198498934566 "
  />
</svg>
