999
Inkscape export via "Better DXF Output" (bob@bobcookdev.com)
  0
SECTION
  2
HEADER
  9
$ACADVER
  1
AC1014
  9
$HANDSEED
  5
FFFF
  0
ENDSEC
  0
SECTION
  2
TABLES
  0
TABLE
  2
VPORT
  5
8
330
0
100
AcDbSymbolTable
 70
     4
  0
VPORT
  5
2E
330
8
100
AcDbSymbolTableRecord
100
AcDbViewportTableRecord
  2
*ACTIVE
 70
     0
 10
0.0
 20
0.0
 11
1.0
 21
1.0
 12
4.25
 22
5.5
 13
0.0
 23
0.0
 14
10.0
 24
10.0
 15
10.0
 25
10.0
 16
0.0
 26
0.0
 36
1.0
 17
0.0
 27
0.0
 37
0.0
 40
11
 41
1.24
 42
50.0
 43
0.0
 44
0.0
 50
0.0
 51
0.0
 71
     0
 72
   100
 73
     1
 74
     3
 75
     0
 76
     0
 77
     0
 78
     0
  0
ENDTAB
  0
TABLE
  2
LTYPE
  5
5
330
0
100
AcDbSymbolTable
 70
     1
  0
LTYPE
  5
14
330
5
100
AcDbSymbolTableRecord
100
AcDbLinetypeTableRecord
  2
BYBLOCK
 70
     0
  3

 72
    65
 73
     0
 40
0.0
  0
LTYPE
  5
15
330
5
100
AcDbSymbolTableRecord
100
AcDbLinetypeTableRecord
  2
BYLAYER
 70
     0
  3

 72
    65
 73
     0
 40
0.0
  0
LTYPE
  5
16
330
5
100
AcDbSymbolTableRecord
100
AcDbLinetypeTableRecord
  2
CONTINUOUS
 70
     0
  3
Solid line
 72
    65
 73
     0
 40
0.0
  0
ENDTAB
  0
TABLE
  2
LAYER
  5
2
330
0
100
AcDbSymbolTable
 70
1
  0
LAYER
  5
10
330
2
100
AcDbSymbolTableRecord
100
AcDbLayerTableRecord
  2
0
 70
     0
 62
     7
  6
CONTINUOUS
  0
ENDTAB
  0
TABLE
  2
STYLE
  5
3
330
0
100
AcDbSymbolTable
 70
     1
  0
STYLE
  5
11
330
3
100
AcDbSymbolTableRecord
100
AcDbTextStyleTableRecord
  2
STANDARD
 70
     0
 40
0.0
 41
1.0
 50
0.0
 71
     0
 42
2.5
  3
txt
  4

  0
ENDTAB
  0
TABLE
  2
VIEW
  5
6
330
0
100
AcDbSymbolTable
 70
     0
  0
ENDTAB
  0
TABLE
  2
UCS
  5
7
330
0
100
AcDbSymbolTable
 70
     0
  0
ENDTAB
  0
TABLE
  2
APPID
  5
9
330
0
100
AcDbSymbolTable
 70
     2
  0
APPID
  5
12
330
9
100
AcDbSymbolTableRecord
100
AcDbRegAppTableRecord
  2
ACAD
 70
     0
  0
ENDTAB
  0
TABLE
  2
DIMSTYLE
  5
A
330
0
100
AcDbSymbolTable
 70
     1
  0
DIMSTYLE
105
27
330
A
100
AcDbSymbolTableRecord
100
AcDbDimStyleTableRecord
  2
ISO-25
 70
     0
  3

  4

  5

  6

  7

 40
1.0
 41
2.5
 42
0.625
 43
3.75
 44
1.25
 45
0.0
 46
0.0
 47
0.0
 48
0.0
140
2.5
141
2.5
142
0.0
143
0.03937007874016
144
1.0
145
0.0
146
1.0
147
0.625
 71
     0
 72
     0
 73
     0
 74
     0
 75
     0
 76
     0
 77
     1
 78
     8
170
     0
171
     3
172
     1
173
     0
174
     0
175
     0
176
     0
177
     0
178
     0
270
     2
271
     2
272
     2
273
     2
274
     3
340
11
275
     0
280
     0
281
     0
282
     0
283
     0
284
     8
285
     0
286
     0
287
     3
288
     0
  0
ENDTAB
  0
TABLE
  2
BLOCK_RECORD
  5
1
330
0
100
AcDbSymbolTable
 70
     1
  0
BLOCK_RECORD
  5
1F
330
1
100
AcDbSymbolTableRecord
100
AcDbBlockTableRecord
  2
*MODEL_SPACE
  0
BLOCK_RECORD
  5
1B
330
1
100
AcDbSymbolTableRecord
100
AcDbBlockTableRecord
  2
*PAPER_SPACE
  0
ENDTAB
  0
ENDSEC
  0
SECTION
  2
BLOCKS
  0
BLOCK
  5
20
330
1F
100
AcDbEntity
  8
0
100
AcDbBlockBegin
  2
*MODEL_SPACE
 70
     0
 10
0.0
 20
0.0
 30
0.0
  3
*MODEL_SPACE
  1

  0
ENDBLK
  5
21
330
1F
100
AcDbEntity
  8
0
100
AcDbBlockEnd
  0
BLOCK
  5
1C
330
1B
100
AcDbEntity
 67
     1
  8
0
100
AcDbBlockBegin
  2
*PAPER_SPACE
  1

  0
ENDBLK
  5
1D
330
1B
100
AcDbEntity
 67
     1
  8
0
100
AcDbBlockEnd
  0
ENDSEC
  0
SECTION
  2
ENTITIES
0
LINE
8
Calque 1
62
4
5
100
100
AcDbEntity
100
AcDbLine
10
-104.646781
20
312.760762
30
0.0
11
-154.646782
21
312.760762
31
0.0
0
LINE
8
Calque 1
62
4
5
101
100
AcDbEntity
100
AcDbLine
10
-154.646782
20
312.760762
30
0.0
11
-154.646782
21
305.760762
31
0.0
0
LINE
8
Calque 1
62
4
5
102
100
AcDbEntity
100
AcDbLine
10
-154.646782
20
305.760762
30
0.0
11
-164.646782
21
305.760762
31
0.0
0
LINE
8
Calque 1
62
4
5
103
100
AcDbEntity
100
AcDbLine
10
-164.646782
20
305.760762
30
0.0
11
-166.032632
21
305.119013
31
0.0
0
LINE
8
Calque 1
62
4
5
104
100
AcDbEntity
100
AcDbLine
10
-166.032632
20
305.119013
30
0.0
11
-167.257228
21
304.206444
31
0.0
0
LINE
8
Calque 1
62
4
5
105
100
AcDbEntity
100
AcDbLine
10
-167.257228
20
304.206444
30
0.0
11
-168.268410
21
303.061925
31
0.0
0
LINE
8
Calque 1
62
4
5
106
100
AcDbEntity
100
AcDbLine
10
-168.268410
20
303.061925
30
0.0
11
-169.023112
21
301.734204
31
0.0
0
LINE
8
Calque 1
62
4
5
107
100
AcDbEntity
100
AcDbLine
10
-169.023112
20
301.734204
30
0.0
11
-169.489185
21
300.279835
31
0.0
0
LINE
8
Calque 1
62
4
5
108
100
AcDbEntity
100
AcDbLine
10
-169.489185
20
300.279835
30
0.0
11
-169.646783
21
298.760762
31
0.0
0
LINE
8
Calque 1
62
4
5
109
100
AcDbEntity
100
AcDbLine
10
-169.646783
20
298.760762
30
0.0
11
-169.489185
21
297.241690
31
0.0
0
LINE
8
Calque 1
62
4
5
10a
100
AcDbEntity
100
AcDbLine
10
-169.489185
20
297.241690
30
0.0
11
-169.023112
21
295.787320
31
0.0
0
LINE
8
Calque 1
62
4
5
10b
100
AcDbEntity
100
AcDbLine
10
-169.023112
20
295.787320
30
0.0
11
-168.268410
21
294.459600
31
0.0
0
LINE
8
Calque 1
62
4
5
10c
100
AcDbEntity
100
AcDbLine
10
-168.268410
20
294.459600
30
0.0
11
-167.257228
21
293.315081
31
0.0
0
LINE
8
Calque 1
62
4
5
10d
100
AcDbEntity
100
AcDbLine
10
-167.257228
20
293.315081
30
0.0
11
-166.032632
21
292.402512
31
0.0
0
LINE
8
Calque 1
62
4
5
10e
100
AcDbEntity
100
AcDbLine
10
-166.032632
20
292.402512
30
0.0
11
-164.646782
21
291.760762
31
0.0
0
LINE
8
Calque 1
62
4
5
10f
100
AcDbEntity
100
AcDbLine
10
-164.646782
20
291.760762
30
0.0
11
-154.646782
21
291.760762
31
0.0
0
LINE
8
Calque 1
62
4
5
110
100
AcDbEntity
100
AcDbLine
10
-154.646782
20
291.760762
30
0.0
11
-154.646782
21
284.760762
31
0.0
0
LINE
8
Calque 1
62
4
5
111
100
AcDbEntity
100
AcDbLine
10
-154.646782
20
284.760762
30
0.0
11
-104.646781
21
284.760762
31
0.0
0
LINE
8
Calque 1
62
4
5
112
100
AcDbEntity
100
AcDbLine
10
-104.646781
20
284.760762
30
0.0
11
-104.646781
21
291.760762
31
0.0
0
LINE
8
Calque 1
62
4
5
113
100
AcDbEntity
100
AcDbLine
10
-104.646781
20
291.760762
30
0.0
11
-94.646781
21
291.760762
31
0.0
0
LINE
8
Calque 1
62
4
5
114
100
AcDbEntity
100
AcDbLine
10
-94.646781
20
291.760762
30
0.0
11
-93.260932
21
292.402512
31
0.0
0
LINE
8
Calque 1
62
4
5
115
100
AcDbEntity
100
AcDbLine
10
-93.260932
20
292.402512
30
0.0
11
-92.036341
21
293.315081
31
0.0
0
LINE
8
Calque 1
62
4
5
116
100
AcDbEntity
100
AcDbLine
10
-92.036341
20
293.315081
30
0.0
11
-91.025150
21
294.459600
31
0.0
0
LINE
8
Calque 1
62
4
5
117
100
AcDbEntity
100
AcDbLine
10
-91.025150
20
294.459600
30
0.0
11
-90.270451
21
295.787320
31
0.0
0
LINE
8
Calque 1
62
4
5
118
100
AcDbEntity
100
AcDbLine
10
-90.270451
20
295.787320
30
0.0
11
-89.804381
21
297.241690
31
0.0
0
LINE
8
Calque 1
62
4
5
119
100
AcDbEntity
100
AcDbLine
10
-89.804381
20
297.241690
30
0.0
11
-89.646783
21
298.760762
31
0.0
0
LINE
8
Calque 1
62
4
5
11a
100
AcDbEntity
100
AcDbLine
10
-89.646783
20
298.760762
30
0.0
11
-89.804381
21
300.279835
31
0.0
0
LINE
8
Calque 1
62
4
5
11b
100
AcDbEntity
100
AcDbLine
10
-89.804381
20
300.279835
30
0.0
11
-90.270451
21
301.734204
31
0.0
0
LINE
8
Calque 1
62
4
5
11c
100
AcDbEntity
100
AcDbLine
10
-90.270451
20
301.734204
30
0.0
11
-91.025150
21
303.061925
31
0.0
0
LINE
8
Calque 1
62
4
5
11d
100
AcDbEntity
100
AcDbLine
10
-91.025150
20
303.061925
30
0.0
11
-92.036341
21
304.206444
31
0.0
0
LINE
8
Calque 1
62
4
5
11e
100
AcDbEntity
100
AcDbLine
10
-92.036341
20
304.206444
30
0.0
11
-93.260932
21
305.119013
31
0.0
0
LINE
8
Calque 1
62
4
5
11f
100
AcDbEntity
100
AcDbLine
10
-93.260932
20
305.119013
30
0.0
11
-94.646781
21
305.760762
31
0.0
0
LINE
8
Calque 1
62
4
5
120
100
AcDbEntity
100
AcDbLine
10
-94.646781
20
305.760762
30
0.0
11
-104.646781
21
305.760762
31
0.0
0
LINE
8
Calque 1
62
4
5
121
100
AcDbEntity
100
AcDbLine
10
-104.646781
20
305.760762
30
0.0
11
-104.646781
21
312.760762
31
0.0
0
LINE
8
Calque 1
62
4
5
122
100
AcDbEntity
100
AcDbLine
10
-104.873081
20
277.075332
30
0.0
11
-153.873084
21
277.075332
31
0.0
0
LINE
8
Calque 1
62
4
5
123
100
AcDbEntity
100
AcDbLine
10
-153.873084
20
277.075332
30
0.0
11
-153.873084
21
270.075331
31
0.0
0
LINE
8
Calque 1
62
4
5
124
100
AcDbEntity
100
AcDbLine
10
-153.873084
20
270.075331
30
0.0
11
-163.873087
21
270.075331
31
0.0
0
LINE
8
Calque 1
62
4
5
125
100
AcDbEntity
100
AcDbLine
10
-163.873087
20
270.075331
30
0.0
11
-165.258933
21
269.433583
31
0.0
0
LINE
8
Calque 1
62
4
5
126
100
AcDbEntity
100
AcDbLine
10
-165.258933
20
269.433583
30
0.0
11
-166.483530
21
268.521015
31
0.0
0
LINE
8
Calque 1
62
4
5
127
100
AcDbEntity
100
AcDbLine
10
-166.483530
20
268.521015
30
0.0
11
-167.494715
21
267.376494
31
0.0
0
LINE
8
Calque 1
62
4
5
128
100
AcDbEntity
100
AcDbLine
10
-167.494715
20
267.376494
30
0.0
11
-168.249414
21
266.048774
31
0.0
0
LINE
8
Calque 1
62
4
5
129
100
AcDbEntity
100
AcDbLine
10
-168.249414
20
266.048774
30
0.0
11
-168.715490
21
264.594403
31
0.0
0
LINE
8
Calque 1
62
4
5
12a
100
AcDbEntity
100
AcDbLine
10
-168.715490
20
264.594403
30
0.0
11
-168.873085
21
263.075331
31
0.0
0
LINE
8
Calque 1
62
4
5
12b
100
AcDbEntity
100
AcDbLine
10
-168.873085
20
263.075331
30
0.0
11
-168.715490
21
261.556259
31
0.0
0
LINE
8
Calque 1
62
4
5
12c
100
AcDbEntity
100
AcDbLine
10
-168.715490
20
261.556259
30
0.0
11
-168.249414
21
260.101888
31
0.0
0
LINE
8
Calque 1
62
4
5
12d
100
AcDbEntity
100
AcDbLine
10
-168.249414
20
260.101888
30
0.0
11
-167.494715
21
258.774168
31
0.0
0
LINE
8
Calque 1
62
4
5
12e
100
AcDbEntity
100
AcDbLine
10
-167.494715
20
258.774168
30
0.0
11
-166.483530
21
257.629650
31
0.0
0
LINE
8
Calque 1
62
4
5
12f
100
AcDbEntity
100
AcDbLine
10
-166.483530
20
257.629650
30
0.0
11
-165.258933
21
256.717082
31
0.0
0
LINE
8
Calque 1
62
4
5
130
100
AcDbEntity
100
AcDbLine
10
-165.258933
20
256.717082
30
0.0
11
-163.873087
21
256.075331
31
0.0
0
LINE
8
Calque 1
62
4
5
131
100
AcDbEntity
100
AcDbLine
10
-163.873087
20
256.075331
30
0.0
11
-153.873084
21
256.075331
31
0.0
0
LINE
8
Calque 1
62
4
5
132
100
AcDbEntity
100
AcDbLine
10
-153.873084
20
256.075331
30
0.0
11
-153.873084
21
249.075331
31
0.0
0
LINE
8
Calque 1
62
4
5
133
100
AcDbEntity
100
AcDbLine
10
-153.873084
20
249.075331
30
0.0
11
-104.873081
21
249.075331
31
0.0
0
LINE
8
Calque 1
62
4
5
134
100
AcDbEntity
100
AcDbLine
10
-104.873081
20
249.075331
30
0.0
11
-104.873081
21
256.075331
31
0.0
0
LINE
8
Calque 1
62
4
5
135
100
AcDbEntity
100
AcDbLine
10
-104.873081
20
256.075331
30
0.0
11
-94.873081
21
256.075331
31
0.0
0
LINE
8
Calque 1
62
4
5
136
100
AcDbEntity
100
AcDbLine
10
-94.873081
20
256.075331
30
0.0
11
-93.487240
21
256.717082
31
0.0
0
LINE
8
Calque 1
62
4
5
137
100
AcDbEntity
100
AcDbLine
10
-93.487240
20
256.717082
30
0.0
11
-92.262641
21
257.629650
31
0.0
0
LINE
8
Calque 1
62
4
5
138
100
AcDbEntity
100
AcDbLine
10
-92.262641
20
257.629650
30
0.0
11
-91.251461
21
258.774168
31
0.0
0
LINE
8
Calque 1
62
4
5
139
100
AcDbEntity
100
AcDbLine
10
-91.251461
20
258.774168
30
0.0
11
-90.496751
21
260.101888
31
0.0
0
LINE
8
Calque 1
62
4
5
13a
100
AcDbEntity
100
AcDbLine
10
-90.496751
20
260.101888
30
0.0
11
-90.030681
21
261.556259
31
0.0
0
LINE
8
Calque 1
62
4
5
13b
100
AcDbEntity
100
AcDbLine
10
-90.030681
20
261.556259
30
0.0
11
-89.873082
21
263.075331
31
0.0
0
LINE
8
Calque 1
62
4
5
13c
100
AcDbEntity
100
AcDbLine
10
-89.873082
20
263.075331
30
0.0
11
-90.030681
21
264.594403
31
0.0
0
LINE
8
Calque 1
62
4
5
13d
100
AcDbEntity
100
AcDbLine
10
-90.030681
20
264.594403
30
0.0
11
-90.496751
21
266.048774
31
0.0
0
LINE
8
Calque 1
62
4
5
13e
100
AcDbEntity
100
AcDbLine
10
-90.496751
20
266.048774
30
0.0
11
-91.251461
21
267.376494
31
0.0
0
LINE
8
Calque 1
62
4
5
13f
100
AcDbEntity
100
AcDbLine
10
-91.251461
20
267.376494
30
0.0
11
-92.262641
21
268.521015
31
0.0
0
LINE
8
Calque 1
62
4
5
140
100
AcDbEntity
100
AcDbLine
10
-92.262641
20
268.521015
30
0.0
11
-93.487240
21
269.433583
31
0.0
0
LINE
8
Calque 1
62
4
5
141
100
AcDbEntity
100
AcDbLine
10
-93.487240
20
269.433583
30
0.0
11
-94.873081
21
270.075331
31
0.0
0
LINE
8
Calque 1
62
4
5
142
100
AcDbEntity
100
AcDbLine
10
-94.873081
20
270.075331
30
0.0
11
-104.873081
21
270.075331
31
0.0
0
LINE
8
Calque 1
62
4
5
143
100
AcDbEntity
100
AcDbLine
10
-104.873081
20
270.075331
30
0.0
11
-104.873081
21
277.075332
31
0.0
0
LINE
8
Calque 1
62
4
5
144
100
AcDbEntity
100
AcDbLine
10
-195.866281
20
235.744832
30
0.0
11
-77.866282
21
235.744832
31
0.0
0
LINE
8
Calque 1
62
4
5
145
100
AcDbEntity
100
AcDbLine
10
-77.866282
20
235.744832
30
0.0
11
-77.866282
21
316.744833
31
0.0
0
LINE
8
Calque 1
62
4
5
146
100
AcDbEntity
100
AcDbLine
10
-77.866282
20
316.744833
30
0.0
11
-195.866281
21
316.744833
31
0.0
0
LINE
8
Calque 1
62
4
5
147
100
AcDbEntity
100
AcDbLine
10
-195.866281
20
316.744833
30
0.0
11
-195.866281
21
235.744832
31
0.0
0
LINE
8
Calque 1
62
4
5
148
100
AcDbEntity
100
AcDbLine
10
-95.146780
20
299.626788
30
0.0
11
-94.905601
21
299.726688
31
0.0
0
LINE
8
Calque 1
62
4
5
149
100
AcDbEntity
100
AcDbLine
10
-94.905601
20
299.726688
30
0.0
11
-94.646781
21
299.760758
31
0.0
0
LINE
8
Calque 1
62
4
5
14a
100
AcDbEntity
100
AcDbLine
10
-94.646781
20
299.760758
30
0.0
11
-94.387961
21
299.726688
31
0.0
0
LINE
8
Calque 1
62
4
5
14b
100
AcDbEntity
100
AcDbLine
10
-94.387961
20
299.726688
30
0.0
11
-94.146782
21
299.626788
31
0.0
0
LINE
8
Calque 1
62
4
5
14c
100
AcDbEntity
100
AcDbLine
10
-94.146782
20
299.626788
30
0.0
11
-93.939682
21
299.467869
31
0.0
0
LINE
8
Calque 1
62
4
5
14d
100
AcDbEntity
100
AcDbLine
10
-93.939682
20
299.467869
30
0.0
11
-93.780762
21
299.260762
31
0.0
0
LINE
8
Calque 1
62
4
5
14e
100
AcDbEntity
100
AcDbLine
10
-93.780762
20
299.260762
30
0.0
11
-93.680861
21
299.019582
31
0.0
0
LINE
8
Calque 1
62
4
5
14f
100
AcDbEntity
100
AcDbLine
10
-93.680861
20
299.019582
30
0.0
11
-93.646760
21
298.760762
31
0.0
0
LINE
8
Calque 1
62
4
5
150
100
AcDbEntity
100
AcDbLine
10
-93.646760
20
298.760762
30
0.0
11
-93.680861
21
298.501943
31
0.0
0
LINE
8
Calque 1
62
4
5
151
100
AcDbEntity
100
AcDbLine
10
-93.680861
20
298.501943
30
0.0
11
-93.780762
21
298.260762
31
0.0
0
LINE
8
Calque 1
62
4
5
152
100
AcDbEntity
100
AcDbLine
10
-93.780762
20
298.260762
30
0.0
11
-93.939682
21
298.053656
31
0.0
0
LINE
8
Calque 1
62
4
5
153
100
AcDbEntity
100
AcDbLine
10
-93.939682
20
298.053656
30
0.0
11
-94.146782
21
297.894737
31
0.0
0
LINE
8
Calque 1
62
4
5
154
100
AcDbEntity
100
AcDbLine
10
-94.146782
20
297.894737
30
0.0
11
-94.387961
21
297.794837
31
0.0
0
LINE
8
Calque 1
62
4
5
155
100
AcDbEntity
100
AcDbLine
10
-94.387961
20
297.794837
30
0.0
11
-94.646781
21
297.760757
31
0.0
0
LINE
8
Calque 1
62
4
5
156
100
AcDbEntity
100
AcDbLine
10
-94.646781
20
297.760757
30
0.0
11
-94.905601
21
297.794837
31
0.0
0
LINE
8
Calque 1
62
4
5
157
100
AcDbEntity
100
AcDbLine
10
-94.905601
20
297.794837
30
0.0
11
-95.146780
21
297.894737
31
0.0
0
LINE
8
Calque 1
62
4
5
158
100
AcDbEntity
100
AcDbLine
10
-95.146780
20
297.894737
30
0.0
11
-95.353892
21
298.053656
31
0.0
0
LINE
8
Calque 1
62
4
5
159
100
AcDbEntity
100
AcDbLine
10
-95.353892
20
298.053656
30
0.0
11
-95.512811
21
298.260762
31
0.0
0
LINE
8
Calque 1
62
4
5
15a
100
AcDbEntity
100
AcDbLine
10
-95.512811
20
298.260762
30
0.0
11
-95.612712
21
298.501943
31
0.0
0
LINE
8
Calque 1
62
4
5
15b
100
AcDbEntity
100
AcDbLine
10
-95.612712
20
298.501943
30
0.0
11
-95.646810
21
298.760762
31
0.0
0
LINE
8
Calque 1
62
4
5
15c
100
AcDbEntity
100
AcDbLine
10
-95.646810
20
298.760762
30
0.0
11
-95.612712
21
299.019582
31
0.0
0
LINE
8
Calque 1
62
4
5
15d
100
AcDbEntity
100
AcDbLine
10
-95.612712
20
299.019582
30
0.0
11
-95.512811
21
299.260762
31
0.0
0
LINE
8
Calque 1
62
4
5
15e
100
AcDbEntity
100
AcDbLine
10
-95.512811
20
299.260762
30
0.0
11
-95.353892
21
299.467869
31
0.0
0
LINE
8
Calque 1
62
4
5
15f
100
AcDbEntity
100
AcDbLine
10
-95.353892
20
299.467869
30
0.0
11
-95.146780
21
299.626788
31
0.0
0
LINE
8
Calque 1
62
4
5
160
100
AcDbEntity
100
AcDbLine
10
-164.387965
20
299.726688
30
0.0
11
-164.146783
21
299.626788
31
0.0
0
LINE
8
Calque 1
62
4
5
161
100
AcDbEntity
100
AcDbLine
10
-164.146783
20
299.626788
30
0.0
11
-163.939677
21
299.467869
31
0.0
0
LINE
8
Calque 1
62
4
5
162
100
AcDbEntity
100
AcDbLine
10
-163.939677
20
299.467869
30
0.0
11
-163.780758
21
299.260762
31
0.0
0
LINE
8
Calque 1
62
4
5
163
100
AcDbEntity
100
AcDbLine
10
-163.780758
20
299.260762
30
0.0
11
-163.680860
21
299.019582
31
0.0
0
LINE
8
Calque 1
62
4
5
164
100
AcDbEntity
100
AcDbLine
10
-163.680860
20
299.019582
30
0.0
11
-163.646790
21
298.760762
31
0.0
0
LINE
8
Calque 1
62
4
5
165
100
AcDbEntity
100
AcDbLine
10
-163.646790
20
298.760762
30
0.0
11
-163.680860
21
298.501943
31
0.0
0
LINE
8
Calque 1
62
4
5
166
100
AcDbEntity
100
AcDbLine
10
-163.680860
20
298.501943
30
0.0
11
-163.780758
21
298.260762
31
0.0
0
LINE
8
Calque 1
62
4
5
167
100
AcDbEntity
100
AcDbLine
10
-163.780758
20
298.260762
30
0.0
11
-163.939677
21
298.053656
31
0.0
0
LINE
8
Calque 1
62
4
5
168
100
AcDbEntity
100
AcDbLine
10
-163.939677
20
298.053656
30
0.0
11
-164.146783
21
297.894737
31
0.0
0
LINE
8
Calque 1
62
4
5
169
100
AcDbEntity
100
AcDbLine
10
-164.146783
20
297.894737
30
0.0
11
-164.387965
21
297.794837
31
0.0
0
LINE
8
Calque 1
62
4
5
16a
100
AcDbEntity
100
AcDbLine
10
-164.387965
20
297.794837
30
0.0
11
-164.646782
21
297.760757
31
0.0
0
LINE
8
Calque 1
62
4
5
16b
100
AcDbEntity
100
AcDbLine
10
-164.646782
20
297.760757
30
0.0
11
-164.905603
21
297.794837
31
0.0
0
LINE
8
Calque 1
62
4
5
16c
100
AcDbEntity
100
AcDbLine
10
-164.905603
20
297.794837
30
0.0
11
-165.146784
21
297.894737
31
0.0
0
LINE
8
Calque 1
62
4
5
16d
100
AcDbEntity
100
AcDbLine
10
-165.146784
20
297.894737
30
0.0
11
-165.353890
21
298.053656
31
0.0
0
LINE
8
Calque 1
62
4
5
16e
100
AcDbEntity
100
AcDbLine
10
-165.353890
20
298.053656
30
0.0
11
-165.512809
21
298.260762
31
0.0
0
LINE
8
Calque 1
62
4
5
16f
100
AcDbEntity
100
AcDbLine
10
-165.512809
20
298.260762
30
0.0
11
-165.612710
21
298.501943
31
0.0
0
LINE
8
Calque 1
62
4
5
170
100
AcDbEntity
100
AcDbLine
10
-165.612710
20
298.501943
30
0.0
11
-165.646780
21
298.760762
31
0.0
0
LINE
8
Calque 1
62
4
5
171
100
AcDbEntity
100
AcDbLine
10
-165.646780
20
298.760762
30
0.0
11
-165.612710
21
299.019582
31
0.0
0
LINE
8
Calque 1
62
4
5
172
100
AcDbEntity
100
AcDbLine
10
-165.612710
20
299.019582
30
0.0
11
-165.512809
21
299.260762
31
0.0
0
LINE
8
Calque 1
62
4
5
173
100
AcDbEntity
100
AcDbLine
10
-165.512809
20
299.260762
30
0.0
11
-165.353890
21
299.467869
31
0.0
0
LINE
8
Calque 1
62
4
5
174
100
AcDbEntity
100
AcDbLine
10
-165.353890
20
299.467869
30
0.0
11
-165.146784
21
299.626788
31
0.0
0
LINE
8
Calque 1
62
4
5
175
100
AcDbEntity
100
AcDbLine
10
-165.146784
20
299.626788
30
0.0
11
-164.905603
21
299.726688
31
0.0
0
LINE
8
Calque 1
62
4
5
176
100
AcDbEntity
100
AcDbLine
10
-164.905603
20
299.726688
30
0.0
11
-164.646782
21
299.760758
31
0.0
0
LINE
8
Calque 1
62
4
5
177
100
AcDbEntity
100
AcDbLine
10
-164.646782
20
299.760758
30
0.0
11
-164.387965
21
299.726688
31
0.0
0
LINE
8
Calque 1
62
4
5
178
100
AcDbEntity
100
AcDbLine
10
-108.646784
20
308.760762
30
0.0
11
-108.646784
21
288.760762
31
0.0
0
LINE
8
Calque 1
62
4
5
179
100
AcDbEntity
100
AcDbLine
10
-108.646784
20
288.760762
30
0.0
11
-150.646785
21
288.760762
31
0.0
0
LINE
8
Calque 1
62
4
5
17a
100
AcDbEntity
100
AcDbLine
10
-150.646785
20
288.760762
30
0.0
11
-150.646785
21
308.760762
31
0.0
0
LINE
8
Calque 1
62
4
5
17b
100
AcDbEntity
100
AcDbLine
10
-150.646785
20
308.760762
30
0.0
11
-108.646784
21
308.760762
31
0.0
0
LINE
8
Calque 1
62
4
5
17c
100
AcDbEntity
100
AcDbLine
10
-95.373080
20
263.941358
30
0.0
11
-95.131901
21
264.041256
31
0.0
0
LINE
8
Calque 1
62
4
5
17d
100
AcDbEntity
100
AcDbLine
10
-95.131901
20
264.041256
30
0.0
11
-94.873081
21
264.075329
31
0.0
0
LINE
8
Calque 1
62
4
5
17e
100
AcDbEntity
100
AcDbLine
10
-94.873081
20
264.075329
30
0.0
11
-94.614272
21
264.041256
31
0.0
0
LINE
8
Calque 1
62
4
5
17f
100
AcDbEntity
100
AcDbLine
10
-94.614272
20
264.041256
30
0.0
11
-94.373082
21
263.941358
31
0.0
0
LINE
8
Calque 1
62
4
5
180
100
AcDbEntity
100
AcDbLine
10
-94.373082
20
263.941358
30
0.0
11
-94.165982
21
263.782439
31
0.0
0
LINE
8
Calque 1
62
4
5
181
100
AcDbEntity
100
AcDbLine
10
-94.165982
20
263.782439
30
0.0
11
-94.007062
21
263.575333
31
0.0
0
LINE
8
Calque 1
62
4
5
182
100
AcDbEntity
100
AcDbLine
10
-94.007062
20
263.575333
30
0.0
11
-93.907161
21
263.334151
31
0.0
0
LINE
8
Calque 1
62
4
5
183
100
AcDbEntity
100
AcDbLine
10
-93.907161
20
263.334151
30
0.0
11
-93.873060
21
263.075331
31
0.0
0
LINE
8
Calque 1
62
4
5
184
100
AcDbEntity
100
AcDbLine
10
-93.873060
20
263.075331
30
0.0
11
-93.907161
21
262.816513
31
0.0
0
LINE
8
Calque 1
62
4
5
185
100
AcDbEntity
100
AcDbLine
10
-93.907161
20
262.816513
30
0.0
11
-94.007062
21
262.575332
31
0.0
0
LINE
8
Calque 1
62
4
5
186
100
AcDbEntity
100
AcDbLine
10
-94.007062
20
262.575332
30
0.0
11
-94.165982
21
262.368226
31
0.0
0
LINE
8
Calque 1
62
4
5
187
100
AcDbEntity
100
AcDbLine
10
-94.165982
20
262.368226
30
0.0
11
-94.373082
21
262.209307
31
0.0
0
LINE
8
Calque 1
62
4
5
188
100
AcDbEntity
100
AcDbLine
10
-94.373082
20
262.209307
30
0.0
11
-94.614272
21
262.109406
31
0.0
0
LINE
8
Calque 1
62
4
5
189
100
AcDbEntity
100
AcDbLine
10
-94.614272
20
262.109406
30
0.0
11
-94.873081
21
262.075327
31
0.0
0
LINE
8
Calque 1
62
4
5
18a
100
AcDbEntity
100
AcDbLine
10
-94.873081
20
262.075327
30
0.0
11
-95.131901
21
262.109406
31
0.0
0
LINE
8
Calque 1
62
4
5
18b
100
AcDbEntity
100
AcDbLine
10
-95.131901
20
262.109406
30
0.0
11
-95.373080
21
262.209307
31
0.0
0
LINE
8
Calque 1
62
4
5
18c
100
AcDbEntity
100
AcDbLine
10
-95.373080
20
262.209307
30
0.0
11
-95.580192
21
262.368226
31
0.0
0
LINE
8
Calque 1
62
4
5
18d
100
AcDbEntity
100
AcDbLine
10
-95.580192
20
262.368226
30
0.0
11
-95.739111
21
262.575332
31
0.0
0
LINE
8
Calque 1
62
4
5
18e
100
AcDbEntity
100
AcDbLine
10
-95.739111
20
262.575332
30
0.0
11
-95.839012
21
262.816513
31
0.0
0
LINE
8
Calque 1
62
4
5
18f
100
AcDbEntity
100
AcDbLine
10
-95.839012
20
262.816513
30
0.0
11
-95.873110
21
263.075331
31
0.0
0
LINE
8
Calque 1
62
4
5
190
100
AcDbEntity
100
AcDbLine
10
-95.873110
20
263.075331
30
0.0
11
-95.839012
21
263.334151
31
0.0
0
LINE
8
Calque 1
62
4
5
191
100
AcDbEntity
100
AcDbLine
10
-95.839012
20
263.334151
30
0.0
11
-95.739111
21
263.575333
31
0.0
0
LINE
8
Calque 1
62
4
5
192
100
AcDbEntity
100
AcDbLine
10
-95.739111
20
263.575333
30
0.0
11
-95.580192
21
263.782439
31
0.0
0
LINE
8
Calque 1
62
4
5
193
100
AcDbEntity
100
AcDbLine
10
-95.580192
20
263.782439
30
0.0
11
-95.373080
21
263.941358
31
0.0
0
LINE
8
Calque 1
62
4
5
194
100
AcDbEntity
100
AcDbLine
10
-163.614267
20
264.041256
30
0.0
11
-163.373085
21
263.941358
31
0.0
0
LINE
8
Calque 1
62
4
5
195
100
AcDbEntity
100
AcDbLine
10
-163.373085
20
263.941358
30
0.0
11
-163.165979
21
263.782439
31
0.0
0
LINE
8
Calque 1
62
4
5
196
100
AcDbEntity
100
AcDbLine
10
-163.165979
20
263.782439
30
0.0
11
-163.007060
21
263.575333
31
0.0
0
LINE
8
Calque 1
62
4
5
197
100
AcDbEntity
100
AcDbLine
10
-163.007060
20
263.575333
30
0.0
11
-162.907162
21
263.334151
31
0.0
0
LINE
8
Calque 1
62
4
5
198
100
AcDbEntity
100
AcDbLine
10
-162.907162
20
263.334151
30
0.0
11
-162.873092
21
263.075331
31
0.0
0
LINE
8
Calque 1
62
4
5
199
100
AcDbEntity
100
AcDbLine
10
-162.873092
20
263.075331
30
0.0
11
-162.907162
21
262.816513
31
0.0
0
LINE
8
Calque 1
62
4
5
19a
100
AcDbEntity
100
AcDbLine
10
-162.907162
20
262.816513
30
0.0
11
-163.007060
21
262.575332
31
0.0
0
LINE
8
Calque 1
62
4
5
19b
100
AcDbEntity
100
AcDbLine
10
-163.007060
20
262.575332
30
0.0
11
-163.165979
21
262.368226
31
0.0
0
LINE
8
Calque 1
62
4
5
19c
100
AcDbEntity
100
AcDbLine
10
-163.165979
20
262.368226
30
0.0
11
-163.373085
21
262.209307
31
0.0
0
LINE
8
Calque 1
62
4
5
19d
100
AcDbEntity
100
AcDbLine
10
-163.373085
20
262.209307
30
0.0
11
-163.614267
21
262.109406
31
0.0
0
LINE
8
Calque 1
62
4
5
19e
100
AcDbEntity
100
AcDbLine
10
-163.614267
20
262.109406
30
0.0
11
-163.873087
21
262.075327
31
0.0
0
LINE
8
Calque 1
62
4
5
19f
100
AcDbEntity
100
AcDbLine
10
-163.873087
20
262.075327
30
0.0
11
-164.131904
21
262.109406
31
0.0
0
LINE
8
Calque 1
62
4
5
1a0
100
AcDbEntity
100
AcDbLine
10
-164.131904
20
262.109406
30
0.0
11
-164.373086
21
262.209307
31
0.0
0
LINE
8
Calque 1
62
4
5
1a1
100
AcDbEntity
100
AcDbLine
10
-164.373086
20
262.209307
30
0.0
11
-164.580192
21
262.368226
31
0.0
0
LINE
8
Calque 1
62
4
5
1a2
100
AcDbEntity
100
AcDbLine
10
-164.580192
20
262.368226
30
0.0
11
-164.739111
21
262.575332
31
0.0
0
LINE
8
Calque 1
62
4
5
1a3
100
AcDbEntity
100
AcDbLine
10
-164.739111
20
262.575332
30
0.0
11
-164.839012
21
262.816513
31
0.0
0
LINE
8
Calque 1
62
4
5
1a4
100
AcDbEntity
100
AcDbLine
10
-164.839012
20
262.816513
30
0.0
11
-164.873082
21
263.075331
31
0.0
0
LINE
8
Calque 1
62
4
5
1a5
100
AcDbEntity
100
AcDbLine
10
-164.873082
20
263.075331
30
0.0
11
-164.839012
21
263.334151
31
0.0
0
LINE
8
Calque 1
62
4
5
1a6
100
AcDbEntity
100
AcDbLine
10
-164.839012
20
263.334151
30
0.0
11
-164.739111
21
263.575333
31
0.0
0
LINE
8
Calque 1
62
4
5
1a7
100
AcDbEntity
100
AcDbLine
10
-164.739111
20
263.575333
30
0.0
11
-164.580192
21
263.782439
31
0.0
0
LINE
8
Calque 1
62
4
5
1a8
100
AcDbEntity
100
AcDbLine
10
-164.580192
20
263.782439
30
0.0
11
-164.373086
21
263.941358
31
0.0
0
LINE
8
Calque 1
62
4
5
1a9
100
AcDbEntity
100
AcDbLine
10
-164.373086
20
263.941358
30
0.0
11
-164.131904
21
264.041256
31
0.0
0
LINE
8
Calque 1
62
4
5
1aa
100
AcDbEntity
100
AcDbLine
10
-164.131904
20
264.041256
30
0.0
11
-163.873087
21
264.075329
31
0.0
0
LINE
8
Calque 1
62
4
5
1ab
100
AcDbEntity
100
AcDbLine
10
-163.873087
20
264.075329
30
0.0
11
-163.614267
21
264.041256
31
0.0
0
LINE
8
Calque 1
62
4
5
1ac
100
AcDbEntity
100
AcDbLine
10
-108.873084
20
273.075331
30
0.0
11
-108.873084
21
253.075331
31
0.0
0
LINE
8
Calque 1
62
4
5
1ad
100
AcDbEntity
100
AcDbLine
10
-108.873084
20
253.075331
30
0.0
11
-149.873087
21
253.075331
31
0.0
0
LINE
8
Calque 1
62
4
5
1ae
100
AcDbEntity
100
AcDbLine
10
-149.873087
20
253.075331
30
0.0
11
-149.873087
21
273.075331
31
0.0
0
LINE
8
Calque 1
62
4
5
1af
100
AcDbEntity
100
AcDbLine
10
-149.873087
20
273.075331
30
0.0
11
-108.873084
21
273.075331
31
0.0
  0
ENDSEC
  0
SECTION
  2
OBJECTS
  0
DICTIONARY
  5
C
330
0
100
AcDbDictionary
  3
ACAD_GROUP
350
D
  3
ACAD_MLINESTYLE
350
17
  0
DICTIONARY
  5
D
330
C
100
AcDbDictionary
  0
DICTIONARY
  5
1A
330
C
100
AcDbDictionary
  0
DICTIONARY
  5
17
330
C
100
AcDbDictionary
  3
STANDARD
350
18
  0
DICTIONARY
  5
19
330
C
100
AcDbDictionary
  0
ENDSEC
  0
EOF
