<?xml version="1.0" standalone="no"?>
<!DOCTYPE svg PUBLIC "-//W3C//DTD SVG 1.1//EN" "http://www.w3.org/Graphics/SVG/1.1/DTD/svg11.dtd">
<svg width="137.99999999999977mm" height="101.00000000000018mm"
 viewBox="0 0 137.99999999999977 101.00000000000018"
 xmlns="http://www.w3.org/2000/svg" version="1.1"
 xmlns:xlink="http://www.w3.org/1999/xlink">
<desc>Output from Flights of Ideas SVG Sketchup Plugin</desc>

  <path id="face0-cut"
 style="fill:none;stroke:#0000FF;stroke-width:1;stroke-miterlimit:4;stroke-dasharray:none;stroke-linejoin:round;stroke-linecap:round"
        d="M 100.99319555975421,49.66950055287394 M 51.99319555975421,49.66950055287395 M 51.99319555975421,56.66950055287399 M 41.99319555975421,56.66950055287389 M 40.607347437720364,57.31124969301544 M 39.38275162447394,58.22381863309455 M 38.37156787282447,59.36833791935276 M 37.61686598095298,60.696058534023884 M 37.150791301390655,62.15042828387703 M 36.99319555975421,63.669500552874005 M 37.150791301390655,65.18857282187076 M 37.61686598095298,66.64294257172406 M 38.37156787282447,67.97066318639526 M 39.38275162447394,69.11518247265349 M 40.607347437720364,70.0277514127325 M 41.99319555975421,70.66950055287384 M 51.99319555975421,70.66950055287387 M 51.99319555975421,77.6695005528739 M 100.99319555975421,77.6695005528739 M 100.99319555975421,70.66950055287384 M 110.99319555975421,70.66950055287384 M 112.37904368178829,70.0277514127325 M 113.60363949503449,69.11518247265349 M 114.61482324668418,67.97066318639526 M 115.36952513855567,66.64294257172409 M 115.835599818118,65.18857282187076 M 115.99319555975421,63.669500552874005 M 115.83559981811777,62.150428283877055 M 115.36952513855545,60.6960585340239 M 114.61482324668395,59.36833791935276 M 113.60363949503449,58.22381863309451 M 112.37904368178806,57.311249693015505 M 110.99319555975421,56.66950055287397 M 100.99319555975421,56.66950055287397 M 110.49319555975421,62.803475149089614 L 110.73437651465156,62.70357472658487 L 110.99319555975421,62.66950055287405 L 111.25201460485664,62.70357472658487 L 111.49319555975421,62.803475149089614 L 111.70030234094065,62.96239377168741 L 111.85922096353875,63.169500552873934 L 111.95912138604331,63.410681507771464 L 111.99319555975421,63.669500552874005 L 111.95912138604331,63.92831959797653 L 111.85922096353875,64.16950055287407 L 111.70030234094065,64.3766073340606 L 111.49319555975421,64.5355259566584 L 111.25201460485664,64.63542637916314 L 110.99319555975421,64.66950055287396 L 110.73437651465179,64.63542637916314 L 110.49319555975421,64.5355259566584 L 110.28608877856777,64.3766073340606 L 110.12717015596968,64.16950055287407 L 110.02726973346512,63.92831959797653 L 109.99319555975421,63.669500552874005 L 110.02726973346512,63.410681507771464 L 110.12717015596968,63.169500552873934 L 110.28608877856777,62.96239377168741 L 110.49319555975421,62.803475149089614 M 42.25201460485687,62.70357472658487 L 42.49319555975444,62.80347514908966 L 42.70030234094088,62.96239377168744 L 42.859220963538746,63.16950055287398 L 42.95912138604331,63.41068150777148 L 42.99319555975421,63.66950055287402 L 42.95912138604331,63.92831959797659 L 42.859220963538746,64.1695005528741 L 42.70030234094088,64.37660733406057 L 42.49319555975444,64.5355259566584 L 42.25201460485687,64.63542637916314 L 41.99319555975421,64.66950055287398 L 41.734376514651785,64.6354263791631 L 41.49319555975421,64.5355259566584 L 41.28608877856777,64.3766073340606 L 41.12717015596991,64.16950055287407 L 41.02726973346512,63.92831959797652 L 40.99319555975421,63.66950055287402 L 41.02726973346512,63.41068150777141 L 41.12717015596991,63.169500552873934 L 41.28608877856777,62.96239377168738 L 41.49319555975421,62.80347514908964 L 41.734376514651785,62.703574726584854 L 41.99319555975421,62.66950055287402 L 42.25201460485687,62.70357472658487 M 96.99319555975421,53.669500552873934 L 96.99319555975421,73.6695005528739 L 55.99319555975421,73.6695005528739 L 55.99319555975421,53.66950055287386 L 96.99319555975421,53.669500552873934 "
  />
  <path id="face1-cut"
 style="fill:none;stroke:#0000FF;stroke-width:1;stroke-miterlimit:4;stroke-dasharray:none;stroke-linejoin:round;stroke-linecap:round"
        d="M 101.2194978356406,13.984070539102687 M 51.219497835640595,13.984070539102683 M 51.219497835640595,20.984070539102532 M 41.219497835640595,20.98407053910254 M 39.83364971360652,21.62581967924409 M 38.60905390036032,22.53838861932234 M 37.597870148710626,23.68290790558094 M 36.843168256839135,25.010628520252283 M 36.37709357727681,26.464998270105262 M 36.219497835640595,27.984070539102028 M 36.37709357727681,29.503142808098787 M 36.843168256839135,30.957512557952143 M 37.597870148710626,32.285233172623265 M 38.60905390036032,33.42975245888153 M 39.83364971360652,34.3423213989605 M 41.219497835640595,34.98407053910185 M 51.219497835640595,34.98407053910189 M 51.219497835640595,41.98407053910188 M 101.2194978356406,41.984070539101914 M 101.2194978356406,34.98407053910188 M 111.2194978356406,34.98407053910188 M 112.60534595767444,34.34232139896053 M 113.82994177092087,33.429752458881524 M 114.84112552257034,32.28523317262327 M 115.59582741444183,30.95751255795213 M 116.06190209400415,29.503142808098787 M 116.2194978356406,27.984070539102028 M 116.06190209400415,26.464998270105262 M 115.59582741444183,25.01062852025229 M 114.84112552257034,23.68290790558097 M 113.82994177092087,22.538388619322355 M 112.60534595767444,21.625819679244074 M 111.2194978356406,20.98407053910254 M 101.2194978356406,20.98407053910254 M 110.71949783564037,27.118045135317644 L 110.96067879053794,27.018144712812905 L 111.2194978356406,26.9840705391019 L 111.47831688074302,27.018144712812905 L 111.7194978356406,27.118045135317644 L 111.92660461682703,27.27696375791544 L 112.0855232394249,27.484070539101964 L 112.18542366192969,27.725251493999494 L 112.21949783564037,27.984070539102028 L 112.18542366192969,28.242889584204562 L 112.0855232394249,28.4840705391021 L 111.92660461682703,28.691177320288624 L 111.7194978356406,28.85009594288642 L 111.47831688074302,28.949996365391158 L 111.2194978356406,28.984070539101985 L 110.96067879053794,28.949996365391158 L 110.71949783564037,28.85009594288642 L 110.51239105445393,28.691177320288624 L 110.35347243185606,28.4840705391021 L 110.25357200935127,28.242889584204562 L 110.2194978356406,27.984070539102028 L 110.25357200935127,27.725251493999494 L 110.35347243185606,27.484070539101964 L 110.51239105445393,27.27696375791544 L 110.71949783564037,27.118045135317644 M 41.47831688074302,27.018144712812905 L 41.719497835640595,27.118045135317637 L 41.926604616827035,27.276963757915425 L 42.08552323942513,27.48407053910197 L 42.18542366192969,27.725251493999487 L 42.21949783564037,27.984070539102042 L 42.18542366192969,28.242889584204555 L 42.08552323942513,28.484070539102085 L 41.926604616827035,28.69117732028861 L 41.719497835640595,28.85009594288642 L 41.47831688074302,28.949996365391172 L 41.219497835640595,28.984070539101964 L 40.96067879053794,28.949996365391172 L 40.719497835640595,28.85009594288642 L 40.51239105445393,28.69117732028863 L 40.35347243185606,28.484070539102085 L 40.2535720093515,28.242889584204562 L 40.219497835640595,27.984070539102042 L 40.2535720093515,27.725251493999508 L 40.35347243185606,27.48407053910197 L 40.51239105445393,27.27696375791544 L 40.719497835640595,27.118045135317622 L 40.96067879053794,27.018144712812898 L 41.219497835640595,26.9840705391019 L 41.47831688074302,27.018144712812905 M 97.2194978356406,17.984070539102497 L 97.2194978356406,37.98407053910192 L 55.219497835640595,37.98407053910191 L 55.219497835640595,17.984070539102518 L 97.2194978356406,17.984070539102497 "
  />
  <path id="face2-cut"
 style="fill:none;stroke:#0000FF;stroke-width:1;stroke-miterlimit:4;stroke-dasharray:none;stroke-linejoin:round;stroke-linecap:round"
        d="M 10.0,91.00000000000018 L 127.99999999999977,91.00000000000018 L 127.99999999999977,10.000000000000005 L 10.0,10.0 L 10.0,91.00000000000018 M 51.99319555975421,49.66950055287395 M 100.99319555975421,49.66950055287394 M 100.99319555975421,56.66950055287397 M 110.99319555975421,56.66950055287397 M 112.37904368178806,57.311249693015505 M 113.60363949503449,58.22381863309451 M 114.61482324668395,59.36833791935276 M 115.36952513855545,60.6960585340239 M 115.83559981811777,62.150428283877055 M 115.99319555975421,63.669500552874005 M 115.835599818118,65.18857282187076 M 115.36952513855567,66.64294257172409 M 114.61482324668418,67.97066318639526 M 113.60363949503449,69.11518247265349 M 112.37904368178829,70.0277514127325 M 110.99319555975421,70.66950055287384 M 100.99319555975421,70.66950055287384 M 100.99319555975421,77.6695005528739 M 51.99319555975421,77.6695005528739 M 51.99319555975421,70.66950055287387 M 41.99319555975421,70.66950055287384 M 40.607347437720364,70.0277514127325 M 39.38275162447394,69.11518247265349 M 38.37156787282447,67.97066318639526 M 37.61686598095298,66.64294257172406 M 37.150791301390655,65.18857282187076 M 36.99319555975421,63.669500552874005 M 37.150791301390655,62.15042828387703 M 37.61686598095298,60.696058534023884 M 38.37156787282447,59.36833791935276 M 39.38275162447394,58.22381863309455 M 40.607347437720364,57.31124969301544 M 41.99319555975421,56.66950055287389 M 51.99319555975421,56.66950055287399 M 51.219497835640595,13.984070539102683 M 101.2194978356406,13.984070539102687 M 101.2194978356406,20.98407053910254 M 111.2194978356406,20.98407053910254 M 112.60534595767444,21.625819679244074 M 113.82994177092087,22.538388619322355 M 114.84112552257034,23.68290790558097 M 115.59582741444183,25.01062852025229 M 116.06190209400415,26.464998270105262 M 116.2194978356406,27.984070539102028 M 116.06190209400415,29.503142808098787 M 115.59582741444183,30.95751255795213 M 114.84112552257034,32.28523317262327 M 113.82994177092087,33.429752458881524 M 112.60534595767444,34.34232139896053 M 111.2194978356406,34.98407053910188 M 101.2194978356406,34.98407053910188 M 101.2194978356406,41.984070539101914 M 51.219497835640595,41.98407053910188 M 51.219497835640595,34.98407053910189 M 41.219497835640595,34.98407053910185 M 39.83364971360652,34.3423213989605 M 38.60905390036032,33.42975245888153 M 37.597870148710626,32.285233172623265 M 36.843168256839135,30.957512557952143 M 36.37709357727681,29.503142808098787 M 36.219497835640595,27.984070539102028 M 36.37709357727681,26.464998270105262 M 36.843168256839135,25.010628520252283 M 37.597870148710626,23.68290790558094 M 38.60905390036032,22.53838861932234 M 39.83364971360652,21.62581967924409 M 41.219497835640595,20.98407053910254 M 51.219497835640595,20.984070539102532 "
  />
  <path id="face0-interior"
 style="fill:none;stroke:#FF0000;stroke-width:1;stroke-miterlimit:4;stroke-dasharray:none;stroke-linejoin:round;stroke-linecap:round"
        d="M 100.99319555975421,49.66950055287394 L 51.99319555975421,49.66950055287395 L 51.99319555975421,56.66950055287399 L 41.99319555975421,56.66950055287389 L 40.607347437720364,57.31124969301544 L 39.38275162447394,58.22381863309455 L 38.37156787282447,59.36833791935276 L 37.61686598095298,60.696058534023884 L 37.150791301390655,62.15042828387703 L 36.99319555975421,63.669500552874005 L 37.150791301390655,65.18857282187076 L 37.61686598095298,66.64294257172406 L 38.37156787282447,67.97066318639526 L 39.38275162447394,69.11518247265349 L 40.607347437720364,70.0277514127325 L 41.99319555975421,70.66950055287384 L 51.99319555975421,70.66950055287387 L 51.99319555975421,77.6695005528739 L 100.99319555975421,77.6695005528739 L 100.99319555975421,70.66950055287384 L 110.99319555975421,70.66950055287384 L 112.37904368178829,70.0277514127325 L 113.60363949503449,69.11518247265349 L 114.61482324668418,67.97066318639526 L 115.36952513855567,66.64294257172409 L 115.835599818118,65.18857282187076 L 115.99319555975421,63.669500552874005 L 115.83559981811777,62.150428283877055 L 115.36952513855545,60.6960585340239 L 114.61482324668395,59.36833791935276 L 113.60363949503449,58.22381863309451 L 112.37904368178806,57.311249693015505 L 110.99319555975421,56.66950055287397 L 100.99319555975421,56.66950055287397 L 100.99319555975421,49.66950055287394 M 110.49319555975421,62.803475149089614 M 110.73437651465156,62.70357472658487 M 110.99319555975421,62.66950055287405 M 111.25201460485664,62.70357472658487 M 111.49319555975421,62.803475149089614 M 111.70030234094065,62.96239377168741 M 111.85922096353875,63.169500552873934 M 111.95912138604331,63.410681507771464 M 111.99319555975421,63.669500552874005 M 111.95912138604331,63.92831959797653 M 111.85922096353875,64.16950055287407 M 111.70030234094065,64.3766073340606 M 111.49319555975421,64.5355259566584 M 111.25201460485664,64.63542637916314 M 110.99319555975421,64.66950055287396 M 110.73437651465179,64.63542637916314 M 110.49319555975421,64.5355259566584 M 110.28608877856777,64.3766073340606 M 110.12717015596968,64.16950055287407 M 110.02726973346512,63.92831959797653 M 109.99319555975421,63.669500552874005 M 110.02726973346512,63.410681507771464 M 110.12717015596968,63.169500552873934 M 110.28608877856777,62.96239377168741 M 42.25201460485687,62.70357472658487 M 42.49319555975444,62.80347514908966 M 42.70030234094088,62.96239377168744 M 42.859220963538746,63.16950055287398 M 42.95912138604331,63.41068150777148 M 42.99319555975421,63.66950055287402 M 42.95912138604331,63.92831959797659 M 42.859220963538746,64.1695005528741 M 42.70030234094088,64.37660733406057 M 42.49319555975444,64.5355259566584 M 42.25201460485687,64.63542637916314 M 41.99319555975421,64.66950055287398 M 41.734376514651785,64.6354263791631 M 41.49319555975421,64.5355259566584 M 41.28608877856777,64.3766073340606 M 41.12717015596991,64.16950055287407 M 41.02726973346512,63.92831959797652 M 40.99319555975421,63.66950055287402 M 41.02726973346512,63.41068150777141 M 41.12717015596991,63.169500552873934 M 41.28608877856777,62.96239377168738 M 41.49319555975421,62.80347514908964 M 41.734376514651785,62.703574726584854 M 41.99319555975421,62.66950055287402 M 96.99319555975421,53.669500552873934 M 96.99319555975421,73.6695005528739 M 55.99319555975421,73.6695005528739 M 55.99319555975421,53.66950055287386 "
  />
  <path id="face1-interior"
 style="fill:none;stroke:#FF0000;stroke-width:1;stroke-miterlimit:4;stroke-dasharray:none;stroke-linejoin:round;stroke-linecap:round"
        d="M 101.2194978356406,13.984070539102687 L 51.219497835640595,13.984070539102683 L 51.219497835640595,20.984070539102532 L 41.219497835640595,20.98407053910254 L 39.83364971360652,21.62581967924409 L 38.60905390036032,22.53838861932234 L 37.597870148710626,23.68290790558094 L 36.843168256839135,25.010628520252283 L 36.37709357727681,26.464998270105262 L 36.219497835640595,27.984070539102028 L 36.37709357727681,29.503142808098787 L 36.843168256839135,30.957512557952143 L 37.597870148710626,32.285233172623265 L 38.60905390036032,33.42975245888153 L 39.83364971360652,34.3423213989605 L 41.219497835640595,34.98407053910185 L 51.219497835640595,34.98407053910189 L 51.219497835640595,41.98407053910188 L 101.2194978356406,41.984070539101914 L 101.2194978356406,34.98407053910188 L 111.2194978356406,34.98407053910188 L 112.60534595767444,34.34232139896053 L 113.82994177092087,33.429752458881524 L 114.84112552257034,32.28523317262327 L 115.59582741444183,30.95751255795213 L 116.06190209400415,29.503142808098787 L 116.2194978356406,27.984070539102028 L 116.06190209400415,26.464998270105262 L 115.59582741444183,25.01062852025229 L 114.84112552257034,23.68290790558097 L 113.82994177092087,22.538388619322355 L 112.60534595767444,21.625819679244074 L 111.2194978356406,20.98407053910254 L 101.2194978356406,20.98407053910254 L 101.2194978356406,13.984070539102687 M 110.71949783564037,27.118045135317644 M 110.96067879053794,27.018144712812905 M 111.2194978356406,26.9840705391019 M 111.47831688074302,27.018144712812905 M 111.7194978356406,27.118045135317644 M 111.92660461682703,27.27696375791544 M 112.0855232394249,27.484070539101964 M 112.18542366192969,27.725251493999494 M 112.21949783564037,27.984070539102028 M 112.18542366192969,28.242889584204562 M 112.0855232394249,28.4840705391021 M 111.92660461682703,28.691177320288624 M 111.7194978356406,28.85009594288642 M 111.47831688074302,28.949996365391158 M 111.2194978356406,28.984070539101985 M 110.96067879053794,28.949996365391158 M 110.71949783564037,28.85009594288642 M 110.51239105445393,28.691177320288624 M 110.35347243185606,28.4840705391021 M 110.25357200935127,28.242889584204562 M 110.2194978356406,27.984070539102028 M 110.25357200935127,27.725251493999494 M 110.35347243185606,27.484070539101964 M 110.51239105445393,27.27696375791544 M 41.47831688074302,27.018144712812905 M 41.719497835640595,27.118045135317637 M 41.926604616827035,27.276963757915425 M 42.08552323942513,27.48407053910197 M 42.18542366192969,27.725251493999487 M 42.21949783564037,27.984070539102042 M 42.18542366192969,28.242889584204555 M 42.08552323942513,28.484070539102085 M 41.926604616827035,28.69117732028861 M 41.719497835640595,28.85009594288642 M 41.47831688074302,28.949996365391172 M 41.219497835640595,28.984070539101964 M 40.96067879053794,28.949996365391172 M 40.719497835640595,28.85009594288642 M 40.51239105445393,28.69117732028863 M 40.35347243185606,28.484070539102085 M 40.2535720093515,28.242889584204562 M 40.219497835640595,27.984070539102042 M 40.2535720093515,27.725251493999508 M 40.35347243185606,27.48407053910197 M 40.51239105445393,27.27696375791544 M 40.719497835640595,27.118045135317622 M 40.96067879053794,27.018144712812898 M 41.219497835640595,26.9840705391019 M 97.2194978356406,17.984070539102497 M 97.2194978356406,37.98407053910192 M 55.219497835640595,37.98407053910191 M 55.219497835640595,17.984070539102518 "
  />
  <path id="face2-interior"
 style="fill:none;stroke:#FF0000;stroke-width:1;stroke-miterlimit:4;stroke-dasharray:none;stroke-linejoin:round;stroke-linecap:round"
        d="M 10.0,91.00000000000018 M 127.99999999999977,91.00000000000018 M 127.99999999999977,10.000000000000005 M 10.0,10.0 M 51.99319555975421,49.66950055287395 M 100.99319555975421,49.66950055287394 M 100.99319555975421,56.66950055287397 M 110.99319555975421,56.66950055287397 M 112.37904368178806,57.311249693015505 M 113.60363949503449,58.22381863309451 M 114.61482324668395,59.36833791935276 M 115.36952513855545,60.6960585340239 M 115.83559981811777,62.150428283877055 M 115.99319555975421,63.669500552874005 M 115.835599818118,65.18857282187076 M 115.36952513855567,66.64294257172409 M 114.61482324668418,67.97066318639526 M 113.60363949503449,69.11518247265349 M 112.37904368178829,70.0277514127325 M 110.99319555975421,70.66950055287384 M 100.99319555975421,70.66950055287384 M 100.99319555975421,77.6695005528739 M 51.99319555975421,77.6695005528739 M 51.99319555975421,70.66950055287387 M 41.99319555975421,70.66950055287384 M 40.607347437720364,70.0277514127325 M 39.38275162447394,69.11518247265349 M 38.37156787282447,67.97066318639526 M 37.61686598095298,66.64294257172406 M 37.150791301390655,65.18857282187076 M 36.99319555975421,63.669500552874005 M 37.150791301390655,62.15042828387703 M 37.61686598095298,60.696058534023884 M 38.37156787282447,59.36833791935276 M 39.38275162447394,58.22381863309455 M 40.607347437720364,57.31124969301544 M 41.99319555975421,56.66950055287389 M 51.99319555975421,56.66950055287399 M 51.219497835640595,13.984070539102683 M 101.2194978356406,13.984070539102687 M 101.2194978356406,20.98407053910254 M 111.2194978356406,20.98407053910254 M 112.60534595767444,21.625819679244074 M 113.82994177092087,22.538388619322355 M 114.84112552257034,23.68290790558097 M 115.59582741444183,25.01062852025229 M 116.06190209400415,26.464998270105262 M 116.2194978356406,27.984070539102028 M 116.06190209400415,29.503142808098787 M 115.59582741444183,30.95751255795213 M 114.84112552257034,32.28523317262327 M 113.82994177092087,33.429752458881524 M 112.60534595767444,34.34232139896053 M 111.2194978356406,34.98407053910188 M 101.2194978356406,34.98407053910188 M 101.2194978356406,41.984070539101914 M 51.219497835640595,41.98407053910188 M 51.219497835640595,34.98407053910189 M 41.219497835640595,34.98407053910185 M 39.83364971360652,34.3423213989605 M 38.60905390036032,33.42975245888153 M 37.597870148710626,32.285233172623265 M 36.843168256839135,30.957512557952143 M 36.37709357727681,29.503142808098787 M 36.219497835640595,27.984070539102028 M 36.37709357727681,26.464998270105262 M 36.843168256839135,25.010628520252283 M 37.597870148710626,23.68290790558094 M 38.60905390036032,22.53838861932234 M 39.83364971360652,21.62581967924409 M 41.219497835640595,20.98407053910254 M 51.219497835640595,20.984070539102532 "
  />
  <path id="face0-interior"
 style="fill:none;stroke:#00FF00;stroke-width:1;stroke-miterlimit:4;stroke-dasharray:none;stroke-linejoin:round;stroke-linecap:round"
        d="M 100.99319555975421,49.66950055287394 M 51.99319555975421,49.66950055287395 M 51.99319555975421,56.66950055287399 M 41.99319555975421,56.66950055287389 M 40.607347437720364,57.31124969301544 M 39.38275162447394,58.22381863309455 M 38.37156787282447,59.36833791935276 M 37.61686598095298,60.696058534023884 M 37.150791301390655,62.15042828387703 M 36.99319555975421,63.669500552874005 M 37.150791301390655,65.18857282187076 M 37.61686598095298,66.64294257172406 M 38.37156787282447,67.97066318639526 M 39.38275162447394,69.11518247265349 M 40.607347437720364,70.0277514127325 M 41.99319555975421,70.66950055287384 M 51.99319555975421,70.66950055287387 M 51.99319555975421,77.6695005528739 M 100.99319555975421,77.6695005528739 M 100.99319555975421,70.66950055287384 M 110.99319555975421,70.66950055287384 M 112.37904368178829,70.0277514127325 M 113.60363949503449,69.11518247265349 M 114.61482324668418,67.97066318639526 M 115.36952513855567,66.64294257172409 M 115.835599818118,65.18857282187076 M 115.99319555975421,63.669500552874005 M 115.83559981811777,62.150428283877055 M 115.36952513855545,60.6960585340239 M 114.61482324668395,59.36833791935276 M 113.60363949503449,58.22381863309451 M 112.37904368178806,57.311249693015505 M 110.99319555975421,56.66950055287397 M 100.99319555975421,56.66950055287397 M 110.49319555975421,62.803475149089614 M 110.73437651465156,62.70357472658487 M 110.99319555975421,62.66950055287405 M 111.25201460485664,62.70357472658487 M 111.49319555975421,62.803475149089614 M 111.70030234094065,62.96239377168741 M 111.85922096353875,63.169500552873934 M 111.95912138604331,63.410681507771464 M 111.99319555975421,63.669500552874005 M 111.95912138604331,63.92831959797653 M 111.85922096353875,64.16950055287407 M 111.70030234094065,64.3766073340606 M 111.49319555975421,64.5355259566584 M 111.25201460485664,64.63542637916314 M 110.99319555975421,64.66950055287396 M 110.73437651465179,64.63542637916314 M 110.49319555975421,64.5355259566584 M 110.28608877856777,64.3766073340606 M 110.12717015596968,64.16950055287407 M 110.02726973346512,63.92831959797653 M 109.99319555975421,63.669500552874005 M 110.02726973346512,63.410681507771464 M 110.12717015596968,63.169500552873934 M 110.28608877856777,62.96239377168741 M 42.25201460485687,62.70357472658487 M 42.49319555975444,62.80347514908966 M 42.70030234094088,62.96239377168744 M 42.859220963538746,63.16950055287398 M 42.95912138604331,63.41068150777148 M 42.99319555975421,63.66950055287402 M 42.95912138604331,63.92831959797659 M 42.859220963538746,64.1695005528741 M 42.70030234094088,64.37660733406057 M 42.49319555975444,64.5355259566584 M 42.25201460485687,64.63542637916314 M 41.99319555975421,64.66950055287398 M 41.734376514651785,64.6354263791631 M 41.49319555975421,64.5355259566584 M 41.28608877856777,64.3766073340606 M 41.12717015596991,64.16950055287407 M 41.02726973346512,63.92831959797652 M 40.99319555975421,63.66950055287402 M 41.02726973346512,63.41068150777141 M 41.12717015596991,63.169500552873934 M 41.28608877856777,62.96239377168738 M 41.49319555975421,62.80347514908964 M 41.734376514651785,62.703574726584854 M 41.99319555975421,62.66950055287402 M 96.99319555975421,53.669500552873934 M 96.99319555975421,73.6695005528739 M 55.99319555975421,73.6695005528739 M 55.99319555975421,53.66950055287386 "
  />
  <path id="face1-interior"
 style="fill:none;stroke:#00FF00;stroke-width:1;stroke-miterlimit:4;stroke-dasharray:none;stroke-linejoin:round;stroke-linecap:round"
        d="M 101.2194978356406,13.984070539102687 M 51.219497835640595,13.984070539102683 M 51.219497835640595,20.984070539102532 M 41.219497835640595,20.98407053910254 M 39.83364971360652,21.62581967924409 M 38.60905390036032,22.53838861932234 M 37.597870148710626,23.68290790558094 M 36.843168256839135,25.010628520252283 M 36.37709357727681,26.464998270105262 M 36.219497835640595,27.984070539102028 M 36.37709357727681,29.503142808098787 M 36.843168256839135,30.957512557952143 M 37.597870148710626,32.285233172623265 M 38.60905390036032,33.42975245888153 M 39.83364971360652,34.3423213989605 M 41.219497835640595,34.98407053910185 M 51.219497835640595,34.98407053910189 M 51.219497835640595,41.98407053910188 M 101.2194978356406,41.984070539101914 M 101.2194978356406,34.98407053910188 M 111.2194978356406,34.98407053910188 M 112.60534595767444,34.34232139896053 M 113.82994177092087,33.429752458881524 M 114.84112552257034,32.28523317262327 M 115.59582741444183,30.95751255795213 M 116.06190209400415,29.503142808098787 M 116.2194978356406,27.984070539102028 M 116.06190209400415,26.464998270105262 M 115.59582741444183,25.01062852025229 M 114.84112552257034,23.68290790558097 M 113.82994177092087,22.538388619322355 M 112.60534595767444,21.625819679244074 M 111.2194978356406,20.98407053910254 M 101.2194978356406,20.98407053910254 M 110.71949783564037,27.118045135317644 M 110.96067879053794,27.018144712812905 M 111.2194978356406,26.9840705391019 M 111.47831688074302,27.018144712812905 M 111.7194978356406,27.118045135317644 M 111.92660461682703,27.27696375791544 M 112.0855232394249,27.484070539101964 M 112.18542366192969,27.725251493999494 M 112.21949783564037,27.984070539102028 M 112.18542366192969,28.242889584204562 M 112.0855232394249,28.4840705391021 M 111.92660461682703,28.691177320288624 M 111.7194978356406,28.85009594288642 M 111.47831688074302,28.949996365391158 M 111.2194978356406,28.984070539101985 M 110.96067879053794,28.949996365391158 M 110.71949783564037,28.85009594288642 M 110.51239105445393,28.691177320288624 M 110.35347243185606,28.4840705391021 M 110.25357200935127,28.242889584204562 M 110.2194978356406,27.984070539102028 M 110.25357200935127,27.725251493999494 M 110.35347243185606,27.484070539101964 M 110.51239105445393,27.27696375791544 M 41.47831688074302,27.018144712812905 M 41.719497835640595,27.118045135317637 M 41.926604616827035,27.276963757915425 M 42.08552323942513,27.48407053910197 M 42.18542366192969,27.725251493999487 M 42.21949783564037,27.984070539102042 M 42.18542366192969,28.242889584204555 M 42.08552323942513,28.484070539102085 M 41.926604616827035,28.69117732028861 M 41.719497835640595,28.85009594288642 M 41.47831688074302,28.949996365391172 M 41.219497835640595,28.984070539101964 M 40.96067879053794,28.949996365391172 M 40.719497835640595,28.85009594288642 M 40.51239105445393,28.69117732028863 M 40.35347243185606,28.484070539102085 M 40.2535720093515,28.242889584204562 M 40.219497835640595,27.984070539102042 M 40.2535720093515,27.725251493999508 M 40.35347243185606,27.48407053910197 M 40.51239105445393,27.27696375791544 M 40.719497835640595,27.118045135317622 M 40.96067879053794,27.018144712812898 M 41.219497835640595,26.9840705391019 M 97.2194978356406,17.984070539102497 M 97.2194978356406,37.98407053910192 M 55.219497835640595,37.98407053910191 M 55.219497835640595,17.984070539102518 "
  />
  <path id="face2-interior"
 style="fill:none;stroke:#00FF00;stroke-width:1;stroke-miterlimit:4;stroke-dasharray:none;stroke-linejoin:round;stroke-linecap:round"
        d="M 10.0,91.00000000000018 M 127.99999999999977,91.00000000000018 M 127.99999999999977,10.000000000000005 M 10.0,10.0 M 51.99319555975421,49.66950055287395 M 100.99319555975421,49.66950055287394 M 100.99319555975421,56.66950055287397 M 110.99319555975421,56.66950055287397 M 112.37904368178806,57.311249693015505 M 113.60363949503449,58.22381863309451 M 114.61482324668395,59.36833791935276 M 115.36952513855545,60.6960585340239 M 115.83559981811777,62.150428283877055 M 115.99319555975421,63.669500552874005 M 115.835599818118,65.18857282187076 M 115.36952513855567,66.64294257172409 M 114.61482324668418,67.97066318639526 M 113.60363949503449,69.11518247265349 M 112.37904368178829,70.0277514127325 M 110.99319555975421,70.66950055287384 M 100.99319555975421,70.66950055287384 M 100.99319555975421,77.6695005528739 M 51.99319555975421,77.6695005528739 M 51.99319555975421,70.66950055287387 M 41.99319555975421,70.66950055287384 M 40.607347437720364,70.0277514127325 M 39.38275162447394,69.11518247265349 M 38.37156787282447,67.97066318639526 M 37.61686598095298,66.64294257172406 M 37.150791301390655,65.18857282187076 M 36.99319555975421,63.669500552874005 M 37.150791301390655,62.15042828387703 M 37.61686598095298,60.696058534023884 M 38.37156787282447,59.36833791935276 M 39.38275162447394,58.22381863309455 M 40.607347437720364,57.31124969301544 M 41.99319555975421,56.66950055287389 M 51.99319555975421,56.66950055287399 M 51.219497835640595,13.984070539102683 M 101.2194978356406,13.984070539102687 M 101.2194978356406,20.98407053910254 M 111.2194978356406,20.98407053910254 M 112.60534595767444,21.625819679244074 M 113.82994177092087,22.538388619322355 M 114.84112552257034,23.68290790558097 M 115.59582741444183,25.01062852025229 M 116.06190209400415,26.464998270105262 M 116.2194978356406,27.984070539102028 M 116.06190209400415,29.503142808098787 M 115.59582741444183,30.95751255795213 M 114.84112552257034,32.28523317262327 M 113.82994177092087,33.429752458881524 M 112.60534595767444,34.34232139896053 M 111.2194978356406,34.98407053910188 M 101.2194978356406,34.98407053910188 M 101.2194978356406,41.984070539101914 M 51.219497835640595,41.98407053910188 M 51.219497835640595,34.98407053910189 M 41.219497835640595,34.98407053910185 M 39.83364971360652,34.3423213989605 M 38.60905390036032,33.42975245888153 M 37.597870148710626,32.285233172623265 M 36.843168256839135,30.957512557952143 M 36.37709357727681,29.503142808098787 M 36.219497835640595,27.984070539102028 M 36.37709357727681,26.464998270105262 M 36.843168256839135,25.010628520252283 M 37.597870148710626,23.68290790558094 M 38.60905390036032,22.53838861932234 M 39.83364971360652,21.62581967924409 M 41.219497835640595,20.98407053910254 M 51.219497835640595,20.984070539102532 "
  />
</svg>
