solid coupleur moteur
facet normal 0.13052619222005138 0.9914448613738106 0.0
  outer loop
    vertex 899.5523313989498 675.3520020382907 10.000000000000004
    vertex 900.9758361470136 675.1645940828806 2.8199664825478975e-15
    vertex 899.5523313989498 675.3520020382907 2.8199664825478975e-15
  endloop
endfacet
facet normal 0.13052619222005138 0.9914448613738106 0.0
  outer loop
    vertex 900.9758361470136 675.1645940828806 2.8199664825478975e-15
    vertex 899.5523313989498 675.3520020382907 10.000000000000004
    vertex 900.9758361470136 675.1645940828806 10.000000000000004
  endloop
endfacet
facet normal -0.9238795325113175 -0.3826834323650159 -0.0
  outer loop
    vertex 894.2397393543599 668.4284972902269 10.000000000000004
    vertex 894.7891916781354 667.1020020382907 2.8199664825478975e-15
    vertex 894.7891916781354 667.1020020382907 10.000000000000004
  endloop
endfacet
facet normal -0.9238795325113175 -0.3826834323650159 -0.0
  outer loop
    vertex 894.7891916781354 667.1020020382907 2.8199664825478975e-15
    vertex 894.2397393543599 668.4284972902269 10.000000000000004
    vertex 894.2397393543599 668.4284972902269 2.8199664825478975e-15
  endloop
endfacet
facet normal -0.9914448613738064 -0.13052619222008224 -0.0
  outer loop
    vertex 894.0523313989498 669.8520020382907 10.000000000000004
    vertex 894.2397393543599 668.4284972902269 2.8199664825478975e-15
    vertex 894.2397393543599 668.4284972902269 10.000000000000004
  endloop
endfacet
facet normal -0.9914448613738064 -0.13052619222008224 -0.0
  outer loop
    vertex 894.2397393543599 668.4284972902269 2.8199664825478975e-15
    vertex 894.0523313989498 669.8520020382907 10.000000000000004
    vertex 894.0523313989498 669.8520020382907 2.8199664825478975e-15
  endloop
endfacet
facet normal -0.38268343236511854 0.9238795325112749 0.0
  outer loop
    vertex 896.80233139895 674.6151417591051 10.000000000000004
    vertex 898.128826650886 675.1645940828806 2.8199664825478975e-15
    vertex 896.80233139895 674.6151417591051 2.8199664825478975e-15
  endloop
endfacet
facet normal -0.38268343236511854 0.9238795325112749 0.0
  outer loop
    vertex 898.128826650886 675.1645940828806 2.8199664825478975e-15
    vertex 896.80233139895 674.6151417591051 10.000000000000004
    vertex 898.128826650886 675.1645940828806 10.000000000000004
  endloop
endfacet
facet normal -0.9914448613738064 0.13052619222008224 0.0
  outer loop
    vertex 894.2397393543599 671.2755067863545 10.000000000000004
    vertex 894.0523313989498 669.8520020382907 2.8199664825478975e-15
    vertex 894.0523313989498 669.8520020382907 10.000000000000004
  endloop
endfacet
facet normal -0.9914448613738064 0.13052619222008224 0.0
  outer loop
    vertex 894.0523313989498 669.8520020382907 2.8199664825478975e-15
    vertex 894.2397393543599 671.2755067863545 10.000000000000004
    vertex 894.2397393543599 671.2755067863545 2.8199664825478975e-15
  endloop
endfacet
facet normal -0.13052619222005138 0.9914448613738106 0.0
  outer loop
    vertex 898.128826650886 675.1645940828806 10.000000000000004
    vertex 899.5523313989498 675.3520020382907 2.8199664825478975e-15
    vertex 898.128826650886 675.1645940828806 2.8199664825478975e-15
  endloop
endfacet
facet normal -0.13052619222005138 0.9914448613738106 0.0
  outer loop
    vertex 899.5523313989498 675.3520020382907 2.8199664825478975e-15
    vertex 898.128826650886 675.1645940828806 10.000000000000004
    vertex 899.5523313989498 675.3520020382907 10.000000000000004
  endloop
endfacet
facet normal -0.7933533402911974 -0.6087614290087698 -0.0
  outer loop
    vertex 894.7891916781354 667.1020020382907 10.000000000000004
    vertex 895.6632441024238 665.9629147417647 2.8199664825478975e-15
    vertex 895.6632441024238 665.9629147417647 10.000000000000004
  endloop
endfacet
facet normal -0.7933533402911974 -0.6087614290087698 -0.0
  outer loop
    vertex 895.6632441024238 665.9629147417647 2.8199664825478975e-15
    vertex 894.7891916781354 667.1020020382907 10.000000000000004
    vertex 894.7891916781354 667.1020020382907 2.8199664825478975e-15
  endloop
endfacet
facet normal 0.3826834323651318 0.9238795325112695 0.0
  outer loop
    vertex 900.0699694891549 671.7838536908689 8.000000000000002
    vertex 900.5523313989498 671.5840528458597 6.000000000000003
    vertex 900.0699694891549 671.7838536908689 6.000000000000003
  endloop
endfacet
facet normal 0.3826834323651318 0.9238795325112695 0.0
  outer loop
    vertex 900.5523313989498 671.5840528458597 6.000000000000003
    vertex 900.0699694891549 671.7838536908689 8.000000000000002
    vertex 900.5523313989498 671.5840528458597 8.000000000000002
  endloop
endfacet
facet normal 0.9238795325113175 0.3826834323650159 0.0
  outer loop
    vertex 904.3154711197643 672.6020020382907 2.8199664825478975e-15
    vertex 904.8649234435396 671.2755067863545 10.000000000000004
    vertex 904.8649234435396 671.2755067863545 2.8199664825478975e-15
  endloop
endfacet
facet normal 0.9238795325113175 0.3826834323650159 0.0
  outer loop
    vertex 904.8649234435396 671.2755067863545 10.000000000000004
    vertex 904.3154711197643 672.6020020382907 2.8199664825478975e-15
    vertex 904.3154711197643 672.6020020382907 10.000000000000004
  endloop
endfacet
facet normal 0.7933533402912518 0.6087614290086991 0.0
  outer loop
    vertex 900.966544961323 671.2662156006638 6.000000000000003
    vertex 901.2843822065188 670.8520020382907 8.000000000000002
    vertex 901.2843822065188 670.8520020382907 6.000000000000003
  endloop
endfacet
facet normal 0.7933533402912518 0.6087614290086991 0.0
  outer loop
    vertex 901.2843822065188 670.8520020382907 8.000000000000002
    vertex 900.966544961323 671.2662156006638 6.000000000000003
    vertex 900.966544961323 671.2662156006638 8.000000000000002
  endloop
endfacet
facet normal -0.6087614290086284 -0.7933533402913062 -0.0
  outer loop
    vertex 898.5523313989498 668.1199512307218 8.000000000000002
    vertex 898.1381178365766 668.4377884759176 6.000000000000003
    vertex 898.5523313989498 668.1199512307218 6.000000000000003
  endloop
endfacet
facet normal -0.6087614290086284 -0.7933533402913062 -0.0
  outer loop
    vertex 898.1381178365766 668.4377884759176 6.000000000000003
    vertex 898.5523313989498 668.1199512307218 8.000000000000002
    vertex 898.1381178365766 668.4377884759176 8.000000000000002
  endloop
endfacet
facet normal -0.9238795325112642 0.3826834323651444 0.0
  outer loop
    vertex 897.8202805913809 670.8520020382907 8.000000000000002
    vertex 897.6204797463715 670.3696401284958 6.000000000000003
    vertex 897.6204797463715 670.3696401284958 8.000000000000002
  endloop
endfacet
facet normal -0.9238795325112642 0.3826834323651444 0.0
  outer loop
    vertex 897.6204797463715 670.3696401284958 6.000000000000003
    vertex 897.8202805913809 670.8520020382907 8.000000000000002
    vertex 897.8202805913809 670.8520020382907 6.000000000000003
  endloop
endfacet
facet normal 0.9238795325113128 -0.38268343236502694 0.0
  outer loop
    vertex 904.8649234435396 668.4284972902268 2.8199664825478975e-15
    vertex 904.3154711197643 667.1020020382907 10.000000000000004
    vertex 904.3154711197643 667.1020020382907 2.8199664825478975e-15
  endloop
endfacet
facet normal 0.9238795325113128 -0.38268343236502694 0.0
  outer loop
    vertex 904.3154711197643 667.1020020382907 10.000000000000004
    vertex 904.8649234435396 668.4284972902268 2.8199664825478975e-15
    vertex 904.8649234435396 668.4284972902268 10.000000000000004
  endloop
endfacet
facet normal 0.13052619222005138 -0.9914448613738106 0.0
  outer loop
    vertex 900.9758361470136 664.5394099937008 10.000000000000004
    vertex 899.5523313989498 664.3520020382907 2.8199664825478975e-15
    vertex 900.9758361470136 664.5394099937008 2.8199664825478975e-15
  endloop
endfacet
facet normal 0.13052619222005138 -0.9914448613738106 0.0
  outer loop
    vertex 899.5523313989498 664.3520020382907 2.8199664825478975e-15
    vertex 900.9758361470136 664.5394099937008 10.000000000000004
    vertex 899.5523313989498 664.3520020382907 10.000000000000004
  endloop
endfacet
facet normal 0.9914448613738069 -0.1305261922200782 0.0
  outer loop
    vertex 905.0523313989498 669.8520020382907 2.8199664825478975e-15
    vertex 904.8649234435396 668.4284972902268 10.000000000000004
    vertex 904.8649234435396 668.4284972902268 2.8199664825478975e-15
  endloop
endfacet
facet normal 0.9914448613738069 -0.1305261922200782 0.0
  outer loop
    vertex 904.8649234435396 668.4284972902268 10.000000000000004
    vertex 905.0523313989498 669.8520020382907 2.8199664825478975e-15
    vertex 905.0523313989498 669.8520020382907 10.000000000000004
  endloop
endfacet
facet normal 0.9914448613738064 0.13052619222008224 0.0
  outer loop
    vertex 904.8649234435396 671.2755067863545 2.8199664825478975e-15
    vertex 905.0523313989498 669.8520020382907 10.000000000000004
    vertex 905.0523313989498 669.8520020382907 2.8199664825478975e-15
  endloop
endfacet
facet normal 0.9914448613738064 0.13052619222008224 0.0
  outer loop
    vertex 905.0523313989498 669.8520020382907 10.000000000000004
    vertex 904.8649234435396 671.2755067863545 2.8199664825478975e-15
    vertex 904.8649234435396 671.2755067863545 10.000000000000004
  endloop
endfacet
facet normal -0.7933533402912518 0.6087614290086991 0.0
  outer loop
    vertex 898.1381178365766 671.2662156006638 8.000000000000002
    vertex 897.8202805913809 670.8520020382907 6.000000000000003
    vertex 897.8202805913809 670.8520020382907 8.000000000000002
  endloop
endfacet
facet normal -0.7933533402912518 0.6087614290086991 0.0
  outer loop
    vertex 897.8202805913809 670.8520020382907 6.000000000000003
    vertex 898.1381178365766 671.2662156006638 8.000000000000002
    vertex 898.1381178365766 671.2662156006638 6.000000000000003
  endloop
endfacet
facet normal 0.0 0.0 1.0
  outer loop
    vertex 899.0993980700204 666.4116318422848 8.000000000000004
    vertex 896.5132536067919 669.7913204784348 8.000000000000004
    vertex 896.3464167463211 668.5240687093614 8.000000000000004
  endloop
endfacet
facet normal 0.0 0.0 1.0
  outer loop
    vertex 896.5132536067919 669.7913204784348 8.000000000000004
    vertex 899.0993980700204 666.4116318422848 8.000000000000004
    vertex 896.6325132147803 670.6971871362936 8.000000000000004
  endloop
endfacet
facet normal 0.0 0.0 1.0
  outer loop
    vertex 896.6325132147803 670.6971871362936 8.000000000000004
    vertex 899.0993980700204 666.4116318422848 8.000000000000004
    vertex 897.8202805913809 668.8520020382906 8.000000000000002
  endloop
endfacet
facet normal 0.0 0.0 1.0
  outer loop
    vertex 896.6325132147803 670.6971871362936 8.000000000000004
    vertex 897.8202805913809 668.8520020382906 8.000000000000002
    vertex 897.6204797463715 669.3343639480856 8.000000000000002
  endloop
endfacet
facet normal 0.0 0.0 1.0
  outer loop
    vertex 896.6325132147803 670.6971871362936 8.000000000000004
    vertex 897.6204797463715 669.3343639480856 8.000000000000002
    vertex 896.7993500752506 671.9644389053673 8.000000000000004
  endloop
endfacet
facet normal 0.0 0.0 1.0
  outer loop
    vertex 896.7993500752506 671.9644389053673 8.000000000000004
    vertex 897.6204797463715 669.3343639480856 8.000000000000002
    vertex 897.5523313989497 669.8520020382907 8.000000000000002
  endloop
endfacet
facet normal 0.0 0.0 1.0
  outer loop
    vertex 897.8202805913809 668.8520020382906 8.000000000000002
    vertex 899.0993980700204 666.4116318422848 8.000000000000004
    vertex 898.1381178365766 668.4377884759176 8.000000000000002
  endloop
endfacet
facet normal 0.0 0.0 1.0
  outer loop
    vertex 898.1381178365766 668.4377884759176 8.000000000000002
    vertex 899.0993980700204 666.4116318422848 8.000000000000004
    vertex 898.5523313989498 668.1199512307218 8.000000000000002
  endloop
endfacet
facet normal 0.0 0.0 1.0
  outer loop
    vertex 898.5523313989498 668.1199512307218 8.000000000000002
    vertex 899.0993980700204 666.4116318422848 8.000000000000004
    vertex 899.0346933087447 667.9201503857125 8.000000000000002
  endloop
endfacet
facet normal 0.0 0.0 1.0
  outer loop
    vertex 899.0346933087447 667.9201503857125 8.000000000000002
    vertex 899.0993980700204 666.4116318422848 8.000000000000004
    vertex 899.5523313989498 667.8520020382906 8.000000000000002
  endloop
endfacet
facet normal 0.0 0.0 1.0
  outer loop
    vertex 899.5523313989498 667.8520020382906 8.000000000000002
    vertex 899.0993980700204 666.4116318422848 8.000000000000004
    vertex 902.3053127226491 667.7395651712142 8.000000000000004
  endloop
endfacet
facet normal 0.0 0.0 1.0
  outer loop
    vertex 899.5523313989498 667.8520020382906 8.000000000000002
    vertex 902.3053127226491 667.7395651712142 8.000000000000004
    vertex 900.0699694891549 667.9201503857125 8.000000000000002
  endloop
endfacet
facet normal 0.0 0.0 1.0
  outer loop
    vertex 900.0699694891549 667.9201503857125 8.000000000000002
    vertex 902.3053127226491 667.7395651712142 8.000000000000004
    vertex 900.55233139895 668.1199512307218 8.000000000000002
  endloop
endfacet
facet normal 0.0 0.0 1.0
  outer loop
    vertex 900.55233139895 668.1199512307218 8.000000000000002
    vertex 902.3053127226491 667.7395651712142 8.000000000000004
    vertex 900.966544961323 668.4377884759176 8.000000000000002
  endloop
endfacet
facet normal 0.0 0.0 1.0
  outer loop
    vertex 900.966544961323 668.4377884759176 8.000000000000002
    vertex 902.3053127226491 667.7395651712142 8.000000000000004
    vertex 901.2843822065188 668.8520020382906 8.000000000000002
  endloop
endfacet
facet normal 0.0 0.0 1.0
  outer loop
    vertex 901.2843822065188 668.8520020382906 8.000000000000002
    vertex 902.3053127226491 667.7395651712142 8.000000000000004
    vertex 901.4841830515281 669.3343639480856 8.000000000000002
  endloop
endfacet
facet normal 0.0 0.0 1.0
  outer loop
    vertex 901.4841830515281 669.3343639480856 8.000000000000002
    vertex 902.3053127226491 667.7395651712142 8.000000000000004
    vertex 901.55233139895 669.8520020382907 8.000000000000002
  endloop
endfacet
facet normal 0.0 0.0 1.0
  outer loop
    vertex 896.7993500752506 671.9644389053673 8.000000000000004
    vertex 898.1381178365766 671.2662156006638 8.000000000000002
    vertex 900.0052647278793 673.2923722342965 8.000000000000004
  endloop
endfacet
facet normal 0.0 0.0 1.0
  outer loop
    vertex 898.1381178365766 671.2662156006638 8.000000000000002
    vertex 896.7993500752506 671.9644389053673 8.000000000000004
    vertex 897.8202805913809 670.8520020382907 8.000000000000002
  endloop
endfacet
facet normal 0.0 0.0 1.0
  outer loop
    vertex 897.8202805913809 670.8520020382907 8.000000000000002
    vertex 896.7993500752506 671.9644389053673 8.000000000000004
    vertex 897.6204797463715 670.3696401284958 8.000000000000002
  endloop
endfacet
facet normal 0.0 0.0 1.0
  outer loop
    vertex 897.6204797463715 670.3696401284958 8.000000000000002
    vertex 896.7993500752506 671.9644389053673 8.000000000000004
    vertex 897.5523313989497 669.8520020382907 8.000000000000002
  endloop
endfacet
facet normal 0.0 0.0 1.0
  outer loop
    vertex 900.0052647278793 673.2923722342965 8.000000000000004
    vertex 898.1381178365766 671.2662156006638 8.000000000000002
    vertex 898.5523313989497 671.5840528458597 8.000000000000002
  endloop
endfacet
facet normal 0.0 0.0 1.0
  outer loop
    vertex 900.0052647278793 673.2923722342965 8.000000000000004
    vertex 898.5523313989497 671.5840528458597 8.000000000000002
    vertex 899.0346933087447 671.7838536908689 8.000000000000002
  endloop
endfacet
facet normal 0.0 0.0 1.0
  outer loop
    vertex 900.0052647278793 673.2923722342965 8.000000000000004
    vertex 899.0346933087447 671.7838536908689 8.000000000000002
    vertex 899.5523313989498 671.8520020382908 8.000000000000002
  endloop
endfacet
facet normal 0.0 0.0 1.0
  outer loop
    vertex 900.0052647278793 673.2923722342965 8.000000000000004
    vertex 899.5523313989498 671.8520020382908 8.000000000000002
    vertex 900.0699694891549 671.7838536908689 8.000000000000002
  endloop
endfacet
facet normal 0.0 0.0 1.0
  outer loop
    vertex 900.0052647278793 673.2923722342965 8.000000000000004
    vertex 900.0699694891549 671.7838536908689 8.000000000000002
    vertex 902.7582460515786 671.1799353672201 8.000000000000004
  endloop
endfacet
facet normal 0.0 0.0 1.0
  outer loop
    vertex 902.7582460515786 671.1799353672201 8.000000000000004
    vertex 900.0699694891549 671.7838536908689 8.000000000000002
    vertex 900.5523313989498 671.5840528458597 8.000000000000002
  endloop
endfacet
facet normal 0.0 0.0 1.0
  outer loop
    vertex 902.7582460515786 671.1799353672201 8.000000000000004
    vertex 900.5523313989498 671.5840528458597 8.000000000000002
    vertex 900.966544961323 671.2662156006638 8.000000000000002
  endloop
endfacet
facet normal 0.0 0.0 1.0
  outer loop
    vertex 902.7582460515786 671.1799353672201 8.000000000000004
    vertex 900.966544961323 671.2662156006638 8.000000000000002
    vertex 901.2843822065188 670.8520020382907 8.000000000000002
  endloop
endfacet
facet normal 0.0 0.0 1.0
  outer loop
    vertex 902.7582460515786 671.1799353672201 8.000000000000004
    vertex 901.2843822065188 670.8520020382907 8.000000000000002
    vertex 901.4841830515281 670.3696401284958 8.000000000000002
  endloop
endfacet
facet normal 0.0 0.0 1.0
  outer loop
    vertex 902.7582460515786 671.1799353672201 8.000000000000004
    vertex 901.4841830515281 670.3696401284958 8.000000000000002
    vertex 901.55233139895 669.8520020382907 8.000000000000002
  endloop
endfacet
facet normal 0.0 0.0 1.0
  outer loop
    vertex 902.7582460515786 671.1799353672201 8.000000000000004
    vertex 901.55233139895 669.8520020382907 8.000000000000002
    vertex 902.3053127226491 667.7395651712142 8.000000000000004
  endloop
endfacet
facet normal 0.7933533402912092 -0.6087614290087546 0.0
  outer loop
    vertex 904.3154711197643 667.1020020382907 2.8199664825478975e-15
    vertex 903.4414186954758 665.9629147417646 10.000000000000004
    vertex 903.4414186954758 665.9629147417646 2.8199664825478975e-15
  endloop
endfacet
facet normal 0.7933533402912092 -0.6087614290087546 0.0
  outer loop
    vertex 903.4414186954758 665.9629147417646 10.000000000000004
    vertex 904.3154711197643 667.1020020382907 2.8199664825478975e-15
    vertex 904.3154711197643 667.1020020382907 10.000000000000004
  endloop
endfacet
facet normal 0.0 0.0 1.0
  outer loop
    vertex 896.171591006938 668.9461353804319 3.0000000000000027
    vertex 896.5132536067919 669.7913204784348 3.0000000000000027
    vertex 896.0523313989497 669.8520020382907 3.0000000000000027
  endloop
endfacet
facet normal 0.0 0.0 1.0
  outer loop
    vertex 896.5132536067919 669.7913204784348 3.0000000000000027
    vertex 896.171591006938 668.9461353804319 3.0000000000000027
    vertex 896.3464167463211 668.5240687093614 3.0000000000000027
  endloop
endfacet
facet normal 0.0 0.0 1.0
  outer loop
    vertex 902.5834203121954 668.1020020382906 3.0000000000000027
    vertex 902.7582460515786 671.1799353672201 3.0000000000000027
    vertex 902.3053127226491 667.7395651712142 3.0000000000000027
  endloop
endfacet
facet normal 0.0 0.0 1.0
  outer loop
    vertex 902.7582460515786 671.1799353672201 3.0000000000000027
    vertex 902.5834203121954 668.1020020382906 3.0000000000000027
    vertex 902.9330717909615 668.9461353804319 3.0000000000000027
  endloop
endfacet
facet normal 0.0 0.0 1.0
  outer loop
    vertex 902.7582460515786 671.1799353672201 3.0000000000000027
    vertex 902.9330717909615 668.9461353804319 3.0000000000000027
    vertex 902.9330717909615 670.7578686961496 3.0000000000000027
  endloop
endfacet
facet normal 0.0 0.0 1.0
  outer loop
    vertex 902.9330717909615 670.7578686961496 3.0000000000000027
    vertex 902.9330717909615 668.9461353804319 3.0000000000000027
    vertex 903.05233139895 669.8520020382907 3.0000000000000027
  endloop
endfacet
facet normal 0.0 0.0 1.0
  outer loop
    vertex 902.7582460515786 671.1799353672201 3.0000000000000027
    vertex 900.4581980568086 673.2327424303024 3.0000000000000027
    vertex 900.0052647278793 673.2923722342965 3.0000000000000027
  endloop
endfacet
facet normal 0.0 0.0 1.0
  outer loop
    vertex 900.4581980568086 673.2327424303024 3.0000000000000027
    vertex 902.7582460515786 671.1799353672201 3.0000000000000027
    vertex 901.3023313989498 672.8830909515362 3.0000000000000027
  endloop
endfacet
facet normal 0.0 0.0 1.0
  outer loop
    vertex 901.3023313989498 672.8830909515362 3.0000000000000027
    vertex 902.7582460515786 671.1799353672201 3.0000000000000027
    vertex 902.0272051331028 672.3268757724436 3.0000000000000027
  endloop
endfacet
facet normal 0.0 0.0 1.0
  outer loop
    vertex 902.0272051331028 672.3268757724436 3.0000000000000027
    vertex 902.7582460515786 671.1799353672201 3.0000000000000027
    vertex 902.5834203121954 671.6020020382907 3.0000000000000027
  endloop
endfacet
facet normal 0.0 0.0 1.0
  outer loop
    vertex 899.5523313989498 666.3520020382907 3.0000000000000027
    vertex 902.3053127226491 667.7395651712142 3.0000000000000027
    vertex 899.0993980700204 666.4116318422848 3.0000000000000027
  endloop
endfacet
facet normal 0.0 0.0 1.0
  outer loop
    vertex 902.3053127226491 667.7395651712142 3.0000000000000027
    vertex 899.5523313989498 666.3520020382907 3.0000000000000027
    vertex 900.4581980568086 666.4712616462789 3.0000000000000027
  endloop
endfacet
facet normal 0.0 0.0 1.0
  outer loop
    vertex 902.3053127226491 667.7395651712142 3.0000000000000027
    vertex 900.4581980568086 666.4712616462789 3.0000000000000027
    vertex 901.3023313989498 666.8209131250452 3.0000000000000027
  endloop
endfacet
facet normal 0.0 0.0 1.0
  outer loop
    vertex 902.3053127226491 667.7395651712142 3.0000000000000027
    vertex 901.3023313989498 666.8209131250452 3.0000000000000027
    vertex 902.0272051331028 667.3771283041378 3.0000000000000027
  endloop
endfacet
facet normal 0.0 0.0 1.0
  outer loop
    vertex 900.0052647278793 673.2923722342965 3.0000000000000027
    vertex 897.0774576647968 672.3268757724436 3.0000000000000027
    vertex 896.7993500752506 671.9644389053673 3.0000000000000027
  endloop
endfacet
facet normal 0.0 0.0 1.0
  outer loop
    vertex 897.0774576647968 672.3268757724436 3.0000000000000027
    vertex 900.0052647278793 673.2923722342965 3.0000000000000027
    vertex 897.8023313989498 672.8830909515362 3.0000000000000027
  endloop
endfacet
facet normal 0.0 0.0 1.0
  outer loop
    vertex 897.8023313989498 672.8830909515362 3.0000000000000027
    vertex 900.0052647278793 673.2923722342965 3.0000000000000027
    vertex 898.646464741091 673.2327424303024 3.0000000000000027
  endloop
endfacet
facet normal 0.0 0.0 1.0
  outer loop
    vertex 898.646464741091 673.2327424303024 3.0000000000000027
    vertex 900.0052647278793 673.2923722342965 3.0000000000000027
    vertex 899.5523313989498 673.3520020382907 3.0000000000000027
  endloop
endfacet
facet normal 0.0 0.0 1.0
  outer loop
    vertex 896.5212424857043 668.1020020382906 3.0000000000000027
    vertex 899.0993980700204 666.4116318422848 3.0000000000000027
    vertex 896.3464167463211 668.5240687093614 3.0000000000000027
  endloop
endfacet
facet normal 0.0 0.0 1.0
  outer loop
    vertex 899.0993980700204 666.4116318422848 3.0000000000000027
    vertex 896.5212424857043 668.1020020382906 3.0000000000000027
    vertex 897.0774576647968 667.3771283041378 3.0000000000000027
  endloop
endfacet
facet normal 0.0 0.0 1.0
  outer loop
    vertex 899.0993980700204 666.4116318422848 3.0000000000000027
    vertex 897.0774576647968 667.3771283041378 3.0000000000000027
    vertex 897.8023313989498 666.8209131250452 3.0000000000000027
  endloop
endfacet
facet normal 0.0 0.0 1.0
  outer loop
    vertex 899.0993980700204 666.4116318422848 3.0000000000000027
    vertex 897.8023313989498 666.8209131250452 3.0000000000000027
    vertex 898.646464741091 666.4712616462789 3.0000000000000027
  endloop
endfacet
facet normal 0.6087614290086284 0.7933533402913062 0.0
  outer loop
    vertex 900.5523313989498 671.5840528458597 8.000000000000002
    vertex 900.966544961323 671.2662156006638 6.000000000000003
    vertex 900.5523313989498 671.5840528458597 6.000000000000003
  endloop
endfacet
facet normal 0.6087614290086284 0.7933533402913062 0.0
  outer loop
    vertex 900.966544961323 671.2662156006638 6.000000000000003
    vertex 900.5523313989498 671.5840528458597 8.000000000000002
    vertex 900.966544961323 671.2662156006638 8.000000000000002
  endloop
endfacet
facet normal -0.6087614290087953 0.793353340291178 0.0
  outer loop
    vertex 898.1381178365766 671.2662156006638 8.000000000000002
    vertex 898.5523313989497 671.5840528458597 6.000000000000003
    vertex 898.1381178365766 671.2662156006638 6.000000000000003
  endloop
endfacet
facet normal -0.6087614290087953 0.793353340291178 0.0
  outer loop
    vertex 898.5523313989497 671.5840528458597 6.000000000000003
    vertex 898.1381178365766 671.2662156006638 8.000000000000002
    vertex 898.5523313989497 671.5840528458597 8.000000000000002
  endloop
endfacet
facet normal -0.1305261922200664 0.9914448613738085 0.0
  outer loop
    vertex 899.0346933087447 671.7838536908689 8.000000000000002
    vertex 899.5523313989498 671.8520020382908 6.000000000000003
    vertex 899.0346933087447 671.7838536908689 6.000000000000003
  endloop
endfacet
facet normal -0.1305261922200664 0.9914448613738085 0.0
  outer loop
    vertex 899.5523313989498 671.8520020382908 6.000000000000003
    vertex 899.0346933087447 671.7838536908689 8.000000000000002
    vertex 899.5523313989498 671.8520020382908 8.000000000000002
  endloop
endfacet
facet normal 0.38268343236511854 -0.9238795325112749 0.0
  outer loop
    vertex 902.3023313989497 665.0888623174764 10.000000000000004
    vertex 900.9758361470136 664.5394099937008 2.8199664825478975e-15
    vertex 902.3023313989497 665.0888623174764 2.8199664825478975e-15
  endloop
endfacet
facet normal 0.38268343236511854 -0.9238795325112749 0.0
  outer loop
    vertex 900.9758361470136 664.5394099937008 2.8199664825478975e-15
    vertex 902.3023313989497 665.0888623174764 10.000000000000004
    vertex 900.9758361470136 664.5394099937008 10.000000000000004
  endloop
endfacet
facet normal -0.3826834323651318 -0.9238795325112695 -0.0
  outer loop
    vertex 899.0346933087447 667.9201503857125 8.000000000000002
    vertex 898.5523313989498 668.1199512307218 6.000000000000003
    vertex 899.0346933087447 667.9201503857125 6.000000000000003
  endloop
endfacet
facet normal -0.3826834323651318 -0.9238795325112695 -0.0
  outer loop
    vertex 898.5523313989498 668.1199512307218 6.000000000000003
    vertex 899.0346933087447 667.9201503857125 8.000000000000002
    vertex 898.5523313989498 668.1199512307218 8.000000000000002
  endloop
endfacet
facet normal 0.9914448613738075 -0.13052619222007422 0.0
  outer loop
    vertex 896.5132536067919 669.7913204784348 8.000000000000004
    vertex 896.3464167463211 668.5240687093614 10.000000000000004
    vertex 896.3464167463211 668.5240687093614 8.000000000000004
  endloop
endfacet
facet normal 0.9914448613738075 -0.13052619222007422 0.0
  outer loop
    vertex 896.3464167463211 668.5240687093614 10.000000000000004
    vertex 896.5132536067919 669.7913204784348 8.000000000000004
    vertex 896.5132536067919 669.7913204784348 10.000000000000004
  endloop
endfacet
facet normal 0.9914448613738075 -0.13052619222007422 0.0
  outer loop
    vertex 896.5132536067919 669.7913204784348 10.000000000000004
    vertex 896.5132536067919 669.7913204784348 8.000000000000004
    vertex 896.6325132147803 670.6971871362936 8.000000000000004
  endloop
endfacet
facet normal 0.9914448613738075 -0.13052619222007422 0.0
  outer loop
    vertex 896.5132536067919 669.7913204784348 10.000000000000004
    vertex 896.6325132147803 670.6971871362936 8.000000000000004
    vertex 896.6325132147803 670.6971871362936 10.000000000000004
  endloop
endfacet
facet normal 0.9914448613738075 -0.13052619222007422 0.0
  outer loop
    vertex 896.6325132147803 670.6971871362936 10.000000000000004
    vertex 896.6325132147803 670.6971871362936 8.000000000000004
    vertex 896.7993500752506 671.9644389053673 8.000000000000004
  endloop
endfacet
facet normal 0.9914448613738075 -0.13052619222007422 0.0
  outer loop
    vertex 896.6325132147803 670.6971871362936 10.000000000000004
    vertex 896.7993500752506 671.9644389053673 8.000000000000004
    vertex 896.7993500752506 671.9644389053673 10.000000000000004
  endloop
endfacet
facet normal 0.1305261922200664 0.9914448613738085 0.0
  outer loop
    vertex 899.5523313989498 671.8520020382908 8.000000000000002
    vertex 900.0699694891549 671.7838536908689 6.000000000000003
    vertex 899.5523313989498 671.8520020382908 6.000000000000003
  endloop
endfacet
facet normal 0.1305261922200664 0.9914448613738085 0.0
  outer loop
    vertex 900.0699694891549 671.7838536908689 6.000000000000003
    vertex 899.5523313989498 671.8520020382908 8.000000000000002
    vertex 900.0699694891549 671.7838536908689 8.000000000000002
  endloop
endfacet
facet normal -0.9238795325112642 -0.3826834323651444 -0.0
  outer loop
    vertex 897.6204797463715 669.3343639480856 8.000000000000002
    vertex 897.8202805913809 668.8520020382906 6.000000000000003
    vertex 897.8202805913809 668.8520020382906 8.000000000000002
  endloop
endfacet
facet normal -0.9238795325112642 -0.3826834323651444 -0.0
  outer loop
    vertex 897.8202805913809 668.8520020382906 6.000000000000003
    vertex 897.6204797463715 669.3343639480856 8.000000000000002
    vertex 897.6204797463715 669.3343639480856 6.000000000000003
  endloop
endfacet
facet normal 0.0 0.0 1.0
  outer loop
    vertex 896.6325132147803 670.6971871362936 3.0000000000000027
    vertex 896.5212424857043 671.6020020382907 3.0000000000000027
    vertex 896.171591006938 670.7578686961496 3.0000000000000027
  endloop
endfacet
facet normal 0.0 0.0 1.0
  outer loop
    vertex 896.5212424857043 671.6020020382907 3.0000000000000027
    vertex 896.6325132147803 670.6971871362936 3.0000000000000027
    vertex 896.7993500752506 671.9644389053673 3.0000000000000027
  endloop
endfacet
facet normal -0.9914448613738197 -0.13052619221998144 -0.0
  outer loop
    vertex 897.5523313989497 669.8520020382907 8.000000000000002
    vertex 897.6204797463715 669.3343639480856 6.000000000000003
    vertex 897.6204797463715 669.3343639480856 8.000000000000002
  endloop
endfacet
facet normal -0.9914448613738197 -0.13052619221998144 -0.0
  outer loop
    vertex 897.6204797463715 669.3343639480856 6.000000000000003
    vertex 897.5523313989497 669.8520020382907 8.000000000000002
    vertex 897.5523313989497 669.8520020382907 6.000000000000003
  endloop
endfacet
facet normal 0.6087614290087268 0.7933533402912307 0.0
  outer loop
    vertex 896.3464167463211 668.5240687093614 10.000000000000004
    vertex 899.0993980700204 666.4116318422848 8.000000000000004
    vertex 896.3464167463211 668.5240687093614 8.000000000000004
  endloop
endfacet
facet normal 0.6087614290087268 0.7933533402912307 0.0
  outer loop
    vertex 899.0993980700204 666.4116318422848 8.000000000000004
    vertex 896.3464167463211 668.5240687093614 10.000000000000004
    vertex 899.0993980700204 666.4116318422848 10.000000000000004
  endloop
endfacet
facet normal -0.7933533402912518 -0.6087614290086991 -0.0
  outer loop
    vertex 897.8202805913809 668.8520020382906 8.000000000000002
    vertex 898.1381178365766 668.4377884759176 6.000000000000003
    vertex 898.1381178365766 668.4377884759176 8.000000000000002
  endloop
endfacet
facet normal -0.7933533402912518 -0.6087614290086991 -0.0
  outer loop
    vertex 898.1381178365766 668.4377884759176 6.000000000000003
    vertex 897.8202805913809 668.8520020382906 8.000000000000002
    vertex 897.8202805913809 668.8520020382906 6.000000000000003
  endloop
endfacet
facet normal -0.38268343236500957 0.9238795325113202 0.0
  outer loop
    vertex 898.5523313989497 671.5840528458597 8.000000000000002
    vertex 899.0346933087447 671.7838536908689 6.000000000000003
    vertex 898.5523313989497 671.5840528458597 6.000000000000003
  endloop
endfacet
facet normal -0.38268343236500957 0.9238795325113202 0.0
  outer loop
    vertex 899.0346933087447 671.7838536908689 6.000000000000003
    vertex 898.5523313989497 671.5840528458597 8.000000000000002
    vertex 899.0346933087447 671.7838536908689 8.000000000000002
  endloop
endfacet
facet normal -0.9914448613738197 0.13052619221998144 0.0
  outer loop
    vertex 897.6204797463715 670.3696401284958 8.000000000000002
    vertex 897.5523313989497 669.8520020382907 6.000000000000003
    vertex 897.5523313989497 669.8520020382907 8.000000000000002
  endloop
endfacet
facet normal -0.9914448613738197 0.13052619221998144 0.0
  outer loop
    vertex 897.5523313989497 669.8520020382907 6.000000000000003
    vertex 897.6204797463715 670.3696401284958 8.000000000000002
    vertex 897.6204797463715 670.3696401284958 6.000000000000003
  endloop
endfacet
facet normal -0.3826834323650741 -0.9238795325112933 -0.0
  outer loop
    vertex 898.128826650886 664.5394099937008 10.000000000000004
    vertex 896.8023313989497 665.0888623174764 2.8199664825478975e-15
    vertex 898.128826650886 664.5394099937008 2.8199664825478975e-15
  endloop
endfacet
facet normal -0.3826834323650741 -0.9238795325112933 -0.0
  outer loop
    vertex 896.8023313989497 665.0888623174764 2.8199664825478975e-15
    vertex 898.128826650886 664.5394099937008 10.000000000000004
    vertex 896.8023313989497 665.0888623174764 10.000000000000004
  endloop
endfacet
facet normal 0.3826834323650741 0.9238795325112933 0.0
  outer loop
    vertex 900.9758361470136 675.1645940828806 10.000000000000004
    vertex 902.30233139895 674.6151417591051 2.8199664825478975e-15
    vertex 900.9758361470136 675.1645940828806 2.8199664825478975e-15
  endloop
endfacet
facet normal 0.3826834323650741 0.9238795325112933 0.0
  outer loop
    vertex 902.30233139895 674.6151417591051 2.8199664825478975e-15
    vertex 900.9758361470136 675.1645940828806 10.000000000000004
    vertex 902.30233139895 674.6151417591051 10.000000000000004
  endloop
endfacet
facet normal 0.6087614290086801 -0.7933533402912663 0.0
  outer loop
    vertex 903.4414186954758 665.9629147417646 10.000000000000004
    vertex 902.3023313989497 665.0888623174764 2.8199664825478975e-15
    vertex 903.4414186954758 665.9629147417646 2.8199664825478975e-15
  endloop
endfacet
facet normal 0.6087614290086801 -0.7933533402912663 0.0
  outer loop
    vertex 902.3023313989497 665.0888623174764 2.8199664825478975e-15
    vertex 903.4414186954758 665.9629147417646 10.000000000000004
    vertex 902.3023313989497 665.0888623174764 10.000000000000004
  endloop
endfacet
facet normal 0.7933533402911974 0.6087614290087698 0.0
  outer loop
    vertex 903.4414186954758 673.7410893348167 2.8199664825478975e-15
    vertex 904.3154711197643 672.6020020382907 10.000000000000004
    vertex 904.3154711197643 672.6020020382907 2.8199664825478975e-15
  endloop
endfacet
facet normal 0.7933533402911974 0.6087614290087698 0.0
  outer loop
    vertex 904.3154711197643 672.6020020382907 10.000000000000004
    vertex 903.4414186954758 673.7410893348167 2.8199664825478975e-15
    vertex 903.4414186954758 673.7410893348167 10.000000000000004
  endloop
endfacet
facet normal -0.6087614290087606 -0.7933533402912045 -0.0
  outer loop
    vertex 896.8023313989497 665.0888623174764 10.000000000000004
    vertex 895.6632441024238 665.9629147417647 2.8199664825478975e-15
    vertex 896.8023313989497 665.0888623174764 2.8199664825478975e-15
  endloop
endfacet
facet normal -0.6087614290087606 -0.7933533402912045 -0.0
  outer loop
    vertex 895.6632441024238 665.9629147417647 2.8199664825478975e-15
    vertex 896.8023313989497 665.0888623174764 10.000000000000004
    vertex 895.6632441024238 665.9629147417647 10.000000000000004
  endloop
endfacet
facet normal 0.6087614290087606 0.7933533402912045 0.0
  outer loop
    vertex 902.30233139895 674.6151417591051 10.000000000000004
    vertex 903.4414186954758 673.7410893348167 2.8199664825478975e-15
    vertex 902.30233139895 674.6151417591051 2.8199664825478975e-15
  endloop
endfacet
facet normal 0.6087614290087606 0.7933533402912045 0.0
  outer loop
    vertex 903.4414186954758 673.7410893348167 2.8199664825478975e-15
    vertex 902.30233139895 674.6151417591051 10.000000000000004
    vertex 903.4414186954758 673.7410893348167 10.000000000000004
  endloop
endfacet
facet normal -0.13052619222005138 -0.9914448613738106 -0.0
  outer loop
    vertex 899.5523313989498 664.3520020382907 10.000000000000004
    vertex 898.128826650886 664.5394099937008 2.8199664825478975e-15
    vertex 899.5523313989498 664.3520020382907 2.8199664825478975e-15
  endloop
endfacet
facet normal -0.13052619222005138 -0.9914448613738106 -0.0
  outer loop
    vertex 898.128826650886 664.5394099937008 2.8199664825478975e-15
    vertex 899.5523313989498 664.3520020382907 10.000000000000004
    vertex 898.128826650886 664.5394099937008 10.000000000000004
  endloop
endfacet
facet normal -0.6087614290087268 -0.7933533402912307 -0.0
  outer loop
    vertex 902.7582460515786 671.1799353672201 10.000000000000004
    vertex 900.0052647278793 673.2923722342965 8.000000000000004
    vertex 902.7582460515786 671.1799353672201 8.000000000000004
  endloop
endfacet
facet normal -0.6087614290087268 -0.7933533402912307 -0.0
  outer loop
    vertex 900.0052647278793 673.2923722342965 8.000000000000004
    vertex 902.7582460515786 671.1799353672201 10.000000000000004
    vertex 900.0052647278793 673.2923722342965 10.000000000000004
  endloop
endfacet
facet normal -0.9914448613737996 -0.13052619222013345 0.0
  outer loop
    vertex 902.9330717909615 670.7578686961496 3.0000000000000027
    vertex 903.05233139895 669.8520020382907 2.8199664825478975e-15
    vertex 903.05233139895 669.8520020382907 3.0000000000000027
  endloop
endfacet
facet normal -0.9914448613737996 -0.13052619222013345 0.0
  outer loop
    vertex 903.05233139895 669.8520020382907 2.8199664825478975e-15
    vertex 902.9330717909615 670.7578686961496 3.0000000000000027
    vertex 902.9330717909615 670.7578686961496 2.8199664825478975e-15
  endloop
endfacet
facet normal -0.38268343236511093 -0.923879532511278 0.0
  outer loop
    vertex 901.3023313989498 672.8830909515362 3.0000000000000027
    vertex 900.4581980568086 673.2327424303024 2.8199664825478975e-15
    vertex 901.3023313989498 672.8830909515362 2.8199664825478975e-15
  endloop
endfacet
facet normal -0.38268343236511093 -0.923879532511278 0.0
  outer loop
    vertex 900.4581980568086 673.2327424303024 2.8199664825478975e-15
    vertex 901.3023313989498 672.8830909515362 3.0000000000000027
    vertex 900.4581980568086 673.2327424303024 3.0000000000000027
  endloop
endfacet
facet normal -0.38268343236511093 0.923879532511278 0.0
  outer loop
    vertex 900.4581980568086 666.4712616462789 3.0000000000000027
    vertex 901.3023313989498 666.8209131250452 2.8199664825478975e-15
    vertex 900.4581980568086 666.4712616462789 2.8199664825478975e-15
  endloop
endfacet
facet normal -0.38268343236511093 0.923879532511278 0.0
  outer loop
    vertex 901.3023313989498 666.8209131250452 2.8199664825478975e-15
    vertex 900.4581980568086 666.4712616462789 3.0000000000000027
    vertex 901.3023313989498 666.8209131250452 3.0000000000000027
  endloop
endfacet
facet normal -0.1305261922200601 -0.9914448613738094 0.0
  outer loop
    vertex 896.5132536067919 669.7913204784348 3.0000000000000027
    vertex 896.0523313989497 669.8520020382907 2.8199664825478975e-15
    vertex 896.5132536067919 669.7913204784348 2.8199664825478975e-15
  endloop
endfacet
facet normal -0.1305261922200601 -0.9914448613738094 0.0
  outer loop
    vertex 896.0523313989497 669.8520020382907 2.8199664825478975e-15
    vertex 896.5132536067919 669.7913204784348 3.0000000000000027
    vertex 896.0523313989497 669.8520020382907 3.0000000000000027
  endloop
endfacet
facet normal -0.923879532511278 -0.38268343236511093 7.344376913653288e-15
  outer loop
    vertex 902.7582460515786 671.1799353672201 3.0000000000000027
    vertex 902.9330717909615 670.7578686961496 2.8199664825478975e-15
    vertex 902.9330717909615 670.7578686961496 3.0000000000000027
  endloop
endfacet
facet normal -0.923879532511278 -0.38268343236511093 7.344376913653288e-15
  outer loop
    vertex 902.9330717909615 670.7578686961496 2.8199664825478975e-15
    vertex 902.7582460515786 671.1799353672201 3.0000000000000027
    vertex 902.5834203121954 671.6020020382907 2.8199664825478975e-15
  endloop
endfacet
facet normal -0.923879532511278 -0.38268343236511093 7.344376913653288e-15
  outer loop
    vertex 902.5834203121954 671.6020020382907 2.8199664825478975e-15
    vertex 902.7582460515786 671.1799353672201 3.0000000000000027
    vertex 902.5834203121954 671.6020020382907 3.0000000000000027
  endloop
endfacet
facet normal 0.1305261922200601 0.9914448613738094 0.0
  outer loop
    vertex 896.171591006938 670.7578686961496 3.0000000000000027
    vertex 896.6325132147803 670.6971871362936 2.8199664825478975e-15
    vertex 896.171591006938 670.7578686961496 2.8199664825478975e-15
  endloop
endfacet
facet normal 0.1305261922200601 0.9914448613738094 0.0
  outer loop
    vertex 896.6325132147803 670.6971871362936 2.8199664825478975e-15
    vertex 896.171591006938 670.7578686961496 3.0000000000000027
    vertex 896.6325132147803 670.6971871362936 3.0000000000000027
  endloop
endfacet
facet normal -0.7933533402912801 -0.6087614290086621 0.0
  outer loop
    vertex 902.0272051331028 672.3268757724436 3.0000000000000027
    vertex 902.5834203121954 671.6020020382907 2.8199664825478975e-15
    vertex 902.5834203121954 671.6020020382907 3.0000000000000027
  endloop
endfacet
facet normal -0.7933533402912801 -0.6087614290086621 0.0
  outer loop
    vertex 902.5834203121954 671.6020020382907 2.8199664825478975e-15
    vertex 902.0272051331028 672.3268757724436 3.0000000000000027
    vertex 902.0272051331028 672.3268757724436 2.8199664825478975e-15
  endloop
endfacet
facet normal -0.13052619222004277 -0.9914448613738116 1.3111406073998195e-15
  outer loop
    vertex 900.4581980568086 673.2327424303024 3.0000000000000027
    vertex 899.5523313989498 673.3520020382907 2.8199664825478975e-15
    vertex 900.4581980568086 673.2327424303024 2.8199664825478975e-15
  endloop
endfacet
facet normal -0.13052619222004277 -0.9914448613738116 1.3111406073998195e-15
  outer loop
    vertex 899.5523313989498 673.3520020382907 2.8199664825478975e-15
    vertex 900.4581980568086 673.2327424303024 3.0000000000000027
    vertex 899.5523313989498 673.3520020382907 3.0000000000000027
  endloop
endfacet
facet normal -0.13052619222004277 -0.9914448613738116 1.3111406073998195e-15
  outer loop
    vertex 899.5523313989498 673.3520020382907 3.0000000000000027
    vertex 900.4581980568086 673.2327424303024 3.0000000000000027
    vertex 900.0052647278793 673.2923722342965 3.0000000000000027
  endloop
endfacet
facet normal 0.13052619222004277 -0.9914448613738116 0.0
  outer loop
    vertex 899.5523313989498 673.3520020382907 3.0000000000000027
    vertex 898.646464741091 673.2327424303024 2.8199664825478975e-15
    vertex 899.5523313989498 673.3520020382907 2.8199664825478975e-15
  endloop
endfacet
facet normal 0.13052619222004277 -0.9914448613738116 0.0
  outer loop
    vertex 898.646464741091 673.2327424303024 2.8199664825478975e-15
    vertex 899.5523313989498 673.3520020382907 3.0000000000000027
    vertex 898.646464741091 673.2327424303024 3.0000000000000027
  endloop
endfacet
facet normal -0.7933533402912801 0.608761429008662 3.0556441843316847e-15
  outer loop
    vertex 902.3053127226491 667.7395651712142 3.0000000000000027
    vertex 902.0272051331028 667.3771283041378 2.8199664825478975e-15
    vertex 902.0272051331028 667.3771283041378 3.0000000000000027
  endloop
endfacet
facet normal -0.7933533402912801 0.608761429008662 3.0556441843316847e-15
  outer loop
    vertex 902.0272051331028 667.3771283041378 2.8199664825478975e-15
    vertex 902.3053127226491 667.7395651712142 3.0000000000000027
    vertex 902.5834203121954 668.1020020382906 2.8199664825478975e-15
  endloop
endfacet
facet normal -0.7933533402912801 0.608761429008662 3.0556441843316847e-15
  outer loop
    vertex 902.5834203121954 668.1020020382906 2.8199664825478975e-15
    vertex 902.3053127226491 667.7395651712142 3.0000000000000027
    vertex 902.5834203121954 668.1020020382906 3.0000000000000027
  endloop
endfacet
facet normal 0.7933533402912802 0.608761429008662 0.0
  outer loop
    vertex 896.5212424857043 668.1020020382906 2.8199664825478975e-15
    vertex 897.0774576647968 667.3771283041378 3.0000000000000027
    vertex 897.0774576647968 667.3771283041378 2.8199664825478975e-15
  endloop
endfacet
facet normal 0.7933533402912802 0.608761429008662 0.0
  outer loop
    vertex 897.0774576647968 667.3771283041378 3.0000000000000027
    vertex 896.5212424857043 668.1020020382906 2.8199664825478975e-15
    vertex 896.5212424857043 668.1020020382906 3.0000000000000027
  endloop
endfacet
facet normal 0.9914448613737996 0.13052619222013348 0.0
  outer loop
    vertex 896.0523313989497 669.8520020382907 2.8199664825478975e-15
    vertex 896.171591006938 668.9461353804319 3.0000000000000027
    vertex 896.171591006938 668.9461353804319 2.8199664825478975e-15
  endloop
endfacet
facet normal 0.9914448613737996 0.13052619222013348 0.0
  outer loop
    vertex 896.171591006938 668.9461353804319 3.0000000000000027
    vertex 896.0523313989497 669.8520020382907 2.8199664825478975e-15
    vertex 896.0523313989497 669.8520020382907 3.0000000000000027
  endloop
endfacet
facet normal 0.923879532511278 -0.38268343236511093 0.0
  outer loop
    vertex 896.5212424857043 671.6020020382907 2.8199664825478975e-15
    vertex 896.171591006938 670.7578686961496 3.0000000000000027
    vertex 896.171591006938 670.7578686961496 2.8199664825478975e-15
  endloop
endfacet
facet normal 0.923879532511278 -0.38268343236511093 0.0
  outer loop
    vertex 896.171591006938 670.7578686961496 3.0000000000000027
    vertex 896.5212424857043 671.6020020382907 2.8199664825478975e-15
    vertex 896.5212424857043 671.6020020382907 3.0000000000000027
  endloop
endfacet
facet normal 0.6087614290087953 -0.793353340291178 0.0
  outer loop
    vertex 900.966544961323 668.4377884759176 8.000000000000002
    vertex 900.55233139895 668.1199512307218 6.000000000000003
    vertex 900.966544961323 668.4377884759176 6.000000000000003
  endloop
endfacet
facet normal 0.6087614290087953 -0.793353340291178 0.0
  outer loop
    vertex 900.55233139895 668.1199512307218 6.000000000000003
    vertex 900.966544961323 668.4377884759176 8.000000000000002
    vertex 900.55233139895 668.1199512307218 8.000000000000002
  endloop
endfacet
facet normal -0.923879532511278 0.38268343236511093 0.0
  outer loop
    vertex 902.9330717909615 668.9461353804319 3.0000000000000027
    vertex 902.5834203121954 668.1020020382906 2.8199664825478975e-15
    vertex 902.5834203121954 668.1020020382906 3.0000000000000027
  endloop
endfacet
facet normal -0.923879532511278 0.38268343236511093 0.0
  outer loop
    vertex 902.5834203121954 668.1020020382906 2.8199664825478975e-15
    vertex 902.9330717909615 668.9461353804319 3.0000000000000027
    vertex 902.9330717909615 668.9461353804319 2.8199664825478975e-15
  endloop
endfacet
facet normal -0.6087614290086455 0.793353340291293 0.0
  outer loop
    vertex 901.3023313989498 666.8209131250452 3.0000000000000027
    vertex 902.0272051331028 667.3771283041378 2.8199664825478975e-15
    vertex 901.3023313989498 666.8209131250452 2.8199664825478975e-15
  endloop
endfacet
facet normal -0.6087614290086455 0.793353340291293 0.0
  outer loop
    vertex 902.0272051331028 667.3771283041378 2.8199664825478975e-15
    vertex 901.3023313989498 666.8209131250452 3.0000000000000027
    vertex 902.0272051331028 667.3771283041378 3.0000000000000027
  endloop
endfacet
facet normal -0.38268343236506885 0.9238795325112954 0.0
  outer loop
    vertex 896.7993500752506 671.9644389053673 6.000000000000003
    vertex 900.0052647278793 673.2923722342965 3.0000000000000027
    vertex 896.7993500752506 671.9644389053673 3.0000000000000027
  endloop
endfacet
facet normal -0.38268343236506885 0.9238795325112954 0.0
  outer loop
    vertex 900.0052647278793 673.2923722342965 3.0000000000000027
    vertex 896.7993500752506 671.9644389053673 6.000000000000003
    vertex 900.0052647278793 673.2923722342965 6.000000000000003
  endloop
endfacet
facet normal 0.38268343236506885 -0.9238795325112954 0.0
  outer loop
    vertex 900.0052647278793 673.2923722342965 10.000000000000004
    vertex 896.7993500752506 671.9644389053673 8.000000000000004
    vertex 900.0052647278793 673.2923722342965 8.000000000000004
  endloop
endfacet
facet normal 0.38268343236506885 -0.9238795325112954 0.0
  outer loop
    vertex 896.7993500752506 671.9644389053673 8.000000000000004
    vertex 900.0052647278793 673.2923722342965 10.000000000000004
    vertex 896.7993500752506 671.9644389053673 10.000000000000004
  endloop
endfacet
facet normal 0.7933533402912801 -0.608761429008662 3.047758650952764e-15
  outer loop
    vertex 897.0774576647968 672.3268757724436 2.8199664825478975e-15
    vertex 896.5212424857043 671.6020020382907 3.0000000000000027
    vertex 896.5212424857043 671.6020020382907 2.8199664825478975e-15
  endloop
endfacet
facet normal 0.7933533402912801 -0.608761429008662 3.047758650952764e-15
  outer loop
    vertex 896.5212424857043 671.6020020382907 3.0000000000000027
    vertex 897.0774576647968 672.3268757724436 2.8199664825478975e-15
    vertex 896.7993500752506 671.9644389053673 3.0000000000000027
  endloop
endfacet
facet normal 0.7933533402912801 -0.608761429008662 3.047758650952764e-15
  outer loop
    vertex 896.7993500752506 671.9644389053673 3.0000000000000027
    vertex 897.0774576647968 672.3268757724436 2.8199664825478975e-15
    vertex 897.0774576647968 672.3268757724436 3.0000000000000027
  endloop
endfacet
facet normal -0.9914448613737996 0.13052619222013348 0.0
  outer loop
    vertex 903.05233139895 669.8520020382907 3.0000000000000027
    vertex 902.9330717909615 668.9461353804319 2.8199664825478975e-15
    vertex 902.9330717909615 668.9461353804319 3.0000000000000027
  endloop
endfacet
facet normal -0.9914448613737996 0.13052619222013348 0.0
  outer loop
    vertex 902.9330717909615 668.9461353804319 2.8199664825478975e-15
    vertex 903.05233139895 669.8520020382907 3.0000000000000027
    vertex 903.05233139895 669.8520020382907 2.8199664825478975e-15
  endloop
endfacet
facet normal 0.9914448613737996 -0.13052619222013348 0.0
  outer loop
    vertex 896.6325132147803 670.6971871362936 2.8199664825478975e-15
    vertex 896.5132536067919 669.7913204784348 3.0000000000000027
    vertex 896.5132536067919 669.7913204784348 2.8199664825478975e-15
  endloop
endfacet
facet normal 0.9914448613737996 -0.13052619222013348 0.0
  outer loop
    vertex 896.5132536067919 669.7913204784348 3.0000000000000027
    vertex 896.6325132147803 670.6971871362936 2.8199664825478975e-15
    vertex 896.6325132147803 670.6971871362936 3.0000000000000027
  endloop
endfacet
facet normal 0.0 0.0 1.0
  outer loop
    vertex 899.0993980700204 666.4116318422848 6.000000000000003
    vertex 896.5132536067919 669.7913204784348 6.000000000000003
    vertex 896.3464167463211 668.5240687093614 6.000000000000003
  endloop
endfacet
facet normal 0.0 0.0 1.0
  outer loop
    vertex 896.5132536067919 669.7913204784348 6.000000000000003
    vertex 899.0993980700204 666.4116318422848 6.000000000000003
    vertex 896.6325132147803 670.6971871362936 6.000000000000003
  endloop
endfacet
facet normal 0.0 0.0 1.0
  outer loop
    vertex 896.6325132147803 670.6971871362936 6.000000000000003
    vertex 899.0993980700204 666.4116318422848 6.000000000000003
    vertex 897.8202805913809 668.8520020382906 6.000000000000003
  endloop
endfacet
facet normal 0.0 0.0 1.0
  outer loop
    vertex 896.6325132147803 670.6971871362936 6.000000000000003
    vertex 897.8202805913809 668.8520020382906 6.000000000000003
    vertex 897.6204797463715 669.3343639480856 6.000000000000003
  endloop
endfacet
facet normal 0.0 0.0 1.0
  outer loop
    vertex 896.6325132147803 670.6971871362936 6.000000000000003
    vertex 897.6204797463715 669.3343639480856 6.000000000000003
    vertex 896.7993500752506 671.9644389053673 6.000000000000003
  endloop
endfacet
facet normal 0.0 0.0 1.0
  outer loop
    vertex 896.7993500752506 671.9644389053673 6.000000000000003
    vertex 897.6204797463715 669.3343639480856 6.000000000000003
    vertex 897.5523313989497 669.8520020382907 6.000000000000003
  endloop
endfacet
facet normal 0.0 0.0 1.0
  outer loop
    vertex 897.8202805913809 668.8520020382906 6.000000000000003
    vertex 899.0993980700204 666.4116318422848 6.000000000000003
    vertex 898.1381178365766 668.4377884759176 6.000000000000003
  endloop
endfacet
facet normal 0.0 0.0 1.0
  outer loop
    vertex 898.1381178365766 668.4377884759176 6.000000000000003
    vertex 899.0993980700204 666.4116318422848 6.000000000000003
    vertex 898.5523313989498 668.1199512307218 6.000000000000003
  endloop
endfacet
facet normal 0.0 0.0 1.0
  outer loop
    vertex 898.5523313989498 668.1199512307218 6.000000000000003
    vertex 899.0993980700204 666.4116318422848 6.000000000000003
    vertex 899.0346933087447 667.9201503857125 6.000000000000003
  endloop
endfacet
facet normal 0.0 0.0 1.0
  outer loop
    vertex 899.0346933087447 667.9201503857125 6.000000000000003
    vertex 899.0993980700204 666.4116318422848 6.000000000000003
    vertex 899.5523313989498 667.8520020382906 6.000000000000003
  endloop
endfacet
facet normal 0.0 0.0 1.0
  outer loop
    vertex 899.5523313989498 667.8520020382906 6.000000000000003
    vertex 899.0993980700204 666.4116318422848 6.000000000000003
    vertex 902.3053127226491 667.7395651712142 6.000000000000003
  endloop
endfacet
facet normal 0.0 0.0 1.0
  outer loop
    vertex 899.5523313989498 667.8520020382906 6.000000000000003
    vertex 902.3053127226491 667.7395651712142 6.000000000000003
    vertex 900.0699694891549 667.9201503857125 6.000000000000003
  endloop
endfacet
facet normal 0.0 0.0 1.0
  outer loop
    vertex 900.0699694891549 667.9201503857125 6.000000000000003
    vertex 902.3053127226491 667.7395651712142 6.000000000000003
    vertex 900.55233139895 668.1199512307218 6.000000000000003
  endloop
endfacet
facet normal 0.0 0.0 1.0
  outer loop
    vertex 900.55233139895 668.1199512307218 6.000000000000003
    vertex 902.3053127226491 667.7395651712142 6.000000000000003
    vertex 900.966544961323 668.4377884759176 6.000000000000003
  endloop
endfacet
facet normal 0.0 0.0 1.0
  outer loop
    vertex 900.966544961323 668.4377884759176 6.000000000000003
    vertex 902.3053127226491 667.7395651712142 6.000000000000003
    vertex 901.2843822065188 668.8520020382906 6.000000000000003
  endloop
endfacet
facet normal 0.0 0.0 1.0
  outer loop
    vertex 901.2843822065188 668.8520020382906 6.000000000000003
    vertex 902.3053127226491 667.7395651712142 6.000000000000003
    vertex 901.4841830515281 669.3343639480856 6.000000000000003
  endloop
endfacet
facet normal 0.0 0.0 1.0
  outer loop
    vertex 901.4841830515281 669.3343639480856 6.000000000000003
    vertex 902.3053127226491 667.7395651712142 6.000000000000003
    vertex 901.55233139895 669.8520020382907 6.000000000000003
  endloop
endfacet
facet normal 0.0 0.0 1.0
  outer loop
    vertex 896.7993500752506 671.9644389053673 6.000000000000003
    vertex 898.1381178365766 671.2662156006638 6.000000000000003
    vertex 900.0052647278793 673.2923722342965 6.000000000000003
  endloop
endfacet
facet normal 0.0 0.0 1.0
  outer loop
    vertex 898.1381178365766 671.2662156006638 6.000000000000003
    vertex 896.7993500752506 671.9644389053673 6.000000000000003
    vertex 897.8202805913809 670.8520020382907 6.000000000000003
  endloop
endfacet
facet normal 0.0 0.0 1.0
  outer loop
    vertex 897.8202805913809 670.8520020382907 6.000000000000003
    vertex 896.7993500752506 671.9644389053673 6.000000000000003
    vertex 897.6204797463715 670.3696401284958 6.000000000000003
  endloop
endfacet
facet normal 0.0 0.0 1.0
  outer loop
    vertex 897.6204797463715 670.3696401284958 6.000000000000003
    vertex 896.7993500752506 671.9644389053673 6.000000000000003
    vertex 897.5523313989497 669.8520020382907 6.000000000000003
  endloop
endfacet
facet normal 0.0 0.0 1.0
  outer loop
    vertex 900.0052647278793 673.2923722342965 6.000000000000003
    vertex 898.1381178365766 671.2662156006638 6.000000000000003
    vertex 898.5523313989497 671.5840528458597 6.000000000000003
  endloop
endfacet
facet normal 0.0 0.0 1.0
  outer loop
    vertex 900.0052647278793 673.2923722342965 6.000000000000003
    vertex 898.5523313989497 671.5840528458597 6.000000000000003
    vertex 899.0346933087447 671.7838536908689 6.000000000000003
  endloop
endfacet
facet normal 0.0 0.0 1.0
  outer loop
    vertex 900.0052647278793 673.2923722342965 6.000000000000003
    vertex 899.0346933087447 671.7838536908689 6.000000000000003
    vertex 899.5523313989498 671.8520020382908 6.000000000000003
  endloop
endfacet
facet normal 0.0 0.0 1.0
  outer loop
    vertex 900.0052647278793 673.2923722342965 6.000000000000003
    vertex 899.5523313989498 671.8520020382908 6.000000000000003
    vertex 900.0699694891549 671.7838536908689 6.000000000000003
  endloop
endfacet
facet normal 0.0 0.0 1.0
  outer loop
    vertex 900.0052647278793 673.2923722342965 6.000000000000003
    vertex 900.0699694891549 671.7838536908689 6.000000000000003
    vertex 902.7582460515786 671.1799353672201 6.000000000000003
  endloop
endfacet
facet normal 0.0 0.0 1.0
  outer loop
    vertex 902.7582460515786 671.1799353672201 6.000000000000003
    vertex 900.0699694891549 671.7838536908689 6.000000000000003
    vertex 900.5523313989498 671.5840528458597 6.000000000000003
  endloop
endfacet
facet normal 0.0 0.0 1.0
  outer loop
    vertex 902.7582460515786 671.1799353672201 6.000000000000003
    vertex 900.5523313989498 671.5840528458597 6.000000000000003
    vertex 900.966544961323 671.2662156006638 6.000000000000003
  endloop
endfacet
facet normal 0.0 0.0 1.0
  outer loop
    vertex 902.7582460515786 671.1799353672201 6.000000000000003
    vertex 900.966544961323 671.2662156006638 6.000000000000003
    vertex 901.2843822065188 670.8520020382907 6.000000000000003
  endloop
endfacet
facet normal 0.0 0.0 1.0
  outer loop
    vertex 902.7582460515786 671.1799353672201 6.000000000000003
    vertex 901.2843822065188 670.8520020382907 6.000000000000003
    vertex 901.4841830515281 670.3696401284958 6.000000000000003
  endloop
endfacet
facet normal 0.0 0.0 1.0
  outer loop
    vertex 902.7582460515786 671.1799353672201 6.000000000000003
    vertex 901.4841830515281 670.3696401284958 6.000000000000003
    vertex 901.55233139895 669.8520020382907 6.000000000000003
  endloop
endfacet
facet normal 0.0 0.0 1.0
  outer loop
    vertex 902.7582460515786 671.1799353672201 6.000000000000003
    vertex 901.55233139895 669.8520020382907 6.000000000000003
    vertex 902.3053127226491 667.7395651712142 6.000000000000003
  endloop
endfacet
facet normal -0.38268343236506885 0.9238795325112954 0.0
  outer loop
    vertex 899.0993980700204 666.4116318422848 10.000000000000004
    vertex 902.3053127226491 667.7395651712142 8.000000000000004
    vertex 899.0993980700204 666.4116318422848 8.000000000000004
  endloop
endfacet
facet normal -0.38268343236506885 0.9238795325112954 0.0
  outer loop
    vertex 902.3053127226491 667.7395651712142 8.000000000000004
    vertex 899.0993980700204 666.4116318422848 10.000000000000004
    vertex 902.3053127226491 667.7395651712142 10.000000000000004
  endloop
endfacet
facet normal 0.6087614290086455 -0.793353340291293 0.0
  outer loop
    vertex 897.8023313989498 672.8830909515362 3.0000000000000027
    vertex 897.0774576647968 672.3268757724436 2.8199664825478975e-15
    vertex 897.8023313989498 672.8830909515362 2.8199664825478975e-15
  endloop
endfacet
facet normal 0.6087614290086455 -0.793353340291293 0.0
  outer loop
    vertex 897.0774576647968 672.3268757724436 2.8199664825478975e-15
    vertex 897.8023313989498 672.8830909515362 3.0000000000000027
    vertex 897.0774576647968 672.3268757724436 3.0000000000000027
  endloop
endfacet
facet normal 0.38268343236511093 -0.923879532511278 0.0
  outer loop
    vertex 898.646464741091 673.2327424303024 3.0000000000000027
    vertex 897.8023313989498 672.8830909515362 2.8199664825478975e-15
    vertex 898.646464741091 673.2327424303024 2.8199664825478975e-15
  endloop
endfacet
facet normal 0.38268343236511093 -0.923879532511278 0.0
  outer loop
    vertex 897.8023313989498 672.8830909515362 2.8199664825478975e-15
    vertex 898.646464741091 673.2327424303024 3.0000000000000027
    vertex 897.8023313989498 672.8830909515362 3.0000000000000027
  endloop
endfacet
facet normal 0.923879532511278 0.38268343236511093 7.344376913653288e-15
  outer loop
    vertex 896.171591006938 668.9461353804319 2.8199664825478975e-15
    vertex 896.5212424857043 668.1020020382906 3.0000000000000027
    vertex 896.5212424857043 668.1020020382906 2.8199664825478975e-15
  endloop
endfacet
facet normal 0.923879532511278 0.38268343236511093 7.344376913653288e-15
  outer loop
    vertex 896.5212424857043 668.1020020382906 3.0000000000000027
    vertex 896.171591006938 668.9461353804319 2.8199664825478975e-15
    vertex 896.3464167463211 668.5240687093614 3.0000000000000027
  endloop
endfacet
facet normal 0.923879532511278 0.38268343236511093 7.344376913653288e-15
  outer loop
    vertex 896.3464167463211 668.5240687093614 3.0000000000000027
    vertex 896.171591006938 668.9461353804319 2.8199664825478975e-15
    vertex 896.171591006938 668.9461353804319 3.0000000000000027
  endloop
endfacet
facet normal 0.6087614290086455 0.793353340291293 0.0
  outer loop
    vertex 897.0774576647968 667.3771283041378 3.0000000000000027
    vertex 897.8023313989498 666.8209131250452 2.8199664825478975e-15
    vertex 897.0774576647968 667.3771283041378 2.8199664825478975e-15
  endloop
endfacet
facet normal 0.6087614290086455 0.793353340291293 0.0
  outer loop
    vertex 897.8023313989498 666.8209131250452 2.8199664825478975e-15
    vertex 897.0774576647968 667.3771283041378 3.0000000000000027
    vertex 897.8023313989498 666.8209131250452 3.0000000000000027
  endloop
endfacet
facet normal -0.9238795325113175 0.3826834323650159 0.0
  outer loop
    vertex 894.7891916781354 672.6020020382907 10.000000000000004
    vertex 894.2397393543599 671.2755067863545 2.8199664825478975e-15
    vertex 894.2397393543599 671.2755067863545 10.000000000000004
  endloop
endfacet
facet normal -0.9238795325113175 0.3826834323650159 0.0
  outer loop
    vertex 894.2397393543599 671.2755067863545 2.8199664825478975e-15
    vertex 894.7891916781354 672.6020020382907 10.000000000000004
    vertex 894.7891916781354 672.6020020382907 2.8199664825478975e-15
  endloop
endfacet
facet normal 0.382683432365111 0.923879532511278 0.0
  outer loop
    vertex 897.8023313989498 666.8209131250452 3.0000000000000027
    vertex 898.646464741091 666.4712616462789 2.8199664825478975e-15
    vertex 897.8023313989498 666.8209131250452 2.8199664825478975e-15
  endloop
endfacet
facet normal 0.382683432365111 0.923879532511278 0.0
  outer loop
    vertex 898.646464741091 666.4712616462789 2.8199664825478975e-15
    vertex 897.8023313989498 666.8209131250452 3.0000000000000027
    vertex 898.646464741091 666.4712616462789 3.0000000000000027
  endloop
endfacet
facet normal 0.1305261922200428 0.9914448613738116 1.3086471870795162e-15
  outer loop
    vertex 898.646464741091 666.4712616462789 3.0000000000000027
    vertex 899.5523313989498 666.3520020382907 2.8199664825478975e-15
    vertex 898.646464741091 666.4712616462789 2.8199664825478975e-15
  endloop
endfacet
facet normal 0.1305261922200428 0.9914448613738116 1.3086471870795162e-15
  outer loop
    vertex 899.5523313989498 666.3520020382907 2.8199664825478975e-15
    vertex 898.646464741091 666.4712616462789 3.0000000000000027
    vertex 899.5523313989498 666.3520020382907 3.0000000000000027
  endloop
endfacet
facet normal 0.1305261922200428 0.9914448613738116 1.3086471870795162e-15
  outer loop
    vertex 899.5523313989498 666.3520020382907 3.0000000000000027
    vertex 898.646464741091 666.4712616462789 3.0000000000000027
    vertex 899.0993980700204 666.4116318422848 3.0000000000000027
  endloop
endfacet
facet normal -0.9914448613738082 0.13052619222007011 0.0
  outer loop
    vertex 902.7582460515786 671.1799353672201 10.000000000000004
    vertex 902.3053127226491 667.7395651712142 8.000000000000004
    vertex 902.3053127226491 667.7395651712142 10.000000000000004
  endloop
endfacet
facet normal -0.9914448613738082 0.13052619222007011 0.0
  outer loop
    vertex 902.3053127226491 667.7395651712142 8.000000000000004
    vertex 902.7582460515786 671.1799353672201 10.000000000000004
    vertex 902.7582460515786 671.1799353672201 8.000000000000004
  endloop
endfacet
facet normal -0.13052619222004277 0.9914448613738116 0.0
  outer loop
    vertex 899.5523313989498 666.3520020382907 3.0000000000000027
    vertex 900.4581980568086 666.4712616462789 2.8199664825478975e-15
    vertex 899.5523313989498 666.3520020382907 2.8199664825478975e-15
  endloop
endfacet
facet normal -0.13052619222004277 0.9914448613738116 0.0
  outer loop
    vertex 900.4581980568086 666.4712616462789 2.8199664825478975e-15
    vertex 899.5523313989498 666.3520020382907 3.0000000000000027
    vertex 900.4581980568086 666.4712616462789 3.0000000000000027
  endloop
endfacet
facet normal -0.7933533402911974 0.6087614290087698 0.0
  outer loop
    vertex 895.6632441024238 673.7410893348167 10.000000000000004
    vertex 894.7891916781354 672.6020020382907 2.8199664825478975e-15
    vertex 894.7891916781354 672.6020020382907 10.000000000000004
  endloop
endfacet
facet normal -0.7933533402911974 0.6087614290087698 0.0
  outer loop
    vertex 894.7891916781354 672.6020020382907 2.8199664825478975e-15
    vertex 895.6632441024238 673.7410893348167 10.000000000000004
    vertex 895.6632441024238 673.7410893348167 2.8199664825478975e-15
  endloop
endfacet
facet normal -0.6087614290086999 0.793353340291251 0.0
  outer loop
    vertex 895.6632441024238 673.7410893348167 10.000000000000004
    vertex 896.80233139895 674.6151417591051 2.8199664825478975e-15
    vertex 895.6632441024238 673.7410893348167 2.8199664825478975e-15
  endloop
endfacet
facet normal -0.6087614290086999 0.793353340291251 0.0
  outer loop
    vertex 896.80233139895 674.6151417591051 2.8199664825478975e-15
    vertex 895.6632441024238 673.7410893348167 10.000000000000004
    vertex 896.80233139895 674.6151417591051 10.000000000000004
  endloop
endfacet
facet normal -0.6087614290086455 -0.793353340291293 0.0
  outer loop
    vertex 902.0272051331028 672.3268757724436 3.0000000000000027
    vertex 901.3023313989498 672.8830909515362 2.8199664825478975e-15
    vertex 902.0272051331028 672.3268757724436 2.8199664825478975e-15
  endloop
endfacet
facet normal -0.6087614290086455 -0.793353340291293 0.0
  outer loop
    vertex 901.3023313989498 672.8830909515362 2.8199664825478975e-15
    vertex 902.0272051331028 672.3268757724436 3.0000000000000027
    vertex 901.3023313989498 672.8830909515362 3.0000000000000027
  endloop
endfacet
facet normal -0.1305261922200664 -0.9914448613738085 -0.0
  outer loop
    vertex 899.5523313989498 667.8520020382906 8.000000000000002
    vertex 899.0346933087447 667.9201503857125 6.000000000000003
    vertex 899.5523313989498 667.8520020382906 6.000000000000003
  endloop
endfacet
facet normal -0.1305261922200664 -0.9914448613738085 -0.0
  outer loop
    vertex 899.0346933087447 667.9201503857125 6.000000000000003
    vertex 899.5523313989498 667.8520020382906 8.000000000000002
    vertex 899.0346933087447 667.9201503857125 8.000000000000002
  endloop
endfacet
facet normal 0.9238795325112642 0.3826834323651444 0.0
  outer loop
    vertex 901.2843822065188 670.8520020382907 6.000000000000003
    vertex 901.4841830515281 670.3696401284958 8.000000000000002
    vertex 901.4841830515281 670.3696401284958 6.000000000000003
  endloop
endfacet
facet normal 0.9238795325112642 0.3826834323651444 0.0
  outer loop
    vertex 901.4841830515281 670.3696401284958 8.000000000000002
    vertex 901.2843822065188 670.8520020382907 6.000000000000003
    vertex 901.2843822065188 670.8520020382907 8.000000000000002
  endloop
endfacet
facet normal 0.9238795325112642 -0.3826834323651444 0.0
  outer loop
    vertex 901.4841830515281 669.3343639480856 6.000000000000003
    vertex 901.2843822065188 668.8520020382906 8.000000000000002
    vertex 901.2843822065188 668.8520020382906 6.000000000000003
  endloop
endfacet
facet normal 0.9238795325112642 -0.3826834323651444 0.0
  outer loop
    vertex 901.2843822065188 668.8520020382906 8.000000000000002
    vertex 901.4841830515281 669.3343639480856 6.000000000000003
    vertex 901.4841830515281 669.3343639480856 8.000000000000002
  endloop
endfacet
facet normal 0.38268343236506885 -0.9238795325112954 0.0
  outer loop
    vertex 902.3053127226491 667.7395651712142 6.000000000000003
    vertex 899.0993980700204 666.4116318422848 3.0000000000000027
    vertex 902.3053127226491 667.7395651712142 3.0000000000000027
  endloop
endfacet
facet normal 0.38268343236506885 -0.9238795325112954 0.0
  outer loop
    vertex 899.0993980700204 666.4116318422848 3.0000000000000027
    vertex 902.3053127226491 667.7395651712142 6.000000000000003
    vertex 899.0993980700204 666.4116318422848 6.000000000000003
  endloop
endfacet
facet normal -0.9914448613738075 0.1305261922200742 3.734739823941577e-30
  outer loop
    vertex 896.5132536067919 669.7913204784348 6.000000000000003
    vertex 896.3464167463211 668.5240687093614 3.0000000000000027
    vertex 896.3464167463211 668.5240687093614 6.000000000000003
  endloop
endfacet
facet normal -0.9914448613738075 0.1305261922200742 3.734739823941577e-30
  outer loop
    vertex 896.3464167463211 668.5240687093614 3.0000000000000027
    vertex 896.5132536067919 669.7913204784348 6.000000000000003
    vertex 896.5132536067919 669.7913204784348 3.0000000000000027
  endloop
endfacet
facet normal -0.9914448613738075 0.1305261922200742 3.734739823941577e-30
  outer loop
    vertex 896.5132536067919 669.7913204784348 3.0000000000000027
    vertex 896.5132536067919 669.7913204784348 6.000000000000003
    vertex 896.6325132147803 670.6971871362936 6.000000000000003
  endloop
endfacet
facet normal -0.9914448613738075 0.1305261922200742 3.734739823941577e-30
  outer loop
    vertex 896.5132536067919 669.7913204784348 3.0000000000000027
    vertex 896.6325132147803 670.6971871362936 6.000000000000003
    vertex 896.6325132147803 670.6971871362936 3.0000000000000027
  endloop
endfacet
facet normal -0.9914448613738075 0.1305261922200742 3.734739823941577e-30
  outer loop
    vertex 896.6325132147803 670.6971871362936 3.0000000000000027
    vertex 896.6325132147803 670.6971871362936 6.000000000000003
    vertex 896.7993500752506 671.9644389053673 6.000000000000003
  endloop
endfacet
facet normal -0.9914448613738075 0.1305261922200742 3.734739823941577e-30
  outer loop
    vertex 896.6325132147803 670.6971871362936 3.0000000000000027
    vertex 896.7993500752506 671.9644389053673 6.000000000000003
    vertex 896.7993500752506 671.9644389053673 3.0000000000000027
  endloop
endfacet
facet normal 0.9914448613738197 -0.13052619221998144 0.0
  outer loop
    vertex 901.55233139895 669.8520020382907 6.000000000000003
    vertex 901.4841830515281 669.3343639480856 8.000000000000002
    vertex 901.4841830515281 669.3343639480856 6.000000000000003
  endloop
endfacet
facet normal 0.9914448613738197 -0.13052619221998144 0.0
  outer loop
    vertex 901.4841830515281 669.3343639480856 8.000000000000002
    vertex 901.55233139895 669.8520020382907 6.000000000000003
    vertex 901.55233139895 669.8520020382907 8.000000000000002
  endloop
endfacet
facet normal 0.1305261922200664 -0.9914448613738085 0.0
  outer loop
    vertex 900.0699694891549 667.9201503857125 8.000000000000002
    vertex 899.5523313989498 667.8520020382906 6.000000000000003
    vertex 900.0699694891549 667.9201503857125 6.000000000000003
  endloop
endfacet
facet normal 0.1305261922200664 -0.9914448613738085 0.0
  outer loop
    vertex 899.5523313989498 667.8520020382906 6.000000000000003
    vertex 900.0699694891549 667.9201503857125 8.000000000000002
    vertex 899.5523313989498 667.8520020382906 8.000000000000002
  endloop
endfacet
facet normal 0.7933533402912518 -0.6087614290086991 0.0
  outer loop
    vertex 901.2843822065188 668.8520020382906 6.000000000000003
    vertex 900.966544961323 668.4377884759176 8.000000000000002
    vertex 900.966544961323 668.4377884759176 6.000000000000003
  endloop
endfacet
facet normal 0.7933533402912518 -0.6087614290086991 0.0
  outer loop
    vertex 900.966544961323 668.4377884759176 8.000000000000002
    vertex 901.2843822065188 668.8520020382906 6.000000000000003
    vertex 901.2843822065188 668.8520020382906 8.000000000000002
  endloop
endfacet
facet normal -0.6087614290087268 -0.7933533402912307 -0.0
  outer loop
    vertex 899.0993980700204 666.4116318422848 6.000000000000003
    vertex 896.3464167463211 668.5240687093614 3.0000000000000027
    vertex 899.0993980700204 666.4116318422848 3.0000000000000027
  endloop
endfacet
facet normal -0.6087614290087268 -0.7933533402912307 -0.0
  outer loop
    vertex 896.3464167463211 668.5240687093614 3.0000000000000027
    vertex 899.0993980700204 666.4116318422848 6.000000000000003
    vertex 896.3464167463211 668.5240687093614 6.000000000000003
  endloop
endfacet
facet normal 0.9914448613738082 -0.13052619222007011 0.0
  outer loop
    vertex 902.7582460515786 671.1799353672201 3.0000000000000027
    vertex 902.3053127226491 667.7395651712142 6.000000000000003
    vertex 902.3053127226491 667.7395651712142 3.0000000000000027
  endloop
endfacet
facet normal 0.9914448613738082 -0.13052619222007011 0.0
  outer loop
    vertex 902.3053127226491 667.7395651712142 6.000000000000003
    vertex 902.7582460515786 671.1799353672201 3.0000000000000027
    vertex 902.7582460515786 671.1799353672201 6.000000000000003
  endloop
endfacet
facet normal 0.38268343236500957 -0.9238795325113202 0.0
  outer loop
    vertex 900.55233139895 668.1199512307218 8.000000000000002
    vertex 900.0699694891549 667.9201503857125 6.000000000000003
    vertex 900.55233139895 668.1199512307218 6.000000000000003
  endloop
endfacet
facet normal 0.38268343236500957 -0.9238795325113202 0.0
  outer loop
    vertex 900.0699694891549 667.9201503857125 6.000000000000003
    vertex 900.55233139895 668.1199512307218 8.000000000000002
    vertex 900.0699694891549 667.9201503857125 8.000000000000002
  endloop
endfacet
facet normal 0.9914448613738197 0.13052619221998144 0.0
  outer loop
    vertex 901.4841830515281 670.3696401284958 6.000000000000003
    vertex 901.55233139895 669.8520020382907 8.000000000000002
    vertex 901.55233139895 669.8520020382907 6.000000000000003
  endloop
endfacet
facet normal 0.9914448613738197 0.13052619221998144 0.0
  outer loop
    vertex 901.55233139895 669.8520020382907 8.000000000000002
    vertex 901.4841830515281 670.3696401284958 6.000000000000003
    vertex 901.4841830515281 670.3696401284958 8.000000000000002
  endloop
endfacet
facet normal 0.6087614290087268 0.7933533402912307 0.0
  outer loop
    vertex 900.0052647278793 673.2923722342965 6.000000000000003
    vertex 902.7582460515786 671.1799353672201 3.0000000000000027
    vertex 900.0052647278793 673.2923722342965 3.0000000000000027
  endloop
endfacet
facet normal 0.6087614290087268 0.7933533402912307 0.0
  outer loop
    vertex 902.7582460515786 671.1799353672201 3.0000000000000027
    vertex 900.0052647278793 673.2923722342965 6.000000000000003
    vertex 902.7582460515786 671.1799353672201 6.000000000000003
  endloop
endfacet
facet normal 0.0 0.0 1.0
  outer loop
    vertex 894.2397393543599 668.4284972902269 10.000000000000004
    vertex 894.2397393543599 671.2755067863545 10.000000000000004
    vertex 894.0523313989498 669.8520020382907 10.000000000000004
  endloop
endfacet
facet normal 0.0 0.0 1.0
  outer loop
    vertex 894.2397393543599 671.2755067863545 10.000000000000004
    vertex 894.2397393543599 668.4284972902269 10.000000000000004
    vertex 894.7891916781354 667.1020020382907 10.000000000000004
  endloop
endfacet
facet normal 0.0 0.0 1.0
  outer loop
    vertex 894.2397393543599 671.2755067863545 10.000000000000004
    vertex 894.7891916781354 667.1020020382907 10.000000000000004
    vertex 894.7891916781354 672.6020020382907 10.000000000000004
  endloop
endfacet
facet normal 0.0 0.0 1.0
  outer loop
    vertex 894.7891916781354 672.6020020382907 10.000000000000004
    vertex 894.7891916781354 667.1020020382907 10.000000000000004
    vertex 895.6632441024238 665.9629147417647 10.000000000000004
  endloop
endfacet
facet normal 0.0 0.0 1.0
  outer loop
    vertex 894.7891916781354 672.6020020382907 10.000000000000004
    vertex 895.6632441024238 665.9629147417647 10.000000000000004
    vertex 895.6632441024238 673.7410893348167 10.000000000000004
  endloop
endfacet
facet normal 0.0 0.0 1.0
  outer loop
    vertex 895.6632441024238 673.7410893348167 10.000000000000004
    vertex 895.6632441024238 665.9629147417647 10.000000000000004
    vertex 896.3464167463211 668.5240687093614 10.000000000000004
  endloop
endfacet
facet normal 0.0 0.0 1.0
  outer loop
    vertex 896.3464167463211 668.5240687093614 10.000000000000004
    vertex 895.6632441024238 665.9629147417647 10.000000000000004
    vertex 896.8023313989497 665.0888623174764 10.000000000000004
  endloop
endfacet
facet normal 0.0 0.0 1.0
  outer loop
    vertex 896.3464167463211 668.5240687093614 10.000000000000004
    vertex 896.8023313989497 665.0888623174764 10.000000000000004
    vertex 899.0993980700204 666.4116318422848 10.000000000000004
  endloop
endfacet
facet normal 0.0 0.0 1.0
  outer loop
    vertex 899.0993980700204 666.4116318422848 10.000000000000004
    vertex 896.8023313989497 665.0888623174764 10.000000000000004
    vertex 898.128826650886 664.5394099937008 10.000000000000004
  endloop
endfacet
facet normal 0.0 0.0 1.0
  outer loop
    vertex 899.0993980700204 666.4116318422848 10.000000000000004
    vertex 898.128826650886 664.5394099937008 10.000000000000004
    vertex 899.5523313989498 664.3520020382907 10.000000000000004
  endloop
endfacet
facet normal 0.0 0.0 1.0
  outer loop
    vertex 899.0993980700204 666.4116318422848 10.000000000000004
    vertex 899.5523313989498 664.3520020382907 10.000000000000004
    vertex 902.3053127226491 667.7395651712142 10.000000000000004
  endloop
endfacet
facet normal 0.0 0.0 1.0
  outer loop
    vertex 902.3053127226491 667.7395651712142 10.000000000000004
    vertex 899.5523313989498 664.3520020382907 10.000000000000004
    vertex 900.9758361470136 664.5394099937008 10.000000000000004
  endloop
endfacet
facet normal 0.0 0.0 1.0
  outer loop
    vertex 902.3053127226491 667.7395651712142 10.000000000000004
    vertex 900.9758361470136 664.5394099937008 10.000000000000004
    vertex 902.3023313989497 665.0888623174764 10.000000000000004
  endloop
endfacet
facet normal 0.0 0.0 1.0
  outer loop
    vertex 902.3053127226491 667.7395651712142 10.000000000000004
    vertex 902.3023313989497 665.0888623174764 10.000000000000004
    vertex 903.4414186954758 665.9629147417646 10.000000000000004
  endloop
endfacet
facet normal 0.0 0.0 1.0
  outer loop
    vertex 902.3053127226491 667.7395651712142 10.000000000000004
    vertex 903.4414186954758 665.9629147417646 10.000000000000004
    vertex 902.7582460515786 671.1799353672201 10.000000000000004
  endloop
endfacet
facet normal 0.0 0.0 1.0
  outer loop
    vertex 896.3464167463211 668.5240687093614 10.000000000000004
    vertex 896.80233139895 674.6151417591051 10.000000000000004
    vertex 895.6632441024238 673.7410893348167 10.000000000000004
  endloop
endfacet
facet normal 0.0 0.0 1.0
  outer loop
    vertex 896.80233139895 674.6151417591051 10.000000000000004
    vertex 896.3464167463211 668.5240687093614 10.000000000000004
    vertex 896.5132536067919 669.7913204784348 10.000000000000004
  endloop
endfacet
facet normal 0.0 0.0 1.0
  outer loop
    vertex 896.80233139895 674.6151417591051 10.000000000000004
    vertex 896.5132536067919 669.7913204784348 10.000000000000004
    vertex 896.6325132147803 670.6971871362936 10.000000000000004
  endloop
endfacet
facet normal 0.0 0.0 1.0
  outer loop
    vertex 896.80233139895 674.6151417591051 10.000000000000004
    vertex 896.6325132147803 670.6971871362936 10.000000000000004
    vertex 896.7993500752506 671.9644389053673 10.000000000000004
  endloop
endfacet
facet normal 0.0 0.0 1.0
  outer loop
    vertex 896.80233139895 674.6151417591051 10.000000000000004
    vertex 896.7993500752506 671.9644389053673 10.000000000000004
    vertex 900.0052647278793 673.2923722342965 10.000000000000004
  endloop
endfacet
facet normal 0.0 0.0 1.0
  outer loop
    vertex 896.80233139895 674.6151417591051 10.000000000000004
    vertex 900.0052647278793 673.2923722342965 10.000000000000004
    vertex 898.128826650886 675.1645940828806 10.000000000000004
  endloop
endfacet
facet normal 0.0 0.0 1.0
  outer loop
    vertex 898.128826650886 675.1645940828806 10.000000000000004
    vertex 900.0052647278793 673.2923722342965 10.000000000000004
    vertex 899.5523313989498 675.3520020382907 10.000000000000004
  endloop
endfacet
facet normal 0.0 0.0 1.0
  outer loop
    vertex 899.5523313989498 675.3520020382907 10.000000000000004
    vertex 900.0052647278793 673.2923722342965 10.000000000000004
    vertex 900.9758361470136 675.1645940828806 10.000000000000004
  endloop
endfacet
facet normal 0.0 0.0 1.0
  outer loop
    vertex 900.9758361470136 675.1645940828806 10.000000000000004
    vertex 900.0052647278793 673.2923722342965 10.000000000000004
    vertex 902.7582460515786 671.1799353672201 10.000000000000004
  endloop
endfacet
facet normal 0.0 0.0 1.0
  outer loop
    vertex 900.9758361470136 675.1645940828806 10.000000000000004
    vertex 902.7582460515786 671.1799353672201 10.000000000000004
    vertex 902.30233139895 674.6151417591051 10.000000000000004
  endloop
endfacet
facet normal 0.0 0.0 1.0
  outer loop
    vertex 902.30233139895 674.6151417591051 10.000000000000004
    vertex 902.7582460515786 671.1799353672201 10.000000000000004
    vertex 903.4414186954758 673.7410893348167 10.000000000000004
  endloop
endfacet
facet normal 0.0 0.0 1.0
  outer loop
    vertex 903.4414186954758 673.7410893348167 10.000000000000004
    vertex 902.7582460515786 671.1799353672201 10.000000000000004
    vertex 903.4414186954758 665.9629147417646 10.000000000000004
  endloop
endfacet
facet normal 0.0 0.0 1.0
  outer loop
    vertex 903.4414186954758 673.7410893348167 10.000000000000004
    vertex 903.4414186954758 665.9629147417646 10.000000000000004
    vertex 904.3154711197643 667.1020020382907 10.000000000000004
  endloop
endfacet
facet normal 0.0 0.0 1.0
  outer loop
    vertex 903.4414186954758 673.7410893348167 10.000000000000004
    vertex 904.3154711197643 667.1020020382907 10.000000000000004
    vertex 904.3154711197643 672.6020020382907 10.000000000000004
  endloop
endfacet
facet normal 0.0 0.0 1.0
  outer loop
    vertex 904.3154711197643 672.6020020382907 10.000000000000004
    vertex 904.3154711197643 667.1020020382907 10.000000000000004
    vertex 904.8649234435396 668.4284972902268 10.000000000000004
  endloop
endfacet
facet normal 0.0 0.0 1.0
  outer loop
    vertex 904.3154711197643 672.6020020382907 10.000000000000004
    vertex 904.8649234435396 668.4284972902268 10.000000000000004
    vertex 904.8649234435396 671.2755067863545 10.000000000000004
  endloop
endfacet
facet normal 0.0 0.0 1.0
  outer loop
    vertex 904.8649234435396 671.2755067863545 10.000000000000004
    vertex 904.8649234435396 668.4284972902268 10.000000000000004
    vertex 905.0523313989498 669.8520020382907 10.000000000000004
  endloop
endfacet
facet normal 0.0 0.0 -1.0
  outer loop
    vertex 894.2397393543599 671.2755067863545 2.8199664825478975e-15
    vertex 894.2397393543599 668.4284972902269 2.8199664825478975e-15
    vertex 894.0523313989498 669.8520020382907 2.8199664825478975e-15
  endloop
endfacet
facet normal 0.0 0.0 -1.0
  outer loop
    vertex 894.2397393543599 668.4284972902269 2.8199664825478975e-15
    vertex 894.2397393543599 671.2755067863545 2.8199664825478975e-15
    vertex 894.7891916781354 672.6020020382907 2.8199664825478975e-15
  endloop
endfacet
facet normal 0.0 0.0 -1.0
  outer loop
    vertex 894.2397393543599 668.4284972902269 2.8199664825478975e-15
    vertex 894.7891916781354 672.6020020382907 2.8199664825478975e-15
    vertex 894.7891916781354 667.1020020382907 2.8199664825478975e-15
  endloop
endfacet
facet normal 0.0 0.0 -1.0
  outer loop
    vertex 894.7891916781354 667.1020020382907 2.8199664825478975e-15
    vertex 894.7891916781354 672.6020020382907 2.8199664825478975e-15
    vertex 895.6632441024238 673.7410893348167 2.8199664825478975e-15
  endloop
endfacet
facet normal 0.0 0.0 -1.0
  outer loop
    vertex 894.7891916781354 667.1020020382907 2.8199664825478975e-15
    vertex 895.6632441024238 673.7410893348167 2.8199664825478975e-15
    vertex 895.6632441024238 665.9629147417647 2.8199664825478975e-15
  endloop
endfacet
facet normal 0.0 0.0 -1.0
  outer loop
    vertex 895.6632441024238 665.9629147417647 2.8199664825478975e-15
    vertex 895.6632441024238 673.7410893348167 2.8199664825478975e-15
    vertex 896.0523313989497 669.8520020382907 2.8199664825478975e-15
  endloop
endfacet
facet normal 0.0 0.0 -1.0
  outer loop
    vertex 896.0523313989497 669.8520020382907 2.8199664825478975e-15
    vertex 895.6632441024238 673.7410893348167 2.8199664825478975e-15
    vertex 896.171591006938 670.7578686961496 2.8199664825478975e-15
  endloop
endfacet
facet normal 0.0 0.0 -1.0
  outer loop
    vertex 896.171591006938 670.7578686961496 2.8199664825478975e-15
    vertex 895.6632441024238 673.7410893348167 2.8199664825478975e-15
    vertex 896.80233139895 674.6151417591051 2.8199664825478975e-15
  endloop
endfacet
facet normal 0.0 0.0 -1.0
  outer loop
    vertex 896.171591006938 670.7578686961496 2.8199664825478975e-15
    vertex 896.80233139895 674.6151417591051 2.8199664825478975e-15
    vertex 896.5212424857043 671.6020020382907 2.8199664825478975e-15
  endloop
endfacet
facet normal 0.0 0.0 -1.0
  outer loop
    vertex 896.5212424857043 671.6020020382907 2.8199664825478975e-15
    vertex 896.80233139895 674.6151417591051 2.8199664825478975e-15
    vertex 897.0774576647968 672.3268757724436 2.8199664825478975e-15
  endloop
endfacet
facet normal 0.0 0.0 -1.0
  outer loop
    vertex 897.0774576647968 672.3268757724436 2.8199664825478975e-15
    vertex 896.80233139895 674.6151417591051 2.8199664825478975e-15
    vertex 898.128826650886 675.1645940828806 2.8199664825478975e-15
  endloop
endfacet
facet normal 0.0 0.0 -1.0
  outer loop
    vertex 897.0774576647968 672.3268757724436 2.8199664825478975e-15
    vertex 898.128826650886 675.1645940828806 2.8199664825478975e-15
    vertex 897.8023313989498 672.8830909515362 2.8199664825478975e-15
  endloop
endfacet
facet normal 0.0 0.0 -1.0
  outer loop
    vertex 897.8023313989498 672.8830909515362 2.8199664825478975e-15
    vertex 898.128826650886 675.1645940828806 2.8199664825478975e-15
    vertex 898.646464741091 673.2327424303024 2.8199664825478975e-15
  endloop
endfacet
facet normal 0.0 0.0 -1.0
  outer loop
    vertex 898.646464741091 673.2327424303024 2.8199664825478975e-15
    vertex 898.128826650886 675.1645940828806 2.8199664825478975e-15
    vertex 899.5523313989498 675.3520020382907 2.8199664825478975e-15
  endloop
endfacet
facet normal 0.0 0.0 -1.0
  outer loop
    vertex 898.646464741091 673.2327424303024 2.8199664825478975e-15
    vertex 899.5523313989498 675.3520020382907 2.8199664825478975e-15
    vertex 899.5523313989498 673.3520020382907 2.8199664825478975e-15
  endloop
endfacet
facet normal 0.0 0.0 -1.0
  outer loop
    vertex 899.5523313989498 673.3520020382907 2.8199664825478975e-15
    vertex 899.5523313989498 675.3520020382907 2.8199664825478975e-15
    vertex 900.9758361470136 675.1645940828806 2.8199664825478975e-15
  endloop
endfacet
facet normal 0.0 0.0 -1.0
  outer loop
    vertex 899.5523313989498 673.3520020382907 2.8199664825478975e-15
    vertex 900.9758361470136 675.1645940828806 2.8199664825478975e-15
    vertex 900.4581980568086 673.2327424303024 2.8199664825478975e-15
  endloop
endfacet
facet normal 0.0 0.0 -1.0
  outer loop
    vertex 900.4581980568086 673.2327424303024 2.8199664825478975e-15
    vertex 900.9758361470136 675.1645940828806 2.8199664825478975e-15
    vertex 901.3023313989498 672.8830909515362 2.8199664825478975e-15
  endloop
endfacet
facet normal 0.0 0.0 -1.0
  outer loop
    vertex 901.3023313989498 672.8830909515362 2.8199664825478975e-15
    vertex 900.9758361470136 675.1645940828806 2.8199664825478975e-15
    vertex 902.30233139895 674.6151417591051 2.8199664825478975e-15
  endloop
endfacet
facet normal 0.0 0.0 -1.0
  outer loop
    vertex 901.3023313989498 672.8830909515362 2.8199664825478975e-15
    vertex 902.30233139895 674.6151417591051 2.8199664825478975e-15
    vertex 902.0272051331028 672.3268757724436 2.8199664825478975e-15
  endloop
endfacet
facet normal 0.0 0.0 -1.0
  outer loop
    vertex 902.0272051331028 672.3268757724436 2.8199664825478975e-15
    vertex 902.30233139895 674.6151417591051 2.8199664825478975e-15
    vertex 902.5834203121954 671.6020020382907 2.8199664825478975e-15
  endloop
endfacet
facet normal 0.0 0.0 -1.0
  outer loop
    vertex 902.5834203121954 671.6020020382907 2.8199664825478975e-15
    vertex 902.30233139895 674.6151417591051 2.8199664825478975e-15
    vertex 903.4414186954758 673.7410893348167 2.8199664825478975e-15
  endloop
endfacet
facet normal 0.0 0.0 -1.0
  outer loop
    vertex 902.5834203121954 671.6020020382907 2.8199664825478975e-15
    vertex 903.4414186954758 673.7410893348167 2.8199664825478975e-15
    vertex 902.9330717909615 670.7578686961496 2.8199664825478975e-15
  endloop
endfacet
facet normal 0.0 0.0 -1.0
  outer loop
    vertex 902.9330717909615 670.7578686961496 2.8199664825478975e-15
    vertex 903.4414186954758 673.7410893348167 2.8199664825478975e-15
    vertex 903.05233139895 669.8520020382907 2.8199664825478975e-15
  endloop
endfacet
facet normal 0.0 0.0 -1.0
  outer loop
    vertex 895.6632441024238 665.9629147417647 2.8199664825478975e-15
    vertex 896.171591006938 668.9461353804319 2.8199664825478975e-15
    vertex 896.8023313989497 665.0888623174764 2.8199664825478975e-15
  endloop
endfacet
facet normal 0.0 0.0 -1.0
  outer loop
    vertex 896.171591006938 668.9461353804319 2.8199664825478975e-15
    vertex 895.6632441024238 665.9629147417647 2.8199664825478975e-15
    vertex 896.0523313989497 669.8520020382907 2.8199664825478975e-15
  endloop
endfacet
facet normal 0.0 0.0 -1.0
  outer loop
    vertex 896.8023313989497 665.0888623174764 2.8199664825478975e-15
    vertex 896.171591006938 668.9461353804319 2.8199664825478975e-15
    vertex 896.5212424857043 668.1020020382906 2.8199664825478975e-15
  endloop
endfacet
facet normal 0.0 0.0 -1.0
  outer loop
    vertex 896.8023313989497 665.0888623174764 2.8199664825478975e-15
    vertex 896.5212424857043 668.1020020382906 2.8199664825478975e-15
    vertex 897.0774576647968 667.3771283041378 2.8199664825478975e-15
  endloop
endfacet
facet normal 0.0 0.0 -1.0
  outer loop
    vertex 896.8023313989497 665.0888623174764 2.8199664825478975e-15
    vertex 897.0774576647968 667.3771283041378 2.8199664825478975e-15
    vertex 898.128826650886 664.5394099937008 2.8199664825478975e-15
  endloop
endfacet
facet normal 0.0 0.0 -1.0
  outer loop
    vertex 898.128826650886 664.5394099937008 2.8199664825478975e-15
    vertex 897.0774576647968 667.3771283041378 2.8199664825478975e-15
    vertex 897.8023313989498 666.8209131250452 2.8199664825478975e-15
  endloop
endfacet
facet normal 0.0 0.0 -1.0
  outer loop
    vertex 898.128826650886 664.5394099937008 2.8199664825478975e-15
    vertex 897.8023313989498 666.8209131250452 2.8199664825478975e-15
    vertex 898.646464741091 666.4712616462789 2.8199664825478975e-15
  endloop
endfacet
facet normal 0.0 0.0 -1.0
  outer loop
    vertex 898.128826650886 664.5394099937008 2.8199664825478975e-15
    vertex 898.646464741091 666.4712616462789 2.8199664825478975e-15
    vertex 899.5523313989498 664.3520020382907 2.8199664825478975e-15
  endloop
endfacet
facet normal 0.0 0.0 -1.0
  outer loop
    vertex 899.5523313989498 664.3520020382907 2.8199664825478975e-15
    vertex 898.646464741091 666.4712616462789 2.8199664825478975e-15
    vertex 899.5523313989498 666.3520020382907 2.8199664825478975e-15
  endloop
endfacet
facet normal 0.0 0.0 -1.0
  outer loop
    vertex 899.5523313989498 664.3520020382907 2.8199664825478975e-15
    vertex 899.5523313989498 666.3520020382907 2.8199664825478975e-15
    vertex 900.4581980568086 666.4712616462789 2.8199664825478975e-15
  endloop
endfacet
facet normal 0.0 0.0 -1.0
  outer loop
    vertex 899.5523313989498 664.3520020382907 2.8199664825478975e-15
    vertex 900.4581980568086 666.4712616462789 2.8199664825478975e-15
    vertex 900.9758361470136 664.5394099937008 2.8199664825478975e-15
  endloop
endfacet
facet normal 0.0 0.0 -1.0
  outer loop
    vertex 900.9758361470136 664.5394099937008 2.8199664825478975e-15
    vertex 900.4581980568086 666.4712616462789 2.8199664825478975e-15
    vertex 901.3023313989498 666.8209131250452 2.8199664825478975e-15
  endloop
endfacet
facet normal 0.0 0.0 -1.0
  outer loop
    vertex 900.9758361470136 664.5394099937008 2.8199664825478975e-15
    vertex 901.3023313989498 666.8209131250452 2.8199664825478975e-15
    vertex 902.3023313989497 665.0888623174764 2.8199664825478975e-15
  endloop
endfacet
facet normal 0.0 0.0 -1.0
  outer loop
    vertex 902.3023313989497 665.0888623174764 2.8199664825478975e-15
    vertex 901.3023313989498 666.8209131250452 2.8199664825478975e-15
    vertex 902.0272051331028 667.3771283041378 2.8199664825478975e-15
  endloop
endfacet
facet normal 0.0 0.0 -1.0
  outer loop
    vertex 902.3023313989497 665.0888623174764 2.8199664825478975e-15
    vertex 902.0272051331028 667.3771283041378 2.8199664825478975e-15
    vertex 902.5834203121954 668.1020020382906 2.8199664825478975e-15
  endloop
endfacet
facet normal 0.0 0.0 -1.0
  outer loop
    vertex 902.3023313989497 665.0888623174764 2.8199664825478975e-15
    vertex 902.5834203121954 668.1020020382906 2.8199664825478975e-15
    vertex 903.4414186954758 665.9629147417646 2.8199664825478975e-15
  endloop
endfacet
facet normal 0.0 0.0 -1.0
  outer loop
    vertex 903.4414186954758 665.9629147417646 2.8199664825478975e-15
    vertex 902.5834203121954 668.1020020382906 2.8199664825478975e-15
    vertex 902.9330717909615 668.9461353804319 2.8199664825478975e-15
  endloop
endfacet
facet normal 0.0 0.0 -1.0
  outer loop
    vertex 903.4414186954758 665.9629147417646 2.8199664825478975e-15
    vertex 902.9330717909615 668.9461353804319 2.8199664825478975e-15
    vertex 903.05233139895 669.8520020382907 2.8199664825478975e-15
  endloop
endfacet
facet normal 0.0 0.0 -1.0
  outer loop
    vertex 903.4414186954758 665.9629147417646 2.8199664825478975e-15
    vertex 903.05233139895 669.8520020382907 2.8199664825478975e-15
    vertex 903.4414186954758 673.7410893348167 2.8199664825478975e-15
  endloop
endfacet
facet normal 0.0 0.0 -1.0
  outer loop
    vertex 903.4414186954758 665.9629147417646 2.8199664825478975e-15
    vertex 903.4414186954758 673.7410893348167 2.8199664825478975e-15
    vertex 904.3154711197643 672.6020020382907 2.8199664825478975e-15
  endloop
endfacet
facet normal 0.0 0.0 -1.0
  outer loop
    vertex 903.4414186954758 665.9629147417646 2.8199664825478975e-15
    vertex 904.3154711197643 672.6020020382907 2.8199664825478975e-15
    vertex 904.3154711197643 667.1020020382907 2.8199664825478975e-15
  endloop
endfacet
facet normal 0.0 0.0 -1.0
  outer loop
    vertex 904.3154711197643 667.1020020382907 2.8199664825478975e-15
    vertex 904.3154711197643 672.6020020382907 2.8199664825478975e-15
    vertex 904.8649234435396 671.2755067863545 2.8199664825478975e-15
  endloop
endfacet
facet normal 0.0 0.0 -1.0
  outer loop
    vertex 904.3154711197643 667.1020020382907 2.8199664825478975e-15
    vertex 904.8649234435396 671.2755067863545 2.8199664825478975e-15
    vertex 904.8649234435396 668.4284972902268 2.8199664825478975e-15
  endloop
endfacet
facet normal 0.0 0.0 -1.0
  outer loop
    vertex 904.8649234435396 668.4284972902268 2.8199664825478975e-15
    vertex 904.8649234435396 671.2755067863545 2.8199664825478975e-15
    vertex 905.0523313989498 669.8520020382907 2.8199664825478975e-15
  endloop
endfacet
facet normal 0.0 0.0 -1.0
  outer loop
    vertex 896.171591006938 670.7578686961496 2.8199664825478975e-15
    vertex 896.5132536067919 669.7913204784348 2.8199664825478975e-15
    vertex 896.0523313989497 669.8520020382907 2.8199664825478975e-15
  endloop
endfacet
facet normal 0.0 0.0 -1.0
  outer loop
    vertex 896.5132536067919 669.7913204784348 2.8199664825478975e-15
    vertex 896.171591006938 670.7578686961496 2.8199664825478975e-15
    vertex 896.6325132147803 670.6971871362936 2.8199664825478975e-15
  endloop
endfacet
endsolid coupleur moteur
