solid coupleur moteur
facet normal 0.1305261922200513 0.9914448613738106 0.0
  outer loop
    vertex 898.7658313989496 675.3520020382907 10.000000000000007
    vertex 900.3928973259871 675.137794745257 -1.4299999999999968
    vertex 898.7658313989496 675.3520020382907 -1.4299999999999968
  endloop
endfacet
facet normal 0.1305261922200513 0.9914448613738106 0.0
  outer loop
    vertex 900.3928973259871 675.137794745257 -1.4299999999999968
    vertex 898.7658313989496 675.3520020382907 10.000000000000007
    vertex 900.3928973259871 675.137794745257 10.000000000000007
  endloop
endfacet
facet normal -0.9238795325113176 -0.3826834323650157 0.0
  outer loop
    vertex 892.6935386919832 667.4384361112538 10.000000000000007
    vertex 893.3215626980593 665.9222520382909 -1.4299999999999968
    vertex 893.3215626980593 665.9222520382909 10.000000000000007
  endloop
endfacet
facet normal -0.9238795325113176 -0.3826834323650157 0.0
  outer loop
    vertex 893.3215626980593 665.9222520382909 -1.4299999999999968
    vertex 892.6935386919832 667.4384361112538 10.000000000000007
    vertex 892.6935386919832 667.4384361112538 -1.4299999999999968
  endloop
endfacet
facet normal -0.9914448613738066 -0.13052619222008216 0.0
  outer loop
    vertex 892.4793313989494 669.0655020382908 10.000000000000007
    vertex 892.6935386919832 667.4384361112538 -1.4299999999999968
    vertex 892.6935386919832 667.4384361112538 10.000000000000007
  endloop
endfacet
facet normal -0.9914448613738066 -0.13052619222008216 0.0
  outer loop
    vertex 892.6935386919832 667.4384361112538 -1.4299999999999968
    vertex 892.4793313989494 669.0655020382908 10.000000000000007
    vertex 892.4793313989494 669.0655020382908 -1.4299999999999968
  endloop
endfacet
facet normal -0.3826834323651188 0.923879532511275 0.0
  outer loop
    vertex 895.6225813989506 674.5097707391817 10.000000000000007
    vertex 897.1387654719128 675.137794745257 -1.4299999999999968
    vertex 895.6225813989506 674.5097707391817 -1.4299999999999968
  endloop
endfacet
facet normal -0.3826834323651188 0.923879532511275 0.0
  outer loop
    vertex 897.1387654719128 675.137794745257 -1.4299999999999968
    vertex 895.6225813989506 674.5097707391817 10.000000000000007
    vertex 897.1387654719128 675.137794745257 10.000000000000007
  endloop
endfacet
facet normal -0.9914448613738066 0.13052619222008216 0.0
  outer loop
    vertex 892.6935386919832 670.6925679653276 10.000000000000007
    vertex 892.4793313989494 669.0655020382908 -1.4299999999999968
    vertex 892.4793313989494 669.0655020382908 10.000000000000007
  endloop
endfacet
facet normal -0.9914448613738066 0.13052619222008216 0.0
  outer loop
    vertex 892.4793313989494 669.0655020382908 -1.4299999999999968
    vertex 892.6935386919832 670.6925679653276 10.000000000000007
    vertex 892.6935386919832 670.6925679653276 -1.4299999999999968
  endloop
endfacet
facet normal -0.1305261922200513 0.9914448613738106 0.0
  outer loop
    vertex 897.1387654719128 675.137794745257 10.000000000000007
    vertex 898.7658313989496 675.3520020382907 -1.4299999999999968
    vertex 897.1387654719128 675.137794745257 -1.4299999999999968
  endloop
endfacet
facet normal -0.1305261922200513 0.9914448613738106 0.0
  outer loop
    vertex 898.7658313989496 675.3520020382907 -1.4299999999999968
    vertex 897.1387654719128 675.137794745257 10.000000000000007
    vertex 898.7658313989496 675.3520020382907 10.000000000000007
  endloop
endfacet
facet normal -0.7933533402911976 -0.6087614290087695 0.0
  outer loop
    vertex 893.3215626980593 665.9222520382909 10.000000000000007
    vertex 894.3206046190205 664.6202752583615 -1.4299999999999968
    vertex 894.3206046190205 664.6202752583615 10.000000000000007
  endloop
endfacet
facet normal -0.7933533402911976 -0.6087614290087695 0.0
  outer loop
    vertex 894.3206046190205 664.6202752583615 -1.4299999999999968
    vertex 893.3215626980593 665.9222520382909 10.000000000000007
    vertex 893.3215626980593 665.9222520382909 -1.4299999999999968
  endloop
endfacet
facet normal 0.3826834323651321 0.9238795325112694 0.0
  outer loop
    vertex 899.3574917360544 671.2736084771873 7.714000000000009
    vertex 899.90883139895 671.0452361113424 5.428000000000005
    vertex 899.3574917360544 671.2736084771873 5.428000000000005
  endloop
endfacet
facet normal 0.3826834323651321 0.9238795325112694 0.0
  outer loop
    vertex 899.90883139895 671.0452361113424 5.428000000000005
    vertex 899.3574917360544 671.2736084771873 7.714000000000009
    vertex 899.90883139895 671.0452361113424 7.714000000000009
  endloop
endfacet
facet normal 0.9238795325113176 0.3826834323650157 0.0
  outer loop
    vertex 904.2101000998412 672.208752038291 -1.4299999999999968
    vertex 904.8381241059161 670.6925679653276 10.000000000000007
    vertex 904.8381241059161 670.6925679653276 -1.4299999999999968
  endloop
endfacet
facet normal 0.9238795325113176 0.3826834323650157 0.0
  outer loop
    vertex 904.8381241059161 670.6925679653276 10.000000000000007
    vertex 904.2101000998412 672.208752038291 -1.4299999999999968
    vertex 904.2101000998412 672.208752038291 10.000000000000007
  endloop
endfacet
facet normal 0.7933533402912519 0.6087614290086988 0.0
  outer loop
    vertex 900.382277500742 670.681948140083 5.428000000000005
    vertex 900.7455654720015 670.2085020382908 7.714000000000009
    vertex 900.7455654720015 670.2085020382908 5.428000000000005
  endloop
endfacet
facet normal 0.7933533402912519 0.6087614290086988 0.0
  outer loop
    vertex 900.7455654720015 670.2085020382908 7.714000000000009
    vertex 900.382277500742 670.681948140083 5.428000000000005
    vertex 900.382277500742 670.681948140083 7.714000000000009
  endloop
endfacet
facet normal -0.6087614290086284 -0.793353340291306 0.0
  outer loop
    vertex 897.6228313989507 667.0857679652393 7.714000000000009
    vertex 897.1493852971579 667.4490559364983 5.428000000000005
    vertex 897.6228313989507 667.0857679652393 5.428000000000005
  endloop
endfacet
facet normal -0.6087614290086284 -0.793353340291306 0.0
  outer loop
    vertex 897.1493852971579 667.4490559364983 5.428000000000005
    vertex 897.6228313989507 667.0857679652393 7.714000000000009
    vertex 897.1493852971579 667.4490559364983 7.714000000000009
  endloop
endfacet
facet normal -0.9238795325112643 0.3826834323651443 0.0
  outer loop
    vertex 896.7860973258993 670.2085020382908 7.714000000000009
    vertex 896.5577249600526 669.6571623753953 5.428000000000005
    vertex 896.5577249600526 669.6571623753953 7.714000000000009
  endloop
endfacet
facet normal -0.9238795325112643 0.3826834323651443 0.0
  outer loop
    vertex 896.5577249600526 669.6571623753953 5.428000000000005
    vertex 896.7860973258993 670.2085020382908 7.714000000000009
    vertex 896.7860973258993 670.2085020382908 5.428000000000005
  endloop
endfacet
facet normal 0.9238795325113129 -0.38268343236502683 0.0
  outer loop
    vertex 904.8381241059161 667.4384361112537 -1.4299999999999968
    vertex 904.2101000998412 665.9222520382909 10.000000000000007
    vertex 904.2101000998412 665.9222520382909 -1.4299999999999968
  endloop
endfacet
facet normal 0.9238795325113129 -0.38268343236502683 0.0
  outer loop
    vertex 904.2101000998412 665.9222520382909 10.000000000000007
    vertex 904.8381241059161 667.4384361112537 -1.4299999999999968
    vertex 904.8381241059161 667.4384361112537 10.000000000000007
  endloop
endfacet
facet normal 0.1305261922200513 -0.9914448613738106 0.0
  outer loop
    vertex 900.3928973259871 662.9932093313245 10.000000000000007
    vertex 898.7658313989496 662.7790020382906 -1.4299999999999968
    vertex 900.3928973259871 662.9932093313245 -1.4299999999999968
  endloop
endfacet
facet normal 0.1305261922200513 -0.9914448613738106 0.0
  outer loop
    vertex 898.7658313989496 662.7790020382906 -1.4299999999999968
    vertex 900.3928973259871 662.9932093313245 10.000000000000007
    vertex 898.7658313989496 662.7790020382906 10.000000000000007
  endloop
endfacet
facet normal 0.9914448613738069 -0.1305261922200782 0.0
  outer loop
    vertex 905.0523313989501 669.0655020382908 -1.4299999999999968
    vertex 904.8381241059161 667.4384361112537 10.000000000000007
    vertex 904.8381241059161 667.4384361112537 -1.4299999999999968
  endloop
endfacet
facet normal 0.9914448613738069 -0.1305261922200782 0.0
  outer loop
    vertex 904.8381241059161 667.4384361112537 10.000000000000007
    vertex 905.0523313989501 669.0655020382908 -1.4299999999999968
    vertex 905.0523313989501 669.0655020382908 10.000000000000007
  endloop
endfacet
facet normal 0.9914448613738066 0.13052619222008216 0.0
  outer loop
    vertex 904.8381241059161 670.6925679653276 -1.4299999999999968
    vertex 905.0523313989501 669.0655020382908 10.000000000000007
    vertex 905.0523313989501 669.0655020382908 -1.4299999999999968
  endloop
endfacet
facet normal 0.9914448613738066 0.13052619222008216 0.0
  outer loop
    vertex 905.0523313989501 669.0655020382908 10.000000000000007
    vertex 904.8381241059161 670.6925679653276 -1.4299999999999968
    vertex 904.8381241059161 670.6925679653276 10.000000000000007
  endloop
endfacet
facet normal -0.7933533402912519 0.6087614290086988 0.0
  outer loop
    vertex 897.1493852971579 670.681948140083 7.714000000000009
    vertex 896.7860973258993 670.2085020382908 5.428000000000005
    vertex 896.7860973258993 670.2085020382908 7.714000000000009
  endloop
endfacet
facet normal -0.7933533402912519 0.6087614290086988 0.0
  outer loop
    vertex 896.7860973258993 670.2085020382908 5.428000000000005
    vertex 897.1493852971579 670.681948140083 7.714000000000009
    vertex 897.1493852971579 670.681948140083 5.428000000000005
  endloop
endfacet
facet normal 0.0 0.0 1.0
  outer loop
    vertex 898.2481286039836 665.133158904256 7.714000000000011
    vertex 895.2921654825137 668.9961430153755 7.714000000000011
    vertex 895.1014709509957 667.5476742433246 7.714000000000011
  endloop
endfacet
facet normal 0.0 0.0 1.0
  outer loop
    vertex 895.2921654825137 668.9961430153755 7.714000000000011
    vertex 898.2481286039836 665.133158904256 7.714000000000011
    vertex 895.4284792144445 670.0315486053079 7.714000000000011
  endloop
endfacet
facet normal 0.0 0.0 1.0
  outer loop
    vertex 895.4284792144445 670.0315486053079 7.714000000000011
    vertex 898.2481286039836 665.133158904256 7.714000000000011
    vertex 896.7860973258993 667.9225020382909 7.714000000000009
  endloop
endfacet
facet normal 0.0 0.0 1.0
  outer loop
    vertex 895.4284792144445 670.0315486053079 7.714000000000011
    vertex 896.7860973258993 667.9225020382909 7.714000000000009
    vertex 896.5577249600526 668.4738417011863 7.714000000000009
  endloop
endfacet
facet normal 0.0 0.0 1.0
  outer loop
    vertex 895.4284792144445 670.0315486053079 7.714000000000011
    vertex 896.5577249600526 668.4738417011863 7.714000000000009
    vertex 895.6191737459621 671.4800173773593 7.714000000000011
  endloop
endfacet
facet normal 0.0 0.0 1.0
  outer loop
    vertex 895.6191737459621 671.4800173773593 7.714000000000011
    vertex 896.5577249600526 668.4738417011863 7.714000000000009
    vertex 896.4798313989495 669.0655020382908 7.714000000000009
  endloop
endfacet
facet normal 0.0 0.0 1.0
  outer loop
    vertex 896.7860973258993 667.9225020382909 7.714000000000009
    vertex 898.2481286039836 665.133158904256 7.714000000000011
    vertex 897.1493852971579 667.4490559364983 7.714000000000009
  endloop
endfacet
facet normal 0.0 0.0 1.0
  outer loop
    vertex 897.1493852971579 667.4490559364983 7.714000000000009
    vertex 898.2481286039836 665.133158904256 7.714000000000011
    vertex 897.6228313989507 667.0857679652393 7.714000000000009
  endloop
endfacet
facet normal 0.0 0.0 1.0
  outer loop
    vertex 897.6228313989507 667.0857679652393 7.714000000000009
    vertex 898.2481286039836 665.133158904256 7.714000000000011
    vertex 898.1741710618459 666.8573955993938 7.714000000000009
  endloop
endfacet
facet normal 0.0 0.0 1.0
  outer loop
    vertex 898.1741710618459 666.8573955993938 7.714000000000009
    vertex 898.2481286039836 665.133158904256 7.714000000000011
    vertex 898.7658313989496 666.7795020382904 7.714000000000009
  endloop
endfacet
facet normal 0.0 0.0 1.0
  outer loop
    vertex 898.7658313989496 666.7795020382904 7.714000000000009
    vertex 898.2481286039836 665.133158904256 7.714000000000011
    vertex 901.9124890519382 666.6509866992222 7.714000000000011
  endloop
endfacet
facet normal 0.0 0.0 1.0
  outer loop
    vertex 898.7658313989496 666.7795020382904 7.714000000000009
    vertex 901.9124890519382 666.6509866992222 7.714000000000011
    vertex 899.3574917360544 666.8573955993938 7.714000000000009
  endloop
endfacet
facet normal 0.0 0.0 1.0
  outer loop
    vertex 899.3574917360544 666.8573955993938 7.714000000000009
    vertex 901.9124890519382 666.6509866992222 7.714000000000011
    vertex 899.90883139895 667.0857679652393 7.714000000000009
  endloop
endfacet
facet normal 0.0 0.0 1.0
  outer loop
    vertex 899.90883139895 667.0857679652393 7.714000000000009
    vertex 901.9124890519382 666.6509866992222 7.714000000000011
    vertex 900.382277500742 667.4490559364983 7.714000000000009
  endloop
endfacet
facet normal 0.0 0.0 1.0
  outer loop
    vertex 900.382277500742 667.4490559364983 7.714000000000009
    vertex 901.9124890519382 666.6509866992222 7.714000000000011
    vertex 900.7455654720015 667.9225020382909 7.714000000000009
  endloop
endfacet
facet normal 0.0 0.0 1.0
  outer loop
    vertex 900.7455654720015 667.9225020382909 7.714000000000009
    vertex 901.9124890519382 666.6509866992222 7.714000000000011
    vertex 900.973937837847 668.4738417011863 7.714000000000009
  endloop
endfacet
facet normal 0.0 0.0 1.0
  outer loop
    vertex 900.973937837847 668.4738417011863 7.714000000000009
    vertex 901.9124890519382 666.6509866992222 7.714000000000011
    vertex 901.0518313989506 669.0655020382908 7.714000000000009
  endloop
endfacet
facet normal 0.0 0.0 1.0
  outer loop
    vertex 895.6191737459621 671.4800173773593 7.714000000000011
    vertex 897.1493852971579 670.681948140083 7.714000000000009
    vertex 899.2835341939166 672.9978451723256 7.714000000000011
  endloop
endfacet
facet normal 0.0 0.0 1.0
  outer loop
    vertex 897.1493852971579 670.681948140083 7.714000000000009
    vertex 895.6191737459621 671.4800173773593 7.714000000000011
    vertex 896.7860973258993 670.2085020382908 7.714000000000009
  endloop
endfacet
facet normal 0.0 0.0 1.0
  outer loop
    vertex 896.7860973258993 670.2085020382908 7.714000000000009
    vertex 895.6191737459621 671.4800173773593 7.714000000000011
    vertex 896.5577249600526 669.6571623753953 7.714000000000009
  endloop
endfacet
facet normal 0.0 0.0 1.0
  outer loop
    vertex 896.5577249600526 669.6571623753953 7.714000000000009
    vertex 895.6191737459621 671.4800173773593 7.714000000000011
    vertex 896.4798313989495 669.0655020382908 7.714000000000009
  endloop
endfacet
facet normal 0.0 0.0 1.0
  outer loop
    vertex 899.2835341939166 672.9978451723256 7.714000000000011
    vertex 897.1493852971579 670.681948140083 7.714000000000009
    vertex 897.6228313989503 671.0452361113424 7.714000000000009
  endloop
endfacet
facet normal 0.0 0.0 1.0
  outer loop
    vertex 899.2835341939166 672.9978451723256 7.714000000000011
    vertex 897.6228313989503 671.0452361113424 7.714000000000009
    vertex 898.1741710618459 671.2736084771873 7.714000000000009
  endloop
endfacet
facet normal 0.0 0.0 1.0
  outer loop
    vertex 899.2835341939166 672.9978451723256 7.714000000000011
    vertex 898.1741710618459 671.2736084771873 7.714000000000009
    vertex 898.7658313989496 671.3515020382905 7.714000000000009
  endloop
endfacet
facet normal 0.0 0.0 1.0
  outer loop
    vertex 899.2835341939166 672.9978451723256 7.714000000000011
    vertex 898.7658313989496 671.3515020382905 7.714000000000009
    vertex 899.3574917360544 671.2736084771873 7.714000000000009
  endloop
endfacet
facet normal 0.0 0.0 1.0
  outer loop
    vertex 899.2835341939166 672.9978451723256 7.714000000000011
    vertex 899.3574917360544 671.2736084771873 7.714000000000009
    vertex 902.4301918469051 670.5833298332568 7.714000000000011
  endloop
endfacet
facet normal 0.0 0.0 1.0
  outer loop
    vertex 902.4301918469051 670.5833298332568 7.714000000000011
    vertex 899.3574917360544 671.2736084771873 7.714000000000009
    vertex 899.90883139895 671.0452361113424 7.714000000000009
  endloop
endfacet
facet normal 0.0 0.0 1.0
  outer loop
    vertex 902.4301918469051 670.5833298332568 7.714000000000011
    vertex 899.90883139895 671.0452361113424 7.714000000000009
    vertex 900.382277500742 670.681948140083 7.714000000000009
  endloop
endfacet
facet normal 0.0 0.0 1.0
  outer loop
    vertex 902.4301918469051 670.5833298332568 7.714000000000011
    vertex 900.382277500742 670.681948140083 7.714000000000009
    vertex 900.7455654720015 670.2085020382908 7.714000000000009
  endloop
endfacet
facet normal 0.0 0.0 1.0
  outer loop
    vertex 902.4301918469051 670.5833298332568 7.714000000000011
    vertex 900.7455654720015 670.2085020382908 7.714000000000009
    vertex 900.973937837847 669.6571623753953 7.714000000000009
  endloop
endfacet
facet normal 0.0 0.0 1.0
  outer loop
    vertex 902.4301918469051 670.5833298332568 7.714000000000011
    vertex 900.973937837847 669.6571623753953 7.714000000000009
    vertex 901.0518313989506 669.0655020382908 7.714000000000009
  endloop
endfacet
facet normal 0.0 0.0 1.0
  outer loop
    vertex 902.4301918469051 670.5833298332568 7.714000000000011
    vertex 901.0518313989506 669.0655020382908 7.714000000000009
    vertex 901.9124890519382 666.6509866992222 7.714000000000011
  endloop
endfacet
facet normal 0.7933533402912091 -0.6087614290087546 0.0
  outer loop
    vertex 904.2101000998412 665.9222520382909 -1.4299999999999968
    vertex 903.2110581788791 664.6202752583614 10.000000000000007
    vertex 903.2110581788791 664.6202752583614 -1.4299999999999968
  endloop
endfacet
facet normal 0.7933533402912091 -0.6087614290087546 0.0
  outer loop
    vertex 903.2110581788791 664.6202752583614 10.000000000000007
    vertex 904.2101000998412 665.9222520382909 -1.4299999999999968
    vertex 904.2101000998412 665.9222520382909 10.000000000000007
  endloop
endfacet
facet normal 0.0 0.0 1.0
  outer loop
    vertex 894.9016451308804 668.0300964483582 1.9990000000000019
    vertex 895.2921654825137 668.9961430153755 1.9990000000000019
    vertex 894.76533139895 669.0655020382908 1.9990000000000019
  endloop
endfacet
facet normal 0.0 0.0 1.0
  outer loop
    vertex 895.2921654825137 668.9961430153755 1.9990000000000019
    vertex 894.9016451308804 668.0300964483582 1.9990000000000019
    vertex 895.1014709509957 667.5476742433246 1.9990000000000019
  endloop
endfacet
facet normal 0.0 0.0 1.0
  outer loop
    vertex 902.2303660267893 667.0652520382906 1.9990000000000019
    vertex 902.4301918469051 670.5833298332568 1.9990000000000019
    vertex 901.9124890519382 666.6509866992222 1.9990000000000019
  endloop
endfacet
facet normal 0.0 0.0 1.0
  outer loop
    vertex 902.4301918469051 670.5833298332568 1.9990000000000019
    vertex 902.2303660267893 667.0652520382906 1.9990000000000019
    vertex 902.6300176670197 668.0300964483582 1.9990000000000019
  endloop
endfacet
facet normal 0.0 0.0 1.0
  outer loop
    vertex 902.4301918469051 670.5833298332568 1.9990000000000019
    vertex 902.6300176670197 668.0300964483582 1.9990000000000019
    vertex 902.6300176670197 670.1009076282234 1.9990000000000019
  endloop
endfacet
facet normal 0.0 0.0 1.0
  outer loop
    vertex 902.6300176670197 670.1009076282234 1.9990000000000019
    vertex 902.6300176670197 668.0300964483582 1.9990000000000019
    vertex 902.7663313989508 669.0655020382908 1.9990000000000019
  endloop
endfacet
facet normal 0.0 0.0 1.0
  outer loop
    vertex 902.4301918469051 670.5833298332568 1.9990000000000019
    vertex 899.8012369888822 672.9296883063602 1.9990000000000019
    vertex 899.2835341939166 672.9978451723256 1.9990000000000019
  endloop
endfacet
facet normal 0.0 0.0 1.0
  outer loop
    vertex 899.8012369888822 672.9296883063602 1.9990000000000019
    vertex 902.4301918469051 670.5833298332568 1.9990000000000019
    vertex 900.7660813989505 672.5300366661305 1.9990000000000019
  endloop
endfacet
facet normal 0.0 0.0 1.0
  outer loop
    vertex 900.7660813989505 672.5300366661305 1.9990000000000019
    vertex 902.4301918469051 670.5833298332568 1.9990000000000019
    vertex 901.5946120770872 671.8942827164274 1.9990000000000019
  endloop
endfacet
facet normal 0.0 0.0 1.0
  outer loop
    vertex 901.5946120770872 671.8942827164274 1.9990000000000019
    vertex 902.4301918469051 670.5833298332568 1.9990000000000019
    vertex 902.2303660267893 671.065752038291 1.9990000000000019
  endloop
endfacet
facet normal 0.0 0.0 1.0
  outer loop
    vertex 898.7658313989496 665.065002038291 1.9990000000000019
    vertex 901.9124890519382 666.6509866992222 1.9990000000000019
    vertex 898.2481286039836 665.133158904256 1.9990000000000019
  endloop
endfacet
facet normal 0.0 0.0 1.0
  outer loop
    vertex 901.9124890519382 666.6509866992222 1.9990000000000019
    vertex 898.7658313989496 665.065002038291 1.9990000000000019
    vertex 899.8012369888822 665.2013157702211 1.9990000000000019
  endloop
endfacet
facet normal 0.0 0.0 1.0
  outer loop
    vertex 901.9124890519382 666.6509866992222 1.9990000000000019
    vertex 899.8012369888822 665.2013157702211 1.9990000000000019
    vertex 900.7660813989505 665.6009674104513 1.9990000000000019
  endloop
endfacet
facet normal 0.0 0.0 1.0
  outer loop
    vertex 901.9124890519382 666.6509866992222 1.9990000000000019
    vertex 900.7660813989505 665.6009674104513 1.9990000000000019
    vertex 901.5946120770872 666.2367213601542 1.9990000000000019
  endloop
endfacet
facet normal 0.0 0.0 1.0
  outer loop
    vertex 899.2835341939166 672.9978451723256 1.9990000000000019
    vertex 895.9370507208134 671.8942827164274 1.9990000000000019
    vertex 895.6191737459621 671.4800173773593 1.9990000000000019
  endloop
endfacet
facet normal 0.0 0.0 1.0
  outer loop
    vertex 895.9370507208134 671.8942827164274 1.9990000000000019
    vertex 899.2835341939166 672.9978451723256 1.9990000000000019
    vertex 896.76558139895 672.5300366661305 1.9990000000000019
  endloop
endfacet
facet normal 0.0 0.0 1.0
  outer loop
    vertex 896.76558139895 672.5300366661305 1.9990000000000019
    vertex 899.2835341939166 672.9978451723256 1.9990000000000019
    vertex 897.7304258090174 672.9296883063602 1.9990000000000019
  endloop
endfacet
facet normal 0.0 0.0 1.0
  outer loop
    vertex 897.7304258090174 672.9296883063602 1.9990000000000019
    vertex 899.2835341939166 672.9978451723256 1.9990000000000019
    vertex 898.7658313989496 673.0660020382908 1.9990000000000019
  endloop
endfacet
facet normal 0.0 0.0 1.0
  outer loop
    vertex 895.3012967711104 667.0652520382906 1.9990000000000019
    vertex 898.2481286039836 665.133158904256 1.9990000000000019
    vertex 895.1014709509957 667.5476742433246 1.9990000000000019
  endloop
endfacet
facet normal 0.0 0.0 1.0
  outer loop
    vertex 898.2481286039836 665.133158904256 1.9990000000000019
    vertex 895.3012967711104 667.0652520382906 1.9990000000000019
    vertex 895.9370507208134 666.2367213601542 1.9990000000000019
  endloop
endfacet
facet normal 0.0 0.0 1.0
  outer loop
    vertex 898.2481286039836 665.133158904256 1.9990000000000019
    vertex 895.9370507208134 666.2367213601542 1.9990000000000019
    vertex 896.76558139895 665.6009674104513 1.9990000000000019
  endloop
endfacet
facet normal 0.0 0.0 1.0
  outer loop
    vertex 898.2481286039836 665.133158904256 1.9990000000000019
    vertex 896.76558139895 665.6009674104513 1.9990000000000019
    vertex 897.7304258090174 665.2013157702211 1.9990000000000019
  endloop
endfacet
facet normal 0.6087614290086284 0.793353340291306 0.0
  outer loop
    vertex 899.90883139895 671.0452361113424 7.714000000000009
    vertex 900.382277500742 670.681948140083 5.428000000000005
    vertex 899.90883139895 671.0452361113424 5.428000000000005
  endloop
endfacet
facet normal 0.6087614290086284 0.793353340291306 0.0
  outer loop
    vertex 900.382277500742 670.681948140083 5.428000000000005
    vertex 899.90883139895 671.0452361113424 7.714000000000009
    vertex 900.382277500742 670.681948140083 7.714000000000009
  endloop
endfacet
facet normal -0.6087614290087949 0.7933533402911781 0.0
  outer loop
    vertex 897.1493852971579 670.681948140083 7.714000000000009
    vertex 897.6228313989503 671.0452361113424 5.428000000000005
    vertex 897.1493852971579 670.681948140083 5.428000000000005
  endloop
endfacet
facet normal -0.6087614290087949 0.7933533402911781 0.0
  outer loop
    vertex 897.6228313989503 671.0452361113424 5.428000000000005
    vertex 897.1493852971579 670.681948140083 7.714000000000009
    vertex 897.6228313989503 671.0452361113424 7.714000000000009
  endloop
endfacet
facet normal -0.1305261922200665 0.9914448613738086 0.0
  outer loop
    vertex 898.1741710618459 671.2736084771873 7.714000000000009
    vertex 898.7658313989496 671.3515020382905 5.428000000000005
    vertex 898.1741710618459 671.2736084771873 5.428000000000005
  endloop
endfacet
facet normal -0.1305261922200665 0.9914448613738086 0.0
  outer loop
    vertex 898.7658313989496 671.3515020382905 5.428000000000005
    vertex 898.1741710618459 671.2736084771873 7.714000000000009
    vertex 898.7658313989496 671.3515020382905 7.714000000000009
  endloop
endfacet
facet normal 0.3826834323651188 -0.923879532511275 0.0
  outer loop
    vertex 901.9090813989494 663.6212333374001 10.000000000000007
    vertex 900.3928973259871 662.9932093313245 -1.4299999999999968
    vertex 901.9090813989494 663.6212333374001 -1.4299999999999968
  endloop
endfacet
facet normal 0.3826834323651188 -0.923879532511275 0.0
  outer loop
    vertex 900.3928973259871 662.9932093313245 -1.4299999999999968
    vertex 901.9090813989494 663.6212333374001 10.000000000000007
    vertex 900.3928973259871 662.9932093313245 10.000000000000007
  endloop
endfacet
facet normal -0.3826834323651321 -0.9238795325112694 0.0
  outer loop
    vertex 898.1741710618459 666.8573955993938 7.714000000000009
    vertex 897.6228313989507 667.0857679652393 5.428000000000005
    vertex 898.1741710618459 666.8573955993938 5.428000000000005
  endloop
endfacet
facet normal -0.3826834323651321 -0.9238795325112694 0.0
  outer loop
    vertex 897.6228313989507 667.0857679652393 5.428000000000005
    vertex 898.1741710618459 666.8573955993938 7.714000000000009
    vertex 897.6228313989507 667.0857679652393 7.714000000000009
  endloop
endfacet
facet normal 0.9914448613738076 -0.1305261922200743 0.0
  outer loop
    vertex 895.2921654825137 668.9961430153755 7.714000000000011
    vertex 895.1014709509957 667.5476742433246 10.000000000000007
    vertex 895.1014709509957 667.5476742433246 7.714000000000011
  endloop
endfacet
facet normal 0.9914448613738076 -0.1305261922200743 0.0
  outer loop
    vertex 895.1014709509957 667.5476742433246 10.000000000000007
    vertex 895.2921654825137 668.9961430153755 7.714000000000011
    vertex 895.2921654825137 668.9961430153755 10.000000000000007
  endloop
endfacet
facet normal 0.9914448613738076 -0.1305261922200743 0.0
  outer loop
    vertex 895.2921654825137 668.9961430153755 10.000000000000007
    vertex 895.2921654825137 668.9961430153755 7.714000000000011
    vertex 895.4284792144445 670.0315486053079 7.714000000000011
  endloop
endfacet
facet normal 0.9914448613738076 -0.1305261922200743 0.0
  outer loop
    vertex 895.2921654825137 668.9961430153755 10.000000000000007
    vertex 895.4284792144445 670.0315486053079 7.714000000000011
    vertex 895.4284792144445 670.0315486053079 10.000000000000007
  endloop
endfacet
facet normal 0.9914448613738076 -0.1305261922200743 0.0
  outer loop
    vertex 895.4284792144445 670.0315486053079 10.000000000000007
    vertex 895.4284792144445 670.0315486053079 7.714000000000011
    vertex 895.6191737459621 671.4800173773593 7.714000000000011
  endloop
endfacet
facet normal 0.9914448613738076 -0.1305261922200743 0.0
  outer loop
    vertex 895.4284792144445 670.0315486053079 10.000000000000007
    vertex 895.6191737459621 671.4800173773593 7.714000000000011
    vertex 895.6191737459621 671.4800173773593 10.000000000000007
  endloop
endfacet
facet normal 0.1305261922200665 0.9914448613738086 0.0
  outer loop
    vertex 898.7658313989496 671.3515020382905 7.714000000000009
    vertex 899.3574917360544 671.2736084771873 5.428000000000005
    vertex 898.7658313989496 671.3515020382905 5.428000000000005
  endloop
endfacet
facet normal 0.1305261922200665 0.9914448613738086 0.0
  outer loop
    vertex 899.3574917360544 671.2736084771873 5.428000000000005
    vertex 898.7658313989496 671.3515020382905 7.714000000000009
    vertex 899.3574917360544 671.2736084771873 7.714000000000009
  endloop
endfacet
facet normal -0.9238795325112643 -0.3826834323651443 0.0
  outer loop
    vertex 896.5577249600526 668.4738417011863 7.714000000000009
    vertex 896.7860973258993 667.9225020382909 5.428000000000005
    vertex 896.7860973258993 667.9225020382909 7.714000000000009
  endloop
endfacet
facet normal -0.9238795325112643 -0.3826834323651443 0.0
  outer loop
    vertex 896.7860973258993 667.9225020382909 5.428000000000005
    vertex 896.5577249600526 668.4738417011863 7.714000000000009
    vertex 896.5577249600526 668.4738417011863 5.428000000000005
  endloop
endfacet
facet normal 0.0 0.0 1.0
  outer loop
    vertex 895.4284792144445 670.0315486053079 1.9990000000000019
    vertex 895.3012967711104 671.065752038291 1.9990000000000019
    vertex 894.9016451308804 670.1009076282234 1.9990000000000019
  endloop
endfacet
facet normal 0.0 0.0 1.0
  outer loop
    vertex 895.3012967711104 671.065752038291 1.9990000000000019
    vertex 895.4284792144445 670.0315486053079 1.9990000000000019
    vertex 895.6191737459621 671.4800173773593 1.9990000000000019
  endloop
endfacet
facet normal -0.9914448613738197 -0.13052619221998152 0.0
  outer loop
    vertex 896.4798313989495 669.0655020382908 7.714000000000009
    vertex 896.5577249600526 668.4738417011863 5.428000000000005
    vertex 896.5577249600526 668.4738417011863 7.714000000000009
  endloop
endfacet
facet normal -0.9914448613738197 -0.13052619221998152 0.0
  outer loop
    vertex 896.5577249600526 668.4738417011863 5.428000000000005
    vertex 896.4798313989495 669.0655020382908 7.714000000000009
    vertex 896.4798313989495 669.0655020382908 5.428000000000005
  endloop
endfacet
facet normal 0.6087614290087268 0.7933533402912306 0.0
  outer loop
    vertex 895.1014709509957 667.5476742433246 10.000000000000007
    vertex 898.2481286039836 665.133158904256 7.714000000000011
    vertex 895.1014709509957 667.5476742433246 7.714000000000011
  endloop
endfacet
facet normal 0.6087614290087268 0.7933533402912306 0.0
  outer loop
    vertex 898.2481286039836 665.133158904256 7.714000000000011
    vertex 895.1014709509957 667.5476742433246 10.000000000000007
    vertex 898.2481286039836 665.133158904256 10.000000000000007
  endloop
endfacet
facet normal -0.7933533402912519 -0.6087614290086988 0.0
  outer loop
    vertex 896.7860973258993 667.9225020382909 7.714000000000009
    vertex 897.1493852971579 667.4490559364983 5.428000000000005
    vertex 897.1493852971579 667.4490559364983 7.714000000000009
  endloop
endfacet
facet normal -0.7933533402912519 -0.6087614290086988 0.0
  outer loop
    vertex 897.1493852971579 667.4490559364983 5.428000000000005
    vertex 896.7860973258993 667.9225020382909 7.714000000000009
    vertex 896.7860973258993 667.9225020382909 5.428000000000005
  endloop
endfacet
facet normal -0.38268343236500973 0.92387953251132 0.0
  outer loop
    vertex 897.6228313989503 671.0452361113424 7.714000000000009
    vertex 898.1741710618459 671.2736084771873 5.428000000000005
    vertex 897.6228313989503 671.0452361113424 5.428000000000005
  endloop
endfacet
facet normal -0.38268343236500973 0.92387953251132 0.0
  outer loop
    vertex 898.1741710618459 671.2736084771873 5.428000000000005
    vertex 897.6228313989503 671.0452361113424 7.714000000000009
    vertex 898.1741710618459 671.2736084771873 7.714000000000009
  endloop
endfacet
facet normal -0.9914448613738197 0.13052619221998152 0.0
  outer loop
    vertex 896.5577249600526 669.6571623753953 7.714000000000009
    vertex 896.4798313989495 669.0655020382908 5.428000000000005
    vertex 896.4798313989495 669.0655020382908 7.714000000000009
  endloop
endfacet
facet normal -0.9914448613738197 0.13052619221998152 0.0
  outer loop
    vertex 896.4798313989495 669.0655020382908 5.428000000000005
    vertex 896.5577249600526 669.6571623753953 7.714000000000009
    vertex 896.5577249600526 669.6571623753953 5.428000000000005
  endloop
endfacet
facet normal -0.3826834323650744 -0.9238795325112933 0.0
  outer loop
    vertex 897.1387654719128 662.9932093313245 10.000000000000007
    vertex 895.6225813989497 663.6212333374001 -1.4299999999999968
    vertex 897.1387654719128 662.9932093313245 -1.4299999999999968
  endloop
endfacet
facet normal -0.3826834323650744 -0.9238795325112933 0.0
  outer loop
    vertex 895.6225813989497 663.6212333374001 -1.4299999999999968
    vertex 897.1387654719128 662.9932093313245 10.000000000000007
    vertex 895.6225813989497 663.6212333374001 10.000000000000007
  endloop
endfacet
facet normal 0.3826834323650744 0.9238795325112933 0.0
  outer loop
    vertex 900.3928973259871 675.137794745257 10.000000000000007
    vertex 901.9090813989498 674.5097707391817 -1.4299999999999968
    vertex 900.3928973259871 675.137794745257 -1.4299999999999968
  endloop
endfacet
facet normal 0.3826834323650744 0.9238795325112933 0.0
  outer loop
    vertex 901.9090813989498 674.5097707391817 -1.4299999999999968
    vertex 900.3928973259871 675.137794745257 10.000000000000007
    vertex 901.9090813989498 674.5097707391817 10.000000000000007
  endloop
endfacet
facet normal 0.6087614290086801 -0.7933533402912665 0.0
  outer loop
    vertex 903.2110581788791 664.6202752583614 10.000000000000007
    vertex 901.9090813989494 663.6212333374001 -1.4299999999999968
    vertex 903.2110581788791 664.6202752583614 -1.4299999999999968
  endloop
endfacet
facet normal 0.6087614290086801 -0.7933533402912665 0.0
  outer loop
    vertex 901.9090813989494 663.6212333374001 -1.4299999999999968
    vertex 903.2110581788791 664.6202752583614 10.000000000000007
    vertex 901.9090813989494 663.6212333374001 10.000000000000007
  endloop
endfacet
facet normal 0.7933533402911976 0.6087614290087695 0.0
  outer loop
    vertex 903.2110581788791 673.5107288182201 -1.4299999999999968
    vertex 904.2101000998412 672.208752038291 10.000000000000007
    vertex 904.2101000998412 672.208752038291 -1.4299999999999968
  endloop
endfacet
facet normal 0.7933533402911976 0.6087614290087695 0.0
  outer loop
    vertex 904.2101000998412 672.208752038291 10.000000000000007
    vertex 903.2110581788791 673.5107288182201 -1.4299999999999968
    vertex 903.2110581788791 673.5107288182201 10.000000000000007
  endloop
endfacet
facet normal -0.6087614290087605 -0.7933533402912046 0.0
  outer loop
    vertex 895.6225813989497 663.6212333374001 10.000000000000007
    vertex 894.3206046190205 664.6202752583615 -1.4299999999999968
    vertex 895.6225813989497 663.6212333374001 -1.4299999999999968
  endloop
endfacet
facet normal -0.6087614290087605 -0.7933533402912046 0.0
  outer loop
    vertex 894.3206046190205 664.6202752583615 -1.4299999999999968
    vertex 895.6225813989497 663.6212333374001 10.000000000000007
    vertex 894.3206046190205 664.6202752583615 10.000000000000007
  endloop
endfacet
facet normal 0.6087614290087605 0.7933533402912046 0.0
  outer loop
    vertex 901.9090813989498 674.5097707391817 10.000000000000007
    vertex 903.2110581788791 673.5107288182201 -1.4299999999999968
    vertex 901.9090813989498 674.5097707391817 -1.4299999999999968
  endloop
endfacet
facet normal 0.6087614290087605 0.7933533402912046 0.0
  outer loop
    vertex 903.2110581788791 673.5107288182201 -1.4299999999999968
    vertex 901.9090813989498 674.5097707391817 10.000000000000007
    vertex 903.2110581788791 673.5107288182201 10.000000000000007
  endloop
endfacet
facet normal -0.1305261922200513 -0.9914448613738106 0.0
  outer loop
    vertex 898.7658313989496 662.7790020382906 10.000000000000007
    vertex 897.1387654719128 662.9932093313245 -1.4299999999999968
    vertex 898.7658313989496 662.7790020382906 -1.4299999999999968
  endloop
endfacet
facet normal -0.1305261922200513 -0.9914448613738106 0.0
  outer loop
    vertex 897.1387654719128 662.9932093313245 -1.4299999999999968
    vertex 898.7658313989496 662.7790020382906 10.000000000000007
    vertex 897.1387654719128 662.9932093313245 10.000000000000007
  endloop
endfacet
facet normal -0.6087614290087268 -0.7933533402912306 0.0
  outer loop
    vertex 902.4301918469051 670.5833298332568 10.000000000000007
    vertex 899.2835341939166 672.9978451723256 7.714000000000011
    vertex 902.4301918469051 670.5833298332568 7.714000000000011
  endloop
endfacet
facet normal -0.6087614290087268 -0.7933533402912306 0.0
  outer loop
    vertex 899.2835341939166 672.9978451723256 7.714000000000011
    vertex 902.4301918469051 670.5833298332568 10.000000000000007
    vertex 899.2835341939166 672.9978451723256 10.000000000000007
  endloop
endfacet
facet normal -0.9914448613737997 -0.13052619222013342 0.0
  outer loop
    vertex 902.6300176670197 670.1009076282234 1.9990000000000019
    vertex 902.7663313989508 669.0655020382908 -1.4299999999999968
    vertex 902.7663313989508 669.0655020382908 1.9990000000000019
  endloop
endfacet
facet normal -0.9914448613737997 -0.13052619222013342 0.0
  outer loop
    vertex 902.7663313989508 669.0655020382908 -1.4299999999999968
    vertex 902.6300176670197 670.1009076282234 1.9990000000000019
    vertex 902.6300176670197 670.1009076282234 -1.4299999999999968
  endloop
endfacet
facet normal -0.3826834323651109 -0.9238795325112782 0.0
  outer loop
    vertex 900.7660813989505 672.5300366661305 1.9990000000000019
    vertex 899.8012369888822 672.9296883063602 -1.4299999999999968
    vertex 900.7660813989505 672.5300366661305 -1.4299999999999968
  endloop
endfacet
facet normal -0.3826834323651109 -0.9238795325112782 0.0
  outer loop
    vertex 899.8012369888822 672.9296883063602 -1.4299999999999968
    vertex 900.7660813989505 672.5300366661305 1.9990000000000019
    vertex 899.8012369888822 672.9296883063602 1.9990000000000019
  endloop
endfacet
facet normal -0.3826834323651109 0.9238795325112782 0.0
  outer loop
    vertex 899.8012369888822 665.2013157702211 1.9990000000000019
    vertex 900.7660813989505 665.6009674104513 -1.4299999999999968
    vertex 899.8012369888822 665.2013157702211 -1.4299999999999968
  endloop
endfacet
facet normal -0.3826834323651109 0.9238795325112782 0.0
  outer loop
    vertex 900.7660813989505 665.6009674104513 -1.4299999999999968
    vertex 899.8012369888822 665.2013157702211 1.9990000000000019
    vertex 900.7660813989505 665.6009674104513 1.9990000000000019
  endloop
endfacet
facet normal -0.13052619222006018 -0.9914448613738094 0.0
  outer loop
    vertex 895.2921654825137 668.9961430153755 1.9990000000000019
    vertex 894.76533139895 669.0655020382908 -1.4299999999999968
    vertex 895.2921654825137 668.9961430153755 -1.4299999999999968
  endloop
endfacet
facet normal -0.13052619222006018 -0.9914448613738094 0.0
  outer loop
    vertex 894.76533139895 669.0655020382908 -1.4299999999999968
    vertex 895.2921654825137 668.9961430153755 1.9990000000000019
    vertex 894.76533139895 669.0655020382908 1.9990000000000019
  endloop
endfacet
facet normal -0.9238795325112782 -0.3826834323651109 7.344376913653288e-15
  outer loop
    vertex 902.4301918469051 670.5833298332568 1.9990000000000019
    vertex 902.6300176670197 670.1009076282234 -1.4299999999999968
    vertex 902.6300176670197 670.1009076282234 1.9990000000000019
  endloop
endfacet
facet normal -0.9238795325112782 -0.3826834323651109 7.344376913653288e-15
  outer loop
    vertex 902.6300176670197 670.1009076282234 -1.4299999999999968
    vertex 902.4301918469051 670.5833298332568 1.9990000000000019
    vertex 902.2303660267893 671.065752038291 -1.4299999999999968
  endloop
endfacet
facet normal -0.9238795325112782 -0.3826834323651109 7.344376913653288e-15
  outer loop
    vertex 902.2303660267893 671.065752038291 -1.4299999999999968
    vertex 902.4301918469051 670.5833298332568 1.9990000000000019
    vertex 902.2303660267893 671.065752038291 1.9990000000000019
  endloop
endfacet
facet normal 0.13052619222006018 0.9914448613738094 0.0
  outer loop
    vertex 894.9016451308804 670.1009076282234 1.9990000000000019
    vertex 895.4284792144445 670.0315486053079 -1.4299999999999968
    vertex 894.9016451308804 670.1009076282234 -1.4299999999999968
  endloop
endfacet
facet normal 0.13052619222006018 0.9914448613738094 0.0
  outer loop
    vertex 895.4284792144445 670.0315486053079 -1.4299999999999968
    vertex 894.9016451308804 670.1009076282234 1.9990000000000019
    vertex 895.4284792144445 670.0315486053079 1.9990000000000019
  endloop
endfacet
facet normal -0.7933533402912801 -0.6087614290086623 0.0
  outer loop
    vertex 901.5946120770872 671.8942827164274 1.9990000000000019
    vertex 902.2303660267893 671.065752038291 -1.4299999999999968
    vertex 902.2303660267893 671.065752038291 1.9990000000000019
  endloop
endfacet
facet normal -0.7933533402912801 -0.6087614290086623 0.0
  outer loop
    vertex 902.2303660267893 671.065752038291 -1.4299999999999968
    vertex 901.5946120770872 671.8942827164274 1.9990000000000019
    vertex 901.5946120770872 671.8942827164274 -1.4299999999999968
  endloop
endfacet
facet normal -0.1305261922200428 -0.9914448613738117 1.3111406073998193e-15
  outer loop
    vertex 899.8012369888822 672.9296883063602 1.9990000000000019
    vertex 898.7658313989496 673.0660020382908 -1.4299999999999968
    vertex 899.8012369888822 672.9296883063602 -1.4299999999999968
  endloop
endfacet
facet normal -0.1305261922200428 -0.9914448613738117 1.3111406073998193e-15
  outer loop
    vertex 898.7658313989496 673.0660020382908 -1.4299999999999968
    vertex 899.8012369888822 672.9296883063602 1.9990000000000019
    vertex 898.7658313989496 673.0660020382908 1.9990000000000019
  endloop
endfacet
facet normal -0.1305261922200428 -0.9914448613738117 1.3111406073998193e-15
  outer loop
    vertex 898.7658313989496 673.0660020382908 1.9990000000000019
    vertex 899.8012369888822 672.9296883063602 1.9990000000000019
    vertex 899.2835341939166 672.9978451723256 1.9990000000000019
  endloop
endfacet
facet normal 0.1305261922200428 -0.9914448613738117 0.0
  outer loop
    vertex 898.7658313989496 673.0660020382908 1.9990000000000019
    vertex 897.7304258090174 672.9296883063602 -1.4299999999999968
    vertex 898.7658313989496 673.0660020382908 -1.4299999999999968
  endloop
endfacet
facet normal 0.1305261922200428 -0.9914448613738117 0.0
  outer loop
    vertex 897.7304258090174 672.9296883063602 -1.4299999999999968
    vertex 898.7658313989496 673.0660020382908 1.9990000000000019
    vertex 897.7304258090174 672.9296883063602 1.9990000000000019
  endloop
endfacet
facet normal -0.7933533402912801 0.6087614290086623 3.0556441843316847e-15
  outer loop
    vertex 901.9124890519382 666.6509866992222 1.9990000000000019
    vertex 901.5946120770872 666.2367213601542 -1.4299999999999968
    vertex 901.5946120770872 666.2367213601542 1.9990000000000019
  endloop
endfacet
facet normal -0.7933533402912801 0.6087614290086623 3.0556441843316847e-15
  outer loop
    vertex 901.5946120770872 666.2367213601542 -1.4299999999999968
    vertex 901.9124890519382 666.6509866992222 1.9990000000000019
    vertex 902.2303660267893 667.0652520382906 -1.4299999999999968
  endloop
endfacet
facet normal -0.7933533402912801 0.6087614290086623 3.0556441843316847e-15
  outer loop
    vertex 902.2303660267893 667.0652520382906 -1.4299999999999968
    vertex 901.9124890519382 666.6509866992222 1.9990000000000019
    vertex 902.2303660267893 667.0652520382906 1.9990000000000019
  endloop
endfacet
facet normal 0.7933533402912801 0.6087614290086623 0.0
  outer loop
    vertex 895.3012967711104 667.0652520382906 -1.4299999999999968
    vertex 895.9370507208134 666.2367213601542 1.9990000000000019
    vertex 895.9370507208134 666.2367213601542 -1.4299999999999968
  endloop
endfacet
facet normal 0.7933533402912801 0.6087614290086623 0.0
  outer loop
    vertex 895.9370507208134 666.2367213601542 1.9990000000000019
    vertex 895.3012967711104 667.0652520382906 -1.4299999999999968
    vertex 895.3012967711104 667.0652520382906 1.9990000000000019
  endloop
endfacet
facet normal 0.9914448613737997 0.13052619222013345 0.0
  outer loop
    vertex 894.76533139895 669.0655020382908 -1.4299999999999968
    vertex 894.9016451308804 668.0300964483582 1.9990000000000019
    vertex 894.9016451308804 668.0300964483582 -1.4299999999999968
  endloop
endfacet
facet normal 0.9914448613737997 0.13052619222013345 0.0
  outer loop
    vertex 894.9016451308804 668.0300964483582 1.9990000000000019
    vertex 894.76533139895 669.0655020382908 -1.4299999999999968
    vertex 894.76533139895 669.0655020382908 1.9990000000000019
  endloop
endfacet
facet normal 0.9238795325112782 -0.3826834323651109 0.0
  outer loop
    vertex 895.3012967711104 671.065752038291 -1.4299999999999968
    vertex 894.9016451308804 670.1009076282234 1.9990000000000019
    vertex 894.9016451308804 670.1009076282234 -1.4299999999999968
  endloop
endfacet
facet normal 0.9238795325112782 -0.3826834323651109 0.0
  outer loop
    vertex 894.9016451308804 670.1009076282234 1.9990000000000019
    vertex 895.3012967711104 671.065752038291 -1.4299999999999968
    vertex 895.3012967711104 671.065752038291 1.9990000000000019
  endloop
endfacet
facet normal 0.6087614290087949 -0.7933533402911781 0.0
  outer loop
    vertex 900.382277500742 667.4490559364983 7.714000000000009
    vertex 899.90883139895 667.0857679652393 5.428000000000005
    vertex 900.382277500742 667.4490559364983 5.428000000000005
  endloop
endfacet
facet normal 0.6087614290087949 -0.7933533402911781 0.0
  outer loop
    vertex 899.90883139895 667.0857679652393 5.428000000000005
    vertex 900.382277500742 667.4490559364983 7.714000000000009
    vertex 899.90883139895 667.0857679652393 7.714000000000009
  endloop
endfacet
facet normal -0.9238795325112782 0.3826834323651109 0.0
  outer loop
    vertex 902.6300176670197 668.0300964483582 1.9990000000000019
    vertex 902.2303660267893 667.0652520382906 -1.4299999999999968
    vertex 902.2303660267893 667.0652520382906 1.9990000000000019
  endloop
endfacet
facet normal -0.9238795325112782 0.3826834323651109 0.0
  outer loop
    vertex 902.2303660267893 667.0652520382906 -1.4299999999999968
    vertex 902.6300176670197 668.0300964483582 1.9990000000000019
    vertex 902.6300176670197 668.0300964483582 -1.4299999999999968
  endloop
endfacet
facet normal -0.6087614290086452 0.7933533402912931 0.0
  outer loop
    vertex 900.7660813989505 665.6009674104513 1.9990000000000019
    vertex 901.5946120770872 666.2367213601542 -1.4299999999999968
    vertex 900.7660813989505 665.6009674104513 -1.4299999999999968
  endloop
endfacet
facet normal -0.6087614290086452 0.7933533402912931 0.0
  outer loop
    vertex 901.5946120770872 666.2367213601542 -1.4299999999999968
    vertex 900.7660813989505 665.6009674104513 1.9990000000000019
    vertex 901.5946120770872 666.2367213601542 1.9990000000000019
  endloop
endfacet
facet normal -0.38268343236506863 0.9238795325112956 0.0
  outer loop
    vertex 895.6191737459621 671.4800173773593 5.428000000000005
    vertex 899.2835341939166 672.9978451723256 1.9990000000000019
    vertex 895.6191737459621 671.4800173773593 1.9990000000000019
  endloop
endfacet
facet normal -0.38268343236506863 0.9238795325112956 0.0
  outer loop
    vertex 899.2835341939166 672.9978451723256 1.9990000000000019
    vertex 895.6191737459621 671.4800173773593 5.428000000000005
    vertex 899.2835341939166 672.9978451723256 5.428000000000005
  endloop
endfacet
facet normal 0.38268343236506863 -0.9238795325112956 0.0
  outer loop
    vertex 899.2835341939166 672.9978451723256 10.000000000000007
    vertex 895.6191737459621 671.4800173773593 7.714000000000011
    vertex 899.2835341939166 672.9978451723256 7.714000000000011
  endloop
endfacet
facet normal 0.38268343236506863 -0.9238795325112956 0.0
  outer loop
    vertex 895.6191737459621 671.4800173773593 7.714000000000011
    vertex 899.2835341939166 672.9978451723256 10.000000000000007
    vertex 895.6191737459621 671.4800173773593 10.000000000000007
  endloop
endfacet
facet normal 0.7933533402912801 -0.6087614290086623 3.0477586509527656e-15
  outer loop
    vertex 895.9370507208134 671.8942827164274 -1.4299999999999968
    vertex 895.3012967711104 671.065752038291 1.9990000000000019
    vertex 895.3012967711104 671.065752038291 -1.4299999999999968
  endloop
endfacet
facet normal 0.7933533402912801 -0.6087614290086623 3.0477586509527656e-15
  outer loop
    vertex 895.3012967711104 671.065752038291 1.9990000000000019
    vertex 895.9370507208134 671.8942827164274 -1.4299999999999968
    vertex 895.6191737459621 671.4800173773593 1.9990000000000019
  endloop
endfacet
facet normal 0.7933533402912801 -0.6087614290086623 3.0477586509527656e-15
  outer loop
    vertex 895.6191737459621 671.4800173773593 1.9990000000000019
    vertex 895.9370507208134 671.8942827164274 -1.4299999999999968
    vertex 895.9370507208134 671.8942827164274 1.9990000000000019
  endloop
endfacet
facet normal -0.9914448613737997 0.13052619222013345 0.0
  outer loop
    vertex 902.7663313989508 669.0655020382908 1.9990000000000019
    vertex 902.6300176670197 668.0300964483582 -1.4299999999999968
    vertex 902.6300176670197 668.0300964483582 1.9990000000000019
  endloop
endfacet
facet normal -0.9914448613737997 0.13052619222013345 0.0
  outer loop
    vertex 902.6300176670197 668.0300964483582 -1.4299999999999968
    vertex 902.7663313989508 669.0655020382908 1.9990000000000019
    vertex 902.7663313989508 669.0655020382908 -1.4299999999999968
  endloop
endfacet
facet normal 0.9914448613737997 -0.13052619222013345 0.0
  outer loop
    vertex 895.4284792144445 670.0315486053079 -1.4299999999999968
    vertex 895.2921654825137 668.9961430153755 1.9990000000000019
    vertex 895.2921654825137 668.9961430153755 -1.4299999999999968
  endloop
endfacet
facet normal 0.9914448613737997 -0.13052619222013345 0.0
  outer loop
    vertex 895.2921654825137 668.9961430153755 1.9990000000000019
    vertex 895.4284792144445 670.0315486053079 -1.4299999999999968
    vertex 895.4284792144445 670.0315486053079 1.9990000000000019
  endloop
endfacet
facet normal 0.0 0.0 1.0
  outer loop
    vertex 898.2481286039836 665.133158904256 5.428000000000005
    vertex 895.2921654825137 668.9961430153755 5.428000000000005
    vertex 895.1014709509957 667.5476742433246 5.428000000000005
  endloop
endfacet
facet normal 0.0 0.0 1.0
  outer loop
    vertex 895.2921654825137 668.9961430153755 5.428000000000005
    vertex 898.2481286039836 665.133158904256 5.428000000000005
    vertex 895.4284792144445 670.0315486053079 5.428000000000005
  endloop
endfacet
facet normal 0.0 0.0 1.0
  outer loop
    vertex 895.4284792144445 670.0315486053079 5.428000000000005
    vertex 898.2481286039836 665.133158904256 5.428000000000005
    vertex 896.7860973258993 667.9225020382909 5.428000000000005
  endloop
endfacet
facet normal 0.0 0.0 1.0
  outer loop
    vertex 895.4284792144445 670.0315486053079 5.428000000000005
    vertex 896.7860973258993 667.9225020382909 5.428000000000005
    vertex 896.5577249600526 668.4738417011863 5.428000000000005
  endloop
endfacet
facet normal 0.0 0.0 1.0
  outer loop
    vertex 895.4284792144445 670.0315486053079 5.428000000000005
    vertex 896.5577249600526 668.4738417011863 5.428000000000005
    vertex 895.6191737459621 671.4800173773593 5.428000000000005
  endloop
endfacet
facet normal 0.0 0.0 1.0
  outer loop
    vertex 895.6191737459621 671.4800173773593 5.428000000000005
    vertex 896.5577249600526 668.4738417011863 5.428000000000005
    vertex 896.4798313989495 669.0655020382908 5.428000000000005
  endloop
endfacet
facet normal 0.0 0.0 1.0
  outer loop
    vertex 896.7860973258993 667.9225020382909 5.428000000000005
    vertex 898.2481286039836 665.133158904256 5.428000000000005
    vertex 897.1493852971579 667.4490559364983 5.428000000000005
  endloop
endfacet
facet normal 0.0 0.0 1.0
  outer loop
    vertex 897.1493852971579 667.4490559364983 5.428000000000005
    vertex 898.2481286039836 665.133158904256 5.428000000000005
    vertex 897.6228313989507 667.0857679652393 5.428000000000005
  endloop
endfacet
facet normal 0.0 0.0 1.0
  outer loop
    vertex 897.6228313989507 667.0857679652393 5.428000000000005
    vertex 898.2481286039836 665.133158904256 5.428000000000005
    vertex 898.1741710618459 666.8573955993938 5.428000000000005
  endloop
endfacet
facet normal 0.0 0.0 1.0
  outer loop
    vertex 898.1741710618459 666.8573955993938 5.428000000000005
    vertex 898.2481286039836 665.133158904256 5.428000000000005
    vertex 898.7658313989496 666.7795020382904 5.428000000000005
  endloop
endfacet
facet normal 0.0 0.0 1.0
  outer loop
    vertex 898.7658313989496 666.7795020382904 5.428000000000005
    vertex 898.2481286039836 665.133158904256 5.428000000000005
    vertex 901.9124890519382 666.6509866992222 5.428000000000005
  endloop
endfacet
facet normal 0.0 0.0 1.0
  outer loop
    vertex 898.7658313989496 666.7795020382904 5.428000000000005
    vertex 901.9124890519382 666.6509866992222 5.428000000000005
    vertex 899.3574917360544 666.8573955993938 5.428000000000005
  endloop
endfacet
facet normal 0.0 0.0 1.0
  outer loop
    vertex 899.3574917360544 666.8573955993938 5.428000000000005
    vertex 901.9124890519382 666.6509866992222 5.428000000000005
    vertex 899.90883139895 667.0857679652393 5.428000000000005
  endloop
endfacet
facet normal 0.0 0.0 1.0
  outer loop
    vertex 899.90883139895 667.0857679652393 5.428000000000005
    vertex 901.9124890519382 666.6509866992222 5.428000000000005
    vertex 900.382277500742 667.4490559364983 5.428000000000005
  endloop
endfacet
facet normal 0.0 0.0 1.0
  outer loop
    vertex 900.382277500742 667.4490559364983 5.428000000000005
    vertex 901.9124890519382 666.6509866992222 5.428000000000005
    vertex 900.7455654720015 667.9225020382909 5.428000000000005
  endloop
endfacet
facet normal 0.0 0.0 1.0
  outer loop
    vertex 900.7455654720015 667.9225020382909 5.428000000000005
    vertex 901.9124890519382 666.6509866992222 5.428000000000005
    vertex 900.973937837847 668.4738417011863 5.428000000000005
  endloop
endfacet
facet normal 0.0 0.0 1.0
  outer loop
    vertex 900.973937837847 668.4738417011863 5.428000000000005
    vertex 901.9124890519382 666.6509866992222 5.428000000000005
    vertex 901.0518313989506 669.0655020382908 5.428000000000005
  endloop
endfacet
facet normal 0.0 0.0 1.0
  outer loop
    vertex 895.6191737459621 671.4800173773593 5.428000000000005
    vertex 897.1493852971579 670.681948140083 5.428000000000005
    vertex 899.2835341939166 672.9978451723256 5.428000000000005
  endloop
endfacet
facet normal 0.0 0.0 1.0
  outer loop
    vertex 897.1493852971579 670.681948140083 5.428000000000005
    vertex 895.6191737459621 671.4800173773593 5.428000000000005
    vertex 896.7860973258993 670.2085020382908 5.428000000000005
  endloop
endfacet
facet normal 0.0 0.0 1.0
  outer loop
    vertex 896.7860973258993 670.2085020382908 5.428000000000005
    vertex 895.6191737459621 671.4800173773593 5.428000000000005
    vertex 896.5577249600526 669.6571623753953 5.428000000000005
  endloop
endfacet
facet normal 0.0 0.0 1.0
  outer loop
    vertex 896.5577249600526 669.6571623753953 5.428000000000005
    vertex 895.6191737459621 671.4800173773593 5.428000000000005
    vertex 896.4798313989495 669.0655020382908 5.428000000000005
  endloop
endfacet
facet normal 0.0 0.0 1.0
  outer loop
    vertex 899.2835341939166 672.9978451723256 5.428000000000005
    vertex 897.1493852971579 670.681948140083 5.428000000000005
    vertex 897.6228313989503 671.0452361113424 5.428000000000005
  endloop
endfacet
facet normal 0.0 0.0 1.0
  outer loop
    vertex 899.2835341939166 672.9978451723256 5.428000000000005
    vertex 897.6228313989503 671.0452361113424 5.428000000000005
    vertex 898.1741710618459 671.2736084771873 5.428000000000005
  endloop
endfacet
facet normal 0.0 0.0 1.0
  outer loop
    vertex 899.2835341939166 672.9978451723256 5.428000000000005
    vertex 898.1741710618459 671.2736084771873 5.428000000000005
    vertex 898.7658313989496 671.3515020382905 5.428000000000005
  endloop
endfacet
facet normal 0.0 0.0 1.0
  outer loop
    vertex 899.2835341939166 672.9978451723256 5.428000000000005
    vertex 898.7658313989496 671.3515020382905 5.428000000000005
    vertex 899.3574917360544 671.2736084771873 5.428000000000005
  endloop
endfacet
facet normal 0.0 0.0 1.0
  outer loop
    vertex 899.2835341939166 672.9978451723256 5.428000000000005
    vertex 899.3574917360544 671.2736084771873 5.428000000000005
    vertex 902.4301918469051 670.5833298332568 5.428000000000005
  endloop
endfacet
facet normal 0.0 0.0 1.0
  outer loop
    vertex 902.4301918469051 670.5833298332568 5.428000000000005
    vertex 899.3574917360544 671.2736084771873 5.428000000000005
    vertex 899.90883139895 671.0452361113424 5.428000000000005
  endloop
endfacet
facet normal 0.0 0.0 1.0
  outer loop
    vertex 902.4301918469051 670.5833298332568 5.428000000000005
    vertex 899.90883139895 671.0452361113424 5.428000000000005
    vertex 900.382277500742 670.681948140083 5.428000000000005
  endloop
endfacet
facet normal 0.0 0.0 1.0
  outer loop
    vertex 902.4301918469051 670.5833298332568 5.428000000000005
    vertex 900.382277500742 670.681948140083 5.428000000000005
    vertex 900.7455654720015 670.2085020382908 5.428000000000005
  endloop
endfacet
facet normal 0.0 0.0 1.0
  outer loop
    vertex 902.4301918469051 670.5833298332568 5.428000000000005
    vertex 900.7455654720015 670.2085020382908 5.428000000000005
    vertex 900.973937837847 669.6571623753953 5.428000000000005
  endloop
endfacet
facet normal 0.0 0.0 1.0
  outer loop
    vertex 902.4301918469051 670.5833298332568 5.428000000000005
    vertex 900.973937837847 669.6571623753953 5.428000000000005
    vertex 901.0518313989506 669.0655020382908 5.428000000000005
  endloop
endfacet
facet normal 0.0 0.0 1.0
  outer loop
    vertex 902.4301918469051 670.5833298332568 5.428000000000005
    vertex 901.0518313989506 669.0655020382908 5.428000000000005
    vertex 901.9124890519382 666.6509866992222 5.428000000000005
  endloop
endfacet
facet normal -0.38268343236506863 0.9238795325112956 0.0
  outer loop
    vertex 898.2481286039836 665.133158904256 10.000000000000007
    vertex 901.9124890519382 666.6509866992222 7.714000000000011
    vertex 898.2481286039836 665.133158904256 7.714000000000011
  endloop
endfacet
facet normal -0.38268343236506863 0.9238795325112956 0.0
  outer loop
    vertex 901.9124890519382 666.6509866992222 7.714000000000011
    vertex 898.2481286039836 665.133158904256 10.000000000000007
    vertex 901.9124890519382 666.6509866992222 10.000000000000007
  endloop
endfacet
facet normal 0.6087614290086452 -0.7933533402912931 0.0
  outer loop
    vertex 896.76558139895 672.5300366661305 1.9990000000000019
    vertex 895.9370507208134 671.8942827164274 -1.4299999999999968
    vertex 896.76558139895 672.5300366661305 -1.4299999999999968
  endloop
endfacet
facet normal 0.6087614290086452 -0.7933533402912931 0.0
  outer loop
    vertex 895.9370507208134 671.8942827164274 -1.4299999999999968
    vertex 896.76558139895 672.5300366661305 1.9990000000000019
    vertex 895.9370507208134 671.8942827164274 1.9990000000000019
  endloop
endfacet
facet normal 0.3826834323651109 -0.9238795325112782 0.0
  outer loop
    vertex 897.7304258090174 672.9296883063602 1.9990000000000019
    vertex 896.76558139895 672.5300366661305 -1.4299999999999968
    vertex 897.7304258090174 672.9296883063602 -1.4299999999999968
  endloop
endfacet
facet normal 0.3826834323651109 -0.9238795325112782 0.0
  outer loop
    vertex 896.76558139895 672.5300366661305 -1.4299999999999968
    vertex 897.7304258090174 672.9296883063602 1.9990000000000019
    vertex 896.76558139895 672.5300366661305 1.9990000000000019
  endloop
endfacet
facet normal 0.9238795325112782 0.3826834323651109 7.344376913653288e-15
  outer loop
    vertex 894.9016451308804 668.0300964483582 -1.4299999999999968
    vertex 895.3012967711104 667.0652520382906 1.9990000000000019
    vertex 895.3012967711104 667.0652520382906 -1.4299999999999968
  endloop
endfacet
facet normal 0.9238795325112782 0.3826834323651109 7.344376913653288e-15
  outer loop
    vertex 895.3012967711104 667.0652520382906 1.9990000000000019
    vertex 894.9016451308804 668.0300964483582 -1.4299999999999968
    vertex 895.1014709509957 667.5476742433246 1.9990000000000019
  endloop
endfacet
facet normal 0.9238795325112782 0.3826834323651109 7.344376913653288e-15
  outer loop
    vertex 895.1014709509957 667.5476742433246 1.9990000000000019
    vertex 894.9016451308804 668.0300964483582 -1.4299999999999968
    vertex 894.9016451308804 668.0300964483582 1.9990000000000019
  endloop
endfacet
facet normal 0.6087614290086452 0.7933533402912931 0.0
  outer loop
    vertex 895.9370507208134 666.2367213601542 1.9990000000000019
    vertex 896.76558139895 665.6009674104513 -1.4299999999999968
    vertex 895.9370507208134 666.2367213601542 -1.4299999999999968
  endloop
endfacet
facet normal 0.6087614290086452 0.7933533402912931 0.0
  outer loop
    vertex 896.76558139895 665.6009674104513 -1.4299999999999968
    vertex 895.9370507208134 666.2367213601542 1.9990000000000019
    vertex 896.76558139895 665.6009674104513 1.9990000000000019
  endloop
endfacet
facet normal -0.9238795325113176 0.3826834323650157 0.0
  outer loop
    vertex 893.3215626980593 672.208752038291 10.000000000000007
    vertex 892.6935386919832 670.6925679653276 -1.4299999999999968
    vertex 892.6935386919832 670.6925679653276 10.000000000000007
  endloop
endfacet
facet normal -0.9238795325113176 0.3826834323650157 0.0
  outer loop
    vertex 892.6935386919832 670.6925679653276 -1.4299999999999968
    vertex 893.3215626980593 672.208752038291 10.000000000000007
    vertex 893.3215626980593 672.208752038291 -1.4299999999999968
  endloop
endfacet
facet normal 0.3826834323651111 0.923879532511278 0.0
  outer loop
    vertex 896.76558139895 665.6009674104513 1.9990000000000019
    vertex 897.7304258090174 665.2013157702211 -1.4299999999999968
    vertex 896.76558139895 665.6009674104513 -1.4299999999999968
  endloop
endfacet
facet normal 0.3826834323651111 0.923879532511278 0.0
  outer loop
    vertex 897.7304258090174 665.2013157702211 -1.4299999999999968
    vertex 896.76558139895 665.6009674104513 1.9990000000000019
    vertex 897.7304258090174 665.2013157702211 1.9990000000000019
  endloop
endfacet
facet normal 0.13052619222004283 0.9914448613738117 1.3086471870795148e-15
  outer loop
    vertex 897.7304258090174 665.2013157702211 1.9990000000000019
    vertex 898.7658313989496 665.065002038291 -1.4299999999999968
    vertex 897.7304258090174 665.2013157702211 -1.4299999999999968
  endloop
endfacet
facet normal 0.13052619222004283 0.9914448613738117 1.3086471870795148e-15
  outer loop
    vertex 898.7658313989496 665.065002038291 -1.4299999999999968
    vertex 897.7304258090174 665.2013157702211 1.9990000000000019
    vertex 898.7658313989496 665.065002038291 1.9990000000000019
  endloop
endfacet
facet normal 0.13052619222004283 0.9914448613738117 1.3086471870795148e-15
  outer loop
    vertex 898.7658313989496 665.065002038291 1.9990000000000019
    vertex 897.7304258090174 665.2013157702211 1.9990000000000019
    vertex 898.2481286039836 665.133158904256 1.9990000000000019
  endloop
endfacet
facet normal -0.9914448613738082 0.13052619222007014 0.0
  outer loop
    vertex 902.4301918469051 670.5833298332568 10.000000000000007
    vertex 901.9124890519382 666.6509866992222 7.714000000000011
    vertex 901.9124890519382 666.6509866992222 10.000000000000007
  endloop
endfacet
facet normal -0.9914448613738082 0.13052619222007014 0.0
  outer loop
    vertex 901.9124890519382 666.6509866992222 7.714000000000011
    vertex 902.4301918469051 670.5833298332568 10.000000000000007
    vertex 902.4301918469051 670.5833298332568 7.714000000000011
  endloop
endfacet
facet normal -0.1305261922200428 0.9914448613738117 0.0
  outer loop
    vertex 898.7658313989496 665.065002038291 1.9990000000000019
    vertex 899.8012369888822 665.2013157702211 -1.4299999999999968
    vertex 898.7658313989496 665.065002038291 -1.4299999999999968
  endloop
endfacet
facet normal -0.1305261922200428 0.9914448613738117 0.0
  outer loop
    vertex 899.8012369888822 665.2013157702211 -1.4299999999999968
    vertex 898.7658313989496 665.065002038291 1.9990000000000019
    vertex 899.8012369888822 665.2013157702211 1.9990000000000019
  endloop
endfacet
facet normal -0.7933533402911976 0.6087614290087695 0.0
  outer loop
    vertex 894.3206046190205 673.5107288182201 10.000000000000007
    vertex 893.3215626980593 672.208752038291 -1.4299999999999968
    vertex 893.3215626980593 672.208752038291 10.000000000000007
  endloop
endfacet
facet normal -0.7933533402911976 0.6087614290087695 0.0
  outer loop
    vertex 893.3215626980593 672.208752038291 -1.4299999999999968
    vertex 894.3206046190205 673.5107288182201 10.000000000000007
    vertex 894.3206046190205 673.5107288182201 -1.4299999999999968
  endloop
endfacet
facet normal -0.6087614290086997 0.7933533402912512 0.0
  outer loop
    vertex 894.3206046190205 673.5107288182201 10.000000000000007
    vertex 895.6225813989506 674.5097707391817 -1.4299999999999968
    vertex 894.3206046190205 673.5107288182201 -1.4299999999999968
  endloop
endfacet
facet normal -0.6087614290086997 0.7933533402912512 0.0
  outer loop
    vertex 895.6225813989506 674.5097707391817 -1.4299999999999968
    vertex 894.3206046190205 673.5107288182201 10.000000000000007
    vertex 895.6225813989506 674.5097707391817 10.000000000000007
  endloop
endfacet
facet normal -0.6087614290086452 -0.7933533402912931 0.0
  outer loop
    vertex 901.5946120770872 671.8942827164274 1.9990000000000019
    vertex 900.7660813989505 672.5300366661305 -1.4299999999999968
    vertex 901.5946120770872 671.8942827164274 -1.4299999999999968
  endloop
endfacet
facet normal -0.6087614290086452 -0.7933533402912931 0.0
  outer loop
    vertex 900.7660813989505 672.5300366661305 -1.4299999999999968
    vertex 901.5946120770872 671.8942827164274 1.9990000000000019
    vertex 900.7660813989505 672.5300366661305 1.9990000000000019
  endloop
endfacet
facet normal -0.1305261922200665 -0.9914448613738086 0.0
  outer loop
    vertex 898.7658313989496 666.7795020382904 7.714000000000009
    vertex 898.1741710618459 666.8573955993938 5.428000000000005
    vertex 898.7658313989496 666.7795020382904 5.428000000000005
  endloop
endfacet
facet normal -0.1305261922200665 -0.9914448613738086 0.0
  outer loop
    vertex 898.1741710618459 666.8573955993938 5.428000000000005
    vertex 898.7658313989496 666.7795020382904 7.714000000000009
    vertex 898.1741710618459 666.8573955993938 7.714000000000009
  endloop
endfacet
facet normal 0.9238795325112643 0.3826834323651443 0.0
  outer loop
    vertex 900.7455654720015 670.2085020382908 5.428000000000005
    vertex 900.973937837847 669.6571623753953 7.714000000000009
    vertex 900.973937837847 669.6571623753953 5.428000000000005
  endloop
endfacet
facet normal 0.9238795325112643 0.3826834323651443 0.0
  outer loop
    vertex 900.973937837847 669.6571623753953 7.714000000000009
    vertex 900.7455654720015 670.2085020382908 5.428000000000005
    vertex 900.7455654720015 670.2085020382908 7.714000000000009
  endloop
endfacet
facet normal 0.9238795325112643 -0.3826834323651443 0.0
  outer loop
    vertex 900.973937837847 668.4738417011863 5.428000000000005
    vertex 900.7455654720015 667.9225020382909 7.714000000000009
    vertex 900.7455654720015 667.9225020382909 5.428000000000005
  endloop
endfacet
facet normal 0.9238795325112643 -0.3826834323651443 0.0
  outer loop
    vertex 900.7455654720015 667.9225020382909 7.714000000000009
    vertex 900.973937837847 668.4738417011863 5.428000000000005
    vertex 900.973937837847 668.4738417011863 7.714000000000009
  endloop
endfacet
facet normal 0.38268343236506863 -0.9238795325112956 0.0
  outer loop
    vertex 901.9124890519382 666.6509866992222 5.428000000000005
    vertex 898.2481286039836 665.133158904256 1.9990000000000019
    vertex 901.9124890519382 666.6509866992222 1.9990000000000019
  endloop
endfacet
facet normal 0.38268343236506863 -0.9238795325112956 0.0
  outer loop
    vertex 898.2481286039836 665.133158904256 1.9990000000000019
    vertex 901.9124890519382 666.6509866992222 5.428000000000005
    vertex 898.2481286039836 665.133158904256 5.428000000000005
  endloop
endfacet
facet normal -0.9914448613738076 0.13052619222007428 3.734739823941577e-30
  outer loop
    vertex 895.2921654825137 668.9961430153755 5.428000000000005
    vertex 895.1014709509957 667.5476742433246 1.9990000000000019
    vertex 895.1014709509957 667.5476742433246 5.428000000000005
  endloop
endfacet
facet normal -0.9914448613738076 0.13052619222007428 3.734739823941577e-30
  outer loop
    vertex 895.1014709509957 667.5476742433246 1.9990000000000019
    vertex 895.2921654825137 668.9961430153755 5.428000000000005
    vertex 895.2921654825137 668.9961430153755 1.9990000000000019
  endloop
endfacet
facet normal -0.9914448613738076 0.13052619222007428 3.734739823941577e-30
  outer loop
    vertex 895.2921654825137 668.9961430153755 1.9990000000000019
    vertex 895.2921654825137 668.9961430153755 5.428000000000005
    vertex 895.4284792144445 670.0315486053079 5.428000000000005
  endloop
endfacet
facet normal -0.9914448613738076 0.13052619222007428 3.734739823941577e-30
  outer loop
    vertex 895.2921654825137 668.9961430153755 1.9990000000000019
    vertex 895.4284792144445 670.0315486053079 5.428000000000005
    vertex 895.4284792144445 670.0315486053079 1.9990000000000019
  endloop
endfacet
facet normal -0.9914448613738076 0.13052619222007428 3.734739823941577e-30
  outer loop
    vertex 895.4284792144445 670.0315486053079 1.9990000000000019
    vertex 895.4284792144445 670.0315486053079 5.428000000000005
    vertex 895.6191737459621 671.4800173773593 5.428000000000005
  endloop
endfacet
facet normal -0.9914448613738076 0.13052619222007428 3.734739823941577e-30
  outer loop
    vertex 895.4284792144445 670.0315486053079 1.9990000000000019
    vertex 895.6191737459621 671.4800173773593 5.428000000000005
    vertex 895.6191737459621 671.4800173773593 1.9990000000000019
  endloop
endfacet
facet normal 0.9914448613738197 -0.13052619221998152 0.0
  outer loop
    vertex 901.0518313989506 669.0655020382908 5.428000000000005
    vertex 900.973937837847 668.4738417011863 7.714000000000009
    vertex 900.973937837847 668.4738417011863 5.428000000000005
  endloop
endfacet
facet normal 0.9914448613738197 -0.13052619221998152 0.0
  outer loop
    vertex 900.973937837847 668.4738417011863 7.714000000000009
    vertex 901.0518313989506 669.0655020382908 5.428000000000005
    vertex 901.0518313989506 669.0655020382908 7.714000000000009
  endloop
endfacet
facet normal 0.1305261922200665 -0.9914448613738086 0.0
  outer loop
    vertex 899.3574917360544 666.8573955993938 7.714000000000009
    vertex 898.7658313989496 666.7795020382904 5.428000000000005
    vertex 899.3574917360544 666.8573955993938 5.428000000000005
  endloop
endfacet
facet normal 0.1305261922200665 -0.9914448613738086 0.0
  outer loop
    vertex 898.7658313989496 666.7795020382904 5.428000000000005
    vertex 899.3574917360544 666.8573955993938 7.714000000000009
    vertex 898.7658313989496 666.7795020382904 7.714000000000009
  endloop
endfacet
facet normal 0.7933533402912519 -0.6087614290086988 0.0
  outer loop
    vertex 900.7455654720015 667.9225020382909 5.428000000000005
    vertex 900.382277500742 667.4490559364983 7.714000000000009
    vertex 900.382277500742 667.4490559364983 5.428000000000005
  endloop
endfacet
facet normal 0.7933533402912519 -0.6087614290086988 0.0
  outer loop
    vertex 900.382277500742 667.4490559364983 7.714000000000009
    vertex 900.7455654720015 667.9225020382909 5.428000000000005
    vertex 900.7455654720015 667.9225020382909 7.714000000000009
  endloop
endfacet
facet normal -0.6087614290087268 -0.7933533402912306 0.0
  outer loop
    vertex 898.2481286039836 665.133158904256 5.428000000000005
    vertex 895.1014709509957 667.5476742433246 1.9990000000000019
    vertex 898.2481286039836 665.133158904256 1.9990000000000019
  endloop
endfacet
facet normal -0.6087614290087268 -0.7933533402912306 0.0
  outer loop
    vertex 895.1014709509957 667.5476742433246 1.9990000000000019
    vertex 898.2481286039836 665.133158904256 5.428000000000005
    vertex 895.1014709509957 667.5476742433246 5.428000000000005
  endloop
endfacet
facet normal 0.9914448613738082 -0.13052619222007014 0.0
  outer loop
    vertex 902.4301918469051 670.5833298332568 1.9990000000000019
    vertex 901.9124890519382 666.6509866992222 5.428000000000005
    vertex 901.9124890519382 666.6509866992222 1.9990000000000019
  endloop
endfacet
facet normal 0.9914448613738082 -0.13052619222007014 0.0
  outer loop
    vertex 901.9124890519382 666.6509866992222 5.428000000000005
    vertex 902.4301918469051 670.5833298332568 1.9990000000000019
    vertex 902.4301918469051 670.5833298332568 5.428000000000005
  endloop
endfacet
facet normal 0.38268343236500973 -0.92387953251132 0.0
  outer loop
    vertex 899.90883139895 667.0857679652393 7.714000000000009
    vertex 899.3574917360544 666.8573955993938 5.428000000000005
    vertex 899.90883139895 667.0857679652393 5.428000000000005
  endloop
endfacet
facet normal 0.38268343236500973 -0.92387953251132 0.0
  outer loop
    vertex 899.3574917360544 666.8573955993938 5.428000000000005
    vertex 899.90883139895 667.0857679652393 7.714000000000009
    vertex 899.3574917360544 666.8573955993938 7.714000000000009
  endloop
endfacet
facet normal 0.9914448613738197 0.13052619221998152 0.0
  outer loop
    vertex 900.973937837847 669.6571623753953 5.428000000000005
    vertex 901.0518313989506 669.0655020382908 7.714000000000009
    vertex 901.0518313989506 669.0655020382908 5.428000000000005
  endloop
endfacet
facet normal 0.9914448613738197 0.13052619221998152 0.0
  outer loop
    vertex 901.0518313989506 669.0655020382908 7.714000000000009
    vertex 900.973937837847 669.6571623753953 5.428000000000005
    vertex 900.973937837847 669.6571623753953 7.714000000000009
  endloop
endfacet
facet normal 0.6087614290087268 0.7933533402912306 0.0
  outer loop
    vertex 899.2835341939166 672.9978451723256 5.428000000000005
    vertex 902.4301918469051 670.5833298332568 1.9990000000000019
    vertex 899.2835341939166 672.9978451723256 1.9990000000000019
  endloop
endfacet
facet normal 0.6087614290087268 0.7933533402912306 0.0
  outer loop
    vertex 902.4301918469051 670.5833298332568 1.9990000000000019
    vertex 899.2835341939166 672.9978451723256 5.428000000000005
    vertex 902.4301918469051 670.5833298332568 5.428000000000005
  endloop
endfacet
facet normal 0.0 0.0 1.0
  outer loop
    vertex 892.6935386919832 667.4384361112538 10.000000000000007
    vertex 892.6935386919832 670.6925679653276 10.000000000000007
    vertex 892.4793313989494 669.0655020382908 10.000000000000007
  endloop
endfacet
facet normal 0.0 0.0 1.0
  outer loop
    vertex 892.6935386919832 670.6925679653276 10.000000000000007
    vertex 892.6935386919832 667.4384361112538 10.000000000000007
    vertex 893.3215626980593 665.9222520382909 10.000000000000007
  endloop
endfacet
facet normal 0.0 0.0 1.0
  outer loop
    vertex 892.6935386919832 670.6925679653276 10.000000000000007
    vertex 893.3215626980593 665.9222520382909 10.000000000000007
    vertex 893.3215626980593 672.208752038291 10.000000000000007
  endloop
endfacet
facet normal 0.0 0.0 1.0
  outer loop
    vertex 893.3215626980593 672.208752038291 10.000000000000007
    vertex 893.3215626980593 665.9222520382909 10.000000000000007
    vertex 894.3206046190205 664.6202752583615 10.000000000000007
  endloop
endfacet
facet normal 0.0 0.0 1.0
  outer loop
    vertex 893.3215626980593 672.208752038291 10.000000000000007
    vertex 894.3206046190205 664.6202752583615 10.000000000000007
    vertex 894.3206046190205 673.5107288182201 10.000000000000007
  endloop
endfacet
facet normal 0.0 0.0 1.0
  outer loop
    vertex 894.3206046190205 673.5107288182201 10.000000000000007
    vertex 894.3206046190205 664.6202752583615 10.000000000000007
    vertex 895.1014709509957 667.5476742433246 10.000000000000007
  endloop
endfacet
facet normal 0.0 0.0 1.0
  outer loop
    vertex 895.1014709509957 667.5476742433246 10.000000000000007
    vertex 894.3206046190205 664.6202752583615 10.000000000000007
    vertex 895.6225813989497 663.6212333374001 10.000000000000007
  endloop
endfacet
facet normal 0.0 0.0 1.0
  outer loop
    vertex 895.1014709509957 667.5476742433246 10.000000000000007
    vertex 895.6225813989497 663.6212333374001 10.000000000000007
    vertex 898.2481286039836 665.133158904256 10.000000000000007
  endloop
endfacet
facet normal 0.0 0.0 1.0
  outer loop
    vertex 898.2481286039836 665.133158904256 10.000000000000007
    vertex 895.6225813989497 663.6212333374001 10.000000000000007
    vertex 897.1387654719128 662.9932093313245 10.000000000000007
  endloop
endfacet
facet normal 0.0 0.0 1.0
  outer loop
    vertex 898.2481286039836 665.133158904256 10.000000000000007
    vertex 897.1387654719128 662.9932093313245 10.000000000000007
    vertex 898.7658313989496 662.7790020382906 10.000000000000007
  endloop
endfacet
facet normal 0.0 0.0 1.0
  outer loop
    vertex 898.2481286039836 665.133158904256 10.000000000000007
    vertex 898.7658313989496 662.7790020382906 10.000000000000007
    vertex 901.9124890519382 666.6509866992222 10.000000000000007
  endloop
endfacet
facet normal 0.0 0.0 1.0
  outer loop
    vertex 901.9124890519382 666.6509866992222 10.000000000000007
    vertex 898.7658313989496 662.7790020382906 10.000000000000007
    vertex 900.3928973259871 662.9932093313245 10.000000000000007
  endloop
endfacet
facet normal 0.0 0.0 1.0
  outer loop
    vertex 901.9124890519382 666.6509866992222 10.000000000000007
    vertex 900.3928973259871 662.9932093313245 10.000000000000007
    vertex 901.9090813989494 663.6212333374001 10.000000000000007
  endloop
endfacet
facet normal 0.0 0.0 1.0
  outer loop
    vertex 901.9124890519382 666.6509866992222 10.000000000000007
    vertex 901.9090813989494 663.6212333374001 10.000000000000007
    vertex 903.2110581788791 664.6202752583614 10.000000000000007
  endloop
endfacet
facet normal 0.0 0.0 1.0
  outer loop
    vertex 901.9124890519382 666.6509866992222 10.000000000000007
    vertex 903.2110581788791 664.6202752583614 10.000000000000007
    vertex 902.4301918469051 670.5833298332568 10.000000000000007
  endloop
endfacet
facet normal 0.0 0.0 1.0
  outer loop
    vertex 895.1014709509957 667.5476742433246 10.000000000000007
    vertex 895.6225813989506 674.5097707391817 10.000000000000007
    vertex 894.3206046190205 673.5107288182201 10.000000000000007
  endloop
endfacet
facet normal 0.0 0.0 1.0
  outer loop
    vertex 895.6225813989506 674.5097707391817 10.000000000000007
    vertex 895.1014709509957 667.5476742433246 10.000000000000007
    vertex 895.2921654825137 668.9961430153755 10.000000000000007
  endloop
endfacet
facet normal 0.0 0.0 1.0
  outer loop
    vertex 895.6225813989506 674.5097707391817 10.000000000000007
    vertex 895.2921654825137 668.9961430153755 10.000000000000007
    vertex 895.4284792144445 670.0315486053079 10.000000000000007
  endloop
endfacet
facet normal 0.0 0.0 1.0
  outer loop
    vertex 895.6225813989506 674.5097707391817 10.000000000000007
    vertex 895.4284792144445 670.0315486053079 10.000000000000007
    vertex 895.6191737459621 671.4800173773593 10.000000000000007
  endloop
endfacet
facet normal 0.0 0.0 1.0
  outer loop
    vertex 895.6225813989506 674.5097707391817 10.000000000000007
    vertex 895.6191737459621 671.4800173773593 10.000000000000007
    vertex 899.2835341939166 672.9978451723256 10.000000000000007
  endloop
endfacet
facet normal 0.0 0.0 1.0
  outer loop
    vertex 895.6225813989506 674.5097707391817 10.000000000000007
    vertex 899.2835341939166 672.9978451723256 10.000000000000007
    vertex 897.1387654719128 675.137794745257 10.000000000000007
  endloop
endfacet
facet normal 0.0 0.0 1.0
  outer loop
    vertex 897.1387654719128 675.137794745257 10.000000000000007
    vertex 899.2835341939166 672.9978451723256 10.000000000000007
    vertex 898.7658313989496 675.3520020382907 10.000000000000007
  endloop
endfacet
facet normal 0.0 0.0 1.0
  outer loop
    vertex 898.7658313989496 675.3520020382907 10.000000000000007
    vertex 899.2835341939166 672.9978451723256 10.000000000000007
    vertex 900.3928973259871 675.137794745257 10.000000000000007
  endloop
endfacet
facet normal 0.0 0.0 1.0
  outer loop
    vertex 900.3928973259871 675.137794745257 10.000000000000007
    vertex 899.2835341939166 672.9978451723256 10.000000000000007
    vertex 902.4301918469051 670.5833298332568 10.000000000000007
  endloop
endfacet
facet normal 0.0 0.0 1.0
  outer loop
    vertex 900.3928973259871 675.137794745257 10.000000000000007
    vertex 902.4301918469051 670.5833298332568 10.000000000000007
    vertex 901.9090813989498 674.5097707391817 10.000000000000007
  endloop
endfacet
facet normal 0.0 0.0 1.0
  outer loop
    vertex 901.9090813989498 674.5097707391817 10.000000000000007
    vertex 902.4301918469051 670.5833298332568 10.000000000000007
    vertex 903.2110581788791 673.5107288182201 10.000000000000007
  endloop
endfacet
facet normal 0.0 0.0 1.0
  outer loop
    vertex 903.2110581788791 673.5107288182201 10.000000000000007
    vertex 902.4301918469051 670.5833298332568 10.000000000000007
    vertex 903.2110581788791 664.6202752583614 10.000000000000007
  endloop
endfacet
facet normal 0.0 0.0 1.0
  outer loop
    vertex 903.2110581788791 673.5107288182201 10.000000000000007
    vertex 903.2110581788791 664.6202752583614 10.000000000000007
    vertex 904.2101000998412 665.9222520382909 10.000000000000007
  endloop
endfacet
facet normal 0.0 0.0 1.0
  outer loop
    vertex 903.2110581788791 673.5107288182201 10.000000000000007
    vertex 904.2101000998412 665.9222520382909 10.000000000000007
    vertex 904.2101000998412 672.208752038291 10.000000000000007
  endloop
endfacet
facet normal 0.0 0.0 1.0
  outer loop
    vertex 904.2101000998412 672.208752038291 10.000000000000007
    vertex 904.2101000998412 665.9222520382909 10.000000000000007
    vertex 904.8381241059161 667.4384361112537 10.000000000000007
  endloop
endfacet
facet normal 0.0 0.0 1.0
  outer loop
    vertex 904.2101000998412 672.208752038291 10.000000000000007
    vertex 904.8381241059161 667.4384361112537 10.000000000000007
    vertex 904.8381241059161 670.6925679653276 10.000000000000007
  endloop
endfacet
facet normal 0.0 0.0 1.0
  outer loop
    vertex 904.8381241059161 670.6925679653276 10.000000000000007
    vertex 904.8381241059161 667.4384361112537 10.000000000000007
    vertex 905.0523313989501 669.0655020382908 10.000000000000007
  endloop
endfacet
facet normal 0.0 0.0 -1.0
  outer loop
    vertex 892.6935386919832 670.6925679653276 -1.4299999999999968
    vertex 892.6935386919832 667.4384361112538 -1.4299999999999968
    vertex 892.4793313989494 669.0655020382908 -1.4299999999999968
  endloop
endfacet
facet normal 0.0 0.0 -1.0
  outer loop
    vertex 892.6935386919832 667.4384361112538 -1.4299999999999968
    vertex 892.6935386919832 670.6925679653276 -1.4299999999999968
    vertex 893.3215626980593 672.208752038291 -1.4299999999999968
  endloop
endfacet
facet normal 0.0 0.0 -1.0
  outer loop
    vertex 892.6935386919832 667.4384361112538 -1.4299999999999968
    vertex 893.3215626980593 672.208752038291 -1.4299999999999968
    vertex 893.3215626980593 665.9222520382909 -1.4299999999999968
  endloop
endfacet
facet normal 0.0 0.0 -1.0
  outer loop
    vertex 893.3215626980593 665.9222520382909 -1.4299999999999968
    vertex 893.3215626980593 672.208752038291 -1.4299999999999968
    vertex 894.3206046190205 673.5107288182201 -1.4299999999999968
  endloop
endfacet
facet normal 0.0 0.0 -1.0
  outer loop
    vertex 893.3215626980593 665.9222520382909 -1.4299999999999968
    vertex 894.3206046190205 673.5107288182201 -1.4299999999999968
    vertex 894.3206046190205 664.6202752583615 -1.4299999999999968
  endloop
endfacet
facet normal 0.0 0.0 -1.0
  outer loop
    vertex 894.3206046190205 664.6202752583615 -1.4299999999999968
    vertex 894.3206046190205 673.5107288182201 -1.4299999999999968
    vertex 894.76533139895 669.0655020382908 -1.4299999999999968
  endloop
endfacet
facet normal 0.0 0.0 -1.0
  outer loop
    vertex 894.76533139895 669.0655020382908 -1.4299999999999968
    vertex 894.3206046190205 673.5107288182201 -1.4299999999999968
    vertex 894.9016451308804 670.1009076282234 -1.4299999999999968
  endloop
endfacet
facet normal 0.0 0.0 -1.0
  outer loop
    vertex 894.9016451308804 670.1009076282234 -1.4299999999999968
    vertex 894.3206046190205 673.5107288182201 -1.4299999999999968
    vertex 895.6225813989506 674.5097707391817 -1.4299999999999968
  endloop
endfacet
facet normal 0.0 0.0 -1.0
  outer loop
    vertex 894.9016451308804 670.1009076282234 -1.4299999999999968
    vertex 895.6225813989506 674.5097707391817 -1.4299999999999968
    vertex 895.3012967711104 671.065752038291 -1.4299999999999968
  endloop
endfacet
facet normal 0.0 0.0 -1.0
  outer loop
    vertex 895.3012967711104 671.065752038291 -1.4299999999999968
    vertex 895.6225813989506 674.5097707391817 -1.4299999999999968
    vertex 895.9370507208134 671.8942827164274 -1.4299999999999968
  endloop
endfacet
facet normal 0.0 0.0 -1.0
  outer loop
    vertex 895.9370507208134 671.8942827164274 -1.4299999999999968
    vertex 895.6225813989506 674.5097707391817 -1.4299999999999968
    vertex 897.1387654719128 675.137794745257 -1.4299999999999968
  endloop
endfacet
facet normal 0.0 0.0 -1.0
  outer loop
    vertex 895.9370507208134 671.8942827164274 -1.4299999999999968
    vertex 897.1387654719128 675.137794745257 -1.4299999999999968
    vertex 896.76558139895 672.5300366661305 -1.4299999999999968
  endloop
endfacet
facet normal 0.0 0.0 -1.0
  outer loop
    vertex 896.76558139895 672.5300366661305 -1.4299999999999968
    vertex 897.1387654719128 675.137794745257 -1.4299999999999968
    vertex 897.7304258090174 672.9296883063602 -1.4299999999999968
  endloop
endfacet
facet normal 0.0 0.0 -1.0
  outer loop
    vertex 897.7304258090174 672.9296883063602 -1.4299999999999968
    vertex 897.1387654719128 675.137794745257 -1.4299999999999968
    vertex 898.7658313989496 675.3520020382907 -1.4299999999999968
  endloop
endfacet
facet normal 0.0 0.0 -1.0
  outer loop
    vertex 897.7304258090174 672.9296883063602 -1.4299999999999968
    vertex 898.7658313989496 675.3520020382907 -1.4299999999999968
    vertex 898.7658313989496 673.0660020382908 -1.4299999999999968
  endloop
endfacet
facet normal 0.0 0.0 -1.0
  outer loop
    vertex 898.7658313989496 673.0660020382908 -1.4299999999999968
    vertex 898.7658313989496 675.3520020382907 -1.4299999999999968
    vertex 900.3928973259871 675.137794745257 -1.4299999999999968
  endloop
endfacet
facet normal 0.0 0.0 -1.0
  outer loop
    vertex 898.7658313989496 673.0660020382908 -1.4299999999999968
    vertex 900.3928973259871 675.137794745257 -1.4299999999999968
    vertex 899.8012369888822 672.9296883063602 -1.4299999999999968
  endloop
endfacet
facet normal 0.0 0.0 -1.0
  outer loop
    vertex 899.8012369888822 672.9296883063602 -1.4299999999999968
    vertex 900.3928973259871 675.137794745257 -1.4299999999999968
    vertex 900.7660813989505 672.5300366661305 -1.4299999999999968
  endloop
endfacet
facet normal 0.0 0.0 -1.0
  outer loop
    vertex 900.7660813989505 672.5300366661305 -1.4299999999999968
    vertex 900.3928973259871 675.137794745257 -1.4299999999999968
    vertex 901.9090813989498 674.5097707391817 -1.4299999999999968
  endloop
endfacet
facet normal 0.0 0.0 -1.0
  outer loop
    vertex 900.7660813989505 672.5300366661305 -1.4299999999999968
    vertex 901.9090813989498 674.5097707391817 -1.4299999999999968
    vertex 901.5946120770872 671.8942827164274 -1.4299999999999968
  endloop
endfacet
facet normal 0.0 0.0 -1.0
  outer loop
    vertex 901.5946120770872 671.8942827164274 -1.4299999999999968
    vertex 901.9090813989498 674.5097707391817 -1.4299999999999968
    vertex 902.2303660267893 671.065752038291 -1.4299999999999968
  endloop
endfacet
facet normal 0.0 0.0 -1.0
  outer loop
    vertex 902.2303660267893 671.065752038291 -1.4299999999999968
    vertex 901.9090813989498 674.5097707391817 -1.4299999999999968
    vertex 903.2110581788791 673.5107288182201 -1.4299999999999968
  endloop
endfacet
facet normal 0.0 0.0 -1.0
  outer loop
    vertex 902.2303660267893 671.065752038291 -1.4299999999999968
    vertex 903.2110581788791 673.5107288182201 -1.4299999999999968
    vertex 902.6300176670197 670.1009076282234 -1.4299999999999968
  endloop
endfacet
facet normal 0.0 0.0 -1.0
  outer loop
    vertex 902.6300176670197 670.1009076282234 -1.4299999999999968
    vertex 903.2110581788791 673.5107288182201 -1.4299999999999968
    vertex 902.7663313989508 669.0655020382908 -1.4299999999999968
  endloop
endfacet
facet normal 0.0 0.0 -1.0
  outer loop
    vertex 894.3206046190205 664.6202752583615 -1.4299999999999968
    vertex 894.9016451308804 668.0300964483582 -1.4299999999999968
    vertex 895.6225813989497 663.6212333374001 -1.4299999999999968
  endloop
endfacet
facet normal 0.0 0.0 -1.0
  outer loop
    vertex 894.9016451308804 668.0300964483582 -1.4299999999999968
    vertex 894.3206046190205 664.6202752583615 -1.4299999999999968
    vertex 894.76533139895 669.0655020382908 -1.4299999999999968
  endloop
endfacet
facet normal 0.0 0.0 -1.0
  outer loop
    vertex 895.6225813989497 663.6212333374001 -1.4299999999999968
    vertex 894.9016451308804 668.0300964483582 -1.4299999999999968
    vertex 895.3012967711104 667.0652520382906 -1.4299999999999968
  endloop
endfacet
facet normal 0.0 0.0 -1.0
  outer loop
    vertex 895.6225813989497 663.6212333374001 -1.4299999999999968
    vertex 895.3012967711104 667.0652520382906 -1.4299999999999968
    vertex 895.9370507208134 666.2367213601542 -1.4299999999999968
  endloop
endfacet
facet normal 0.0 0.0 -1.0
  outer loop
    vertex 895.6225813989497 663.6212333374001 -1.4299999999999968
    vertex 895.9370507208134 666.2367213601542 -1.4299999999999968
    vertex 897.1387654719128 662.9932093313245 -1.4299999999999968
  endloop
endfacet
facet normal 0.0 0.0 -1.0
  outer loop
    vertex 897.1387654719128 662.9932093313245 -1.4299999999999968
    vertex 895.9370507208134 666.2367213601542 -1.4299999999999968
    vertex 896.76558139895 665.6009674104513 -1.4299999999999968
  endloop
endfacet
facet normal 0.0 0.0 -1.0
  outer loop
    vertex 897.1387654719128 662.9932093313245 -1.4299999999999968
    vertex 896.76558139895 665.6009674104513 -1.4299999999999968
    vertex 897.7304258090174 665.2013157702211 -1.4299999999999968
  endloop
endfacet
facet normal 0.0 0.0 -1.0
  outer loop
    vertex 897.1387654719128 662.9932093313245 -1.4299999999999968
    vertex 897.7304258090174 665.2013157702211 -1.4299999999999968
    vertex 898.7658313989496 662.7790020382906 -1.4299999999999968
  endloop
endfacet
facet normal 0.0 0.0 -1.0
  outer loop
    vertex 898.7658313989496 662.7790020382906 -1.4299999999999968
    vertex 897.7304258090174 665.2013157702211 -1.4299999999999968
    vertex 898.7658313989496 665.065002038291 -1.4299999999999968
  endloop
endfacet
facet normal 0.0 0.0 -1.0
  outer loop
    vertex 898.7658313989496 662.7790020382906 -1.4299999999999968
    vertex 898.7658313989496 665.065002038291 -1.4299999999999968
    vertex 899.8012369888822 665.2013157702211 -1.4299999999999968
  endloop
endfacet
facet normal 0.0 0.0 -1.0
  outer loop
    vertex 898.7658313989496 662.7790020382906 -1.4299999999999968
    vertex 899.8012369888822 665.2013157702211 -1.4299999999999968
    vertex 900.3928973259871 662.9932093313245 -1.4299999999999968
  endloop
endfacet
facet normal 0.0 0.0 -1.0
  outer loop
    vertex 900.3928973259871 662.9932093313245 -1.4299999999999968
    vertex 899.8012369888822 665.2013157702211 -1.4299999999999968
    vertex 900.7660813989505 665.6009674104513 -1.4299999999999968
  endloop
endfacet
facet normal 0.0 0.0 -1.0
  outer loop
    vertex 900.3928973259871 662.9932093313245 -1.4299999999999968
    vertex 900.7660813989505 665.6009674104513 -1.4299999999999968
    vertex 901.9090813989494 663.6212333374001 -1.4299999999999968
  endloop
endfacet
facet normal 0.0 0.0 -1.0
  outer loop
    vertex 901.9090813989494 663.6212333374001 -1.4299999999999968
    vertex 900.7660813989505 665.6009674104513 -1.4299999999999968
    vertex 901.5946120770872 666.2367213601542 -1.4299999999999968
  endloop
endfacet
facet normal 0.0 0.0 -1.0
  outer loop
    vertex 901.9090813989494 663.6212333374001 -1.4299999999999968
    vertex 901.5946120770872 666.2367213601542 -1.4299999999999968
    vertex 902.2303660267893 667.0652520382906 -1.4299999999999968
  endloop
endfacet
facet normal 0.0 0.0 -1.0
  outer loop
    vertex 901.9090813989494 663.6212333374001 -1.4299999999999968
    vertex 902.2303660267893 667.0652520382906 -1.4299999999999968
    vertex 903.2110581788791 664.6202752583614 -1.4299999999999968
  endloop
endfacet
facet normal 0.0 0.0 -1.0
  outer loop
    vertex 903.2110581788791 664.6202752583614 -1.4299999999999968
    vertex 902.2303660267893 667.0652520382906 -1.4299999999999968
    vertex 902.6300176670197 668.0300964483582 -1.4299999999999968
  endloop
endfacet
facet normal 0.0 0.0 -1.0
  outer loop
    vertex 903.2110581788791 664.6202752583614 -1.4299999999999968
    vertex 902.6300176670197 668.0300964483582 -1.4299999999999968
    vertex 902.7663313989508 669.0655020382908 -1.4299999999999968
  endloop
endfacet
facet normal 0.0 0.0 -1.0
  outer loop
    vertex 903.2110581788791 664.6202752583614 -1.4299999999999968
    vertex 902.7663313989508 669.0655020382908 -1.4299999999999968
    vertex 903.2110581788791 673.5107288182201 -1.4299999999999968
  endloop
endfacet
facet normal 0.0 0.0 -1.0
  outer loop
    vertex 903.2110581788791 664.6202752583614 -1.4299999999999968
    vertex 903.2110581788791 673.5107288182201 -1.4299999999999968
    vertex 904.2101000998412 672.208752038291 -1.4299999999999968
  endloop
endfacet
facet normal 0.0 0.0 -1.0
  outer loop
    vertex 903.2110581788791 664.6202752583614 -1.4299999999999968
    vertex 904.2101000998412 672.208752038291 -1.4299999999999968
    vertex 904.2101000998412 665.9222520382909 -1.4299999999999968
  endloop
endfacet
facet normal 0.0 0.0 -1.0
  outer loop
    vertex 904.2101000998412 665.9222520382909 -1.4299999999999968
    vertex 904.2101000998412 672.208752038291 -1.4299999999999968
    vertex 904.8381241059161 670.6925679653276 -1.4299999999999968
  endloop
endfacet
facet normal 0.0 0.0 -1.0
  outer loop
    vertex 904.2101000998412 665.9222520382909 -1.4299999999999968
    vertex 904.8381241059161 670.6925679653276 -1.4299999999999968
    vertex 904.8381241059161 667.4384361112537 -1.4299999999999968
  endloop
endfacet
facet normal 0.0 0.0 -1.0
  outer loop
    vertex 904.8381241059161 667.4384361112537 -1.4299999999999968
    vertex 904.8381241059161 670.6925679653276 -1.4299999999999968
    vertex 905.0523313989501 669.0655020382908 -1.4299999999999968
  endloop
endfacet
facet normal 0.0 0.0 -1.0
  outer loop
    vertex 894.9016451308804 670.1009076282234 -1.4299999999999968
    vertex 895.2921654825137 668.9961430153755 -1.4299999999999968
    vertex 894.76533139895 669.0655020382908 -1.4299999999999968
  endloop
endfacet
facet normal 0.0 0.0 -1.0
  outer loop
    vertex 895.2921654825137 668.9961430153755 -1.4299999999999968
    vertex 894.9016451308804 670.1009076282234 -1.4299999999999968
    vertex 895.4284792144445 670.0315486053079 -1.4299999999999968
  endloop
endfacet
endsolid coupleur moteur
