solid coupleur moteur
facet normal 0.33968932830797366 -0.4426917515343438 0.8298404505428334
  outer loop
    vertex 1088.5258749394322 420.03981180081286 1.9999999999999907
    vertex 1096.7598936552 430.10706327426675 3.999999999999991
    vertex 1087.025874939432 422.63788801216594 3.999999999999991
  endloop
endfacet
facet normal 0.33968932830797366 -0.4426917515343438 0.8298404505428334
  outer loop
    vertex 1096.7598936552 430.10706327426675 3.999999999999991
    vertex 1088.5258749394322 420.03981180081286 1.9999999999999907
    vertex 1098.8812139987597 427.98574293070743 1.9999999999999907
  endloop
endfacet
facet normal 0.0728337119420099 -0.553226967028582 0.8298404505428165
  outer loop
    vertex 1063.5258749394325 413.3410819900348 1.9999999999999907
    vertex 1075.6903700592507 417.9425681544483 3.999999999999991
    vertex 1063.5258749394318 416.3410819900346 3.999999999999991
  endloop
endfacet
facet normal 0.0728337119420099 -0.553226967028582 0.8298404505428165
  outer loop
    vertex 1075.6903700592507 417.9425681544483 3.999999999999991
    vertex 1063.5258749394325 413.3410819900348 1.9999999999999907
    vertex 1076.4668271945584 415.04479067558134 1.9999999999999907
  endloop
endfacet
facet normal 0.44269175153430096 0.33968932830794674 0.8298404505428674
  outer loop
    vertex 1104.2290689173008 486.8410819900347 3.999999999999991
    vertex 1098.8812139987597 498.6964210493622 1.9999999999999907
    vertex 1096.7598936552 496.5751007058023 3.999999999999991
  endloop
endfacet
facet normal 0.44269175153430096 0.33968932830794674 0.8298404505428674
  outer loop
    vertex 1098.8812139987597 498.6964210493622 1.9999999999999907
    vertex 1104.2290689173008 486.8410819900347 3.999999999999991
    vertex 1106.8271451286544 488.3410819900348 1.9999999999999907
  endloop
endfacet
facet normal 0.5155254634763026 0.21353763872055725 0.8298404505428693
  outer loop
    vertex 1108.9243887750183 475.5055771098531 3.999999999999991
    vertex 1106.8271451286544 488.3410819900348 1.9999999999999907
    vertex 1104.2290689173008 486.8410819900347 3.999999999999991
  endloop
endfacet
facet normal 0.5155254634763026 0.21353763872055725 0.8298404505428693
  outer loop
    vertex 1106.8271451286544 488.3410819900348 1.9999999999999907
    vertex 1108.9243887750183 475.5055771098531 3.999999999999991
    vertex 1111.8221662538858 476.2820342451609 1.9999999999999907
  endloop
endfacet
facet normal 0.5155254634763204 -0.21353763872056533 0.829840450542856
  outer loop
    vertex 1106.8271451286544 438.3410819900348 1.9999999999999907
    vertex 1108.9243887750183 451.17658687021606 3.999999999999991
    vertex 1104.2290689173008 439.8410819900346 3.999999999999991
  endloop
endfacet
facet normal 0.5155254634763204 -0.21353763872056533 0.829840450542856
  outer loop
    vertex 1108.9243887750183 451.17658687021606 3.999999999999991
    vertex 1106.8271451286544 438.3410819900348 1.9999999999999907
    vertex 1111.8221662538858 450.4001297349087 1.9999999999999907
  endloop
endfacet
facet normal 0.21353763872058887 -0.5155254634763636 0.8298404505428234
  outer loop
    vertex 1076.4668271945584 415.04479067558134 1.9999999999999907
    vertex 1087.025874939432 422.63788801216594 3.999999999999991
    vertex 1075.6903700592507 417.9425681544483 3.999999999999991
  endloop
endfacet
facet normal 0.21353763872058887 -0.5155254634763636 0.8298404505428234
  outer loop
    vertex 1087.025874939432 422.63788801216594 3.999999999999991
    vertex 1076.4668271945584 415.04479067558134 1.9999999999999907
    vertex 1088.5258749394322 420.03981180081286 1.9999999999999907
  endloop
endfacet
facet normal 0.3396893283079435 0.44269175153429663 0.8298404505428708
  outer loop
    vertex 1096.7598936552 496.5751007058023 3.999999999999991
    vertex 1088.5258749394325 506.64235217925676 1.9999999999999907
    vertex 1087.025874939432 504.04427596790316 3.999999999999991
  endloop
endfacet
facet normal 0.3396893283079435 0.44269175153429663 0.8298404505428708
  outer loop
    vertex 1088.5258749394325 506.64235217925676 1.9999999999999907
    vertex 1096.7598936552 496.5751007058023 3.999999999999991
    vertex 1098.8812139987597 498.6964210493622 1.9999999999999907
  endloop
endfacet
facet normal 0.07283371194200336 0.5532269670285613 -0.8298404505428307
  outer loop
    vertex 1063.5258749394325 513.3410819900345 5.999999999999941
    vertex 1075.6903700592507 508.73959582562094 3.999999999999991
    vertex 1063.5258749394318 510.3410819900345 3.999999999999991
  endloop
endfacet
facet normal 0.07283371194200336 0.5532269670285613 -0.8298404505428307
  outer loop
    vertex 1075.6903700592507 508.73959582562094 3.999999999999991
    vertex 1063.5258749394325 513.3410819900345 5.999999999999941
    vertex 1076.4668271945584 511.6373733044879 5.999999999999942
  endloop
endfacet
facet normal 0.33968932830795306 -0.44269175153431345 -0.829840450542858
  outer loop
    vertex 1096.7598936552 430.10706327426675 3.999999999999991
    vertex 1088.5258749394325 420.0398118008125 6.0000000000000355
    vertex 1087.025874939432 422.63788801216594 3.999999999999991
  endloop
endfacet
facet normal 0.33968932830795306 -0.44269175153431345 -0.829840450542858
  outer loop
    vertex 1088.5258749394325 420.0398118008125 6.0000000000000355
    vertex 1096.7598936552 430.10706327426675 3.999999999999991
    vertex 1098.8812139987597 427.9857429307071 6.000000000000027
  endloop
endfacet
facet normal 0.5155254634763073 -0.21353763872056036 -0.8298404505428655
  outer loop
    vertex 1108.9243887750183 451.17658687021606 3.999999999999991
    vertex 1106.8271451286544 438.34108199003447 6.000000000000017
    vertex 1104.2290689173008 439.8410819900346 3.999999999999991
  endloop
endfacet
facet normal 0.5155254634763073 -0.21353763872056036 -0.8298404505428655
  outer loop
    vertex 1106.8271451286544 438.34108199003447 6.000000000000017
    vertex 1108.9243887750183 451.17658687021606 3.999999999999991
    vertex 1111.8221662538858 450.4001297349084 6.000000000000004
  endloop
endfacet
facet normal 0.3396893283079642 0.44269175153432727 -0.8298404505428459
  outer loop
    vertex 1088.5258749394322 506.6423521792564 5.9999999999999485
    vertex 1096.7598936552 496.5751007058023 3.999999999999991
    vertex 1087.025874939432 504.04427596790316 3.999999999999991
  endloop
endfacet
facet normal 0.3396893283079642 0.44269175153432727 -0.8298404505428459
  outer loop
    vertex 1096.7598936552 496.5751007058023 3.999999999999991
    vertex 1088.5258749394322 506.6423521792564 5.9999999999999485
    vertex 1098.8812139987597 498.69642104936185 5.999999999999956
  endloop
endfacet
facet normal 0.4426917515343121 -0.3396893283079528 -0.8298404505428587
  outer loop
    vertex 1104.2290689173008 439.8410819900346 3.999999999999991
    vertex 1098.8812139987597 427.9857429307071 6.000000000000027
    vertex 1096.7598936552 430.10706327426675 3.999999999999991
  endloop
endfacet
facet normal 0.4426917515343121 -0.3396893283079528 -0.8298404505428587
  outer loop
    vertex 1098.8812139987597 427.9857429307071 6.000000000000027
    vertex 1104.2290689173008 439.8410819900346 3.999999999999991
    vertex 1106.8271451286544 438.34108199003447 6.000000000000017
  endloop
endfacet
facet normal 0.213537638720585 0.5155254634763484 -0.8298404505428337
  outer loop
    vertex 1076.4668271945584 511.6373733044879 5.999999999999942
    vertex 1087.025874939432 504.04427596790316 3.999999999999991
    vertex 1075.6903700592507 508.73959582562094 3.999999999999991
  endloop
endfacet
facet normal 0.213537638720585 0.5155254634763484 -0.8298404505428337
  outer loop
    vertex 1087.025874939432 504.04427596790316 3.999999999999991
    vertex 1076.4668271945584 511.6373733044879 5.999999999999942
    vertex 1088.5258749394322 506.6423521792564 5.9999999999999485
  endloop
endfacet
facet normal 0.5155254634763153 0.21353763872056203 -0.8298404505428602
  outer loop
    vertex 1106.8271451286544 488.34108199003447 5.999999999999966
    vertex 1108.9243887750183 475.5055771098531 3.999999999999991
    vertex 1104.2290689173008 486.8410819900347 3.999999999999991
  endloop
endfacet
facet normal 0.5155254634763153 0.21353763872056203 -0.8298404505428602
  outer loop
    vertex 1108.9243887750183 475.5055771098531 3.999999999999991
    vertex 1106.8271451286544 488.34108199003447 5.999999999999966
    vertex 1111.8221662538858 476.2820342451605 5.999999999999979
  endloop
endfacet
facet normal -0.3396893283079814 0.4426917515343495 -0.8298404505428273
  outer loop
    vertex 1038.5258749394322 506.6423521792564 5.9999999999999485
    vertex 1030.2918562236644 496.5751007058023 3.999999999999991
    vertex 1028.170535880105 498.69642104936185 5.999999999999956
  endloop
endfacet
facet normal -0.3396893283079814 0.4426917515343495 -0.8298404505428273
  outer loop
    vertex 1030.2918562236644 496.5751007058023 3.999999999999991
    vertex 1038.5258749394322 506.6423521792564 5.9999999999999485
    vertex 1040.0258749394322 504.04427596790316 3.999999999999991
  endloop
endfacet
facet normal -0.4426917515343686 0.3396893283080021 -0.8298404505428086
  outer loop
    vertex 1028.170535880105 498.69642104936185 5.999999999999956
    vertex 1022.8226809615635 486.8410819900347 3.999999999999991
    vertex 1020.2246047502105 488.34108199003447 5.999999999999966
  endloop
endfacet
facet normal -0.4426917515343686 0.3396893283080021 -0.8298404505428086
  outer loop
    vertex 1022.8226809615635 486.8410819900347 3.999999999999991
    vertex 1028.170535880105 498.69642104936185 5.999999999999956
    vertex 1030.2918562236644 496.5751007058023 3.999999999999991
  endloop
endfacet
facet normal -0.5155254634763973 0.21353763872059509 -0.8298404505428006
  outer loop
    vertex 1020.2246047502105 488.34108199003447 5.999999999999966
    vertex 1018.1273611038459 475.5055771098531 3.999999999999991
    vertex 1015.2295836249791 476.28203424516045 5.999999999999979
  endloop
endfacet
facet normal -0.5155254634763973 0.21353763872059509 -0.8298404505428006
  outer loop
    vertex 1018.1273611038459 475.5055771098531 3.999999999999991
    vertex 1020.2246047502105 488.34108199003447 5.999999999999966
    vertex 1022.8226809615635 486.8410819900347 3.999999999999991
  endloop
endfacet
facet normal -0.07283371194200625 0.5532269670285718 -0.8298404505428236
  outer loop
    vertex 1063.5258749394325 513.3410819900345 5.999999999999941
    vertex 1051.3613798196138 508.73959582562094 3.999999999999991
    vertex 1050.5849226843063 511.6373733044879 5.999999999999942
  endloop
endfacet
facet normal -0.07283371194200625 0.5532269670285718 -0.8298404505428236
  outer loop
    vertex 1051.3613798196138 508.73959582562094 3.999999999999991
    vertex 1063.5258749394325 513.3410819900345 5.999999999999941
    vertex 1063.5258749394318 510.3410819900345 3.999999999999991
  endloop
endfacet
facet normal -0.5532269670285969 -0.07283371194201677 -0.829840450542806
  outer loop
    vertex 1016.5258749394321 463.34108199003464 3.999999999999991
    vertex 1015.2295836249791 450.4001297349084 6.000000000000004
    vertex 1013.5258749394325 463.34108199003447 5.999999999999992
  endloop
endfacet
facet normal -0.5532269670285969 -0.07283371194201677 -0.829840450542806
  outer loop
    vertex 1015.2295836249791 450.4001297349084 6.000000000000004
    vertex 1016.5258749394321 463.34108199003464 3.999999999999991
    vertex 1018.1273611038459 451.17658687021617 3.999999999999991
  endloop
endfacet
facet normal -0.3396893283079873 -0.44269175153435825 -0.82984045054282
  outer loop
    vertex 1030.2918562236644 430.10706327426675 3.999999999999991
    vertex 1038.5258749394325 420.0398118008125 6.0000000000000355
    vertex 1028.170535880105 427.9857429307071 6.000000000000027
  endloop
endfacet
facet normal -0.3396893283079873 -0.44269175153435825 -0.82984045054282
  outer loop
    vertex 1038.5258749394325 420.0398118008125 6.0000000000000355
    vertex 1030.2918562236644 430.10706327426675 3.999999999999991
    vertex 1040.0258749394322 422.63788801216594 3.999999999999991
  endloop
endfacet
facet normal 0.55322696702852 0.0728337119420096 -0.8298404505428578
  outer loop
    vertex 1111.8221662538858 476.2820342451605 5.999999999999979
    vertex 1110.5258749394322 463.34108199003464 3.999999999999991
    vertex 1108.9243887750183 475.5055771098531 3.999999999999991
  endloop
endfacet
facet normal 0.55322696702852 0.0728337119420096 -0.8298404505428578
  outer loop
    vertex 1110.5258749394322 463.34108199003464 3.999999999999991
    vertex 1111.8221662538858 476.2820342451605 5.999999999999979
    vertex 1113.5258749394325 463.34108199003447 5.999999999999992
  endloop
endfacet
facet normal 0.07283371194200505 -0.5532269670285453 -0.8298404505428413
  outer loop
    vertex 1075.6903700592507 417.9425681544483 3.999999999999991
    vertex 1063.5258749394325 413.34108199003447 6.000000000000042
    vertex 1063.5258749394318 416.3410819900346 3.999999999999991
  endloop
endfacet
facet normal 0.07283371194200505 -0.5532269670285453 -0.8298404505428413
  outer loop
    vertex 1063.5258749394325 413.34108199003447 6.000000000000042
    vertex 1075.6903700592507 417.9425681544483 3.999999999999991
    vertex 1076.4668271945584 415.044790675581 6.000000000000041
  endloop
endfacet
facet normal 0.4426917515343188 0.33968932830796006 -0.8298404505428524
  outer loop
    vertex 1098.8812139987597 498.69642104936185 5.999999999999956
    vertex 1104.2290689173008 486.8410819900347 3.999999999999991
    vertex 1096.7598936552 496.5751007058023 3.999999999999991
  endloop
endfacet
facet normal 0.4426917515343188 0.33968932830796006 -0.8298404505428524
  outer loop
    vertex 1104.2290689173008 486.8410819900347 3.999999999999991
    vertex 1098.8812139987597 498.69642104936185 5.999999999999956
    vertex 1106.8271451286544 488.34108199003447 5.999999999999966
  endloop
endfacet
facet normal -0.44269175153436174 -0.33968932830799464 -0.8298404505428153
  outer loop
    vertex 1022.8226809615635 439.8410819900346 3.999999999999991
    vertex 1028.170535880105 427.9857429307071 6.000000000000027
    vertex 1020.2246047502105 438.34108199003447 6.000000000000017
  endloop
endfacet
facet normal -0.44269175153436174 -0.33968932830799464 -0.8298404505428153
  outer loop
    vertex 1028.170535880105 427.9857429307071 6.000000000000027
    vertex 1022.8226809615635 439.8410819900346 3.999999999999991
    vertex 1030.2918562236644 430.10706327426675 3.999999999999991
  endloop
endfacet
facet normal -0.5532269670286013 0.07283371194201674 -0.829840450542803
  outer loop
    vertex 1015.2295836249791 476.28203424516045 5.999999999999979
    vertex 1016.5258749394321 463.34108199003464 3.999999999999991
    vertex 1013.5258749394325 463.34108199003447 5.999999999999992
  endloop
endfacet
facet normal -0.5532269670286013 0.07283371194201674 -0.829840450542803
  outer loop
    vertex 1016.5258749394321 463.34108199003464 3.999999999999991
    vertex 1015.2295836249791 476.28203424516045 5.999999999999979
    vertex 1018.1273611038459 475.5055771098531 3.999999999999991
  endloop
endfacet
facet normal -0.21353763872058612 -0.5155254634763614 -0.8298404505428253
  outer loop
    vertex 1040.0258749394322 422.63788801216594 3.999999999999991
    vertex 1050.5849226843063 415.044790675581 6.000000000000041
    vertex 1038.5258749394325 420.0398118008125 6.0000000000000355
  endloop
endfacet
facet normal -0.21353763872058612 -0.5155254634763614 -0.8298404505428253
  outer loop
    vertex 1050.5849226843063 415.044790675581 6.000000000000041
    vertex 1040.0258749394322 422.63788801216594 3.999999999999991
    vertex 1051.3613798196136 417.9425681544483 3.999999999999991
  endloop
endfacet
facet normal -0.21353763872058848 0.5155254634763567 -0.8298404505428275
  outer loop
    vertex 1050.5849226843063 511.6373733044879 5.999999999999942
    vertex 1040.0258749394322 504.04427596790316 3.999999999999991
    vertex 1038.5258749394322 506.6423521792564 5.9999999999999485
  endloop
endfacet
facet normal -0.21353763872058848 0.5155254634763567 -0.8298404505428275
  outer loop
    vertex 1040.0258749394322 504.04427596790316 3.999999999999991
    vertex 1050.5849226843063 511.6373733044879 5.999999999999942
    vertex 1051.3613798196138 508.73959582562094 3.999999999999991
  endloop
endfacet
facet normal 0.21353763872057227 -0.5155254634763282 -0.8298404505428494
  outer loop
    vertex 1087.025874939432 422.63788801216594 3.999999999999991
    vertex 1076.4668271945584 415.044790675581 6.000000000000041
    vertex 1075.6903700592507 417.9425681544483 3.999999999999991
  endloop
endfacet
facet normal 0.21353763872057227 -0.5155254634763282 -0.8298404505428494
  outer loop
    vertex 1076.4668271945584 415.044790675581 6.000000000000041
    vertex 1087.025874939432 422.63788801216594 3.999999999999991
    vertex 1088.5258749394325 420.0398118008125 6.0000000000000355
  endloop
endfacet
facet normal 0.0 1.0106430996148606e-15 1.0
  outer loop
    vertex 1063.5258749394325 413.34108199003447 6.000000000000042
    vertex 1059.5258749394325 463.34108199003447 5.999999999999992
    vertex 1050.5849226843063 415.044790675581 6.000000000000041
  endloop
endfacet
facet normal 0.0 1.0106430996148606e-15 1.0
  outer loop
    vertex 1059.5258749394325 463.34108199003447 5.999999999999992
    vertex 1063.5258749394325 413.34108199003447 6.000000000000042
    vertex 1061.5258749394322 459.87698037489673 5.999999999999992
  endloop
endfacet
facet normal 0.0 1.0106430996148606e-15 1.0
  outer loop
    vertex 1061.5258749394322 459.87698037489673 5.999999999999992
    vertex 1063.5258749394325 413.34108199003447 6.000000000000042
    vertex 1065.5258749394322 459.87698037489673 5.999999999999992
  endloop
endfacet
facet normal 0.0 1.0106430996148606e-15 1.0
  outer loop
    vertex 1065.5258749394322 459.87698037489673 5.999999999999992
    vertex 1063.5258749394325 413.34108199003447 6.000000000000042
    vertex 1076.4668271945584 415.044790675581 6.000000000000041
  endloop
endfacet
facet normal 0.0 1.0106430996148606e-15 1.0
  outer loop
    vertex 1065.5258749394322 459.87698037489673 5.999999999999992
    vertex 1076.4668271945584 415.044790675581 6.000000000000041
    vertex 1067.5258749394325 463.34108199003447 5.999999999999992
  endloop
endfacet
facet normal 0.0 1.0106430996148606e-15 1.0
  outer loop
    vertex 1015.2295836249791 450.4001297349084 6.000000000000004
    vertex 1015.2295836249791 476.28203424516045 5.999999999999979
    vertex 1013.5258749394325 463.34108199003447 5.999999999999992
  endloop
endfacet
facet normal 0.0 1.0106430996148606e-15 1.0
  outer loop
    vertex 1015.2295836249791 476.28203424516045 5.999999999999979
    vertex 1015.2295836249791 450.4001297349084 6.000000000000004
    vertex 1020.2246047502105 438.34108199003447 6.000000000000017
  endloop
endfacet
facet normal 0.0 1.0106430996148606e-15 1.0
  outer loop
    vertex 1015.2295836249791 476.28203424516045 5.999999999999979
    vertex 1020.2246047502105 438.34108199003447 6.000000000000017
    vertex 1020.2246047502105 488.34108199003447 5.999999999999966
  endloop
endfacet
facet normal 0.0 1.0106430996148606e-15 1.0
  outer loop
    vertex 1020.2246047502105 488.34108199003447 5.999999999999966
    vertex 1020.2246047502105 438.34108199003447 6.000000000000017
    vertex 1028.170535880105 427.9857429307071 6.000000000000027
  endloop
endfacet
facet normal 0.0 1.0106430996148606e-15 1.0
  outer loop
    vertex 1020.2246047502105 488.34108199003447 5.999999999999966
    vertex 1028.170535880105 427.9857429307071 6.000000000000027
    vertex 1028.170535880105 498.69642104936185 5.999999999999956
  endloop
endfacet
facet normal 0.0 1.0106430996148606e-15 1.0
  outer loop
    vertex 1028.170535880105 498.69642104936185 5.999999999999956
    vertex 1028.170535880105 427.9857429307071 6.000000000000027
    vertex 1038.5258749394325 420.0398118008125 6.0000000000000355
  endloop
endfacet
facet normal 0.0 1.0106430996148606e-15 1.0
  outer loop
    vertex 1028.170535880105 498.69642104936185 5.999999999999956
    vertex 1038.5258749394325 420.0398118008125 6.0000000000000355
    vertex 1038.5258749394322 506.6423521792564 5.9999999999999485
  endloop
endfacet
facet normal 0.0 1.0106430996148606e-15 1.0
  outer loop
    vertex 1038.5258749394322 506.6423521792564 5.9999999999999485
    vertex 1038.5258749394325 420.0398118008125 6.0000000000000355
    vertex 1050.5849226843063 511.6373733044879 5.999999999999942
  endloop
endfacet
facet normal 0.0 1.0106430996148606e-15 1.0
  outer loop
    vertex 1050.5849226843063 511.6373733044879 5.999999999999942
    vertex 1038.5258749394325 420.0398118008125 6.0000000000000355
    vertex 1050.5849226843063 415.044790675581 6.000000000000041
  endloop
endfacet
facet normal 0.0 1.0106430996148606e-15 1.0
  outer loop
    vertex 1050.5849226843063 511.6373733044879 5.999999999999942
    vertex 1050.5849226843063 415.044790675581 6.000000000000041
    vertex 1063.5258749394325 513.3410819900345 5.999999999999941
  endloop
endfacet
facet normal 0.0 1.0106430996148606e-15 1.0
  outer loop
    vertex 1063.5258749394325 513.3410819900345 5.999999999999941
    vertex 1050.5849226843063 415.044790675581 6.000000000000041
    vertex 1059.5258749394325 463.34108199003447 5.999999999999992
  endloop
endfacet
facet normal 0.0 1.0106430996148606e-15 1.0
  outer loop
    vertex 1063.5258749394325 513.3410819900345 5.999999999999941
    vertex 1059.5258749394325 463.34108199003447 5.999999999999992
    vertex 1061.5258749394325 466.8051836051722 5.999999999999992
  endloop
endfacet
facet normal 0.0 1.0106430996148606e-15 1.0
  outer loop
    vertex 1063.5258749394325 513.3410819900345 5.999999999999941
    vertex 1061.5258749394325 466.8051836051722 5.999999999999992
    vertex 1065.5258749394325 466.8051836051722 5.999999999999992
  endloop
endfacet
facet normal 0.0 1.0106430996148606e-15 1.0
  outer loop
    vertex 1063.5258749394325 513.3410819900345 5.999999999999941
    vertex 1065.5258749394325 466.8051836051722 5.999999999999992
    vertex 1076.4668271945584 511.6373733044879 5.999999999999942
  endloop
endfacet
facet normal 0.0 1.0106430996148606e-15 1.0
  outer loop
    vertex 1076.4668271945584 511.6373733044879 5.999999999999942
    vertex 1065.5258749394325 466.8051836051722 5.999999999999992
    vertex 1067.5258749394325 463.34108199003447 5.999999999999992
  endloop
endfacet
facet normal 0.0 1.0106430996148606e-15 1.0
  outer loop
    vertex 1076.4668271945584 511.6373733044879 5.999999999999942
    vertex 1067.5258749394325 463.34108199003447 5.999999999999992
    vertex 1076.4668271945584 415.044790675581 6.000000000000041
  endloop
endfacet
facet normal 0.0 1.0106430996148606e-15 1.0
  outer loop
    vertex 1076.4668271945584 511.6373733044879 5.999999999999942
    vertex 1076.4668271945584 415.044790675581 6.000000000000041
    vertex 1088.5258749394325 420.0398118008125 6.0000000000000355
  endloop
endfacet
facet normal 0.0 1.0106430996148606e-15 1.0
  outer loop
    vertex 1076.4668271945584 511.6373733044879 5.999999999999942
    vertex 1088.5258749394325 420.0398118008125 6.0000000000000355
    vertex 1088.5258749394322 506.6423521792564 5.9999999999999485
  endloop
endfacet
facet normal 0.0 1.0106430996148606e-15 1.0
  outer loop
    vertex 1088.5258749394322 506.6423521792564 5.9999999999999485
    vertex 1088.5258749394325 420.0398118008125 6.0000000000000355
    vertex 1098.8812139987597 498.69642104936185 5.999999999999956
  endloop
endfacet
facet normal 0.0 1.0106430996148606e-15 1.0
  outer loop
    vertex 1098.8812139987597 498.69642104936185 5.999999999999956
    vertex 1088.5258749394325 420.0398118008125 6.0000000000000355
    vertex 1098.8812139987597 427.9857429307071 6.000000000000027
  endloop
endfacet
facet normal 0.0 1.0106430996148606e-15 1.0
  outer loop
    vertex 1098.8812139987597 498.69642104936185 5.999999999999956
    vertex 1098.8812139987597 427.9857429307071 6.000000000000027
    vertex 1106.8271451286544 438.34108199003447 6.000000000000017
  endloop
endfacet
facet normal 0.0 1.0106430996148606e-15 1.0
  outer loop
    vertex 1098.8812139987597 498.69642104936185 5.999999999999956
    vertex 1106.8271451286544 438.34108199003447 6.000000000000017
    vertex 1106.8271451286544 488.34108199003447 5.999999999999966
  endloop
endfacet
facet normal 0.0 1.0106430996148606e-15 1.0
  outer loop
    vertex 1106.8271451286544 488.34108199003447 5.999999999999966
    vertex 1106.8271451286544 438.34108199003447 6.000000000000017
    vertex 1111.8221662538858 450.4001297349084 6.000000000000004
  endloop
endfacet
facet normal 0.0 1.0106430996148606e-15 1.0
  outer loop
    vertex 1106.8271451286544 488.34108199003447 5.999999999999966
    vertex 1111.8221662538858 450.4001297349084 6.000000000000004
    vertex 1111.8221662538858 476.2820342451605 5.999999999999979
  endloop
endfacet
facet normal 0.0 1.0106430996148606e-15 1.0
  outer loop
    vertex 1111.8221662538858 476.2820342451605 5.999999999999979
    vertex 1111.8221662538858 450.4001297349084 6.000000000000004
    vertex 1113.5258749394325 463.34108199003447 5.999999999999992
  endloop
endfacet
facet normal 0.553226967028517 -0.07283371194200985 -0.8298404505428599
  outer loop
    vertex 1110.5258749394322 463.34108199003464 3.999999999999991
    vertex 1111.8221662538858 450.4001297349084 6.000000000000004
    vertex 1108.9243887750183 451.17658687021606 3.999999999999991
  endloop
endfacet
facet normal 0.553226967028517 -0.07283371194200985 -0.8298404505428599
  outer loop
    vertex 1111.8221662538858 450.4001297349084 6.000000000000004
    vertex 1110.5258749394322 463.34108199003464 3.999999999999991
    vertex 1113.5258749394325 463.34108199003447 5.999999999999992
  endloop
endfacet
facet normal -0.07283371194200833 -0.5532269670285589 -0.8298404505428322
  outer loop
    vertex 1051.3613798196136 417.9425681544483 3.999999999999991
    vertex 1063.5258749394325 413.34108199003447 6.000000000000042
    vertex 1050.5849226843063 415.044790675581 6.000000000000041
  endloop
endfacet
facet normal -0.07283371194200833 -0.5532269670285589 -0.8298404505428322
  outer loop
    vertex 1063.5258749394325 413.34108199003447 6.000000000000042
    vertex 1051.3613798196136 417.9425681544483 3.999999999999991
    vertex 1063.5258749394318 416.3410819900346 3.999999999999991
  endloop
endfacet
facet normal -0.5155254634763854 -0.21353763872059198 -0.8298404505428091
  outer loop
    vertex 1018.1273611038459 451.17658687021617 3.999999999999991
    vertex 1020.2246047502105 438.34108199003447 6.000000000000017
    vertex 1015.2295836249791 450.4001297349084 6.000000000000004
  endloop
endfacet
facet normal -0.5155254634763854 -0.21353763872059198 -0.8298404505428091
  outer loop
    vertex 1020.2246047502105 438.34108199003447 6.000000000000017
    vertex 1018.1273611038459 451.17658687021617 3.999999999999991
    vertex 1022.8226809615635 439.8410819900346 3.999999999999991
  endloop
endfacet
facet normal -0.3396893283080033 -0.4426917515343746 0.8298404505428049
  outer loop
    vertex 1038.5258749394322 420.03981180081286 1.9999999999999907
    vertex 1030.2918562236644 430.10706327426675 3.999999999999991
    vertex 1028.170535880105 427.98574293070743 1.9999999999999907
  endloop
endfacet
facet normal -0.3396893283080033 -0.4426917515343746 0.8298404505428049
  outer loop
    vertex 1030.2918562236644 430.10706327426675 3.999999999999991
    vertex 1038.5258749394322 420.03981180081286 1.9999999999999907
    vertex 1040.0258749394322 422.63788801216594 3.999999999999991
  endloop
endfacet
facet normal -0.07283371194201244 -0.5532269670285939 0.8298404505428083
  outer loop
    vertex 1063.5258749394325 413.3410819900348 1.9999999999999907
    vertex 1051.3613798196136 417.9425681544483 3.999999999999991
    vertex 1050.5849226843063 415.04479067558134 1.9999999999999907
  endloop
endfacet
facet normal -0.07283371194201244 -0.5532269670285939 0.8298404505428083
  outer loop
    vertex 1051.3613798196136 417.9425681544483 3.999999999999991
    vertex 1063.5258749394325 413.3410819900348 1.9999999999999907
    vertex 1063.5258749394318 416.3410819900346 3.999999999999991
  endloop
endfacet
facet normal -0.44269175153438 -0.3396893283080083 0.8298404505427998
  outer loop
    vertex 1028.170535880105 427.98574293070743 1.9999999999999907
    vertex 1022.8226809615635 439.8410819900346 3.999999999999991
    vertex 1020.2246047502105 438.3410819900348 1.9999999999999907
  endloop
endfacet
facet normal -0.44269175153438 -0.3396893283080083 0.8298404505427998
  outer loop
    vertex 1022.8226809615635 439.8410819900346 3.999999999999991
    vertex 1028.170535880105 427.98574293070743 1.9999999999999907
    vertex 1030.2918562236644 430.10706327426675 3.999999999999991
  endloop
endfacet
facet normal -0.5155254634764005 -0.2135376387205969 0.8298404505427982
  outer loop
    vertex 1020.2246047502105 438.3410819900348 1.9999999999999907
    vertex 1018.1273611038459 451.17658687021617 3.999999999999991
    vertex 1015.2295836249791 450.40012973490883 1.9999999999999907
  endloop
endfacet
facet normal -0.5155254634764005 -0.2135376387205969 0.8298404505427982
  outer loop
    vertex 1018.1273611038459 451.17658687021617 3.999999999999991
    vertex 1020.2246047502105 438.3410819900348 1.9999999999999907
    vertex 1022.8226809615635 439.8410819900346 3.999999999999991
  endloop
endfacet
facet normal 0.38268343236520824 0.9238795325112379 -9.763736256900591e-16
  outer loop
    vertex 1062.4508749394324 461.47912737189785 3.9999999999999942
    vertex 1062.969413992462 461.26434146351306 2.000000000000019
    vertex 1062.4508749394324 461.479127371898 2.000000000000019
  endloop
endfacet
facet normal 0.38268343236520824 0.9238795325112379 -9.763736256900591e-16
  outer loop
    vertex 1062.969413992462 461.26434146351306 2.000000000000019
    vertex 1062.4508749394324 461.47912737189785 3.9999999999999942
    vertex 1062.969413992462 461.2643414635129 3.9999999999999942
  endloop
endfacet
facet normal 0.6087614290086459 0.7933533402912927 -8.384310400383356e-16
  outer loop
    vertex 1062.0055953598812 461.8208024104834 3.9999999999999942
    vertex 1062.4508749394324 461.479127371898 2.000000000000019
    vertex 1062.0055953598812 461.82080241048357 2.000000000000019
  endloop
endfacet
facet normal 0.6087614290086459 0.7933533402912927 -8.384310400383356e-16
  outer loop
    vertex 1062.4508749394324 461.479127371898 2.000000000000019
    vertex 1062.0055953598812 461.8208024104834 3.9999999999999942
    vertex 1062.4508749394324 461.47912737189785 3.9999999999999942
  endloop
endfacet
facet normal -0.38268343236509456 0.923879532511285 -9.763736256901098e-16
  outer loop
    vertex 1064.082335886403 461.2643414635129 3.9999999999999942
    vertex 1064.6008749394325 461.479127371898 2.000000000000019
    vertex 1064.082335886403 461.26434146351306 2.000000000000019
  endloop
endfacet
facet normal -0.38268343236509456 0.923879532511285 -9.763736256901098e-16
  outer loop
    vertex 1064.6008749394325 461.479127371898 2.000000000000019
    vertex 1064.082335886403 461.2643414635129 3.9999999999999942
    vertex 1064.6008749394325 461.47912737189785 3.9999999999999942
  endloop
endfacet
facet normal -0.9914448613737945 0.13052619222017361 -1.3794258565196566e-16
  outer loop
    vertex 1065.6758749394326 463.34108199003447 3.9999999999999925
    vertex 1065.602615465954 462.78462104306425 2.000000000000019
    vertex 1065.602615465954 462.784621043064 3.9999999999999925
  endloop
endfacet
facet normal -0.9914448613737945 0.13052619222017361 -1.3794258565196566e-16
  outer loop
    vertex 1065.602615465954 462.78462104306425 2.000000000000019
    vertex 1065.6758749394326 463.34108199003447 3.9999999999999925
    vertex 1065.6758749394326 463.34108199003464 2.000000000000019
  endloop
endfacet
facet normal -0.9238795325113417 0.3826834323649572 -4.044271977040966e-16
  outer loop
    vertex 1065.602615465954 462.784621043064 3.9999999999999925
    vertex 1065.387829557569 462.2660819900346 2.000000000000019
    vertex 1065.387829557569 462.2660819900344 3.9999999999999942
  endloop
endfacet
facet normal -0.9238795325113417 0.3826834323649572 -4.044271977040966e-16
  outer loop
    vertex 1065.387829557569 462.2660819900346 2.000000000000019
    vertex 1065.602615465954 462.784621043064 3.9999999999999925
    vertex 1065.602615465954 462.78462104306425 2.000000000000019
  endloop
endfacet
facet normal 0.13052619221999476 0.9914448613738179 -1.0477779622848806e-15
  outer loop
    vertex 1062.969413992462 461.2643414635129 3.9999999999999942
    vertex 1063.5258749394325 461.1910819900346 2.000000000000019
    vertex 1062.969413992462 461.26434146351306 2.000000000000019
  endloop
endfacet
facet normal 0.13052619221999476 0.9914448613738179 -1.0477779622848806e-15
  outer loop
    vertex 1063.5258749394325 461.1910819900346 2.000000000000019
    vertex 1062.969413992462 461.2643414635129 3.9999999999999942
    vertex 1063.5258749394325 461.1910819900344 3.9999999999999942
  endloop
endfacet
facet normal -0.9914448613737945 -0.13052619222017361 1.3794258565196377e-16
  outer loop
    vertex 1065.602615465954 463.89754293700486 3.999999999999991
    vertex 1065.6758749394326 463.34108199003464 2.000000000000019
    vertex 1065.6758749394326 463.34108199003447 3.9999999999999925
  endloop
endfacet
facet normal -0.9914448613737945 -0.13052619222017361 1.3794258565196377e-16
  outer loop
    vertex 1065.6758749394326 463.34108199003464 2.000000000000019
    vertex 1065.602615465954 463.89754293700486 3.999999999999991
    vertex 1065.602615465954 463.897542937005 2.000000000000019
  endloop
endfacet
facet normal -0.793353340291251 0.6087614290087 -6.433507645806161e-16
  outer loop
    vertex 1065.387829557569 462.2660819900344 3.9999999999999942
    vertex 1065.0461545189835 461.82080241048357 2.000000000000019
    vertex 1065.0461545189835 461.8208024104834 3.9999999999999942
  endloop
endfacet
facet normal -0.793353340291251 0.6087614290087 -6.433507645806161e-16
  outer loop
    vertex 1065.0461545189835 461.82080241048357 2.000000000000019
    vertex 1065.387829557569 462.2660819900344 3.9999999999999942
    vertex 1065.387829557569 462.2660819900346 2.000000000000019
  endloop
endfacet
facet normal -0.6087614290088013 0.7933533402911735 -8.384310400382108e-16
  outer loop
    vertex 1064.6008749394325 461.47912737189785 3.9999999999999942
    vertex 1065.0461545189835 461.82080241048357 2.000000000000019
    vertex 1064.6008749394325 461.479127371898 2.000000000000019
  endloop
endfacet
facet normal -0.6087614290088013 0.7933533402911735 -8.384310400382108e-16
  outer loop
    vertex 1065.0461545189835 461.82080241048357 2.000000000000019
    vertex 1064.6008749394325 461.47912737189785 3.9999999999999942
    vertex 1065.0461545189835 461.8208024104834 3.9999999999999942
  endloop
endfacet
facet normal -0.13052619221999476 0.9914448613738179 -1.0477779622848808e-15
  outer loop
    vertex 1063.5258749394325 461.1910819900344 3.9999999999999942
    vertex 1064.082335886403 461.26434146351306 2.000000000000019
    vertex 1063.5258749394325 461.1910819900346 2.000000000000019
  endloop
endfacet
facet normal -0.13052619221999476 0.9914448613738179 -1.0477779622848808e-15
  outer loop
    vertex 1064.082335886403 461.26434146351306 2.000000000000019
    vertex 1063.5258749394325 461.1910819900344 3.9999999999999942
    vertex 1064.082335886403 461.2643414635129 3.9999999999999942
  endloop
endfacet
facet normal 0.8660254037844282 -0.5000000000000185 -0.0
  outer loop
    vertex 1061.5258749394325 466.8051836051722 3.9999999999999925
    vertex 1059.5258749394325 463.34108199003447 5.999999999999992
    vertex 1059.5258749394325 463.34108199003447 3.9999999999999925
  endloop
endfacet
facet normal 0.8660254037844282 -0.5000000000000185 -0.0
  outer loop
    vertex 1059.5258749394325 463.34108199003447 5.999999999999992
    vertex 1061.5258749394325 466.8051836051722 3.9999999999999925
    vertex 1061.5258749394325 466.8051836051722 5.999999999999992
  endloop
endfacet
facet normal 0.8660254037844476 0.4999999999999846 0.0
  outer loop
    vertex 1059.5258749394325 463.34108199003447 3.9999999999999925
    vertex 1061.5258749394322 459.87698037489673 5.999999999999992
    vertex 1061.5258749394322 459.87698037489673 3.9999999999999925
  endloop
endfacet
facet normal 0.8660254037844476 0.4999999999999846 0.0
  outer loop
    vertex 1061.5258749394322 459.87698037489673 5.999999999999992
    vertex 1059.5258749394325 463.34108199003447 3.9999999999999925
    vertex 1059.5258749394325 463.34108199003447 5.999999999999992
  endloop
endfacet
facet normal -0.0 1.0 -0.0
  outer loop
    vertex 1061.5258749394322 459.87698037489673 5.999999999999992
    vertex 1065.5258749394322 459.87698037489673 3.9999999999999925
    vertex 1061.5258749394322 459.87698037489673 3.9999999999999925
  endloop
endfacet
facet normal -0.0 1.0 -0.0
  outer loop
    vertex 1065.5258749394322 459.87698037489673 3.9999999999999925
    vertex 1061.5258749394322 459.87698037489673 5.999999999999992
    vertex 1065.5258749394322 459.87698037489673 5.999999999999992
  endloop
endfacet
facet normal 0.0 0.0 1.0
  outer loop
    vertex 1061.5258749394322 459.87698037489673 3.9999999999999925
    vertex 1061.3758749394324 463.34108199003447 3.9999999999999925
    vertex 1059.5258749394325 463.34108199003447 3.9999999999999925
  endloop
endfacet
facet normal 0.0 0.0 1.0
  outer loop
    vertex 1061.3758749394324 463.34108199003447 3.9999999999999925
    vertex 1061.5258749394322 459.87698037489673 3.9999999999999925
    vertex 1061.449134412911 462.784621043064 3.9999999999999925
  endloop
endfacet
facet normal 0.0 0.0 1.0
  outer loop
    vertex 1061.449134412911 462.784621043064 3.9999999999999925
    vertex 1061.5258749394322 459.87698037489673 3.9999999999999925
    vertex 1061.6639203212958 462.2660819900344 3.9999999999999942
  endloop
endfacet
facet normal 0.0 0.0 1.0
  outer loop
    vertex 1061.6639203212958 462.2660819900344 3.9999999999999942
    vertex 1061.5258749394322 459.87698037489673 3.9999999999999925
    vertex 1062.0055953598812 461.8208024104834 3.9999999999999942
  endloop
endfacet
facet normal 0.0 0.0 1.0
  outer loop
    vertex 1062.0055953598812 461.8208024104834 3.9999999999999942
    vertex 1061.5258749394322 459.87698037489673 3.9999999999999925
    vertex 1062.4508749394324 461.47912737189785 3.9999999999999942
  endloop
endfacet
facet normal 0.0 0.0 1.0
  outer loop
    vertex 1062.4508749394324 461.47912737189785 3.9999999999999942
    vertex 1061.5258749394322 459.87698037489673 3.9999999999999925
    vertex 1065.5258749394322 459.87698037489673 3.9999999999999925
  endloop
endfacet
facet normal 0.0 0.0 1.0
  outer loop
    vertex 1062.4508749394324 461.47912737189785 3.9999999999999942
    vertex 1065.5258749394322 459.87698037489673 3.9999999999999925
    vertex 1062.969413992462 461.2643414635129 3.9999999999999942
  endloop
endfacet
facet normal 0.0 0.0 1.0
  outer loop
    vertex 1062.969413992462 461.2643414635129 3.9999999999999942
    vertex 1065.5258749394322 459.87698037489673 3.9999999999999925
    vertex 1063.5258749394325 461.1910819900344 3.9999999999999942
  endloop
endfacet
facet normal 0.0 0.0 1.0
  outer loop
    vertex 1063.5258749394325 461.1910819900344 3.9999999999999942
    vertex 1065.5258749394322 459.87698037489673 3.9999999999999925
    vertex 1064.082335886403 461.2643414635129 3.9999999999999942
  endloop
endfacet
facet normal 0.0 0.0 1.0
  outer loop
    vertex 1064.082335886403 461.2643414635129 3.9999999999999942
    vertex 1065.5258749394322 459.87698037489673 3.9999999999999925
    vertex 1064.6008749394325 461.47912737189785 3.9999999999999942
  endloop
endfacet
facet normal 0.0 0.0 1.0
  outer loop
    vertex 1064.6008749394325 461.47912737189785 3.9999999999999942
    vertex 1065.5258749394322 459.87698037489673 3.9999999999999925
    vertex 1065.0461545189835 461.8208024104834 3.9999999999999942
  endloop
endfacet
facet normal 0.0 0.0 1.0
  outer loop
    vertex 1065.0461545189835 461.8208024104834 3.9999999999999942
    vertex 1065.5258749394322 459.87698037489673 3.9999999999999925
    vertex 1065.387829557569 462.2660819900344 3.9999999999999942
  endloop
endfacet
facet normal 0.0 0.0 1.0
  outer loop
    vertex 1065.387829557569 462.2660819900344 3.9999999999999942
    vertex 1065.5258749394322 459.87698037489673 3.9999999999999925
    vertex 1065.602615465954 462.784621043064 3.9999999999999925
  endloop
endfacet
facet normal 0.0 0.0 1.0
  outer loop
    vertex 1065.602615465954 462.784621043064 3.9999999999999925
    vertex 1065.5258749394322 459.87698037489673 3.9999999999999925
    vertex 1067.5258749394325 463.34108199003447 3.9999999999999925
  endloop
endfacet
facet normal 0.0 0.0 1.0
  outer loop
    vertex 1065.602615465954 462.784621043064 3.9999999999999925
    vertex 1067.5258749394325 463.34108199003447 3.9999999999999925
    vertex 1065.6758749394326 463.34108199003447 3.9999999999999925
  endloop
endfacet
facet normal 0.0 0.0 1.0
  outer loop
    vertex 1061.3758749394324 463.34108199003447 3.9999999999999925
    vertex 1061.5258749394325 466.8051836051722 3.9999999999999925
    vertex 1059.5258749394325 463.34108199003447 3.9999999999999925
  endloop
endfacet
facet normal 0.0 0.0 1.0
  outer loop
    vertex 1061.5258749394325 466.8051836051722 3.9999999999999925
    vertex 1061.3758749394324 463.34108199003447 3.9999999999999925
    vertex 1061.449134412911 463.89754293700486 3.999999999999991
  endloop
endfacet
facet normal 0.0 0.0 1.0
  outer loop
    vertex 1061.5258749394325 466.8051836051722 3.9999999999999925
    vertex 1061.449134412911 463.89754293700486 3.999999999999991
    vertex 1061.6639203212958 464.41608199003446 3.999999999999991
  endloop
endfacet
facet normal 0.0 0.0 1.0
  outer loop
    vertex 1061.5258749394325 466.8051836051722 3.9999999999999925
    vertex 1061.6639203212958 464.41608199003446 3.999999999999991
    vertex 1062.0055953598812 464.86136156958554 3.999999999999991
  endloop
endfacet
facet normal 0.0 0.0 1.0
  outer loop
    vertex 1061.5258749394325 466.8051836051722 3.9999999999999925
    vertex 1062.0055953598812 464.86136156958554 3.999999999999991
    vertex 1062.4508749394322 465.20303660817103 3.99999999999999
  endloop
endfacet
facet normal 0.0 0.0 1.0
  outer loop
    vertex 1061.5258749394325 466.8051836051722 3.9999999999999925
    vertex 1062.4508749394322 465.20303660817103 3.99999999999999
    vertex 1065.5258749394325 466.8051836051722 3.9999999999999925
  endloop
endfacet
facet normal 0.0 0.0 1.0
  outer loop
    vertex 1065.5258749394325 466.8051836051722 3.9999999999999925
    vertex 1062.4508749394322 465.20303660817103 3.99999999999999
    vertex 1062.969413992462 465.41782251655604 3.99999999999999
  endloop
endfacet
facet normal 0.0 0.0 1.0
  outer loop
    vertex 1065.5258749394325 466.8051836051722 3.9999999999999925
    vertex 1062.969413992462 465.41782251655604 3.99999999999999
    vertex 1063.5258749394325 465.4910819900345 3.99999999999999
  endloop
endfacet
facet normal 0.0 0.0 1.0
  outer loop
    vertex 1065.5258749394325 466.8051836051722 3.9999999999999925
    vertex 1063.5258749394325 465.4910819900345 3.99999999999999
    vertex 1064.082335886403 465.41782251655604 3.99999999999999
  endloop
endfacet
facet normal 0.0 0.0 1.0
  outer loop
    vertex 1065.5258749394325 466.8051836051722 3.9999999999999925
    vertex 1064.082335886403 465.41782251655604 3.99999999999999
    vertex 1064.6008749394323 465.20303660817103 3.99999999999999
  endloop
endfacet
facet normal 0.0 0.0 1.0
  outer loop
    vertex 1065.5258749394325 466.8051836051722 3.9999999999999925
    vertex 1064.6008749394323 465.20303660817103 3.99999999999999
    vertex 1065.0461545189835 464.86136156958554 3.999999999999991
  endloop
endfacet
facet normal 0.0 0.0 1.0
  outer loop
    vertex 1065.5258749394325 466.8051836051722 3.9999999999999925
    vertex 1065.0461545189835 464.86136156958554 3.999999999999991
    vertex 1065.387829557569 464.41608199003446 3.999999999999991
  endloop
endfacet
facet normal 0.0 0.0 1.0
  outer loop
    vertex 1065.5258749394325 466.8051836051722 3.9999999999999925
    vertex 1065.387829557569 464.41608199003446 3.999999999999991
    vertex 1065.602615465954 463.89754293700486 3.999999999999991
  endloop
endfacet
facet normal 0.0 0.0 1.0
  outer loop
    vertex 1065.5258749394325 466.8051836051722 3.9999999999999925
    vertex 1065.602615465954 463.89754293700486 3.999999999999991
    vertex 1067.5258749394325 463.34108199003447 3.9999999999999925
  endloop
endfacet
facet normal 0.0 0.0 1.0
  outer loop
    vertex 1067.5258749394325 463.34108199003447 3.9999999999999925
    vertex 1065.602615465954 463.89754293700486 3.999999999999991
    vertex 1065.6758749394326 463.34108199003447 3.9999999999999925
  endloop
endfacet
facet normal -0.8660254037844476 -0.4999999999999846 -0.0
  outer loop
    vertex 1065.5258749394325 466.8051836051722 5.999999999999992
    vertex 1067.5258749394325 463.34108199003447 3.9999999999999925
    vertex 1067.5258749394325 463.34108199003447 5.999999999999992
  endloop
endfacet
facet normal -0.8660254037844476 -0.4999999999999846 -0.0
  outer loop
    vertex 1067.5258749394325 463.34108199003447 3.9999999999999925
    vertex 1065.5258749394325 466.8051836051722 5.999999999999992
    vertex 1065.5258749394325 466.8051836051722 3.9999999999999925
  endloop
endfacet
facet normal -0.0 -1.0 -0.0
  outer loop
    vertex 1065.5258749394325 466.8051836051722 5.999999999999992
    vertex 1061.5258749394325 466.8051836051722 3.9999999999999925
    vertex 1065.5258749394325 466.8051836051722 3.9999999999999925
  endloop
endfacet
facet normal -0.0 -1.0 -0.0
  outer loop
    vertex 1061.5258749394325 466.8051836051722 3.9999999999999925
    vertex 1065.5258749394325 466.8051836051722 5.999999999999992
    vertex 1061.5258749394325 466.8051836051722 5.999999999999992
  endloop
endfacet
facet normal -0.8660254037844282 0.5000000000000185 -0.0
  outer loop
    vertex 1067.5258749394325 463.34108199003447 5.999999999999992
    vertex 1065.5258749394322 459.87698037489673 3.9999999999999925
    vertex 1065.5258749394322 459.87698037489673 5.999999999999992
  endloop
endfacet
facet normal -0.8660254037844282 0.5000000000000185 -0.0
  outer loop
    vertex 1065.5258749394322 459.87698037489673 3.9999999999999925
    vertex 1067.5258749394325 463.34108199003447 5.999999999999992
    vertex 1067.5258749394325 463.34108199003447 3.9999999999999925
  endloop
endfacet
facet normal 0.0 0.0 -1.0
  outer loop
    vertex 1063.5258749394325 513.3410819900348 1.9999999999999907
    vertex 1061.3758749394324 463.34108199003464 2.000000000000019
    vertex 1050.5849226843063 511.6373733044883 1.9999999999999907
  endloop
endfacet
facet normal 0.0 0.0 -1.0
  outer loop
    vertex 1061.3758749394324 463.34108199003464 2.000000000000019
    vertex 1063.5258749394325 513.3410819900348 1.9999999999999907
    vertex 1061.449134412911 463.897542937005 2.000000000000019
  endloop
endfacet
facet normal 0.0 0.0 -1.0
  outer loop
    vertex 1061.449134412911 463.897542937005 2.000000000000019
    vertex 1063.5258749394325 513.3410819900348 1.9999999999999907
    vertex 1061.6639203212958 464.4160819900347 2.000000000000019
  endloop
endfacet
facet normal 0.0 0.0 -1.0
  outer loop
    vertex 1061.6639203212958 464.4160819900347 2.000000000000019
    vertex 1063.5258749394325 513.3410819900348 1.9999999999999907
    vertex 1062.0055953598812 464.8613615695857 2.000000000000019
  endloop
endfacet
facet normal 0.0 0.0 -1.0
  outer loop
    vertex 1062.0055953598812 464.8613615695857 2.000000000000019
    vertex 1063.5258749394325 513.3410819900348 1.9999999999999907
    vertex 1062.4508749394322 465.2030366081712 2.0000000000000075
  endloop
endfacet
facet normal 0.0 0.0 -1.0
  outer loop
    vertex 1062.4508749394322 465.2030366081712 2.0000000000000075
    vertex 1063.5258749394325 513.3410819900348 1.9999999999999907
    vertex 1062.969413992462 465.4178225165562 2.0000000000000075
  endloop
endfacet
facet normal 0.0 0.0 -1.0
  outer loop
    vertex 1062.969413992462 465.4178225165562 2.0000000000000075
    vertex 1063.5258749394325 513.3410819900348 1.9999999999999907
    vertex 1063.5258749394325 465.4910819900347 2.0000000000000075
  endloop
endfacet
facet normal 0.0 0.0 -1.0
  outer loop
    vertex 1063.5258749394325 465.4910819900347 2.0000000000000075
    vertex 1063.5258749394325 513.3410819900348 1.9999999999999907
    vertex 1076.4668271945584 511.6373733044883 1.9999999999999907
  endloop
endfacet
facet normal 0.0 0.0 -1.0
  outer loop
    vertex 1063.5258749394325 465.4910819900347 2.0000000000000075
    vertex 1076.4668271945584 511.6373733044883 1.9999999999999907
    vertex 1064.082335886403 465.4178225165562 2.0000000000000075
  endloop
endfacet
facet normal 0.0 0.0 -1.0
  outer loop
    vertex 1064.082335886403 465.4178225165562 2.0000000000000075
    vertex 1076.4668271945584 511.6373733044883 1.9999999999999907
    vertex 1064.6008749394323 465.2030366081712 2.0000000000000075
  endloop
endfacet
facet normal 0.0 0.0 -1.0
  outer loop
    vertex 1064.6008749394323 465.2030366081712 2.0000000000000075
    vertex 1076.4668271945584 511.6373733044883 1.9999999999999907
    vertex 1065.0461545189835 464.8613615695857 2.000000000000019
  endloop
endfacet
facet normal 0.0 0.0 -1.0
  outer loop
    vertex 1065.0461545189835 464.8613615695857 2.000000000000019
    vertex 1076.4668271945584 511.6373733044883 1.9999999999999907
    vertex 1065.387829557569 464.4160819900347 2.000000000000019
  endloop
endfacet
facet normal 0.0 0.0 -1.0
  outer loop
    vertex 1065.387829557569 464.4160819900347 2.000000000000019
    vertex 1076.4668271945584 511.6373733044883 1.9999999999999907
    vertex 1065.602615465954 463.897542937005 2.000000000000019
  endloop
endfacet
facet normal 0.0 0.0 -1.0
  outer loop
    vertex 1065.602615465954 463.897542937005 2.000000000000019
    vertex 1076.4668271945584 511.6373733044883 1.9999999999999907
    vertex 1065.6758749394326 463.34108199003464 2.000000000000019
  endloop
endfacet
facet normal 0.0 0.0 -1.0
  outer loop
    vertex 1015.2295836249791 476.2820342451609 1.9999999999999907
    vertex 1015.2295836249791 450.40012973490883 1.9999999999999907
    vertex 1013.5258749394325 463.3410819900348 1.9999999999999907
  endloop
endfacet
facet normal 0.0 0.0 -1.0
  outer loop
    vertex 1015.2295836249791 450.40012973490883 1.9999999999999907
    vertex 1015.2295836249791 476.2820342451609 1.9999999999999907
    vertex 1020.2246047502105 488.3410819900348 1.9999999999999907
  endloop
endfacet
facet normal 0.0 0.0 -1.0
  outer loop
    vertex 1015.2295836249791 450.40012973490883 1.9999999999999907
    vertex 1020.2246047502105 488.3410819900348 1.9999999999999907
    vertex 1020.2246047502105 438.3410819900348 1.9999999999999907
  endloop
endfacet
facet normal 0.0 0.0 -1.0
  outer loop
    vertex 1020.2246047502105 438.3410819900348 1.9999999999999907
    vertex 1020.2246047502105 488.3410819900348 1.9999999999999907
    vertex 1028.170535880105 498.6964210493622 1.9999999999999907
  endloop
endfacet
facet normal 0.0 0.0 -1.0
  outer loop
    vertex 1020.2246047502105 438.3410819900348 1.9999999999999907
    vertex 1028.170535880105 498.6964210493622 1.9999999999999907
    vertex 1028.170535880105 427.98574293070743 1.9999999999999907
  endloop
endfacet
facet normal 0.0 0.0 -1.0
  outer loop
    vertex 1028.170535880105 427.98574293070743 1.9999999999999907
    vertex 1028.170535880105 498.6964210493622 1.9999999999999907
    vertex 1038.5258749394325 506.64235217925676 1.9999999999999907
  endloop
endfacet
facet normal 0.0 0.0 -1.0
  outer loop
    vertex 1028.170535880105 427.98574293070743 1.9999999999999907
    vertex 1038.5258749394325 506.64235217925676 1.9999999999999907
    vertex 1038.5258749394322 420.03981180081286 1.9999999999999907
  endloop
endfacet
facet normal 0.0 0.0 -1.0
  outer loop
    vertex 1038.5258749394322 420.03981180081286 1.9999999999999907
    vertex 1038.5258749394325 506.64235217925676 1.9999999999999907
    vertex 1050.5849226843063 415.04479067558134 1.9999999999999907
  endloop
endfacet
facet normal 0.0 0.0 -1.0
  outer loop
    vertex 1050.5849226843063 415.04479067558134 1.9999999999999907
    vertex 1038.5258749394325 506.64235217925676 1.9999999999999907
    vertex 1050.5849226843063 511.6373733044883 1.9999999999999907
  endloop
endfacet
facet normal 0.0 0.0 -1.0
  outer loop
    vertex 1050.5849226843063 415.04479067558134 1.9999999999999907
    vertex 1050.5849226843063 511.6373733044883 1.9999999999999907
    vertex 1063.5258749394325 413.3410819900348 1.9999999999999907
  endloop
endfacet
facet normal 0.0 0.0 -1.0
  outer loop
    vertex 1063.5258749394325 413.3410819900348 1.9999999999999907
    vertex 1050.5849226843063 511.6373733044883 1.9999999999999907
    vertex 1061.3758749394324 463.34108199003464 2.000000000000019
  endloop
endfacet
facet normal 0.0 0.0 -1.0
  outer loop
    vertex 1063.5258749394325 413.3410819900348 1.9999999999999907
    vertex 1061.3758749394324 463.34108199003464 2.000000000000019
    vertex 1061.449134412911 462.78462104306425 2.000000000000019
  endloop
endfacet
facet normal 0.0 0.0 -1.0
  outer loop
    vertex 1063.5258749394325 413.3410819900348 1.9999999999999907
    vertex 1061.449134412911 462.78462104306425 2.000000000000019
    vertex 1061.6639203212958 462.2660819900346 2.000000000000019
  endloop
endfacet
facet normal 0.0 0.0 -1.0
  outer loop
    vertex 1063.5258749394325 413.3410819900348 1.9999999999999907
    vertex 1061.6639203212958 462.2660819900346 2.000000000000019
    vertex 1062.0055953598812 461.82080241048357 2.000000000000019
  endloop
endfacet
facet normal 0.0 0.0 -1.0
  outer loop
    vertex 1063.5258749394325 413.3410819900348 1.9999999999999907
    vertex 1062.0055953598812 461.82080241048357 2.000000000000019
    vertex 1062.4508749394324 461.479127371898 2.000000000000019
  endloop
endfacet
facet normal 0.0 0.0 -1.0
  outer loop
    vertex 1063.5258749394325 413.3410819900348 1.9999999999999907
    vertex 1062.4508749394324 461.479127371898 2.000000000000019
    vertex 1062.969413992462 461.26434146351306 2.000000000000019
  endloop
endfacet
facet normal 0.0 0.0 -1.0
  outer loop
    vertex 1063.5258749394325 413.3410819900348 1.9999999999999907
    vertex 1062.969413992462 461.26434146351306 2.000000000000019
    vertex 1063.5258749394325 461.1910819900346 2.000000000000019
  endloop
endfacet
facet normal 0.0 0.0 -1.0
  outer loop
    vertex 1063.5258749394325 413.3410819900348 1.9999999999999907
    vertex 1063.5258749394325 461.1910819900346 2.000000000000019
    vertex 1064.082335886403 461.26434146351306 2.000000000000019
  endloop
endfacet
facet normal 0.0 0.0 -1.0
  outer loop
    vertex 1063.5258749394325 413.3410819900348 1.9999999999999907
    vertex 1064.082335886403 461.26434146351306 2.000000000000019
    vertex 1076.4668271945584 415.04479067558134 1.9999999999999907
  endloop
endfacet
facet normal 0.0 0.0 -1.0
  outer loop
    vertex 1076.4668271945584 415.04479067558134 1.9999999999999907
    vertex 1064.082335886403 461.26434146351306 2.000000000000019
    vertex 1064.6008749394325 461.479127371898 2.000000000000019
  endloop
endfacet
facet normal 0.0 0.0 -1.0
  outer loop
    vertex 1076.4668271945584 415.04479067558134 1.9999999999999907
    vertex 1064.6008749394325 461.479127371898 2.000000000000019
    vertex 1065.0461545189835 461.82080241048357 2.000000000000019
  endloop
endfacet
facet normal 0.0 0.0 -1.0
  outer loop
    vertex 1076.4668271945584 415.04479067558134 1.9999999999999907
    vertex 1065.0461545189835 461.82080241048357 2.000000000000019
    vertex 1065.387829557569 462.2660819900346 2.000000000000019
  endloop
endfacet
facet normal 0.0 0.0 -1.0
  outer loop
    vertex 1076.4668271945584 415.04479067558134 1.9999999999999907
    vertex 1065.387829557569 462.2660819900346 2.000000000000019
    vertex 1065.602615465954 462.78462104306425 2.000000000000019
  endloop
endfacet
facet normal 0.0 0.0 -1.0
  outer loop
    vertex 1076.4668271945584 415.04479067558134 1.9999999999999907
    vertex 1065.602615465954 462.78462104306425 2.000000000000019
    vertex 1065.6758749394326 463.34108199003464 2.000000000000019
  endloop
endfacet
facet normal 0.0 0.0 -1.0
  outer loop
    vertex 1076.4668271945584 415.04479067558134 1.9999999999999907
    vertex 1065.6758749394326 463.34108199003464 2.000000000000019
    vertex 1076.4668271945584 511.6373733044883 1.9999999999999907
  endloop
endfacet
facet normal 0.0 0.0 -1.0
  outer loop
    vertex 1076.4668271945584 415.04479067558134 1.9999999999999907
    vertex 1076.4668271945584 511.6373733044883 1.9999999999999907
    vertex 1088.5258749394325 506.64235217925676 1.9999999999999907
  endloop
endfacet
facet normal 0.0 0.0 -1.0
  outer loop
    vertex 1076.4668271945584 415.04479067558134 1.9999999999999907
    vertex 1088.5258749394325 506.64235217925676 1.9999999999999907
    vertex 1088.5258749394322 420.03981180081286 1.9999999999999907
  endloop
endfacet
facet normal 0.0 0.0 -1.0
  outer loop
    vertex 1088.5258749394322 420.03981180081286 1.9999999999999907
    vertex 1088.5258749394325 506.64235217925676 1.9999999999999907
    vertex 1098.8812139987597 427.98574293070743 1.9999999999999907
  endloop
endfacet
facet normal 0.0 0.0 -1.0
  outer loop
    vertex 1098.8812139987597 427.98574293070743 1.9999999999999907
    vertex 1088.5258749394325 506.64235217925676 1.9999999999999907
    vertex 1098.8812139987597 498.6964210493622 1.9999999999999907
  endloop
endfacet
facet normal 0.0 0.0 -1.0
  outer loop
    vertex 1098.8812139987597 427.98574293070743 1.9999999999999907
    vertex 1098.8812139987597 498.6964210493622 1.9999999999999907
    vertex 1106.8271451286544 488.3410819900348 1.9999999999999907
  endloop
endfacet
facet normal 0.0 0.0 -1.0
  outer loop
    vertex 1098.8812139987597 427.98574293070743 1.9999999999999907
    vertex 1106.8271451286544 488.3410819900348 1.9999999999999907
    vertex 1106.8271451286544 438.3410819900348 1.9999999999999907
  endloop
endfacet
facet normal 0.0 0.0 -1.0
  outer loop
    vertex 1106.8271451286544 438.3410819900348 1.9999999999999907
    vertex 1106.8271451286544 488.3410819900348 1.9999999999999907
    vertex 1111.8221662538858 476.2820342451609 1.9999999999999907
  endloop
endfacet
facet normal 0.0 0.0 -1.0
  outer loop
    vertex 1106.8271451286544 438.3410819900348 1.9999999999999907
    vertex 1111.8221662538858 476.2820342451609 1.9999999999999907
    vertex 1111.8221662538858 450.4001297349087 1.9999999999999907
  endloop
endfacet
facet normal 0.0 0.0 -1.0
  outer loop
    vertex 1111.8221662538858 450.4001297349087 1.9999999999999907
    vertex 1111.8221662538858 476.2820342451609 1.9999999999999907
    vertex 1113.5258749394325 463.3410819900348 1.9999999999999907
  endloop
endfacet
facet normal -0.793353340291251 -0.6087614290087 6.433507645806144e-16
  outer loop
    vertex 1065.0461545189835 464.86136156958554 3.999999999999991
    vertex 1065.387829557569 464.4160819900347 2.000000000000019
    vertex 1065.387829557569 464.41608199003446 3.999999999999991
  endloop
endfacet
facet normal -0.793353340291251 -0.6087614290087 6.433507645806144e-16
  outer loop
    vertex 1065.387829557569 464.4160819900347 2.000000000000019
    vertex 1065.0461545189835 464.86136156958554 3.999999999999991
    vertex 1065.0461545189835 464.8613615695857 2.000000000000019
  endloop
endfacet
facet normal -0.6087614290086459 -0.7933533402912927 8.384310400383356e-16
  outer loop
    vertex 1065.0461545189835 464.8613615695857 2.000000000000019
    vertex 1064.6008749394323 465.20303660817103 3.99999999999999
    vertex 1064.6008749394323 465.2030366081712 2.0000000000000075
  endloop
endfacet
facet normal -0.6087614290086459 -0.7933533402912927 8.384310400383356e-16
  outer loop
    vertex 1064.6008749394323 465.20303660817103 3.99999999999999
    vertex 1065.0461545189835 464.8613615695857 2.000000000000019
    vertex 1065.0461545189835 464.86136156958554 3.999999999999991
  endloop
endfacet
facet normal -0.5532269670285958 0.07283371194201617 0.8298404505428068
  outer loop
    vertex 1016.5258749394321 463.34108199003464 3.999999999999991
    vertex 1015.2295836249791 476.2820342451609 1.9999999999999907
    vertex 1013.5258749394325 463.3410819900348 1.9999999999999907
  endloop
endfacet
facet normal -0.5532269670285958 0.07283371194201617 0.8298404505428068
  outer loop
    vertex 1015.2295836249791 476.2820342451609 1.9999999999999907
    vertex 1016.5258749394321 463.34108199003464 3.999999999999991
    vertex 1018.1273611038459 475.5055771098531 3.999999999999991
  endloop
endfacet
facet normal 0.44269175153433016 -0.3396893283079662 0.8298404505428436
  outer loop
    vertex 1098.8812139987597 427.98574293070743 1.9999999999999907
    vertex 1104.2290689173008 439.8410819900346 3.999999999999991
    vertex 1096.7598936552 430.10706327426675 3.999999999999991
  endloop
endfacet
facet normal 0.44269175153433016 -0.3396893283079662 0.8298404505428436
  outer loop
    vertex 1104.2290689173008 439.8410819900346 3.999999999999991
    vertex 1098.8812139987597 427.98574293070743 1.9999999999999907
    vertex 1106.8271451286544 438.3410819900348 1.9999999999999907
  endloop
endfacet
facet normal -0.3396893283079658 0.44269175153433354 0.829840450542842
  outer loop
    vertex 1030.2918562236644 496.5751007058023 3.999999999999991
    vertex 1038.5258749394325 506.64235217925676 1.9999999999999907
    vertex 1028.170535880105 498.6964210493622 1.9999999999999907
  endloop
endfacet
facet normal -0.3396893283079658 0.44269175153433354 0.829840450542842
  outer loop
    vertex 1038.5258749394325 506.64235217925676 1.9999999999999907
    vertex 1030.2918562236644 496.5751007058023 3.999999999999991
    vertex 1040.0258749394322 504.04427596790316 3.999999999999991
  endloop
endfacet
facet normal -0.5532269670286025 -0.07283371194201733 0.8298404505428022
  outer loop
    vertex 1015.2295836249791 450.40012973490883 1.9999999999999907
    vertex 1016.5258749394321 463.34108199003464 3.999999999999991
    vertex 1013.5258749394325 463.3410819900348 1.9999999999999907
  endloop
endfacet
facet normal -0.5532269670286025 -0.07283371194201733 0.8298404505428022
  outer loop
    vertex 1016.5258749394321 463.34108199003464 3.999999999999991
    vertex 1015.2295836249791 450.40012973490883 1.9999999999999907
    vertex 1018.1273611038459 451.17658687021617 3.999999999999991
  endloop
endfacet
facet normal -0.38268343236520824 -0.9238795325112379 9.763736256900591e-16
  outer loop
    vertex 1064.6008749394323 465.20303660817103 3.99999999999999
    vertex 1064.082335886403 465.4178225165562 2.0000000000000075
    vertex 1064.6008749394323 465.2030366081712 2.0000000000000075
  endloop
endfacet
facet normal -0.38268343236520824 -0.9238795325112379 9.763736256900591e-16
  outer loop
    vertex 1064.082335886403 465.4178225165562 2.0000000000000075
    vertex 1064.6008749394323 465.20303660817103 3.99999999999999
    vertex 1064.082335886403 465.41782251655604 3.99999999999999
  endloop
endfacet
facet normal 0.13052619221999476 -0.9914448613738179 1.0477779622848808e-15
  outer loop
    vertex 1063.5258749394325 465.4910819900345 3.99999999999999
    vertex 1062.969413992462 465.4178225165562 2.0000000000000075
    vertex 1063.5258749394325 465.4910819900347 2.0000000000000075
  endloop
endfacet
facet normal 0.13052619221999476 -0.9914448613738179 1.0477779622848808e-15
  outer loop
    vertex 1062.969413992462 465.4178225165562 2.0000000000000075
    vertex 1063.5258749394325 465.4910819900345 3.99999999999999
    vertex 1062.969413992462 465.41782251655604 3.99999999999999
  endloop
endfacet
facet normal 0.5532269670285153 0.07283371194200944 0.829840450542861
  outer loop
    vertex 1110.5258749394322 463.34108199003464 3.999999999999991
    vertex 1111.8221662538858 476.2820342451609 1.9999999999999907
    vertex 1108.9243887750183 475.5055771098531 3.999999999999991
  endloop
endfacet
facet normal 0.5532269670285153 0.07283371194200944 0.829840450542861
  outer loop
    vertex 1111.8221662538858 476.2820342451609 1.9999999999999907
    vertex 1110.5258749394322 463.34108199003464 3.999999999999991
    vertex 1113.5258749394325 463.3410819900348 1.9999999999999907
  endloop
endfacet
facet normal -0.4426917515343501 0.3396893283079883 0.8298404505428241
  outer loop
    vertex 1022.8226809615635 486.8410819900347 3.999999999999991
    vertex 1028.170535880105 498.6964210493622 1.9999999999999907
    vertex 1020.2246047502105 488.3410819900348 1.9999999999999907
  endloop
endfacet
facet normal -0.4426917515343501 0.3396893283079883 0.8298404505428241
  outer loop
    vertex 1028.170535880105 498.6964210493622 1.9999999999999907
    vertex 1022.8226809615635 486.8410819900347 3.999999999999991
    vertex 1030.2918562236644 496.5751007058023 3.999999999999991
  endloop
endfacet
facet normal -0.9238795325113417 -0.3826834323649572 4.044271977040948e-16
  outer loop
    vertex 1065.387829557569 464.41608199003446 3.999999999999991
    vertex 1065.602615465954 463.897542937005 2.000000000000019
    vertex 1065.602615465954 463.89754293700486 3.999999999999991
  endloop
endfacet
facet normal -0.9238795325113417 -0.3826834323649572 4.044271977040948e-16
  outer loop
    vertex 1065.602615465954 463.897542937005 2.000000000000019
    vertex 1065.387829557569 464.41608199003446 3.999999999999991
    vertex 1065.387829557569 464.4160819900347 2.000000000000019
  endloop
endfacet
facet normal 0.38268343236509456 -0.923879532511285 9.763736256901098e-16
  outer loop
    vertex 1062.969413992462 465.41782251655604 3.99999999999999
    vertex 1062.4508749394322 465.2030366081712 2.0000000000000075
    vertex 1062.969413992462 465.4178225165562 2.0000000000000075
  endloop
endfacet
facet normal 0.38268343236509456 -0.923879532511285 9.763736256901098e-16
  outer loop
    vertex 1062.4508749394322 465.2030366081712 2.0000000000000075
    vertex 1062.969413992462 465.41782251655604 3.99999999999999
    vertex 1062.4508749394322 465.20303660817103 3.99999999999999
  endloop
endfacet
facet normal 0.5532269670285219 -0.07283371194201006 0.8298404505428565
  outer loop
    vertex 1111.8221662538858 450.4001297349087 1.9999999999999907
    vertex 1110.5258749394322 463.34108199003464 3.999999999999991
    vertex 1108.9243887750183 451.17658687021606 3.999999999999991
  endloop
endfacet
facet normal 0.5532269670285219 -0.07283371194201006 0.8298404505428565
  outer loop
    vertex 1110.5258749394322 463.34108199003464 3.999999999999991
    vertex 1111.8221662538858 450.4001297349087 1.9999999999999907
    vertex 1113.5258749394325 463.3410819900348 1.9999999999999907
  endloop
endfacet
facet normal -0.13052619221999476 -0.9914448613738179 1.0477779622848806e-15
  outer loop
    vertex 1064.082335886403 465.41782251655604 3.99999999999999
    vertex 1063.5258749394325 465.4910819900347 2.0000000000000075
    vertex 1064.082335886403 465.4178225165562 2.0000000000000075
  endloop
endfacet
facet normal -0.13052619221999476 -0.9914448613738179 1.0477779622848806e-15
  outer loop
    vertex 1063.5258749394325 465.4910819900347 2.0000000000000075
    vertex 1064.082335886403 465.41782251655604 3.99999999999999
    vertex 1063.5258749394325 465.4910819900345 3.99999999999999
  endloop
endfacet
facet normal 0.9238795325113417 0.3826834323649572 -4.044271977040948e-16
  outer loop
    vertex 1061.6639203212958 462.2660819900346 2.000000000000019
    vertex 1061.449134412911 462.784621043064 3.9999999999999925
    vertex 1061.6639203212958 462.2660819900344 3.9999999999999942
  endloop
endfacet
facet normal 0.9238795325113417 0.3826834323649572 -4.044271977040948e-16
  outer loop
    vertex 1061.449134412911 462.784621043064 3.9999999999999925
    vertex 1061.6639203212958 462.2660819900346 2.000000000000019
    vertex 1061.449134412911 462.78462104306425 2.000000000000019
  endloop
endfacet
facet normal 0.793353340291251 -0.6087614290087 6.433507645806161e-16
  outer loop
    vertex 1061.6639203212958 464.4160819900347 2.000000000000019
    vertex 1062.0055953598812 464.86136156958554 3.999999999999991
    vertex 1061.6639203212958 464.41608199003446 3.999999999999991
  endloop
endfacet
facet normal 0.793353340291251 -0.6087614290087 6.433507645806161e-16
  outer loop
    vertex 1062.0055953598812 464.86136156958554 3.999999999999991
    vertex 1061.6639203212958 464.4160819900347 2.000000000000019
    vertex 1062.0055953598812 464.8613615695857 2.000000000000019
  endloop
endfacet
facet normal 0.6087614290088013 -0.7933533402911735 8.384310400382108e-16
  outer loop
    vertex 1062.4508749394322 465.20303660817103 3.99999999999999
    vertex 1062.0055953598812 464.8613615695857 2.000000000000019
    vertex 1062.4508749394322 465.2030366081712 2.0000000000000075
  endloop
endfacet
facet normal 0.6087614290088013 -0.7933533402911735 8.384310400382108e-16
  outer loop
    vertex 1062.0055953598812 464.8613615695857 2.000000000000019
    vertex 1062.4508749394322 465.20303660817103 3.99999999999999
    vertex 1062.0055953598812 464.86136156958554 3.999999999999991
  endloop
endfacet
facet normal 0.9914448613737945 -0.13052619222017361 1.3794258565196566e-16
  outer loop
    vertex 1061.3758749394324 463.34108199003464 2.000000000000019
    vertex 1061.449134412911 463.89754293700486 3.999999999999991
    vertex 1061.3758749394324 463.34108199003447 3.9999999999999925
  endloop
endfacet
facet normal 0.9914448613737945 -0.13052619222017361 1.3794258565196566e-16
  outer loop
    vertex 1061.449134412911 463.89754293700486 3.999999999999991
    vertex 1061.3758749394324 463.34108199003464 2.000000000000019
    vertex 1061.449134412911 463.897542937005 2.000000000000019
  endloop
endfacet
facet normal 0.793353340291251 0.6087614290087 -6.433507645806144e-16
  outer loop
    vertex 1062.0055953598812 461.82080241048357 2.000000000000019
    vertex 1061.6639203212958 462.2660819900344 3.9999999999999942
    vertex 1062.0055953598812 461.8208024104834 3.9999999999999942
  endloop
endfacet
facet normal 0.793353340291251 0.6087614290087 -6.433507645806144e-16
  outer loop
    vertex 1061.6639203212958 462.2660819900344 3.9999999999999942
    vertex 1062.0055953598812 461.82080241048357 2.000000000000019
    vertex 1061.6639203212958 462.2660819900346 2.000000000000019
  endloop
endfacet
facet normal -0.21353763872059595 -0.5155254634763846 0.8298404505428083
  outer loop
    vertex 1050.5849226843063 415.04479067558134 1.9999999999999907
    vertex 1040.0258749394322 422.63788801216594 3.999999999999991
    vertex 1038.5258749394322 420.03981180081286 1.9999999999999907
  endloop
endfacet
facet normal -0.21353763872059595 -0.5155254634763846 0.8298404505428083
  outer loop
    vertex 1040.0258749394322 422.63788801216594 3.999999999999991
    vertex 1050.5849226843063 415.04479067558134 1.9999999999999907
    vertex 1051.3613798196136 417.9425681544483 3.999999999999991
  endloop
endfacet
facet normal 0.9238795325113417 -0.3826834323649572 4.044271977040966e-16
  outer loop
    vertex 1061.449134412911 463.897542937005 2.000000000000019
    vertex 1061.6639203212958 464.41608199003446 3.999999999999991
    vertex 1061.449134412911 463.89754293700486 3.999999999999991
  endloop
endfacet
facet normal 0.9238795325113417 -0.3826834323649572 4.044271977040966e-16
  outer loop
    vertex 1061.6639203212958 464.41608199003446 3.999999999999991
    vertex 1061.449134412911 463.897542937005 2.000000000000019
    vertex 1061.6639203212958 464.4160819900347 2.000000000000019
  endloop
endfacet
facet normal 0.9914448613737945 0.13052619222017361 -1.3794258565196377e-16
  outer loop
    vertex 1061.449134412911 462.78462104306425 2.000000000000019
    vertex 1061.3758749394324 463.34108199003447 3.9999999999999925
    vertex 1061.449134412911 462.784621043064 3.9999999999999925
  endloop
endfacet
facet normal 0.9914448613737945 0.13052619222017361 -1.3794258565196377e-16
  outer loop
    vertex 1061.3758749394324 463.34108199003447 3.9999999999999925
    vertex 1061.449134412911 462.78462104306425 2.000000000000019
    vertex 1061.3758749394324 463.34108199003464 2.000000000000019
  endloop
endfacet
facet normal -0.07283371194200212 0.5532269670285368 0.8298404505428473
  outer loop
    vertex 1051.3613798196138 508.73959582562094 3.999999999999991
    vertex 1063.5258749394325 513.3410819900348 1.9999999999999907
    vertex 1050.5849226843063 511.6373733044883 1.9999999999999907
  endloop
endfacet
facet normal -0.07283371194200212 0.5532269670285368 0.8298404505428473
  outer loop
    vertex 1063.5258749394325 513.3410819900348 1.9999999999999907
    vertex 1051.3613798196138 508.73959582562094 3.999999999999991
    vertex 1063.5258749394318 510.3410819900345 3.999999999999991
  endloop
endfacet
facet normal -0.21353763872057865 0.5155254634763335 0.8298404505428447
  outer loop
    vertex 1040.0258749394322 504.04427596790316 3.999999999999991
    vertex 1050.5849226843063 511.6373733044883 1.9999999999999907
    vertex 1038.5258749394325 506.64235217925676 1.9999999999999907
  endloop
endfacet
facet normal -0.21353763872057865 0.5155254634763335 0.8298404505428447
  outer loop
    vertex 1050.5849226843063 511.6373733044883 1.9999999999999907
    vertex 1040.0258749394322 504.04427596790316 3.999999999999991
    vertex 1051.3613798196138 508.73959582562094 3.999999999999991
  endloop
endfacet
facet normal 0.21353763872056858 0.5155254634763135 0.8298404505428597
  outer loop
    vertex 1087.025874939432 504.04427596790316 3.999999999999991
    vertex 1076.4668271945584 511.6373733044883 1.9999999999999907
    vertex 1075.6903700592507 508.73959582562094 3.999999999999991
  endloop
endfacet
facet normal 0.21353763872056858 0.5155254634763135 0.8298404505428597
  outer loop
    vertex 1076.4668271945584 511.6373733044883 1.9999999999999907
    vertex 1087.025874939432 504.04427596790316 3.999999999999991
    vertex 1088.5258749394325 506.64235217925676 1.9999999999999907
  endloop
endfacet
facet normal 0.07283371194199854 0.5532269670285251 0.8298404505428554
  outer loop
    vertex 1075.6903700592507 508.73959582562094 3.999999999999991
    vertex 1063.5258749394325 513.3410819900348 1.9999999999999907
    vertex 1063.5258749394318 510.3410819900345 3.999999999999991
  endloop
endfacet
facet normal 0.07283371194199854 0.5532269670285251 0.8298404505428554
  outer loop
    vertex 1063.5258749394325 513.3410819900348 1.9999999999999907
    vertex 1075.6903700592507 508.73959582562094 3.999999999999991
    vertex 1076.4668271945584 511.6373733044883 1.9999999999999907
  endloop
endfacet
facet normal -0.5155254634763821 0.21353763872059012 0.8298404505428115
  outer loop
    vertex 1018.1273611038459 475.5055771098531 3.999999999999991
    vertex 1020.2246047502105 488.3410819900348 1.9999999999999907
    vertex 1015.2295836249791 476.2820342451609 1.9999999999999907
  endloop
endfacet
facet normal -0.5155254634763821 0.21353763872059012 0.8298404505428115
  outer loop
    vertex 1020.2246047502105 488.3410819900348 1.9999999999999907
    vertex 1018.1273611038459 475.5055771098531 3.999999999999991
    vertex 1022.8226809615635 486.8410819900347 3.999999999999991
  endloop
endfacet
endsolid coupleur moteur
