999
Inkscape export via "Better DXF Output" (bob@bobcookdev.com)
  0
SECTION
  2
HEADER
  9
$ACADVER
  1
AC1014
  9
$HANDSEED
  5
FFFF
  0
ENDSEC
  0
SECTION
  2
TABLES
  0
TABLE
  2
VPORT
  5
8
330
0
100
AcDbSymbolTable
 70
     4
  0
VPORT
  5
2E
330
8
100
AcDbSymbolTableRecord
100
AcDbViewportTableRecord
  2
*ACTIVE
 70
     0
 10
0.0
 20
0.0
 11
1.0
 21
1.0
 12
4.25
 22
5.5
 13
0.0
 23
0.0
 14
10.0
 24
10.0
 15
10.0
 25
10.0
 16
0.0
 26
0.0
 36
1.0
 17
0.0
 27
0.0
 37
0.0
 40
11
 41
1.24
 42
50.0
 43
0.0
 44
0.0
 50
0.0
 51
0.0
 71
     0
 72
   100
 73
     1
 74
     3
 75
     0
 76
     0
 77
     0
 78
     0
  0
ENDTAB
  0
TABLE
  2
LTYPE
  5
5
330
0
100
AcDbSymbolTable
 70
     1
  0
LTYPE
  5
14
330
5
100
AcDbSymbolTableRecord
100
AcDbLinetypeTableRecord
  2
BYBLOCK
 70
     0
  3

 72
    65
 73
     0
 40
0.0
  0
LTYPE
  5
15
330
5
100
AcDbSymbolTableRecord
100
AcDbLinetypeTableRecord
  2
BYLAYER
 70
     0
  3

 72
    65
 73
     0
 40
0.0
  0
LTYPE
  5
16
330
5
100
AcDbSymbolTableRecord
100
AcDbLinetypeTableRecord
  2
CONTINUOUS
 70
     0
  3
Solid line
 72
    65
 73
     0
 40
0.0
  0
ENDTAB
  0
TABLE
  2
LAYER
  5
2
330
0
100
AcDbSymbolTable
 70
1
  0
LAYER
  5
10
330
2
100
AcDbSymbolTableRecord
100
AcDbLayerTableRecord
  2
0
 70
     0
 62
     7
  6
CONTINUOUS
  0
ENDTAB
  0
TABLE
  2
STYLE
  5
3
330
0
100
AcDbSymbolTable
 70
     1
  0
STYLE
  5
11
330
3
100
AcDbSymbolTableRecord
100
AcDbTextStyleTableRecord
  2
STANDARD
 70
     0
 40
0.0
 41
1.0
 50
0.0
 71
     0
 42
2.5
  3
txt
  4

  0
ENDTAB
  0
TABLE
  2
VIEW
  5
6
330
0
100
AcDbSymbolTable
 70
     0
  0
ENDTAB
  0
TABLE
  2
UCS
  5
7
330
0
100
AcDbSymbolTable
 70
     0
  0
ENDTAB
  0
TABLE
  2
APPID
  5
9
330
0
100
AcDbSymbolTable
 70
     2
  0
APPID
  5
12
330
9
100
AcDbSymbolTableRecord
100
AcDbRegAppTableRecord
  2
ACAD
 70
     0
  0
ENDTAB
  0
TABLE
  2
DIMSTYLE
  5
A
330
0
100
AcDbSymbolTable
 70
     1
  0
DIMSTYLE
105
27
330
A
100
AcDbSymbolTableRecord
100
AcDbDimStyleTableRecord
  2
ISO-25
 70
     0
  3

  4

  5

  6

  7

 40
1.0
 41
2.5
 42
0.625
 43
3.75
 44
1.25
 45
0.0
 46
0.0
 47
0.0
 48
0.0
140
2.5
141
2.5
142
0.0
143
0.03937007874016
144
1.0
145
0.0
146
1.0
147
0.625
 71
     0
 72
     0
 73
     0
 74
     0
 75
     0
 76
     0
 77
     1
 78
     8
170
     0
171
     3
172
     1
173
     0
174
     0
175
     0
176
     0
177
     0
178
     0
270
     2
271
     2
272
     2
273
     2
274
     3
340
11
275
     0
280
     0
281
     0
282
     0
283
     0
284
     8
285
     0
286
     0
287
     3
288
     0
  0
ENDTAB
  0
TABLE
  2
BLOCK_RECORD
  5
1
330
0
100
AcDbSymbolTable
 70
     1
  0
BLOCK_RECORD
  5
1F
330
1
100
AcDbSymbolTableRecord
100
AcDbBlockTableRecord
  2
*MODEL_SPACE
  0
BLOCK_RECORD
  5
1B
330
1
100
AcDbSymbolTableRecord
100
AcDbBlockTableRecord
  2
*PAPER_SPACE
  0
ENDTAB
  0
ENDSEC
  0
SECTION
  2
BLOCKS
  0
BLOCK
  5
20
330
1F
100
AcDbEntity
  8
0
100
AcDbBlockBegin
  2
*MODEL_SPACE
 70
     0
 10
0.0
 20
0.0
 30
0.0
  3
*MODEL_SPACE
  1

  0
ENDBLK
  5
21
330
1F
100
AcDbEntity
  8
0
100
AcDbBlockEnd
  0
BLOCK
  5
1C
330
1B
100
AcDbEntity
 67
     1
  8
0
100
AcDbBlockBegin
  2
*PAPER_SPACE
  1

  0
ENDBLK
  5
1D
330
1B
100
AcDbEntity
 67
     1
  8
0
100
AcDbBlockEnd
  0
ENDSEC
  0
SECTION
  2
ENTITIES
0
LINE
8
Calque 1
62
4
5
100
100
AcDbEntity
100
AcDbLine
10
-296.229080
20
182.429075
30
0.0
11
-296.229080
21
191.429074
31
0.0
0
LINE
8
Calque 1
62
4
5
101
100
AcDbEntity
100
AcDbLine
10
-296.229080
20
191.429074
30
0.0
11
-291.229090
21
191.429074
31
0.0
0
LINE
8
Calque 1
62
4
5
102
100
AcDbEntity
100
AcDbLine
10
-291.229090
20
191.429074
30
0.0
11
-291.229090
21
194.429074
31
0.0
0
LINE
8
Calque 1
62
4
5
103
100
AcDbEntity
100
AcDbLine
10
-291.229090
20
194.429074
30
0.0
11
-281.229088
21
194.429074
31
0.0
0
LINE
8
Calque 1
62
4
5
104
100
AcDbEntity
100
AcDbLine
10
-281.229088
20
194.429074
30
0.0
11
-281.229088
21
191.429074
31
0.0
0
LINE
8
Calque 1
62
4
5
105
100
AcDbEntity
100
AcDbLine
10
-281.229088
20
191.429074
30
0.0
11
-271.229088
21
191.429074
31
0.0
0
LINE
8
Calque 1
62
4
5
106
100
AcDbEntity
100
AcDbLine
10
-271.229088
20
191.429074
30
0.0
11
-271.229088
21
194.429074
31
0.0
0
LINE
8
Calque 1
62
4
5
107
100
AcDbEntity
100
AcDbLine
10
-271.229088
20
194.429074
30
0.0
11
-261.229088
21
194.429074
31
0.0
0
LINE
8
Calque 1
62
4
5
108
100
AcDbEntity
100
AcDbLine
10
-261.229088
20
194.429074
30
0.0
11
-261.229088
21
191.429074
31
0.0
0
LINE
8
Calque 1
62
4
5
109
100
AcDbEntity
100
AcDbLine
10
-261.229088
20
191.429074
30
0.0
11
-251.229089
21
191.429074
31
0.0
0
LINE
8
Calque 1
62
4
5
10a
100
AcDbEntity
100
AcDbLine
10
-251.229089
20
191.429074
30
0.0
11
-251.229089
21
194.429074
31
0.0
0
LINE
8
Calque 1
62
4
5
10b
100
AcDbEntity
100
AcDbLine
10
-251.229089
20
194.429074
30
0.0
11
-241.229089
21
194.429074
31
0.0
0
LINE
8
Calque 1
62
4
5
10c
100
AcDbEntity
100
AcDbLine
10
-241.229089
20
194.429074
30
0.0
11
-241.229089
21
191.429074
31
0.0
0
LINE
8
Calque 1
62
4
5
10d
100
AcDbEntity
100
AcDbLine
10
-241.229089
20
191.429074
30
0.0
11
-231.229089
21
191.429074
31
0.0
0
LINE
8
Calque 1
62
4
5
10e
100
AcDbEntity
100
AcDbLine
10
-231.229089
20
191.429074
30
0.0
11
-231.229089
21
194.429074
31
0.0
0
LINE
8
Calque 1
62
4
5
10f
100
AcDbEntity
100
AcDbLine
10
-231.229089
20
194.429074
30
0.0
11
-221.229089
21
194.429074
31
0.0
0
LINE
8
Calque 1
62
4
5
110
100
AcDbEntity
100
AcDbLine
10
-221.229089
20
194.429074
30
0.0
11
-221.229089
21
191.429074
31
0.0
0
LINE
8
Calque 1
62
4
5
111
100
AcDbEntity
100
AcDbLine
10
-221.229089
20
191.429074
30
0.0
11
-211.229090
21
191.429074
31
0.0
0
LINE
8
Calque 1
62
4
5
112
100
AcDbEntity
100
AcDbLine
10
-211.229090
20
191.429074
30
0.0
11
-211.229090
21
194.429074
31
0.0
0
LINE
8
Calque 1
62
4
5
113
100
AcDbEntity
100
AcDbLine
10
-211.229090
20
194.429074
30
0.0
11
-201.229090
21
194.429074
31
0.0
0
LINE
8
Calque 1
62
4
5
114
100
AcDbEntity
100
AcDbLine
10
-201.229090
20
194.429074
30
0.0
11
-201.229090
21
191.429074
31
0.0
0
LINE
8
Calque 1
62
4
5
115
100
AcDbEntity
100
AcDbLine
10
-201.229090
20
191.429074
30
0.0
11
-196.229089
21
191.429074
31
0.0
0
LINE
8
Calque 1
62
4
5
116
100
AcDbEntity
100
AcDbLine
10
-196.229089
20
191.429074
30
0.0
11
-196.229089
21
182.429075
31
0.0
0
LINE
8
Calque 1
62
4
5
117
100
AcDbEntity
100
AcDbLine
10
-196.229089
20
182.429075
30
0.0
11
-199.229088
21
182.429075
31
0.0
0
LINE
8
Calque 1
62
4
5
118
100
AcDbEntity
100
AcDbLine
10
-199.229088
20
182.429075
30
0.0
11
-199.229088
21
172.429075
31
0.0
0
LINE
8
Calque 1
62
4
5
119
100
AcDbEntity
100
AcDbLine
10
-199.229088
20
172.429075
30
0.0
11
-196.229089
21
172.429075
31
0.0
0
LINE
8
Calque 1
62
4
5
11a
100
AcDbEntity
100
AcDbLine
10
-196.229089
20
172.429075
30
0.0
11
-196.229089
21
163.429074
31
0.0
0
LINE
8
Calque 1
62
4
5
11b
100
AcDbEntity
100
AcDbLine
10
-196.229089
20
163.429074
30
0.0
11
-201.229090
21
163.429074
31
0.0
0
LINE
8
Calque 1
62
4
5
11c
100
AcDbEntity
100
AcDbLine
10
-201.229090
20
163.429074
30
0.0
11
-201.229090
21
160.429074
31
0.0
0
LINE
8
Calque 1
62
4
5
11d
100
AcDbEntity
100
AcDbLine
10
-201.229090
20
160.429074
30
0.0
11
-211.229090
21
160.429074
31
0.0
0
LINE
8
Calque 1
62
4
5
11e
100
AcDbEntity
100
AcDbLine
10
-211.229090
20
160.429074
30
0.0
11
-211.229090
21
163.429074
31
0.0
0
LINE
8
Calque 1
62
4
5
11f
100
AcDbEntity
100
AcDbLine
10
-211.229090
20
163.429074
30
0.0
11
-221.229089
21
163.429074
31
0.0
0
LINE
8
Calque 1
62
4
5
120
100
AcDbEntity
100
AcDbLine
10
-221.229089
20
163.429074
30
0.0
11
-221.229089
21
160.429074
31
0.0
0
LINE
8
Calque 1
62
4
5
121
100
AcDbEntity
100
AcDbLine
10
-221.229089
20
160.429074
30
0.0
11
-231.229089
21
160.429074
31
0.0
0
LINE
8
Calque 1
62
4
5
122
100
AcDbEntity
100
AcDbLine
10
-231.229089
20
160.429074
30
0.0
11
-231.229089
21
163.429074
31
0.0
0
LINE
8
Calque 1
62
4
5
123
100
AcDbEntity
100
AcDbLine
10
-231.229089
20
163.429074
30
0.0
11
-241.229089
21
163.429074
31
0.0
0
LINE
8
Calque 1
62
4
5
124
100
AcDbEntity
100
AcDbLine
10
-241.229089
20
163.429074
30
0.0
11
-241.229089
21
160.429074
31
0.0
0
LINE
8
Calque 1
62
4
5
125
100
AcDbEntity
100
AcDbLine
10
-241.229089
20
160.429074
30
0.0
11
-251.229089
21
160.429074
31
0.0
0
LINE
8
Calque 1
62
4
5
126
100
AcDbEntity
100
AcDbLine
10
-251.229089
20
160.429074
30
0.0
11
-251.229089
21
163.429074
31
0.0
0
LINE
8
Calque 1
62
4
5
127
100
AcDbEntity
100
AcDbLine
10
-251.229089
20
163.429074
30
0.0
11
-261.229088
21
163.429074
31
0.0
0
LINE
8
Calque 1
62
4
5
128
100
AcDbEntity
100
AcDbLine
10
-261.229088
20
163.429074
30
0.0
11
-261.229088
21
160.429074
31
0.0
0
LINE
8
Calque 1
62
4
5
129
100
AcDbEntity
100
AcDbLine
10
-261.229088
20
160.429074
30
0.0
11
-271.229088
21
160.429074
31
0.0
0
LINE
8
Calque 1
62
4
5
12a
100
AcDbEntity
100
AcDbLine
10
-271.229088
20
160.429074
30
0.0
11
-271.229088
21
163.429074
31
0.0
0
LINE
8
Calque 1
62
4
5
12b
100
AcDbEntity
100
AcDbLine
10
-271.229088
20
163.429074
30
0.0
11
-281.229088
21
163.429074
31
0.0
0
LINE
8
Calque 1
62
4
5
12c
100
AcDbEntity
100
AcDbLine
10
-281.229088
20
163.429074
30
0.0
11
-281.229088
21
160.429074
31
0.0
0
LINE
8
Calque 1
62
4
5
12d
100
AcDbEntity
100
AcDbLine
10
-281.229088
20
160.429074
30
0.0
11
-291.229090
21
160.429074
31
0.0
0
LINE
8
Calque 1
62
4
5
12e
100
AcDbEntity
100
AcDbLine
10
-291.229090
20
160.429074
30
0.0
11
-291.229090
21
163.429074
31
0.0
0
LINE
8
Calque 1
62
4
5
12f
100
AcDbEntity
100
AcDbLine
10
-291.229090
20
163.429074
30
0.0
11
-296.229080
21
163.429074
31
0.0
0
LINE
8
Calque 1
62
4
5
130
100
AcDbEntity
100
AcDbLine
10
-296.229080
20
163.429074
30
0.0
11
-296.229080
21
172.429075
31
0.0
0
LINE
8
Calque 1
62
4
5
131
100
AcDbEntity
100
AcDbLine
10
-296.229080
20
172.429075
30
0.0
11
-293.229086
21
172.429075
31
0.0
0
LINE
8
Calque 1
62
4
5
132
100
AcDbEntity
100
AcDbLine
10
-293.229086
20
172.429075
30
0.0
11
-293.229086
21
182.429075
31
0.0
0
LINE
8
Calque 1
62
4
5
133
100
AcDbEntity
100
AcDbLine
10
-293.229086
20
182.429075
30
0.0
11
-296.229080
21
182.429075
31
0.0
0
LINE
8
Calque 1
62
4
5
134
100
AcDbEntity
100
AcDbLine
10
-343.148384
20
282.638076
30
0.0
11
-340.148362
21
282.638076
31
0.0
0
LINE
8
Calque 1
62
4
5
135
100
AcDbEntity
100
AcDbLine
10
-340.148362
20
282.638076
30
0.0
11
-340.148362
21
292.638076
31
0.0
0
LINE
8
Calque 1
62
4
5
136
100
AcDbEntity
100
AcDbLine
10
-340.148362
20
292.638076
30
0.0
11
-343.148384
21
292.638076
31
0.0
0
LINE
8
Calque 1
62
4
5
137
100
AcDbEntity
100
AcDbLine
10
-343.148384
20
292.638076
30
0.0
11
-343.148384
21
302.638076
31
0.0
0
LINE
8
Calque 1
62
4
5
138
100
AcDbEntity
100
AcDbLine
10
-343.148384
20
302.638076
30
0.0
11
-340.148362
21
302.638076
31
0.0
0
LINE
8
Calque 1
62
4
5
139
100
AcDbEntity
100
AcDbLine
10
-340.148362
20
302.638076
30
0.0
11
-340.148362
21
312.638076
31
0.0
0
LINE
8
Calque 1
62
4
5
13a
100
AcDbEntity
100
AcDbLine
10
-340.148362
20
312.638076
30
0.0
11
-343.148384
21
312.638076
31
0.0
0
LINE
8
Calque 1
62
4
5
13b
100
AcDbEntity
100
AcDbLine
10
-343.148384
20
312.638076
30
0.0
11
-343.148384
21
322.638075
31
0.0
0
LINE
8
Calque 1
62
4
5
13c
100
AcDbEntity
100
AcDbLine
10
-343.148384
20
322.638075
30
0.0
11
-340.148362
21
322.638075
31
0.0
0
LINE
8
Calque 1
62
4
5
13d
100
AcDbEntity
100
AcDbLine
10
-340.148362
20
322.638075
30
0.0
11
-340.148362
21
332.638074
31
0.0
0
LINE
8
Calque 1
62
4
5
13e
100
AcDbEntity
100
AcDbLine
10
-340.148362
20
332.638074
30
0.0
11
-343.148384
21
332.638074
31
0.0
0
LINE
8
Calque 1
62
4
5
13f
100
AcDbEntity
100
AcDbLine
10
-343.148384
20
332.638074
30
0.0
11
-343.148384
21
342.638074
31
0.0
0
LINE
8
Calque 1
62
4
5
140
100
AcDbEntity
100
AcDbLine
10
-343.148384
20
342.638074
30
0.0
11
-340.148362
21
342.638074
31
0.0
0
LINE
8
Calque 1
62
4
5
141
100
AcDbEntity
100
AcDbLine
10
-340.148362
20
342.638074
30
0.0
11
-340.148362
21
352.638073
31
0.0
0
LINE
8
Calque 1
62
4
5
142
100
AcDbEntity
100
AcDbLine
10
-340.148362
20
352.638073
30
0.0
11
-343.148384
21
352.638073
31
0.0
0
LINE
8
Calque 1
62
4
5
143
100
AcDbEntity
100
AcDbLine
10
-343.148384
20
352.638073
30
0.0
11
-343.148384
21
362.638073
31
0.0
0
LINE
8
Calque 1
62
4
5
144
100
AcDbEntity
100
AcDbLine
10
-343.148384
20
362.638073
30
0.0
11
-340.148362
21
362.638073
31
0.0
0
LINE
8
Calque 1
62
4
5
145
100
AcDbEntity
100
AcDbLine
10
-340.148362
20
362.638073
30
0.0
11
-340.148362
21
372.638073
31
0.0
0
LINE
8
Calque 1
62
4
5
146
100
AcDbEntity
100
AcDbLine
10
-340.148362
20
372.638073
30
0.0
11
-343.148384
21
372.638073
31
0.0
0
LINE
8
Calque 1
62
4
5
147
100
AcDbEntity
100
AcDbLine
10
-343.148384
20
372.638073
30
0.0
11
-343.148384
21
388.638075
31
0.0
0
LINE
8
Calque 1
62
4
5
148
100
AcDbEntity
100
AcDbLine
10
-343.148384
20
388.638075
30
0.0
11
-338.148366
21
388.638075
31
0.0
0
LINE
8
Calque 1
62
4
5
149
100
AcDbEntity
100
AcDbLine
10
-338.148366
20
388.638075
30
0.0
11
-338.148366
21
385.638075
31
0.0
0
LINE
8
Calque 1
62
4
5
14a
100
AcDbEntity
100
AcDbLine
10
-338.148366
20
385.638075
30
0.0
11
-328.148357
21
385.638075
31
0.0
0
LINE
8
Calque 1
62
4
5
14b
100
AcDbEntity
100
AcDbLine
10
-328.148357
20
385.638075
30
0.0
11
-328.148357
21
388.638075
31
0.0
0
LINE
8
Calque 1
62
4
5
14c
100
AcDbEntity
100
AcDbLine
10
-328.148357
20
388.638075
30
0.0
11
-318.148377
21
388.638075
31
0.0
0
LINE
8
Calque 1
62
4
5
14d
100
AcDbEntity
100
AcDbLine
10
-318.148377
20
388.638075
30
0.0
11
-318.148377
21
385.638075
31
0.0
0
LINE
8
Calque 1
62
4
5
14e
100
AcDbEntity
100
AcDbLine
10
-318.148377
20
385.638075
30
0.0
11
-308.148369
21
385.638075
31
0.0
0
LINE
8
Calque 1
62
4
5
14f
100
AcDbEntity
100
AcDbLine
10
-308.148369
20
385.638075
30
0.0
11
-308.148369
21
388.638075
31
0.0
0
LINE
8
Calque 1
62
4
5
150
100
AcDbEntity
100
AcDbLine
10
-308.148369
20
388.638075
30
0.0
11
-298.148361
21
388.638075
31
0.0
0
LINE
8
Calque 1
62
4
5
151
100
AcDbEntity
100
AcDbLine
10
-298.148361
20
388.638075
30
0.0
11
-298.148361
21
385.638075
31
0.0
0
LINE
8
Calque 1
62
4
5
152
100
AcDbEntity
100
AcDbLine
10
-298.148361
20
385.638075
30
0.0
11
-288.148381
21
385.638075
31
0.0
0
LINE
8
Calque 1
62
4
5
153
100
AcDbEntity
100
AcDbLine
10
-288.148381
20
385.638075
30
0.0
11
-288.148381
21
388.638075
31
0.0
0
LINE
8
Calque 1
62
4
5
154
100
AcDbEntity
100
AcDbLine
10
-288.148381
20
388.638075
30
0.0
11
-278.148370
21
388.638075
31
0.0
0
LINE
8
Calque 1
62
4
5
155
100
AcDbEntity
100
AcDbLine
10
-278.148370
20
388.638075
30
0.0
11
-278.148370
21
385.638075
31
0.0
0
LINE
8
Calque 1
62
4
5
156
100
AcDbEntity
100
AcDbLine
10
-278.148370
20
385.638075
30
0.0
11
-268.148370
21
385.638075
31
0.0
0
LINE
8
Calque 1
62
4
5
157
100
AcDbEntity
100
AcDbLine
10
-268.148370
20
385.638075
30
0.0
11
-268.148370
21
388.638075
31
0.0
0
LINE
8
Calque 1
62
4
5
158
100
AcDbEntity
100
AcDbLine
10
-268.148370
20
388.638075
30
0.0
11
-258.148368
21
388.638075
31
0.0
0
LINE
8
Calque 1
62
4
5
159
100
AcDbEntity
100
AcDbLine
10
-258.148368
20
388.638075
30
0.0
11
-258.148368
21
385.638075
31
0.0
0
LINE
8
Calque 1
62
4
5
15a
100
AcDbEntity
100
AcDbLine
10
-258.148368
20
385.638075
30
0.0
11
-248.148368
21
385.638075
31
0.0
0
LINE
8
Calque 1
62
4
5
15b
100
AcDbEntity
100
AcDbLine
10
-248.148368
20
385.638075
30
0.0
11
-248.148368
21
388.638075
31
0.0
0
LINE
8
Calque 1
62
4
5
15c
100
AcDbEntity
100
AcDbLine
10
-248.148368
20
388.638075
30
0.0
11
-243.148369
21
388.638075
31
0.0
0
LINE
8
Calque 1
62
4
5
15d
100
AcDbEntity
100
AcDbLine
10
-243.148369
20
388.638075
30
0.0
11
-243.148369
21
372.638073
31
0.0
0
LINE
8
Calque 1
62
4
5
15e
100
AcDbEntity
100
AcDbLine
10
-243.148369
20
372.638073
30
0.0
11
-246.148369
21
372.638073
31
0.0
0
LINE
8
Calque 1
62
4
5
15f
100
AcDbEntity
100
AcDbLine
10
-246.148369
20
372.638073
30
0.0
11
-246.148369
21
362.638073
31
0.0
0
LINE
8
Calque 1
62
4
5
160
100
AcDbEntity
100
AcDbLine
10
-246.148369
20
362.638073
30
0.0
11
-243.148369
21
362.638073
31
0.0
0
LINE
8
Calque 1
62
4
5
161
100
AcDbEntity
100
AcDbLine
10
-243.148369
20
362.638073
30
0.0
11
-243.148369
21
352.638073
31
0.0
0
LINE
8
Calque 1
62
4
5
162
100
AcDbEntity
100
AcDbLine
10
-243.148369
20
352.638073
30
0.0
11
-246.148369
21
352.638073
31
0.0
0
LINE
8
Calque 1
62
4
5
163
100
AcDbEntity
100
AcDbLine
10
-246.148369
20
352.638073
30
0.0
11
-246.148369
21
342.638074
31
0.0
0
LINE
8
Calque 1
62
4
5
164
100
AcDbEntity
100
AcDbLine
10
-246.148369
20
342.638074
30
0.0
11
-243.148369
21
342.638074
31
0.0
0
LINE
8
Calque 1
62
4
5
165
100
AcDbEntity
100
AcDbLine
10
-243.148369
20
342.638074
30
0.0
11
-243.148369
21
332.638074
31
0.0
0
LINE
8
Calque 1
62
4
5
166
100
AcDbEntity
100
AcDbLine
10
-243.148369
20
332.638074
30
0.0
11
-246.148369
21
332.638074
31
0.0
0
LINE
8
Calque 1
62
4
5
167
100
AcDbEntity
100
AcDbLine
10
-246.148369
20
332.638074
30
0.0
11
-246.148369
21
322.638075
31
0.0
0
LINE
8
Calque 1
62
4
5
168
100
AcDbEntity
100
AcDbLine
10
-246.148369
20
322.638075
30
0.0
11
-243.148369
21
322.638075
31
0.0
0
LINE
8
Calque 1
62
4
5
169
100
AcDbEntity
100
AcDbLine
10
-243.148369
20
322.638075
30
0.0
11
-243.148369
21
312.638076
31
0.0
0
LINE
8
Calque 1
62
4
5
16a
100
AcDbEntity
100
AcDbLine
10
-243.148369
20
312.638076
30
0.0
11
-246.148369
21
312.638076
31
0.0
0
LINE
8
Calque 1
62
4
5
16b
100
AcDbEntity
100
AcDbLine
10
-246.148369
20
312.638076
30
0.0
11
-246.148369
21
302.638076
31
0.0
0
LINE
8
Calque 1
62
4
5
16c
100
AcDbEntity
100
AcDbLine
10
-246.148369
20
302.638076
30
0.0
11
-243.148369
21
302.638076
31
0.0
0
LINE
8
Calque 1
62
4
5
16d
100
AcDbEntity
100
AcDbLine
10
-243.148369
20
302.638076
30
0.0
11
-243.148369
21
292.638076
31
0.0
0
LINE
8
Calque 1
62
4
5
16e
100
AcDbEntity
100
AcDbLine
10
-243.148369
20
292.638076
30
0.0
11
-246.148369
21
292.638076
31
0.0
0
LINE
8
Calque 1
62
4
5
16f
100
AcDbEntity
100
AcDbLine
10
-246.148369
20
292.638076
30
0.0
11
-246.148369
21
282.638076
31
0.0
0
LINE
8
Calque 1
62
4
5
170
100
AcDbEntity
100
AcDbLine
10
-246.148369
20
282.638076
30
0.0
11
-243.148369
21
282.638076
31
0.0
0
LINE
8
Calque 1
62
4
5
171
100
AcDbEntity
100
AcDbLine
10
-243.148369
20
282.638076
30
0.0
11
-243.148369
21
266.638073
31
0.0
0
LINE
8
Calque 1
62
4
5
172
100
AcDbEntity
100
AcDbLine
10
-243.148369
20
266.638073
30
0.0
11
-248.148368
21
266.638073
31
0.0
0
LINE
8
Calque 1
62
4
5
173
100
AcDbEntity
100
AcDbLine
10
-248.148368
20
266.638073
30
0.0
11
-248.148368
21
269.638077
31
0.0
0
LINE
8
Calque 1
62
4
5
174
100
AcDbEntity
100
AcDbLine
10
-248.148368
20
269.638077
30
0.0
11
-258.148368
21
269.638077
31
0.0
0
LINE
8
Calque 1
62
4
5
175
100
AcDbEntity
100
AcDbLine
10
-258.148368
20
269.638077
30
0.0
11
-258.148368
21
266.638073
31
0.0
0
LINE
8
Calque 1
62
4
5
176
100
AcDbEntity
100
AcDbLine
10
-258.148368
20
266.638073
30
0.0
11
-268.148370
21
266.638073
31
0.0
0
LINE
8
Calque 1
62
4
5
177
100
AcDbEntity
100
AcDbLine
10
-268.148370
20
266.638073
30
0.0
11
-268.148370
21
269.638077
31
0.0
0
LINE
8
Calque 1
62
4
5
178
100
AcDbEntity
100
AcDbLine
10
-268.148370
20
269.638077
30
0.0
11
-278.148370
21
269.638077
31
0.0
0
LINE
8
Calque 1
62
4
5
179
100
AcDbEntity
100
AcDbLine
10
-278.148370
20
269.638077
30
0.0
11
-278.148370
21
266.638073
31
0.0
0
LINE
8
Calque 1
62
4
5
17a
100
AcDbEntity
100
AcDbLine
10
-278.148370
20
266.638073
30
0.0
11
-288.148381
21
266.638073
31
0.0
0
LINE
8
Calque 1
62
4
5
17b
100
AcDbEntity
100
AcDbLine
10
-288.148381
20
266.638073
30
0.0
11
-288.148381
21
269.638077
31
0.0
0
LINE
8
Calque 1
62
4
5
17c
100
AcDbEntity
100
AcDbLine
10
-288.148381
20
269.638077
30
0.0
11
-298.148361
21
269.638077
31
0.0
0
LINE
8
Calque 1
62
4
5
17d
100
AcDbEntity
100
AcDbLine
10
-298.148361
20
269.638077
30
0.0
11
-298.148361
21
266.638073
31
0.0
0
LINE
8
Calque 1
62
4
5
17e
100
AcDbEntity
100
AcDbLine
10
-298.148361
20
266.638073
30
0.0
11
-308.148369
21
266.638073
31
0.0
0
LINE
8
Calque 1
62
4
5
17f
100
AcDbEntity
100
AcDbLine
10
-308.148369
20
266.638073
30
0.0
11
-308.148369
21
269.638077
31
0.0
0
LINE
8
Calque 1
62
4
5
180
100
AcDbEntity
100
AcDbLine
10
-308.148369
20
269.638077
30
0.0
11
-318.148377
21
269.638077
31
0.0
0
LINE
8
Calque 1
62
4
5
181
100
AcDbEntity
100
AcDbLine
10
-318.148377
20
269.638077
30
0.0
11
-318.148377
21
266.638073
31
0.0
0
LINE
8
Calque 1
62
4
5
182
100
AcDbEntity
100
AcDbLine
10
-318.148377
20
266.638073
30
0.0
11
-328.148357
21
266.638073
31
0.0
0
LINE
8
Calque 1
62
4
5
183
100
AcDbEntity
100
AcDbLine
10
-328.148357
20
266.638073
30
0.0
11
-328.148357
21
269.638077
31
0.0
0
LINE
8
Calque 1
62
4
5
184
100
AcDbEntity
100
AcDbLine
10
-328.148357
20
269.638077
30
0.0
11
-338.148366
21
269.638077
31
0.0
0
LINE
8
Calque 1
62
4
5
185
100
AcDbEntity
100
AcDbLine
10
-338.148366
20
269.638077
30
0.0
11
-338.148366
21
266.638073
31
0.0
0
LINE
8
Calque 1
62
4
5
186
100
AcDbEntity
100
AcDbLine
10
-338.148366
20
266.638073
30
0.0
11
-343.148384
21
266.638073
31
0.0
0
LINE
8
Calque 1
62
4
5
187
100
AcDbEntity
100
AcDbLine
10
-343.148384
20
266.638073
30
0.0
11
-343.148384
21
282.638076
31
0.0
0
LINE
8
Calque 1
62
4
5
188
100
AcDbEntity
100
AcDbLine
10
-205.398918
20
384.180812
30
0.0
11
-214.398919
21
384.180812
31
0.0
0
LINE
8
Calque 1
62
4
5
189
100
AcDbEntity
100
AcDbLine
10
-214.398919
20
384.180812
30
0.0
11
-214.398919
21
387.180812
31
0.0
0
LINE
8
Calque 1
62
4
5
18a
100
AcDbEntity
100
AcDbLine
10
-214.398919
20
387.180812
30
0.0
11
-224.398919
21
387.180812
31
0.0
0
LINE
8
Calque 1
62
4
5
18b
100
AcDbEntity
100
AcDbLine
10
-224.398919
20
387.180812
30
0.0
11
-224.398919
21
384.180812
31
0.0
0
LINE
8
Calque 1
62
4
5
18c
100
AcDbEntity
100
AcDbLine
10
-224.398919
20
384.180812
30
0.0
11
-233.398918
21
384.180812
31
0.0
0
LINE
8
Calque 1
62
4
5
18d
100
AcDbEntity
100
AcDbLine
10
-233.398918
20
384.180812
30
0.0
11
-233.398918
21
371.180810
31
0.0
0
LINE
8
Calque 1
62
4
5
18e
100
AcDbEntity
100
AcDbLine
10
-233.398918
20
371.180810
30
0.0
11
-236.398918
21
371.180810
31
0.0
0
LINE
8
Calque 1
62
4
5
18f
100
AcDbEntity
100
AcDbLine
10
-236.398918
20
371.180810
30
0.0
11
-236.398918
21
361.180810
31
0.0
0
LINE
8
Calque 1
62
4
5
190
100
AcDbEntity
100
AcDbLine
10
-236.398918
20
361.180810
30
0.0
11
-233.398918
21
361.180810
31
0.0
0
LINE
8
Calque 1
62
4
5
191
100
AcDbEntity
100
AcDbLine
10
-233.398918
20
361.180810
30
0.0
11
-233.398918
21
351.180811
31
0.0
0
LINE
8
Calque 1
62
4
5
192
100
AcDbEntity
100
AcDbLine
10
-233.398918
20
351.180811
30
0.0
11
-236.398918
21
351.180811
31
0.0
0
LINE
8
Calque 1
62
4
5
193
100
AcDbEntity
100
AcDbLine
10
-236.398918
20
351.180811
30
0.0
11
-236.398918
21
341.180811
31
0.0
0
LINE
8
Calque 1
62
4
5
194
100
AcDbEntity
100
AcDbLine
10
-236.398918
20
341.180811
30
0.0
11
-233.398918
21
341.180811
31
0.0
0
LINE
8
Calque 1
62
4
5
195
100
AcDbEntity
100
AcDbLine
10
-233.398918
20
341.180811
30
0.0
11
-233.398918
21
331.180811
31
0.0
0
LINE
8
Calque 1
62
4
5
196
100
AcDbEntity
100
AcDbLine
10
-233.398918
20
331.180811
30
0.0
11
-236.398918
21
331.180811
31
0.0
0
LINE
8
Calque 1
62
4
5
197
100
AcDbEntity
100
AcDbLine
10
-236.398918
20
331.180811
30
0.0
11
-236.398918
21
321.180815
31
0.0
0
LINE
8
Calque 1
62
4
5
198
100
AcDbEntity
100
AcDbLine
10
-236.398918
20
321.180815
30
0.0
11
-233.398918
21
321.180815
31
0.0
0
LINE
8
Calque 1
62
4
5
199
100
AcDbEntity
100
AcDbLine
10
-233.398918
20
321.180815
30
0.0
11
-233.398918
21
311.180815
31
0.0
0
LINE
8
Calque 1
62
4
5
19a
100
AcDbEntity
100
AcDbLine
10
-233.398918
20
311.180815
30
0.0
11
-236.398918
21
311.180815
31
0.0
0
LINE
8
Calque 1
62
4
5
19b
100
AcDbEntity
100
AcDbLine
10
-236.398918
20
311.180815
30
0.0
11
-236.398918
21
301.180816
31
0.0
0
LINE
8
Calque 1
62
4
5
19c
100
AcDbEntity
100
AcDbLine
10
-236.398918
20
301.180816
30
0.0
11
-233.398918
21
301.180816
31
0.0
0
LINE
8
Calque 1
62
4
5
19d
100
AcDbEntity
100
AcDbLine
10
-233.398918
20
301.180816
30
0.0
11
-233.398918
21
291.180816
31
0.0
0
LINE
8
Calque 1
62
4
5
19e
100
AcDbEntity
100
AcDbLine
10
-233.398918
20
291.180816
30
0.0
11
-236.398918
21
291.180816
31
0.0
0
LINE
8
Calque 1
62
4
5
19f
100
AcDbEntity
100
AcDbLine
10
-236.398918
20
291.180816
30
0.0
11
-236.398918
21
281.180816
31
0.0
0
LINE
8
Calque 1
62
4
5
1a0
100
AcDbEntity
100
AcDbLine
10
-236.398918
20
281.180816
30
0.0
11
-233.398918
21
281.180816
31
0.0
0
LINE
8
Calque 1
62
4
5
1a1
100
AcDbEntity
100
AcDbLine
10
-233.398918
20
281.180816
30
0.0
11
-233.398918
21
268.180816
31
0.0
0
LINE
8
Calque 1
62
4
5
1a2
100
AcDbEntity
100
AcDbLine
10
-233.398918
20
268.180816
30
0.0
11
-224.398919
21
268.180816
31
0.0
0
LINE
8
Calque 1
62
4
5
1a3
100
AcDbEntity
100
AcDbLine
10
-224.398919
20
268.180816
30
0.0
11
-224.398919
21
265.180813
31
0.0
0
LINE
8
Calque 1
62
4
5
1a4
100
AcDbEntity
100
AcDbLine
10
-224.398919
20
265.180813
30
0.0
11
-214.398919
21
265.180813
31
0.0
0
LINE
8
Calque 1
62
4
5
1a5
100
AcDbEntity
100
AcDbLine
10
-214.398919
20
265.180813
30
0.0
11
-214.398919
21
268.180816
31
0.0
0
LINE
8
Calque 1
62
4
5
1a6
100
AcDbEntity
100
AcDbLine
10
-214.398919
20
268.180816
30
0.0
11
-205.398918
21
268.180816
31
0.0
0
LINE
8
Calque 1
62
4
5
1a7
100
AcDbEntity
100
AcDbLine
10
-205.398918
20
268.180816
30
0.0
11
-205.398918
21
281.180816
31
0.0
0
LINE
8
Calque 1
62
4
5
1a8
100
AcDbEntity
100
AcDbLine
10
-205.398918
20
281.180816
30
0.0
11
-202.398918
21
281.180816
31
0.0
0
LINE
8
Calque 1
62
4
5
1a9
100
AcDbEntity
100
AcDbLine
10
-202.398918
20
281.180816
30
0.0
11
-202.398918
21
291.180816
31
0.0
0
LINE
8
Calque 1
62
4
5
1aa
100
AcDbEntity
100
AcDbLine
10
-202.398918
20
291.180816
30
0.0
11
-205.398918
21
291.180816
31
0.0
0
LINE
8
Calque 1
62
4
5
1ab
100
AcDbEntity
100
AcDbLine
10
-205.398918
20
291.180816
30
0.0
11
-205.398918
21
301.180816
31
0.0
0
LINE
8
Calque 1
62
4
5
1ac
100
AcDbEntity
100
AcDbLine
10
-205.398918
20
301.180816
30
0.0
11
-202.398918
21
301.180816
31
0.0
0
LINE
8
Calque 1
62
4
5
1ad
100
AcDbEntity
100
AcDbLine
10
-202.398918
20
301.180816
30
0.0
11
-202.398918
21
311.180815
31
0.0
0
LINE
8
Calque 1
62
4
5
1ae
100
AcDbEntity
100
AcDbLine
10
-202.398918
20
311.180815
30
0.0
11
-205.398918
21
311.180815
31
0.0
0
LINE
8
Calque 1
62
4
5
1af
100
AcDbEntity
100
AcDbLine
10
-205.398918
20
311.180815
30
0.0
11
-205.398918
21
321.180815
31
0.0
0
LINE
8
Calque 1
62
4
5
1b0
100
AcDbEntity
100
AcDbLine
10
-205.398918
20
321.180815
30
0.0
11
-202.398918
21
321.180815
31
0.0
0
LINE
8
Calque 1
62
4
5
1b1
100
AcDbEntity
100
AcDbLine
10
-202.398918
20
321.180815
30
0.0
11
-202.398918
21
331.180811
31
0.0
0
LINE
8
Calque 1
62
4
5
1b2
100
AcDbEntity
100
AcDbLine
10
-202.398918
20
331.180811
30
0.0
11
-205.398918
21
331.180811
31
0.0
0
LINE
8
Calque 1
62
4
5
1b3
100
AcDbEntity
100
AcDbLine
10
-205.398918
20
331.180811
30
0.0
11
-205.398918
21
341.180811
31
0.0
0
LINE
8
Calque 1
62
4
5
1b4
100
AcDbEntity
100
AcDbLine
10
-205.398918
20
341.180811
30
0.0
11
-202.398918
21
341.180811
31
0.0
0
LINE
8
Calque 1
62
4
5
1b5
100
AcDbEntity
100
AcDbLine
10
-202.398918
20
341.180811
30
0.0
11
-202.398918
21
351.180811
31
0.0
0
LINE
8
Calque 1
62
4
5
1b6
100
AcDbEntity
100
AcDbLine
10
-202.398918
20
351.180811
30
0.0
11
-205.398918
21
351.180811
31
0.0
0
LINE
8
Calque 1
62
4
5
1b7
100
AcDbEntity
100
AcDbLine
10
-205.398918
20
351.180811
30
0.0
11
-205.398918
21
361.180810
31
0.0
0
LINE
8
Calque 1
62
4
5
1b8
100
AcDbEntity
100
AcDbLine
10
-205.398918
20
361.180810
30
0.0
11
-202.398918
21
361.180810
31
0.0
0
LINE
8
Calque 1
62
4
5
1b9
100
AcDbEntity
100
AcDbLine
10
-202.398918
20
361.180810
30
0.0
11
-202.398918
21
371.180810
31
0.0
0
LINE
8
Calque 1
62
4
5
1ba
100
AcDbEntity
100
AcDbLine
10
-202.398918
20
371.180810
30
0.0
11
-205.398918
21
371.180810
31
0.0
0
LINE
8
Calque 1
62
4
5
1bb
100
AcDbEntity
100
AcDbLine
10
-205.398918
20
371.180810
30
0.0
11
-205.398918
21
384.180812
31
0.0
0
LINE
8
Calque 1
62
4
5
1bc
100
AcDbEntity
100
AcDbLine
10
-248.038487
20
134.700104
30
0.0
11
-243.038489
21
134.700104
31
0.0
0
LINE
8
Calque 1
62
4
5
1bd
100
AcDbEntity
100
AcDbLine
10
-243.038489
20
134.700104
30
0.0
11
-243.038489
21
142.700105
31
0.0
0
LINE
8
Calque 1
62
4
5
1be
100
AcDbEntity
100
AcDbLine
10
-243.038489
20
142.700105
30
0.0
11
-246.038489
21
142.700105
31
0.0
0
LINE
8
Calque 1
62
4
5
1bf
100
AcDbEntity
100
AcDbLine
10
-246.038489
20
142.700105
30
0.0
11
-246.038489
21
152.700105
31
0.0
0
LINE
8
Calque 1
62
4
5
1c0
100
AcDbEntity
100
AcDbLine
10
-246.038489
20
152.700105
30
0.0
11
-243.038489
21
152.700105
31
0.0
0
LINE
8
Calque 1
62
4
5
1c1
100
AcDbEntity
100
AcDbLine
10
-243.038489
20
152.700105
30
0.0
11
-243.038489
21
157.700104
31
0.0
0
LINE
8
Calque 1
62
4
5
1c2
100
AcDbEntity
100
AcDbLine
10
-243.038489
20
157.700104
30
0.0
11
-300.038488
21
157.700104
31
0.0
0
LINE
8
Calque 1
62
4
5
1c3
100
AcDbEntity
100
AcDbLine
10
-300.038488
20
157.700104
30
0.0
11
-300.038488
21
233.700104
31
0.0
0
LINE
8
Calque 1
62
4
5
1c4
100
AcDbEntity
100
AcDbLine
10
-300.038488
20
233.700104
30
0.0
11
-243.038489
21
233.700104
31
0.0
0
LINE
8
Calque 1
62
4
5
1c5
100
AcDbEntity
100
AcDbLine
10
-243.038489
20
233.700104
30
0.0
11
-243.038489
21
238.700105
31
0.0
0
LINE
8
Calque 1
62
4
5
1c6
100
AcDbEntity
100
AcDbLine
10
-243.038489
20
238.700105
30
0.0
11
-246.038489
21
238.700105
31
0.0
0
LINE
8
Calque 1
62
4
5
1c7
100
AcDbEntity
100
AcDbLine
10
-246.038489
20
238.700105
30
0.0
11
-246.038489
21
248.700105
31
0.0
0
LINE
8
Calque 1
62
4
5
1c8
100
AcDbEntity
100
AcDbLine
10
-246.038489
20
248.700105
30
0.0
11
-243.038489
21
248.700105
31
0.0
0
LINE
8
Calque 1
62
4
5
1c9
100
AcDbEntity
100
AcDbLine
10
-243.038489
20
248.700105
30
0.0
11
-243.038489
21
256.700103
31
0.0
0
LINE
8
Calque 1
62
4
5
1ca
100
AcDbEntity
100
AcDbLine
10
-243.038489
20
256.700103
30
0.0
11
-248.038487
21
256.700103
31
0.0
0
LINE
8
Calque 1
62
4
5
1cb
100
AcDbEntity
100
AcDbLine
10
-248.038487
20
256.700103
30
0.0
11
-248.038487
21
253.700104
31
0.0
0
LINE
8
Calque 1
62
4
5
1cc
100
AcDbEntity
100
AcDbLine
10
-248.038487
20
253.700104
30
0.0
11
-258.038490
21
253.700104
31
0.0
0
LINE
8
Calque 1
62
4
5
1cd
100
AcDbEntity
100
AcDbLine
10
-258.038490
20
253.700104
30
0.0
11
-258.038490
21
256.700103
31
0.0
0
LINE
8
Calque 1
62
4
5
1ce
100
AcDbEntity
100
AcDbLine
10
-258.038490
20
256.700103
30
0.0
11
-268.038490
21
256.700103
31
0.0
0
LINE
8
Calque 1
62
4
5
1cf
100
AcDbEntity
100
AcDbLine
10
-268.038490
20
256.700103
30
0.0
11
-268.038490
21
253.700104
31
0.0
0
LINE
8
Calque 1
62
4
5
1d0
100
AcDbEntity
100
AcDbLine
10
-268.038490
20
253.700104
30
0.0
11
-278.038489
21
253.700104
31
0.0
0
LINE
8
Calque 1
62
4
5
1d1
100
AcDbEntity
100
AcDbLine
10
-278.038489
20
253.700104
30
0.0
11
-278.038489
21
256.700103
31
0.0
0
LINE
8
Calque 1
62
4
5
1d2
100
AcDbEntity
100
AcDbLine
10
-278.038489
20
256.700103
30
0.0
11
-288.038484
21
256.700103
31
0.0
0
LINE
8
Calque 1
62
4
5
1d3
100
AcDbEntity
100
AcDbLine
10
-288.038484
20
256.700103
30
0.0
11
-288.038484
21
253.700104
31
0.0
0
LINE
8
Calque 1
62
4
5
1d4
100
AcDbEntity
100
AcDbLine
10
-288.038484
20
253.700104
30
0.0
11
-298.038492
21
253.700104
31
0.0
0
LINE
8
Calque 1
62
4
5
1d5
100
AcDbEntity
100
AcDbLine
10
-298.038492
20
253.700104
30
0.0
11
-298.038492
21
256.700103
31
0.0
0
LINE
8
Calque 1
62
4
5
1d6
100
AcDbEntity
100
AcDbLine
10
-298.038492
20
256.700103
30
0.0
11
-308.038500
21
256.700103
31
0.0
0
LINE
8
Calque 1
62
4
5
1d7
100
AcDbEntity
100
AcDbLine
10
-308.038500
20
256.700103
30
0.0
11
-308.038500
21
253.700104
31
0.0
0
LINE
8
Calque 1
62
4
5
1d8
100
AcDbEntity
100
AcDbLine
10
-308.038500
20
253.700104
30
0.0
11
-318.038480
21
253.700104
31
0.0
0
LINE
8
Calque 1
62
4
5
1d9
100
AcDbEntity
100
AcDbLine
10
-318.038480
20
253.700104
30
0.0
11
-318.038480
21
256.700103
31
0.0
0
LINE
8
Calque 1
62
4
5
1da
100
AcDbEntity
100
AcDbLine
10
-318.038480
20
256.700103
30
0.0
11
-328.038488
21
256.700103
31
0.0
0
LINE
8
Calque 1
62
4
5
1db
100
AcDbEntity
100
AcDbLine
10
-328.038488
20
256.700103
30
0.0
11
-328.038488
21
253.700104
31
0.0
0
LINE
8
Calque 1
62
4
5
1dc
100
AcDbEntity
100
AcDbLine
10
-328.038488
20
253.700104
30
0.0
11
-338.038496
21
253.700104
31
0.0
0
LINE
8
Calque 1
62
4
5
1dd
100
AcDbEntity
100
AcDbLine
10
-338.038496
20
253.700104
30
0.0
11
-338.038496
21
256.700103
31
0.0
0
LINE
8
Calque 1
62
4
5
1de
100
AcDbEntity
100
AcDbLine
10
-338.038496
20
256.700103
30
0.0
11
-343.038486
21
256.700103
31
0.0
0
LINE
8
Calque 1
62
4
5
1df
100
AcDbEntity
100
AcDbLine
10
-343.038486
20
256.700103
30
0.0
11
-343.038486
21
240.700104
31
0.0
0
LINE
8
Calque 1
62
4
5
1e0
100
AcDbEntity
100
AcDbLine
10
-343.038486
20
240.700104
30
0.0
11
-340.038492
21
240.700104
31
0.0
0
LINE
8
Calque 1
62
4
5
1e1
100
AcDbEntity
100
AcDbLine
10
-340.038492
20
240.700104
30
0.0
11
-340.038492
21
230.700104
31
0.0
0
LINE
8
Calque 1
62
4
5
1e2
100
AcDbEntity
100
AcDbLine
10
-340.038492
20
230.700104
30
0.0
11
-343.038486
21
230.700104
31
0.0
0
LINE
8
Calque 1
62
4
5
1e3
100
AcDbEntity
100
AcDbLine
10
-343.038486
20
230.700104
30
0.0
11
-343.038486
21
220.700105
31
0.0
0
LINE
8
Calque 1
62
4
5
1e4
100
AcDbEntity
100
AcDbLine
10
-343.038486
20
220.700105
30
0.0
11
-340.038492
21
220.700105
31
0.0
0
LINE
8
Calque 1
62
4
5
1e5
100
AcDbEntity
100
AcDbLine
10
-340.038492
20
220.700105
30
0.0
11
-340.038492
21
210.700105
31
0.0
0
LINE
8
Calque 1
62
4
5
1e6
100
AcDbEntity
100
AcDbLine
10
-340.038492
20
210.700105
30
0.0
11
-343.038486
21
210.700105
31
0.0
0
LINE
8
Calque 1
62
4
5
1e7
100
AcDbEntity
100
AcDbLine
10
-343.038486
20
210.700105
30
0.0
11
-343.038486
21
200.700105
31
0.0
0
LINE
8
Calque 1
62
4
5
1e8
100
AcDbEntity
100
AcDbLine
10
-343.038486
20
200.700105
30
0.0
11
-340.038492
21
200.700105
31
0.0
0
LINE
8
Calque 1
62
4
5
1e9
100
AcDbEntity
100
AcDbLine
10
-340.038492
20
200.700105
30
0.0
11
-340.038492
21
190.700105
31
0.0
0
LINE
8
Calque 1
62
4
5
1ea
100
AcDbEntity
100
AcDbLine
10
-340.038492
20
190.700105
30
0.0
11
-343.038486
21
190.700105
31
0.0
0
LINE
8
Calque 1
62
4
5
1eb
100
AcDbEntity
100
AcDbLine
10
-343.038486
20
190.700105
30
0.0
11
-343.038486
21
180.700106
31
0.0
0
LINE
8
Calque 1
62
4
5
1ec
100
AcDbEntity
100
AcDbLine
10
-343.038486
20
180.700106
30
0.0
11
-340.038492
21
180.700106
31
0.0
0
LINE
8
Calque 1
62
4
5
1ed
100
AcDbEntity
100
AcDbLine
10
-340.038492
20
180.700106
30
0.0
11
-340.038492
21
170.700103
31
0.0
0
LINE
8
Calque 1
62
4
5
1ee
100
AcDbEntity
100
AcDbLine
10
-340.038492
20
170.700103
30
0.0
11
-343.038486
21
170.700103
31
0.0
0
LINE
8
Calque 1
62
4
5
1ef
100
AcDbEntity
100
AcDbLine
10
-343.038486
20
170.700103
30
0.0
11
-343.038486
21
160.700103
31
0.0
0
LINE
8
Calque 1
62
4
5
1f0
100
AcDbEntity
100
AcDbLine
10
-343.038486
20
160.700103
30
0.0
11
-340.038492
21
160.700103
31
0.0
0
LINE
8
Calque 1
62
4
5
1f1
100
AcDbEntity
100
AcDbLine
10
-340.038492
20
160.700103
30
0.0
11
-340.038492
21
150.700104
31
0.0
0
LINE
8
Calque 1
62
4
5
1f2
100
AcDbEntity
100
AcDbLine
10
-340.038492
20
150.700104
30
0.0
11
-343.038486
21
150.700104
31
0.0
0
LINE
8
Calque 1
62
4
5
1f3
100
AcDbEntity
100
AcDbLine
10
-343.038486
20
150.700104
30
0.0
11
-343.038486
21
134.700104
31
0.0
0
LINE
8
Calque 1
62
4
5
1f4
100
AcDbEntity
100
AcDbLine
10
-343.038486
20
134.700104
30
0.0
11
-338.038496
21
134.700104
31
0.0
0
LINE
8
Calque 1
62
4
5
1f5
100
AcDbEntity
100
AcDbLine
10
-338.038496
20
134.700104
30
0.0
11
-338.038496
21
137.700104
31
0.0
0
LINE
8
Calque 1
62
4
5
1f6
100
AcDbEntity
100
AcDbLine
10
-338.038496
20
137.700104
30
0.0
11
-328.038488
21
137.700104
31
0.0
0
LINE
8
Calque 1
62
4
5
1f7
100
AcDbEntity
100
AcDbLine
10
-328.038488
20
137.700104
30
0.0
11
-328.038488
21
134.700104
31
0.0
0
LINE
8
Calque 1
62
4
5
1f8
100
AcDbEntity
100
AcDbLine
10
-328.038488
20
134.700104
30
0.0
11
-318.038480
21
134.700104
31
0.0
0
LINE
8
Calque 1
62
4
5
1f9
100
AcDbEntity
100
AcDbLine
10
-318.038480
20
134.700104
30
0.0
11
-318.038480
21
137.700104
31
0.0
0
LINE
8
Calque 1
62
4
5
1fa
100
AcDbEntity
100
AcDbLine
10
-318.038480
20
137.700104
30
0.0
11
-308.038500
21
137.700104
31
0.0
0
LINE
8
Calque 1
62
4
5
1fb
100
AcDbEntity
100
AcDbLine
10
-308.038500
20
137.700104
30
0.0
11
-308.038500
21
134.700104
31
0.0
0
LINE
8
Calque 1
62
4
5
1fc
100
AcDbEntity
100
AcDbLine
10
-308.038500
20
134.700104
30
0.0
11
-298.038492
21
134.700104
31
0.0
0
LINE
8
Calque 1
62
4
5
1fd
100
AcDbEntity
100
AcDbLine
10
-298.038492
20
134.700104
30
0.0
11
-298.038492
21
137.700104
31
0.0
0
LINE
8
Calque 1
62
4
5
1fe
100
AcDbEntity
100
AcDbLine
10
-298.038492
20
137.700104
30
0.0
11
-288.038484
21
137.700104
31
0.0
0
LINE
8
Calque 1
62
4
5
1ff
100
AcDbEntity
100
AcDbLine
10
-288.038484
20
137.700104
30
0.0
11
-288.038484
21
134.700104
31
0.0
0
LINE
8
Calque 1
62
4
5
200
100
AcDbEntity
100
AcDbLine
10
-288.038484
20
134.700104
30
0.0
11
-278.038489
21
134.700104
31
0.0
0
LINE
8
Calque 1
62
4
5
201
100
AcDbEntity
100
AcDbLine
10
-278.038489
20
134.700104
30
0.0
11
-278.038489
21
137.700104
31
0.0
0
LINE
8
Calque 1
62
4
5
202
100
AcDbEntity
100
AcDbLine
10
-278.038489
20
137.700104
30
0.0
11
-268.038490
21
137.700104
31
0.0
0
LINE
8
Calque 1
62
4
5
203
100
AcDbEntity
100
AcDbLine
10
-268.038490
20
137.700104
30
0.0
11
-268.038490
21
134.700104
31
0.0
0
LINE
8
Calque 1
62
4
5
204
100
AcDbEntity
100
AcDbLine
10
-268.038490
20
134.700104
30
0.0
11
-258.038490
21
134.700104
31
0.0
0
LINE
8
Calque 1
62
4
5
205
100
AcDbEntity
100
AcDbLine
10
-258.038490
20
134.700104
30
0.0
11
-258.038490
21
137.700104
31
0.0
0
LINE
8
Calque 1
62
4
5
206
100
AcDbEntity
100
AcDbLine
10
-258.038490
20
137.700104
30
0.0
11
-248.038487
21
137.700104
31
0.0
0
LINE
8
Calque 1
62
4
5
207
100
AcDbEntity
100
AcDbLine
10
-248.038487
20
137.700104
30
0.0
11
-248.038487
21
134.700104
31
0.0
0
LINE
8
Calque 1
62
4
5
208
100
AcDbEntity
100
AcDbLine
10
-292.708923
20
207.866625
30
0.0
11
-295.708945
21
207.866625
31
0.0
0
LINE
8
Calque 1
62
4
5
209
100
AcDbEntity
100
AcDbLine
10
-295.708945
20
207.866625
30
0.0
11
-295.708945
21
198.866623
31
0.0
0
LINE
8
Calque 1
62
4
5
20a
100
AcDbEntity
100
AcDbLine
10
-295.708945
20
198.866623
30
0.0
11
-290.708927
21
198.866623
31
0.0
0
LINE
8
Calque 1
62
4
5
20b
100
AcDbEntity
100
AcDbLine
10
-290.708927
20
198.866623
30
0.0
11
-290.708927
21
195.866623
31
0.0
0
LINE
8
Calque 1
62
4
5
20c
100
AcDbEntity
100
AcDbLine
10
-290.708927
20
195.866623
30
0.0
11
-280.708930
21
195.866623
31
0.0
0
LINE
8
Calque 1
62
4
5
20d
100
AcDbEntity
100
AcDbLine
10
-280.708930
20
195.866623
30
0.0
11
-280.708930
21
198.866623
31
0.0
0
LINE
8
Calque 1
62
4
5
20e
100
AcDbEntity
100
AcDbLine
10
-280.708930
20
198.866623
30
0.0
11
-270.708930
21
198.866623
31
0.0
0
LINE
8
Calque 1
62
4
5
20f
100
AcDbEntity
100
AcDbLine
10
-270.708930
20
198.866623
30
0.0
11
-270.708930
21
195.866623
31
0.0
0
LINE
8
Calque 1
62
4
5
210
100
AcDbEntity
100
AcDbLine
10
-270.708930
20
195.866623
30
0.0
11
-260.708927
21
195.866623
31
0.0
0
LINE
8
Calque 1
62
4
5
211
100
AcDbEntity
100
AcDbLine
10
-260.708927
20
195.866623
30
0.0
11
-260.708927
21
198.866623
31
0.0
0
LINE
8
Calque 1
62
4
5
212
100
AcDbEntity
100
AcDbLine
10
-260.708927
20
198.866623
30
0.0
11
-250.708928
21
198.866623
31
0.0
0
LINE
8
Calque 1
62
4
5
213
100
AcDbEntity
100
AcDbLine
10
-250.708928
20
198.866623
30
0.0
11
-250.708928
21
195.866623
31
0.0
0
LINE
8
Calque 1
62
4
5
214
100
AcDbEntity
100
AcDbLine
10
-250.708928
20
195.866623
30
0.0
11
-240.708928
21
195.866623
31
0.0
0
LINE
8
Calque 1
62
4
5
215
100
AcDbEntity
100
AcDbLine
10
-240.708928
20
195.866623
30
0.0
11
-240.708928
21
198.866623
31
0.0
0
LINE
8
Calque 1
62
4
5
216
100
AcDbEntity
100
AcDbLine
10
-240.708928
20
198.866623
30
0.0
11
-230.708928
21
198.866623
31
0.0
0
LINE
8
Calque 1
62
4
5
217
100
AcDbEntity
100
AcDbLine
10
-230.708928
20
198.866623
30
0.0
11
-230.708928
21
195.866623
31
0.0
0
LINE
8
Calque 1
62
4
5
218
100
AcDbEntity
100
AcDbLine
10
-230.708928
20
195.866623
30
0.0
11
-220.708928
21
195.866623
31
0.0
0
LINE
8
Calque 1
62
4
5
219
100
AcDbEntity
100
AcDbLine
10
-220.708928
20
195.866623
30
0.0
11
-220.708928
21
198.866623
31
0.0
0
LINE
8
Calque 1
62
4
5
21a
100
AcDbEntity
100
AcDbLine
10
-220.708928
20
198.866623
30
0.0
11
-210.708929
21
198.866623
31
0.0
0
LINE
8
Calque 1
62
4
5
21b
100
AcDbEntity
100
AcDbLine
10
-210.708929
20
198.866623
30
0.0
11
-210.708929
21
195.866623
31
0.0
0
LINE
8
Calque 1
62
4
5
21c
100
AcDbEntity
100
AcDbLine
10
-210.708929
20
195.866623
30
0.0
11
-200.708929
21
195.866623
31
0.0
0
LINE
8
Calque 1
62
4
5
21d
100
AcDbEntity
100
AcDbLine
10
-200.708929
20
195.866623
30
0.0
11
-200.708929
21
198.866623
31
0.0
0
LINE
8
Calque 1
62
4
5
21e
100
AcDbEntity
100
AcDbLine
10
-200.708929
20
198.866623
30
0.0
11
-195.708928
21
198.866623
31
0.0
0
LINE
8
Calque 1
62
4
5
21f
100
AcDbEntity
100
AcDbLine
10
-195.708928
20
198.866623
30
0.0
11
-195.708928
21
207.866625
31
0.0
0
LINE
8
Calque 1
62
4
5
220
100
AcDbEntity
100
AcDbLine
10
-195.708928
20
207.866625
30
0.0
11
-198.708927
21
207.866625
31
0.0
0
LINE
8
Calque 1
62
4
5
221
100
AcDbEntity
100
AcDbLine
10
-198.708927
20
207.866625
30
0.0
11
-198.708927
21
217.866625
31
0.0
0
LINE
8
Calque 1
62
4
5
222
100
AcDbEntity
100
AcDbLine
10
-198.708927
20
217.866625
30
0.0
11
-195.708928
21
217.866625
31
0.0
0
LINE
8
Calque 1
62
4
5
223
100
AcDbEntity
100
AcDbLine
10
-195.708928
20
217.866625
30
0.0
11
-195.708928
21
226.866623
31
0.0
0
LINE
8
Calque 1
62
4
5
224
100
AcDbEntity
100
AcDbLine
10
-195.708928
20
226.866623
30
0.0
11
-200.708929
21
226.866623
31
0.0
0
LINE
8
Calque 1
62
4
5
225
100
AcDbEntity
100
AcDbLine
10
-200.708929
20
226.866623
30
0.0
11
-200.708929
21
229.866623
31
0.0
0
LINE
8
Calque 1
62
4
5
226
100
AcDbEntity
100
AcDbLine
10
-200.708929
20
229.866623
30
0.0
11
-210.708929
21
229.866623
31
0.0
0
LINE
8
Calque 1
62
4
5
227
100
AcDbEntity
100
AcDbLine
10
-210.708929
20
229.866623
30
0.0
11
-210.708929
21
226.866623
31
0.0
0
LINE
8
Calque 1
62
4
5
228
100
AcDbEntity
100
AcDbLine
10
-210.708929
20
226.866623
30
0.0
11
-220.708928
21
226.866623
31
0.0
0
LINE
8
Calque 1
62
4
5
229
100
AcDbEntity
100
AcDbLine
10
-220.708928
20
226.866623
30
0.0
11
-220.708928
21
229.866623
31
0.0
0
LINE
8
Calque 1
62
4
5
22a
100
AcDbEntity
100
AcDbLine
10
-220.708928
20
229.866623
30
0.0
11
-230.708928
21
229.866623
31
0.0
0
LINE
8
Calque 1
62
4
5
22b
100
AcDbEntity
100
AcDbLine
10
-230.708928
20
229.866623
30
0.0
11
-230.708928
21
226.866623
31
0.0
0
LINE
8
Calque 1
62
4
5
22c
100
AcDbEntity
100
AcDbLine
10
-230.708928
20
226.866623
30
0.0
11
-240.708928
21
226.866623
31
0.0
0
LINE
8
Calque 1
62
4
5
22d
100
AcDbEntity
100
AcDbLine
10
-240.708928
20
226.866623
30
0.0
11
-240.708928
21
229.866623
31
0.0
0
LINE
8
Calque 1
62
4
5
22e
100
AcDbEntity
100
AcDbLine
10
-240.708928
20
229.866623
30
0.0
11
-250.708928
21
229.866623
31
0.0
0
LINE
8
Calque 1
62
4
5
22f
100
AcDbEntity
100
AcDbLine
10
-250.708928
20
229.866623
30
0.0
11
-250.708928
21
226.866623
31
0.0
0
LINE
8
Calque 1
62
4
5
230
100
AcDbEntity
100
AcDbLine
10
-250.708928
20
226.866623
30
0.0
11
-260.708927
21
226.866623
31
0.0
0
LINE
8
Calque 1
62
4
5
231
100
AcDbEntity
100
AcDbLine
10
-260.708927
20
226.866623
30
0.0
11
-260.708927
21
229.866623
31
0.0
0
LINE
8
Calque 1
62
4
5
232
100
AcDbEntity
100
AcDbLine
10
-260.708927
20
229.866623
30
0.0
11
-270.708930
21
229.866623
31
0.0
0
LINE
8
Calque 1
62
4
5
233
100
AcDbEntity
100
AcDbLine
10
-270.708930
20
229.866623
30
0.0
11
-270.708930
21
226.866623
31
0.0
0
LINE
8
Calque 1
62
4
5
234
100
AcDbEntity
100
AcDbLine
10
-270.708930
20
226.866623
30
0.0
11
-280.708930
21
226.866623
31
0.0
0
LINE
8
Calque 1
62
4
5
235
100
AcDbEntity
100
AcDbLine
10
-280.708930
20
226.866623
30
0.0
11
-280.708930
21
229.866623
31
0.0
0
LINE
8
Calque 1
62
4
5
236
100
AcDbEntity
100
AcDbLine
10
-280.708930
20
229.866623
30
0.0
11
-290.708927
21
229.866623
31
0.0
0
LINE
8
Calque 1
62
4
5
237
100
AcDbEntity
100
AcDbLine
10
-290.708927
20
229.866623
30
0.0
11
-290.708927
21
226.866623
31
0.0
0
LINE
8
Calque 1
62
4
5
238
100
AcDbEntity
100
AcDbLine
10
-290.708927
20
226.866623
30
0.0
11
-295.708945
21
226.866623
31
0.0
0
LINE
8
Calque 1
62
4
5
239
100
AcDbEntity
100
AcDbLine
10
-295.708945
20
226.866623
30
0.0
11
-295.708945
21
217.866625
31
0.0
0
LINE
8
Calque 1
62
4
5
23a
100
AcDbEntity
100
AcDbLine
10
-295.708945
20
217.866625
30
0.0
11
-292.708923
21
217.866625
31
0.0
0
LINE
8
Calque 1
62
4
5
23b
100
AcDbEntity
100
AcDbLine
10
-292.708923
20
217.866625
30
0.0
11
-282.708914
21
217.866625
31
0.0
0
LINE
8
Calque 1
62
4
5
23c
100
AcDbEntity
100
AcDbLine
10
-282.708914
20
217.866625
30
0.0
11
-282.708914
21
207.866625
31
0.0
0
LINE
8
Calque 1
62
4
5
23d
100
AcDbEntity
100
AcDbLine
10
-282.708914
20
207.866625
30
0.0
11
-292.708923
21
207.866625
31
0.0
0
LINE
8
Calque 1
62
4
5
23e
100
AcDbEntity
100
AcDbLine
10
-193.695568
20
368.854258
30
0.0
11
-193.695568
21
363.854259
31
0.0
0
LINE
8
Calque 1
62
4
5
23f
100
AcDbEntity
100
AcDbLine
10
-193.695568
20
363.854259
30
0.0
11
-196.695568
21
363.854259
31
0.0
0
LINE
8
Calque 1
62
4
5
240
100
AcDbEntity
100
AcDbLine
10
-196.695568
20
363.854259
30
0.0
11
-196.695568
21
287.854257
31
0.0
0
LINE
8
Calque 1
62
4
5
241
100
AcDbEntity
100
AcDbLine
10
-196.695568
20
287.854257
30
0.0
11
-193.695568
21
287.854257
31
0.0
0
LINE
8
Calque 1
62
4
5
242
100
AcDbEntity
100
AcDbLine
10
-193.695568
20
287.854257
30
0.0
11
-193.695568
21
282.854256
31
0.0
0
LINE
8
Calque 1
62
4
5
243
100
AcDbEntity
100
AcDbLine
10
-193.695568
20
282.854256
30
0.0
11
-196.695568
21
282.854256
31
0.0
0
LINE
8
Calque 1
62
4
5
244
100
AcDbEntity
100
AcDbLine
10
-196.695568
20
282.854256
30
0.0
11
-196.695568
21
272.854256
31
0.0
0
LINE
8
Calque 1
62
4
5
245
100
AcDbEntity
100
AcDbLine
10
-196.695568
20
272.854256
30
0.0
11
-193.695568
21
272.854256
31
0.0
0
LINE
8
Calque 1
62
4
5
246
100
AcDbEntity
100
AcDbLine
10
-193.695568
20
272.854256
30
0.0
11
-193.695568
21
267.854254
31
0.0
0
LINE
8
Calque 1
62
4
5
247
100
AcDbEntity
100
AcDbLine
10
-193.695568
20
267.854254
30
0.0
11
-184.695569
21
267.854254
31
0.0
0
LINE
8
Calque 1
62
4
5
248
100
AcDbEntity
100
AcDbLine
10
-184.695569
20
267.854254
30
0.0
11
-184.695569
21
264.854254
31
0.0
0
LINE
8
Calque 1
62
4
5
249
100
AcDbEntity
100
AcDbLine
10
-184.695569
20
264.854254
30
0.0
11
-174.695570
21
264.854254
31
0.0
0
LINE
8
Calque 1
62
4
5
24a
100
AcDbEntity
100
AcDbLine
10
-174.695570
20
264.854254
30
0.0
11
-174.695570
21
267.854254
31
0.0
0
LINE
8
Calque 1
62
4
5
24b
100
AcDbEntity
100
AcDbLine
10
-174.695570
20
267.854254
30
0.0
11
-165.695568
21
267.854254
31
0.0
0
LINE
8
Calque 1
62
4
5
24c
100
AcDbEntity
100
AcDbLine
10
-165.695568
20
267.854254
30
0.0
11
-165.695568
21
280.854257
31
0.0
0
LINE
8
Calque 1
62
4
5
24d
100
AcDbEntity
100
AcDbLine
10
-165.695568
20
280.854257
30
0.0
11
-162.695568
21
280.854257
31
0.0
0
LINE
8
Calque 1
62
4
5
24e
100
AcDbEntity
100
AcDbLine
10
-162.695568
20
280.854257
30
0.0
11
-162.695568
21
290.854257
31
0.0
0
LINE
8
Calque 1
62
4
5
24f
100
AcDbEntity
100
AcDbLine
10
-162.695568
20
290.854257
30
0.0
11
-165.695568
21
290.854257
31
0.0
0
LINE
8
Calque 1
62
4
5
250
100
AcDbEntity
100
AcDbLine
10
-165.695568
20
290.854257
30
0.0
11
-165.695568
21
300.854256
31
0.0
0
LINE
8
Calque 1
62
4
5
251
100
AcDbEntity
100
AcDbLine
10
-165.695568
20
300.854256
30
0.0
11
-162.695568
21
300.854256
31
0.0
0
LINE
8
Calque 1
62
4
5
252
100
AcDbEntity
100
AcDbLine
10
-162.695568
20
300.854256
30
0.0
11
-162.695568
21
310.854256
31
0.0
0
LINE
8
Calque 1
62
4
5
253
100
AcDbEntity
100
AcDbLine
10
-162.695568
20
310.854256
30
0.0
11
-165.695568
21
310.854256
31
0.0
0
LINE
8
Calque 1
62
4
5
254
100
AcDbEntity
100
AcDbLine
10
-165.695568
20
310.854256
30
0.0
11
-165.695568
21
320.854256
31
0.0
0
LINE
8
Calque 1
62
4
5
255
100
AcDbEntity
100
AcDbLine
10
-165.695568
20
320.854256
30
0.0
11
-162.695568
21
320.854256
31
0.0
0
LINE
8
Calque 1
62
4
5
256
100
AcDbEntity
100
AcDbLine
10
-162.695568
20
320.854256
30
0.0
11
-162.695568
21
330.854257
31
0.0
0
LINE
8
Calque 1
62
4
5
257
100
AcDbEntity
100
AcDbLine
10
-162.695568
20
330.854257
30
0.0
11
-165.695568
21
330.854257
31
0.0
0
LINE
8
Calque 1
62
4
5
258
100
AcDbEntity
100
AcDbLine
10
-165.695568
20
330.854257
30
0.0
11
-165.695568
21
340.854257
31
0.0
0
LINE
8
Calque 1
62
4
5
259
100
AcDbEntity
100
AcDbLine
10
-165.695568
20
340.854257
30
0.0
11
-162.695568
21
340.854257
31
0.0
0
LINE
8
Calque 1
62
4
5
25a
100
AcDbEntity
100
AcDbLine
10
-162.695568
20
340.854257
30
0.0
11
-162.695568
21
350.854257
31
0.0
0
LINE
8
Calque 1
62
4
5
25b
100
AcDbEntity
100
AcDbLine
10
-162.695568
20
350.854257
30
0.0
11
-165.695568
21
350.854257
31
0.0
0
LINE
8
Calque 1
62
4
5
25c
100
AcDbEntity
100
AcDbLine
10
-165.695568
20
350.854257
30
0.0
11
-165.695568
21
360.854257
31
0.0
0
LINE
8
Calque 1
62
4
5
25d
100
AcDbEntity
100
AcDbLine
10
-165.695568
20
360.854257
30
0.0
11
-162.695568
21
360.854257
31
0.0
0
LINE
8
Calque 1
62
4
5
25e
100
AcDbEntity
100
AcDbLine
10
-162.695568
20
360.854257
30
0.0
11
-162.695568
21
370.854259
31
0.0
0
LINE
8
Calque 1
62
4
5
25f
100
AcDbEntity
100
AcDbLine
10
-162.695568
20
370.854259
30
0.0
11
-165.695568
21
370.854259
31
0.0
0
LINE
8
Calque 1
62
4
5
260
100
AcDbEntity
100
AcDbLine
10
-165.695568
20
370.854259
30
0.0
11
-165.695568
21
383.854259
31
0.0
0
LINE
8
Calque 1
62
4
5
261
100
AcDbEntity
100
AcDbLine
10
-165.695568
20
383.854259
30
0.0
11
-174.695570
21
383.854259
31
0.0
0
LINE
8
Calque 1
62
4
5
262
100
AcDbEntity
100
AcDbLine
10
-174.695570
20
383.854259
30
0.0
11
-174.695570
21
386.854258
31
0.0
0
LINE
8
Calque 1
62
4
5
263
100
AcDbEntity
100
AcDbLine
10
-174.695570
20
386.854258
30
0.0
11
-184.695569
21
386.854258
31
0.0
0
LINE
8
Calque 1
62
4
5
264
100
AcDbEntity
100
AcDbLine
10
-184.695569
20
386.854258
30
0.0
11
-184.695569
21
383.854259
31
0.0
0
LINE
8
Calque 1
62
4
5
265
100
AcDbEntity
100
AcDbLine
10
-184.695569
20
383.854259
30
0.0
11
-193.695568
21
383.854259
31
0.0
0
LINE
8
Calque 1
62
4
5
266
100
AcDbEntity
100
AcDbLine
10
-193.695568
20
383.854259
30
0.0
11
-193.695568
21
378.854257
31
0.0
0
LINE
8
Calque 1
62
4
5
267
100
AcDbEntity
100
AcDbLine
10
-193.695568
20
378.854257
30
0.0
11
-196.695568
21
378.854257
31
0.0
0
LINE
8
Calque 1
62
4
5
268
100
AcDbEntity
100
AcDbLine
10
-196.695568
20
378.854257
30
0.0
11
-196.695568
21
368.854258
31
0.0
0
LINE
8
Calque 1
62
4
5
269
100
AcDbEntity
100
AcDbLine
10
-196.695568
20
368.854258
30
0.0
11
-193.695568
21
368.854258
31
0.0
0
LINE
8
Calque 1
62
4
5
26a
100
AcDbEntity
100
AcDbLine
10
-374.898017
20
116.884528
30
0.0
11
-130.898028
21
116.884528
31
0.0
0
LINE
8
Calque 1
62
4
5
26b
100
AcDbEntity
100
AcDbLine
10
-130.898028
20
116.884528
30
0.0
11
-130.898028
21
411.884516
31
0.0
0
LINE
8
Calque 1
62
4
5
26c
100
AcDbEntity
100
AcDbLine
10
-130.898028
20
411.884516
30
0.0
11
-374.898017
21
411.884516
31
0.0
0
LINE
8
Calque 1
62
4
5
26d
100
AcDbEntity
100
AcDbLine
10
-374.898017
20
411.884516
30
0.0
11
-374.898017
21
116.884528
31
0.0
0
LINE
8
Calque 1
62
4
5
26e
100
AcDbEntity
100
AcDbLine
10
-255.708929
20
217.866625
30
0.0
11
-237.708928
21
217.866625
31
0.0
0
LINE
8
Calque 1
62
4
5
26f
100
AcDbEntity
100
AcDbLine
10
-237.708928
20
217.866625
30
0.0
11
-237.708928
21
203.866624
31
0.0
0
LINE
8
Calque 1
62
4
5
270
100
AcDbEntity
100
AcDbLine
10
-237.708928
20
203.866624
30
0.0
11
-255.708929
21
203.866624
31
0.0
0
LINE
8
Calque 1
62
4
5
271
100
AcDbEntity
100
AcDbLine
10
-255.708929
20
203.866624
30
0.0
11
-255.708929
21
217.866625
31
0.0
0
LINE
8
Calque 1
62
4
5
272
100
AcDbEntity
100
AcDbLine
10
-231.708929
20
217.866625
30
0.0
11
-216.708928
21
217.866625
31
0.0
0
LINE
8
Calque 1
62
4
5
273
100
AcDbEntity
100
AcDbLine
10
-216.708928
20
217.866625
30
0.0
11
-216.708928
21
201.866626
31
0.0
0
LINE
8
Calque 1
62
4
5
274
100
AcDbEntity
100
AcDbLine
10
-216.708928
20
201.866626
30
0.0
11
-231.708929
21
201.866626
31
0.0
0
LINE
8
Calque 1
62
4
5
275
100
AcDbEntity
100
AcDbLine
10
-231.708929
20
201.866626
30
0.0
11
-231.708929
21
217.866625
31
0.0
0
LINE
8
Calque 1
62
4
5
276
100
AcDbEntity
100
AcDbLine
10
-186.231098
20
342.389792
30
0.0
11
-185.195568
21
343.184385
31
0.0
0
LINE
8
Calque 1
62
4
5
277
100
AcDbEntity
100
AcDbLine
10
-185.195568
20
343.184385
30
0.0
11
-183.989658
21
343.683888
31
0.0
0
LINE
8
Calque 1
62
4
5
278
100
AcDbEntity
100
AcDbLine
10
-183.989658
20
343.683888
30
0.0
11
-182.695568
21
343.854257
31
0.0
0
LINE
8
Calque 1
62
4
5
279
100
AcDbEntity
100
AcDbLine
10
-182.695568
20
343.854257
30
0.0
11
-181.401469
21
343.683888
31
0.0
0
LINE
8
Calque 1
62
4
5
27a
100
AcDbEntity
100
AcDbLine
10
-181.401469
20
343.683888
30
0.0
11
-180.195567
21
343.184385
31
0.0
0
LINE
8
Calque 1
62
4
5
27b
100
AcDbEntity
100
AcDbLine
10
-180.195567
20
343.184385
30
0.0
11
-179.160037
21
342.389792
31
0.0
0
LINE
8
Calque 1
62
4
5
27c
100
AcDbEntity
100
AcDbLine
10
-179.160037
20
342.389792
30
0.0
11
-178.365438
21
341.354259
31
0.0
0
LINE
8
Calque 1
62
4
5
27d
100
AcDbEntity
100
AcDbLine
10
-178.365438
20
341.354259
30
0.0
11
-177.865938
21
340.148352
31
0.0
0
LINE
8
Calque 1
62
4
5
27e
100
AcDbEntity
100
AcDbLine
10
-177.865938
20
340.148352
30
0.0
11
-177.695569
21
338.854258
31
0.0
0
LINE
8
Calque 1
62
4
5
27f
100
AcDbEntity
100
AcDbLine
10
-177.695569
20
338.854258
30
0.0
11
-177.865938
21
337.560162
31
0.0
0
LINE
8
Calque 1
62
4
5
280
100
AcDbEntity
100
AcDbLine
10
-177.865938
20
337.560162
30
0.0
11
-178.365438
21
336.354258
31
0.0
0
LINE
8
Calque 1
62
4
5
281
100
AcDbEntity
100
AcDbLine
10
-178.365438
20
336.354258
30
0.0
11
-179.160037
21
335.318725
31
0.0
0
LINE
8
Calque 1
62
4
5
282
100
AcDbEntity
100
AcDbLine
10
-179.160037
20
335.318725
30
0.0
11
-180.195567
21
334.524131
31
0.0
0
LINE
8
Calque 1
62
4
5
283
100
AcDbEntity
100
AcDbLine
10
-180.195567
20
334.524131
30
0.0
11
-181.401469
21
334.024629
31
0.0
0
LINE
8
Calque 1
62
4
5
284
100
AcDbEntity
100
AcDbLine
10
-181.401469
20
334.024629
30
0.0
11
-182.695568
21
333.854257
31
0.0
0
LINE
8
Calque 1
62
4
5
285
100
AcDbEntity
100
AcDbLine
10
-182.695568
20
333.854257
30
0.0
11
-183.989658
21
334.024629
31
0.0
0
LINE
8
Calque 1
62
4
5
286
100
AcDbEntity
100
AcDbLine
10
-183.989658
20
334.024629
30
0.0
11
-185.195568
21
334.524131
31
0.0
0
LINE
8
Calque 1
62
4
5
287
100
AcDbEntity
100
AcDbLine
10
-185.195568
20
334.524131
30
0.0
11
-186.231098
21
335.318725
31
0.0
0
LINE
8
Calque 1
62
4
5
288
100
AcDbEntity
100
AcDbLine
10
-186.231098
20
335.318725
30
0.0
11
-187.025698
21
336.354258
31
0.0
0
LINE
8
Calque 1
62
4
5
289
100
AcDbEntity
100
AcDbLine
10
-187.025698
20
336.354258
30
0.0
11
-187.525197
21
337.560162
31
0.0
0
LINE
8
Calque 1
62
4
5
28a
100
AcDbEntity
100
AcDbLine
10
-187.525197
20
337.560162
30
0.0
11
-187.695569
21
338.854258
31
0.0
0
LINE
8
Calque 1
62
4
5
28b
100
AcDbEntity
100
AcDbLine
10
-187.695569
20
338.854258
30
0.0
11
-187.525197
21
340.148352
31
0.0
0
LINE
8
Calque 1
62
4
5
28c
100
AcDbEntity
100
AcDbLine
10
-187.525197
20
340.148352
30
0.0
11
-187.025698
21
341.354259
31
0.0
0
LINE
8
Calque 1
62
4
5
28d
100
AcDbEntity
100
AcDbLine
10
-187.025698
20
341.354259
30
0.0
11
-186.231098
21
342.389792
31
0.0
0
LINE
8
Calque 1
62
4
5
28e
100
AcDbEntity
100
AcDbLine
10
-184.559267
20
356.889534
30
0.0
11
-184.159669
21
357.854257
31
0.0
0
LINE
8
Calque 1
62
4
5
28f
100
AcDbEntity
100
AcDbLine
10
-184.159669
20
357.854257
30
0.0
11
-183.523997
21
358.682684
31
0.0
0
LINE
8
Calque 1
62
4
5
290
100
AcDbEntity
100
AcDbLine
10
-183.523997
20
358.682684
30
0.0
11
-182.695568
21
359.318361
31
0.0
0
LINE
8
Calque 1
62
4
5
291
100
AcDbEntity
100
AcDbLine
10
-182.695568
20
359.318361
30
0.0
11
-181.730848
21
359.717962
31
0.0
0
LINE
8
Calque 1
62
4
5
292
100
AcDbEntity
100
AcDbLine
10
-181.730848
20
359.717962
30
0.0
11
-180.695569
21
359.854259
31
0.0
0
LINE
8
Calque 1
62
4
5
293
100
AcDbEntity
100
AcDbLine
10
-180.695569
20
359.854259
30
0.0
11
-179.660288
21
359.717962
31
0.0
0
LINE
8
Calque 1
62
4
5
294
100
AcDbEntity
100
AcDbLine
10
-179.660288
20
359.717962
30
0.0
11
-178.695567
21
359.318361
31
0.0
0
LINE
8
Calque 1
62
4
5
295
100
AcDbEntity
100
AcDbLine
10
-178.695567
20
359.318361
30
0.0
11
-177.867138
21
358.682684
31
0.0
0
LINE
8
Calque 1
62
4
5
296
100
AcDbEntity
100
AcDbLine
10
-177.867138
20
358.682684
30
0.0
11
-177.231469
21
357.854257
31
0.0
0
LINE
8
Calque 1
62
4
5
297
100
AcDbEntity
100
AcDbLine
10
-177.231469
20
357.854257
30
0.0
11
-176.831868
21
356.889534
31
0.0
0
LINE
8
Calque 1
62
4
5
298
100
AcDbEntity
100
AcDbLine
10
-176.831868
20
356.889534
30
0.0
11
-176.695568
21
355.854258
31
0.0
0
LINE
8
Calque 1
62
4
5
299
100
AcDbEntity
100
AcDbLine
10
-176.695568
20
355.854258
30
0.0
11
-176.831868
21
354.818982
31
0.0
0
LINE
8
Calque 1
62
4
5
29a
100
AcDbEntity
100
AcDbLine
10
-176.831868
20
354.818982
30
0.0
11
-177.231469
21
353.854257
31
0.0
0
LINE
8
Calque 1
62
4
5
29b
100
AcDbEntity
100
AcDbLine
10
-177.231469
20
353.854257
30
0.0
11
-177.867138
21
353.025830
31
0.0
0
LINE
8
Calque 1
62
4
5
29c
100
AcDbEntity
100
AcDbLine
10
-177.867138
20
353.025830
30
0.0
11
-178.695567
21
352.390155
31
0.0
0
LINE
8
Calque 1
62
4
5
29d
100
AcDbEntity
100
AcDbLine
10
-178.695567
20
352.390155
30
0.0
11
-179.660288
21
351.990554
31
0.0
0
LINE
8
Calque 1
62
4
5
29e
100
AcDbEntity
100
AcDbLine
10
-179.660288
20
351.990554
30
0.0
11
-180.695569
21
351.854258
31
0.0
0
LINE
8
Calque 1
62
4
5
29f
100
AcDbEntity
100
AcDbLine
10
-180.695569
20
351.854258
30
0.0
11
-181.730848
21
351.990554
31
0.0
0
LINE
8
Calque 1
62
4
5
2a0
100
AcDbEntity
100
AcDbLine
10
-181.730848
20
351.990554
30
0.0
11
-182.695568
21
352.390155
31
0.0
0
LINE
8
Calque 1
62
4
5
2a1
100
AcDbEntity
100
AcDbLine
10
-182.695568
20
352.390155
30
0.0
11
-183.523997
21
353.025830
31
0.0
0
LINE
8
Calque 1
62
4
5
2a2
100
AcDbEntity
100
AcDbLine
10
-183.523997
20
353.025830
30
0.0
11
-184.159669
21
353.854257
31
0.0
0
LINE
8
Calque 1
62
4
5
2a3
100
AcDbEntity
100
AcDbLine
10
-184.159669
20
353.854257
30
0.0
11
-184.559267
21
354.818982
31
0.0
0
LINE
8
Calque 1
62
4
5
2a4
100
AcDbEntity
100
AcDbLine
10
-184.559267
20
354.818982
30
0.0
11
-184.695569
21
355.854258
31
0.0
0
LINE
8
Calque 1
62
4
5
2a5
100
AcDbEntity
100
AcDbLine
10
-184.695569
20
355.854258
30
0.0
11
-184.559267
21
356.889534
31
0.0
  0
ENDSEC
  0
SECTION
  2
OBJECTS
  0
DICTIONARY
  5
C
330
0
100
AcDbDictionary
  3
ACAD_GROUP
350
D
  3
ACAD_MLINESTYLE
350
17
  0
DICTIONARY
  5
D
330
C
100
AcDbDictionary
  0
DICTIONARY
  5
1A
330
C
100
AcDbDictionary
  0
DICTIONARY
  5
17
330
C
100
AcDbDictionary
  3
STANDARD
350
18
  0
DICTIONARY
  5
19
330
C
100
AcDbDictionary
  0
ENDSEC
  0
EOF
