<?xml version="1.0" standalone="no"?>
<!DOCTYPE svg PUBLIC "-//W3C//DTD SVG 1.1//EN" "http://www.w3.org/Graphics/SVG/1.1/DTD/svg11.dtd">
<svg width="264.0mm" height="314.9999999999999mm"
 viewBox="0 0 264.0 314.9999999999999"
 xmlns="http://www.w3.org/2000/svg" version="1.1"
 xmlns:xlink="http://www.w3.org/1999/xlink">
<desc>Output from Flights of Ideas SVG Sketchup Plugin</desc>

  <path id="face0-cut"
 style="fill:none;stroke:#0000FF;stroke-width:1;stroke-miterlimit:4;stroke-dasharray:none;stroke-linejoin:round;stroke-linecap:round"
        d="M 191.20246080445668,53.03025692537324 M 191.20246080445668,58.030256925372896 M 188.20246080445668,58.030256925372896 M 188.20246080445668,134.0302569253729 M 191.20246080445668,134.0302569253729 M 191.20246080445668,139.03025692537324 M 188.20246080445668,139.03025692537324 M 188.20246080445668,149.03025692537312 M 191.20246080445668,149.03025692537312 M 191.20246080445668,154.030256925373 M 200.20246080445713,154.030256925373 M 200.20246080445713,157.03025692537312 M 210.20246080445713,157.030256925373 M 210.20246080445713,154.030256925373 M 219.20246080445713,154.030256925373 M 219.20246080445713,141.03025692537346 M 222.20246080445713,141.03025692537346 M 222.20246080445713,131.03025692537358 M 219.20246080445713,131.03025692537358 M 219.20246080445713,121.03025692537335 M 222.20246080445713,121.03025692537335 M 222.20246080445713,111.03025692537346 M 219.20246080445713,111.03025692537346 M 219.20246080445713,101.03025692537312 M 222.20246080445713,101.03025692537312 M 222.20246080445713,91.03025692537324 M 219.20246080445713,91.03025692537324 M 219.20246080445713,81.03025692537335 M 222.20246080445713,81.03025692537335 M 222.20246080445713,71.03025692537346 M 219.20246080445713,71.03025692537346 M 219.20246080445713,61.03025692537324 M 222.20246080445713,61.03025692537324 M 222.20246080445713,51.03025692537335 M 219.20246080445713,51.03025692537335 M 219.20246080445713,38.03025692537301 M 210.20246080445713,38.03025692537301 M 210.20246080445713,35.03025692537301 M 200.20246080445713,35.03025692537301 M 200.20246080445713,38.03025692537301 M 191.20246080445668,38.03025692537301 M 191.20246080445668,43.03025692537301 M 188.20246080445668,43.03025692537301 M 188.20246080445668,53.03025692537324 M 198.66692689852425,79.49472301944013 L 199.70246080445668,78.70012990645068 L 200.90836557894454,78.20062779392765 L 202.20246080445713,78.03025692537301 L 203.49655602996927,78.20062779392765 L 204.70246080445668,78.70012990645068 L 205.73799471038956,79.49472301944013 L 206.5325878233789,80.53025692537312 L 207.03208993590215,81.73616169986042 L 207.20246080445668,83.0302569253729 L 207.03208993590215,84.32435215088537 L 206.5325878233789,85.53025692537312 L 205.73799471038956,86.56579083130578 L 204.70246080445668,87.36038394429522 L 203.49655602996927,87.85988605681825 L 202.20246080445713,88.0302569253729 L 200.90836557894454,87.85988605681825 L 199.70246080445668,87.36038394429522 L 198.66692689852425,86.56579083130578 L 197.87233378553447,85.53025692537278 L 197.37283167301166,84.32435215088537 L 197.20246080445713,83.0302569253729 L 197.37283167301166,81.73616169986042 L 197.87233378553447,80.53025692537278 L 198.66692689852425,79.49472301944013 M 200.3387574993003,64.99498074496273 L 200.738359189319,64.03025692537256 L 201.37403367971046,63.201829800626456 L 202.20246080445713,62.566155310234876 L 203.1671846240465,62.16655362021629 L 204.20246080445668,62.03025692537267 L 205.23773698486684,62.16655362021629 L 206.20246080445713,62.566155310234876 L 207.03088792920335,63.201829800626456 L 207.6665624195948,64.0302569253729 L 208.0661641096135,64.99498074496273 L 208.20246080445713,66.03025692537278 L 208.0661641096135,67.06553310578295 L 207.6665624195948,68.03025692537312 L 207.03088792920335,68.85868405011922 L 206.20246080445668,69.4943585405108 L 205.23773698486684,69.89396023052939 L 204.20246080445668,70.03025692537301 L 203.1671846240465,69.89396023052939 L 202.20246080445713,69.4943585405108 L 201.37403367971046,68.85868405011922 L 200.738359189319,68.03025692537278 L 200.3387574993003,67.06553310578295 L 200.20246080445668,66.03025692537278 L 200.3387574993003,64.99498074496273 "
  />
  <path id="face1-cut"
 style="fill:none;stroke:#0000FF;stroke-width:1;stroke-miterlimit:4;stroke-dasharray:none;stroke-linejoin:round;stroke-linecap:round"
        d="M 92.18909642419158,214.01789401143867 M 89.18909642419158,214.01789401143867 M 89.18909642419158,223.01789401143878 M 94.18909642419158,223.01789401143833 M 94.18909642419158,226.01789401143856 M 104.18909642419203,226.01789401143856 M 104.18909642419203,223.01789401143833 M 114.18909642419158,223.01789401143878 M 114.18909642419158,226.017894011439 M 124.18909642419158,226.017894011439 M 124.18909642419158,223.01789401143878 M 134.18909642419158,223.01789401143833 M 134.18909642419203,226.01789401143856 M 144.18909642419203,226.01789401143844 M 144.18909642419203,223.01789401143833 M 154.18909642419158,223.01789401143878 M 154.18909642419158,226.017894011439 M 164.18909642419203,226.01789401143856 M 164.18909642419203,223.01789401143833 M 174.18909642419203,223.01789401143833 M 174.18909642419203,226.01789401143856 M 184.18909642419158,226.01789401143878 M 184.18909642419158,223.01789401143878 M 189.18909642419158,223.01789401143878 M 189.18909642419158,214.01789401143867 M 186.18909642419158,214.01789401143822 M 186.18909642419158,204.01789401143833 M 189.18909642419158,204.01789401143867 M 189.18909642419158,195.01789401143856 M 184.18909642419158,195.01789401143856 M 184.18909642419158,192.01789401143856 M 174.18909642419203,192.01789401143822 M 174.18909642419203,195.01789401143822 M 164.18909642419158,195.01789401143822 M 164.18909642419203,192.01789401143822 M 154.18909642419158,192.01789401143856 M 154.18909642419158,195.01789401143856 M 144.18909642419203,195.01789401143878 M 144.18909642419203,192.01789401143856 M 134.18909642419203,192.01789401143822 M 134.18909642419158,195.01789401143822 M 124.18909642419158,195.01789401143856 M 124.18909642419158,192.01789401143856 M 114.18909642419158,192.01789401143878 M 114.18909642419158,195.01789401143856 M 104.18909642419203,195.01789401143844 M 104.18909642419203,192.01789401143822 M 94.18909642419158,192.01789401143822 M 94.18909642419158,195.01789401143822 M 89.18909642419158,195.01789401143856 M 89.18909642419158,204.01789401143867 M 92.18909642419158,204.01789401143867 M 102.18909642413428,204.01789401138024 M 102.18909642413428,214.01789401138012 M 129.18909642419158,204.01789401143822 L 147.18909642419203,204.017894011438 L 147.18909642419203,218.01789401143844 L 129.18909642419158,218.01789401143844 L 129.18909642419158,204.01789401143822 M 153.18909642419158,204.01789401143867 L 168.18909642419158,204.01789401143867 L 168.18909642419158,220.017894011439 L 153.18909642419158,220.017894011439 L 153.18909642419158,204.01789401143867 "
  />
  <path id="face2-cut"
 style="fill:none;stroke:#0000FF;stroke-width:1;stroke-miterlimit:4;stroke-dasharray:none;stroke-linejoin:round;stroke-linecap:round"
        d="M 136.85954145420328,287.1844067327128 M 141.85954145420328,287.1844067327131 M 141.85954145420328,279.1844067327131 M 138.85954145420328,279.1844067327131 M 138.85954145420328,269.1844067327132 M 141.85954145420328,269.1844067327132 M 141.85954145420328,264.1844067327129 M 84.85954145420328,264.1844067327129 M 84.85954145420328,188.1844067327129 M 141.85954145420328,188.1844067327129 M 141.85954145420328,183.18440673271334 M 138.85954145420328,183.18440673271334 M 138.85954145420328,173.184406732713 M 141.85954145420328,173.184406732713 M 141.85954145420328,165.184406732713 M 136.85954145420328,165.184406732713 M 136.85954145420328,168.18440673271323 M 126.85954145420328,168.18440673271323 M 126.85954145420328,165.184406732713 M 116.85954145420328,165.184406732713 M 116.85954145420328,168.18440673271311 M 106.85954145420328,168.18440673271323 M 106.85954145420328,165.184406732713 M 96.85954145420328,165.18440673271323 M 96.85954145420328,168.18440673271323 M 86.85954145420328,168.18440673271323 M 86.85954145420328,165.184406732713 M 76.85954145420328,165.184406732713 M 76.85954145420328,168.18440673271311 M 66.85954145420328,168.18440673271311 M 66.85954145420328,165.184406732713 M 56.859541454203054,165.184406732713 M 56.859541454203054,168.18440673271311 M 46.85954145420328,168.18440673271311 M 46.85954145420328,165.18440673271323 M 41.85954145420328,165.18440673271323 M 41.85954145420328,181.184406732713 M 44.85954145420328,181.184406732713 M 44.85954145420328,191.1844067327129 M 41.85954145420328,191.1844067327129 M 41.85954145420328,201.18440673271277 M 44.85954145420328,201.18440673271277 M 44.85954145420328,211.18440673271266 M 41.85954145420328,211.18440673271266 M 41.85954145420328,221.184406732713 M 44.85954145420328,221.184406732713 M 44.85954145420328,231.18440673271334 M 41.85954145420328,231.18440673271323 M 41.85954145420328,241.18440673271323 M 44.85954145420328,241.18440673271323 M 44.85954145420328,251.184406732713 M 41.85954145420328,251.184406732713 M 41.85954145420328,261.1844067327131 M 44.85954145420328,261.1844067327131 M 44.85954145420328,271.1844067327131 M 41.85954145420328,271.1844067327131 M 41.85954145420328,287.1844067327132 M 46.85954145420328,287.1844067327129 M 46.85954145420328,284.1844067327129 M 56.859541454203054,284.1844067327129 M 56.85954145420351,287.1844067327129 M 66.85954145420328,287.1844067327128 M 66.85954145420328,284.18440673271266 M 76.85954145420328,284.18440673271266 M 76.85954145420328,287.1844067327128 M 86.85954145420328,287.1844067327128 M 86.85954145420328,284.1844067327129 M 96.85954145420328,284.18440673271266 M 96.85954145420328,287.1844067327128 M 106.85954145420328,287.1844067327128 M 106.85954145420328,284.18440673271266 M 116.85954145420328,284.18440673271266 M 116.85954145420328,287.1844067327128 M 126.85954145420328,287.1844067327128 M 126.85954145420328,284.18440673271266 M 136.85954145420328,284.18440673271266 "
  />
  <path id="face3-cut"
 style="fill:none;stroke:#0000FF;stroke-width:1;stroke-miterlimit:4;stroke-dasharray:none;stroke-linejoin:round;stroke-linecap:round"
        d="M 179.49910828212796,37.703703507993396 M 170.49910828212796,37.703703507993396 M 170.49910828212796,34.703703507993396 M 160.49910828212796,34.703703507993396 M 160.49910828212796,37.703703507993396 M 151.49910828212796,37.703703507993396 M 151.49910828212796,50.70370350799385 M 148.49910828212796,50.70370350799385 M 148.49910828212796,60.70370350799362 M 151.49910828212796,60.70370350799362 M 151.49910828212796,70.70370350799351 M 148.49910828212796,70.70370350799351 M 148.49910828212796,80.7037035079934 M 151.49910828212796,80.7037035079934 M 151.49910828212796,90.70370350799362 M 148.49910828212796,90.70370350799362 M 148.49910828212796,100.70370350799385 M 151.49910828212796,100.70370350799385 M 151.49910828212796,110.70370350799374 M 148.49910828212796,110.70370350799374 M 148.49910828212796,120.70370350799362 M 151.49910828212796,120.70370350799362 M 151.49910828212796,130.70370350799362 M 148.49910828212796,130.70370350799362 M 148.49910828212796,140.70370350799385 M 151.49910828212796,140.70370350799385 M 151.49910828212796,153.7037035079934 M 160.49910828212796,153.7037035079934 M 160.49910828212796,156.70370350799328 M 170.49910828212796,156.70370350799328 M 170.49910828212796,153.7037035079934 M 179.49910828212796,153.7037035079934 M 179.49910828212796,140.70370350799385 M 182.49910828212796,140.70370350799385 M 182.49910828212796,130.70370350799362 M 179.49910828212796,130.70370350799362 M 179.49910828212796,120.70370350799362 M 182.49910828212796,120.70370350799362 M 182.49910828212796,110.70370350799374 M 179.49910828212796,110.70370350799374 M 179.49910828212796,100.70370350799385 M 182.49910828212796,100.70370350799385 M 182.49910828212796,90.70370350799362 M 179.49910828212796,90.70370350799362 M 179.49910828212796,80.7037035079934 M 182.49910828212796,80.7037035079934 M 182.49910828212796,70.70370350799351 M 179.49910828212796,70.70370350799351 M 179.49910828212796,60.70370350799362 M 182.49910828212796,60.70370350799362 M 182.49910828212796,50.70370350799374 M 179.49910828212796,50.70370350799374 "
  />
  <path id="face4-cut"
 style="fill:none;stroke:#0000FF;stroke-width:1;stroke-miterlimit:4;stroke-dasharray:none;stroke-linejoin:round;stroke-linecap:round"
        d="M 10.0,304.9999999999999 L 254.0,304.9999999999999 L 254.0,10.0 L 10.0,10.0 L 10.0,304.9999999999999 M 89.18909642419158,214.01789401143867 M 92.18909642419158,214.01789401143867 M 102.18909642413428,214.01789401138012 M 102.18909642413428,204.01789401138024 M 92.18909642419158,204.01789401143867 M 89.18909642419158,204.01789401143867 M 89.18909642419158,195.01789401143856 M 94.18909642419158,195.01789401143822 M 94.18909642419158,192.01789401143822 M 104.18909642419203,192.01789401143822 M 104.18909642419203,195.01789401143844 M 114.18909642419158,195.01789401143856 M 114.18909642419158,192.01789401143878 M 124.18909642419158,192.01789401143856 M 124.18909642419158,195.01789401143856 M 134.18909642419158,195.01789401143822 M 134.18909642419203,192.01789401143822 M 144.18909642419203,192.01789401143856 M 144.18909642419203,195.01789401143878 M 154.18909642419158,195.01789401143856 M 154.18909642419158,192.01789401143856 M 164.18909642419203,192.01789401143822 M 164.18909642419158,195.01789401143822 M 174.18909642419203,195.01789401143822 M 174.18909642419203,192.01789401143822 M 184.18909642419158,192.01789401143856 M 184.18909642419158,195.01789401143856 M 189.18909642419158,195.01789401143856 M 189.18909642419158,204.01789401143867 M 186.18909642419158,204.01789401143833 M 186.18909642419158,214.01789401143822 M 189.18909642419158,214.01789401143867 M 189.18909642419158,223.01789401143878 M 184.18909642419158,223.01789401143878 M 184.18909642419158,226.01789401143878 M 174.18909642419203,226.01789401143856 M 174.18909642419203,223.01789401143833 M 164.18909642419203,223.01789401143833 M 164.18909642419203,226.01789401143856 M 154.18909642419158,226.017894011439 M 154.18909642419158,223.01789401143878 M 144.18909642419203,223.01789401143833 M 144.18909642419203,226.01789401143844 M 134.18909642419203,226.01789401143856 M 134.18909642419158,223.01789401143833 M 124.18909642419158,223.01789401143878 M 124.18909642419158,226.017894011439 M 114.18909642419158,226.017894011439 M 114.18909642419158,223.01789401143878 M 104.18909642419203,223.01789401143833 M 104.18909642419203,226.01789401143856 M 94.18909642419158,226.01789401143856 M 94.18909642419158,223.01789401143833 M 89.18909642419158,223.01789401143878 M 141.85954145420328,287.1844067327131 M 136.85954145420328,287.1844067327128 M 136.85954145420328,284.18440673271266 M 126.85954145420328,284.18440673271266 M 126.85954145420328,287.1844067327128 M 116.85954145420328,287.1844067327128 M 116.85954145420328,284.18440673271266 M 106.85954145420328,284.18440673271266 M 106.85954145420328,287.1844067327128 M 96.85954145420328,287.1844067327128 M 96.85954145420328,284.18440673271266 M 86.85954145420328,284.1844067327129 M 86.85954145420328,287.1844067327128 M 76.85954145420328,287.1844067327128 M 76.85954145420328,284.18440673271266 M 66.85954145420328,284.18440673271266 M 66.85954145420328,287.1844067327128 M 56.85954145420351,287.1844067327129 M 56.859541454203054,284.1844067327129 M 46.85954145420328,284.1844067327129 M 46.85954145420328,287.1844067327129 M 41.85954145420328,287.1844067327132 M 41.85954145420328,271.1844067327131 M 44.85954145420328,271.1844067327131 M 44.85954145420328,261.1844067327131 M 41.85954145420328,261.1844067327131 M 41.85954145420328,251.184406732713 M 44.85954145420328,251.184406732713 M 44.85954145420328,241.18440673271323 M 41.85954145420328,241.18440673271323 M 41.85954145420328,231.18440673271323 M 44.85954145420328,231.18440673271334 M 44.85954145420328,221.184406732713 M 41.85954145420328,221.184406732713 M 41.85954145420328,211.18440673271266 M 44.85954145420328,211.18440673271266 M 44.85954145420328,201.18440673271277 M 41.85954145420328,201.18440673271277 M 41.85954145420328,191.1844067327129 M 44.85954145420328,191.1844067327129 M 44.85954145420328,181.184406732713 M 41.85954145420328,181.184406732713 M 41.85954145420328,165.18440673271323 M 46.85954145420328,165.18440673271323 M 46.85954145420328,168.18440673271311 M 56.859541454203054,168.18440673271311 M 56.859541454203054,165.184406732713 M 66.85954145420328,165.184406732713 M 66.85954145420328,168.18440673271311 M 76.85954145420328,168.18440673271311 M 76.85954145420328,165.184406732713 M 86.85954145420328,165.184406732713 M 86.85954145420328,168.18440673271323 M 96.85954145420328,168.18440673271323 M 96.85954145420328,165.18440673271323 M 106.85954145420328,165.184406732713 M 106.85954145420328,168.18440673271323 M 116.85954145420328,168.18440673271311 M 116.85954145420328,165.184406732713 M 126.85954145420328,165.184406732713 M 126.85954145420328,168.18440673271323 M 136.85954145420328,168.18440673271323 M 136.85954145420328,165.184406732713 M 141.85954145420328,165.184406732713 M 141.85954145420328,173.184406732713 M 138.85954145420328,173.184406732713 M 138.85954145420328,183.18440673271334 M 141.85954145420328,183.18440673271334 M 141.85954145420328,188.1844067327129 M 84.85954145420328,188.1844067327129 M 84.85954145420328,264.1844067327129 M 141.85954145420328,264.1844067327129 M 141.85954145420328,269.1844067327132 M 138.85954145420328,269.1844067327132 M 138.85954145420328,279.1844067327131 M 141.85954145420328,279.1844067327131 M 88.66893645966275,239.4554411090685 M 88.66893645966275,230.4554411090685 M 93.66893645966275,230.4554411090685 M 93.66893645966275,227.45544110906837 M 103.66893645966229,227.45544110906837 M 103.66893645966275,230.45544110906837 M 113.66893645966275,230.45544110906837 M 113.66893645966275,227.45544110906837 M 123.66893645966275,227.45544110906837 M 123.66893645966275,230.45544110906837 M 133.66893645966275,230.45544110906837 M 133.66893645966275,227.4554411090685 M 143.66893645966275,227.45544110906837 M 143.66893645966275,230.45544110906837 M 153.66893645966275,230.45544110906837 M 153.66893645966275,227.45544110906837 M 163.66893645966275,227.45544110906837 M 163.66893645966275,230.45544110906837 M 173.6689364596623,230.45544110906837 M 173.6689364596623,227.45544110906837 M 183.66893645966275,227.45544110906837 M 183.66893645966275,230.45544110906837 M 188.66893645966275,230.45544110906837 M 188.66893645966275,239.4554411090685 M 185.66893645966275,239.4554411090685 M 185.66893645966275,249.45544110906837 M 188.66893645966275,249.45544110906837 M 188.66893645966275,258.4554411090685 M 183.66893645966275,258.4554411090685 M 183.66893645966275,261.4554411090685 M 173.6689364596623,261.4554411090685 M 173.6689364596623,258.4554411090685 M 163.66893645966275,258.4554411090685 M 163.66893645966275,261.4554411090685 M 153.66893645966275,261.4554411090685 M 153.66893645966275,258.4554411090685 M 143.66893645966275,258.4554411090685 M 143.66893645966275,261.4554411090685 M 133.66893645966275,261.4554411090685 M 133.66893645966275,258.4554411090687 M 123.66893645966275,258.4554411090685 M 123.66893645966275,261.4554411090685 M 113.66893645966275,261.4554411090685 M 113.66893645966275,258.4554411090685 M 103.66893645966275,258.4554411090685 M 103.66893645966229,261.4554411090685 M 93.66893645966275,261.4554411090685 M 93.66893645966275,258.4554411090685 M 88.66893645966275,258.4554411090685 M 88.66893645966275,249.45544110906837 M 91.66893645966275,249.4554411090686 M 91.66893645966275,239.4554411090685 M 41.74965692308638,139.24644094603366 M 44.74965692308638,139.24644094603366 M 44.74965692308638,129.24644094603332 M 41.74965692308638,129.24644094603332 M 41.74965692308638,119.24644094603309 M 44.74965692308638,119.24644094603309 M 44.74965692308638,109.2464409460332 M 41.74965692308638,109.2464409460332 M 41.74965692308638,99.24644094603332 M 44.74965692308638,99.24644094603343 M 44.74965692308638,89.24644094603343 M 41.74965692308638,89.24644094603332 M 41.74965692308638,79.2464409460332 M 44.74965692308638,79.2464409460332 M 44.74965692308638,69.24644094603309 M 41.74965692308638,69.24644094603298 M 41.74965692308638,59.24644094603309 M 44.74965692308638,59.24644094603332 M 44.74965692308638,49.24644094603275 M 41.74965692308638,49.24644094603275 M 41.74965692308638,33.24644094603332 M 46.74965692308638,33.2464409460332 M 46.74965692308638,36.24644094603309 M 56.749656923086604,36.2464409460332 M 56.749656923086604,33.24644094603332 M 66.74965692308638,33.2464409460332 M 66.74965692308638,36.24644094603332 M 76.74965692308638,36.24644094603332 M 76.74965692308638,33.24644094603332 M 86.7496569230866,33.24644094603309 M 86.7496569230866,36.2464409460332 M 96.7496569230866,36.2464409460332 M 96.7496569230866,33.2464409460332 M 106.74965692308615,33.2464409460332 M 106.74965692308615,36.24644094603309 M 116.74965692308615,36.2464409460332 M 116.74965692308615,33.2464409460332 M 126.7496569230866,33.2464409460332 M 126.7496569230866,36.2464409460332 M 136.74965692308615,36.2464409460332 M 136.74965692308615,33.2464409460332 M 141.74965692308615,33.2464409460332 M 141.74965692308615,49.246440946033886 M 138.74965692308615,49.246440946033886 M 138.74965692308615,59.24644094603377 M 141.74965692308615,59.24644094603377 M 141.74965692308615,69.24644094603366 M 138.74965692308615,69.24644094603366 M 138.74965692308615,79.24644094603354 M 141.7496569230866,79.24644094603354 M 141.7496569230866,89.24644094603343 M 138.74965692308615,89.24644094603343 M 138.74965692308615,99.24644094603366 M 141.74965692308615,99.24644094603366 M 141.7496569230866,109.24644094603389 M 138.7496569230866,109.24644094603389 M 138.74965692308615,119.24644094603389 M 141.7496569230866,119.24644094603389 M 141.7496569230866,129.24644094603377 M 138.7496569230866,129.24644094603377 M 138.74965692308615,139.24644094603366 M 141.74965692308615,139.24644094603366 M 141.74965692308615,155.24644094603354 M 136.74965692308615,155.24644094603354 M 136.74965692308615,152.24644094603286 M 126.7496569230866,152.24644094603286 M 126.7496569230866,155.24644094603298 M 116.7496569230866,155.24644094603275 M 116.7496569230866,152.24644094603286 M 106.74965692308615,152.24644094603286 M 106.74965692308615,155.24644094603275 M 96.7496569230866,155.24644094603275 M 96.7496569230866,152.24644094603286 M 86.7496569230866,152.24644094603286 M 86.7496569230866,155.24644094603298 M 76.74965692308638,155.24644094603275 M 76.7496569230866,152.24644094603286 M 66.74965692308638,152.24644094603286 M 66.74965692308638,155.24644094603275 M 56.749656923086604,155.24644094603298 M 56.749656923086604,152.24644094603275 M 46.749656923086604,152.24644094603286 M 46.74965692308638,155.24644094603354 M 41.74965692308638,155.24644094603354 M 170.49910828212796,37.703703507993396 M 179.49910828212796,37.703703507993396 M 179.49910828212796,50.70370350799374 M 182.49910828212796,50.70370350799374 M 182.49910828212796,60.70370350799362 M 179.49910828212796,60.70370350799362 M 179.49910828212796,70.70370350799351 M 182.49910828212796,70.70370350799351 M 182.49910828212796,80.7037035079934 M 179.49910828212796,80.7037035079934 M 179.49910828212796,90.70370350799362 M 182.49910828212796,90.70370350799362 M 182.49910828212796,100.70370350799385 M 179.49910828212796,100.70370350799385 M 179.49910828212796,110.70370350799374 M 182.49910828212796,110.70370350799374 M 182.49910828212796,120.70370350799362 M 179.49910828212796,120.70370350799362 M 179.49910828212796,130.70370350799362 M 182.49910828212796,130.70370350799362 M 182.49910828212796,140.70370350799385 M 179.49910828212796,140.70370350799385 M 179.49910828212796,153.7037035079934 M 170.49910828212796,153.7037035079934 M 170.49910828212796,156.70370350799328 M 160.49910828212796,156.70370350799328 M 160.49910828212796,153.7037035079934 M 151.49910828212796,153.7037035079934 M 151.49910828212796,140.70370350799385 M 148.49910828212796,140.70370350799385 M 148.49910828212796,130.70370350799362 M 151.49910828212796,130.70370350799362 M 151.49910828212796,120.70370350799362 M 148.49910828212796,120.70370350799362 M 148.49910828212796,110.70370350799374 M 151.49910828212796,110.70370350799374 M 151.49910828212796,100.70370350799385 M 148.49910828212796,100.70370350799385 M 148.49910828212796,90.70370350799362 M 151.49910828212796,90.70370350799362 M 151.49910828212796,80.7037035079934 M 148.49910828212796,80.7037035079934 M 148.49910828212796,70.70370350799351 M 151.49910828212796,70.70370350799351 M 151.49910828212796,60.70370350799362 M 148.49910828212796,60.70370350799362 M 148.49910828212796,50.70370350799385 M 151.49910828212796,50.70370350799385 M 151.49910828212796,37.703703507993396 M 160.49910828212796,37.703703507993396 M 160.49910828212796,34.703703507993396 M 170.49910828212796,34.703703507993396 M 191.20246080445668,58.030256925372896 M 191.20246080445668,53.03025692537324 M 188.20246080445668,53.03025692537324 M 188.20246080445668,43.03025692537301 M 191.20246080445668,43.03025692537301 M 191.20246080445668,38.03025692537301 M 200.20246080445713,38.03025692537301 M 200.20246080445713,35.03025692537301 M 210.20246080445713,35.03025692537301 M 210.20246080445713,38.03025692537301 M 219.20246080445713,38.03025692537301 M 219.20246080445713,51.03025692537335 M 222.20246080445713,51.03025692537335 M 222.20246080445713,61.03025692537324 M 219.20246080445713,61.03025692537324 M 219.20246080445713,71.03025692537346 M 222.20246080445713,71.03025692537346 M 222.20246080445713,81.03025692537335 M 219.20246080445713,81.03025692537335 M 219.20246080445713,91.03025692537324 M 222.20246080445713,91.03025692537324 M 222.20246080445713,101.03025692537312 M 219.20246080445713,101.03025692537312 M 219.20246080445713,111.03025692537346 M 222.20246080445713,111.03025692537346 M 222.20246080445713,121.03025692537335 M 219.20246080445713,121.03025692537335 M 219.20246080445713,131.03025692537358 M 222.20246080445713,131.03025692537358 M 222.20246080445713,141.03025692537346 M 219.20246080445713,141.03025692537346 M 219.20246080445713,154.030256925373 M 210.20246080445713,154.030256925373 M 210.20246080445713,157.030256925373 M 200.20246080445713,157.03025692537312 M 200.20246080445713,154.030256925373 M 191.20246080445668,154.030256925373 M 191.20246080445668,149.03025692537312 M 188.20246080445668,149.03025692537312 M 188.20246080445668,139.03025692537324 M 191.20246080445668,139.03025692537324 M 191.20246080445668,134.0302569253729 M 188.20246080445668,134.0302569253729 M 188.20246080445668,58.030256925372896 "
  />
  <path id="face5-cut"
 style="fill:none;stroke:#0000FF;stroke-width:1;stroke-miterlimit:4;stroke-dasharray:none;stroke-linejoin:round;stroke-linecap:round"
        d="M 88.66893645966275,230.4554411090685 M 88.66893645966275,239.4554411090685 M 91.66893645966275,239.4554411090685 M 91.66893645966275,249.4554411090686 M 88.66893645966275,249.45544110906837 M 88.66893645966275,258.4554411090685 M 93.66893645966275,258.4554411090685 M 93.66893645966275,261.4554411090685 M 103.66893645966229,261.4554411090685 M 103.66893645966275,258.4554411090685 M 113.66893645966275,258.4554411090685 M 113.66893645966275,261.4554411090685 M 123.66893645966275,261.4554411090685 M 123.66893645966275,258.4554411090685 M 133.66893645966275,258.4554411090687 M 133.66893645966275,261.4554411090685 M 143.66893645966275,261.4554411090685 M 143.66893645966275,258.4554411090685 M 153.66893645966275,258.4554411090685 M 153.66893645966275,261.4554411090685 M 163.66893645966275,261.4554411090685 M 163.66893645966275,258.4554411090685 M 173.6689364596623,258.4554411090685 M 173.6689364596623,261.4554411090685 M 183.66893645966275,261.4554411090685 M 183.66893645966275,258.4554411090685 M 188.66893645966275,258.4554411090685 M 188.66893645966275,249.45544110906837 M 185.66893645966275,249.45544110906837 M 185.66893645966275,239.4554411090685 M 188.66893645966275,239.4554411090685 M 188.66893645966275,230.45544110906837 M 183.66893645966275,230.45544110906837 M 183.66893645966275,227.45544110906837 M 173.6689364596623,227.45544110906837 M 173.6689364596623,230.45544110906837 M 163.66893645966275,230.45544110906837 M 163.66893645966275,227.45544110906837 M 153.66893645966275,227.45544110906837 M 153.66893645966275,230.45544110906837 M 143.66893645966275,230.45544110906837 M 143.66893645966275,227.45544110906837 M 133.66893645966275,227.4554411090685 M 133.66893645966275,230.45544110906837 M 123.66893645966275,230.45544110906837 M 123.66893645966275,227.45544110906837 M 113.66893645966275,227.45544110906837 M 113.66893645966275,230.45544110906837 M 103.66893645966275,230.45544110906837 M 103.66893645966229,227.45544110906837 M 93.66893645966275,227.45544110906837 M 93.66893645966275,230.4554411090685 "
  />
  <path id="face6-cut"
 style="fill:none;stroke:#0000FF;stroke-width:1;stroke-miterlimit:4;stroke-dasharray:none;stroke-linejoin:round;stroke-linecap:round"
        d="M 44.74965692308638,139.24644094603366 M 41.74965692308638,139.24644094603366 M 41.74965692308638,155.24644094603354 M 46.74965692308638,155.24644094603354 M 46.749656923086604,152.24644094603286 M 56.749656923086604,152.24644094603275 M 56.749656923086604,155.24644094603298 M 66.74965692308638,155.24644094603275 M 66.74965692308638,152.24644094603286 M 76.7496569230866,152.24644094603286 M 76.74965692308638,155.24644094603275 M 86.7496569230866,155.24644094603298 M 86.7496569230866,152.24644094603286 M 96.7496569230866,152.24644094603286 M 96.7496569230866,155.24644094603275 M 106.74965692308615,155.24644094603275 M 106.74965692308615,152.24644094603286 M 116.7496569230866,152.24644094603286 M 116.7496569230866,155.24644094603275 M 126.7496569230866,155.24644094603298 M 126.7496569230866,152.24644094603286 M 136.74965692308615,152.24644094603286 M 136.74965692308615,155.24644094603354 M 141.74965692308615,155.24644094603354 M 141.74965692308615,139.24644094603366 M 138.74965692308615,139.24644094603366 M 138.7496569230866,129.24644094603377 M 141.7496569230866,129.24644094603377 M 141.7496569230866,119.24644094603389 M 138.74965692308615,119.24644094603389 M 138.7496569230866,109.24644094603389 M 141.7496569230866,109.24644094603389 M 141.74965692308615,99.24644094603366 M 138.74965692308615,99.24644094603366 M 138.74965692308615,89.24644094603343 M 141.7496569230866,89.24644094603343 M 141.7496569230866,79.24644094603354 M 138.74965692308615,79.24644094603354 M 138.74965692308615,69.24644094603366 M 141.74965692308615,69.24644094603366 M 141.74965692308615,59.24644094603377 M 138.74965692308615,59.24644094603377 M 138.74965692308615,49.246440946033886 M 141.74965692308615,49.246440946033886 M 141.74965692308615,33.2464409460332 M 136.74965692308615,33.2464409460332 M 136.74965692308615,36.2464409460332 M 126.7496569230866,36.2464409460332 M 126.7496569230866,33.2464409460332 M 116.74965692308615,33.2464409460332 M 116.74965692308615,36.2464409460332 M 106.74965692308615,36.24644094603309 M 106.74965692308615,33.2464409460332 M 96.7496569230866,33.2464409460332 M 96.7496569230866,36.2464409460332 M 86.7496569230866,36.2464409460332 M 86.7496569230866,33.24644094603309 M 76.74965692308638,33.24644094603332 M 76.74965692308638,36.24644094603332 M 66.74965692308638,36.24644094603332 M 66.74965692308638,33.2464409460332 M 56.749656923086604,33.24644094603332 M 56.749656923086604,36.2464409460332 M 46.74965692308638,36.24644094603309 M 46.74965692308638,33.2464409460332 M 41.74965692308638,33.24644094603332 M 41.74965692308638,49.24644094603275 M 44.74965692308638,49.24644094603275 M 44.74965692308638,59.24644094603332 M 41.74965692308638,59.24644094603309 M 41.74965692308638,69.24644094603298 M 44.74965692308638,69.24644094603309 M 44.74965692308638,79.2464409460332 M 41.74965692308638,79.2464409460332 M 41.74965692308638,89.24644094603332 M 44.74965692308638,89.24644094603343 M 44.74965692308638,99.24644094603343 M 41.74965692308638,99.24644094603332 M 41.74965692308638,109.2464409460332 M 44.74965692308638,109.2464409460332 M 44.74965692308638,119.24644094603309 M 41.74965692308638,119.24644094603309 M 41.74965692308638,129.24644094603332 M 44.74965692308638,129.24644094603332 "
  />
  <path id="face0-interior"
 style="fill:none;stroke:#FF0000;stroke-width:1;stroke-miterlimit:4;stroke-dasharray:none;stroke-linejoin:round;stroke-linecap:round"
        d="M 191.20246080445668,53.03025692537324 L 191.20246080445668,58.030256925372896 L 188.20246080445668,58.030256925372896 L 188.20246080445668,134.0302569253729 L 191.20246080445668,134.0302569253729 L 191.20246080445668,139.03025692537324 L 188.20246080445668,139.03025692537324 L 188.20246080445668,149.03025692537312 L 191.20246080445668,149.03025692537312 L 191.20246080445668,154.030256925373 L 200.20246080445713,154.030256925373 L 200.20246080445713,157.03025692537312 L 210.20246080445713,157.030256925373 L 210.20246080445713,154.030256925373 L 219.20246080445713,154.030256925373 L 219.20246080445713,141.03025692537346 L 222.20246080445713,141.03025692537346 L 222.20246080445713,131.03025692537358 L 219.20246080445713,131.03025692537358 L 219.20246080445713,121.03025692537335 L 222.20246080445713,121.03025692537335 L 222.20246080445713,111.03025692537346 L 219.20246080445713,111.03025692537346 L 219.20246080445713,101.03025692537312 L 222.20246080445713,101.03025692537312 L 222.20246080445713,91.03025692537324 L 219.20246080445713,91.03025692537324 L 219.20246080445713,81.03025692537335 L 222.20246080445713,81.03025692537335 L 222.20246080445713,71.03025692537346 L 219.20246080445713,71.03025692537346 L 219.20246080445713,61.03025692537324 L 222.20246080445713,61.03025692537324 L 222.20246080445713,51.03025692537335 L 219.20246080445713,51.03025692537335 L 219.20246080445713,38.03025692537301 L 210.20246080445713,38.03025692537301 L 210.20246080445713,35.03025692537301 L 200.20246080445713,35.03025692537301 L 200.20246080445713,38.03025692537301 L 191.20246080445668,38.03025692537301 L 191.20246080445668,43.03025692537301 L 188.20246080445668,43.03025692537301 L 188.20246080445668,53.03025692537324 L 191.20246080445668,53.03025692537324 M 198.66692689852425,79.49472301944013 M 199.70246080445668,78.70012990645068 M 200.90836557894454,78.20062779392765 M 202.20246080445713,78.03025692537301 M 203.49655602996927,78.20062779392765 M 204.70246080445668,78.70012990645068 M 205.73799471038956,79.49472301944013 M 206.5325878233789,80.53025692537312 M 207.03208993590215,81.73616169986042 M 207.20246080445668,83.0302569253729 M 207.03208993590215,84.32435215088537 M 206.5325878233789,85.53025692537312 M 205.73799471038956,86.56579083130578 M 204.70246080445668,87.36038394429522 M 203.49655602996927,87.85988605681825 M 202.20246080445713,88.0302569253729 M 200.90836557894454,87.85988605681825 M 199.70246080445668,87.36038394429522 M 198.66692689852425,86.56579083130578 M 197.87233378553447,85.53025692537278 M 197.37283167301166,84.32435215088537 M 197.20246080445713,83.0302569253729 M 197.37283167301166,81.73616169986042 M 197.87233378553447,80.53025692537278 M 200.3387574993003,64.99498074496273 M 200.738359189319,64.03025692537256 M 201.37403367971046,63.201829800626456 M 202.20246080445713,62.566155310234876 M 203.1671846240465,62.16655362021629 M 204.20246080445668,62.03025692537267 M 205.23773698486684,62.16655362021629 M 206.20246080445713,62.566155310234876 M 207.03088792920335,63.201829800626456 M 207.6665624195948,64.0302569253729 M 208.0661641096135,64.99498074496273 M 208.20246080445713,66.03025692537278 M 208.0661641096135,67.06553310578295 M 207.6665624195948,68.03025692537312 M 207.03088792920335,68.85868405011922 M 206.20246080445668,69.4943585405108 M 205.23773698486684,69.89396023052939 M 204.20246080445668,70.03025692537301 M 203.1671846240465,69.89396023052939 M 202.20246080445713,69.4943585405108 M 201.37403367971046,68.85868405011922 M 200.738359189319,68.03025692537278 M 200.3387574993003,67.06553310578295 M 200.20246080445668,66.03025692537278 "
  />
  <path id="face1-interior"
 style="fill:none;stroke:#FF0000;stroke-width:1;stroke-miterlimit:4;stroke-dasharray:none;stroke-linejoin:round;stroke-linecap:round"
        d="M 92.18909642419158,214.01789401143867 L 89.18909642419158,214.01789401143867 L 89.18909642419158,223.01789401143878 L 94.18909642419158,223.01789401143833 L 94.18909642419158,226.01789401143856 L 104.18909642419203,226.01789401143856 L 104.18909642419203,223.01789401143833 L 114.18909642419158,223.01789401143878 L 114.18909642419158,226.017894011439 L 124.18909642419158,226.017894011439 L 124.18909642419158,223.01789401143878 L 134.18909642419158,223.01789401143833 L 134.18909642419203,226.01789401143856 L 144.18909642419203,226.01789401143844 L 144.18909642419203,223.01789401143833 L 154.18909642419158,223.01789401143878 L 154.18909642419158,226.017894011439 L 164.18909642419203,226.01789401143856 L 164.18909642419203,223.01789401143833 L 174.18909642419203,223.01789401143833 L 174.18909642419203,226.01789401143856 L 184.18909642419158,226.01789401143878 L 184.18909642419158,223.01789401143878 L 189.18909642419158,223.01789401143878 L 189.18909642419158,214.01789401143867 L 186.18909642419158,214.01789401143822 L 186.18909642419158,204.01789401143833 L 189.18909642419158,204.01789401143867 L 189.18909642419158,195.01789401143856 L 184.18909642419158,195.01789401143856 L 184.18909642419158,192.01789401143856 L 174.18909642419203,192.01789401143822 L 174.18909642419203,195.01789401143822 L 164.18909642419158,195.01789401143822 L 164.18909642419203,192.01789401143822 L 154.18909642419158,192.01789401143856 L 154.18909642419158,195.01789401143856 L 144.18909642419203,195.01789401143878 L 144.18909642419203,192.01789401143856 L 134.18909642419203,192.01789401143822 L 134.18909642419158,195.01789401143822 L 124.18909642419158,195.01789401143856 L 124.18909642419158,192.01789401143856 L 114.18909642419158,192.01789401143878 L 114.18909642419158,195.01789401143856 L 104.18909642419203,195.01789401143844 L 104.18909642419203,192.01789401143822 L 94.18909642419158,192.01789401143822 L 94.18909642419158,195.01789401143822 L 89.18909642419158,195.01789401143856 L 89.18909642419158,204.01789401143867 L 92.18909642419158,204.01789401143867 L 102.18909642413428,204.01789401138024 L 102.18909642413428,214.01789401138012 L 92.18909642419158,214.01789401143867 M 129.18909642419158,204.01789401143822 M 147.18909642419203,204.017894011438 M 147.18909642419203,218.01789401143844 M 129.18909642419158,218.01789401143844 M 153.18909642419158,204.01789401143867 M 168.18909642419158,204.01789401143867 M 168.18909642419158,220.017894011439 M 153.18909642419158,220.017894011439 "
  />
  <path id="face2-interior"
 style="fill:none;stroke:#FF0000;stroke-width:1;stroke-miterlimit:4;stroke-dasharray:none;stroke-linejoin:round;stroke-linecap:round"
        d="M 136.85954145420328,287.1844067327128 L 141.85954145420328,287.1844067327131 L 141.85954145420328,279.1844067327131 L 138.85954145420328,279.1844067327131 L 138.85954145420328,269.1844067327132 L 141.85954145420328,269.1844067327132 L 141.85954145420328,264.1844067327129 L 84.85954145420328,264.1844067327129 L 84.85954145420328,188.1844067327129 L 141.85954145420328,188.1844067327129 L 141.85954145420328,183.18440673271334 L 138.85954145420328,183.18440673271334 L 138.85954145420328,173.184406732713 L 141.85954145420328,173.184406732713 L 141.85954145420328,165.184406732713 L 136.85954145420328,165.184406732713 L 136.85954145420328,168.18440673271323 L 126.85954145420328,168.18440673271323 L 126.85954145420328,165.184406732713 L 116.85954145420328,165.184406732713 L 116.85954145420328,168.18440673271311 L 106.85954145420328,168.18440673271323 L 106.85954145420328,165.184406732713 L 96.85954145420328,165.18440673271323 L 96.85954145420328,168.18440673271323 L 86.85954145420328,168.18440673271323 L 86.85954145420328,165.184406732713 L 76.85954145420328,165.184406732713 L 76.85954145420328,168.18440673271311 L 66.85954145420328,168.18440673271311 L 66.85954145420328,165.184406732713 L 56.859541454203054,165.184406732713 L 56.859541454203054,168.18440673271311 L 46.85954145420328,168.18440673271311 L 46.85954145420328,165.18440673271323 L 41.85954145420328,165.18440673271323 L 41.85954145420328,181.184406732713 L 44.85954145420328,181.184406732713 L 44.85954145420328,191.1844067327129 L 41.85954145420328,191.1844067327129 L 41.85954145420328,201.18440673271277 L 44.85954145420328,201.18440673271277 L 44.85954145420328,211.18440673271266 L 41.85954145420328,211.18440673271266 L 41.85954145420328,221.184406732713 L 44.85954145420328,221.184406732713 L 44.85954145420328,231.18440673271334 L 41.85954145420328,231.18440673271323 L 41.85954145420328,241.18440673271323 L 44.85954145420328,241.18440673271323 L 44.85954145420328,251.184406732713 L 41.85954145420328,251.184406732713 L 41.85954145420328,261.1844067327131 L 44.85954145420328,261.1844067327131 L 44.85954145420328,271.1844067327131 L 41.85954145420328,271.1844067327131 L 41.85954145420328,287.1844067327132 L 46.85954145420328,287.1844067327129 L 46.85954145420328,284.1844067327129 L 56.859541454203054,284.1844067327129 L 56.85954145420351,287.1844067327129 L 66.85954145420328,287.1844067327128 L 66.85954145420328,284.18440673271266 L 76.85954145420328,284.18440673271266 L 76.85954145420328,287.1844067327128 L 86.85954145420328,287.1844067327128 L 86.85954145420328,284.1844067327129 L 96.85954145420328,284.18440673271266 L 96.85954145420328,287.1844067327128 L 106.85954145420328,287.1844067327128 L 106.85954145420328,284.18440673271266 L 116.85954145420328,284.18440673271266 L 116.85954145420328,287.1844067327128 L 126.85954145420328,287.1844067327128 L 126.85954145420328,284.18440673271266 L 136.85954145420328,284.18440673271266 L 136.85954145420328,287.1844067327128 "
  />
  <path id="face3-interior"
 style="fill:none;stroke:#FF0000;stroke-width:1;stroke-miterlimit:4;stroke-dasharray:none;stroke-linejoin:round;stroke-linecap:round"
        d="M 179.49910828212796,37.703703507993396 L 170.49910828212796,37.703703507993396 L 170.49910828212796,34.703703507993396 L 160.49910828212796,34.703703507993396 L 160.49910828212796,37.703703507993396 L 151.49910828212796,37.703703507993396 L 151.49910828212796,50.70370350799385 L 148.49910828212796,50.70370350799385 L 148.49910828212796,60.70370350799362 L 151.49910828212796,60.70370350799362 L 151.49910828212796,70.70370350799351 L 148.49910828212796,70.70370350799351 L 148.49910828212796,80.7037035079934 L 151.49910828212796,80.7037035079934 L 151.49910828212796,90.70370350799362 L 148.49910828212796,90.70370350799362 L 148.49910828212796,100.70370350799385 L 151.49910828212796,100.70370350799385 L 151.49910828212796,110.70370350799374 L 148.49910828212796,110.70370350799374 L 148.49910828212796,120.70370350799362 L 151.49910828212796,120.70370350799362 L 151.49910828212796,130.70370350799362 L 148.49910828212796,130.70370350799362 L 148.49910828212796,140.70370350799385 L 151.49910828212796,140.70370350799385 L 151.49910828212796,153.7037035079934 L 160.49910828212796,153.7037035079934 L 160.49910828212796,156.70370350799328 L 170.49910828212796,156.70370350799328 L 170.49910828212796,153.7037035079934 L 179.49910828212796,153.7037035079934 L 179.49910828212796,140.70370350799385 L 182.49910828212796,140.70370350799385 L 182.49910828212796,130.70370350799362 L 179.49910828212796,130.70370350799362 L 179.49910828212796,120.70370350799362 L 182.49910828212796,120.70370350799362 L 182.49910828212796,110.70370350799374 L 179.49910828212796,110.70370350799374 L 179.49910828212796,100.70370350799385 L 182.49910828212796,100.70370350799385 L 182.49910828212796,90.70370350799362 L 179.49910828212796,90.70370350799362 L 179.49910828212796,80.7037035079934 L 182.49910828212796,80.7037035079934 L 182.49910828212796,70.70370350799351 L 179.49910828212796,70.70370350799351 L 179.49910828212796,60.70370350799362 L 182.49910828212796,60.70370350799362 L 182.49910828212796,50.70370350799374 L 179.49910828212796,50.70370350799374 L 179.49910828212796,37.703703507993396 "
  />
  <path id="face4-interior"
 style="fill:none;stroke:#FF0000;stroke-width:1;stroke-miterlimit:4;stroke-dasharray:none;stroke-linejoin:round;stroke-linecap:round"
        d="M 10.0,304.9999999999999 M 254.0,304.9999999999999 M 254.0,10.0 M 10.0,10.0 M 89.18909642419158,214.01789401143867 M 92.18909642419158,214.01789401143867 M 102.18909642413428,214.01789401138012 M 102.18909642413428,204.01789401138024 M 92.18909642419158,204.01789401143867 M 89.18909642419158,204.01789401143867 M 89.18909642419158,195.01789401143856 M 94.18909642419158,195.01789401143822 M 94.18909642419158,192.01789401143822 M 104.18909642419203,192.01789401143822 M 104.18909642419203,195.01789401143844 M 114.18909642419158,195.01789401143856 M 114.18909642419158,192.01789401143878 M 124.18909642419158,192.01789401143856 M 124.18909642419158,195.01789401143856 M 134.18909642419158,195.01789401143822 M 134.18909642419203,192.01789401143822 M 144.18909642419203,192.01789401143856 M 144.18909642419203,195.01789401143878 M 154.18909642419158,195.01789401143856 M 154.18909642419158,192.01789401143856 M 164.18909642419203,192.01789401143822 M 164.18909642419158,195.01789401143822 M 174.18909642419203,195.01789401143822 M 174.18909642419203,192.01789401143822 M 184.18909642419158,192.01789401143856 M 184.18909642419158,195.01789401143856 M 189.18909642419158,195.01789401143856 M 189.18909642419158,204.01789401143867 M 186.18909642419158,204.01789401143833 M 186.18909642419158,214.01789401143822 M 189.18909642419158,214.01789401143867 M 189.18909642419158,223.01789401143878 M 184.18909642419158,223.01789401143878 M 184.18909642419158,226.01789401143878 M 174.18909642419203,226.01789401143856 M 174.18909642419203,223.01789401143833 M 164.18909642419203,223.01789401143833 M 164.18909642419203,226.01789401143856 M 154.18909642419158,226.017894011439 M 154.18909642419158,223.01789401143878 M 144.18909642419203,223.01789401143833 M 144.18909642419203,226.01789401143844 M 134.18909642419203,226.01789401143856 M 134.18909642419158,223.01789401143833 M 124.18909642419158,223.01789401143878 M 124.18909642419158,226.017894011439 M 114.18909642419158,226.017894011439 M 114.18909642419158,223.01789401143878 M 104.18909642419203,223.01789401143833 M 104.18909642419203,226.01789401143856 M 94.18909642419158,226.01789401143856 M 94.18909642419158,223.01789401143833 M 89.18909642419158,223.01789401143878 M 141.85954145420328,287.1844067327131 M 136.85954145420328,287.1844067327128 M 136.85954145420328,284.18440673271266 M 126.85954145420328,284.18440673271266 M 126.85954145420328,287.1844067327128 M 116.85954145420328,287.1844067327128 M 116.85954145420328,284.18440673271266 M 106.85954145420328,284.18440673271266 M 106.85954145420328,287.1844067327128 M 96.85954145420328,287.1844067327128 M 96.85954145420328,284.18440673271266 M 86.85954145420328,284.1844067327129 M 86.85954145420328,287.1844067327128 M 76.85954145420328,287.1844067327128 M 76.85954145420328,284.18440673271266 M 66.85954145420328,284.18440673271266 M 66.85954145420328,287.1844067327128 M 56.85954145420351,287.1844067327129 M 56.859541454203054,284.1844067327129 M 46.85954145420328,284.1844067327129 M 46.85954145420328,287.1844067327129 M 41.85954145420328,287.1844067327132 M 41.85954145420328,271.1844067327131 M 44.85954145420328,271.1844067327131 M 44.85954145420328,261.1844067327131 M 41.85954145420328,261.1844067327131 M 41.85954145420328,251.184406732713 M 44.85954145420328,251.184406732713 M 44.85954145420328,241.18440673271323 M 41.85954145420328,241.18440673271323 M 41.85954145420328,231.18440673271323 M 44.85954145420328,231.18440673271334 M 44.85954145420328,221.184406732713 M 41.85954145420328,221.184406732713 M 41.85954145420328,211.18440673271266 M 44.85954145420328,211.18440673271266 M 44.85954145420328,201.18440673271277 M 41.85954145420328,201.18440673271277 M 41.85954145420328,191.1844067327129 M 44.85954145420328,191.1844067327129 M 44.85954145420328,181.184406732713 M 41.85954145420328,181.184406732713 M 41.85954145420328,165.18440673271323 M 46.85954145420328,165.18440673271323 M 46.85954145420328,168.18440673271311 M 56.859541454203054,168.18440673271311 M 56.859541454203054,165.184406732713 M 66.85954145420328,165.184406732713 M 66.85954145420328,168.18440673271311 M 76.85954145420328,168.18440673271311 M 76.85954145420328,165.184406732713 M 86.85954145420328,165.184406732713 M 86.85954145420328,168.18440673271323 M 96.85954145420328,168.18440673271323 M 96.85954145420328,165.18440673271323 M 106.85954145420328,165.184406732713 M 106.85954145420328,168.18440673271323 M 116.85954145420328,168.18440673271311 M 116.85954145420328,165.184406732713 M 126.85954145420328,165.184406732713 M 126.85954145420328,168.18440673271323 M 136.85954145420328,168.18440673271323 M 136.85954145420328,165.184406732713 M 141.85954145420328,165.184406732713 M 141.85954145420328,173.184406732713 M 138.85954145420328,173.184406732713 M 138.85954145420328,183.18440673271334 M 141.85954145420328,183.18440673271334 M 141.85954145420328,188.1844067327129 M 84.85954145420328,188.1844067327129 M 84.85954145420328,264.1844067327129 M 141.85954145420328,264.1844067327129 M 141.85954145420328,269.1844067327132 M 138.85954145420328,269.1844067327132 M 138.85954145420328,279.1844067327131 M 141.85954145420328,279.1844067327131 M 88.66893645966275,239.4554411090685 L 88.66893645966275,230.4554411090685 L 93.66893645966275,230.4554411090685 L 93.66893645966275,227.45544110906837 L 103.66893645966229,227.45544110906837 L 103.66893645966275,230.45544110906837 L 113.66893645966275,230.45544110906837 L 113.66893645966275,227.45544110906837 L 123.66893645966275,227.45544110906837 L 123.66893645966275,230.45544110906837 L 133.66893645966275,230.45544110906837 L 133.66893645966275,227.4554411090685 L 143.66893645966275,227.45544110906837 L 143.66893645966275,230.45544110906837 L 153.66893645966275,230.45544110906837 L 153.66893645966275,227.45544110906837 L 163.66893645966275,227.45544110906837 L 163.66893645966275,230.45544110906837 L 173.6689364596623,230.45544110906837 L 173.6689364596623,227.45544110906837 L 183.66893645966275,227.45544110906837 L 183.66893645966275,230.45544110906837 L 188.66893645966275,230.45544110906837 L 188.66893645966275,239.4554411090685 L 185.66893645966275,239.4554411090685 L 185.66893645966275,249.45544110906837 L 188.66893645966275,249.45544110906837 L 188.66893645966275,258.4554411090685 L 183.66893645966275,258.4554411090685 L 183.66893645966275,261.4554411090685 L 173.6689364596623,261.4554411090685 L 173.6689364596623,258.4554411090685 L 163.66893645966275,258.4554411090685 L 163.66893645966275,261.4554411090685 L 153.66893645966275,261.4554411090685 L 153.66893645966275,258.4554411090685 L 143.66893645966275,258.4554411090685 L 143.66893645966275,261.4554411090685 L 133.66893645966275,261.4554411090685 L 133.66893645966275,258.4554411090687 L 123.66893645966275,258.4554411090685 L 123.66893645966275,261.4554411090685 L 113.66893645966275,261.4554411090685 L 113.66893645966275,258.4554411090685 L 103.66893645966275,258.4554411090685 L 103.66893645966229,261.4554411090685 L 93.66893645966275,261.4554411090685 L 93.66893645966275,258.4554411090685 L 88.66893645966275,258.4554411090685 L 88.66893645966275,249.45544110906837 L 91.66893645966275,249.4554411090686 L 91.66893645966275,239.4554411090685 L 88.66893645966275,239.4554411090685 M 41.74965692308638,139.24644094603366 L 44.74965692308638,139.24644094603366 L 44.74965692308638,129.24644094603332 L 41.74965692308638,129.24644094603332 L 41.74965692308638,119.24644094603309 L 44.74965692308638,119.24644094603309 L 44.74965692308638,109.2464409460332 L 41.74965692308638,109.2464409460332 L 41.74965692308638,99.24644094603332 L 44.74965692308638,99.24644094603343 L 44.74965692308638,89.24644094603343 L 41.74965692308638,89.24644094603332 L 41.74965692308638,79.2464409460332 L 44.74965692308638,79.2464409460332 L 44.74965692308638,69.24644094603309 L 41.74965692308638,69.24644094603298 L 41.74965692308638,59.24644094603309 L 44.74965692308638,59.24644094603332 L 44.74965692308638,49.24644094603275 L 41.74965692308638,49.24644094603275 L 41.74965692308638,33.24644094603332 L 46.74965692308638,33.2464409460332 L 46.74965692308638,36.24644094603309 L 56.749656923086604,36.2464409460332 L 56.749656923086604,33.24644094603332 L 66.74965692308638,33.2464409460332 L 66.74965692308638,36.24644094603332 L 76.74965692308638,36.24644094603332 L 76.74965692308638,33.24644094603332 L 86.7496569230866,33.24644094603309 L 86.7496569230866,36.2464409460332 L 96.7496569230866,36.2464409460332 L 96.7496569230866,33.2464409460332 L 106.74965692308615,33.2464409460332 L 106.74965692308615,36.24644094603309 L 116.74965692308615,36.2464409460332 L 116.74965692308615,33.2464409460332 L 126.7496569230866,33.2464409460332 L 126.7496569230866,36.2464409460332 L 136.74965692308615,36.2464409460332 L 136.74965692308615,33.2464409460332 L 141.74965692308615,33.2464409460332 L 141.74965692308615,49.246440946033886 L 138.74965692308615,49.246440946033886 L 138.74965692308615,59.24644094603377 L 141.74965692308615,59.24644094603377 L 141.74965692308615,69.24644094603366 L 138.74965692308615,69.24644094603366 L 138.74965692308615,79.24644094603354 L 141.7496569230866,79.24644094603354 L 141.7496569230866,89.24644094603343 L 138.74965692308615,89.24644094603343 L 138.74965692308615,99.24644094603366 L 141.74965692308615,99.24644094603366 L 141.7496569230866,109.24644094603389 L 138.7496569230866,109.24644094603389 L 138.74965692308615,119.24644094603389 L 141.7496569230866,119.24644094603389 L 141.7496569230866,129.24644094603377 L 138.7496569230866,129.24644094603377 L 138.74965692308615,139.24644094603366 L 141.74965692308615,139.24644094603366 L 141.74965692308615,155.24644094603354 L 136.74965692308615,155.24644094603354 L 136.74965692308615,152.24644094603286 L 126.7496569230866,152.24644094603286 L 126.7496569230866,155.24644094603298 L 116.7496569230866,155.24644094603275 L 116.7496569230866,152.24644094603286 L 106.74965692308615,152.24644094603286 L 106.74965692308615,155.24644094603275 L 96.7496569230866,155.24644094603275 L 96.7496569230866,152.24644094603286 L 86.7496569230866,152.24644094603286 L 86.7496569230866,155.24644094603298 L 76.74965692308638,155.24644094603275 L 76.7496569230866,152.24644094603286 L 66.74965692308638,152.24644094603286 L 66.74965692308638,155.24644094603275 L 56.749656923086604,155.24644094603298 L 56.749656923086604,152.24644094603275 L 46.749656923086604,152.24644094603286 L 46.74965692308638,155.24644094603354 L 41.74965692308638,155.24644094603354 L 41.74965692308638,139.24644094603366 M 170.49910828212796,37.703703507993396 M 179.49910828212796,37.703703507993396 M 179.49910828212796,50.70370350799374 M 182.49910828212796,50.70370350799374 M 182.49910828212796,60.70370350799362 M 179.49910828212796,60.70370350799362 M 179.49910828212796,70.70370350799351 M 182.49910828212796,70.70370350799351 M 182.49910828212796,80.7037035079934 M 179.49910828212796,80.7037035079934 M 179.49910828212796,90.70370350799362 M 182.49910828212796,90.70370350799362 M 182.49910828212796,100.70370350799385 M 179.49910828212796,100.70370350799385 M 179.49910828212796,110.70370350799374 M 182.49910828212796,110.70370350799374 M 182.49910828212796,120.70370350799362 M 179.49910828212796,120.70370350799362 M 179.49910828212796,130.70370350799362 M 182.49910828212796,130.70370350799362 M 182.49910828212796,140.70370350799385 M 179.49910828212796,140.70370350799385 M 179.49910828212796,153.7037035079934 M 170.49910828212796,153.7037035079934 M 170.49910828212796,156.70370350799328 M 160.49910828212796,156.70370350799328 M 160.49910828212796,153.7037035079934 M 151.49910828212796,153.7037035079934 M 151.49910828212796,140.70370350799385 M 148.49910828212796,140.70370350799385 M 148.49910828212796,130.70370350799362 M 151.49910828212796,130.70370350799362 M 151.49910828212796,120.70370350799362 M 148.49910828212796,120.70370350799362 M 148.49910828212796,110.70370350799374 M 151.49910828212796,110.70370350799374 M 151.49910828212796,100.70370350799385 M 148.49910828212796,100.70370350799385 M 148.49910828212796,90.70370350799362 M 151.49910828212796,90.70370350799362 M 151.49910828212796,80.7037035079934 M 148.49910828212796,80.7037035079934 M 148.49910828212796,70.70370350799351 M 151.49910828212796,70.70370350799351 M 151.49910828212796,60.70370350799362 M 148.49910828212796,60.70370350799362 M 148.49910828212796,50.70370350799385 M 151.49910828212796,50.70370350799385 M 151.49910828212796,37.703703507993396 M 160.49910828212796,37.703703507993396 M 160.49910828212796,34.703703507993396 M 170.49910828212796,34.703703507993396 M 191.20246080445668,58.030256925372896 M 191.20246080445668,53.03025692537324 M 188.20246080445668,53.03025692537324 M 188.20246080445668,43.03025692537301 M 191.20246080445668,43.03025692537301 M 191.20246080445668,38.03025692537301 M 200.20246080445713,38.03025692537301 M 200.20246080445713,35.03025692537301 M 210.20246080445713,35.03025692537301 M 210.20246080445713,38.03025692537301 M 219.20246080445713,38.03025692537301 M 219.20246080445713,51.03025692537335 M 222.20246080445713,51.03025692537335 M 222.20246080445713,61.03025692537324 M 219.20246080445713,61.03025692537324 M 219.20246080445713,71.03025692537346 M 222.20246080445713,71.03025692537346 M 222.20246080445713,81.03025692537335 M 219.20246080445713,81.03025692537335 M 219.20246080445713,91.03025692537324 M 222.20246080445713,91.03025692537324 M 222.20246080445713,101.03025692537312 M 219.20246080445713,101.03025692537312 M 219.20246080445713,111.03025692537346 M 222.20246080445713,111.03025692537346 M 222.20246080445713,121.03025692537335 M 219.20246080445713,121.03025692537335 M 219.20246080445713,131.03025692537358 M 222.20246080445713,131.03025692537358 M 222.20246080445713,141.03025692537346 M 219.20246080445713,141.03025692537346 M 219.20246080445713,154.030256925373 M 210.20246080445713,154.030256925373 M 210.20246080445713,157.030256925373 M 200.20246080445713,157.03025692537312 M 200.20246080445713,154.030256925373 M 191.20246080445668,154.030256925373 M 191.20246080445668,149.03025692537312 M 188.20246080445668,149.03025692537312 M 188.20246080445668,139.03025692537324 M 191.20246080445668,139.03025692537324 M 191.20246080445668,134.0302569253729 M 188.20246080445668,134.0302569253729 M 188.20246080445668,58.030256925372896 "
  />
  <path id="face5-interior"
 style="fill:none;stroke:#FF0000;stroke-width:1;stroke-miterlimit:4;stroke-dasharray:none;stroke-linejoin:round;stroke-linecap:round"
        d="M 88.66893645966275,230.4554411090685 M 88.66893645966275,239.4554411090685 M 91.66893645966275,239.4554411090685 M 91.66893645966275,249.4554411090686 M 88.66893645966275,249.45544110906837 M 88.66893645966275,258.4554411090685 M 93.66893645966275,258.4554411090685 M 93.66893645966275,261.4554411090685 M 103.66893645966229,261.4554411090685 M 103.66893645966275,258.4554411090685 M 113.66893645966275,258.4554411090685 M 113.66893645966275,261.4554411090685 M 123.66893645966275,261.4554411090685 M 123.66893645966275,258.4554411090685 M 133.66893645966275,258.4554411090687 M 133.66893645966275,261.4554411090685 M 143.66893645966275,261.4554411090685 M 143.66893645966275,258.4554411090685 M 153.66893645966275,258.4554411090685 M 153.66893645966275,261.4554411090685 M 163.66893645966275,261.4554411090685 M 163.66893645966275,258.4554411090685 M 173.6689364596623,258.4554411090685 M 173.6689364596623,261.4554411090685 M 183.66893645966275,261.4554411090685 M 183.66893645966275,258.4554411090685 M 188.66893645966275,258.4554411090685 M 188.66893645966275,249.45544110906837 M 185.66893645966275,249.45544110906837 M 185.66893645966275,239.4554411090685 M 188.66893645966275,239.4554411090685 M 188.66893645966275,230.45544110906837 M 183.66893645966275,230.45544110906837 M 183.66893645966275,227.45544110906837 M 173.6689364596623,227.45544110906837 M 173.6689364596623,230.45544110906837 M 163.66893645966275,230.45544110906837 M 163.66893645966275,227.45544110906837 M 153.66893645966275,227.45544110906837 M 153.66893645966275,230.45544110906837 M 143.66893645966275,230.45544110906837 M 143.66893645966275,227.45544110906837 M 133.66893645966275,227.4554411090685 M 133.66893645966275,230.45544110906837 M 123.66893645966275,230.45544110906837 M 123.66893645966275,227.45544110906837 M 113.66893645966275,227.45544110906837 M 113.66893645966275,230.45544110906837 M 103.66893645966275,230.45544110906837 M 103.66893645966229,227.45544110906837 M 93.66893645966275,227.45544110906837 M 93.66893645966275,230.4554411090685 "
  />
  <path id="face6-interior"
 style="fill:none;stroke:#FF0000;stroke-width:1;stroke-miterlimit:4;stroke-dasharray:none;stroke-linejoin:round;stroke-linecap:round"
        d="M 44.74965692308638,139.24644094603366 M 41.74965692308638,139.24644094603366 M 41.74965692308638,155.24644094603354 M 46.74965692308638,155.24644094603354 M 46.749656923086604,152.24644094603286 M 56.749656923086604,152.24644094603275 M 56.749656923086604,155.24644094603298 M 66.74965692308638,155.24644094603275 M 66.74965692308638,152.24644094603286 M 76.7496569230866,152.24644094603286 M 76.74965692308638,155.24644094603275 M 86.7496569230866,155.24644094603298 M 86.7496569230866,152.24644094603286 M 96.7496569230866,152.24644094603286 M 96.7496569230866,155.24644094603275 M 106.74965692308615,155.24644094603275 M 106.74965692308615,152.24644094603286 M 116.7496569230866,152.24644094603286 M 116.7496569230866,155.24644094603275 M 126.7496569230866,155.24644094603298 M 126.7496569230866,152.24644094603286 M 136.74965692308615,152.24644094603286 M 136.74965692308615,155.24644094603354 M 141.74965692308615,155.24644094603354 M 141.74965692308615,139.24644094603366 M 138.74965692308615,139.24644094603366 M 138.7496569230866,129.24644094603377 M 141.7496569230866,129.24644094603377 M 141.7496569230866,119.24644094603389 M 138.74965692308615,119.24644094603389 M 138.7496569230866,109.24644094603389 M 141.7496569230866,109.24644094603389 M 141.74965692308615,99.24644094603366 M 138.74965692308615,99.24644094603366 M 138.74965692308615,89.24644094603343 M 141.7496569230866,89.24644094603343 M 141.7496569230866,79.24644094603354 M 138.74965692308615,79.24644094603354 M 138.74965692308615,69.24644094603366 M 141.74965692308615,69.24644094603366 M 141.74965692308615,59.24644094603377 M 138.74965692308615,59.24644094603377 M 138.74965692308615,49.246440946033886 M 141.74965692308615,49.246440946033886 M 141.74965692308615,33.2464409460332 M 136.74965692308615,33.2464409460332 M 136.74965692308615,36.2464409460332 M 126.7496569230866,36.2464409460332 M 126.7496569230866,33.2464409460332 M 116.74965692308615,33.2464409460332 M 116.74965692308615,36.2464409460332 M 106.74965692308615,36.24644094603309 M 106.74965692308615,33.2464409460332 M 96.7496569230866,33.2464409460332 M 96.7496569230866,36.2464409460332 M 86.7496569230866,36.2464409460332 M 86.7496569230866,33.24644094603309 M 76.74965692308638,33.24644094603332 M 76.74965692308638,36.24644094603332 M 66.74965692308638,36.24644094603332 M 66.74965692308638,33.2464409460332 M 56.749656923086604,33.24644094603332 M 56.749656923086604,36.2464409460332 M 46.74965692308638,36.24644094603309 M 46.74965692308638,33.2464409460332 M 41.74965692308638,33.24644094603332 M 41.74965692308638,49.24644094603275 M 44.74965692308638,49.24644094603275 M 44.74965692308638,59.24644094603332 M 41.74965692308638,59.24644094603309 M 41.74965692308638,69.24644094603298 M 44.74965692308638,69.24644094603309 M 44.74965692308638,79.2464409460332 M 41.74965692308638,79.2464409460332 M 41.74965692308638,89.24644094603332 M 44.74965692308638,89.24644094603343 M 44.74965692308638,99.24644094603343 M 41.74965692308638,99.24644094603332 M 41.74965692308638,109.2464409460332 M 44.74965692308638,109.2464409460332 M 44.74965692308638,119.24644094603309 M 41.74965692308638,119.24644094603309 M 41.74965692308638,129.24644094603332 M 44.74965692308638,129.24644094603332 "
  />
  <path id="face0-interior"
 style="fill:none;stroke:#00FF00;stroke-width:1;stroke-miterlimit:4;stroke-dasharray:none;stroke-linejoin:round;stroke-linecap:round"
        d="M 191.20246080445668,53.03025692537324 M 191.20246080445668,58.030256925372896 M 188.20246080445668,58.030256925372896 M 188.20246080445668,134.0302569253729 M 191.20246080445668,134.0302569253729 M 191.20246080445668,139.03025692537324 M 188.20246080445668,139.03025692537324 M 188.20246080445668,149.03025692537312 M 191.20246080445668,149.03025692537312 M 191.20246080445668,154.030256925373 M 200.20246080445713,154.030256925373 M 200.20246080445713,157.03025692537312 M 210.20246080445713,157.030256925373 M 210.20246080445713,154.030256925373 M 219.20246080445713,154.030256925373 M 219.20246080445713,141.03025692537346 M 222.20246080445713,141.03025692537346 M 222.20246080445713,131.03025692537358 M 219.20246080445713,131.03025692537358 M 219.20246080445713,121.03025692537335 M 222.20246080445713,121.03025692537335 M 222.20246080445713,111.03025692537346 M 219.20246080445713,111.03025692537346 M 219.20246080445713,101.03025692537312 M 222.20246080445713,101.03025692537312 M 222.20246080445713,91.03025692537324 M 219.20246080445713,91.03025692537324 M 219.20246080445713,81.03025692537335 M 222.20246080445713,81.03025692537335 M 222.20246080445713,71.03025692537346 M 219.20246080445713,71.03025692537346 M 219.20246080445713,61.03025692537324 M 222.20246080445713,61.03025692537324 M 222.20246080445713,51.03025692537335 M 219.20246080445713,51.03025692537335 M 219.20246080445713,38.03025692537301 M 210.20246080445713,38.03025692537301 M 210.20246080445713,35.03025692537301 M 200.20246080445713,35.03025692537301 M 200.20246080445713,38.03025692537301 M 191.20246080445668,38.03025692537301 M 191.20246080445668,43.03025692537301 M 188.20246080445668,43.03025692537301 M 188.20246080445668,53.03025692537324 M 198.66692689852425,79.49472301944013 M 199.70246080445668,78.70012990645068 M 200.90836557894454,78.20062779392765 M 202.20246080445713,78.03025692537301 M 203.49655602996927,78.20062779392765 M 204.70246080445668,78.70012990645068 M 205.73799471038956,79.49472301944013 M 206.5325878233789,80.53025692537312 M 207.03208993590215,81.73616169986042 M 207.20246080445668,83.0302569253729 M 207.03208993590215,84.32435215088537 M 206.5325878233789,85.53025692537312 M 205.73799471038956,86.56579083130578 M 204.70246080445668,87.36038394429522 M 203.49655602996927,87.85988605681825 M 202.20246080445713,88.0302569253729 M 200.90836557894454,87.85988605681825 M 199.70246080445668,87.36038394429522 M 198.66692689852425,86.56579083130578 M 197.87233378553447,85.53025692537278 M 197.37283167301166,84.32435215088537 M 197.20246080445713,83.0302569253729 M 197.37283167301166,81.73616169986042 M 197.87233378553447,80.53025692537278 M 200.3387574993003,64.99498074496273 M 200.738359189319,64.03025692537256 M 201.37403367971046,63.201829800626456 M 202.20246080445713,62.566155310234876 M 203.1671846240465,62.16655362021629 M 204.20246080445668,62.03025692537267 M 205.23773698486684,62.16655362021629 M 206.20246080445713,62.566155310234876 M 207.03088792920335,63.201829800626456 M 207.6665624195948,64.0302569253729 M 208.0661641096135,64.99498074496273 M 208.20246080445713,66.03025692537278 M 208.0661641096135,67.06553310578295 M 207.6665624195948,68.03025692537312 M 207.03088792920335,68.85868405011922 M 206.20246080445668,69.4943585405108 M 205.23773698486684,69.89396023052939 M 204.20246080445668,70.03025692537301 M 203.1671846240465,69.89396023052939 M 202.20246080445713,69.4943585405108 M 201.37403367971046,68.85868405011922 M 200.738359189319,68.03025692537278 M 200.3387574993003,67.06553310578295 M 200.20246080445668,66.03025692537278 "
  />
  <path id="face1-interior"
 style="fill:none;stroke:#00FF00;stroke-width:1;stroke-miterlimit:4;stroke-dasharray:none;stroke-linejoin:round;stroke-linecap:round"
        d="M 92.18909642419158,214.01789401143867 M 89.18909642419158,214.01789401143867 M 89.18909642419158,223.01789401143878 M 94.18909642419158,223.01789401143833 M 94.18909642419158,226.01789401143856 M 104.18909642419203,226.01789401143856 M 104.18909642419203,223.01789401143833 M 114.18909642419158,223.01789401143878 M 114.18909642419158,226.017894011439 M 124.18909642419158,226.017894011439 M 124.18909642419158,223.01789401143878 M 134.18909642419158,223.01789401143833 M 134.18909642419203,226.01789401143856 M 144.18909642419203,226.01789401143844 M 144.18909642419203,223.01789401143833 M 154.18909642419158,223.01789401143878 M 154.18909642419158,226.017894011439 M 164.18909642419203,226.01789401143856 M 164.18909642419203,223.01789401143833 M 174.18909642419203,223.01789401143833 M 174.18909642419203,226.01789401143856 M 184.18909642419158,226.01789401143878 M 184.18909642419158,223.01789401143878 M 189.18909642419158,223.01789401143878 M 189.18909642419158,214.01789401143867 M 186.18909642419158,214.01789401143822 M 186.18909642419158,204.01789401143833 M 189.18909642419158,204.01789401143867 M 189.18909642419158,195.01789401143856 M 184.18909642419158,195.01789401143856 M 184.18909642419158,192.01789401143856 M 174.18909642419203,192.01789401143822 M 174.18909642419203,195.01789401143822 M 164.18909642419158,195.01789401143822 M 164.18909642419203,192.01789401143822 M 154.18909642419158,192.01789401143856 M 154.18909642419158,195.01789401143856 M 144.18909642419203,195.01789401143878 M 144.18909642419203,192.01789401143856 M 134.18909642419203,192.01789401143822 M 134.18909642419158,195.01789401143822 M 124.18909642419158,195.01789401143856 M 124.18909642419158,192.01789401143856 M 114.18909642419158,192.01789401143878 M 114.18909642419158,195.01789401143856 M 104.18909642419203,195.01789401143844 M 104.18909642419203,192.01789401143822 M 94.18909642419158,192.01789401143822 M 94.18909642419158,195.01789401143822 M 89.18909642419158,195.01789401143856 M 89.18909642419158,204.01789401143867 M 92.18909642419158,204.01789401143867 M 102.18909642413428,204.01789401138024 M 102.18909642413428,214.01789401138012 M 129.18909642419158,204.01789401143822 M 147.18909642419203,204.017894011438 M 147.18909642419203,218.01789401143844 M 129.18909642419158,218.01789401143844 M 153.18909642419158,204.01789401143867 M 168.18909642419158,204.01789401143867 M 168.18909642419158,220.017894011439 M 153.18909642419158,220.017894011439 "
  />
  <path id="face2-interior"
 style="fill:none;stroke:#00FF00;stroke-width:1;stroke-miterlimit:4;stroke-dasharray:none;stroke-linejoin:round;stroke-linecap:round"
        d="M 136.85954145420328,287.1844067327128 M 141.85954145420328,287.1844067327131 M 141.85954145420328,279.1844067327131 M 138.85954145420328,279.1844067327131 M 138.85954145420328,269.1844067327132 M 141.85954145420328,269.1844067327132 M 141.85954145420328,264.1844067327129 M 84.85954145420328,264.1844067327129 M 84.85954145420328,188.1844067327129 M 141.85954145420328,188.1844067327129 M 141.85954145420328,183.18440673271334 M 138.85954145420328,183.18440673271334 M 138.85954145420328,173.184406732713 M 141.85954145420328,173.184406732713 M 141.85954145420328,165.184406732713 M 136.85954145420328,165.184406732713 M 136.85954145420328,168.18440673271323 M 126.85954145420328,168.18440673271323 M 126.85954145420328,165.184406732713 M 116.85954145420328,165.184406732713 M 116.85954145420328,168.18440673271311 M 106.85954145420328,168.18440673271323 M 106.85954145420328,165.184406732713 M 96.85954145420328,165.18440673271323 M 96.85954145420328,168.18440673271323 M 86.85954145420328,168.18440673271323 M 86.85954145420328,165.184406732713 M 76.85954145420328,165.184406732713 M 76.85954145420328,168.18440673271311 M 66.85954145420328,168.18440673271311 M 66.85954145420328,165.184406732713 M 56.859541454203054,165.184406732713 M 56.859541454203054,168.18440673271311 M 46.85954145420328,168.18440673271311 M 46.85954145420328,165.18440673271323 M 41.85954145420328,165.18440673271323 M 41.85954145420328,181.184406732713 M 44.85954145420328,181.184406732713 M 44.85954145420328,191.1844067327129 M 41.85954145420328,191.1844067327129 M 41.85954145420328,201.18440673271277 M 44.85954145420328,201.18440673271277 M 44.85954145420328,211.18440673271266 M 41.85954145420328,211.18440673271266 M 41.85954145420328,221.184406732713 M 44.85954145420328,221.184406732713 M 44.85954145420328,231.18440673271334 M 41.85954145420328,231.18440673271323 M 41.85954145420328,241.18440673271323 M 44.85954145420328,241.18440673271323 M 44.85954145420328,251.184406732713 M 41.85954145420328,251.184406732713 M 41.85954145420328,261.1844067327131 M 44.85954145420328,261.1844067327131 M 44.85954145420328,271.1844067327131 M 41.85954145420328,271.1844067327131 M 41.85954145420328,287.1844067327132 M 46.85954145420328,287.1844067327129 M 46.85954145420328,284.1844067327129 M 56.859541454203054,284.1844067327129 M 56.85954145420351,287.1844067327129 M 66.85954145420328,287.1844067327128 M 66.85954145420328,284.18440673271266 M 76.85954145420328,284.18440673271266 M 76.85954145420328,287.1844067327128 M 86.85954145420328,287.1844067327128 M 86.85954145420328,284.1844067327129 M 96.85954145420328,284.18440673271266 M 96.85954145420328,287.1844067327128 M 106.85954145420328,287.1844067327128 M 106.85954145420328,284.18440673271266 M 116.85954145420328,284.18440673271266 M 116.85954145420328,287.1844067327128 M 126.85954145420328,287.1844067327128 M 126.85954145420328,284.18440673271266 M 136.85954145420328,284.18440673271266 "
  />
  <path id="face3-interior"
 style="fill:none;stroke:#00FF00;stroke-width:1;stroke-miterlimit:4;stroke-dasharray:none;stroke-linejoin:round;stroke-linecap:round"
        d="M 179.49910828212796,37.703703507993396 M 170.49910828212796,37.703703507993396 M 170.49910828212796,34.703703507993396 M 160.49910828212796,34.703703507993396 M 160.49910828212796,37.703703507993396 M 151.49910828212796,37.703703507993396 M 151.49910828212796,50.70370350799385 M 148.49910828212796,50.70370350799385 M 148.49910828212796,60.70370350799362 M 151.49910828212796,60.70370350799362 M 151.49910828212796,70.70370350799351 M 148.49910828212796,70.70370350799351 M 148.49910828212796,80.7037035079934 M 151.49910828212796,80.7037035079934 M 151.49910828212796,90.70370350799362 M 148.49910828212796,90.70370350799362 M 148.49910828212796,100.70370350799385 M 151.49910828212796,100.70370350799385 M 151.49910828212796,110.70370350799374 M 148.49910828212796,110.70370350799374 M 148.49910828212796,120.70370350799362 M 151.49910828212796,120.70370350799362 M 151.49910828212796,130.70370350799362 M 148.49910828212796,130.70370350799362 M 148.49910828212796,140.70370350799385 M 151.49910828212796,140.70370350799385 M 151.49910828212796,153.7037035079934 M 160.49910828212796,153.7037035079934 M 160.49910828212796,156.70370350799328 M 170.49910828212796,156.70370350799328 M 170.49910828212796,153.7037035079934 M 179.49910828212796,153.7037035079934 M 179.49910828212796,140.70370350799385 M 182.49910828212796,140.70370350799385 M 182.49910828212796,130.70370350799362 M 179.49910828212796,130.70370350799362 M 179.49910828212796,120.70370350799362 M 182.49910828212796,120.70370350799362 M 182.49910828212796,110.70370350799374 M 179.49910828212796,110.70370350799374 M 179.49910828212796,100.70370350799385 M 182.49910828212796,100.70370350799385 M 182.49910828212796,90.70370350799362 M 179.49910828212796,90.70370350799362 M 179.49910828212796,80.7037035079934 M 182.49910828212796,80.7037035079934 M 182.49910828212796,70.70370350799351 M 179.49910828212796,70.70370350799351 M 179.49910828212796,60.70370350799362 M 182.49910828212796,60.70370350799362 M 182.49910828212796,50.70370350799374 M 179.49910828212796,50.70370350799374 "
  />
  <path id="face4-interior"
 style="fill:none;stroke:#00FF00;stroke-width:1;stroke-miterlimit:4;stroke-dasharray:none;stroke-linejoin:round;stroke-linecap:round"
        d="M 10.0,304.9999999999999 M 254.0,304.9999999999999 M 254.0,10.0 M 10.0,10.0 M 89.18909642419158,214.01789401143867 M 92.18909642419158,214.01789401143867 M 102.18909642413428,214.01789401138012 M 102.18909642413428,204.01789401138024 M 92.18909642419158,204.01789401143867 M 89.18909642419158,204.01789401143867 M 89.18909642419158,195.01789401143856 M 94.18909642419158,195.01789401143822 M 94.18909642419158,192.01789401143822 M 104.18909642419203,192.01789401143822 M 104.18909642419203,195.01789401143844 M 114.18909642419158,195.01789401143856 M 114.18909642419158,192.01789401143878 M 124.18909642419158,192.01789401143856 M 124.18909642419158,195.01789401143856 M 134.18909642419158,195.01789401143822 M 134.18909642419203,192.01789401143822 M 144.18909642419203,192.01789401143856 M 144.18909642419203,195.01789401143878 M 154.18909642419158,195.01789401143856 M 154.18909642419158,192.01789401143856 M 164.18909642419203,192.01789401143822 M 164.18909642419158,195.01789401143822 M 174.18909642419203,195.01789401143822 M 174.18909642419203,192.01789401143822 M 184.18909642419158,192.01789401143856 M 184.18909642419158,195.01789401143856 M 189.18909642419158,195.01789401143856 M 189.18909642419158,204.01789401143867 M 186.18909642419158,204.01789401143833 M 186.18909642419158,214.01789401143822 M 189.18909642419158,214.01789401143867 M 189.18909642419158,223.01789401143878 M 184.18909642419158,223.01789401143878 M 184.18909642419158,226.01789401143878 M 174.18909642419203,226.01789401143856 M 174.18909642419203,223.01789401143833 M 164.18909642419203,223.01789401143833 M 164.18909642419203,226.01789401143856 M 154.18909642419158,226.017894011439 M 154.18909642419158,223.01789401143878 M 144.18909642419203,223.01789401143833 M 144.18909642419203,226.01789401143844 M 134.18909642419203,226.01789401143856 M 134.18909642419158,223.01789401143833 M 124.18909642419158,223.01789401143878 M 124.18909642419158,226.017894011439 M 114.18909642419158,226.017894011439 M 114.18909642419158,223.01789401143878 M 104.18909642419203,223.01789401143833 M 104.18909642419203,226.01789401143856 M 94.18909642419158,226.01789401143856 M 94.18909642419158,223.01789401143833 M 89.18909642419158,223.01789401143878 M 141.85954145420328,287.1844067327131 M 136.85954145420328,287.1844067327128 M 136.85954145420328,284.18440673271266 M 126.85954145420328,284.18440673271266 M 126.85954145420328,287.1844067327128 M 116.85954145420328,287.1844067327128 M 116.85954145420328,284.18440673271266 M 106.85954145420328,284.18440673271266 M 106.85954145420328,287.1844067327128 M 96.85954145420328,287.1844067327128 M 96.85954145420328,284.18440673271266 M 86.85954145420328,284.1844067327129 M 86.85954145420328,287.1844067327128 M 76.85954145420328,287.1844067327128 M 76.85954145420328,284.18440673271266 M 66.85954145420328,284.18440673271266 M 66.85954145420328,287.1844067327128 M 56.85954145420351,287.1844067327129 M 56.859541454203054,284.1844067327129 M 46.85954145420328,284.1844067327129 M 46.85954145420328,287.1844067327129 M 41.85954145420328,287.1844067327132 M 41.85954145420328,271.1844067327131 M 44.85954145420328,271.1844067327131 M 44.85954145420328,261.1844067327131 M 41.85954145420328,261.1844067327131 M 41.85954145420328,251.184406732713 M 44.85954145420328,251.184406732713 M 44.85954145420328,241.18440673271323 M 41.85954145420328,241.18440673271323 M 41.85954145420328,231.18440673271323 M 44.85954145420328,231.18440673271334 M 44.85954145420328,221.184406732713 M 41.85954145420328,221.184406732713 M 41.85954145420328,211.18440673271266 M 44.85954145420328,211.18440673271266 M 44.85954145420328,201.18440673271277 M 41.85954145420328,201.18440673271277 M 41.85954145420328,191.1844067327129 M 44.85954145420328,191.1844067327129 M 44.85954145420328,181.184406732713 M 41.85954145420328,181.184406732713 M 41.85954145420328,165.18440673271323 M 46.85954145420328,165.18440673271323 M 46.85954145420328,168.18440673271311 M 56.859541454203054,168.18440673271311 M 56.859541454203054,165.184406732713 M 66.85954145420328,165.184406732713 M 66.85954145420328,168.18440673271311 M 76.85954145420328,168.18440673271311 M 76.85954145420328,165.184406732713 M 86.85954145420328,165.184406732713 M 86.85954145420328,168.18440673271323 M 96.85954145420328,168.18440673271323 M 96.85954145420328,165.18440673271323 M 106.85954145420328,165.184406732713 M 106.85954145420328,168.18440673271323 M 116.85954145420328,168.18440673271311 M 116.85954145420328,165.184406732713 M 126.85954145420328,165.184406732713 M 126.85954145420328,168.18440673271323 M 136.85954145420328,168.18440673271323 M 136.85954145420328,165.184406732713 M 141.85954145420328,165.184406732713 M 141.85954145420328,173.184406732713 M 138.85954145420328,173.184406732713 M 138.85954145420328,183.18440673271334 M 141.85954145420328,183.18440673271334 M 141.85954145420328,188.1844067327129 M 84.85954145420328,188.1844067327129 M 84.85954145420328,264.1844067327129 M 141.85954145420328,264.1844067327129 M 141.85954145420328,269.1844067327132 M 138.85954145420328,269.1844067327132 M 138.85954145420328,279.1844067327131 M 141.85954145420328,279.1844067327131 M 88.66893645966275,239.4554411090685 M 88.66893645966275,230.4554411090685 M 93.66893645966275,230.4554411090685 M 93.66893645966275,227.45544110906837 M 103.66893645966229,227.45544110906837 M 103.66893645966275,230.45544110906837 M 113.66893645966275,230.45544110906837 M 113.66893645966275,227.45544110906837 M 123.66893645966275,227.45544110906837 M 123.66893645966275,230.45544110906837 M 133.66893645966275,230.45544110906837 M 133.66893645966275,227.4554411090685 M 143.66893645966275,227.45544110906837 M 143.66893645966275,230.45544110906837 M 153.66893645966275,230.45544110906837 M 153.66893645966275,227.45544110906837 M 163.66893645966275,227.45544110906837 M 163.66893645966275,230.45544110906837 M 173.6689364596623,230.45544110906837 M 173.6689364596623,227.45544110906837 M 183.66893645966275,227.45544110906837 M 183.66893645966275,230.45544110906837 M 188.66893645966275,230.45544110906837 M 188.66893645966275,239.4554411090685 M 185.66893645966275,239.4554411090685 M 185.66893645966275,249.45544110906837 M 188.66893645966275,249.45544110906837 M 188.66893645966275,258.4554411090685 M 183.66893645966275,258.4554411090685 M 183.66893645966275,261.4554411090685 M 173.6689364596623,261.4554411090685 M 173.6689364596623,258.4554411090685 M 163.66893645966275,258.4554411090685 M 163.66893645966275,261.4554411090685 M 153.66893645966275,261.4554411090685 M 153.66893645966275,258.4554411090685 M 143.66893645966275,258.4554411090685 M 143.66893645966275,261.4554411090685 M 133.66893645966275,261.4554411090685 M 133.66893645966275,258.4554411090687 M 123.66893645966275,258.4554411090685 M 123.66893645966275,261.4554411090685 M 113.66893645966275,261.4554411090685 M 113.66893645966275,258.4554411090685 M 103.66893645966275,258.4554411090685 M 103.66893645966229,261.4554411090685 M 93.66893645966275,261.4554411090685 M 93.66893645966275,258.4554411090685 M 88.66893645966275,258.4554411090685 M 88.66893645966275,249.45544110906837 M 91.66893645966275,249.4554411090686 M 91.66893645966275,239.4554411090685 M 41.74965692308638,139.24644094603366 M 44.74965692308638,139.24644094603366 M 44.74965692308638,129.24644094603332 M 41.74965692308638,129.24644094603332 M 41.74965692308638,119.24644094603309 M 44.74965692308638,119.24644094603309 M 44.74965692308638,109.2464409460332 M 41.74965692308638,109.2464409460332 M 41.74965692308638,99.24644094603332 M 44.74965692308638,99.24644094603343 M 44.74965692308638,89.24644094603343 M 41.74965692308638,89.24644094603332 M 41.74965692308638,79.2464409460332 M 44.74965692308638,79.2464409460332 M 44.74965692308638,69.24644094603309 M 41.74965692308638,69.24644094603298 M 41.74965692308638,59.24644094603309 M 44.74965692308638,59.24644094603332 M 44.74965692308638,49.24644094603275 M 41.74965692308638,49.24644094603275 M 41.74965692308638,33.24644094603332 M 46.74965692308638,33.2464409460332 M 46.74965692308638,36.24644094603309 M 56.749656923086604,36.2464409460332 M 56.749656923086604,33.24644094603332 M 66.74965692308638,33.2464409460332 M 66.74965692308638,36.24644094603332 M 76.74965692308638,36.24644094603332 M 76.74965692308638,33.24644094603332 M 86.7496569230866,33.24644094603309 M 86.7496569230866,36.2464409460332 M 96.7496569230866,36.2464409460332 M 96.7496569230866,33.2464409460332 M 106.74965692308615,33.2464409460332 M 106.74965692308615,36.24644094603309 M 116.74965692308615,36.2464409460332 M 116.74965692308615,33.2464409460332 M 126.7496569230866,33.2464409460332 M 126.7496569230866,36.2464409460332 M 136.74965692308615,36.2464409460332 M 136.74965692308615,33.2464409460332 M 141.74965692308615,33.2464409460332 M 141.74965692308615,49.246440946033886 M 138.74965692308615,49.246440946033886 M 138.74965692308615,59.24644094603377 M 141.74965692308615,59.24644094603377 M 141.74965692308615,69.24644094603366 M 138.74965692308615,69.24644094603366 M 138.74965692308615,79.24644094603354 M 141.7496569230866,79.24644094603354 M 141.7496569230866,89.24644094603343 M 138.74965692308615,89.24644094603343 M 138.74965692308615,99.24644094603366 M 141.74965692308615,99.24644094603366 M 141.7496569230866,109.24644094603389 M 138.7496569230866,109.24644094603389 M 138.74965692308615,119.24644094603389 M 141.7496569230866,119.24644094603389 M 141.7496569230866,129.24644094603377 M 138.7496569230866,129.24644094603377 M 138.74965692308615,139.24644094603366 M 141.74965692308615,139.24644094603366 M 141.74965692308615,155.24644094603354 M 136.74965692308615,155.24644094603354 M 136.74965692308615,152.24644094603286 M 126.7496569230866,152.24644094603286 M 126.7496569230866,155.24644094603298 M 116.7496569230866,155.24644094603275 M 116.7496569230866,152.24644094603286 M 106.74965692308615,152.24644094603286 M 106.74965692308615,155.24644094603275 M 96.7496569230866,155.24644094603275 M 96.7496569230866,152.24644094603286 M 86.7496569230866,152.24644094603286 M 86.7496569230866,155.24644094603298 M 76.74965692308638,155.24644094603275 M 76.7496569230866,152.24644094603286 M 66.74965692308638,152.24644094603286 M 66.74965692308638,155.24644094603275 M 56.749656923086604,155.24644094603298 M 56.749656923086604,152.24644094603275 M 46.749656923086604,152.24644094603286 M 46.74965692308638,155.24644094603354 M 41.74965692308638,155.24644094603354 M 170.49910828212796,37.703703507993396 M 179.49910828212796,37.703703507993396 M 179.49910828212796,50.70370350799374 M 182.49910828212796,50.70370350799374 M 182.49910828212796,60.70370350799362 M 179.49910828212796,60.70370350799362 M 179.49910828212796,70.70370350799351 M 182.49910828212796,70.70370350799351 M 182.49910828212796,80.7037035079934 M 179.49910828212796,80.7037035079934 M 179.49910828212796,90.70370350799362 M 182.49910828212796,90.70370350799362 M 182.49910828212796,100.70370350799385 M 179.49910828212796,100.70370350799385 M 179.49910828212796,110.70370350799374 M 182.49910828212796,110.70370350799374 M 182.49910828212796,120.70370350799362 M 179.49910828212796,120.70370350799362 M 179.49910828212796,130.70370350799362 M 182.49910828212796,130.70370350799362 M 182.49910828212796,140.70370350799385 M 179.49910828212796,140.70370350799385 M 179.49910828212796,153.7037035079934 M 170.49910828212796,153.7037035079934 M 170.49910828212796,156.70370350799328 M 160.49910828212796,156.70370350799328 M 160.49910828212796,153.7037035079934 M 151.49910828212796,153.7037035079934 M 151.49910828212796,140.70370350799385 M 148.49910828212796,140.70370350799385 M 148.49910828212796,130.70370350799362 M 151.49910828212796,130.70370350799362 M 151.49910828212796,120.70370350799362 M 148.49910828212796,120.70370350799362 M 148.49910828212796,110.70370350799374 M 151.49910828212796,110.70370350799374 M 151.49910828212796,100.70370350799385 M 148.49910828212796,100.70370350799385 M 148.49910828212796,90.70370350799362 M 151.49910828212796,90.70370350799362 M 151.49910828212796,80.7037035079934 M 148.49910828212796,80.7037035079934 M 148.49910828212796,70.70370350799351 M 151.49910828212796,70.70370350799351 M 151.49910828212796,60.70370350799362 M 148.49910828212796,60.70370350799362 M 148.49910828212796,50.70370350799385 M 151.49910828212796,50.70370350799385 M 151.49910828212796,37.703703507993396 M 160.49910828212796,37.703703507993396 M 160.49910828212796,34.703703507993396 M 170.49910828212796,34.703703507993396 M 191.20246080445668,58.030256925372896 M 191.20246080445668,53.03025692537324 M 188.20246080445668,53.03025692537324 M 188.20246080445668,43.03025692537301 M 191.20246080445668,43.03025692537301 M 191.20246080445668,38.03025692537301 M 200.20246080445713,38.03025692537301 M 200.20246080445713,35.03025692537301 M 210.20246080445713,35.03025692537301 M 210.20246080445713,38.03025692537301 M 219.20246080445713,38.03025692537301 M 219.20246080445713,51.03025692537335 M 222.20246080445713,51.03025692537335 M 222.20246080445713,61.03025692537324 M 219.20246080445713,61.03025692537324 M 219.20246080445713,71.03025692537346 M 222.20246080445713,71.03025692537346 M 222.20246080445713,81.03025692537335 M 219.20246080445713,81.03025692537335 M 219.20246080445713,91.03025692537324 M 222.20246080445713,91.03025692537324 M 222.20246080445713,101.03025692537312 M 219.20246080445713,101.03025692537312 M 219.20246080445713,111.03025692537346 M 222.20246080445713,111.03025692537346 M 222.20246080445713,121.03025692537335 M 219.20246080445713,121.03025692537335 M 219.20246080445713,131.03025692537358 M 222.20246080445713,131.03025692537358 M 222.20246080445713,141.03025692537346 M 219.20246080445713,141.03025692537346 M 219.20246080445713,154.030256925373 M 210.20246080445713,154.030256925373 M 210.20246080445713,157.030256925373 M 200.20246080445713,157.03025692537312 M 200.20246080445713,154.030256925373 M 191.20246080445668,154.030256925373 M 191.20246080445668,149.03025692537312 M 188.20246080445668,149.03025692537312 M 188.20246080445668,139.03025692537324 M 191.20246080445668,139.03025692537324 M 191.20246080445668,134.0302569253729 M 188.20246080445668,134.0302569253729 M 188.20246080445668,58.030256925372896 "
  />
  <path id="face5-interior"
 style="fill:none;stroke:#00FF00;stroke-width:1;stroke-miterlimit:4;stroke-dasharray:none;stroke-linejoin:round;stroke-linecap:round"
        d="M 88.66893645966275,230.4554411090685 M 88.66893645966275,239.4554411090685 M 91.66893645966275,239.4554411090685 M 91.66893645966275,249.4554411090686 M 88.66893645966275,249.45544110906837 M 88.66893645966275,258.4554411090685 M 93.66893645966275,258.4554411090685 M 93.66893645966275,261.4554411090685 M 103.66893645966229,261.4554411090685 M 103.66893645966275,258.4554411090685 M 113.66893645966275,258.4554411090685 M 113.66893645966275,261.4554411090685 M 123.66893645966275,261.4554411090685 M 123.66893645966275,258.4554411090685 M 133.66893645966275,258.4554411090687 M 133.66893645966275,261.4554411090685 M 143.66893645966275,261.4554411090685 M 143.66893645966275,258.4554411090685 M 153.66893645966275,258.4554411090685 M 153.66893645966275,261.4554411090685 M 163.66893645966275,261.4554411090685 M 163.66893645966275,258.4554411090685 M 173.6689364596623,258.4554411090685 M 173.6689364596623,261.4554411090685 M 183.66893645966275,261.4554411090685 M 183.66893645966275,258.4554411090685 M 188.66893645966275,258.4554411090685 M 188.66893645966275,249.45544110906837 M 185.66893645966275,249.45544110906837 M 185.66893645966275,239.4554411090685 M 188.66893645966275,239.4554411090685 M 188.66893645966275,230.45544110906837 M 183.66893645966275,230.45544110906837 M 183.66893645966275,227.45544110906837 M 173.6689364596623,227.45544110906837 M 173.6689364596623,230.45544110906837 M 163.66893645966275,230.45544110906837 M 163.66893645966275,227.45544110906837 M 153.66893645966275,227.45544110906837 M 153.66893645966275,230.45544110906837 M 143.66893645966275,230.45544110906837 M 143.66893645966275,227.45544110906837 M 133.66893645966275,227.4554411090685 M 133.66893645966275,230.45544110906837 M 123.66893645966275,230.45544110906837 M 123.66893645966275,227.45544110906837 M 113.66893645966275,227.45544110906837 M 113.66893645966275,230.45544110906837 M 103.66893645966275,230.45544110906837 M 103.66893645966229,227.45544110906837 M 93.66893645966275,227.45544110906837 M 93.66893645966275,230.4554411090685 "
  />
  <path id="face6-interior"
 style="fill:none;stroke:#00FF00;stroke-width:1;stroke-miterlimit:4;stroke-dasharray:none;stroke-linejoin:round;stroke-linecap:round"
        d="M 44.74965692308638,139.24644094603366 M 41.74965692308638,139.24644094603366 M 41.74965692308638,155.24644094603354 M 46.74965692308638,155.24644094603354 M 46.749656923086604,152.24644094603286 M 56.749656923086604,152.24644094603275 M 56.749656923086604,155.24644094603298 M 66.74965692308638,155.24644094603275 M 66.74965692308638,152.24644094603286 M 76.7496569230866,152.24644094603286 M 76.74965692308638,155.24644094603275 M 86.7496569230866,155.24644094603298 M 86.7496569230866,152.24644094603286 M 96.7496569230866,152.24644094603286 M 96.7496569230866,155.24644094603275 M 106.74965692308615,155.24644094603275 M 106.74965692308615,152.24644094603286 M 116.7496569230866,152.24644094603286 M 116.7496569230866,155.24644094603275 M 126.7496569230866,155.24644094603298 M 126.7496569230866,152.24644094603286 M 136.74965692308615,152.24644094603286 M 136.74965692308615,155.24644094603354 M 141.74965692308615,155.24644094603354 M 141.74965692308615,139.24644094603366 M 138.74965692308615,139.24644094603366 M 138.7496569230866,129.24644094603377 M 141.7496569230866,129.24644094603377 M 141.7496569230866,119.24644094603389 M 138.74965692308615,119.24644094603389 M 138.7496569230866,109.24644094603389 M 141.7496569230866,109.24644094603389 M 141.74965692308615,99.24644094603366 M 138.74965692308615,99.24644094603366 M 138.74965692308615,89.24644094603343 M 141.7496569230866,89.24644094603343 M 141.7496569230866,79.24644094603354 M 138.74965692308615,79.24644094603354 M 138.74965692308615,69.24644094603366 M 141.74965692308615,69.24644094603366 M 141.74965692308615,59.24644094603377 M 138.74965692308615,59.24644094603377 M 138.74965692308615,49.246440946033886 M 141.74965692308615,49.246440946033886 M 141.74965692308615,33.2464409460332 M 136.74965692308615,33.2464409460332 M 136.74965692308615,36.2464409460332 M 126.7496569230866,36.2464409460332 M 126.7496569230866,33.2464409460332 M 116.74965692308615,33.2464409460332 M 116.74965692308615,36.2464409460332 M 106.74965692308615,36.24644094603309 M 106.74965692308615,33.2464409460332 M 96.7496569230866,33.2464409460332 M 96.7496569230866,36.2464409460332 M 86.7496569230866,36.2464409460332 M 86.7496569230866,33.24644094603309 M 76.74965692308638,33.24644094603332 M 76.74965692308638,36.24644094603332 M 66.74965692308638,36.24644094603332 M 66.74965692308638,33.2464409460332 M 56.749656923086604,33.24644094603332 M 56.749656923086604,36.2464409460332 M 46.74965692308638,36.24644094603309 M 46.74965692308638,33.2464409460332 M 41.74965692308638,33.24644094603332 M 41.74965692308638,49.24644094603275 M 44.74965692308638,49.24644094603275 M 44.74965692308638,59.24644094603332 M 41.74965692308638,59.24644094603309 M 41.74965692308638,69.24644094603298 M 44.74965692308638,69.24644094603309 M 44.74965692308638,79.2464409460332 M 41.74965692308638,79.2464409460332 M 41.74965692308638,89.24644094603332 M 44.74965692308638,89.24644094603343 M 44.74965692308638,99.24644094603343 M 41.74965692308638,99.24644094603332 M 41.74965692308638,109.2464409460332 M 44.74965692308638,109.2464409460332 M 44.74965692308638,119.24644094603309 M 41.74965692308638,119.24644094603309 M 41.74965692308638,129.24644094603332 M 44.74965692308638,129.24644094603332 "
  />
</svg>
